<svg width="19" height="20" viewBox="0 0 19 20" fill="none" xmlns="http://www.w3.org/2000/svg">
    <path d="M0 13.5C0 9.91015 2.91015 7 6.5 7C10.0899 7 13 9.91015 13 13.5C13 17.0899 10.0899 20 6.5 20C2.91015 20 0 17.0899 0 13.5Z"
          fill="#E0CDBC"/>
    <path d="M12 1L17.5 3.5L14 8.5" stroke="#17181A"/>
    <path fill-rule="evenodd" clip-rule="evenodd"
          d="M17 3.0117C16.8343 3.00393 16.6676 3 16.5 3C10.701 3 6 7.70101 6 13.5C6 13.6676 6.00393 13.8343 6.0117 14H7.01293C7.00435 13.8344 7 13.6677 7 13.5C7 8.25329 11.2533 4 16.5 4C16.6677 4 16.8344 4.00435 17 4.01293V3.0117Z"
          fill="#17181A"/>
</svg>
