<svg width="18" height="14" viewBox="0 0 18 14" fill="none" xmlns="http://www.w3.org/2000/svg">
<path d="M12 4C13.1046 4 14 4.89543 14 6L14 12C14 13.1046 13.1046 14 12 14L2 14C0.89543 14 -3.97973e-07 13.1046 -3.49691e-07 12L-8.74228e-08 6C-3.91405e-08 4.89543 0.895431 4 2 4L12 4Z" fill="#C6C8CC"/>
<path d="M16 0.5C16.8284 0.5 17.5 1.17157 17.5 2L17.5 8C17.5 8.82843 16.8284 9.5 16 9.5L6 9.5C5.17157 9.5 4.5 8.82843 4.5 8L4.5 2C4.5 1.17157 5.17157 0.499999 6 0.499999L16 0.5Z" stroke="#17181A"/>
<path d="M5 1L10.7 5.275C10.8778 5.40833 11.1222 5.40833 11.3 5.275L17 1" stroke="#17181A"/>
</svg>
