<svg width="17" height="17" viewBox="0 0 17 17" fill="none" xmlns="http://www.w3.org/2000/svg">
    <path d="M12.88 3H1.12C0.822958 3 0.538081 3.118 0.32804 3.32804C0.118 3.53808 0 3.82296 0 4.12V15.88C0 16.177 0.118 16.4619 0.32804 16.672C0.538081 16.882 0.822958 17 1.12 17H12.88C13.177 17 13.4619 16.882 13.672 16.672C13.882 16.4619 14 16.177 14 15.88V4.12C14 3.82296 13.882 3.53808 13.672 3.32804C13.4619 3.118 13.177 3 12.88 3Z"
          fill="#E0CDBC"/>
    <mask id="path-2-inside-1" fill="white">
        <path d="M12.6933 14H16.0967C16.3363 14 16.566 13.9048 16.7354 13.7354C16.9048 13.566 17 13.3363 17 13.0967V0.90328C17 0.663715 16.9048 0.433963 16.7354 0.264565C16.566 0.0951668 16.3363 0 16.0967 0H3.90328C3.66372 0 3.43396 0.0951668 3.26456 0.264565C3.09517 0.433963 3 0.663715 3 0.90328V13.0967C3 13.3363 3.09517 13.566 3.26456 13.7354C3.43396 13.9048 3.66372 14 3.90328 14H10.4766"/>
    </mask>
    <path d="M16.0967 0V-1V0ZM3.90328 0V-1V0ZM3 0.90328H2H3ZM3 13.0967H2H3ZM12.6933 15H16.0967V13H12.6933V15ZM16.0967 15C16.6015 15 17.0856 14.7995 17.4425 14.4425L16.0283 13.0283C16.0465 13.0102 16.0711 13 16.0967 13V15ZM17.4425 14.4425C17.7995 14.0856 18 13.6015 18 13.0967H16C16 13.0711 16.0102 13.0465 16.0283 13.0283L17.4425 14.4425ZM18 13.0967V0.90328H16V13.0967H18ZM18 0.90328C18 0.398499 17.7995 -0.0856078 17.4425 -0.442542L16.0283 0.971671C16.0102 0.953533 16 0.928932 16 0.90328H18ZM17.4425 -0.442542C17.0856 -0.799476 16.6015 -1 16.0967 -1V1C16.0711 1 16.0465 0.98981 16.0283 0.971671L17.4425 -0.442542ZM16.0967 -1H3.90328V1H16.0967V-1ZM3.90328 -1C3.3985 -1 2.91439 -0.799476 2.55746 -0.442542L3.97167 0.971671C3.95353 0.98981 3.92893 1 3.90328 1V-1ZM2.55746 -0.442542C2.20052 -0.0856081 2 0.398498 2 0.90328H4C4 0.928932 3.98981 0.953533 3.97167 0.971671L2.55746 -0.442542ZM2 0.90328V13.0967H4V0.90328H2ZM2 13.0967C2 13.6015 2.20052 14.0856 2.55746 14.4425L3.97167 13.0283C3.98981 13.0465 4 13.0711 4 13.0967H2ZM2.55746 14.4425C2.91439 14.7995 3.3985 15 3.90328 15V13C3.92893 13 3.95353 13.0102 3.97167 13.0283L2.55746 14.4425ZM3.90328 15H10.4766V13H3.90328V15Z"
          fill="#17181A" mask="url(#path-2-inside-1)"/>
    <path d="M12.5185 14L12.5 9.50001L14.5 9.5V7.5L12.5 7.50001C12.5 6.17363 12.5 5 12.5 5C12.5 4.5 12.5 4.5 14.5 4.49998V2.5C13.976 2.5 14.5 2.5 13 2.5C11.5 2.5 10.5 3.5 10.5 5V7.50001L8.5 7.5V9.5L10.5 9.50001V14"
          stroke="#17181A" stroke-miterlimit="10" stroke-linejoin="round"/>
</svg>
