<svg width="70" height="14" viewBox="0 0 70 14" fill="none" xmlns="http://www.w3.org/2000/svg">
<path d="M33.5378 0.67675C29.8504 0.67675 26.8501 3.59614 26.8501 7.18414C26.8501 10.7721 29.8504 13.6915 33.5378 13.6915C37.2252 13.6915 40.2255 10.7721 40.2255 7.18414C40.2255 3.59614 37.2252 0.67675 33.5378 0.67675ZM33.5378 12.7945C30.3588 12.7945 27.7719 10.2781 27.7719 7.18414C27.7719 4.09018 30.3581 1.57375 33.5378 1.57375C36.7175 1.57375 39.3037 4.09018 39.3037 7.18414C39.3037 10.2781 36.7168 12.7945 33.5378 12.7945ZM7.51168 1.52269C8.81646 1.52269 10.0475 1.936 11.0708 2.71846C11.2707 2.87164 11.5608 2.83783 11.7182 2.64256C11.8756 2.44798 11.8409 2.16577 11.6402 2.01259C10.4524 1.10455 9.02495 0.625 7.51168 0.625C3.82426 0.625 0.823975 3.54439 0.823975 7.13239C0.823975 10.7204 3.82426 13.6398 7.51168 13.6398C9.02495 13.6398 10.4531 13.1595 11.6402 12.2522C11.8401 12.099 11.8749 11.8175 11.7182 11.6222C11.5608 11.4276 11.2714 11.3931 11.0708 11.5463C10.0475 12.3288 8.81646 12.7421 7.51168 12.7421C4.3327 12.7421 1.74583 10.2257 1.74583 7.1317C1.74583 4.03774 4.3327 1.52269 7.51168 1.52269ZM52.7344 1.52269C54.0392 1.52269 55.2702 1.936 56.2935 2.71846C56.4934 2.87164 56.7835 2.83783 56.9409 2.64256C57.0983 2.44798 57.0636 2.16577 56.8629 2.01259C55.6751 1.10455 54.2476 0.625 52.7344 0.625C49.047 0.625 46.0467 3.54439 46.0467 7.13239C46.0467 10.7204 49.047 13.6398 52.7344 13.6398C54.2476 13.6398 55.6751 13.1595 56.8629 12.2522C57.0628 12.099 57.0976 11.8175 56.9409 11.6222C56.7835 11.4276 56.4934 11.3938 56.2935 11.5463C55.2702 12.3288 54.0392 12.7421 52.7344 12.7421C49.5554 12.7421 46.9685 10.2257 46.9685 7.1317C46.9685 4.03774 49.5554 1.52269 52.7344 1.52269ZM23.9236 0.88375C23.669 0.88375 23.4626 1.08454 23.4626 1.33225V6.53209H15.2014V1.33225C15.2014 1.08454 14.995 0.88375 14.7405 0.88375C14.4859 0.88375 14.2795 1.08454 14.2795 1.33225V12.6634C14.2795 12.9111 14.4859 13.1119 14.7405 13.1119C14.995 13.1119 15.2014 12.9111 15.2014 12.6634V7.42978H23.4626V12.6634C23.4626 12.9111 23.669 13.1119 23.9236 13.1119C24.1781 13.1119 24.3845 12.9111 24.3845 12.6634V1.33225C24.3845 1.08454 24.1781 0.88375 23.9236 0.88375ZM43.1357 0.88375C42.8812 0.88375 42.6748 1.08454 42.6748 1.33225V12.6634C42.6748 12.9111 42.8812 13.1119 43.1357 13.1119C43.3903 13.1119 43.5967 12.9111 43.5967 12.6634V1.33225C43.5967 1.08454 43.3903 0.88375 43.1357 0.88375ZM68.7428 7.39528C68.9973 7.39528 69.2037 7.19449 69.2037 6.94678C69.2037 6.69907 68.9973 6.49828 68.7428 6.49828H60.4028V1.74694H68.7428C68.9973 1.74694 69.2037 1.54615 69.2037 1.29844C69.2037 1.05073 68.9973 0.849941 68.7428 0.849941H59.9419C59.6873 0.849941 59.4809 1.05073 59.4809 1.29844V12.6296C59.4809 12.8773 59.6873 13.0781 59.9419 13.0781H68.7428C68.9973 13.0781 69.2037 12.8773 69.2037 12.6296C69.2037 12.3819 68.9973 12.1811 68.7428 12.1811H60.4028V7.39597H68.7428V7.39528Z" fill="#17181A"/>
</svg>
