<svg width="315" height="100" viewBox="0 0 315 100" fill="none" xmlns="http://www.w3.org/2000/svg">
<path d="M314.354 71.1035C314.549 70.9083 314.549 70.5917 314.354 70.3964L311.172 67.2144C310.976 67.0192 310.66 67.0192 310.464 67.2144C310.269 67.4097 310.269 67.7263 310.464 67.9215L313.293 70.75L310.464 73.5784C310.269 73.7737 310.269 74.0902 310.464 74.2855C310.66 74.4808 310.976 74.4808 311.172 74.2855L314.354 71.1035ZM156 71.25L155.997 71.75L156.003 71.75L156 71.25ZM235 70.75L235 70.25L234.997 70.25L235 70.75ZM80 70.75L80.0033 70.25L80 70.25L80 70.75ZM277.5 70.75L277.5 71.25L277.5 70.75ZM156.003 71.75L235.003 71.25L234.997 70.25L155.997 70.75L156.003 71.75ZM2 71.25L80 71.25L80 70.25L2 70.25L2 71.25ZM79.9967 71.25L155.997 71.75L156.003 70.75L80.0033 70.25L79.9967 71.25ZM235 71.25L277.5 71.25L277.5 70.25L235 70.25L235 71.25ZM277.5 71.25L314 71.25L314 70.25L277.5 70.25L277.5 71.25Z" fill="#C6C8CC"/>
<path d="M4.35356 0.646446C4.1583 0.451187 3.84171 0.451187 3.64645 0.646446L0.46447 3.82843C0.269208 4.02369 0.269208 4.34027 0.46447 4.53554C0.659732 4.7308 0.976315 4.7308 1.17158 4.53554L4 1.70711L6.82843 4.53553C7.02369 4.7308 7.34028 4.7308 7.53554 4.53553C7.7308 4.34027 7.7308 4.02369 7.53554 3.82843L4.35356 0.646446ZM4.5 57.5L5.00003 57.5L4.99998 57.4949L4.5 57.5ZM4.5 81L5 81.0139L5 81L4.5 81ZM4 8.5L3.49998 8.5L3.50003 8.5051L4 8.5ZM4.49981 99.0139L4.99981 81.0139L4.00019 80.9861L3.50019 98.9861L4.49981 99.0139ZM5 81L5 57.5L4 57.5L4 81L5 81ZM4.99998 57.4949L4.49998 8.4949L3.50003 8.5051L4.00003 57.5051L4.99998 57.4949ZM4.5 8.5L4.5 1L3.5 1L3.5 8.5L4.5 8.5Z" fill="#C6C8CC"/>
<path d="M134.5 11L135 25.6591L135 41L134.5 55.6591L135 64.8636L134.5 71" stroke="#939598" stroke-width="0.5" stroke-dasharray="4 4"/>
<path d="M86 71L86 77.3523L86 84L86 90.3523L86 94.3409L86 97" stroke="#939598" stroke-width="0.5" stroke-dasharray="4 4"/>
<path d="M228.5 71L228 56.3409L228 41L228.5 26.3409L228 10" stroke="#939598" stroke-width="0.5" stroke-dasharray="4 4"/>
<path d="M134 46.5L116.5 47L99.5 46.6667L67.5 47L50 46.6667L33.5 47L2 46.5" stroke="#939598" stroke-width="0.5" stroke-dasharray="4 4"/>
<circle cx="4.5" cy="46.5" r="2.5" fill="#C6C8CC"/>
<path d="M254 76.6713L250.444 72.7656C246.889 68.8599 239.778 61.0484 232.667 58.7982C225.556 56.5479 218.444 59.8589 211.333 64.0138C204.222 68.1688 197.111 73.1677 190 77.6762C182.889 82.1846 175.778 86.2026 168.667 80.8512C161.556 75.4999 154.444 60.7792 147.333 52.903C140.222 45.0267 133.111 43.995 126 49.2736C118.889 54.5522 111.778 66.1411 104.667 77.3836C97.5556 88.626 90.4445 99.5218 83.3333 96.4841C76.2222 93.4465 69.1111 76.4753 65.5556 67.9898L62 59.5042" stroke="#939598" stroke-linecap="round"/>
<path d="M154.642 18.252C154.498 18.252 154.426 18.18 154.426 18.036L154.582 17.256C154.71 16.632 154.846 15.956 154.99 15.228C155.214 13.98 155.386 13.044 155.506 12.42C155.93 10.172 156.354 8.32 156.778 6.864L152.458 6.924H151.738C151.714 6.964 151.698 6.984 151.69 6.984C151.666 7.088 151.654 7.2 151.654 7.32C151.638 7.48 151.622 7.596 151.606 7.668L149.506 17.808C149.418 17.968 149.306 18.048 149.17 18.048C149.05 18.048 148.982 17.968 148.966 17.808C149.182 16.568 149.454 15.176 149.782 13.632L150.538 10.212C150.914 8.532 151.106 7.592 151.114 7.392C151.13 7.16 151.15 7 151.174 6.912C150.518 6.896 149.898 6.856 149.314 6.792C149.162 6.744 149.086 6.676 149.086 6.588C149.086 6.508 149.122 6.436 149.194 6.372C149.274 6.3 149.366 6.26 149.47 6.252C150.43 6.348 151.29 6.396 152.05 6.396C152.93 6.396 153.498 6.392 153.754 6.384C154.002 6.384 154.382 6.376 154.894 6.36C155.158 6.36 155.53 6.352 156.01 6.336L156.574 6.324C156.814 6.324 157.266 6.336 157.93 6.36C158.05 6.408 158.11 6.472 158.11 6.552C158.11 6.76 157.846 6.86 157.318 6.852C157.022 7.844 156.742 8.992 156.478 10.296C156.27 11.32 156.142 11.928 156.094 12.12C156.07 12.256 156.038 12.42 155.998 12.612L155.854 13.332C155.798 13.556 155.71 13.988 155.59 14.628C155.566 14.74 155.538 14.876 155.506 15.036C155.474 15.196 155.438 15.372 155.398 15.564L155.278 16.212L154.942 17.976C154.878 18.16 154.778 18.252 154.642 18.252ZM159.112 18.12C158.856 18.12 158.656 18.08 158.512 18C158.368 17.912 158.252 17.78 158.164 17.604C157.996 17.292 157.912 16.916 157.912 16.476C157.912 15.708 158.028 14.98 158.26 14.292C158.492 13.596 158.808 13.012 159.208 12.54C159.592 12.092 160.012 11.868 160.468 11.868C160.708 11.868 160.896 11.968 161.032 12.168C161.176 12.36 161.248 12.596 161.248 12.876C161.248 13.364 161.12 13.788 160.864 14.148C160.616 14.508 160.28 14.808 159.856 15.048C159.488 15.264 159.04 15.48 158.512 15.696L158.488 16.56C158.488 17.232 158.692 17.568 159.1 17.568C159.284 17.568 159.476 17.524 159.676 17.436C159.876 17.34 160.084 17.228 160.3 17.1C160.404 17.044 160.488 17.016 160.552 17.016C160.688 17.016 160.756 17.088 160.756 17.232C160.756 17.336 160.656 17.46 160.456 17.604C160.264 17.748 160.036 17.872 159.772 17.976C159.508 18.072 159.288 18.12 159.112 18.12ZM158.608 15.12C158.68 15.08 158.84 14.996 159.088 14.868C159.2 14.82 159.36 14.74 159.568 14.628C159.944 14.42 160.224 14.18 160.408 13.908C160.6 13.636 160.696 13.3 160.696 12.9C160.696 12.588 160.564 12.432 160.3 12.432C160.068 12.432 159.796 12.644 159.484 13.068C159.156 13.492 158.892 14.048 158.692 14.736C158.636 14.928 158.608 15.056 158.608 15.12ZM161.094 22.92C160.974 22.92 160.906 22.84 160.89 22.68C161.13 21.768 161.338 20.856 161.514 19.944L161.874 18.06L162.234 16.176L162.33 15.672C162.65 14.008 162.866 12.896 162.978 12.336V12.072C162.978 11.992 163.014 11.916 163.086 11.844C163.158 11.772 163.242 11.736 163.338 11.736C163.426 11.736 163.494 11.772 163.542 11.844C163.59 11.908 163.614 11.98 163.614 12.06C163.614 12.172 163.594 12.288 163.554 12.408L163.506 12.564C163.49 12.628 163.482 12.672 163.482 12.696L163.314 13.56C163.89 12.464 164.506 11.916 165.162 11.916C165.506 11.916 165.754 12.02 165.906 12.228C166.066 12.428 166.146 12.732 166.146 13.14C166.146 13.908 166.038 14.672 165.822 15.432C165.606 16.192 165.294 16.832 164.886 17.352C164.47 17.888 163.974 18.156 163.398 18.156C163.174 18.156 162.994 18.108 162.858 18.012C162.73 17.924 162.626 17.768 162.546 17.544L162.402 18.252C162.21 19.132 162.07 19.796 161.982 20.244C161.79 21.22 161.606 22.032 161.43 22.68C161.358 22.84 161.246 22.92 161.094 22.92ZM163.482 17.592C163.898 17.592 164.286 17.328 164.646 16.8C165.094 16.12 165.39 15.228 165.534 14.124C165.574 13.78 165.594 13.484 165.594 13.236C165.594 12.716 165.466 12.456 165.21 12.456C164.954 12.456 164.662 12.64 164.334 13.008C163.886 13.512 163.518 14.12 163.23 14.832C162.942 15.536 162.798 16.148 162.798 16.668C162.798 17.284 163.026 17.592 163.482 17.592ZM170.262 18.12C170.174 18.12 170.078 18.048 169.974 17.904C169.878 17.752 169.83 17.62 169.83 17.508V17.304C169.83 17.056 170.002 16.308 170.346 15.06L170.502 14.4L170.178 15.084C170.074 15.348 169.906 15.72 169.674 16.2C169.082 17.464 168.45 18.096 167.778 18.096C167.378 18.096 167.106 17.876 166.962 17.436C166.922 17.292 166.902 17.112 166.902 16.896C166.902 16.448 166.986 15.876 167.154 15.18C167.25 14.78 167.33 14.484 167.394 14.292L167.49 13.98C167.578 13.676 167.666 13.356 167.754 13.02C167.85 12.676 167.902 12.416 167.91 12.24C167.934 12.16 167.978 12.092 168.042 12.036C168.114 11.98 168.19 11.952 168.27 11.952C168.35 11.952 168.414 12.056 168.462 12.264C168.462 12.472 168.422 12.728 168.342 13.032C168.262 13.328 168.182 13.592 168.102 13.824C168.03 14.056 167.986 14.204 167.97 14.268C167.642 15.3 167.478 16.196 167.478 16.956C167.478 17.196 167.57 17.364 167.754 17.46C167.818 17.492 167.906 17.508 168.018 17.508C168.242 17.508 168.51 17.284 168.822 16.836C169.11 16.42 169.402 15.9 169.698 15.276C169.994 14.652 170.234 14.084 170.418 13.572C170.61 13.02 170.77 12.616 170.898 12.36C171.026 12.104 171.166 11.976 171.318 11.976C171.454 11.976 171.522 12.044 171.522 12.18C171.522 12.284 171.458 12.568 171.33 13.032C171.21 13.424 171.13 13.704 171.09 13.872C171.05 14.032 171.002 14.26 170.946 14.556L170.658 16.188L170.526 16.872C170.518 16.944 170.498 17.052 170.466 17.196C170.466 17.348 170.49 17.448 170.538 17.496L170.646 17.64C170.67 17.664 170.682 17.716 170.682 17.796C170.682 17.876 170.634 17.948 170.538 18.012C170.45 18.084 170.358 18.12 170.262 18.12ZM173.643 18.108C173.227 18.108 172.915 17.944 172.707 17.616C172.507 17.288 172.407 16.896 172.407 16.44C172.407 15.712 172.527 15.008 172.767 14.328C173.015 13.64 173.351 13.072 173.775 12.624C174.183 12.168 174.643 11.94 175.155 11.94C175.891 11.94 176.259 12.5 176.259 13.62C176.259 14.18 176.167 14.752 175.983 15.336C175.799 15.92 175.559 16.44 175.263 16.896C174.975 17.352 174.675 17.68 174.363 17.88C174.123 18.032 173.883 18.108 173.643 18.108ZM173.739 17.568C173.987 17.568 174.263 17.352 174.567 16.92C174.879 16.488 175.139 15.952 175.347 15.312C175.563 14.672 175.671 14.128 175.671 13.68C175.671 13.216 175.643 12.928 175.587 12.816C175.539 12.696 175.479 12.612 175.407 12.564C175.335 12.516 175.223 12.492 175.071 12.492C174.903 12.492 174.727 12.556 174.543 12.684C174.175 12.916 173.855 13.316 173.583 13.884C173.159 14.732 172.947 15.556 172.947 16.356C172.947 16.9 173.103 17.276 173.415 17.484C173.527 17.54 173.635 17.568 173.739 17.568ZM177.733 22.92C177.349 22.92 177.025 22.788 176.761 22.524C176.505 22.268 176.377 21.94 176.377 21.54C176.377 21.172 176.461 20.82 176.629 20.484C176.805 20.156 177.057 19.816 177.385 19.464C177.665 19.16 178.001 18.844 178.393 18.516L179.521 17.58C179.577 17.38 179.625 17.168 179.665 16.944C179.753 16.592 179.821 16.304 179.869 16.08C179.565 17.032 179.173 17.656 178.693 17.952C178.541 18.048 178.393 18.096 178.249 18.096C177.969 18.096 177.737 17.984 177.553 17.76C177.377 17.536 177.289 17.24 177.289 16.872C177.289 16.176 177.421 15.448 177.685 14.688C177.949 13.92 178.301 13.264 178.741 12.72C179.197 12.168 179.693 11.892 180.229 11.892C180.485 11.892 180.729 11.956 180.961 12.084C181.009 12.06 181.061 12.048 181.117 12.048C181.253 12.048 181.321 12.112 181.321 12.24C181.321 12.376 181.297 12.504 181.249 12.624C181.025 13.208 180.649 14.728 180.121 17.184C180.249 17.104 180.397 16.988 180.565 16.836C180.605 16.804 180.677 16.744 180.781 16.656C180.885 16.56 180.969 16.492 181.033 16.452C181.097 16.412 181.153 16.392 181.201 16.392C181.337 16.392 181.405 16.46 181.405 16.596C181.405 16.7 181.377 16.78 181.321 16.836C180.825 17.212 180.401 17.524 180.049 17.772L179.857 18.9L179.797 19.2C179.701 19.704 179.617 20.124 179.545 20.46C179.473 20.804 179.385 21.132 179.281 21.444C179.129 21.884 178.921 22.24 178.657 22.512C178.401 22.784 178.093 22.92 177.733 22.92ZM178.285 17.52C178.445 17.52 178.629 17.412 178.837 17.196C179.045 16.972 179.245 16.684 179.437 16.332C179.637 15.972 179.797 15.596 179.917 15.204C180.101 14.636 180.257 14.112 180.385 13.632C180.465 13.352 180.565 12.984 180.685 12.528C180.573 12.424 180.421 12.372 180.229 12.372C179.885 12.372 179.525 12.6 179.149 13.056C178.781 13.512 178.469 14.088 178.213 14.784C177.965 15.472 177.841 16.1 177.841 16.668C177.841 17.236 177.989 17.52 178.285 17.52ZM177.625 22.32C177.793 22.32 177.945 22.28 178.081 22.2C178.217 22.128 178.345 22 178.465 21.816C178.585 21.624 178.705 21.356 178.825 21.012C178.945 20.668 179.041 20.316 179.113 19.956C179.177 19.684 179.229 19.436 179.269 19.212L179.317 18.948C179.325 18.884 179.337 18.816 179.353 18.744C179.369 18.672 179.381 18.596 179.389 18.516L179.425 18.228C178.641 18.876 178.033 19.464 177.601 19.992C177.177 20.52 176.965 20.992 176.965 21.408C176.965 21.848 177.061 22.128 177.253 22.248C177.333 22.296 177.457 22.32 177.625 22.32ZM188.218 20.592C187.642 20.592 187.194 20.204 186.874 19.428C186.866 19.412 186.862 19.364 186.862 19.284C186.862 19.212 186.89 19.14 186.946 19.068C187.01 18.996 187.082 18.96 187.162 18.96C187.242 18.96 187.31 19.004 187.366 19.092C187.614 19.724 187.926 20.04 188.302 20.04C188.974 20.04 189.482 19.428 189.826 18.204C189.938 17.788 190.002 17.388 190.018 17.004L189.634 17.352C189.41 17.576 189.218 17.76 189.058 17.904C188.898 18.04 188.774 18.108 188.686 18.108C188.526 18.108 188.446 18.032 188.446 17.88C188.446 17.84 188.458 17.784 188.482 17.712C188.514 17.616 188.606 17.284 188.758 16.716C188.814 16.484 188.874 16.248 188.938 16.008L189.118 15.3L189.19 14.976C189.222 14.88 189.246 14.788 189.262 14.7L189.37 14.28C188.938 15.384 188.466 16.292 187.954 17.004C187.442 17.732 187.002 18.096 186.634 18.096C186.362 18.096 186.142 18.004 185.974 17.82C185.806 17.636 185.722 17.376 185.722 17.04C185.722 16.856 185.75 16.648 185.806 16.416L185.986 15.636C186.162 14.692 186.318 13.964 186.454 13.452C186.526 13.164 186.574 12.948 186.598 12.804C186.63 12.564 186.67 12.368 186.718 12.216C186.766 12.056 186.854 11.976 186.982 11.976C187.158 11.976 187.246 12.072 187.246 12.264C187.246 12.472 187.206 12.78 187.126 13.188C187.062 13.564 186.91 14.26 186.67 15.276C186.446 16.228 186.334 16.8 186.334 16.992C186.334 17.32 186.474 17.484 186.754 17.484C187.41 17.484 188.326 15.924 189.502 12.804C189.654 12.436 189.762 12.2 189.826 12.096C189.914 11.992 190.002 11.94 190.09 11.94C190.282 11.94 190.378 12.024 190.378 12.192C190.378 12.32 190.35 12.444 190.294 12.564C190.07 13.14 189.842 14.096 189.61 15.432C189.498 16.04 189.386 16.576 189.274 17.04C189.642 16.768 189.902 16.556 190.054 16.404L190.318 16.128C190.342 16.104 190.378 16.092 190.426 16.092C190.538 16.092 190.606 16.16 190.63 16.296C190.622 16.96 190.522 17.62 190.33 18.276C190.146 18.94 189.874 19.492 189.514 19.932C189.154 20.372 188.722 20.592 188.218 20.592ZM194.953 18.12C194.865 18.12 194.769 18.048 194.665 17.904C194.569 17.752 194.521 17.62 194.521 17.508V17.304C194.521 17.056 194.693 16.308 195.037 15.06L195.193 14.4L194.869 15.084C194.765 15.348 194.597 15.72 194.365 16.2C193.773 17.464 193.141 18.096 192.469 18.096C192.069 18.096 191.797 17.876 191.653 17.436C191.613 17.292 191.593 17.112 191.593 16.896C191.593 16.448 191.677 15.876 191.845 15.18C191.941 14.78 192.021 14.484 192.085 14.292L192.181 13.98C192.269 13.676 192.357 13.356 192.445 13.02C192.541 12.676 192.593 12.416 192.601 12.24C192.625 12.16 192.669 12.092 192.733 12.036C192.805 11.98 192.881 11.952 192.961 11.952C193.041 11.952 193.105 12.056 193.153 12.264C193.153 12.472 193.113 12.728 193.033 13.032C192.953 13.328 192.873 13.592 192.793 13.824C192.721 14.056 192.677 14.204 192.661 14.268C192.333 15.3 192.169 16.196 192.169 16.956C192.169 17.196 192.261 17.364 192.445 17.46C192.509 17.492 192.597 17.508 192.709 17.508C192.933 17.508 193.201 17.284 193.513 16.836C193.801 16.42 194.093 15.9 194.389 15.276C194.685 14.652 194.925 14.084 195.109 13.572C195.301 13.02 195.461 12.616 195.589 12.36C195.717 12.104 195.857 11.976 196.009 11.976C196.145 11.976 196.213 12.044 196.213 12.18C196.213 12.284 196.149 12.568 196.021 13.032C195.901 13.424 195.821 13.704 195.781 13.872C195.741 14.032 195.693 14.26 195.637 14.556L195.349 16.188L195.217 16.872C195.209 16.944 195.189 17.052 195.157 17.196C195.157 17.348 195.181 17.448 195.229 17.496L195.337 17.64C195.361 17.664 195.373 17.716 195.373 17.796C195.373 17.876 195.325 17.948 195.229 18.012C195.141 18.084 195.049 18.12 194.953 18.12ZM197.413 18.12C197.285 18.12 197.213 18.036 197.197 17.868L197.329 17.112C197.409 16.6 197.505 16.044 197.617 15.444L197.689 15.012C197.865 13.996 197.973 13.404 198.013 13.236C198.101 12.828 198.161 12.484 198.193 12.204C198.217 12.124 198.261 12.056 198.325 12C198.397 11.944 198.469 11.916 198.541 11.916C198.637 11.916 198.705 11.984 198.745 12.12C198.745 12.248 198.729 12.392 198.697 12.552C198.665 12.656 198.625 12.876 198.577 13.212L198.373 14.28C199.269 13.032 200.029 12.26 200.653 11.964C200.797 11.892 200.941 11.856 201.085 11.856C201.221 11.856 201.369 11.956 201.529 12.156C201.697 12.356 201.781 12.532 201.781 12.684C201.781 12.812 201.749 12.912 201.685 12.984C201.621 13.056 201.545 13.092 201.457 13.092C201.337 13.092 201.229 12.98 201.133 12.756C201.125 12.74 201.105 12.7 201.073 12.636C201.049 12.564 201.021 12.512 200.989 12.48C200.965 12.44 200.937 12.42 200.905 12.42C200.849 12.42 200.737 12.468 200.569 12.564C200.409 12.652 200.149 12.888 199.789 13.272C199.437 13.648 199.165 13.968 198.973 14.232C199.045 14.984 199.197 15.648 199.429 16.224C199.661 16.8 199.913 17.192 200.185 17.4C200.329 17.504 200.465 17.556 200.593 17.556C200.729 17.556 200.837 17.52 200.917 17.448C201.005 17.376 201.073 17.26 201.121 17.1C201.185 16.94 201.237 16.856 201.277 16.848C201.301 16.832 201.345 16.824 201.409 16.824C201.457 16.824 201.513 16.852 201.577 16.908C201.633 16.964 201.661 17.068 201.661 17.22C201.661 17.38 201.593 17.532 201.457 17.676C201.193 17.972 200.929 18.12 200.665 18.12C199.897 18.12 199.301 17.488 198.877 16.224C198.693 15.696 198.577 15.244 198.529 14.868C198.505 14.9 198.417 15.052 198.265 15.324L198.121 15.588C197.993 16.284 197.869 17.016 197.749 17.784C197.741 17.872 197.701 17.948 197.629 18.012C197.557 18.084 197.485 18.12 197.413 18.12ZM202.945 18.144C202.657 18.144 202.429 18.076 202.261 17.94C202.093 17.796 201.957 17.56 201.853 17.232C201.837 17.208 201.829 17.156 201.829 17.076C201.829 17.004 201.861 16.936 201.925 16.872C201.989 16.8 202.061 16.764 202.141 16.764C202.213 16.764 202.281 16.808 202.345 16.896C202.345 17.384 202.577 17.628 203.041 17.628C203.385 17.628 203.729 17.456 204.073 17.112C204.417 16.76 204.733 16.3 205.021 15.732C205.277 15.236 205.465 14.784 205.585 14.376L205.681 14.064C205.769 13.768 205.861 13.472 205.957 13.176C206.061 12.872 206.165 12.612 206.269 12.396C206.405 12.116 206.541 11.976 206.677 11.976C206.821 11.976 206.893 12.052 206.893 12.204C206.893 12.34 206.817 12.624 206.665 13.056C206.497 13.56 206.357 14.16 206.245 14.856C206.133 15.544 206.077 16.232 206.077 16.92C206.077 17.312 206.157 17.532 206.317 17.58L206.461 17.592C206.581 17.592 206.685 17.564 206.773 17.508C206.797 17.5 206.853 17.46 206.941 17.388C206.957 17.372 207.021 17.32 207.133 17.232C207.245 17.136 207.341 17.088 207.421 17.088C207.565 17.088 207.637 17.164 207.637 17.316C207.637 17.412 207.565 17.524 207.421 17.652C207.277 17.78 207.105 17.888 206.905 17.976C206.705 18.064 206.521 18.108 206.353 18.108C205.841 18.108 205.585 17.552 205.585 16.44C205.585 16.224 205.605 15.928 205.645 15.552C205.357 16.296 204.957 16.916 204.445 17.412C203.941 17.9 203.441 18.144 202.945 18.144ZM212.612 18.024C212.428 18.024 212.256 17.928 212.096 17.736C211.944 17.536 211.868 17.324 211.868 17.1C211.868 16.604 212 15.764 212.264 14.58C212.064 15.012 211.804 15.456 211.484 15.912C211.172 16.36 210.864 16.756 210.56 17.1C210.256 17.444 210.032 17.668 209.888 17.772C209.688 17.924 209.468 18 209.228 18C208.772 18 208.544 17.712 208.544 17.136C208.544 16.576 208.756 15.88 209.18 15.048C209.604 14.208 210.108 13.48 210.692 12.864C211.276 12.256 211.748 11.952 212.108 11.952C212.476 11.952 212.684 12.112 212.732 12.432C212.756 12.528 212.768 12.632 212.768 12.744C212.808 12.72 212.852 12.708 212.9 12.708C213.084 12.708 213.176 12.796 213.176 12.972V13.02L213.032 13.548C212.92 13.948 212.804 14.54 212.684 15.324C212.564 16.108 212.504 16.76 212.504 17.28L212.624 17.352C212.816 17.472 212.912 17.592 212.912 17.712C212.912 17.792 212.884 17.864 212.828 17.928C212.772 17.992 212.7 18.024 212.612 18.024ZM209.324 17.376C209.412 17.376 209.484 17.348 209.54 17.292C210.356 16.596 211.08 15.632 211.712 14.4C212.072 13.72 212.268 13.316 212.3 13.188C212.316 13.044 212.324 12.956 212.324 12.924C212.324 12.844 212.304 12.772 212.264 12.708C212.224 12.644 212.172 12.612 212.108 12.612C212.028 12.612 211.924 12.648 211.796 12.72C211.476 12.888 211.096 13.244 210.656 13.788C210.224 14.332 209.868 14.908 209.588 15.516C209.292 16.132 209.144 16.68 209.144 17.16C209.144 17.304 209.204 17.376 209.324 17.376ZM164.215 36.144C163.831 36.144 163.527 36.004 163.303 35.724C163.087 35.436 162.979 35.092 162.979 34.692C162.979 33.988 163.107 33.26 163.363 32.508C163.627 31.756 163.971 31.128 164.395 30.624C164.819 30.12 165.267 29.868 165.739 29.868C166.083 29.868 166.307 29.992 166.411 30.24C166.435 30.28 166.455 30.324 166.471 30.372C166.487 30.412 166.503 30.452 166.519 30.492C166.559 30.604 166.599 30.668 166.639 30.684C166.671 30.764 166.687 30.824 166.687 30.864C166.687 30.936 166.651 31.004 166.579 31.068C166.515 31.132 166.443 31.164 166.363 31.164C166.195 31.164 166.087 31.04 166.039 30.792C165.991 30.544 165.859 30.42 165.643 30.42C165.355 30.42 165.051 30.644 164.731 31.092C164.411 31.532 164.135 32.092 163.903 32.772C163.679 33.412 163.567 33.984 163.567 34.488C163.567 35.2 163.827 35.556 164.347 35.556C164.611 35.556 164.855 35.432 165.079 35.184C165.103 35.152 165.147 35.1 165.211 35.028C165.275 34.948 165.335 34.892 165.391 34.86C165.447 34.82 165.499 34.8 165.547 34.8C165.699 34.8 165.775 34.868 165.775 35.004C165.775 35.164 165.699 35.336 165.547 35.52C165.395 35.696 165.199 35.844 164.959 35.964C164.719 36.084 164.471 36.144 164.215 36.144ZM168.282 36.108C167.866 36.108 167.554 35.944 167.346 35.616C167.146 35.288 167.046 34.896 167.046 34.44C167.046 33.712 167.166 33.008 167.406 32.328C167.654 31.64 167.99 31.072 168.414 30.624C168.822 30.168 169.282 29.94 169.794 29.94C170.53 29.94 170.898 30.5 170.898 31.62C170.898 32.18 170.806 32.752 170.622 33.336C170.438 33.92 170.198 34.44 169.902 34.896C169.614 35.352 169.314 35.68 169.002 35.88C168.762 36.032 168.522 36.108 168.282 36.108ZM168.378 35.568C168.626 35.568 168.902 35.352 169.206 34.92C169.518 34.488 169.778 33.952 169.986 33.312C170.202 32.672 170.31 32.128 170.31 31.68C170.31 31.216 170.282 30.928 170.226 30.816C170.178 30.696 170.118 30.612 170.046 30.564C169.974 30.516 169.862 30.492 169.71 30.492C169.542 30.492 169.366 30.556 169.182 30.684C168.814 30.916 168.494 31.316 168.222 31.884C167.798 32.732 167.586 33.556 167.586 34.356C167.586 34.9 167.742 35.276 168.054 35.484C168.166 35.54 168.274 35.568 168.378 35.568ZM172.828 36.144C172.092 36.144 171.724 35.692 171.724 34.788C171.724 34.1 171.796 33.44 171.94 32.808C172.092 32.168 172.288 31.612 172.528 31.14C172.776 30.668 173.044 30.328 173.332 30.12C173.556 29.96 173.764 29.88 173.956 29.88C174.324 29.88 174.584 29.956 174.736 30.108C174.648 29.828 174.52 29.54 174.352 29.244C174.168 28.94 174.016 28.664 173.896 28.416C173.528 27.736 173.344 27.08 173.344 26.448C173.344 26.04 173.424 25.68 173.584 25.368C173.752 25.048 173.976 24.8 174.256 24.624C174.536 24.44 174.852 24.348 175.204 24.348C175.524 24.348 175.816 24.392 176.08 24.48C176.416 24.576 176.664 24.64 176.824 24.672C176.992 24.704 177.192 24.72 177.424 24.72C177.824 24.72 178.14 24.676 178.372 24.588C178.372 24.588 178.456 24.56 178.624 24.504C178.688 24.48 178.768 24.468 178.864 24.468C179.008 24.468 179.08 24.528 179.08 24.648C179.08 24.824 178.932 24.972 178.636 25.092C178.34 25.212 178.016 25.272 177.664 25.272C177.368 25.272 177.14 25.26 176.98 25.236C176.82 25.204 176.536 25.132 176.128 25.02C175.776 24.932 175.408 24.888 175.024 24.888C174.664 24.888 174.388 25.044 174.196 25.356C174.004 25.668 173.908 26.036 173.908 26.46C173.908 26.844 173.96 27.188 174.064 27.492C174.168 27.788 174.376 28.2 174.688 28.728C175.2 29.576 175.456 30.312 175.456 30.936L175.396 31.476V31.5C175.396 32.124 175.304 32.74 175.12 33.348C174.944 33.956 174.712 34.488 174.424 34.944C174.144 35.4 173.852 35.728 173.548 35.928C173.324 36.072 173.084 36.144 172.828 36.144ZM172.816 35.556C173.024 35.556 173.216 35.488 173.392 35.352C173.568 35.208 173.736 35.004 173.896 34.74C174.176 34.252 174.404 33.672 174.58 33C174.756 32.36 174.844 31.796 174.844 31.308C174.844 31.044 174.776 30.844 174.64 30.708C174.504 30.572 174.324 30.504 174.1 30.504C173.892 30.504 173.716 30.564 173.572 30.684C173.436 30.804 173.268 31.02 173.068 31.332C172.868 31.652 172.68 32.12 172.504 32.736C172.336 33.344 172.252 33.86 172.252 34.284C172.252 34.732 172.292 35.056 172.372 35.256C172.452 35.456 172.6 35.556 172.816 35.556ZM182.184 36.144C181.944 36.144 181.776 36.064 181.68 35.904C181.592 35.744 181.548 35.472 181.548 35.088C181.548 34.432 181.708 33.596 182.028 32.58C181.54 32.964 180.98 33.156 180.348 33.156C180.132 33.156 179.964 33.148 179.844 33.132L179.88 33.408C179.88 33.8 179.776 34.2 179.568 34.608C179.368 35.008 179.1 35.344 178.764 35.616C178.436 35.88 178.096 36.012 177.744 36.012C177.152 36.012 176.856 35.636 176.856 34.884C176.856 33.948 177.04 32.98 177.408 31.98C177.576 31.508 177.692 31.152 177.756 30.912C177.82 30.672 177.864 30.42 177.888 30.156C177.912 30.076 177.956 30.008 178.02 29.952C178.092 29.896 178.164 29.868 178.236 29.868C178.332 29.868 178.4 29.936 178.44 30.072C178.408 30.408 178.344 30.74 178.248 31.068C178.16 31.396 178.032 31.816 177.864 32.328C177.552 33.312 177.396 34.1 177.396 34.692C177.396 35.02 177.464 35.252 177.6 35.388C177.648 35.444 177.748 35.472 177.9 35.472C178.044 35.472 178.208 35.408 178.392 35.28C178.576 35.152 178.736 34.988 178.872 34.788C179.176 34.364 179.328 33.9 179.328 33.396C179.328 33.276 179.316 33.164 179.292 33.06C178.74 32.948 178.464 32.764 178.464 32.508C178.464 32.364 178.532 32.24 178.668 32.136C178.812 32.032 178.952 31.98 179.088 31.98C179.328 31.98 179.532 32.184 179.7 32.592C179.828 32.624 179.992 32.64 180.192 32.64C180.664 32.64 181.092 32.524 181.476 32.292C181.86 32.06 182.18 31.736 182.436 31.32C182.492 31.152 182.532 31.012 182.556 30.9C182.724 30.252 182.944 29.928 183.216 29.928C183.36 29.928 183.432 30.028 183.432 30.228C183.288 30.724 183.104 31.168 182.88 31.56C182.368 33.048 182.112 34.18 182.112 34.956C182.112 35.388 182.168 35.604 182.28 35.604C182.384 35.604 182.476 35.576 182.556 35.52C182.644 35.456 182.744 35.368 182.856 35.256C182.96 35.144 183.048 35.06 183.12 35.004C183.192 34.94 183.256 34.908 183.312 34.908C183.464 34.908 183.54 34.976 183.54 35.112C183.54 35.184 183.508 35.264 183.444 35.352L183.132 35.64C182.964 35.808 182.816 35.932 182.688 36.012C182.568 36.1 182.4 36.144 182.184 36.144ZM184.44 30.624C184.344 30.624 184.26 30.596 184.188 30.54C184.124 30.484 184.092 30.424 184.092 30.36C184.092 30.304 184.12 30.256 184.176 30.216C184.848 29.928 185.688 29.784 186.696 29.784C187.128 29.784 187.484 29.8 187.764 29.832C188.036 29.872 188.272 29.9 188.472 29.916C188.64 29.94 188.74 29.968 188.772 30C188.804 30.04 188.82 30.096 188.82 30.168C188.82 30.24 188.78 30.312 188.7 30.384C188.62 30.448 188.52 30.48 188.4 30.48C188.264 30.48 188.036 30.444 187.716 30.372C187.38 30.308 187.06 30.276 186.756 30.276C185.94 30.276 185.2 30.388 184.536 30.612L184.488 30.624H184.44ZM185.064 36.18C184.928 36.18 184.86 36.1 184.86 35.94C184.86 35.86 184.888 35.784 184.944 35.712C185.016 35.52 185.088 35.26 185.16 34.932C185.256 34.524 185.32 34.272 185.352 34.176L185.472 33.564L185.604 32.796C185.74 32.012 185.868 31.448 185.988 31.104C186.116 30.76 186.288 30.588 186.504 30.588C186.584 30.588 186.648 30.64 186.696 30.744L186.852 31.152C186.852 31.32 186.792 31.448 186.672 31.536C186.64 31.56 186.6 31.572 186.552 31.572C186.504 31.572 186.46 31.548 186.42 31.5C186.236 32.18 186.124 32.676 186.084 32.988C186.004 33.508 185.936 33.908 185.88 34.188C185.848 34.276 185.812 34.404 185.772 34.572L185.664 34.968C185.456 35.776 185.256 36.18 185.064 36.18ZM191.889 36.12C191.801 36.12 191.705 36.048 191.601 35.904C191.505 35.752 191.457 35.62 191.457 35.508V35.304C191.457 35.056 191.629 34.308 191.973 33.06L192.129 32.4L191.805 33.084C191.701 33.348 191.533 33.72 191.301 34.2C190.709 35.464 190.077 36.096 189.405 36.096C189.005 36.096 188.733 35.876 188.589 35.436C188.549 35.292 188.529 35.112 188.529 34.896C188.529 34.448 188.613 33.876 188.781 33.18C188.877 32.78 188.957 32.484 189.021 32.292L189.117 31.98C189.205 31.676 189.293 31.356 189.381 31.02C189.477 30.676 189.529 30.416 189.537 30.24C189.561 30.16 189.605 30.092 189.669 30.036C189.741 29.98 189.817 29.952 189.897 29.952C189.977 29.952 190.041 30.056 190.089 30.264C190.089 30.472 190.049 30.728 189.969 31.032C189.889 31.328 189.809 31.592 189.729 31.824C189.657 32.056 189.613 32.204 189.597 32.268C189.269 33.3 189.105 34.196 189.105 34.956C189.105 35.196 189.197 35.364 189.381 35.46C189.445 35.492 189.533 35.508 189.645 35.508C189.869 35.508 190.137 35.284 190.449 34.836C190.737 34.42 191.029 33.9 191.325 33.276C191.621 32.652 191.861 32.084 192.045 31.572C192.237 31.02 192.397 30.616 192.525 30.36C192.653 30.104 192.793 29.976 192.945 29.976C193.081 29.976 193.149 30.044 193.149 30.18C193.149 30.284 193.085 30.568 192.957 31.032C192.837 31.424 192.757 31.704 192.717 31.872C192.677 32.032 192.629 32.26 192.573 32.556L192.285 34.188L192.153 34.872C192.145 34.944 192.125 35.052 192.093 35.196C192.093 35.348 192.117 35.448 192.165 35.496L192.273 35.64C192.297 35.664 192.309 35.716 192.309 35.796C192.309 35.876 192.261 35.948 192.165 36.012C192.077 36.084 191.985 36.12 191.889 36.12ZM197.001 29.04C196.537 29.04 196.173 28.884 195.909 28.572C195.653 28.26 195.525 27.848 195.525 27.336C195.525 27.232 195.557 27.144 195.621 27.072C195.693 27 195.773 26.964 195.861 26.964C195.949 26.964 196.009 27.004 196.041 27.084C196.081 27.22 196.121 27.436 196.161 27.732C196.241 28.244 196.489 28.5 196.905 28.5C197.377 28.5 197.785 28.372 198.129 28.116C198.481 27.852 198.841 27.464 199.209 26.952C199.297 26.888 199.377 26.856 199.449 26.856C199.593 26.856 199.665 26.924 199.665 27.06C199.665 27.108 199.649 27.164 199.617 27.228C198.721 28.436 197.849 29.04 197.001 29.04ZM197.397 36.12C197.309 36.12 197.213 36.048 197.109 35.904C197.013 35.752 196.965 35.62 196.965 35.508V35.304C196.965 35.056 197.137 34.308 197.481 33.06L197.637 32.4L197.313 33.084C197.209 33.348 197.041 33.72 196.809 34.2C196.217 35.464 195.585 36.096 194.913 36.096C194.513 36.096 194.241 35.876 194.097 35.436C194.057 35.292 194.037 35.112 194.037 34.896C194.037 34.448 194.121 33.876 194.289 33.18C194.385 32.78 194.465 32.484 194.529 32.292L194.625 31.98C194.713 31.676 194.801 31.356 194.889 31.02C194.985 30.676 195.037 30.416 195.045 30.24C195.069 30.16 195.113 30.092 195.177 30.036C195.249 29.98 195.325 29.952 195.405 29.952C195.485 29.952 195.549 30.056 195.597 30.264C195.597 30.472 195.557 30.728 195.477 31.032C195.397 31.328 195.317 31.592 195.237 31.824C195.165 32.056 195.121 32.204 195.105 32.268C194.777 33.3 194.613 34.196 194.613 34.956C194.613 35.196 194.705 35.364 194.889 35.46C194.953 35.492 195.041 35.508 195.153 35.508C195.377 35.508 195.645 35.284 195.957 34.836C196.245 34.42 196.537 33.9 196.833 33.276C197.129 32.652 197.369 32.084 197.553 31.572C197.745 31.02 197.905 30.616 198.033 30.36C198.161 30.104 198.301 29.976 198.453 29.976C198.589 29.976 198.657 30.044 198.657 30.18C198.657 30.284 198.593 30.568 198.465 31.032C198.345 31.424 198.265 31.704 198.225 31.872C198.185 32.032 198.137 32.26 198.081 32.556L197.793 34.188L197.661 34.872C197.653 34.944 197.633 35.052 197.601 35.196C197.601 35.348 197.625 35.448 197.673 35.496L197.781 35.64C197.805 35.664 197.817 35.716 197.817 35.796C197.817 35.876 197.769 35.948 197.673 36.012C197.585 36.084 197.493 36.12 197.397 36.12Z" fill="#6D6F72"/>
<path d="M287.264 61.72C287.128 61.72 287.052 61.64 287.036 61.48C287.052 61.32 287.08 61.16 287.12 61L286.772 60.928C286.292 60.832 286.044 60.704 286.028 60.544C286.02 60.528 286.016 60.496 286.016 60.448C286.016 60.4 286.04 60.352 286.088 60.304C286.136 60.248 286.18 60.22 286.22 60.22C286.252 60.22 286.292 60.228 286.34 60.244C286.404 60.26 286.496 60.296 286.616 60.352C286.736 60.416 286.944 60.448 287.24 60.448L287.552 59.14C287.688 58.436 287.824 57.816 287.96 57.28L288.404 55.384L288.044 55.372C287.924 55.372 287.864 55.304 287.864 55.168C287.864 54.976 288.08 54.88 288.512 54.88C288.688 54.152 288.844 53.344 288.98 52.456C289.108 51.608 289.284 50.828 289.508 50.116C289.364 50.18 289.232 50.264 289.112 50.368C289.04 50.512 288.936 50.584 288.8 50.584C288.752 50.584 288.704 50.564 288.656 50.524C288.616 50.484 288.596 50.424 288.596 50.344C288.596 50.168 288.708 50.008 288.932 49.864C289.156 49.72 289.428 49.616 289.748 49.552C289.796 49.472 289.86 49.432 289.94 49.432C289.996 49.432 290.056 49.464 290.12 49.528C290.864 49.552 291.46 49.808 291.908 50.296C292.356 50.784 292.58 51.432 292.58 52.24C292.58 52.672 292.464 53.096 292.232 53.512C292.008 53.92 291.712 54.264 291.344 54.544C290.976 54.824 290.592 54.992 290.192 55.048C290.632 55.072 291.048 55.22 291.44 55.492C291.832 55.756 292.148 56.088 292.388 56.488C292.628 56.88 292.748 57.272 292.748 57.664C292.748 58.784 292.32 59.636 291.464 60.22C290.608 60.804 289.416 61.096 287.888 61.096L287.636 61.084C287.612 61.196 287.6 61.292 287.6 61.372C287.576 61.468 287.532 61.548 287.468 61.612C287.404 61.684 287.336 61.72 287.264 61.72ZM289.04 54.868C289.584 54.828 290.08 54.692 290.528 54.46C290.984 54.22 291.34 53.908 291.596 53.524C291.86 53.14 291.992 52.716 291.992 52.252C291.992 51.548 291.812 51.008 291.452 50.632C291.092 50.256 290.608 50.06 290 50.044C289.8 50.732 289.612 51.604 289.436 52.66C289.252 53.78 289.12 54.516 289.04 54.868ZM288.212 60.556C289.052 60.556 289.768 60.444 290.36 60.22C290.96 59.988 291.416 59.66 291.728 59.236C292.04 58.812 292.196 58.312 292.196 57.736C292.196 57.344 292.068 56.972 291.812 56.62C291.564 56.26 291.236 55.972 290.828 55.756C290.42 55.54 289.996 55.432 289.556 55.432C289.3 55.432 289.088 55.424 288.92 55.408C288.608 56.744 288.372 57.792 288.212 58.552C288.108 59.032 288.044 59.308 288.02 59.38L287.936 59.728L287.84 60.124C287.8 60.284 287.768 60.42 287.744 60.532C287.888 60.548 288.044 60.556 288.212 60.556ZM292.852 65.92C292.732 65.92 292.664 65.84 292.648 65.68C292.888 64.768 293.096 63.856 293.272 62.944L293.632 61.06L293.992 59.176L294.088 58.672C294.408 57.008 294.624 55.896 294.736 55.336V55.072C294.736 54.992 294.772 54.916 294.844 54.844C294.916 54.772 295 54.736 295.096 54.736C295.184 54.736 295.252 54.772 295.3 54.844C295.348 54.908 295.372 54.98 295.372 55.06C295.372 55.172 295.352 55.288 295.312 55.408L295.264 55.564C295.248 55.628 295.24 55.672 295.24 55.696L295.072 56.56C295.648 55.464 296.264 54.916 296.92 54.916C297.264 54.916 297.512 55.02 297.664 55.228C297.824 55.428 297.904 55.732 297.904 56.14C297.904 56.908 297.796 57.672 297.58 58.432C297.364 59.192 297.052 59.832 296.644 60.352C296.228 60.888 295.732 61.156 295.156 61.156C294.932 61.156 294.752 61.108 294.616 61.012C294.488 60.924 294.384 60.768 294.304 60.544L294.16 61.252C293.968 62.132 293.828 62.796 293.74 63.244C293.548 64.22 293.364 65.032 293.188 65.68C293.116 65.84 293.004 65.92 292.852 65.92ZM295.24 60.592C295.656 60.592 296.044 60.328 296.404 59.8C296.852 59.12 297.148 58.228 297.292 57.124C297.332 56.78 297.352 56.484 297.352 56.236C297.352 55.716 297.224 55.456 296.968 55.456C296.712 55.456 296.42 55.64 296.092 56.008C295.644 56.512 295.276 57.12 294.988 57.832C294.7 58.536 294.556 59.148 294.556 59.668C294.556 60.284 294.784 60.592 295.24 60.592ZM299.776 61.12C299.52 61.12 299.32 61.08 299.176 61C299.032 60.912 298.916 60.78 298.828 60.604C298.66 60.292 298.576 59.916 298.576 59.476C298.576 58.708 298.692 57.98 298.924 57.292C299.156 56.596 299.472 56.012 299.872 55.54C300.256 55.092 300.676 54.868 301.132 54.868C301.372 54.868 301.56 54.968 301.696 55.168C301.84 55.36 301.912 55.596 301.912 55.876C301.912 56.364 301.784 56.788 301.528 57.148C301.28 57.508 300.944 57.808 300.52 58.048C300.152 58.264 299.704 58.48 299.176 58.696L299.152 59.56C299.152 60.232 299.356 60.568 299.764 60.568C299.948 60.568 300.14 60.524 300.34 60.436C300.54 60.34 300.748 60.228 300.964 60.1C301.068 60.044 301.152 60.016 301.216 60.016C301.352 60.016 301.42 60.088 301.42 60.232C301.42 60.336 301.32 60.46 301.12 60.604C300.928 60.748 300.7 60.872 300.436 60.976C300.172 61.072 299.952 61.12 299.776 61.12ZM299.272 58.12C299.344 58.08 299.504 57.996 299.752 57.868C299.864 57.82 300.024 57.74 300.232 57.628C300.608 57.42 300.888 57.18 301.072 56.908C301.264 56.636 301.36 56.3 301.36 55.9C301.36 55.588 301.228 55.432 300.964 55.432C300.732 55.432 300.46 55.644 300.148 56.068C299.82 56.492 299.556 57.048 299.356 57.736C299.3 57.928 299.272 58.056 299.272 58.12ZM307.218 61.096C307.09 61.096 307.018 61.012 307.002 60.844C307.082 60.14 307.258 59.408 307.53 58.648C307.786 57.912 308.014 57.08 308.214 56.152L307.758 56.716L307.302 57.268C306.798 57.924 306.33 58.428 305.898 58.78C305.826 58.828 305.746 58.852 305.658 58.852C305.57 58.852 305.494 58.812 305.43 58.732C305.366 58.652 305.306 58.524 305.25 58.348C305.202 58.164 305.154 57.936 305.106 57.664L304.926 56.656L304.866 56.392C304.226 57.864 303.79 58.904 303.558 59.512C303.534 59.584 303.506 59.656 303.474 59.728C303.45 59.792 303.426 59.86 303.402 59.932L303.258 60.328C303.242 60.376 303.234 60.416 303.234 60.448C303.218 60.512 303.202 60.56 303.186 60.592C303.218 60.616 303.234 60.664 303.234 60.736C303.234 60.8 303.194 60.864 303.114 60.928C303.042 60.992 302.962 61.024 302.874 61.024C302.738 61.024 302.67 60.948 302.67 60.796C302.67 60.148 303.39 58.276 304.83 55.18C304.926 55.036 305.022 54.964 305.118 54.964C305.302 54.964 305.394 55.06 305.394 55.252C305.394 55.332 305.37 55.444 305.322 55.588C305.322 55.732 305.35 55.912 305.406 56.128C305.438 56.296 305.49 56.612 305.562 57.076C305.602 57.42 305.678 57.788 305.79 58.18L306.354 57.568C307.202 56.632 307.714 56.02 307.89 55.732C308.226 55.164 308.494 54.88 308.694 54.88C308.83 54.88 308.918 54.948 308.958 55.084C308.87 55.948 308.642 56.944 308.274 58.072C307.898 59.224 307.658 60.12 307.554 60.76C307.53 60.856 307.482 60.936 307.41 61C307.346 61.064 307.282 61.096 307.218 61.096ZM309.375 61.12C309.063 61.12 308.811 61.032 308.619 60.856C308.563 60.808 308.535 60.74 308.535 60.652C308.535 60.572 308.571 60.5 308.643 60.436C308.707 60.372 308.783 60.34 308.871 60.34C308.959 60.34 309.019 60.368 309.051 60.424C309.107 60.48 309.155 60.52 309.195 60.544C309.243 60.56 309.327 60.568 309.447 60.568C309.687 60.568 309.947 60.408 310.227 60.088C310.331 59.984 310.483 59.796 310.683 59.524C311.003 59.092 311.255 58.768 311.439 58.552C311.495 58.48 311.579 58.38 311.691 58.252C311.747 58.172 311.831 58.068 311.943 57.94L312.123 57.724C311.707 58.1 311.359 58.288 311.079 58.288C310.887 58.288 310.731 58.228 310.611 58.108C310.499 57.98 310.443 57.788 310.443 57.532C310.443 57.252 310.563 56.884 310.803 56.428C311.043 55.972 311.331 55.584 311.667 55.264C312.035 54.936 312.375 54.772 312.687 54.772C312.999 54.772 313.243 54.88 313.419 55.096C313.427 55.112 313.471 55.18 313.551 55.3C313.575 55.284 313.619 55.276 313.683 55.276C313.795 55.276 313.863 55.344 313.887 55.48C313.887 55.856 313.759 56.268 313.503 56.716C313.439 56.82 313.391 56.876 313.359 56.884L313.311 57.148C313.239 57.548 313.179 57.86 313.131 58.084C312.875 59.308 312.735 60.088 312.711 60.424C312.687 60.696 312.655 60.872 312.615 60.952C312.575 61.024 312.491 61.06 312.363 61.06C312.251 61.06 312.183 61.04 312.159 61C312.135 60.952 312.123 60.88 312.123 60.784C312.203 59.96 312.391 58.904 312.687 57.616C312.239 58.12 311.827 58.64 311.451 59.176L310.707 60.196C310.499 60.484 310.295 60.712 310.095 60.88C309.903 61.04 309.663 61.12 309.375 61.12ZM311.271 57.88C311.615 57.88 312.043 57.592 312.555 57.016C312.707 56.848 312.815 56.724 312.879 56.644C312.975 56.26 313.067 55.964 313.155 55.756C313.051 55.564 312.963 55.448 312.891 55.408C312.835 55.376 312.755 55.36 312.651 55.36C312.443 55.36 312.203 55.48 311.931 55.72C311.659 55.96 311.435 56.244 311.259 56.572C311.083 56.9 310.995 57.176 310.995 57.4C310.995 57.72 311.087 57.88 311.271 57.88Z" fill="#6D6F72"/>
<path d="M23.768 18.144C23.664 18.144 23.596 18.1 23.564 18.012C23.532 17.924 23.516 17.76 23.516 17.52V17.004C23.516 16.332 23.556 14.964 23.636 12.9C23.668 11.884 23.696 11.108 23.72 10.572L23.744 9.792C23.76 9.464 23.776 8.964 23.792 8.292C23.416 9.132 22.748 10.472 21.788 12.312C20.74 14.304 20.096 15.544 19.856 16.032C19.776 16.2 19.676 16.284 19.556 16.284C19.444 16.284 19.364 16.228 19.316 16.116C19.3 16.044 19.28 15.96 19.256 15.864C19.24 15.768 19.22 15.66 19.196 15.54L18.392 11.928C18.064 10.48 17.78 9.172 17.54 8.004C17.268 9.388 16.856 11.22 16.304 13.5C16.08 14.412 15.9 15.152 15.764 15.72C15.628 16.288 15.52 16.736 15.44 17.064L15.248 17.892C15.176 18.052 15.068 18.132 14.924 18.132C14.804 18.132 14.732 18.052 14.708 17.892C14.924 16.7 15.356 14.736 16.004 12C16.604 9.528 17.024 7.756 17.264 6.684C17.288 6.604 17.332 6.536 17.396 6.48C17.468 6.424 17.536 6.396 17.6 6.396C17.704 6.396 17.776 6.464 17.816 6.6C18.144 8 18.48 9.532 18.824 11.196C19.16 12.828 19.436 14.1 19.652 15.012C20.068 14.3 20.452 13.604 20.804 12.924C21.156 12.236 21.608 11.34 22.16 10.236L22.496 9.564C22.928 8.684 23.416 7.72 23.96 6.672C24.072 6.48 24.192 6.384 24.32 6.384C24.44 6.384 24.5 6.444 24.5 6.564V6.6C24.276 10.328 24.144 13.98 24.104 17.556C24.12 17.604 24.128 17.648 24.128 17.688C24.128 17.8 24.092 17.904 24.02 18C23.948 18.096 23.864 18.144 23.768 18.144ZM30.0608 18.024C29.8768 18.024 29.7048 17.928 29.5448 17.736C29.3928 17.536 29.3168 17.324 29.3168 17.1C29.3168 16.604 29.4488 15.764 29.7128 14.58C29.5128 15.012 29.2528 15.456 28.9328 15.912C28.6208 16.36 28.3128 16.756 28.0088 17.1C27.7048 17.444 27.4808 17.668 27.3368 17.772C27.1368 17.924 26.9168 18 26.6768 18C26.2208 18 25.9928 17.712 25.9928 17.136C25.9928 16.576 26.2048 15.88 26.6288 15.048C27.0528 14.208 27.5568 13.48 28.1408 12.864C28.7248 12.256 29.1968 11.952 29.5568 11.952C29.9248 11.952 30.1328 12.112 30.1808 12.432C30.2048 12.528 30.2168 12.632 30.2168 12.744C30.2568 12.72 30.3008 12.708 30.3488 12.708C30.5328 12.708 30.6248 12.796 30.6248 12.972V13.02L30.4808 13.548C30.3688 13.948 30.2528 14.54 30.1328 15.324C30.0128 16.108 29.9528 16.76 29.9528 17.28L30.0728 17.352C30.2648 17.472 30.3608 17.592 30.3608 17.712C30.3608 17.792 30.3328 17.864 30.2768 17.928C30.2208 17.992 30.1488 18.024 30.0608 18.024ZM26.7728 17.376C26.8608 17.376 26.9328 17.348 26.9888 17.292C27.8048 16.596 28.5288 15.632 29.1608 14.4C29.5208 13.72 29.7168 13.316 29.7488 13.188C29.7648 13.044 29.7728 12.956 29.7728 12.924C29.7728 12.844 29.7528 12.772 29.7128 12.708C29.6728 12.644 29.6208 12.612 29.5568 12.612C29.4768 12.612 29.3728 12.648 29.2448 12.72C28.9248 12.888 28.5448 13.244 28.1048 13.788C27.6728 14.332 27.3168 14.908 27.0368 15.516C26.7408 16.132 26.5928 16.68 26.5928 17.16C26.5928 17.304 26.6528 17.376 26.7728 17.376ZM31.9834 18.12C31.8554 18.12 31.7834 18.036 31.7674 17.868L31.8994 17.112C31.9794 16.6 32.0754 16.044 32.1874 15.444L32.2594 15.012C32.4354 13.996 32.5434 13.404 32.5834 13.236C32.6714 12.828 32.7314 12.484 32.7634 12.204C32.7874 12.124 32.8314 12.056 32.8954 12C32.9674 11.944 33.0394 11.916 33.1114 11.916C33.2074 11.916 33.2754 11.984 33.3154 12.12C33.3154 12.248 33.2994 12.392 33.2674 12.552C33.2354 12.656 33.1954 12.876 33.1474 13.212L32.9434 14.28C33.8394 13.032 34.5994 12.26 35.2234 11.964C35.3674 11.892 35.5114 11.856 35.6554 11.856C35.7914 11.856 35.9394 11.956 36.0994 12.156C36.2674 12.356 36.3514 12.532 36.3514 12.684C36.3514 12.812 36.3194 12.912 36.2554 12.984C36.1914 13.056 36.1154 13.092 36.0274 13.092C35.9074 13.092 35.7994 12.98 35.7034 12.756C35.6954 12.74 35.6754 12.7 35.6434 12.636C35.6194 12.564 35.5914 12.512 35.5594 12.48C35.5354 12.44 35.5074 12.42 35.4754 12.42C35.4194 12.42 35.3074 12.468 35.1394 12.564C34.9794 12.652 34.7194 12.888 34.3594 13.272C34.0074 13.648 33.7354 13.968 33.5434 14.232C33.6154 14.984 33.7674 15.648 33.9994 16.224C34.2314 16.8 34.4834 17.192 34.7554 17.4C34.8994 17.504 35.0354 17.556 35.1634 17.556C35.2994 17.556 35.4074 17.52 35.4874 17.448C35.5754 17.376 35.6434 17.26 35.6914 17.1C35.7554 16.94 35.8074 16.856 35.8474 16.848C35.8714 16.832 35.9154 16.824 35.9794 16.824C36.0274 16.824 36.0834 16.852 36.1474 16.908C36.2034 16.964 36.2314 17.068 36.2314 17.22C36.2314 17.38 36.1634 17.532 36.0274 17.676C35.7634 17.972 35.4994 18.12 35.2354 18.12C34.4674 18.12 33.8714 17.488 33.4474 16.224C33.2634 15.696 33.1474 15.244 33.0994 14.868C33.0754 14.9 32.9874 15.052 32.8354 15.324L32.6914 15.588C32.5634 16.284 32.4394 17.016 32.3194 17.784C32.3114 17.872 32.2714 17.948 32.1994 18.012C32.1274 18.084 32.0554 18.12 31.9834 18.12ZM38.2835 18.144C37.8995 18.144 37.5955 18.004 37.3715 17.724C37.1555 17.436 37.0475 17.092 37.0475 16.692C37.0475 15.988 37.1755 15.26 37.4315 14.508C37.6955 13.756 38.0395 13.128 38.4635 12.624C38.8875 12.12 39.3355 11.868 39.8075 11.868C40.1515 11.868 40.3755 11.992 40.4795 12.24C40.5035 12.28 40.5235 12.324 40.5395 12.372C40.5555 12.412 40.5715 12.452 40.5875 12.492C40.6275 12.604 40.6675 12.668 40.7075 12.684C40.7395 12.764 40.7555 12.824 40.7555 12.864C40.7555 12.936 40.7195 13.004 40.6475 13.068C40.5835 13.132 40.5115 13.164 40.4315 13.164C40.2635 13.164 40.1555 13.04 40.1075 12.792C40.0595 12.544 39.9275 12.42 39.7115 12.42C39.4235 12.42 39.1195 12.644 38.7995 13.092C38.4795 13.532 38.2035 14.092 37.9715 14.772C37.7475 15.412 37.6355 15.984 37.6355 16.488C37.6355 17.2 37.8955 17.556 38.4155 17.556C38.6795 17.556 38.9235 17.432 39.1475 17.184C39.1715 17.152 39.2155 17.1 39.2795 17.028C39.3435 16.948 39.4035 16.892 39.4595 16.86C39.5155 16.82 39.5675 16.8 39.6155 16.8C39.7675 16.8 39.8435 16.868 39.8435 17.004C39.8435 17.164 39.7675 17.336 39.6155 17.52C39.4635 17.696 39.2675 17.844 39.0275 17.964C38.7875 18.084 38.5395 18.144 38.2835 18.144ZM44.5939 18.12C44.5059 18.12 44.4099 18.048 44.3059 17.904C44.2099 17.752 44.1619 17.62 44.1619 17.508V17.304C44.1619 17.056 44.3339 16.308 44.6779 15.06L44.8339 14.4L44.5099 15.084C44.4059 15.348 44.2379 15.72 44.0059 16.2C43.4139 17.464 42.7819 18.096 42.1099 18.096C41.7099 18.096 41.4379 17.876 41.2939 17.436C41.2539 17.292 41.2339 17.112 41.2339 16.896C41.2339 16.448 41.3179 15.876 41.4859 15.18C41.5819 14.78 41.6619 14.484 41.7259 14.292L41.8219 13.98C41.9099 13.676 41.9979 13.356 42.0859 13.02C42.1819 12.676 42.2339 12.416 42.2419 12.24C42.2659 12.16 42.3099 12.092 42.3739 12.036C42.4459 11.98 42.5219 11.952 42.6019 11.952C42.6819 11.952 42.7459 12.056 42.7939 12.264C42.7939 12.472 42.7539 12.728 42.6739 13.032C42.5939 13.328 42.5139 13.592 42.4339 13.824C42.3619 14.056 42.3179 14.204 42.3019 14.268C41.9739 15.3 41.8099 16.196 41.8099 16.956C41.8099 17.196 41.9019 17.364 42.0859 17.46C42.1499 17.492 42.2379 17.508 42.3499 17.508C42.5739 17.508 42.8419 17.284 43.1539 16.836C43.4419 16.42 43.7339 15.9 44.0299 15.276C44.3259 14.652 44.5659 14.084 44.7499 13.572C44.9419 13.02 45.1019 12.616 45.2299 12.36C45.3579 12.104 45.4979 11.976 45.6499 11.976C45.7859 11.976 45.8539 12.044 45.8539 12.18C45.8539 12.284 45.7899 12.568 45.6619 13.032C45.5419 13.424 45.4619 13.704 45.4219 13.872C45.3819 14.032 45.3339 14.26 45.2779 14.556L44.9899 16.188L44.8579 16.872C44.8499 16.944 44.8299 17.052 44.7979 17.196C44.7979 17.348 44.8219 17.448 44.8699 17.496L44.9779 17.64C45.0019 17.664 45.0139 17.716 45.0139 17.796C45.0139 17.876 44.9659 17.948 44.8699 18.012C44.7819 18.084 44.6899 18.12 44.5939 18.12ZM51.4097 18.096C51.2817 18.096 51.2097 18.012 51.1937 17.844C51.2737 17.14 51.4497 16.408 51.7217 15.648C51.9777 14.912 52.2057 14.08 52.4057 13.152L51.9497 13.716L51.4937 14.268C50.9897 14.924 50.5217 15.428 50.0897 15.78C50.0177 15.828 49.9377 15.852 49.8497 15.852C49.7617 15.852 49.6857 15.812 49.6217 15.732C49.5577 15.652 49.4977 15.524 49.4417 15.348C49.3937 15.164 49.3457 14.936 49.2977 14.664L49.1177 13.656L49.0577 13.392C48.4177 14.864 47.9817 15.904 47.7497 16.512C47.7257 16.584 47.6977 16.656 47.6657 16.728C47.6417 16.792 47.6177 16.86 47.5937 16.932L47.4497 17.328C47.4337 17.376 47.4257 17.416 47.4257 17.448C47.4097 17.512 47.3937 17.56 47.3777 17.592C47.4097 17.616 47.4257 17.664 47.4257 17.736C47.4257 17.8 47.3857 17.864 47.3057 17.928C47.2337 17.992 47.1537 18.024 47.0657 18.024C46.9297 18.024 46.8617 17.948 46.8617 17.796C46.8617 17.148 47.5817 15.276 49.0217 12.18C49.1177 12.036 49.2137 11.964 49.3097 11.964C49.4937 11.964 49.5857 12.06 49.5857 12.252C49.5857 12.332 49.5617 12.444 49.5137 12.588C49.5137 12.732 49.5417 12.912 49.5977 13.128C49.6297 13.296 49.6817 13.612 49.7537 14.076C49.7937 14.42 49.8697 14.788 49.9817 15.18L50.5457 14.568C51.3937 13.632 51.9057 13.02 52.0817 12.732C52.4177 12.164 52.6857 11.88 52.8857 11.88C53.0217 11.88 53.1097 11.948 53.1497 12.084C53.0617 12.948 52.8337 13.944 52.4657 15.072C52.0897 16.224 51.8497 17.12 51.7457 17.76C51.7217 17.856 51.6737 17.936 51.6017 18C51.5377 18.064 51.4737 18.096 51.4097 18.096ZM57.6467 18.024C57.4627 18.024 57.2907 17.928 57.1307 17.736C56.9787 17.536 56.9027 17.324 56.9027 17.1C56.9027 16.604 57.0347 15.764 57.2987 14.58C57.0987 15.012 56.8387 15.456 56.5187 15.912C56.2067 16.36 55.8987 16.756 55.5947 17.1C55.2907 17.444 55.0667 17.668 54.9227 17.772C54.7227 17.924 54.5027 18 54.2627 18C53.8067 18 53.5787 17.712 53.5787 17.136C53.5787 16.576 53.7907 15.88 54.2147 15.048C54.6387 14.208 55.1427 13.48 55.7267 12.864C56.3107 12.256 56.7827 11.952 57.1427 11.952C57.5107 11.952 57.7187 12.112 57.7667 12.432C57.7907 12.528 57.8027 12.632 57.8027 12.744C57.8427 12.72 57.8867 12.708 57.9347 12.708C58.1187 12.708 58.2107 12.796 58.2107 12.972V13.02L58.0667 13.548C57.9547 13.948 57.8387 14.54 57.7187 15.324C57.5987 16.108 57.5387 16.76 57.5387 17.28L57.6587 17.352C57.8507 17.472 57.9467 17.592 57.9467 17.712C57.9467 17.792 57.9187 17.864 57.8627 17.928C57.8067 17.992 57.7347 18.024 57.6467 18.024ZM54.3587 17.376C54.4467 17.376 54.5187 17.348 54.5747 17.292C55.3907 16.596 56.1147 15.632 56.7467 14.4C57.1067 13.72 57.3027 13.316 57.3347 13.188C57.3507 13.044 57.3587 12.956 57.3587 12.924C57.3587 12.844 57.3387 12.772 57.2987 12.708C57.2587 12.644 57.2067 12.612 57.1427 12.612C57.0627 12.612 56.9587 12.648 56.8307 12.72C56.5107 12.888 56.1307 13.244 55.6907 13.788C55.2587 14.332 54.9027 14.908 54.6227 15.516C54.3267 16.132 54.1787 16.68 54.1787 17.16C54.1787 17.304 54.2387 17.376 54.3587 17.376ZM59.6053 18.144C59.3173 18.144 59.0893 18.076 58.9213 17.94C58.7533 17.796 58.6173 17.56 58.5133 17.232C58.4973 17.208 58.4893 17.156 58.4893 17.076C58.4893 17.004 58.5213 16.936 58.5853 16.872C58.6493 16.8 58.7213 16.764 58.8013 16.764C58.8733 16.764 58.9413 16.808 59.0053 16.896C59.0053 17.384 59.2373 17.628 59.7013 17.628C60.0453 17.628 60.3893 17.456 60.7333 17.112C61.0773 16.76 61.3933 16.3 61.6813 15.732C61.9373 15.236 62.1253 14.784 62.2453 14.376L62.3413 14.064C62.4293 13.768 62.5213 13.472 62.6173 13.176C62.7213 12.872 62.8253 12.612 62.9293 12.396C63.0653 12.116 63.2013 11.976 63.3373 11.976C63.4813 11.976 63.5533 12.052 63.5533 12.204C63.5533 12.34 63.4773 12.624 63.3253 13.056C63.1573 13.56 63.0173 14.16 62.9053 14.856C62.7933 15.544 62.7373 16.232 62.7373 16.92C62.7373 17.312 62.8173 17.532 62.9773 17.58L63.1213 17.592C63.2413 17.592 63.3453 17.564 63.4333 17.508C63.4573 17.5 63.5133 17.46 63.6013 17.388C63.6173 17.372 63.6813 17.32 63.7933 17.232C63.9053 17.136 64.0013 17.088 64.0813 17.088C64.2253 17.088 64.2973 17.164 64.2973 17.316C64.2973 17.412 64.2253 17.524 64.0813 17.652C63.9373 17.78 63.7653 17.888 63.5653 17.976C63.3653 18.064 63.1813 18.108 63.0133 18.108C62.5013 18.108 62.2453 17.552 62.2453 16.44C62.2453 16.224 62.2653 15.928 62.3053 15.552C62.0173 16.296 61.6173 16.916 61.1053 17.412C60.6013 17.9 60.1013 18.144 59.6053 18.144ZM66.4637 18.18C65.7757 18.18 65.4317 17.712 65.4317 16.776C65.4317 16.432 65.4837 16.012 65.5877 15.516L65.8037 14.484L66.2717 12.204C66.3037 12.14 66.3557 12.088 66.4277 12.048C66.4997 12 66.5677 11.976 66.6317 11.976C66.6877 11.976 66.7437 12.012 66.7997 12.084C66.8557 12.156 66.8837 12.232 66.8837 12.312L66.4997 13.812L66.1277 15.384C65.9997 15.96 65.9357 16.4 65.9357 16.704C65.9357 17.04 65.9837 17.28 66.0797 17.424C66.1757 17.56 66.3317 17.628 66.5477 17.628C66.8837 17.628 67.1597 17.516 67.3757 17.292C67.5917 17.068 67.7477 16.772 67.8437 16.404C67.9317 16.052 67.9757 15.744 67.9757 15.48C67.9757 14.792 67.8077 14.448 67.4717 14.448C67.2557 14.448 67.0597 14.62 66.8837 14.964C66.7877 15.156 66.7037 15.296 66.6317 15.384C66.5677 15.448 66.5117 15.48 66.4637 15.48C66.3197 15.48 66.2477 15.412 66.2477 15.276C66.2477 15.196 66.3277 15.032 66.4877 14.784C66.6557 14.528 66.7917 14.34 66.8957 14.22C67.1197 13.996 67.3277 13.884 67.5197 13.884C67.8397 13.884 68.0837 14.036 68.2517 14.34C68.4197 14.644 68.5037 15.016 68.5037 15.456C68.5037 15.96 68.4117 16.42 68.2277 16.836C68.0517 17.252 67.8077 17.58 67.4957 17.82C67.1837 18.06 66.8397 18.18 66.4637 18.18ZM73.1152 18.132C72.8912 18.132 72.7192 18.072 72.5992 17.952C72.4872 17.832 72.4312 17.676 72.4312 17.484C72.4312 17.284 72.4832 16.94 72.5872 16.452L72.8632 15C72.2792 15.44 71.7392 15.66 71.2432 15.66C70.8832 15.66 70.6072 15.564 70.4152 15.372C70.3992 15.452 70.3832 15.532 70.3672 15.612C70.3592 15.692 70.3472 15.772 70.3312 15.852C70.2992 16.116 70.2592 16.384 70.2112 16.656C70.0672 17.608 69.8512 18.084 69.5632 18.084C69.4432 18.084 69.3712 18 69.3472 17.832C69.4192 17.208 69.5952 16.24 69.8752 14.928C70.1632 13.608 70.3672 12.716 70.4872 12.252C70.5112 12.172 70.5552 12.104 70.6192 12.048C70.6912 11.992 70.7632 11.964 70.8352 11.964C70.9312 11.964 70.9992 12.032 71.0392 12.168C71.0392 12.296 70.9672 12.712 70.8232 13.416C70.7112 13.952 70.6232 14.412 70.5592 14.796C70.7352 14.996 71.0112 15.096 71.3872 15.096C71.7552 15.096 72.1592 14.912 72.5992 14.544C72.7352 14.424 72.8632 14.296 72.9832 14.16L73.1632 13.356C73.2992 12.772 73.4472 12.368 73.6072 12.144C73.6872 12.016 73.7952 11.952 73.9312 11.952C74.0672 11.952 74.1352 12.028 74.1352 12.18V12.24C73.6952 13.752 73.4192 14.848 73.3072 15.528C73.2032 16.112 73.1352 16.572 73.1032 16.908C73.0792 17.172 73.0632 17.316 73.0552 17.34L73.0432 17.496C73.0432 17.544 73.0632 17.568 73.1032 17.568C73.1352 17.568 73.1632 17.556 73.1872 17.532C73.2272 17.508 73.2912 17.496 73.3792 17.496C73.5152 17.496 73.5832 17.568 73.5832 17.712C73.5832 17.992 73.4272 18.132 73.1152 18.132ZM78.8577 18.024C78.6737 18.024 78.5017 17.928 78.3417 17.736C78.1897 17.536 78.1137 17.324 78.1137 17.1C78.1137 16.604 78.2457 15.764 78.5097 14.58C78.3097 15.012 78.0497 15.456 77.7297 15.912C77.4177 16.36 77.1097 16.756 76.8057 17.1C76.5017 17.444 76.2777 17.668 76.1337 17.772C75.9337 17.924 75.7137 18 75.4737 18C75.0177 18 74.7897 17.712 74.7897 17.136C74.7897 16.576 75.0017 15.88 75.4257 15.048C75.8497 14.208 76.3537 13.48 76.9377 12.864C77.5217 12.256 77.9937 11.952 78.3537 11.952C78.7217 11.952 78.9297 12.112 78.9777 12.432C79.0017 12.528 79.0137 12.632 79.0137 12.744C79.0537 12.72 79.0977 12.708 79.1457 12.708C79.3297 12.708 79.4217 12.796 79.4217 12.972V13.02L79.2777 13.548C79.1657 13.948 79.0497 14.54 78.9297 15.324C78.8097 16.108 78.7497 16.76 78.7497 17.28L78.8697 17.352C79.0617 17.472 79.1577 17.592 79.1577 17.712C79.1577 17.792 79.1297 17.864 79.0737 17.928C79.0177 17.992 78.9457 18.024 78.8577 18.024ZM75.5697 17.376C75.6577 17.376 75.7297 17.348 75.7857 17.292C76.6017 16.596 77.3257 15.632 77.9577 14.4C78.3177 13.72 78.5137 13.316 78.5457 13.188C78.5617 13.044 78.5697 12.956 78.5697 12.924C78.5697 12.844 78.5497 12.772 78.5097 12.708C78.4697 12.644 78.4177 12.612 78.3537 12.612C78.2737 12.612 78.1697 12.648 78.0417 12.72C77.7217 12.888 77.3417 13.244 76.9017 13.788C76.4697 14.332 76.1137 14.908 75.8337 15.516C75.5377 16.132 75.3897 16.68 75.3897 17.16C75.3897 17.304 75.4497 17.376 75.5697 17.376ZM80.1683 18.12C79.8563 18.12 79.6043 18.032 79.4123 17.856C79.3563 17.808 79.3283 17.74 79.3283 17.652C79.3283 17.572 79.3643 17.5 79.4363 17.436C79.5003 17.372 79.5763 17.34 79.6643 17.34C79.7523 17.34 79.8123 17.368 79.8443 17.424C79.9003 17.48 79.9483 17.52 79.9883 17.544C80.0363 17.56 80.1203 17.568 80.2403 17.568C80.4803 17.568 80.7403 17.408 81.0203 17.088C81.1243 16.984 81.2763 16.796 81.4763 16.524C81.7963 16.092 82.0483 15.768 82.2323 15.552C82.2883 15.48 82.3723 15.38 82.4843 15.252C82.5403 15.172 82.6243 15.068 82.7363 14.94L82.9163 14.724C82.5003 15.1 82.1523 15.288 81.8723 15.288C81.6803 15.288 81.5243 15.228 81.4043 15.108C81.2923 14.98 81.2363 14.788 81.2363 14.532C81.2363 14.252 81.3563 13.884 81.5963 13.428C81.8363 12.972 82.1243 12.584 82.4603 12.264C82.8283 11.936 83.1683 11.772 83.4803 11.772C83.7923 11.772 84.0363 11.88 84.2123 12.096C84.2203 12.112 84.2643 12.18 84.3443 12.3C84.3683 12.284 84.4123 12.276 84.4763 12.276C84.5883 12.276 84.6563 12.344 84.6803 12.48C84.6803 12.856 84.5523 13.268 84.2963 13.716C84.2323 13.82 84.1843 13.876 84.1523 13.884L84.1043 14.148C84.0323 14.548 83.9723 14.86 83.9243 15.084C83.6683 16.308 83.5283 17.088 83.5043 17.424C83.4803 17.696 83.4483 17.872 83.4083 17.952C83.3683 18.024 83.2843 18.06 83.1563 18.06C83.0443 18.06 82.9763 18.04 82.9523 18C82.9283 17.952 82.9163 17.88 82.9163 17.784C82.9963 16.96 83.1843 15.904 83.4803 14.616C83.0323 15.12 82.6203 15.64 82.2443 16.176L81.5003 17.196C81.2923 17.484 81.0883 17.712 80.8883 17.88C80.6963 18.04 80.4563 18.12 80.1683 18.12ZM82.0643 14.88C82.4083 14.88 82.8363 14.592 83.3483 14.016C83.5003 13.848 83.6083 13.724 83.6723 13.644C83.7683 13.26 83.8603 12.964 83.9483 12.756C83.8443 12.564 83.7563 12.448 83.6843 12.408C83.6283 12.376 83.5483 12.36 83.4443 12.36C83.2363 12.36 82.9963 12.48 82.7243 12.72C82.4523 12.96 82.2283 13.244 82.0523 13.572C81.8763 13.9 81.7883 14.176 81.7883 14.4C81.7883 14.72 81.8803 14.88 82.0643 14.88ZM18.26 36.024C18.076 36.024 17.904 35.928 17.744 35.736C17.592 35.536 17.516 35.324 17.516 35.1C17.516 34.604 17.648 33.764 17.912 32.58C17.712 33.012 17.452 33.456 17.132 33.912C16.82 34.36 16.512 34.756 16.208 35.1C15.904 35.444 15.68 35.668 15.536 35.772C15.336 35.924 15.116 36 14.876 36C14.42 36 14.192 35.712 14.192 35.136C14.192 34.576 14.404 33.88 14.828 33.048C15.252 32.208 15.756 31.48 16.34 30.864C16.924 30.256 17.396 29.952 17.756 29.952C18.124 29.952 18.332 30.112 18.38 30.432C18.404 30.528 18.416 30.632 18.416 30.744C18.456 30.72 18.5 30.708 18.548 30.708C18.732 30.708 18.824 30.796 18.824 30.972V31.02L18.68 31.548C18.568 31.948 18.452 32.54 18.332 33.324C18.212 34.108 18.152 34.76 18.152 35.28L18.272 35.352C18.464 35.472 18.56 35.592 18.56 35.712C18.56 35.792 18.532 35.864 18.476 35.928C18.42 35.992 18.348 36.024 18.26 36.024ZM14.972 35.376C15.06 35.376 15.132 35.348 15.188 35.292C16.004 34.596 16.728 33.632 17.36 32.4C17.72 31.72 17.916 31.316 17.948 31.188C17.964 31.044 17.972 30.956 17.972 30.924C17.972 30.844 17.952 30.772 17.912 30.708C17.872 30.644 17.82 30.612 17.756 30.612C17.676 30.612 17.572 30.648 17.444 30.72C17.124 30.888 16.744 31.244 16.304 31.788C15.872 32.332 15.516 32.908 15.236 33.516C14.94 34.132 14.792 34.68 14.792 35.16C14.792 35.304 14.852 35.376 14.972 35.376ZM24.5386 36.096C24.4106 36.096 24.3386 36.012 24.3226 35.844C24.4026 35.14 24.5786 34.408 24.8506 33.648C25.1066 32.912 25.3346 32.08 25.5346 31.152L25.0786 31.716L24.6226 32.268C24.1186 32.924 23.6506 33.428 23.2186 33.78C23.1466 33.828 23.0666 33.852 22.9786 33.852C22.8906 33.852 22.8146 33.812 22.7506 33.732C22.6866 33.652 22.6266 33.524 22.5706 33.348C22.5226 33.164 22.4746 32.936 22.4266 32.664L22.2466 31.656L22.1866 31.392C21.5466 32.864 21.1106 33.904 20.8786 34.512C20.8546 34.584 20.8266 34.656 20.7946 34.728C20.7706 34.792 20.7466 34.86 20.7226 34.932L20.5786 35.328C20.5626 35.376 20.5546 35.416 20.5546 35.448C20.5386 35.512 20.5226 35.56 20.5066 35.592C20.5386 35.616 20.5546 35.664 20.5546 35.736C20.5546 35.8 20.5146 35.864 20.4346 35.928C20.3626 35.992 20.2826 36.024 20.1946 36.024C20.0586 36.024 19.9906 35.948 19.9906 35.796C19.9906 35.148 20.7106 33.276 22.1506 30.18C22.2466 30.036 22.3426 29.964 22.4386 29.964C22.6226 29.964 22.7146 30.06 22.7146 30.252C22.7146 30.332 22.6906 30.444 22.6426 30.588C22.6426 30.732 22.6706 30.912 22.7266 31.128C22.7586 31.296 22.8106 31.612 22.8826 32.076C22.9226 32.42 22.9986 32.788 23.1106 33.18L23.6746 32.568C24.5226 31.632 25.0346 31.02 25.2106 30.732C25.5466 30.164 25.8146 29.88 26.0146 29.88C26.1506 29.88 26.2386 29.948 26.2786 30.084C26.1906 30.948 25.9626 31.944 25.5946 33.072C25.2186 34.224 24.9786 35.12 24.8746 35.76C24.8506 35.856 24.8026 35.936 24.7306 36C24.6666 36.064 24.6026 36.096 24.5386 36.096ZM30.2476 36.072C30.1196 36.072 30.0276 36.048 29.9716 36C29.9156 35.952 29.8956 35.868 29.9116 35.748L30.4996 32.244C30.5716 31.812 30.6076 31.48 30.6076 31.248C30.6076 30.864 30.4996 30.672 30.2836 30.672C30.1156 30.672 29.8676 30.94 29.5396 31.476C29.2196 32.004 28.8996 32.604 28.5796 33.276C28.2596 33.94 28.0436 34.432 27.9316 34.752L27.7636 35.148C27.6916 35.348 27.6396 35.476 27.6076 35.532C27.4636 35.844 27.3196 36 27.1756 36C27.0956 36 27.0436 35.984 27.0196 35.952C27.0036 35.912 26.9956 35.832 26.9956 35.712C26.9956 35.592 27.1516 34.668 27.4636 32.94C27.7836 31.212 27.9676 30.304 28.0156 30.216C28.0636 30.12 28.1036 30.06 28.1356 30.036C28.1756 30.012 28.2476 30 28.3516 30C28.4476 30 28.5236 30.036 28.5796 30.108C28.6436 30.18 28.6756 30.252 28.6756 30.324C28.6756 30.404 28.6676 30.464 28.6516 30.504C28.6516 30.52 28.6116 30.652 28.5316 30.9C28.3396 31.42 28.1596 32.176 27.9916 33.168L27.8716 33.876C28.0076 33.588 28.1076 33.364 28.1716 33.204C28.3956 32.684 28.5996 32.228 28.7836 31.836C28.9756 31.444 29.1876 31.08 29.4196 30.744C29.7716 30.24 30.0996 29.988 30.4036 29.988C30.9396 29.988 31.2076 30.42 31.2076 31.284C31.2076 31.548 31.1756 31.864 31.1116 32.232C31.0556 32.6 30.9596 33.112 30.8236 33.768L30.7636 34.08C30.6596 34.656 30.5996 35.132 30.5836 35.508L30.5116 35.832C30.5116 35.928 30.4956 35.992 30.4636 36.024C30.4396 36.056 30.3676 36.072 30.2476 36.072ZM32.6991 36.144C32.4111 36.144 32.1831 36.076 32.0151 35.94C31.8471 35.796 31.7111 35.56 31.6071 35.232C31.5911 35.208 31.5831 35.156 31.5831 35.076C31.5831 35.004 31.6151 34.936 31.6791 34.872C31.7431 34.8 31.8151 34.764 31.8951 34.764C31.9671 34.764 32.0351 34.808 32.0991 34.896C32.0991 35.384 32.3311 35.628 32.7951 35.628C33.1391 35.628 33.4831 35.456 33.8271 35.112C34.1711 34.76 34.4871 34.3 34.7751 33.732C35.0311 33.236 35.2191 32.784 35.3391 32.376L35.4351 32.064C35.5231 31.768 35.6151 31.472 35.7111 31.176C35.8151 30.872 35.9191 30.612 36.0231 30.396C36.1591 30.116 36.2951 29.976 36.4311 29.976C36.5751 29.976 36.6471 30.052 36.6471 30.204C36.6471 30.34 36.5711 30.624 36.4191 31.056C36.2511 31.56 36.1111 32.16 35.9991 32.856C35.8871 33.544 35.8311 34.232 35.8311 34.92C35.8311 35.312 35.9111 35.532 36.0711 35.58L36.2151 35.592C36.3351 35.592 36.4391 35.564 36.5271 35.508C36.5511 35.5 36.6071 35.46 36.6951 35.388C36.7111 35.372 36.7751 35.32 36.8871 35.232C36.9991 35.136 37.0951 35.088 37.1751 35.088C37.3191 35.088 37.3911 35.164 37.3911 35.316C37.3911 35.412 37.3191 35.524 37.1751 35.652C37.0311 35.78 36.8591 35.888 36.6591 35.976C36.4591 36.064 36.2751 36.108 36.1071 36.108C35.5951 36.108 35.3391 35.552 35.3391 34.44C35.3391 34.224 35.3591 33.928 35.3991 33.552C35.1111 34.296 34.7111 34.916 34.1991 35.412C33.6951 35.9 33.1951 36.144 32.6991 36.144ZM41.9455 36.12C41.8575 36.12 41.7615 36.048 41.6575 35.904C41.5615 35.752 41.5135 35.62 41.5135 35.508V35.304C41.5135 35.056 41.6855 34.308 42.0295 33.06L42.1855 32.4L41.8615 33.084C41.7575 33.348 41.5895 33.72 41.3575 34.2C40.7655 35.464 40.1335 36.096 39.4615 36.096C39.0615 36.096 38.7895 35.876 38.6455 35.436C38.6055 35.292 38.5855 35.112 38.5855 34.896C38.5855 34.448 38.6695 33.876 38.8375 33.18C38.9335 32.78 39.0135 32.484 39.0775 32.292L39.1735 31.98C39.2615 31.676 39.3495 31.356 39.4375 31.02C39.5335 30.676 39.5855 30.416 39.5935 30.24C39.6175 30.16 39.6615 30.092 39.7255 30.036C39.7975 29.98 39.8735 29.952 39.9535 29.952C40.0335 29.952 40.0975 30.056 40.1455 30.264C40.1455 30.472 40.1055 30.728 40.0255 31.032C39.9455 31.328 39.8655 31.592 39.7855 31.824C39.7135 32.056 39.6695 32.204 39.6535 32.268C39.3255 33.3 39.1615 34.196 39.1615 34.956C39.1615 35.196 39.2535 35.364 39.4375 35.46C39.5015 35.492 39.5895 35.508 39.7015 35.508C39.9255 35.508 40.1935 35.284 40.5055 34.836C40.7935 34.42 41.0855 33.9 41.3815 33.276C41.6775 32.652 41.9175 32.084 42.1015 31.572C42.2935 31.02 42.4535 30.616 42.5815 30.36C42.7095 30.104 42.8495 29.976 43.0015 29.976C43.1375 29.976 43.2055 30.044 43.2055 30.18C43.2055 30.284 43.1415 30.568 43.0135 31.032C42.8935 31.424 42.8135 31.704 42.7735 31.872C42.7335 32.032 42.6855 32.26 42.6295 32.556L42.3415 34.188L42.2095 34.872C42.2015 34.944 42.1815 35.052 42.1495 35.196C42.1495 35.348 42.1735 35.448 42.2215 35.496L42.3295 35.64C42.3535 35.664 42.3655 35.716 42.3655 35.796C42.3655 35.876 42.3175 35.948 42.2215 36.012C42.1335 36.084 42.0415 36.12 41.9455 36.12ZM44.1533 30.624C44.0573 30.624 43.9733 30.596 43.9013 30.54C43.8373 30.484 43.8053 30.424 43.8053 30.36C43.8053 30.304 43.8333 30.256 43.8893 30.216C44.5613 29.928 45.4013 29.784 46.4093 29.784C46.8413 29.784 47.1973 29.8 47.4773 29.832C47.7493 29.872 47.9853 29.9 48.1853 29.916C48.3533 29.94 48.4533 29.968 48.4853 30C48.5173 30.04 48.5333 30.096 48.5333 30.168C48.5333 30.24 48.4933 30.312 48.4133 30.384C48.3333 30.448 48.2333 30.48 48.1133 30.48C47.9773 30.48 47.7493 30.444 47.4293 30.372C47.0933 30.308 46.7733 30.276 46.4693 30.276C45.6533 30.276 44.9133 30.388 44.2493 30.612L44.2013 30.624H44.1533ZM44.7773 36.18C44.6413 36.18 44.5733 36.1 44.5733 35.94C44.5733 35.86 44.6013 35.784 44.6573 35.712C44.7293 35.52 44.8013 35.26 44.8733 34.932C44.9693 34.524 45.0333 34.272 45.0653 34.176L45.1853 33.564L45.3173 32.796C45.4533 32.012 45.5813 31.448 45.7013 31.104C45.8293 30.76 46.0013 30.588 46.2173 30.588C46.2973 30.588 46.3613 30.64 46.4093 30.744L46.5653 31.152C46.5653 31.32 46.5053 31.448 46.3853 31.536C46.3533 31.56 46.3133 31.572 46.2653 31.572C46.2173 31.572 46.1733 31.548 46.1333 31.5C45.9493 32.18 45.8373 32.676 45.7973 32.988C45.7173 33.508 45.6493 33.908 45.5933 34.188C45.5613 34.276 45.5253 34.404 45.4853 34.572L45.3773 34.968C45.1693 35.776 44.9693 36.18 44.7773 36.18ZM48.6857 41.004C48.4217 41.004 48.1897 40.936 47.9897 40.8C47.7977 40.664 47.6497 40.492 47.5457 40.284C47.4417 40.084 47.3897 39.884 47.3897 39.684C47.3897 39.212 47.5137 38.768 47.7617 38.352C48.0097 37.944 48.3657 37.544 48.8297 37.152C49.0057 36.992 49.4097 36.676 50.0417 36.204L50.6297 35.76L50.6897 35.484L50.7737 35.112C50.8137 34.92 50.8417 34.792 50.8577 34.728L50.9297 34.404C50.7857 34.844 50.5457 35.236 50.2097 35.58C49.8817 35.924 49.5657 36.096 49.2617 36.096C48.9417 36.096 48.6857 35.976 48.4937 35.736C48.3017 35.488 48.2057 35.152 48.2057 34.728C48.2057 34.056 48.3977 32.996 48.7817 31.548C48.9737 30.828 49.0697 30.44 49.0697 30.384L49.0457 30.24C49.0377 30.184 49.0897 30.116 49.2017 30.036C49.3137 29.956 49.4057 29.916 49.4777 29.916C49.6377 29.916 49.7177 29.996 49.7177 30.156C49.7177 30.316 49.5697 30.988 49.2737 32.172C48.9777 33.356 48.8297 34.16 48.8297 34.584C48.8297 35 48.8817 35.26 48.9857 35.364C49.0817 35.468 49.2017 35.52 49.3457 35.52C49.6497 35.52 49.9737 35.264 50.3177 34.752C50.5897 34.352 50.8297 33.816 51.0377 33.144C51.2537 32.464 51.4537 31.748 51.6377 30.996L51.6977 30.756C51.7857 30.396 51.8617 30.172 51.9257 30.084C51.9897 29.988 52.0777 29.94 52.1897 29.94C52.2777 29.94 52.3377 29.964 52.3697 30.012C52.4097 30.052 52.4217 30.096 52.4057 30.144C52.2857 30.736 52.0897 31.604 51.8177 32.748C51.5697 33.788 51.3937 34.624 51.2897 35.256C51.2657 35.272 51.4057 35.144 51.7097 34.872C51.8697 34.712 51.9897 34.6 52.0697 34.536C52.1497 34.472 52.2257 34.44 52.2977 34.44C52.4337 34.44 52.5017 34.508 52.5017 34.644C52.5017 34.74 52.4697 34.82 52.4057 34.884C52.0857 35.172 51.6697 35.516 51.1577 35.916C50.7577 38.012 50.3977 39.376 50.0777 40.008C49.9017 40.36 49.6417 40.64 49.2977 40.848C49.1217 40.952 48.9177 41.004 48.6857 41.004ZM48.6857 40.428C48.9657 40.428 49.2177 40.248 49.4417 39.888C49.5937 39.648 49.7577 39.264 49.9337 38.736L50.0897 38.148L50.2097 37.68L50.4857 36.456L50.2817 36.636C50.0017 36.876 49.7257 37.104 49.4537 37.32C48.4857 38.104 48.0017 38.852 48.0017 39.564C48.0017 39.892 48.1097 40.144 48.3257 40.32C48.4057 40.392 48.5257 40.428 48.6857 40.428ZM53.9168 40.92C53.5328 40.92 53.2088 40.788 52.9448 40.524C52.6888 40.268 52.5608 39.94 52.5608 39.54C52.5608 39.172 52.6448 38.82 52.8128 38.484C52.9888 38.156 53.2408 37.816 53.5688 37.464C53.8488 37.16 54.1848 36.844 54.5768 36.516L55.7048 35.58C55.7608 35.38 55.8088 35.168 55.8488 34.944C55.9368 34.592 56.0048 34.304 56.0528 34.08C55.7488 35.032 55.3568 35.656 54.8768 35.952C54.7248 36.048 54.5768 36.096 54.4328 36.096C54.1528 36.096 53.9208 35.984 53.7368 35.76C53.5608 35.536 53.4728 35.24 53.4728 34.872C53.4728 34.176 53.6048 33.448 53.8688 32.688C54.1328 31.92 54.4848 31.264 54.9248 30.72C55.3808 30.168 55.8768 29.892 56.4128 29.892C56.6688 29.892 56.9128 29.956 57.1448 30.084C57.1928 30.06 57.2448 30.048 57.3008 30.048C57.4368 30.048 57.5048 30.112 57.5048 30.24C57.5048 30.376 57.4808 30.504 57.4328 30.624C57.2088 31.208 56.8328 32.728 56.3048 35.184C56.4328 35.104 56.5808 34.988 56.7488 34.836C56.7888 34.804 56.8608 34.744 56.9648 34.656C57.0688 34.56 57.1528 34.492 57.2168 34.452C57.2808 34.412 57.3368 34.392 57.3848 34.392C57.5208 34.392 57.5888 34.46 57.5888 34.596C57.5888 34.7 57.5608 34.78 57.5048 34.836C57.0088 35.212 56.5848 35.524 56.2328 35.772L56.0408 36.9L55.9808 37.2C55.8848 37.704 55.8008 38.124 55.7288 38.46C55.6568 38.804 55.5688 39.132 55.4648 39.444C55.3128 39.884 55.1048 40.24 54.8408 40.512C54.5848 40.784 54.2768 40.92 53.9168 40.92ZM54.4688 35.52C54.6288 35.52 54.8128 35.412 55.0208 35.196C55.2288 34.972 55.4288 34.684 55.6208 34.332C55.8208 33.972 55.9808 33.596 56.1008 33.204C56.2848 32.636 56.4408 32.112 56.5688 31.632C56.6488 31.352 56.7488 30.984 56.8688 30.528C56.7568 30.424 56.6048 30.372 56.4128 30.372C56.0688 30.372 55.7088 30.6 55.3328 31.056C54.9648 31.512 54.6528 32.088 54.3968 32.784C54.1488 33.472 54.0248 34.1 54.0248 34.668C54.0248 35.236 54.1728 35.52 54.4688 35.52ZM53.8088 40.32C53.9768 40.32 54.1288 40.28 54.2648 40.2C54.4008 40.128 54.5288 40 54.6488 39.816C54.7688 39.624 54.8888 39.356 55.0088 39.012C55.1288 38.668 55.2248 38.316 55.2968 37.956C55.3608 37.684 55.4128 37.436 55.4528 37.212L55.5008 36.948C55.5088 36.884 55.5208 36.816 55.5368 36.744C55.5528 36.672 55.5648 36.596 55.5728 36.516L55.6088 36.228C54.8248 36.876 54.2168 37.464 53.7848 37.992C53.3608 38.52 53.1488 38.992 53.1488 39.408C53.1488 39.848 53.2448 40.128 53.4368 40.248C53.5168 40.296 53.6408 40.32 53.8088 40.32ZM62.5686 36.024C62.3846 36.024 62.2126 35.928 62.0526 35.736C61.9006 35.536 61.8246 35.324 61.8246 35.1C61.8246 34.604 61.9566 33.764 62.2206 32.58C62.0206 33.012 61.7606 33.456 61.4406 33.912C61.1286 34.36 60.8206 34.756 60.5166 35.1C60.2126 35.444 59.9886 35.668 59.8446 35.772C59.6446 35.924 59.4246 36 59.1846 36C58.7286 36 58.5006 35.712 58.5006 35.136C58.5006 34.576 58.7126 33.88 59.1366 33.048C59.5606 32.208 60.0646 31.48 60.6486 30.864C61.2326 30.256 61.7046 29.952 62.0646 29.952C62.4326 29.952 62.6406 30.112 62.6886 30.432C62.7126 30.528 62.7246 30.632 62.7246 30.744C62.7646 30.72 62.8086 30.708 62.8566 30.708C63.0406 30.708 63.1326 30.796 63.1326 30.972V31.02L62.9886 31.548C62.8766 31.948 62.7606 32.54 62.6406 33.324C62.5206 34.108 62.4606 34.76 62.4606 35.28L62.5806 35.352C62.7726 35.472 62.8686 35.592 62.8686 35.712C62.8686 35.792 62.8406 35.864 62.7846 35.928C62.7286 35.992 62.6566 36.024 62.5686 36.024ZM59.2806 35.376C59.3686 35.376 59.4406 35.348 59.4966 35.292C60.3126 34.596 61.0366 33.632 61.6686 32.4C62.0286 31.72 62.2246 31.316 62.2566 31.188C62.2726 31.044 62.2806 30.956 62.2806 30.924C62.2806 30.844 62.2606 30.772 62.2206 30.708C62.1806 30.644 62.1286 30.612 62.0646 30.612C61.9846 30.612 61.8806 30.648 61.7526 30.72C61.4326 30.888 61.0526 31.244 60.6126 31.788C60.1806 32.332 59.8246 32.908 59.5446 33.516C59.2486 34.132 59.1006 34.68 59.1006 35.16C59.1006 35.304 59.1606 35.376 59.2806 35.376ZM69.7924 38.592C69.2164 38.592 68.7684 38.204 68.4484 37.428C68.4404 37.412 68.4364 37.364 68.4364 37.284C68.4364 37.212 68.4644 37.14 68.5204 37.068C68.5844 36.996 68.6564 36.96 68.7364 36.96C68.8164 36.96 68.8844 37.004 68.9404 37.092C69.1884 37.724 69.5004 38.04 69.8764 38.04C70.5484 38.04 71.0564 37.428 71.4004 36.204C71.5124 35.788 71.5764 35.388 71.5924 35.004L71.2084 35.352C70.9844 35.576 70.7924 35.76 70.6324 35.904C70.4724 36.04 70.3484 36.108 70.2604 36.108C70.1004 36.108 70.0204 36.032 70.0204 35.88C70.0204 35.84 70.0324 35.784 70.0564 35.712C70.0884 35.616 70.1804 35.284 70.3324 34.716C70.3884 34.484 70.4484 34.248 70.5124 34.008L70.6924 33.3L70.7644 32.976C70.7964 32.88 70.8204 32.788 70.8364 32.7L70.9444 32.28C70.5124 33.384 70.0404 34.292 69.5284 35.004C69.0164 35.732 68.5764 36.096 68.2084 36.096C67.9364 36.096 67.7164 36.004 67.5484 35.82C67.3804 35.636 67.2964 35.376 67.2964 35.04C67.2964 34.856 67.3244 34.648 67.3804 34.416L67.5604 33.636C67.7364 32.692 67.8924 31.964 68.0284 31.452C68.1004 31.164 68.1484 30.948 68.1724 30.804C68.2044 30.564 68.2444 30.368 68.2924 30.216C68.3404 30.056 68.4284 29.976 68.5564 29.976C68.7324 29.976 68.8204 30.072 68.8204 30.264C68.8204 30.472 68.7804 30.78 68.7004 31.188C68.6364 31.564 68.4844 32.26 68.2444 33.276C68.0204 34.228 67.9084 34.8 67.9084 34.992C67.9084 35.32 68.0484 35.484 68.3284 35.484C68.9844 35.484 69.9004 33.924 71.0764 30.804C71.2284 30.436 71.3364 30.2 71.4004 30.096C71.4884 29.992 71.5764 29.94 71.6644 29.94C71.8564 29.94 71.9524 30.024 71.9524 30.192C71.9524 30.32 71.9244 30.444 71.8684 30.564C71.6444 31.14 71.4164 32.096 71.1844 33.432C71.0724 34.04 70.9604 34.576 70.8484 35.04C71.2164 34.768 71.4764 34.556 71.6284 34.404L71.8924 34.128C71.9164 34.104 71.9524 34.092 72.0004 34.092C72.1124 34.092 72.1804 34.16 72.2044 34.296C72.1964 34.96 72.0964 35.62 71.9044 36.276C71.7204 36.94 71.4484 37.492 71.0884 37.932C70.7284 38.372 70.2964 38.592 69.7924 38.592ZM76.5275 36.12C76.4395 36.12 76.3435 36.048 76.2395 35.904C76.1435 35.752 76.0955 35.62 76.0955 35.508V35.304C76.0955 35.056 76.2675 34.308 76.6115 33.06L76.7675 32.4L76.4435 33.084C76.3395 33.348 76.1715 33.72 75.9395 34.2C75.3475 35.464 74.7155 36.096 74.0435 36.096C73.6435 36.096 73.3715 35.876 73.2275 35.436C73.1875 35.292 73.1675 35.112 73.1675 34.896C73.1675 34.448 73.2515 33.876 73.4195 33.18C73.5155 32.78 73.5955 32.484 73.6595 32.292L73.7555 31.98C73.8435 31.676 73.9315 31.356 74.0195 31.02C74.1155 30.676 74.1675 30.416 74.1755 30.24C74.1995 30.16 74.2435 30.092 74.3075 30.036C74.3795 29.98 74.4555 29.952 74.5355 29.952C74.6155 29.952 74.6795 30.056 74.7275 30.264C74.7275 30.472 74.6875 30.728 74.6075 31.032C74.5275 31.328 74.4475 31.592 74.3675 31.824C74.2955 32.056 74.2515 32.204 74.2355 32.268C73.9075 33.3 73.7435 34.196 73.7435 34.956C73.7435 35.196 73.8355 35.364 74.0195 35.46C74.0835 35.492 74.1715 35.508 74.2835 35.508C74.5075 35.508 74.7755 35.284 75.0875 34.836C75.3755 34.42 75.6675 33.9 75.9635 33.276C76.2595 32.652 76.4995 32.084 76.6835 31.572C76.8755 31.02 77.0355 30.616 77.1635 30.36C77.2915 30.104 77.4315 29.976 77.5835 29.976C77.7195 29.976 77.7875 30.044 77.7875 30.18C77.7875 30.284 77.7235 30.568 77.5955 31.032C77.4755 31.424 77.3955 31.704 77.3555 31.872C77.3155 32.032 77.2675 32.26 77.2115 32.556L76.9235 34.188L76.7915 34.872C76.7835 34.944 76.7635 35.052 76.7315 35.196C76.7315 35.348 76.7555 35.448 76.8035 35.496L76.9115 35.64C76.9355 35.664 76.9475 35.716 76.9475 35.796C76.9475 35.876 76.8995 35.948 76.8035 36.012C76.7155 36.084 76.6235 36.12 76.5275 36.12ZM78.9873 36.12C78.8593 36.12 78.7873 36.036 78.7713 35.868L78.9033 35.112C78.9833 34.6 79.0793 34.044 79.1913 33.444L79.2633 33.012C79.4393 31.996 79.5473 31.404 79.5873 31.236C79.6753 30.828 79.7353 30.484 79.7673 30.204C79.7913 30.124 79.8353 30.056 79.8993 30C79.9713 29.944 80.0433 29.916 80.1153 29.916C80.2113 29.916 80.2793 29.984 80.3193 30.12C80.3193 30.248 80.3033 30.392 80.2713 30.552C80.2393 30.656 80.1993 30.876 80.1513 31.212L79.9473 32.28C80.8433 31.032 81.6033 30.26 82.2273 29.964C82.3713 29.892 82.5153 29.856 82.6593 29.856C82.7953 29.856 82.9433 29.956 83.1033 30.156C83.2713 30.356 83.3553 30.532 83.3553 30.684C83.3553 30.812 83.3233 30.912 83.2593 30.984C83.1953 31.056 83.1193 31.092 83.0313 31.092C82.9113 31.092 82.8033 30.98 82.7073 30.756C82.6993 30.74 82.6793 30.7 82.6473 30.636C82.6233 30.564 82.5953 30.512 82.5633 30.48C82.5393 30.44 82.5113 30.42 82.4793 30.42C82.4233 30.42 82.3113 30.468 82.1433 30.564C81.9833 30.652 81.7233 30.888 81.3633 31.272C81.0113 31.648 80.7393 31.968 80.5473 32.232C80.6193 32.984 80.7713 33.648 81.0033 34.224C81.2353 34.8 81.4873 35.192 81.7593 35.4C81.9033 35.504 82.0393 35.556 82.1673 35.556C82.3033 35.556 82.4113 35.52 82.4913 35.448C82.5793 35.376 82.6473 35.26 82.6953 35.1C82.7593 34.94 82.8113 34.856 82.8513 34.848C82.8753 34.832 82.9193 34.824 82.9833 34.824C83.0313 34.824 83.0873 34.852 83.1513 34.908C83.2073 34.964 83.2353 35.068 83.2353 35.22C83.2353 35.38 83.1673 35.532 83.0313 35.676C82.7673 35.972 82.5033 36.12 82.2393 36.12C81.4713 36.12 80.8753 35.488 80.4513 34.224C80.2673 33.696 80.1513 33.244 80.1033 32.868C80.0793 32.9 79.9913 33.052 79.8393 33.324L79.6953 33.588C79.5673 34.284 79.4433 35.016 79.3233 35.784C79.3153 35.872 79.2753 35.948 79.2033 36.012C79.1313 36.084 79.0593 36.12 78.9873 36.12ZM84.5194 36.144C84.2314 36.144 84.0034 36.076 83.8354 35.94C83.6674 35.796 83.5314 35.56 83.4274 35.232C83.4114 35.208 83.4034 35.156 83.4034 35.076C83.4034 35.004 83.4354 34.936 83.4994 34.872C83.5634 34.8 83.6354 34.764 83.7154 34.764C83.7874 34.764 83.8554 34.808 83.9194 34.896C83.9194 35.384 84.1514 35.628 84.6154 35.628C84.9594 35.628 85.3034 35.456 85.6474 35.112C85.9914 34.76 86.3074 34.3 86.5954 33.732C86.8514 33.236 87.0394 32.784 87.1594 32.376L87.2554 32.064C87.3434 31.768 87.4354 31.472 87.5314 31.176C87.6354 30.872 87.7394 30.612 87.8434 30.396C87.9794 30.116 88.1154 29.976 88.2514 29.976C88.3954 29.976 88.4674 30.052 88.4674 30.204C88.4674 30.34 88.3914 30.624 88.2394 31.056C88.0714 31.56 87.9314 32.16 87.8194 32.856C87.7074 33.544 87.6514 34.232 87.6514 34.92C87.6514 35.312 87.7314 35.532 87.8914 35.58L88.0354 35.592C88.1554 35.592 88.2594 35.564 88.3474 35.508C88.3714 35.5 88.4274 35.46 88.5154 35.388C88.5314 35.372 88.5954 35.32 88.7074 35.232C88.8194 35.136 88.9154 35.088 88.9954 35.088C89.1394 35.088 89.2114 35.164 89.2114 35.316C89.2114 35.412 89.1394 35.524 88.9954 35.652C88.8514 35.78 88.6794 35.888 88.4794 35.976C88.2794 36.064 88.0954 36.108 87.9274 36.108C87.4154 36.108 87.1594 35.552 87.1594 34.44C87.1594 34.224 87.1794 33.928 87.2194 33.552C86.9314 34.296 86.5314 34.916 86.0194 35.412C85.5154 35.9 85.0154 36.144 84.5194 36.144ZM94.1858 36.024C94.0018 36.024 93.8298 35.928 93.6698 35.736C93.5178 35.536 93.4418 35.324 93.4418 35.1C93.4418 34.604 93.5738 33.764 93.8378 32.58C93.6378 33.012 93.3778 33.456 93.0578 33.912C92.7458 34.36 92.4378 34.756 92.1338 35.1C91.8298 35.444 91.6058 35.668 91.4618 35.772C91.2618 35.924 91.0418 36 90.8018 36C90.3458 36 90.1178 35.712 90.1178 35.136C90.1178 34.576 90.3298 33.88 90.7538 33.048C91.1778 32.208 91.6818 31.48 92.2658 30.864C92.8498 30.256 93.3218 29.952 93.6818 29.952C94.0498 29.952 94.2578 30.112 94.3058 30.432C94.3298 30.528 94.3418 30.632 94.3418 30.744C94.3818 30.72 94.4258 30.708 94.4738 30.708C94.6578 30.708 94.7498 30.796 94.7498 30.972V31.02L94.6058 31.548C94.4938 31.948 94.3778 32.54 94.2578 33.324C94.1378 34.108 94.0778 34.76 94.0778 35.28L94.1978 35.352C94.3898 35.472 94.4858 35.592 94.4858 35.712C94.4858 35.792 94.4578 35.864 94.4018 35.928C94.3458 35.992 94.2738 36.024 94.1858 36.024ZM90.8978 35.376C90.9858 35.376 91.0578 35.348 91.1138 35.292C91.9298 34.596 92.6538 33.632 93.2858 32.4C93.6458 31.72 93.8418 31.316 93.8738 31.188C93.8898 31.044 93.8978 30.956 93.8978 30.924C93.8978 30.844 93.8778 30.772 93.8378 30.708C93.7978 30.644 93.7458 30.612 93.6818 30.612C93.6018 30.612 93.4978 30.648 93.3698 30.72C93.0498 30.888 92.6698 31.244 92.2298 31.788C91.7978 32.332 91.4418 32.908 91.1618 33.516C90.8658 34.132 90.7178 34.68 90.7178 35.16C90.7178 35.304 90.7778 35.376 90.8978 35.376Z" fill="#6D6F72"/>
</svg>
