<svg width="306" height="133" viewBox="0 0 306 133" fill="none" xmlns="http://www.w3.org/2000/svg">
<path d="M260 44.5233L252.267 39.8998C244.533 35.2763 229.067 26.0292 213.6 23.0608C198.133 20.0924 182.667 23.4027 167.2 32.3744C151.733 41.346 136.267 55.9792 120.8 74.027C105.333 92.0748 89.8667 113.537 74.4 123.571C58.9333 133.604 43.4667 132.209 35.7333 131.511L28 130.813" stroke="#C6C8CC" stroke-linecap="round" stroke-dasharray="8 8"/>
<path d="M305 44.5233L297.267 39.8998C289.533 35.2763 274.067 26.0292 258.6 23.0608C243.133 20.0924 227.667 23.4027 212.2 32.3744C196.733 41.346 181.267 55.9792 165.8 74.027C150.333 92.0748 134.867 113.537 119.4 123.571C103.933 133.604 88.4667 132.209 80.7333 131.511L73 130.813" stroke="#6D6F72" stroke-linecap="round"/>
<circle cx="181.5" cy="25.5" r="3.5" fill="#C6C8CC"/>
<circle cx="131.5" cy="62.5" r="3.5" fill="#C6C8CC"/>
<circle cx="87.5" cy="112.5" r="3.5" fill="#C6C8CC"/>
<path d="M138.354 101.646C138.549 101.842 138.549 102.158 138.354 102.354L135.172 105.536C134.976 105.731 134.66 105.731 134.464 105.536C134.269 105.34 134.269 105.024 134.464 104.828L137.293 102L134.464 99.1716C134.269 98.9763 134.269 98.6597 134.464 98.4645C134.66 98.2692 134.976 98.2692 135.172 98.4645L138.354 101.646ZM127.872 102L127.872 102.5L127.867 102.5L127.872 102ZM108 101.8L107.99 101.3L107.998 101.3L108.005 101.3L108 101.8ZM97.99 101.5L107.99 101.3L108.01 102.3L98.01 102.5L97.99 101.5ZM127.872 101.5L138 101.5L138 102.5L127.872 102.5L127.872 101.5ZM108.005 101.3L127.877 101.5L127.867 102.5L107.995 102.3L108.005 101.3Z" fill="#C6C8CC"/>
<path d="M161.354 73.8464C161.549 74.0417 161.549 74.3582 161.354 74.5535L158.172 77.7355C157.976 77.9307 157.66 77.9307 157.464 77.7355C157.269 77.5402 157.269 77.2236 157.464 77.0284L160.293 74.1999L157.464 71.3715C157.269 71.1763 157.269 70.8597 157.464 70.6644C157.66 70.4692 157.976 70.4692 158.172 70.6644L161.354 73.8464ZM150.872 74.1999L150.872 74.7L150.867 74.6999L150.872 74.1999ZM131 74L130.99 73.5001L130.998 73.4999L131.005 73.5L131 74ZM120.99 73.7L130.99 73.5001L131.01 74.4999L121.01 74.6998L120.99 73.7ZM150.872 73.6999L161 73.6999L161 74.6999L150.872 74.6999L150.872 73.6999ZM131.005 73.5L150.877 73.7L150.867 74.6999L130.995 74.4999L131.005 73.5Z" fill="#C6C8CC"/>
<path d="M194.354 40.8464C194.549 41.0417 194.549 41.3582 194.354 41.5535L191.172 44.7355C190.976 44.9307 190.66 44.9307 190.464 44.7355C190.269 44.5402 190.269 44.2236 190.464 44.0284L193.293 41.1999L190.464 38.3715C190.269 38.1763 190.269 37.8597 190.464 37.6644C190.66 37.4692 190.976 37.4692 191.172 37.6644L194.354 40.8464ZM183.872 41.1999L183.872 41.7L183.867 41.6999L183.872 41.1999ZM164 41L163.99 40.5001L163.998 40.4999L164.005 40.5L164 41ZM153.99 40.7L163.99 40.5001L164.01 41.4999L154.01 41.6998L153.99 40.7ZM183.872 40.6999L194 40.6999L194 41.6999L183.872 41.6999L183.872 40.6999ZM164.005 40.5L183.877 40.7L183.867 41.6999L163.995 41.4999L164.005 40.5Z" fill="#C6C8CC"/>
<path d="M89.772 13.18C89.452 13.18 89.148 13.096 88.86 12.928C88.244 12.576 87.804 11.956 87.54 11.068C87.412 10.636 87.348 10.208 87.348 9.784C87.348 9.096 87.456 8.292 87.672 7.372C87.888 6.444 88.192 5.52 88.584 4.6C89 3.616 89.484 2.824 90.036 2.224C90.596 1.616 91.176 1.312 91.776 1.312C92.176 1.312 92.544 1.432 92.88 1.672C93.224 1.912 93.496 2.22 93.696 2.596C93.896 2.964 93.996 3.328 93.996 3.688C93.988 3.768 93.948 3.844 93.876 3.916C93.804 3.988 93.732 4.024 93.66 4.024C93.588 4.024 93.536 4 93.504 3.952C93.456 3.88 93.42 3.752 93.396 3.568C93.332 3.064 93.152 2.66 92.856 2.356C92.56 2.044 92.196 1.888 91.764 1.888C91.332 1.888 90.868 2.184 90.372 2.776C89.956 3.272 89.56 3.94 89.184 4.78C88.816 5.62 88.52 6.476 88.296 7.348C88.072 8.212 87.96 8.924 87.96 9.484C87.96 10.372 88.124 11.112 88.452 11.704C88.78 12.296 89.252 12.592 89.868 12.592C90.348 12.592 90.896 12.368 91.512 11.92L91.932 11.62C92.02 11.54 92.104 11.5 92.184 11.5C92.32 11.5 92.388 11.572 92.388 11.716C92.388 11.828 92.328 11.928 92.208 12.016C91.984 12.168 91.8 12.3 91.656 12.412C90.976 12.924 90.348 13.18 89.772 13.18ZM95.8851 13.108C95.4691 13.108 95.1571 12.944 94.9491 12.616C94.7491 12.288 94.6491 11.896 94.6491 11.44C94.6491 10.712 94.7691 10.008 95.0091 9.328C95.2571 8.64 95.5931 8.072 96.0171 7.624C96.4251 7.168 96.8851 6.94 97.3971 6.94C98.1331 6.94 98.5011 7.5 98.5011 8.62C98.5011 9.18 98.4091 9.752 98.2251 10.336C98.0411 10.92 97.8011 11.44 97.5051 11.896C97.2171 12.352 96.9171 12.68 96.6051 12.88C96.3651 13.032 96.1251 13.108 95.8851 13.108ZM95.9811 12.568C96.2291 12.568 96.5051 12.352 96.8091 11.92C97.1211 11.488 97.3811 10.952 97.5891 10.312C97.8051 9.672 97.9131 9.128 97.9131 8.68C97.9131 8.216 97.8851 7.928 97.8291 7.816C97.7811 7.696 97.7211 7.612 97.6491 7.564C97.5771 7.516 97.4651 7.492 97.3131 7.492C97.1451 7.492 96.9691 7.556 96.7851 7.684C96.4171 7.916 96.0971 8.316 95.8251 8.884C95.4011 9.732 95.1891 10.556 95.1891 11.356C95.1891 11.9 95.3451 12.276 95.6571 12.484C95.7691 12.54 95.8771 12.568 95.9811 12.568ZM100.431 13.144C99.6954 13.144 99.3274 12.692 99.3274 11.788C99.3274 11.1 99.3994 10.44 99.5434 9.808C99.6954 9.168 99.8914 8.612 100.131 8.14C100.379 7.668 100.647 7.328 100.935 7.12C101.159 6.96 101.367 6.88 101.559 6.88C101.927 6.88 102.187 6.956 102.339 7.108C102.251 6.828 102.123 6.54 101.955 6.244C101.771 5.94 101.619 5.664 101.499 5.416C101.131 4.736 100.947 4.08 100.947 3.448C100.947 3.04 101.027 2.68 101.187 2.368C101.355 2.048 101.579 1.8 101.859 1.624C102.139 1.44 102.455 1.348 102.807 1.348C103.127 1.348 103.419 1.392 103.683 1.48C104.019 1.576 104.267 1.64 104.427 1.672C104.595 1.704 104.795 1.72 105.027 1.72C105.427 1.72 105.743 1.676 105.975 1.588C105.975 1.588 106.059 1.56 106.227 1.504C106.291 1.48 106.371 1.468 106.467 1.468C106.611 1.468 106.683 1.528 106.683 1.648C106.683 1.824 106.535 1.972 106.239 2.092C105.943 2.212 105.619 2.272 105.267 2.272C104.971 2.272 104.743 2.26 104.583 2.236C104.423 2.204 104.139 2.132 103.731 2.02C103.379 1.932 103.011 1.888 102.627 1.888C102.267 1.888 101.991 2.044 101.799 2.356C101.607 2.668 101.511 3.036 101.511 3.46C101.511 3.844 101.563 4.188 101.667 4.492C101.771 4.788 101.979 5.2 102.291 5.728C102.803 6.576 103.059 7.312 103.059 7.936L102.999 8.476V8.5C102.999 9.124 102.907 9.74 102.723 10.348C102.547 10.956 102.315 11.488 102.027 11.944C101.747 12.4 101.455 12.728 101.151 12.928C100.927 13.072 100.687 13.144 100.431 13.144ZM100.419 12.556C100.627 12.556 100.819 12.488 100.995 12.352C101.171 12.208 101.339 12.004 101.499 11.74C101.779 11.252 102.007 10.672 102.183 10C102.359 9.36 102.447 8.796 102.447 8.308C102.447 8.044 102.379 7.844 102.243 7.708C102.107 7.572 101.927 7.504 101.703 7.504C101.495 7.504 101.319 7.564 101.175 7.684C101.039 7.804 100.871 8.02 100.671 8.332C100.471 8.652 100.283 9.12 100.107 9.736C99.9394 10.344 99.8554 10.86 99.8554 11.284C99.8554 11.732 99.8954 12.056 99.9754 12.256C100.055 12.456 100.203 12.556 100.419 12.556ZM109.787 13.144C109.547 13.144 109.379 13.064 109.283 12.904C109.195 12.744 109.151 12.472 109.151 12.088C109.151 11.432 109.311 10.596 109.631 9.58C109.143 9.964 108.583 10.156 107.951 10.156C107.735 10.156 107.567 10.148 107.447 10.132L107.483 10.408C107.483 10.8 107.379 11.2 107.171 11.608C106.971 12.008 106.703 12.344 106.367 12.616C106.039 12.88 105.699 13.012 105.347 13.012C104.755 13.012 104.459 12.636 104.459 11.884C104.459 10.948 104.643 9.98 105.011 8.98C105.179 8.508 105.295 8.152 105.359 7.912C105.423 7.672 105.467 7.42 105.491 7.156C105.515 7.076 105.559 7.008 105.623 6.952C105.695 6.896 105.767 6.868 105.839 6.868C105.935 6.868 106.003 6.936 106.043 7.072C106.011 7.408 105.947 7.74 105.851 8.068C105.763 8.396 105.635 8.816 105.467 9.328C105.155 10.312 104.999 11.1 104.999 11.692C104.999 12.02 105.067 12.252 105.203 12.388C105.251 12.444 105.351 12.472 105.503 12.472C105.647 12.472 105.811 12.408 105.995 12.28C106.179 12.152 106.339 11.988 106.475 11.788C106.779 11.364 106.931 10.9 106.931 10.396C106.931 10.276 106.919 10.164 106.895 10.06C106.343 9.948 106.067 9.764 106.067 9.508C106.067 9.364 106.135 9.24 106.271 9.136C106.415 9.032 106.555 8.98 106.691 8.98C106.931 8.98 107.135 9.184 107.303 9.592C107.431 9.624 107.595 9.64 107.795 9.64C108.267 9.64 108.695 9.524 109.079 9.292C109.463 9.06 109.783 8.736 110.039 8.32C110.095 8.152 110.135 8.012 110.159 7.9C110.327 7.252 110.547 6.928 110.819 6.928C110.963 6.928 111.035 7.028 111.035 7.228C110.891 7.724 110.707 8.168 110.483 8.56C109.971 10.048 109.715 11.18 109.715 11.956C109.715 12.388 109.771 12.604 109.883 12.604C109.987 12.604 110.079 12.576 110.159 12.52C110.247 12.456 110.347 12.368 110.459 12.256C110.563 12.144 110.651 12.06 110.723 12.004C110.795 11.94 110.859 11.908 110.915 11.908C111.067 11.908 111.143 11.976 111.143 12.112C111.143 12.184 111.111 12.264 111.047 12.352L110.735 12.64C110.567 12.808 110.419 12.932 110.291 13.012C110.171 13.1 110.003 13.144 109.787 13.144ZM112.044 7.624C111.948 7.624 111.864 7.596 111.792 7.54C111.728 7.484 111.696 7.424 111.696 7.36C111.696 7.304 111.724 7.256 111.78 7.216C112.452 6.928 113.292 6.784 114.3 6.784C114.732 6.784 115.088 6.8 115.368 6.832C115.64 6.872 115.876 6.9 116.076 6.916C116.244 6.94 116.344 6.968 116.376 7C116.408 7.04 116.424 7.096 116.424 7.168C116.424 7.24 116.384 7.312 116.304 7.384C116.224 7.448 116.124 7.48 116.004 7.48C115.868 7.48 115.64 7.444 115.32 7.372C114.984 7.308 114.664 7.276 114.36 7.276C113.544 7.276 112.804 7.388 112.14 7.612L112.092 7.624H112.044ZM112.668 13.18C112.532 13.18 112.464 13.1 112.464 12.94C112.464 12.86 112.492 12.784 112.548 12.712C112.62 12.52 112.692 12.26 112.764 11.932C112.86 11.524 112.924 11.272 112.956 11.176L113.076 10.564L113.208 9.796C113.344 9.012 113.472 8.448 113.592 8.104C113.72 7.76 113.892 7.588 114.108 7.588C114.188 7.588 114.252 7.64 114.3 7.744L114.456 8.152C114.456 8.32 114.396 8.448 114.276 8.536C114.244 8.56 114.204 8.572 114.156 8.572C114.108 8.572 114.064 8.548 114.024 8.5C113.84 9.18 113.728 9.676 113.688 9.988C113.608 10.508 113.54 10.908 113.484 11.188C113.452 11.276 113.416 11.404 113.376 11.572L113.268 11.968C113.06 12.776 112.86 13.18 112.668 13.18ZM119.492 13.12C119.404 13.12 119.308 13.048 119.204 12.904C119.108 12.752 119.06 12.62 119.06 12.508V12.304C119.06 12.056 119.232 11.308 119.576 10.06L119.732 9.4L119.408 10.084C119.304 10.348 119.136 10.72 118.904 11.2C118.312 12.464 117.68 13.096 117.008 13.096C116.608 13.096 116.336 12.876 116.192 12.436C116.152 12.292 116.132 12.112 116.132 11.896C116.132 11.448 116.216 10.876 116.384 10.18C116.48 9.78 116.56 9.484 116.624 9.292L116.72 8.98C116.808 8.676 116.896 8.356 116.984 8.02C117.08 7.676 117.132 7.416 117.14 7.24C117.164 7.16 117.208 7.092 117.272 7.036C117.344 6.98 117.42 6.952 117.5 6.952C117.58 6.952 117.644 7.056 117.692 7.264C117.692 7.472 117.652 7.728 117.572 8.032C117.492 8.328 117.412 8.592 117.332 8.824C117.26 9.056 117.216 9.204 117.2 9.268C116.872 10.3 116.708 11.196 116.708 11.956C116.708 12.196 116.8 12.364 116.984 12.46C117.048 12.492 117.136 12.508 117.248 12.508C117.472 12.508 117.74 12.284 118.052 11.836C118.34 11.42 118.632 10.9 118.928 10.276C119.224 9.652 119.464 9.084 119.648 8.572C119.84 8.02 120 7.616 120.128 7.36C120.256 7.104 120.396 6.976 120.548 6.976C120.684 6.976 120.752 7.044 120.752 7.18C120.752 7.284 120.688 7.568 120.56 8.032C120.44 8.424 120.36 8.704 120.32 8.872C120.28 9.032 120.232 9.26 120.176 9.556L119.888 11.188L119.756 11.872C119.748 11.944 119.728 12.052 119.696 12.196C119.696 12.348 119.72 12.448 119.768 12.496L119.876 12.64C119.9 12.664 119.912 12.716 119.912 12.796C119.912 12.876 119.864 12.948 119.768 13.012C119.68 13.084 119.588 13.12 119.492 13.12ZM122.873 13.12C122.617 13.12 122.417 13.08 122.273 13C122.129 12.912 122.013 12.78 121.925 12.604C121.757 12.292 121.673 11.916 121.673 11.476C121.673 10.708 121.789 9.98 122.021 9.292C122.253 8.596 122.569 8.012 122.969 7.54C123.353 7.092 123.773 6.868 124.229 6.868C124.469 6.868 124.657 6.968 124.793 7.168C124.937 7.36 125.009 7.596 125.009 7.876C125.009 8.364 124.881 8.788 124.625 9.148C124.377 9.508 124.041 9.808 123.617 10.048C123.249 10.264 122.801 10.48 122.273 10.696L122.249 11.56C122.249 12.232 122.453 12.568 122.861 12.568C123.045 12.568 123.237 12.524 123.437 12.436C123.637 12.34 123.845 12.228 124.061 12.1C124.165 12.044 124.249 12.016 124.313 12.016C124.449 12.016 124.517 12.088 124.517 12.232C124.517 12.336 124.417 12.46 124.217 12.604C124.025 12.748 123.797 12.872 123.533 12.976C123.269 13.072 123.049 13.12 122.873 13.12ZM122.369 10.12C122.441 10.08 122.601 9.996 122.849 9.868C122.961 9.82 123.121 9.74 123.329 9.628C123.705 9.42 123.985 9.18 124.169 8.908C124.361 8.636 124.457 8.3 124.457 7.9C124.457 7.588 124.325 7.432 124.061 7.432C123.829 7.432 123.557 7.644 123.245 8.068C122.917 8.492 122.653 9.048 122.453 9.736C122.397 9.928 122.369 10.056 122.369 10.12ZM129.797 13.12C129.637 13.12 129.485 13.036 129.341 12.868C129.205 12.7 129.093 12.476 129.005 12.196C128.925 11.916 128.885 11.62 128.885 11.308C128.885 10.924 128.901 10.532 128.933 10.132C128.813 10.116 128.753 10.048 128.753 9.928C128.753 9.904 128.761 9.86 128.777 9.796L129.017 9.376C129.193 8.128 129.545 6.492 130.073 4.468C130.449 3.108 130.893 2.164 131.405 1.636C131.573 1.46 131.733 1.372 131.885 1.372C132.437 1.372 132.713 1.708 132.713 2.38C132.713 3.22 132.341 4.18 131.597 5.26C131.389 5.572 131.101 5.992 130.733 6.52C130.349 7.064 130.057 7.56 129.857 8.008C129.817 8.096 129.761 8.156 129.689 8.188L129.653 8.416C130.429 7.424 131.129 6.928 131.753 6.928C132.001 6.928 132.177 7.06 132.281 7.324C132.385 7.58 132.437 7.88 132.437 8.224C132.437 8.784 132.313 9.456 132.065 10.24C131.825 11.016 131.529 11.66 131.177 12.172C130.729 12.804 130.269 13.12 129.797 13.12ZM130.373 6.232C130.597 5.896 130.749 5.664 130.829 5.536L131.033 5.236C131.761 4.1 132.125 3.224 132.125 2.608C132.125 2.408 132.113 2.26 132.089 2.164C132.065 2.06 132.005 2.008 131.909 2.008C131.733 2.008 131.525 2.248 131.285 2.728C130.813 3.664 130.365 5.06 129.941 6.916L130.373 6.232ZM129.917 12.532C130.213 12.532 130.509 12.284 130.805 11.788C131.109 11.292 131.365 10.672 131.573 9.928C131.765 9.216 131.861 8.696 131.861 8.368C131.861 8.016 131.841 7.804 131.801 7.732C131.761 7.644 131.661 7.6 131.501 7.6C131.213 7.6 130.905 7.768 130.577 8.104C130.257 8.432 129.897 8.92 129.497 9.568C129.449 10.024 129.425 10.448 129.425 10.84C129.425 11.968 129.589 12.532 129.917 12.532ZM137.531 13.156C137.331 13.156 137.147 13.092 136.979 12.964C136.811 12.836 136.675 12.668 136.571 12.46C136.475 12.252 136.427 12.044 136.427 11.836C136.451 11.756 136.495 11.688 136.559 11.632C136.631 11.576 136.699 11.548 136.763 11.548C136.827 11.548 136.875 11.576 136.907 11.632C136.947 11.696 136.995 11.836 137.051 12.052C137.131 12.396 137.295 12.568 137.543 12.568C137.863 12.568 138.159 12.404 138.431 12.076C138.703 11.748 139.015 11.28 139.367 10.672L139.547 10.372C139.827 9.916 140.007 9.648 140.087 9.568C139.991 9.232 139.915 8.98 139.859 8.812C139.579 7.86 139.259 7.384 138.899 7.384C138.627 7.384 138.395 7.516 138.203 7.78C138.179 7.82 138.127 7.84 138.047 7.84C137.903 7.84 137.831 7.772 137.831 7.636C137.831 7.444 137.955 7.268 138.203 7.108C138.451 6.948 138.695 6.868 138.935 6.868C139.175 6.868 139.367 6.924 139.511 7.036C139.655 7.14 139.763 7.276 139.835 7.444C139.915 7.612 140.007 7.872 140.111 8.224C140.119 8.264 140.151 8.376 140.207 8.56L140.543 9.592C140.735 8.576 140.859 7.972 140.915 7.78C140.987 7.484 141.027 7.272 141.035 7.144C141.059 7.064 141.103 6.996 141.167 6.94C141.239 6.884 141.311 6.856 141.383 6.856C141.479 6.856 141.547 6.924 141.587 7.06C141.587 7.228 141.563 7.384 141.515 7.528C141.491 7.6 141.435 7.856 141.347 8.296C141.299 8.616 141.243 8.912 141.179 9.184C141.811 8.328 142.411 7.692 142.979 7.276C143.307 7.036 143.567 6.916 143.759 6.916C143.879 6.916 143.999 6.964 144.119 7.06C144.239 7.156 144.339 7.268 144.419 7.396C144.499 7.524 144.539 7.636 144.539 7.732C144.539 7.868 144.507 7.972 144.443 8.044C144.387 8.116 144.315 8.152 144.227 8.152C144.155 8.152 144.095 8.124 144.047 8.068C143.999 8.004 143.951 7.92 143.903 7.816C143.887 7.784 143.863 7.736 143.831 7.672C143.807 7.608 143.779 7.56 143.747 7.528C143.723 7.496 143.695 7.48 143.663 7.48C143.607 7.48 143.511 7.52 143.375 7.6C143.247 7.672 142.991 7.9 142.607 8.284C142.231 8.668 141.939 8.98 141.731 9.22C141.755 9.996 141.871 10.7 142.079 11.332C142.231 11.804 142.451 12.152 142.739 12.376C142.859 12.488 143.011 12.544 143.195 12.544C143.523 12.544 143.867 12.308 144.227 11.836C144.291 11.772 144.371 11.74 144.467 11.74C144.611 11.74 144.683 11.804 144.683 11.932C144.683 12.068 144.603 12.232 144.443 12.424C144.283 12.608 144.091 12.768 143.867 12.904C143.643 13.04 143.447 13.108 143.279 13.108C142.815 13.108 142.427 12.892 142.115 12.46C141.707 11.892 141.423 11.024 141.263 9.856C141.151 10.024 141.071 10.16 141.023 10.264V10.276C141.007 10.372 140.975 10.44 140.927 10.48C140.743 11.456 140.603 12.224 140.507 12.784C140.491 12.88 140.447 12.96 140.375 13.024C140.311 13.088 140.243 13.12 140.171 13.12C140.051 13.12 139.979 13.036 139.955 12.868L140.399 10.408C140.367 10.368 140.347 10.324 140.339 10.276L140.279 10.132C140.135 10.332 139.967 10.588 139.775 10.9C139.639 11.124 139.475 11.376 139.283 11.656C138.867 12.24 138.447 12.68 138.023 12.976C137.855 13.096 137.691 13.156 137.531 13.156ZM148.649 13.12C148.561 13.12 148.465 13.048 148.361 12.904C148.265 12.752 148.217 12.62 148.217 12.508V12.304C148.217 12.056 148.389 11.308 148.733 10.06L148.889 9.4L148.565 10.084C148.461 10.348 148.293 10.72 148.061 11.2C147.469 12.464 146.837 13.096 146.165 13.096C145.765 13.096 145.493 12.876 145.349 12.436C145.309 12.292 145.289 12.112 145.289 11.896C145.289 11.448 145.373 10.876 145.541 10.18C145.637 9.78 145.717 9.484 145.781 9.292L145.877 8.98C145.965 8.676 146.053 8.356 146.141 8.02C146.237 7.676 146.289 7.416 146.297 7.24C146.321 7.16 146.365 7.092 146.429 7.036C146.501 6.98 146.577 6.952 146.657 6.952C146.737 6.952 146.801 7.056 146.849 7.264C146.849 7.472 146.809 7.728 146.729 8.032C146.649 8.328 146.569 8.592 146.489 8.824C146.417 9.056 146.373 9.204 146.357 9.268C146.029 10.3 145.865 11.196 145.865 11.956C145.865 12.196 145.957 12.364 146.141 12.46C146.205 12.492 146.293 12.508 146.405 12.508C146.629 12.508 146.897 12.284 147.209 11.836C147.497 11.42 147.789 10.9 148.085 10.276C148.381 9.652 148.621 9.084 148.805 8.572C148.997 8.02 149.157 7.616 149.285 7.36C149.413 7.104 149.553 6.976 149.705 6.976C149.841 6.976 149.909 7.044 149.909 7.18C149.909 7.284 149.845 7.568 149.717 8.032C149.597 8.424 149.517 8.704 149.477 8.872C149.437 9.032 149.389 9.26 149.333 9.556L149.045 11.188L148.913 11.872C148.905 11.944 148.885 12.052 148.853 12.196C148.853 12.348 148.877 12.448 148.925 12.496L149.033 12.64C149.057 12.664 149.069 12.716 149.069 12.796C149.069 12.876 149.021 12.948 148.925 13.012C148.837 13.084 148.745 13.12 148.649 13.12ZM151.312 17.92C150.816 17.92 150.448 17.776 150.208 17.488C149.968 17.2 149.848 16.828 149.848 16.372C149.848 15.948 149.972 15.536 150.22 15.136C150.468 14.736 150.82 14.336 151.276 13.936C151.732 13.536 152.34 13.056 153.1 12.496C153.132 12.048 153.148 11.752 153.148 11.608C153.148 11.312 153.104 11.08 153.016 10.912C152.928 10.736 152.768 10.644 152.536 10.636L152.368 10.756C151.8 11.156 151.372 11.356 151.084 11.356C150.98 11.356 150.904 11.332 150.856 11.284C150.808 11.236 150.784 11.176 150.784 11.104C150.784 11.04 150.832 10.956 150.928 10.852C151.056 10.716 151.248 10.576 151.504 10.432C151.76 10.28 152.052 10.176 152.38 10.12C152.86 9.696 153.196 9.34 153.388 9.052C153.588 8.756 153.688 8.404 153.688 7.996C153.688 7.804 153.64 7.664 153.544 7.576C153.448 7.488 153.276 7.444 153.028 7.444C152.756 7.444 152.524 7.472 152.332 7.528C152.148 7.584 151.924 7.708 151.66 7.9C151.388 8.1 151.208 8.2 151.12 8.2C150.976 8.2 150.904 8.116 150.904 7.948C150.904 7.868 150.968 7.764 151.096 7.636C151.232 7.508 151.4 7.388 151.6 7.276C152.096 7.02 152.572 6.892 153.028 6.892C153.468 6.892 153.776 6.98 153.952 7.156C154.128 7.332 154.216 7.604 154.216 7.972C154.216 8.772 153.844 9.508 153.1 10.18C153.5 10.356 153.7 10.828 153.7 11.596L153.676 12.088L154.588 11.44C154.652 11.408 154.708 11.392 154.756 11.392C154.892 11.392 154.96 11.464 154.96 11.608C154.96 11.68 154.928 11.76 154.864 11.848C154.696 11.96 154.592 12.028 154.552 12.052L153.616 12.712C153.488 13.672 153.308 14.572 153.076 15.412C152.852 16.26 152.66 16.82 152.5 17.092C152.34 17.364 152.172 17.568 151.996 17.704C151.82 17.848 151.592 17.92 151.312 17.92ZM151.192 17.404C151.432 17.404 151.628 17.316 151.78 17.14C152.036 16.836 152.328 16.06 152.656 14.812C152.816 14.252 152.936 13.696 153.016 13.144C152.032 13.896 151.3 14.564 150.82 15.148C150.516 15.524 150.364 15.896 150.364 16.264C150.364 16.624 150.44 16.904 150.592 17.104C150.744 17.304 150.944 17.404 151.192 17.404ZM159.334 13.132C159.11 13.132 158.938 13.072 158.818 12.952C158.706 12.832 158.65 12.676 158.65 12.484C158.65 12.284 158.702 11.94 158.806 11.452L159.082 10C158.498 10.44 157.958 10.66 157.462 10.66C157.102 10.66 156.826 10.564 156.634 10.372C156.618 10.452 156.602 10.532 156.586 10.612C156.578 10.692 156.566 10.772 156.55 10.852C156.518 11.116 156.478 11.384 156.43 11.656C156.286 12.608 156.07 13.084 155.782 13.084C155.662 13.084 155.59 13 155.566 12.832C155.638 12.208 155.814 11.24 156.094 9.928C156.382 8.608 156.586 7.716 156.706 7.252C156.73 7.172 156.774 7.104 156.838 7.048C156.91 6.992 156.982 6.964 157.054 6.964C157.15 6.964 157.218 7.032 157.258 7.168C157.258 7.296 157.186 7.712 157.042 8.416C156.93 8.952 156.842 9.412 156.778 9.796C156.954 9.996 157.23 10.096 157.606 10.096C157.974 10.096 158.378 9.912 158.818 9.544C158.954 9.424 159.082 9.296 159.202 9.16L159.382 8.356C159.518 7.772 159.666 7.368 159.826 7.144C159.906 7.016 160.014 6.952 160.15 6.952C160.286 6.952 160.354 7.028 160.354 7.18V7.24C159.914 8.752 159.638 9.848 159.526 10.528C159.422 11.112 159.354 11.572 159.322 11.908C159.298 12.172 159.282 12.316 159.274 12.34L159.262 12.496C159.262 12.544 159.282 12.568 159.322 12.568C159.354 12.568 159.382 12.556 159.406 12.532C159.446 12.508 159.51 12.496 159.598 12.496C159.734 12.496 159.802 12.568 159.802 12.712C159.802 12.992 159.646 13.132 159.334 13.132ZM164.656 13.12C164.568 13.12 164.472 13.048 164.368 12.904C164.272 12.752 164.224 12.62 164.224 12.508V12.304C164.224 12.056 164.396 11.308 164.74 10.06L164.896 9.4L164.572 10.084C164.468 10.348 164.3 10.72 164.068 11.2C163.476 12.464 162.844 13.096 162.172 13.096C161.772 13.096 161.5 12.876 161.356 12.436C161.316 12.292 161.296 12.112 161.296 11.896C161.296 11.448 161.38 10.876 161.548 10.18C161.644 9.78 161.724 9.484 161.788 9.292L161.884 8.98C161.972 8.676 162.06 8.356 162.148 8.02C162.244 7.676 162.296 7.416 162.304 7.24C162.328 7.16 162.372 7.092 162.436 7.036C162.508 6.98 162.584 6.952 162.664 6.952C162.744 6.952 162.808 7.056 162.856 7.264C162.856 7.472 162.816 7.728 162.736 8.032C162.656 8.328 162.576 8.592 162.496 8.824C162.424 9.056 162.38 9.204 162.364 9.268C162.036 10.3 161.872 11.196 161.872 11.956C161.872 12.196 161.964 12.364 162.148 12.46C162.212 12.492 162.3 12.508 162.412 12.508C162.636 12.508 162.904 12.284 163.216 11.836C163.504 11.42 163.796 10.9 164.092 10.276C164.388 9.652 164.628 9.084 164.812 8.572C165.004 8.02 165.164 7.616 165.292 7.36C165.42 7.104 165.56 6.976 165.712 6.976C165.848 6.976 165.916 7.044 165.916 7.18C165.916 7.284 165.852 7.568 165.724 8.032C165.604 8.424 165.524 8.704 165.484 8.872C165.444 9.032 165.396 9.26 165.34 9.556L165.052 11.188L164.92 11.872C164.912 11.944 164.892 12.052 164.86 12.196C164.86 12.348 164.884 12.448 164.932 12.496L165.04 12.64C165.064 12.664 165.076 12.716 165.076 12.796C165.076 12.876 165.028 12.948 164.932 13.012C164.844 13.084 164.752 13.12 164.656 13.12ZM170.413 17.932C169.933 17.932 169.465 17.84 169.009 17.656C168.553 17.472 168.157 17.232 167.821 16.936C167.477 16.648 167.229 16.34 167.077 16.012C166.965 15.748 166.909 15.524 166.909 15.34C166.909 14.54 167.065 14.14 167.377 14.14C167.473 14.14 167.541 14.208 167.581 14.344L167.533 14.74C167.509 14.876 167.497 15.036 167.497 15.22C167.497 15.612 167.653 15.98 167.965 16.324C168.269 16.668 168.661 16.932 169.141 17.116C169.597 17.292 170.097 17.38 170.641 17.38C171.153 17.38 171.625 17.28 172.057 17.08C172.489 16.88 172.849 16.604 173.137 16.252C173.681 15.572 173.953 14.728 173.953 13.72C173.953 13.32 173.857 12.928 173.665 12.544C173.473 12.152 173.217 11.836 172.897 11.596C172.585 11.356 172.249 11.236 171.889 11.236H171.817C171.409 11.476 171.025 11.62 170.665 11.668C170.505 11.652 170.425 11.584 170.425 11.464C170.425 11.344 170.537 11.22 170.761 11.092C170.985 10.956 171.237 10.856 171.517 10.792L171.901 10.552C172.133 10.416 172.381 10.224 172.645 9.976C172.917 9.72 173.145 9.456 173.329 9.184C173.513 8.912 173.605 8.676 173.605 8.476C173.605 8.116 173.537 7.848 173.401 7.672C173.265 7.488 173.001 7.396 172.609 7.396C171.817 7.396 171.109 7.76 170.485 8.488C170.405 8.584 170.325 8.632 170.245 8.632C170.085 8.632 170.005 8.56 170.005 8.416C170.005 8.216 170.145 7.996 170.425 7.756C170.713 7.508 171.061 7.3 171.469 7.132C171.877 6.964 172.249 6.88 172.585 6.88C172.913 6.88 173.197 6.944 173.437 7.072C173.677 7.2 173.857 7.368 173.977 7.576C174.105 7.776 174.169 7.992 174.169 8.224C174.169 8.56 174.069 8.9 173.869 9.244C173.661 9.596 173.333 9.988 172.885 10.42C172.693 10.596 172.545 10.724 172.441 10.804C173.073 10.94 173.577 11.284 173.953 11.836C174.337 12.388 174.529 13.04 174.529 13.792C174.529 14.584 174.377 15.292 174.073 15.916C173.769 16.54 173.309 17.032 172.693 17.392C172.077 17.752 171.317 17.932 170.413 17.932Z" fill="#6D6F72"/>
<path d="M199.852 69.06C199.732 69.06 199.66 68.976 199.636 68.808C199.732 68.248 199.904 67.392 200.152 66.24C200.384 65.176 200.524 64.516 200.572 64.26C199.892 64.044 199.552 63.848 199.552 63.672C199.552 63.584 199.584 63.516 199.648 63.468C199.712 63.412 199.784 63.384 199.864 63.384C199.984 63.384 200.124 63.42 200.284 63.492C200.38 63.524 200.452 63.552 200.5 63.576L200.692 63.66L201.892 58.032C201.54 58.136 201.28 58.34 201.112 58.644C201.04 58.74 200.948 58.788 200.836 58.788C200.692 58.788 200.62 58.72 200.62 58.584C200.62 58.576 200.628 58.532 200.644 58.452C200.932 57.916 201.408 57.584 202.072 57.456C202.16 57.296 202.26 57.216 202.372 57.216C202.484 57.216 202.552 57.276 202.576 57.396H202.624C203.2 57.396 203.704 57.532 204.136 57.804C204.576 58.076 204.912 58.432 205.144 58.872C205.376 59.312 205.492 59.784 205.492 60.288C205.492 61.112 205.344 61.84 205.048 62.472C204.752 63.104 204.316 63.596 203.74 63.948C203.172 64.3 202.484 64.476 201.676 64.476C201.468 64.476 201.268 64.448 201.076 64.392C201.02 64.712 200.912 65.236 200.752 65.964L200.656 66.408L200.596 66.696C200.388 67.656 200.252 68.332 200.188 68.724C200.172 68.82 200.128 68.9 200.056 68.964C199.992 69.028 199.924 69.06 199.852 69.06ZM202.048 63.912C202.432 63.912 202.808 63.824 203.176 63.648C203.552 63.464 203.876 63.22 204.148 62.916C204.708 62.276 204.988 61.496 204.988 60.576C204.988 60.096 204.884 59.656 204.676 59.256C204.468 58.848 204.172 58.528 203.788 58.296C203.404 58.056 202.96 57.936 202.456 57.936L201.196 63.84C201.388 63.888 201.672 63.912 202.048 63.912ZM210.104 69.024C209.92 69.024 209.748 68.928 209.588 68.736C209.436 68.536 209.36 68.324 209.36 68.1C209.36 67.604 209.492 66.764 209.756 65.58C209.556 66.012 209.296 66.456 208.976 66.912C208.664 67.36 208.356 67.756 208.052 68.1C207.748 68.444 207.524 68.668 207.38 68.772C207.18 68.924 206.96 69 206.72 69C206.264 69 206.036 68.712 206.036 68.136C206.036 67.576 206.248 66.88 206.672 66.048C207.096 65.208 207.6 64.48 208.184 63.864C208.768 63.256 209.24 62.952 209.6 62.952C209.968 62.952 210.176 63.112 210.224 63.432C210.248 63.528 210.26 63.632 210.26 63.744C210.3 63.72 210.344 63.708 210.392 63.708C210.576 63.708 210.668 63.796 210.668 63.972V64.02L210.524 64.548C210.412 64.948 210.296 65.54 210.176 66.324C210.056 67.108 209.996 67.76 209.996 68.28L210.116 68.352C210.308 68.472 210.404 68.592 210.404 68.712C210.404 68.792 210.376 68.864 210.32 68.928C210.264 68.992 210.192 69.024 210.104 69.024ZM206.816 68.376C206.904 68.376 206.976 68.348 207.032 68.292C207.848 67.596 208.572 66.632 209.204 65.4C209.564 64.72 209.76 64.316 209.792 64.188C209.808 64.044 209.816 63.956 209.816 63.924C209.816 63.844 209.796 63.772 209.756 63.708C209.716 63.644 209.664 63.612 209.6 63.612C209.52 63.612 209.416 63.648 209.288 63.72C208.968 63.888 208.588 64.244 208.148 64.788C207.716 65.332 207.36 65.908 207.08 66.516C206.784 67.132 206.636 67.68 206.636 68.16C206.636 68.304 206.696 68.376 206.816 68.376ZM212.83 69.144C212.446 69.144 212.142 69.004 211.918 68.724C211.702 68.436 211.594 68.092 211.594 67.692C211.594 66.988 211.722 66.26 211.978 65.508C212.242 64.756 212.586 64.128 213.01 63.624C213.434 63.12 213.882 62.868 214.354 62.868C214.698 62.868 214.922 62.992 215.026 63.24C215.05 63.28 215.07 63.324 215.086 63.372C215.102 63.412 215.118 63.452 215.134 63.492C215.174 63.604 215.214 63.668 215.254 63.684C215.286 63.764 215.302 63.824 215.302 63.864C215.302 63.936 215.266 64.004 215.194 64.068C215.13 64.132 215.058 64.164 214.978 64.164C214.81 64.164 214.702 64.04 214.654 63.792C214.606 63.544 214.474 63.42 214.258 63.42C213.97 63.42 213.666 63.644 213.346 64.092C213.026 64.532 212.75 65.092 212.518 65.772C212.294 66.412 212.182 66.984 212.182 67.488C212.182 68.2 212.442 68.556 212.962 68.556C213.226 68.556 213.47 68.432 213.694 68.184C213.718 68.152 213.762 68.1 213.826 68.028C213.89 67.948 213.95 67.892 214.006 67.86C214.062 67.82 214.114 67.8 214.162 67.8C214.314 67.8 214.39 67.868 214.39 68.004C214.39 68.164 214.314 68.336 214.162 68.52C214.01 68.696 213.814 68.844 213.574 68.964C213.334 69.084 213.086 69.144 212.83 69.144ZM217.797 69.24C217.349 69.24 217.125 68.892 217.125 68.196C217.125 67.276 217.321 66.34 217.713 65.388C217.801 65.164 217.933 64.856 218.109 64.464C217.925 64.52 217.749 64.548 217.581 64.548C217.093 64.548 216.757 64.336 216.573 63.912C216.333 64.256 216.213 64.612 216.213 64.98V65.04L216.261 65.244C216.261 65.332 216.229 65.412 216.165 65.484C216.101 65.548 216.029 65.58 215.949 65.58C215.757 65.58 215.661 65.428 215.661 65.124C215.661 64.844 215.721 64.54 215.841 64.212C215.961 63.876 216.109 63.596 216.285 63.372C216.461 63.14 216.629 63.024 216.789 63.024C216.909 63.024 216.985 63.088 217.017 63.216C217.017 63.608 217.161 63.852 217.449 63.948C217.521 63.98 217.609 63.996 217.713 63.996C217.985 63.996 218.221 63.908 218.421 63.732C218.709 63.18 218.993 62.904 219.273 62.904C219.417 62.928 219.489 63.032 219.489 63.216C219.489 63.4 219.277 63.668 218.853 64.02C218.717 64.284 218.597 64.56 218.493 64.848L218.193 65.64C217.833 66.536 217.653 67.324 217.653 68.004C217.653 68.46 217.733 68.688 217.893 68.688C218.093 68.688 218.413 68.38 218.853 67.764C218.909 67.692 218.969 67.612 219.033 67.524C219.089 67.444 219.137 67.388 219.177 67.356C219.225 67.316 219.289 67.296 219.369 67.296C219.513 67.296 219.585 67.36 219.585 67.488C219.585 67.528 219.569 67.588 219.537 67.668C219.113 68.22 218.769 68.62 218.505 68.868C218.241 69.116 218.005 69.24 217.797 69.24ZM221.432 69.12C221.176 69.12 220.976 69.08 220.832 69C220.688 68.912 220.572 68.78 220.484 68.604C220.316 68.292 220.232 67.916 220.232 67.476C220.232 66.708 220.348 65.98 220.58 65.292C220.812 64.596 221.128 64.012 221.528 63.54C221.912 63.092 222.332 62.868 222.788 62.868C223.028 62.868 223.216 62.968 223.352 63.168C223.496 63.36 223.568 63.596 223.568 63.876C223.568 64.364 223.44 64.788 223.184 65.148C222.936 65.508 222.6 65.808 222.176 66.048C221.808 66.264 221.36 66.48 220.832 66.696L220.808 67.56C220.808 68.232 221.012 68.568 221.42 68.568C221.604 68.568 221.796 68.524 221.996 68.436C222.196 68.34 222.404 68.228 222.62 68.1C222.724 68.044 222.808 68.016 222.872 68.016C223.008 68.016 223.076 68.088 223.076 68.232C223.076 68.336 222.976 68.46 222.776 68.604C222.584 68.748 222.356 68.872 222.092 68.976C221.828 69.072 221.608 69.12 221.432 69.12ZM220.928 66.12C221 66.08 221.16 65.996 221.408 65.868C221.52 65.82 221.68 65.74 221.888 65.628C222.264 65.42 222.544 65.18 222.728 64.908C222.92 64.636 223.016 64.3 223.016 63.9C223.016 63.588 222.884 63.432 222.62 63.432C222.388 63.432 222.116 63.644 221.804 64.068C221.476 64.492 221.212 65.048 221.012 65.736C220.956 65.928 220.928 66.056 220.928 66.12ZM224.267 63.624C224.171 63.624 224.087 63.596 224.015 63.54C223.951 63.484 223.919 63.424 223.919 63.36C223.919 63.304 223.947 63.256 224.003 63.216C224.675 62.928 225.515 62.784 226.523 62.784C226.955 62.784 227.311 62.8 227.591 62.832C227.863 62.872 228.099 62.9 228.299 62.916C228.467 62.94 228.567 62.968 228.599 63C228.631 63.04 228.647 63.096 228.647 63.168C228.647 63.24 228.607 63.312 228.527 63.384C228.447 63.448 228.347 63.48 228.227 63.48C228.091 63.48 227.863 63.444 227.543 63.372C227.207 63.308 226.887 63.276 226.583 63.276C225.767 63.276 225.027 63.388 224.363 63.612L224.315 63.624H224.267ZM224.891 69.18C224.755 69.18 224.687 69.1 224.687 68.94C224.687 68.86 224.715 68.784 224.771 68.712C224.843 68.52 224.915 68.26 224.987 67.932C225.083 67.524 225.147 67.272 225.179 67.176L225.299 66.564L225.431 65.796C225.567 65.012 225.695 64.448 225.815 64.104C225.943 63.76 226.115 63.588 226.331 63.588C226.411 63.588 226.475 63.64 226.523 63.744L226.679 64.152C226.679 64.32 226.619 64.448 226.499 64.536C226.467 64.56 226.427 64.572 226.379 64.572C226.331 64.572 226.287 64.548 226.247 64.5C226.063 65.18 225.951 65.676 225.911 65.988C225.831 66.508 225.763 66.908 225.707 67.188C225.675 67.276 225.639 67.404 225.599 67.572L225.491 67.968C225.283 68.776 225.083 69.18 224.891 69.18ZM232.123 69.132C231.899 69.132 231.727 69.072 231.607 68.952C231.495 68.832 231.439 68.676 231.439 68.484C231.439 68.284 231.491 67.94 231.595 67.452L231.871 66C231.287 66.44 230.747 66.66 230.251 66.66C229.891 66.66 229.615 66.564 229.423 66.372C229.407 66.452 229.391 66.532 229.375 66.612C229.367 66.692 229.355 66.772 229.339 66.852C229.307 67.116 229.267 67.384 229.219 67.656C229.075 68.608 228.859 69.084 228.571 69.084C228.451 69.084 228.379 69 228.355 68.832C228.427 68.208 228.603 67.24 228.883 65.928C229.171 64.608 229.375 63.716 229.495 63.252C229.519 63.172 229.563 63.104 229.627 63.048C229.699 62.992 229.771 62.964 229.843 62.964C229.939 62.964 230.007 63.032 230.047 63.168C230.047 63.296 229.975 63.712 229.831 64.416C229.719 64.952 229.631 65.412 229.567 65.796C229.743 65.996 230.019 66.096 230.395 66.096C230.763 66.096 231.167 65.912 231.607 65.544C231.743 65.424 231.871 65.296 231.991 65.16L232.171 64.356C232.307 63.772 232.455 63.368 232.615 63.144C232.695 63.016 232.803 62.952 232.939 62.952C233.075 62.952 233.143 63.028 233.143 63.18V63.24C232.703 64.752 232.427 65.848 232.315 66.528C232.211 67.112 232.143 67.572 232.111 67.908C232.087 68.172 232.071 68.316 232.063 68.34L232.051 68.496C232.051 68.544 232.071 68.568 232.111 68.568C232.143 68.568 232.171 68.556 232.195 68.532C232.235 68.508 232.299 68.496 232.387 68.496C232.523 68.496 232.591 68.568 232.591 68.712C232.591 68.992 232.435 69.132 232.123 69.132ZM237.865 69.024C237.681 69.024 237.509 68.928 237.349 68.736C237.197 68.536 237.121 68.324 237.121 68.1C237.121 67.604 237.253 66.764 237.517 65.58C237.317 66.012 237.057 66.456 236.737 66.912C236.425 67.36 236.117 67.756 235.813 68.1C235.509 68.444 235.285 68.668 235.141 68.772C234.941 68.924 234.721 69 234.481 69C234.025 69 233.797 68.712 233.797 68.136C233.797 67.576 234.009 66.88 234.433 66.048C234.857 65.208 235.361 64.48 235.945 63.864C236.529 63.256 237.001 62.952 237.361 62.952C237.729 62.952 237.937 63.112 237.985 63.432C238.009 63.528 238.021 63.632 238.021 63.744C238.061 63.72 238.105 63.708 238.153 63.708C238.337 63.708 238.429 63.796 238.429 63.972V64.02L238.285 64.548C238.173 64.948 238.057 65.54 237.937 66.324C237.817 67.108 237.757 67.76 237.757 68.28L237.877 68.352C238.069 68.472 238.165 68.592 238.165 68.712C238.165 68.792 238.137 68.864 238.081 68.928C238.025 68.992 237.953 69.024 237.865 69.024ZM234.577 68.376C234.665 68.376 234.737 68.348 234.793 68.292C235.609 67.596 236.333 66.632 236.965 65.4C237.325 64.72 237.521 64.316 237.553 64.188C237.569 64.044 237.577 63.956 237.577 63.924C237.577 63.844 237.557 63.772 237.517 63.708C237.477 63.644 237.425 63.612 237.361 63.612C237.281 63.612 237.177 63.648 237.049 63.72C236.729 63.888 236.349 64.244 235.909 64.788C235.477 65.332 235.121 65.908 234.841 66.516C234.545 67.132 234.397 67.68 234.397 68.16C234.397 68.304 234.457 68.376 234.577 68.376ZM239.176 69.12C238.864 69.12 238.612 69.032 238.42 68.856C238.364 68.808 238.336 68.74 238.336 68.652C238.336 68.572 238.372 68.5 238.444 68.436C238.508 68.372 238.584 68.34 238.672 68.34C238.76 68.34 238.82 68.368 238.852 68.424C238.908 68.48 238.956 68.52 238.996 68.544C239.044 68.56 239.128 68.568 239.248 68.568C239.488 68.568 239.748 68.408 240.028 68.088C240.132 67.984 240.284 67.796 240.484 67.524C240.804 67.092 241.056 66.768 241.24 66.552C241.296 66.48 241.38 66.38 241.492 66.252C241.548 66.172 241.632 66.068 241.744 65.94L241.924 65.724C241.508 66.1 241.16 66.288 240.88 66.288C240.688 66.288 240.532 66.228 240.412 66.108C240.3 65.98 240.244 65.788 240.244 65.532C240.244 65.252 240.364 64.884 240.604 64.428C240.844 63.972 241.132 63.584 241.468 63.264C241.836 62.936 242.176 62.772 242.488 62.772C242.8 62.772 243.044 62.88 243.22 63.096C243.228 63.112 243.272 63.18 243.352 63.3C243.376 63.284 243.42 63.276 243.484 63.276C243.596 63.276 243.664 63.344 243.688 63.48C243.688 63.856 243.56 64.268 243.304 64.716C243.24 64.82 243.192 64.876 243.16 64.884L243.112 65.148C243.04 65.548 242.98 65.86 242.932 66.084C242.676 67.308 242.536 68.088 242.512 68.424C242.488 68.696 242.456 68.872 242.416 68.952C242.376 69.024 242.292 69.06 242.164 69.06C242.052 69.06 241.984 69.04 241.96 69C241.936 68.952 241.924 68.88 241.924 68.784C242.004 67.96 242.192 66.904 242.488 65.616C242.04 66.12 241.628 66.64 241.252 67.176L240.508 68.196C240.3 68.484 240.096 68.712 239.896 68.88C239.704 69.04 239.464 69.12 239.176 69.12ZM241.072 65.88C241.416 65.88 241.844 65.592 242.356 65.016C242.508 64.848 242.616 64.724 242.68 64.644C242.776 64.26 242.868 63.964 242.956 63.756C242.852 63.564 242.764 63.448 242.692 63.408C242.636 63.376 242.556 63.36 242.452 63.36C242.244 63.36 242.004 63.48 241.732 63.72C241.46 63.96 241.236 64.244 241.06 64.572C240.884 64.9 240.796 65.176 240.796 65.4C240.796 65.72 240.888 65.88 241.072 65.88ZM204.148 87.096C204.02 87.096 203.948 87.012 203.932 86.844C204.012 86.14 204.188 85.408 204.46 84.648C204.716 83.912 204.944 83.08 205.144 82.152L204.688 82.716L204.232 83.268C203.728 83.924 203.26 84.428 202.828 84.78C202.756 84.828 202.676 84.852 202.588 84.852C202.5 84.852 202.424 84.812 202.36 84.732C202.296 84.652 202.236 84.524 202.18 84.348C202.132 84.164 202.084 83.936 202.036 83.664L201.856 82.656L201.796 82.392C201.156 83.864 200.72 84.904 200.488 85.512C200.464 85.584 200.436 85.656 200.404 85.728C200.38 85.792 200.356 85.86 200.332 85.932L200.188 86.328C200.172 86.376 200.164 86.416 200.164 86.448C200.148 86.512 200.132 86.56 200.116 86.592C200.148 86.616 200.164 86.664 200.164 86.736C200.164 86.8 200.124 86.864 200.044 86.928C199.972 86.992 199.892 87.024 199.804 87.024C199.668 87.024 199.6 86.948 199.6 86.796C199.6 86.148 200.32 84.276 201.76 81.18C201.856 81.036 201.952 80.964 202.048 80.964C202.232 80.964 202.324 81.06 202.324 81.252C202.324 81.332 202.3 81.444 202.252 81.588C202.252 81.732 202.28 81.912 202.336 82.128C202.368 82.296 202.42 82.612 202.492 83.076C202.532 83.42 202.608 83.788 202.72 84.18L203.284 83.568C204.132 82.632 204.644 82.02 204.82 81.732C205.156 81.164 205.424 80.88 205.624 80.88C205.76 80.88 205.848 80.948 205.888 81.084C205.8 81.948 205.572 82.944 205.204 84.072C204.828 85.224 204.588 86.12 204.484 86.76C204.46 86.856 204.412 86.936 204.34 87C204.276 87.064 204.212 87.096 204.148 87.096ZM207.721 87.108C207.305 87.108 206.993 86.944 206.785 86.616C206.585 86.288 206.485 85.896 206.485 85.44C206.485 84.712 206.605 84.008 206.845 83.328C207.093 82.64 207.429 82.072 207.853 81.624C208.261 81.168 208.721 80.94 209.233 80.94C209.969 80.94 210.337 81.5 210.337 82.62C210.337 83.18 210.245 83.752 210.061 84.336C209.877 84.92 209.637 85.44 209.341 85.896C209.053 86.352 208.753 86.68 208.441 86.88C208.201 87.032 207.961 87.108 207.721 87.108ZM207.817 86.568C208.065 86.568 208.341 86.352 208.645 85.92C208.957 85.488 209.217 84.952 209.425 84.312C209.641 83.672 209.749 83.128 209.749 82.68C209.749 82.216 209.721 81.928 209.665 81.816C209.617 81.696 209.557 81.612 209.485 81.564C209.413 81.516 209.301 81.492 209.149 81.492C208.981 81.492 208.805 81.556 208.621 81.684C208.253 81.916 207.933 82.316 207.661 82.884C207.237 83.732 207.025 84.556 207.025 85.356C207.025 85.9 207.181 86.276 207.493 86.484C207.605 86.54 207.713 86.568 207.817 86.568ZM211.811 91.92C211.427 91.92 211.103 91.788 210.839 91.524C210.583 91.268 210.455 90.94 210.455 90.54C210.455 90.172 210.539 89.82 210.707 89.484C210.883 89.156 211.135 88.816 211.463 88.464C211.743 88.16 212.079 87.844 212.471 87.516L213.599 86.58C213.655 86.38 213.703 86.168 213.743 85.944C213.831 85.592 213.899 85.304 213.947 85.08C213.643 86.032 213.251 86.656 212.771 86.952C212.619 87.048 212.471 87.096 212.327 87.096C212.047 87.096 211.815 86.984 211.631 86.76C211.455 86.536 211.367 86.24 211.367 85.872C211.367 85.176 211.499 84.448 211.763 83.688C212.027 82.92 212.379 82.264 212.819 81.72C213.275 81.168 213.771 80.892 214.307 80.892C214.563 80.892 214.807 80.956 215.039 81.084C215.087 81.06 215.139 81.048 215.195 81.048C215.331 81.048 215.399 81.112 215.399 81.24C215.399 81.376 215.375 81.504 215.327 81.624C215.103 82.208 214.727 83.728 214.199 86.184C214.327 86.104 214.475 85.988 214.643 85.836C214.683 85.804 214.755 85.744 214.859 85.656C214.963 85.56 215.047 85.492 215.111 85.452C215.175 85.412 215.231 85.392 215.279 85.392C215.415 85.392 215.483 85.46 215.483 85.596C215.483 85.7 215.455 85.78 215.399 85.836C214.903 86.212 214.479 86.524 214.127 86.772L213.935 87.9L213.875 88.2C213.779 88.704 213.695 89.124 213.623 89.46C213.551 89.804 213.463 90.132 213.359 90.444C213.207 90.884 212.999 91.24 212.735 91.512C212.479 91.784 212.171 91.92 211.811 91.92ZM212.363 86.52C212.523 86.52 212.707 86.412 212.915 86.196C213.123 85.972 213.323 85.684 213.515 85.332C213.715 84.972 213.875 84.596 213.995 84.204C214.179 83.636 214.335 83.112 214.463 82.632C214.543 82.352 214.643 81.984 214.763 81.528C214.651 81.424 214.499 81.372 214.307 81.372C213.963 81.372 213.603 81.6 213.227 82.056C212.859 82.512 212.547 83.088 212.291 83.784C212.043 84.472 211.919 85.1 211.919 85.668C211.919 86.236 212.067 86.52 212.363 86.52ZM211.703 91.32C211.871 91.32 212.023 91.28 212.159 91.2C212.295 91.128 212.423 91 212.543 90.816C212.663 90.624 212.783 90.356 212.903 90.012C213.023 89.668 213.119 89.316 213.191 88.956C213.255 88.684 213.307 88.436 213.347 88.212L213.395 87.948C213.403 87.884 213.415 87.816 213.431 87.744C213.447 87.672 213.459 87.596 213.467 87.516L213.503 87.228C212.719 87.876 212.111 88.464 211.679 88.992C211.255 89.52 211.043 89.992 211.043 90.408C211.043 90.848 211.139 91.128 211.331 91.248C211.411 91.296 211.535 91.32 211.703 91.32ZM217.799 87.12C217.543 87.12 217.343 87.08 217.199 87C217.055 86.912 216.939 86.78 216.851 86.604C216.683 86.292 216.599 85.916 216.599 85.476C216.599 84.708 216.715 83.98 216.947 83.292C217.179 82.596 217.495 82.012 217.895 81.54C218.279 81.092 218.699 80.868 219.155 80.868C219.395 80.868 219.583 80.968 219.719 81.168C219.863 81.36 219.935 81.596 219.935 81.876C219.935 82.364 219.807 82.788 219.551 83.148C219.303 83.508 218.967 83.808 218.543 84.048C218.175 84.264 217.727 84.48 217.199 84.696L217.175 85.56C217.175 86.232 217.379 86.568 217.787 86.568C217.971 86.568 218.163 86.524 218.363 86.436C218.563 86.34 218.771 86.228 218.987 86.1C219.091 86.044 219.175 86.016 219.239 86.016C219.375 86.016 219.443 86.088 219.443 86.232C219.443 86.336 219.343 86.46 219.143 86.604C218.951 86.748 218.723 86.872 218.459 86.976C218.195 87.072 217.975 87.12 217.799 87.12ZM217.295 84.12C217.367 84.08 217.527 83.996 217.775 83.868C217.887 83.82 218.047 83.74 218.255 83.628C218.631 83.42 218.911 83.18 219.095 82.908C219.287 82.636 219.383 82.3 219.383 81.9C219.383 81.588 219.251 81.432 218.987 81.432C218.755 81.432 218.483 81.644 218.171 82.068C217.843 82.492 217.579 83.048 217.379 83.736C217.323 83.928 217.295 84.056 217.295 84.12ZM220.922 87.144C220.634 87.144 220.406 87.076 220.238 86.94C220.07 86.796 219.934 86.56 219.83 86.232C219.814 86.208 219.806 86.156 219.806 86.076C219.806 86.004 219.838 85.936 219.902 85.872C219.966 85.8 220.038 85.764 220.118 85.764C220.19 85.764 220.258 85.808 220.322 85.896C220.322 86.384 220.554 86.628 221.018 86.628C221.362 86.628 221.706 86.456 222.05 86.112C222.394 85.76 222.71 85.3 222.998 84.732C223.254 84.236 223.442 83.784 223.562 83.376L223.658 83.064C223.746 82.768 223.838 82.472 223.934 82.176C224.038 81.872 224.142 81.612 224.246 81.396C224.382 81.116 224.518 80.976 224.654 80.976C224.798 80.976 224.87 81.052 224.87 81.204C224.87 81.34 224.794 81.624 224.642 82.056C224.474 82.56 224.334 83.16 224.222 83.856C224.11 84.544 224.054 85.232 224.054 85.92C224.054 86.312 224.134 86.532 224.294 86.58L224.438 86.592C224.558 86.592 224.662 86.564 224.75 86.508C224.774 86.5 224.83 86.46 224.918 86.388C224.934 86.372 224.998 86.32 225.11 86.232C225.222 86.136 225.318 86.088 225.398 86.088C225.542 86.088 225.614 86.164 225.614 86.316C225.614 86.412 225.542 86.524 225.398 86.652C225.254 86.78 225.082 86.888 224.882 86.976C224.682 87.064 224.498 87.108 224.33 87.108C223.818 87.108 223.562 86.552 223.562 85.44C223.562 85.224 223.582 84.928 223.622 84.552C223.334 85.296 222.934 85.916 222.422 86.412C221.918 86.9 221.418 87.144 220.922 87.144ZM227.78 87.18C227.092 87.18 226.748 86.712 226.748 85.776C226.748 85.432 226.8 85.012 226.904 84.516L227.12 83.484L227.588 81.204C227.62 81.14 227.672 81.088 227.744 81.048C227.816 81 227.884 80.976 227.948 80.976C228.004 80.976 228.06 81.012 228.116 81.084C228.172 81.156 228.2 81.232 228.2 81.312L227.816 82.812L227.444 84.384C227.316 84.96 227.252 85.4 227.252 85.704C227.252 86.04 227.3 86.28 227.396 86.424C227.492 86.56 227.648 86.628 227.864 86.628C228.2 86.628 228.476 86.516 228.692 86.292C228.908 86.068 229.064 85.772 229.16 85.404C229.248 85.052 229.292 84.744 229.292 84.48C229.292 83.792 229.124 83.448 228.788 83.448C228.572 83.448 228.376 83.62 228.2 83.964C228.104 84.156 228.02 84.296 227.948 84.384C227.884 84.448 227.828 84.48 227.78 84.48C227.636 84.48 227.564 84.412 227.564 84.276C227.564 84.196 227.644 84.032 227.804 83.784C227.972 83.528 228.108 83.34 228.212 83.22C228.436 82.996 228.644 82.884 228.836 82.884C229.156 82.884 229.4 83.036 229.568 83.34C229.736 83.644 229.82 84.016 229.82 84.456C229.82 84.96 229.728 85.42 229.544 85.836C229.368 86.252 229.124 86.58 228.812 86.82C228.5 87.06 228.156 87.18 227.78 87.18Z" fill="#17181A"/>
<path d="M45.772 53.18C45.452 53.18 45.148 53.096 44.86 52.928C44.244 52.576 43.804 51.956 43.54 51.068C43.412 50.636 43.348 50.208 43.348 49.784C43.348 49.096 43.456 48.292 43.672 47.372C43.888 46.444 44.192 45.52 44.584 44.6C45 43.616 45.484 42.824 46.036 42.224C46.596 41.616 47.176 41.312 47.776 41.312C48.176 41.312 48.544 41.432 48.88 41.672C49.224 41.912 49.496 42.22 49.696 42.596C49.896 42.964 49.996 43.328 49.996 43.688C49.988 43.768 49.948 43.844 49.876 43.916C49.804 43.988 49.732 44.024 49.66 44.024C49.588 44.024 49.536 44 49.504 43.952C49.456 43.88 49.42 43.752 49.396 43.568C49.332 43.064 49.152 42.66 48.856 42.356C48.56 42.044 48.196 41.888 47.764 41.888C47.332 41.888 46.868 42.184 46.372 42.776C45.956 43.272 45.56 43.94 45.184 44.78C44.816 45.62 44.52 46.476 44.296 47.348C44.072 48.212 43.96 48.924 43.96 49.484C43.96 50.372 44.124 51.112 44.452 51.704C44.78 52.296 45.252 52.592 45.868 52.592C46.348 52.592 46.896 52.368 47.512 51.92L47.932 51.62C48.02 51.54 48.104 51.5 48.184 51.5C48.32 51.5 48.388 51.572 48.388 51.716C48.388 51.828 48.328 51.928 48.208 52.016C47.984 52.168 47.8 52.3 47.656 52.412C46.976 52.924 46.348 53.18 45.772 53.18ZM51.8851 53.108C51.4691 53.108 51.1571 52.944 50.9491 52.616C50.7491 52.288 50.6491 51.896 50.6491 51.44C50.6491 50.712 50.7691 50.008 51.0091 49.328C51.2571 48.64 51.5931 48.072 52.0171 47.624C52.4251 47.168 52.8851 46.94 53.3971 46.94C54.1331 46.94 54.5011 47.5 54.5011 48.62C54.5011 49.18 54.4091 49.752 54.2251 50.336C54.0411 50.92 53.8011 51.44 53.5051 51.896C53.2171 52.352 52.9171 52.68 52.6051 52.88C52.3651 53.032 52.1251 53.108 51.8851 53.108ZM51.9811 52.568C52.2291 52.568 52.5051 52.352 52.8091 51.92C53.1211 51.488 53.3811 50.952 53.5891 50.312C53.8051 49.672 53.9131 49.128 53.9131 48.68C53.9131 48.216 53.8851 47.928 53.8291 47.816C53.7811 47.696 53.7211 47.612 53.6491 47.564C53.5771 47.516 53.4651 47.492 53.3131 47.492C53.1451 47.492 52.9691 47.556 52.7851 47.684C52.4171 47.916 52.0971 48.316 51.8251 48.884C51.4011 49.732 51.1891 50.556 51.1891 51.356C51.1891 51.9 51.3451 52.276 51.6571 52.484C51.7691 52.54 51.8771 52.568 51.9811 52.568ZM56.4314 53.144C55.6954 53.144 55.3274 52.692 55.3274 51.788C55.3274 51.1 55.3994 50.44 55.5434 49.808C55.6954 49.168 55.8914 48.612 56.1314 48.14C56.3794 47.668 56.6474 47.328 56.9354 47.12C57.1594 46.96 57.3674 46.88 57.5594 46.88C57.9274 46.88 58.1874 46.956 58.3394 47.108C58.2514 46.828 58.1234 46.54 57.9554 46.244C57.7714 45.94 57.6194 45.664 57.4994 45.416C57.1314 44.736 56.9474 44.08 56.9474 43.448C56.9474 43.04 57.0274 42.68 57.1874 42.368C57.3554 42.048 57.5794 41.8 57.8594 41.624C58.1394 41.44 58.4554 41.348 58.8074 41.348C59.1274 41.348 59.4194 41.392 59.6834 41.48C60.0194 41.576 60.2674 41.64 60.4274 41.672C60.5954 41.704 60.7954 41.72 61.0274 41.72C61.4274 41.72 61.7434 41.676 61.9754 41.588C61.9754 41.588 62.0594 41.56 62.2274 41.504C62.2914 41.48 62.3714 41.468 62.4674 41.468C62.6114 41.468 62.6834 41.528 62.6834 41.648C62.6834 41.824 62.5354 41.972 62.2394 42.092C61.9434 42.212 61.6194 42.272 61.2674 42.272C60.9714 42.272 60.7434 42.26 60.5834 42.236C60.4234 42.204 60.1394 42.132 59.7314 42.02C59.3794 41.932 59.0114 41.888 58.6274 41.888C58.2674 41.888 57.9914 42.044 57.7994 42.356C57.6074 42.668 57.5114 43.036 57.5114 43.46C57.5114 43.844 57.5634 44.188 57.6674 44.492C57.7714 44.788 57.9794 45.2 58.2914 45.728C58.8034 46.576 59.0594 47.312 59.0594 47.936L58.9994 48.476V48.5C58.9994 49.124 58.9074 49.74 58.7234 50.348C58.5474 50.956 58.3154 51.488 58.0274 51.944C57.7474 52.4 57.4554 52.728 57.1514 52.928C56.9274 53.072 56.6874 53.144 56.4314 53.144ZM56.4194 52.556C56.6274 52.556 56.8194 52.488 56.9954 52.352C57.1714 52.208 57.3394 52.004 57.4994 51.74C57.7794 51.252 58.0074 50.672 58.1834 50C58.3594 49.36 58.4474 48.796 58.4474 48.308C58.4474 48.044 58.3794 47.844 58.2434 47.708C58.1074 47.572 57.9274 47.504 57.7034 47.504C57.4954 47.504 57.3194 47.564 57.1754 47.684C57.0394 47.804 56.8714 48.02 56.6714 48.332C56.4714 48.652 56.2834 49.12 56.1074 49.736C55.9394 50.344 55.8554 50.86 55.8554 51.284C55.8554 51.732 55.8954 52.056 55.9754 52.256C56.0554 52.456 56.2034 52.556 56.4194 52.556ZM65.7871 53.144C65.5471 53.144 65.3791 53.064 65.2831 52.904C65.1951 52.744 65.1511 52.472 65.1511 52.088C65.1511 51.432 65.3111 50.596 65.6311 49.58C65.1431 49.964 64.5831 50.156 63.9511 50.156C63.7351 50.156 63.5671 50.148 63.4471 50.132L63.4831 50.408C63.4831 50.8 63.3791 51.2 63.1711 51.608C62.9711 52.008 62.7031 52.344 62.3671 52.616C62.0391 52.88 61.6991 53.012 61.3471 53.012C60.7551 53.012 60.4591 52.636 60.4591 51.884C60.4591 50.948 60.6431 49.98 61.0111 48.98C61.1791 48.508 61.2951 48.152 61.3591 47.912C61.4231 47.672 61.4671 47.42 61.4911 47.156C61.5151 47.076 61.5591 47.008 61.6231 46.952C61.6951 46.896 61.7671 46.868 61.8391 46.868C61.9351 46.868 62.0031 46.936 62.0431 47.072C62.0111 47.408 61.9471 47.74 61.8511 48.068C61.7631 48.396 61.6351 48.816 61.4671 49.328C61.1551 50.312 60.9991 51.1 60.9991 51.692C60.9991 52.02 61.0671 52.252 61.2031 52.388C61.2511 52.444 61.3511 52.472 61.5031 52.472C61.6471 52.472 61.8111 52.408 61.9951 52.28C62.1791 52.152 62.3391 51.988 62.4751 51.788C62.7791 51.364 62.9311 50.9 62.9311 50.396C62.9311 50.276 62.9191 50.164 62.8951 50.06C62.3431 49.948 62.0671 49.764 62.0671 49.508C62.0671 49.364 62.1351 49.24 62.2711 49.136C62.4151 49.032 62.5551 48.98 62.6911 48.98C62.9311 48.98 63.1351 49.184 63.3031 49.592C63.4311 49.624 63.5951 49.64 63.7951 49.64C64.2671 49.64 64.6951 49.524 65.0791 49.292C65.4631 49.06 65.7831 48.736 66.0391 48.32C66.0951 48.152 66.1351 48.012 66.1591 47.9C66.3271 47.252 66.5471 46.928 66.8191 46.928C66.9631 46.928 67.0351 47.028 67.0351 47.228C66.8911 47.724 66.7071 48.168 66.4831 48.56C65.9711 50.048 65.7151 51.18 65.7151 51.956C65.7151 52.388 65.7711 52.604 65.8831 52.604C65.9871 52.604 66.0791 52.576 66.1591 52.52C66.2471 52.456 66.3471 52.368 66.4591 52.256C66.5631 52.144 66.6511 52.06 66.7231 52.004C66.7951 51.94 66.8591 51.908 66.9151 51.908C67.0671 51.908 67.1431 51.976 67.1431 52.112C67.1431 52.184 67.1111 52.264 67.0471 52.352L66.7351 52.64C66.5671 52.808 66.4191 52.932 66.2911 53.012C66.1711 53.1 66.0031 53.144 65.7871 53.144ZM68.0439 47.624C67.9479 47.624 67.8639 47.596 67.7919 47.54C67.7279 47.484 67.6959 47.424 67.6959 47.36C67.6959 47.304 67.7239 47.256 67.7799 47.216C68.4519 46.928 69.2919 46.784 70.2999 46.784C70.7319 46.784 71.0879 46.8 71.3679 46.832C71.6399 46.872 71.8759 46.9 72.0759 46.916C72.2439 46.94 72.3439 46.968 72.3759 47C72.4079 47.04 72.4239 47.096 72.4239 47.168C72.4239 47.24 72.3839 47.312 72.3039 47.384C72.2239 47.448 72.1239 47.48 72.0039 47.48C71.8679 47.48 71.6399 47.444 71.3199 47.372C70.9839 47.308 70.6639 47.276 70.3599 47.276C69.5439 47.276 68.8039 47.388 68.1399 47.612L68.0919 47.624H68.0439ZM68.6679 53.18C68.5319 53.18 68.4639 53.1 68.4639 52.94C68.4639 52.86 68.4919 52.784 68.5479 52.712C68.6199 52.52 68.6919 52.26 68.7639 51.932C68.8599 51.524 68.9239 51.272 68.9559 51.176L69.0759 50.564L69.2079 49.796C69.3439 49.012 69.4719 48.448 69.5919 48.104C69.7199 47.76 69.8919 47.588 70.1079 47.588C70.1879 47.588 70.2519 47.64 70.2999 47.744L70.4559 48.152C70.4559 48.32 70.3959 48.448 70.2759 48.536C70.2439 48.56 70.2039 48.572 70.1559 48.572C70.1079 48.572 70.0639 48.548 70.0239 48.5C69.8399 49.18 69.7279 49.676 69.6879 49.988C69.6079 50.508 69.5399 50.908 69.4839 51.188C69.4519 51.276 69.4159 51.404 69.3759 51.572L69.2679 51.968C69.0599 52.776 68.8599 53.18 68.6679 53.18ZM75.4923 53.12C75.4043 53.12 75.3083 53.048 75.2043 52.904C75.1083 52.752 75.0603 52.62 75.0603 52.508V52.304C75.0603 52.056 75.2323 51.308 75.5763 50.06L75.7323 49.4L75.4083 50.084C75.3043 50.348 75.1363 50.72 74.9043 51.2C74.3123 52.464 73.6803 53.096 73.0083 53.096C72.6083 53.096 72.3363 52.876 72.1923 52.436C72.1523 52.292 72.1323 52.112 72.1323 51.896C72.1323 51.448 72.2163 50.876 72.3843 50.18C72.4803 49.78 72.5603 49.484 72.6243 49.292L72.7203 48.98C72.8083 48.676 72.8963 48.356 72.9843 48.02C73.0803 47.676 73.1323 47.416 73.1403 47.24C73.1643 47.16 73.2083 47.092 73.2723 47.036C73.3443 46.98 73.4203 46.952 73.5003 46.952C73.5803 46.952 73.6443 47.056 73.6923 47.264C73.6923 47.472 73.6523 47.728 73.5723 48.032C73.4923 48.328 73.4123 48.592 73.3323 48.824C73.2603 49.056 73.2163 49.204 73.2003 49.268C72.8723 50.3 72.7083 51.196 72.7083 51.956C72.7083 52.196 72.8003 52.364 72.9843 52.46C73.0483 52.492 73.1363 52.508 73.2483 52.508C73.4723 52.508 73.7403 52.284 74.0523 51.836C74.3403 51.42 74.6323 50.9 74.9283 50.276C75.2243 49.652 75.4643 49.084 75.6483 48.572C75.8403 48.02 76.0003 47.616 76.1283 47.36C76.2563 47.104 76.3963 46.976 76.5483 46.976C76.6843 46.976 76.7523 47.044 76.7523 47.18C76.7523 47.284 76.6883 47.568 76.5603 48.032C76.4403 48.424 76.3603 48.704 76.3203 48.872C76.2803 49.032 76.2323 49.26 76.1763 49.556L75.8883 51.188L75.7563 51.872C75.7483 51.944 75.7283 52.052 75.6963 52.196C75.6963 52.348 75.7203 52.448 75.7683 52.496L75.8763 52.64C75.9003 52.664 75.9123 52.716 75.9123 52.796C75.9123 52.876 75.8643 52.948 75.7683 53.012C75.6803 53.084 75.5883 53.12 75.4923 53.12ZM78.8733 53.12C78.6173 53.12 78.4173 53.08 78.2733 53C78.1293 52.912 78.0133 52.78 77.9253 52.604C77.7573 52.292 77.6733 51.916 77.6733 51.476C77.6733 50.708 77.7893 49.98 78.0213 49.292C78.2533 48.596 78.5693 48.012 78.9693 47.54C79.3533 47.092 79.7733 46.868 80.2293 46.868C80.4693 46.868 80.6573 46.968 80.7933 47.168C80.9373 47.36 81.0093 47.596 81.0093 47.876C81.0093 48.364 80.8813 48.788 80.6253 49.148C80.3773 49.508 80.0413 49.808 79.6173 50.048C79.2493 50.264 78.8013 50.48 78.2733 50.696L78.2493 51.56C78.2493 52.232 78.4533 52.568 78.8613 52.568C79.0453 52.568 79.2373 52.524 79.4373 52.436C79.6373 52.34 79.8453 52.228 80.0613 52.1C80.1653 52.044 80.2493 52.016 80.3133 52.016C80.4493 52.016 80.5173 52.088 80.5173 52.232C80.5173 52.336 80.4173 52.46 80.2173 52.604C80.0253 52.748 79.7973 52.872 79.5333 52.976C79.2693 53.072 79.0493 53.12 78.8733 53.12ZM78.3693 50.12C78.4413 50.08 78.6013 49.996 78.8493 49.868C78.9613 49.82 79.1213 49.74 79.3293 49.628C79.7053 49.42 79.9853 49.18 80.1693 48.908C80.3613 48.636 80.4573 48.3 80.4573 47.9C80.4573 47.588 80.3253 47.432 80.0613 47.432C79.8293 47.432 79.5573 47.644 79.2453 48.068C78.9173 48.492 78.6533 49.048 78.4533 49.736C78.3973 49.928 78.3693 50.056 78.3693 50.12ZM85.7972 53.12C85.6372 53.12 85.4852 53.036 85.3412 52.868C85.2052 52.7 85.0932 52.476 85.0052 52.196C84.9252 51.916 84.8852 51.62 84.8852 51.308C84.8852 50.924 84.9012 50.532 84.9332 50.132C84.8132 50.116 84.7532 50.048 84.7532 49.928C84.7532 49.904 84.7612 49.86 84.7772 49.796L85.0172 49.376C85.1932 48.128 85.5452 46.492 86.0732 44.468C86.4492 43.108 86.8932 42.164 87.4052 41.636C87.5732 41.46 87.7332 41.372 87.8852 41.372C88.4372 41.372 88.7132 41.708 88.7132 42.38C88.7132 43.22 88.3412 44.18 87.5972 45.26C87.3892 45.572 87.1012 45.992 86.7332 46.52C86.3492 47.064 86.0572 47.56 85.8572 48.008C85.8172 48.096 85.7612 48.156 85.6892 48.188L85.6532 48.416C86.4292 47.424 87.1292 46.928 87.7532 46.928C88.0012 46.928 88.1772 47.06 88.2812 47.324C88.3852 47.58 88.4372 47.88 88.4372 48.224C88.4372 48.784 88.3132 49.456 88.0652 50.24C87.8252 51.016 87.5292 51.66 87.1772 52.172C86.7292 52.804 86.2692 53.12 85.7972 53.12ZM86.3732 46.232C86.5972 45.896 86.7492 45.664 86.8292 45.536L87.0332 45.236C87.7612 44.1 88.1252 43.224 88.1252 42.608C88.1252 42.408 88.1132 42.26 88.0892 42.164C88.0652 42.06 88.0052 42.008 87.9092 42.008C87.7332 42.008 87.5252 42.248 87.2852 42.728C86.8132 43.664 86.3652 45.06 85.9412 46.916L86.3732 46.232ZM85.9172 52.532C86.2132 52.532 86.5092 52.284 86.8052 51.788C87.1092 51.292 87.3652 50.672 87.5732 49.928C87.7652 49.216 87.8612 48.696 87.8612 48.368C87.8612 48.016 87.8412 47.804 87.8012 47.732C87.7612 47.644 87.6612 47.6 87.5012 47.6C87.2132 47.6 86.9052 47.768 86.5772 48.104C86.2572 48.432 85.8972 48.92 85.4972 49.568C85.4492 50.024 85.4252 50.448 85.4252 50.84C85.4252 51.968 85.5892 52.532 85.9172 52.532ZM93.5309 53.156C93.3309 53.156 93.1469 53.092 92.9789 52.964C92.8109 52.836 92.6749 52.668 92.5709 52.46C92.4749 52.252 92.4269 52.044 92.4269 51.836C92.4509 51.756 92.4949 51.688 92.5589 51.632C92.6309 51.576 92.6989 51.548 92.7629 51.548C92.8269 51.548 92.8749 51.576 92.9069 51.632C92.9469 51.696 92.9949 51.836 93.0509 52.052C93.1309 52.396 93.2949 52.568 93.5429 52.568C93.8629 52.568 94.1589 52.404 94.4309 52.076C94.7029 51.748 95.0149 51.28 95.3669 50.672L95.5469 50.372C95.8269 49.916 96.0069 49.648 96.0869 49.568C95.9909 49.232 95.9149 48.98 95.8589 48.812C95.5789 47.86 95.2589 47.384 94.8989 47.384C94.6269 47.384 94.3949 47.516 94.2029 47.78C94.1789 47.82 94.1269 47.84 94.0469 47.84C93.9029 47.84 93.8309 47.772 93.8309 47.636C93.8309 47.444 93.9549 47.268 94.2029 47.108C94.4509 46.948 94.6949 46.868 94.9349 46.868C95.1749 46.868 95.3669 46.924 95.5109 47.036C95.6549 47.14 95.7629 47.276 95.8349 47.444C95.9149 47.612 96.0069 47.872 96.1109 48.224C96.1189 48.264 96.1509 48.376 96.2069 48.56L96.5429 49.592C96.7349 48.576 96.8589 47.972 96.9149 47.78C96.9869 47.484 97.0269 47.272 97.0349 47.144C97.0589 47.064 97.1029 46.996 97.1669 46.94C97.2389 46.884 97.3109 46.856 97.3829 46.856C97.4789 46.856 97.5469 46.924 97.5869 47.06C97.5869 47.228 97.5629 47.384 97.5149 47.528C97.4909 47.6 97.4349 47.856 97.3469 48.296C97.2989 48.616 97.2429 48.912 97.1789 49.184C97.8109 48.328 98.4109 47.692 98.9789 47.276C99.3069 47.036 99.5669 46.916 99.7589 46.916C99.8789 46.916 99.9989 46.964 100.119 47.06C100.239 47.156 100.339 47.268 100.419 47.396C100.499 47.524 100.539 47.636 100.539 47.732C100.539 47.868 100.507 47.972 100.443 48.044C100.387 48.116 100.315 48.152 100.227 48.152C100.155 48.152 100.095 48.124 100.047 48.068C99.9989 48.004 99.9509 47.92 99.9029 47.816C99.8869 47.784 99.8629 47.736 99.8309 47.672C99.8069 47.608 99.7789 47.56 99.7469 47.528C99.7229 47.496 99.6949 47.48 99.6629 47.48C99.6069 47.48 99.5109 47.52 99.3749 47.6C99.2469 47.672 98.9909 47.9 98.6069 48.284C98.2309 48.668 97.9389 48.98 97.7309 49.22C97.7549 49.996 97.8709 50.7 98.0789 51.332C98.2309 51.804 98.4509 52.152 98.7389 52.376C98.8589 52.488 99.0109 52.544 99.1949 52.544C99.5229 52.544 99.8669 52.308 100.227 51.836C100.291 51.772 100.371 51.74 100.467 51.74C100.611 51.74 100.683 51.804 100.683 51.932C100.683 52.068 100.603 52.232 100.443 52.424C100.283 52.608 100.091 52.768 99.8669 52.904C99.6429 53.04 99.4469 53.108 99.2789 53.108C98.8149 53.108 98.4269 52.892 98.1149 52.46C97.7069 51.892 97.4229 51.024 97.2629 49.856C97.1509 50.024 97.0709 50.16 97.0229 50.264V50.276C97.0069 50.372 96.9749 50.44 96.9269 50.48C96.7429 51.456 96.6029 52.224 96.5069 52.784C96.4909 52.88 96.4469 52.96 96.3749 53.024C96.3109 53.088 96.2429 53.12 96.1709 53.12C96.0509 53.12 95.9789 53.036 95.9549 52.868L96.3989 50.408C96.3669 50.368 96.3469 50.324 96.3389 50.276L96.2789 50.132C96.1349 50.332 95.9669 50.588 95.7749 50.9C95.6389 51.124 95.4749 51.376 95.2829 51.656C94.8669 52.24 94.4469 52.68 94.0229 52.976C93.8549 53.096 93.6909 53.156 93.5309 53.156ZM104.649 53.12C104.561 53.12 104.465 53.048 104.361 52.904C104.265 52.752 104.217 52.62 104.217 52.508V52.304C104.217 52.056 104.389 51.308 104.733 50.06L104.889 49.4L104.565 50.084C104.461 50.348 104.293 50.72 104.061 51.2C103.469 52.464 102.837 53.096 102.165 53.096C101.765 53.096 101.493 52.876 101.349 52.436C101.309 52.292 101.289 52.112 101.289 51.896C101.289 51.448 101.373 50.876 101.541 50.18C101.637 49.78 101.717 49.484 101.781 49.292L101.877 48.98C101.965 48.676 102.053 48.356 102.141 48.02C102.237 47.676 102.289 47.416 102.297 47.24C102.321 47.16 102.365 47.092 102.429 47.036C102.501 46.98 102.577 46.952 102.657 46.952C102.737 46.952 102.801 47.056 102.849 47.264C102.849 47.472 102.809 47.728 102.729 48.032C102.649 48.328 102.569 48.592 102.489 48.824C102.417 49.056 102.373 49.204 102.357 49.268C102.029 50.3 101.865 51.196 101.865 51.956C101.865 52.196 101.957 52.364 102.141 52.46C102.205 52.492 102.293 52.508 102.405 52.508C102.629 52.508 102.897 52.284 103.209 51.836C103.497 51.42 103.789 50.9 104.085 50.276C104.381 49.652 104.621 49.084 104.805 48.572C104.997 48.02 105.157 47.616 105.285 47.36C105.413 47.104 105.553 46.976 105.705 46.976C105.841 46.976 105.909 47.044 105.909 47.18C105.909 47.284 105.845 47.568 105.717 48.032C105.597 48.424 105.517 48.704 105.477 48.872C105.437 49.032 105.389 49.26 105.333 49.556L105.045 51.188L104.913 51.872C104.905 51.944 104.885 52.052 104.853 52.196C104.853 52.348 104.877 52.448 104.925 52.496L105.033 52.64C105.057 52.664 105.069 52.716 105.069 52.796C105.069 52.876 105.021 52.948 104.925 53.012C104.837 53.084 104.745 53.12 104.649 53.12ZM107.312 57.92C106.816 57.92 106.448 57.776 106.208 57.488C105.968 57.2 105.848 56.828 105.848 56.372C105.848 55.948 105.972 55.536 106.22 55.136C106.468 54.736 106.82 54.336 107.276 53.936C107.732 53.536 108.34 53.056 109.1 52.496C109.132 52.048 109.148 51.752 109.148 51.608C109.148 51.312 109.104 51.08 109.016 50.912C108.928 50.736 108.768 50.644 108.536 50.636L108.368 50.756C107.8 51.156 107.372 51.356 107.084 51.356C106.98 51.356 106.904 51.332 106.856 51.284C106.808 51.236 106.784 51.176 106.784 51.104C106.784 51.04 106.832 50.956 106.928 50.852C107.056 50.716 107.248 50.576 107.504 50.432C107.76 50.28 108.052 50.176 108.38 50.12C108.86 49.696 109.196 49.34 109.388 49.052C109.588 48.756 109.688 48.404 109.688 47.996C109.688 47.804 109.64 47.664 109.544 47.576C109.448 47.488 109.276 47.444 109.028 47.444C108.756 47.444 108.524 47.472 108.332 47.528C108.148 47.584 107.924 47.708 107.66 47.9C107.388 48.1 107.208 48.2 107.12 48.2C106.976 48.2 106.904 48.116 106.904 47.948C106.904 47.868 106.968 47.764 107.096 47.636C107.232 47.508 107.4 47.388 107.6 47.276C108.096 47.02 108.572 46.892 109.028 46.892C109.468 46.892 109.776 46.98 109.952 47.156C110.128 47.332 110.216 47.604 110.216 47.972C110.216 48.772 109.844 49.508 109.1 50.18C109.5 50.356 109.7 50.828 109.7 51.596L109.676 52.088L110.588 51.44C110.652 51.408 110.708 51.392 110.756 51.392C110.892 51.392 110.96 51.464 110.96 51.608C110.96 51.68 110.928 51.76 110.864 51.848C110.696 51.96 110.592 52.028 110.552 52.052L109.616 52.712C109.488 53.672 109.308 54.572 109.076 55.412C108.852 56.26 108.66 56.82 108.5 57.092C108.34 57.364 108.172 57.568 107.996 57.704C107.82 57.848 107.592 57.92 107.312 57.92ZM107.192 57.404C107.432 57.404 107.628 57.316 107.78 57.14C108.036 56.836 108.328 56.06 108.656 54.812C108.816 54.252 108.936 53.696 109.016 53.144C108.032 53.896 107.3 54.564 106.82 55.148C106.516 55.524 106.364 55.896 106.364 56.264C106.364 56.624 106.44 56.904 106.592 57.104C106.744 57.304 106.944 57.404 107.192 57.404ZM115.334 53.132C115.11 53.132 114.938 53.072 114.818 52.952C114.706 52.832 114.65 52.676 114.65 52.484C114.65 52.284 114.702 51.94 114.806 51.452L115.082 50C114.498 50.44 113.958 50.66 113.462 50.66C113.102 50.66 112.826 50.564 112.634 50.372C112.618 50.452 112.602 50.532 112.586 50.612C112.578 50.692 112.566 50.772 112.55 50.852C112.518 51.116 112.478 51.384 112.43 51.656C112.286 52.608 112.07 53.084 111.782 53.084C111.662 53.084 111.59 53 111.566 52.832C111.638 52.208 111.814 51.24 112.094 49.928C112.382 48.608 112.586 47.716 112.706 47.252C112.73 47.172 112.774 47.104 112.838 47.048C112.91 46.992 112.982 46.964 113.054 46.964C113.15 46.964 113.218 47.032 113.258 47.168C113.258 47.296 113.186 47.712 113.042 48.416C112.93 48.952 112.842 49.412 112.778 49.796C112.954 49.996 113.23 50.096 113.606 50.096C113.974 50.096 114.378 49.912 114.818 49.544C114.954 49.424 115.082 49.296 115.202 49.16L115.382 48.356C115.518 47.772 115.666 47.368 115.826 47.144C115.906 47.016 116.014 46.952 116.15 46.952C116.286 46.952 116.354 47.028 116.354 47.18V47.24C115.914 48.752 115.638 49.848 115.526 50.528C115.422 51.112 115.354 51.572 115.322 51.908C115.298 52.172 115.282 52.316 115.274 52.34L115.262 52.496C115.262 52.544 115.282 52.568 115.322 52.568C115.354 52.568 115.382 52.556 115.406 52.532C115.446 52.508 115.51 52.496 115.598 52.496C115.734 52.496 115.802 52.568 115.802 52.712C115.802 52.992 115.646 53.132 115.334 53.132ZM120.656 53.12C120.568 53.12 120.472 53.048 120.368 52.904C120.272 52.752 120.224 52.62 120.224 52.508V52.304C120.224 52.056 120.396 51.308 120.74 50.06L120.896 49.4L120.572 50.084C120.468 50.348 120.3 50.72 120.068 51.2C119.476 52.464 118.844 53.096 118.172 53.096C117.772 53.096 117.5 52.876 117.356 52.436C117.316 52.292 117.296 52.112 117.296 51.896C117.296 51.448 117.38 50.876 117.548 50.18C117.644 49.78 117.724 49.484 117.788 49.292L117.884 48.98C117.972 48.676 118.06 48.356 118.148 48.02C118.244 47.676 118.296 47.416 118.304 47.24C118.328 47.16 118.372 47.092 118.436 47.036C118.508 46.98 118.584 46.952 118.664 46.952C118.744 46.952 118.808 47.056 118.856 47.264C118.856 47.472 118.816 47.728 118.736 48.032C118.656 48.328 118.576 48.592 118.496 48.824C118.424 49.056 118.38 49.204 118.364 49.268C118.036 50.3 117.872 51.196 117.872 51.956C117.872 52.196 117.964 52.364 118.148 52.46C118.212 52.492 118.3 52.508 118.412 52.508C118.636 52.508 118.904 52.284 119.216 51.836C119.504 51.42 119.796 50.9 120.092 50.276C120.388 49.652 120.628 49.084 120.812 48.572C121.004 48.02 121.164 47.616 121.292 47.36C121.42 47.104 121.56 46.976 121.712 46.976C121.848 46.976 121.916 47.044 121.916 47.18C121.916 47.284 121.852 47.568 121.724 48.032C121.604 48.424 121.524 48.704 121.484 48.872C121.444 49.032 121.396 49.26 121.34 49.556L121.052 51.188L120.92 51.872C120.912 51.944 120.892 52.052 120.86 52.196C120.86 52.348 120.884 52.448 120.932 52.496L121.04 52.64C121.064 52.664 121.076 52.716 121.076 52.796C121.076 52.876 121.028 52.948 120.932 53.012C120.844 53.084 120.752 53.12 120.656 53.12ZM126.125 53.108C125.869 53.108 125.649 53.024 125.465 52.856C125.281 52.688 125.189 52.48 125.189 52.232C125.189 51.968 125.285 51.752 125.477 51.584C125.677 51.408 125.925 51.32 126.221 51.32C126.453 51.32 126.681 51.348 126.905 51.404C127.137 51.46 127.333 51.548 127.493 51.668C128.925 50.244 129.641 49.14 129.641 48.356C129.641 47.748 129.241 47.444 128.441 47.444C128.145 47.444 127.861 47.5 127.589 47.612C127.325 47.716 127.109 47.856 126.941 48.032C126.781 48.2 126.701 48.38 126.701 48.572C126.669 48.644 126.621 48.704 126.557 48.752C126.493 48.792 126.433 48.812 126.377 48.812C126.233 48.812 126.161 48.74 126.161 48.596C126.161 48.3 126.289 48.024 126.545 47.768C126.809 47.504 127.125 47.292 127.493 47.132C127.869 46.972 128.209 46.892 128.513 46.892C129.625 46.892 130.181 47.364 130.181 48.308C130.181 49.252 129.445 50.46 127.973 51.932C128.341 52.148 128.633 52.3 128.849 52.388C129.073 52.476 129.301 52.52 129.533 52.52C129.757 52.52 129.913 52.44 130.001 52.28C130.089 52.12 130.165 51.884 130.229 51.572C130.285 51.268 130.357 51.044 130.445 50.9C130.493 50.812 130.573 50.768 130.685 50.768C130.789 50.768 130.857 50.84 130.889 50.984C130.841 51.592 130.745 52.028 130.601 52.292C130.313 52.812 129.965 53.072 129.557 53.072C129.309 53.072 129.065 53.024 128.825 52.928C128.593 52.824 128.313 52.676 127.985 52.484C127.825 52.388 127.705 52.32 127.625 52.28C127.497 52.456 127.305 52.64 127.049 52.832C126.793 53.016 126.485 53.108 126.125 53.108ZM126.161 52.532C126.449 52.532 126.769 52.368 127.121 52.04C126.785 51.904 126.529 51.836 126.353 51.836C126.161 51.836 126.005 51.876 125.885 51.956C125.773 52.036 125.717 52.128 125.717 52.232C125.717 52.432 125.865 52.532 126.161 52.532Z" fill="#6D6F72"/>
<path d="M2.772 104.18C2.452 104.18 2.148 104.096 1.86 103.928C1.244 103.576 0.804 102.956 0.54 102.068C0.412 101.636 0.348 101.208 0.348 100.784C0.348 100.096 0.456 99.292 0.672 98.372C0.888 97.444 1.192 96.52 1.584 95.6C2 94.616 2.484 93.824 3.036 93.224C3.596 92.616 4.176 92.312 4.776 92.312C5.176 92.312 5.544 92.432 5.88 92.672C6.224 92.912 6.496 93.22 6.696 93.596C6.896 93.964 6.996 94.328 6.996 94.688C6.988 94.768 6.948 94.844 6.876 94.916C6.804 94.988 6.732 95.024 6.66 95.024C6.588 95.024 6.536 95 6.504 94.952C6.456 94.88 6.42 94.752 6.396 94.568C6.332 94.064 6.152 93.66 5.856 93.356C5.56 93.044 5.196 92.888 4.764 92.888C4.332 92.888 3.868 93.184 3.372 93.776C2.956 94.272 2.56 94.94 2.184 95.78C1.816 96.62 1.52 97.476 1.296 98.348C1.072 99.212 0.96 99.924 0.96 100.484C0.96 101.372 1.124 102.112 1.452 102.704C1.78 103.296 2.252 103.592 2.868 103.592C3.348 103.592 3.896 103.368 4.512 102.92L4.932 102.62C5.02 102.54 5.104 102.5 5.184 102.5C5.32 102.5 5.388 102.572 5.388 102.716C5.388 102.828 5.328 102.928 5.208 103.016C4.984 103.168 4.8 103.3 4.656 103.412C3.976 103.924 3.348 104.18 2.772 104.18ZM8.88506 104.108C8.46906 104.108 8.15706 103.944 7.94906 103.616C7.74906 103.288 7.64906 102.896 7.64906 102.44C7.64906 101.712 7.76906 101.008 8.00906 100.328C8.25706 99.64 8.59306 99.072 9.01706 98.624C9.42506 98.168 9.88506 97.94 10.3971 97.94C11.1331 97.94 11.5011 98.5 11.5011 99.62C11.5011 100.18 11.4091 100.752 11.2251 101.336C11.0411 101.92 10.8011 102.44 10.5051 102.896C10.2171 103.352 9.91706 103.68 9.60506 103.88C9.36506 104.032 9.12506 104.108 8.88506 104.108ZM8.98106 103.568C9.22906 103.568 9.50506 103.352 9.80906 102.92C10.1211 102.488 10.3811 101.952 10.5891 101.312C10.8051 100.672 10.9131 100.128 10.9131 99.68C10.9131 99.216 10.8851 98.928 10.8291 98.816C10.7811 98.696 10.7211 98.612 10.6491 98.564C10.5771 98.516 10.4651 98.492 10.3131 98.492C10.1451 98.492 9.96906 98.556 9.78506 98.684C9.41706 98.916 9.09706 99.316 8.82506 99.884C8.40106 100.732 8.18906 101.556 8.18906 102.356C8.18906 102.9 8.34506 103.276 8.65706 103.484C8.76906 103.54 8.87706 103.568 8.98106 103.568ZM13.4314 104.144C12.6954 104.144 12.3274 103.692 12.3274 102.788C12.3274 102.1 12.3994 101.44 12.5434 100.808C12.6954 100.168 12.8914 99.612 13.1314 99.14C13.3794 98.668 13.6474 98.328 13.9354 98.12C14.1594 97.96 14.3674 97.88 14.5594 97.88C14.9274 97.88 15.1874 97.956 15.3394 98.108C15.2514 97.828 15.1234 97.54 14.9554 97.244C14.7714 96.94 14.6194 96.664 14.4994 96.416C14.1314 95.736 13.9474 95.08 13.9474 94.448C13.9474 94.04 14.0274 93.68 14.1874 93.368C14.3554 93.048 14.5794 92.8 14.8594 92.624C15.1394 92.44 15.4554 92.348 15.8074 92.348C16.1274 92.348 16.4194 92.392 16.6834 92.48C17.0194 92.576 17.2674 92.64 17.4274 92.672C17.5954 92.704 17.7954 92.72 18.0274 92.72C18.4274 92.72 18.7434 92.676 18.9754 92.588C18.9754 92.588 19.0594 92.56 19.2274 92.504C19.2914 92.48 19.3714 92.468 19.4674 92.468C19.6114 92.468 19.6834 92.528 19.6834 92.648C19.6834 92.824 19.5354 92.972 19.2394 93.092C18.9434 93.212 18.6194 93.272 18.2674 93.272C17.9714 93.272 17.7434 93.26 17.5834 93.236C17.4234 93.204 17.1394 93.132 16.7314 93.02C16.3794 92.932 16.0114 92.888 15.6274 92.888C15.2674 92.888 14.9914 93.044 14.7994 93.356C14.6074 93.668 14.5114 94.036 14.5114 94.46C14.5114 94.844 14.5634 95.188 14.6674 95.492C14.7714 95.788 14.9794 96.2 15.2914 96.728C15.8034 97.576 16.0594 98.312 16.0594 98.936L15.9994 99.476V99.5C15.9994 100.124 15.9074 100.74 15.7234 101.348C15.5474 101.956 15.3154 102.488 15.0274 102.944C14.7474 103.4 14.4554 103.728 14.1514 103.928C13.9274 104.072 13.6874 104.144 13.4314 104.144ZM13.4194 103.556C13.6274 103.556 13.8194 103.488 13.9954 103.352C14.1714 103.208 14.3394 103.004 14.4994 102.74C14.7794 102.252 15.0074 101.672 15.1834 101C15.3594 100.36 15.4474 99.796 15.4474 99.308C15.4474 99.044 15.3794 98.844 15.2434 98.708C15.1074 98.572 14.9274 98.504 14.7034 98.504C14.4954 98.504 14.3194 98.564 14.1754 98.684C14.0394 98.804 13.8714 99.02 13.6714 99.332C13.4714 99.652 13.2834 100.12 13.1074 100.736C12.9394 101.344 12.8554 101.86 12.8554 102.284C12.8554 102.732 12.8954 103.056 12.9754 103.256C13.0554 103.456 13.2034 103.556 13.4194 103.556ZM22.7871 104.144C22.5471 104.144 22.3791 104.064 22.2831 103.904C22.1951 103.744 22.1511 103.472 22.1511 103.088C22.1511 102.432 22.3111 101.596 22.6311 100.58C22.1431 100.964 21.5831 101.156 20.9511 101.156C20.7351 101.156 20.5671 101.148 20.4471 101.132L20.4831 101.408C20.4831 101.8 20.3791 102.2 20.1711 102.608C19.9711 103.008 19.7031 103.344 19.3671 103.616C19.0391 103.88 18.6991 104.012 18.3471 104.012C17.7551 104.012 17.4591 103.636 17.4591 102.884C17.4591 101.948 17.6431 100.98 18.0111 99.98C18.1791 99.508 18.2951 99.152 18.3591 98.912C18.4231 98.672 18.4671 98.42 18.4911 98.156C18.5151 98.076 18.5591 98.008 18.6231 97.952C18.6951 97.896 18.7671 97.868 18.8391 97.868C18.9351 97.868 19.0031 97.936 19.0431 98.072C19.0111 98.408 18.9471 98.74 18.8511 99.068C18.7631 99.396 18.6351 99.816 18.4671 100.328C18.1551 101.312 17.9991 102.1 17.9991 102.692C17.9991 103.02 18.0671 103.252 18.2031 103.388C18.2511 103.444 18.3511 103.472 18.5031 103.472C18.6471 103.472 18.8111 103.408 18.9951 103.28C19.1791 103.152 19.3391 102.988 19.4751 102.788C19.7791 102.364 19.9311 101.9 19.9311 101.396C19.9311 101.276 19.9191 101.164 19.8951 101.06C19.3431 100.948 19.0671 100.764 19.0671 100.508C19.0671 100.364 19.1351 100.24 19.2711 100.136C19.4151 100.032 19.5551 99.98 19.6911 99.98C19.9311 99.98 20.1351 100.184 20.3031 100.592C20.4311 100.624 20.5951 100.64 20.7951 100.64C21.2671 100.64 21.6951 100.524 22.0791 100.292C22.4631 100.06 22.7831 99.736 23.0391 99.32C23.0951 99.152 23.1351 99.012 23.1591 98.9C23.3271 98.252 23.5471 97.928 23.8191 97.928C23.9631 97.928 24.0351 98.028 24.0351 98.228C23.8911 98.724 23.7071 99.168 23.4831 99.56C22.9711 101.048 22.7151 102.18 22.7151 102.956C22.7151 103.388 22.7711 103.604 22.8831 103.604C22.9871 103.604 23.0791 103.576 23.1591 103.52C23.2471 103.456 23.3471 103.368 23.4591 103.256C23.5631 103.144 23.6511 103.06 23.7231 103.004C23.7951 102.94 23.8591 102.908 23.9151 102.908C24.0671 102.908 24.1431 102.976 24.1431 103.112C24.1431 103.184 24.1111 103.264 24.0471 103.352L23.7351 103.64C23.5671 103.808 23.4191 103.932 23.2911 104.012C23.1711 104.1 23.0031 104.144 22.7871 104.144ZM25.0439 98.624C24.9479 98.624 24.8639 98.596 24.7919 98.54C24.7279 98.484 24.6959 98.424 24.6959 98.36C24.6959 98.304 24.7239 98.256 24.7799 98.216C25.4519 97.928 26.2919 97.784 27.2999 97.784C27.7319 97.784 28.0879 97.8 28.3679 97.832C28.6399 97.872 28.8759 97.9 29.0759 97.916C29.2439 97.94 29.3439 97.968 29.3759 98C29.4079 98.04 29.4239 98.096 29.4239 98.168C29.4239 98.24 29.3839 98.312 29.3039 98.384C29.2239 98.448 29.1239 98.48 29.0039 98.48C28.8679 98.48 28.6399 98.444 28.3199 98.372C27.9839 98.308 27.6639 98.276 27.3599 98.276C26.5439 98.276 25.8039 98.388 25.1399 98.612L25.0919 98.624H25.0439ZM25.6679 104.18C25.5319 104.18 25.4639 104.1 25.4639 103.94C25.4639 103.86 25.4919 103.784 25.5479 103.712C25.6199 103.52 25.6919 103.26 25.7639 102.932C25.8599 102.524 25.9239 102.272 25.9559 102.176L26.0759 101.564L26.2079 100.796C26.3439 100.012 26.4719 99.448 26.5919 99.104C26.7199 98.76 26.8919 98.588 27.1079 98.588C27.1879 98.588 27.2519 98.64 27.2999 98.744L27.4559 99.152C27.4559 99.32 27.3959 99.448 27.2759 99.536C27.2439 99.56 27.2039 99.572 27.1559 99.572C27.1079 99.572 27.0639 99.548 27.0239 99.5C26.8399 100.18 26.7279 100.676 26.6879 100.988C26.6079 101.508 26.5399 101.908 26.4839 102.188C26.4519 102.276 26.4159 102.404 26.3759 102.572L26.2679 102.968C26.0599 103.776 25.8599 104.18 25.6679 104.18ZM32.4923 104.12C32.4043 104.12 32.3083 104.048 32.2043 103.904C32.1083 103.752 32.0603 103.62 32.0603 103.508V103.304C32.0603 103.056 32.2323 102.308 32.5763 101.06L32.7323 100.4L32.4083 101.084C32.3043 101.348 32.1363 101.72 31.9043 102.2C31.3123 103.464 30.6803 104.096 30.0083 104.096C29.6083 104.096 29.3363 103.876 29.1923 103.436C29.1523 103.292 29.1323 103.112 29.1323 102.896C29.1323 102.448 29.2163 101.876 29.3843 101.18C29.4803 100.78 29.5603 100.484 29.6243 100.292L29.7203 99.98C29.8083 99.676 29.8963 99.356 29.9843 99.02C30.0803 98.676 30.1323 98.416 30.1403 98.24C30.1643 98.16 30.2083 98.092 30.2723 98.036C30.3443 97.98 30.4203 97.952 30.5003 97.952C30.5803 97.952 30.6443 98.056 30.6923 98.264C30.6923 98.472 30.6523 98.728 30.5723 99.032C30.4923 99.328 30.4123 99.592 30.3323 99.824C30.2603 100.056 30.2163 100.204 30.2003 100.268C29.8723 101.3 29.7083 102.196 29.7083 102.956C29.7083 103.196 29.8003 103.364 29.9843 103.46C30.0483 103.492 30.1363 103.508 30.2483 103.508C30.4723 103.508 30.7403 103.284 31.0523 102.836C31.3403 102.42 31.6323 101.9 31.9283 101.276C32.2243 100.652 32.4643 100.084 32.6483 99.572C32.8403 99.02 33.0003 98.616 33.1283 98.36C33.2563 98.104 33.3963 97.976 33.5483 97.976C33.6843 97.976 33.7523 98.044 33.7523 98.18C33.7523 98.284 33.6883 98.568 33.5603 99.032C33.4403 99.424 33.3603 99.704 33.3203 99.872C33.2803 100.032 33.2323 100.26 33.1763 100.556L32.8883 102.188L32.7563 102.872C32.7483 102.944 32.7283 103.052 32.6963 103.196C32.6963 103.348 32.7203 103.448 32.7683 103.496L32.8763 103.64C32.9003 103.664 32.9123 103.716 32.9123 103.796C32.9123 103.876 32.8643 103.948 32.7683 104.012C32.6803 104.084 32.5883 104.12 32.4923 104.12ZM35.8733 104.12C35.6173 104.12 35.4173 104.08 35.2733 104C35.1293 103.912 35.0133 103.78 34.9253 103.604C34.7573 103.292 34.6733 102.916 34.6733 102.476C34.6733 101.708 34.7893 100.98 35.0213 100.292C35.2533 99.596 35.5693 99.012 35.9693 98.54C36.3533 98.092 36.7733 97.868 37.2293 97.868C37.4693 97.868 37.6573 97.968 37.7933 98.168C37.9373 98.36 38.0093 98.596 38.0093 98.876C38.0093 99.364 37.8813 99.788 37.6253 100.148C37.3773 100.508 37.0413 100.808 36.6173 101.048C36.2493 101.264 35.8013 101.48 35.2733 101.696L35.2493 102.56C35.2493 103.232 35.4533 103.568 35.8613 103.568C36.0453 103.568 36.2373 103.524 36.4373 103.436C36.6373 103.34 36.8453 103.228 37.0613 103.1C37.1653 103.044 37.2493 103.016 37.3133 103.016C37.4493 103.016 37.5173 103.088 37.5173 103.232C37.5173 103.336 37.4173 103.46 37.2173 103.604C37.0253 103.748 36.7973 103.872 36.5333 103.976C36.2693 104.072 36.0493 104.12 35.8733 104.12ZM35.3693 101.12C35.4413 101.08 35.6013 100.996 35.8493 100.868C35.9613 100.82 36.1213 100.74 36.3293 100.628C36.7053 100.42 36.9853 100.18 37.1693 99.908C37.3613 99.636 37.4573 99.3 37.4573 98.9C37.4573 98.588 37.3253 98.432 37.0613 98.432C36.8293 98.432 36.5573 98.644 36.2453 99.068C35.9173 99.492 35.6533 100.048 35.4533 100.736C35.3973 100.928 35.3693 101.056 35.3693 101.12ZM42.7972 104.12C42.6372 104.12 42.4852 104.036 42.3412 103.868C42.2052 103.7 42.0932 103.476 42.0052 103.196C41.9252 102.916 41.8852 102.62 41.8852 102.308C41.8852 101.924 41.9012 101.532 41.9332 101.132C41.8132 101.116 41.7532 101.048 41.7532 100.928C41.7532 100.904 41.7612 100.86 41.7772 100.796L42.0172 100.376C42.1932 99.128 42.5452 97.492 43.0732 95.468C43.4492 94.108 43.8932 93.164 44.4052 92.636C44.5732 92.46 44.7332 92.372 44.8852 92.372C45.4372 92.372 45.7132 92.708 45.7132 93.38C45.7132 94.22 45.3412 95.18 44.5972 96.26C44.3892 96.572 44.1012 96.992 43.7332 97.52C43.3492 98.064 43.0572 98.56 42.8572 99.008C42.8172 99.096 42.7612 99.156 42.6892 99.188L42.6532 99.416C43.4292 98.424 44.1292 97.928 44.7532 97.928C45.0012 97.928 45.1772 98.06 45.2812 98.324C45.3852 98.58 45.4372 98.88 45.4372 99.224C45.4372 99.784 45.3132 100.456 45.0652 101.24C44.8252 102.016 44.5292 102.66 44.1772 103.172C43.7292 103.804 43.2692 104.12 42.7972 104.12ZM43.3732 97.232C43.5972 96.896 43.7492 96.664 43.8292 96.536L44.0332 96.236C44.7612 95.1 45.1252 94.224 45.1252 93.608C45.1252 93.408 45.1132 93.26 45.0892 93.164C45.0652 93.06 45.0052 93.008 44.9092 93.008C44.7332 93.008 44.5252 93.248 44.2852 93.728C43.8132 94.664 43.3652 96.06 42.9412 97.916L43.3732 97.232ZM42.9172 103.532C43.2132 103.532 43.5092 103.284 43.8052 102.788C44.1092 102.292 44.3652 101.672 44.5732 100.928C44.7652 100.216 44.8612 99.696 44.8612 99.368C44.8612 99.016 44.8412 98.804 44.8012 98.732C44.7612 98.644 44.6612 98.6 44.5012 98.6C44.2132 98.6 43.9052 98.768 43.5772 99.104C43.2572 99.432 42.8972 99.92 42.4972 100.568C42.4492 101.024 42.4252 101.448 42.4252 101.84C42.4252 102.968 42.5892 103.532 42.9172 103.532ZM50.5309 104.156C50.3309 104.156 50.1469 104.092 49.9789 103.964C49.8109 103.836 49.6749 103.668 49.5709 103.46C49.4749 103.252 49.4269 103.044 49.4269 102.836C49.4509 102.756 49.4949 102.688 49.5589 102.632C49.6309 102.576 49.6989 102.548 49.7629 102.548C49.8269 102.548 49.8749 102.576 49.9069 102.632C49.9469 102.696 49.9949 102.836 50.0509 103.052C50.1309 103.396 50.2949 103.568 50.5429 103.568C50.8629 103.568 51.1589 103.404 51.4309 103.076C51.7029 102.748 52.0149 102.28 52.3669 101.672L52.5469 101.372C52.8269 100.916 53.0069 100.648 53.0869 100.568C52.9909 100.232 52.9149 99.98 52.8589 99.812C52.5789 98.86 52.2589 98.384 51.8989 98.384C51.6269 98.384 51.3949 98.516 51.2029 98.78C51.1789 98.82 51.1269 98.84 51.0469 98.84C50.9029 98.84 50.8309 98.772 50.8309 98.636C50.8309 98.444 50.9549 98.268 51.2029 98.108C51.4509 97.948 51.6949 97.868 51.9349 97.868C52.1749 97.868 52.3669 97.924 52.5109 98.036C52.6549 98.14 52.7629 98.276 52.8349 98.444C52.9149 98.612 53.0069 98.872 53.1109 99.224C53.1189 99.264 53.1509 99.376 53.2069 99.56L53.5429 100.592C53.7349 99.576 53.8589 98.972 53.9149 98.78C53.9869 98.484 54.0269 98.272 54.0349 98.144C54.0589 98.064 54.1029 97.996 54.1669 97.94C54.2389 97.884 54.3109 97.856 54.3829 97.856C54.4789 97.856 54.5469 97.924 54.5869 98.06C54.5869 98.228 54.5629 98.384 54.5149 98.528C54.4909 98.6 54.4349 98.856 54.3469 99.296C54.2989 99.616 54.2429 99.912 54.1789 100.184C54.8109 99.328 55.4109 98.692 55.9789 98.276C56.3069 98.036 56.5669 97.916 56.7589 97.916C56.8789 97.916 56.9989 97.964 57.1189 98.06C57.2389 98.156 57.3389 98.268 57.4189 98.396C57.4989 98.524 57.5389 98.636 57.5389 98.732C57.5389 98.868 57.5069 98.972 57.4429 99.044C57.3869 99.116 57.3149 99.152 57.2269 99.152C57.1549 99.152 57.0949 99.124 57.0469 99.068C56.9989 99.004 56.9509 98.92 56.9029 98.816C56.8869 98.784 56.8629 98.736 56.8309 98.672C56.8069 98.608 56.7789 98.56 56.7469 98.528C56.7229 98.496 56.6949 98.48 56.6629 98.48C56.6069 98.48 56.5109 98.52 56.3749 98.6C56.2469 98.672 55.9909 98.9 55.6069 99.284C55.2309 99.668 54.9389 99.98 54.7309 100.22C54.7549 100.996 54.8709 101.7 55.0789 102.332C55.2309 102.804 55.4509 103.152 55.7389 103.376C55.8589 103.488 56.0109 103.544 56.1949 103.544C56.5229 103.544 56.8669 103.308 57.2269 102.836C57.2909 102.772 57.3709 102.74 57.4669 102.74C57.6109 102.74 57.6829 102.804 57.6829 102.932C57.6829 103.068 57.6029 103.232 57.4429 103.424C57.2829 103.608 57.0909 103.768 56.8669 103.904C56.6429 104.04 56.4469 104.108 56.2789 104.108C55.8149 104.108 55.4269 103.892 55.1149 103.46C54.7069 102.892 54.4229 102.024 54.2629 100.856C54.1509 101.024 54.0709 101.16 54.0229 101.264V101.276C54.0069 101.372 53.9749 101.44 53.9269 101.48C53.7429 102.456 53.6029 103.224 53.5069 103.784C53.4909 103.88 53.4469 103.96 53.3749 104.024C53.3109 104.088 53.2429 104.12 53.1709 104.12C53.0509 104.12 52.9789 104.036 52.9549 103.868L53.3989 101.408C53.3669 101.368 53.3469 101.324 53.3389 101.276L53.2789 101.132C53.1349 101.332 52.9669 101.588 52.7749 101.9C52.6389 102.124 52.4749 102.376 52.2829 102.656C51.8669 103.24 51.4469 103.68 51.0229 103.976C50.8549 104.096 50.6909 104.156 50.5309 104.156ZM61.6486 104.12C61.5606 104.12 61.4646 104.048 61.3606 103.904C61.2646 103.752 61.2166 103.62 61.2166 103.508V103.304C61.2166 103.056 61.3886 102.308 61.7326 101.06L61.8886 100.4L61.5646 101.084C61.4606 101.348 61.2926 101.72 61.0606 102.2C60.4686 103.464 59.8366 104.096 59.1646 104.096C58.7646 104.096 58.4926 103.876 58.3486 103.436C58.3086 103.292 58.2886 103.112 58.2886 102.896C58.2886 102.448 58.3726 101.876 58.5406 101.18C58.6366 100.78 58.7166 100.484 58.7806 100.292L58.8766 99.98C58.9646 99.676 59.0526 99.356 59.1406 99.02C59.2366 98.676 59.2886 98.416 59.2966 98.24C59.3206 98.16 59.3646 98.092 59.4286 98.036C59.5006 97.98 59.5766 97.952 59.6566 97.952C59.7366 97.952 59.8006 98.056 59.8486 98.264C59.8486 98.472 59.8086 98.728 59.7286 99.032C59.6486 99.328 59.5686 99.592 59.4886 99.824C59.4166 100.056 59.3726 100.204 59.3566 100.268C59.0286 101.3 58.8646 102.196 58.8646 102.956C58.8646 103.196 58.9566 103.364 59.1406 103.46C59.2046 103.492 59.2926 103.508 59.4046 103.508C59.6286 103.508 59.8966 103.284 60.2086 102.836C60.4966 102.42 60.7886 101.9 61.0846 101.276C61.3806 100.652 61.6206 100.084 61.8046 99.572C61.9966 99.02 62.1566 98.616 62.2846 98.36C62.4126 98.104 62.5526 97.976 62.7046 97.976C62.8406 97.976 62.9086 98.044 62.9086 98.18C62.9086 98.284 62.8446 98.568 62.7166 99.032C62.5966 99.424 62.5166 99.704 62.4766 99.872C62.4366 100.032 62.3886 100.26 62.3326 100.556L62.0446 102.188L61.9126 102.872C61.9046 102.944 61.8846 103.052 61.8526 103.196C61.8526 103.348 61.8766 103.448 61.9246 103.496L62.0326 103.64C62.0566 103.664 62.0686 103.716 62.0686 103.796C62.0686 103.876 62.0206 103.948 61.9246 104.012C61.8366 104.084 61.7446 104.12 61.6486 104.12ZM64.3124 108.92C63.8164 108.92 63.4484 108.776 63.2084 108.488C62.9684 108.2 62.8484 107.828 62.8484 107.372C62.8484 106.948 62.9724 106.536 63.2204 106.136C63.4684 105.736 63.8204 105.336 64.2764 104.936C64.7324 104.536 65.3404 104.056 66.1004 103.496C66.1324 103.048 66.1484 102.752 66.1484 102.608C66.1484 102.312 66.1044 102.08 66.0164 101.912C65.9284 101.736 65.7684 101.644 65.5364 101.636L65.3684 101.756C64.8004 102.156 64.3724 102.356 64.0844 102.356C63.9804 102.356 63.9044 102.332 63.8564 102.284C63.8084 102.236 63.7844 102.176 63.7844 102.104C63.7844 102.04 63.8324 101.956 63.9284 101.852C64.0564 101.716 64.2484 101.576 64.5044 101.432C64.7604 101.28 65.0524 101.176 65.3804 101.12C65.8604 100.696 66.1964 100.34 66.3884 100.052C66.5884 99.756 66.6884 99.404 66.6884 98.996C66.6884 98.804 66.6404 98.664 66.5444 98.576C66.4484 98.488 66.2764 98.444 66.0284 98.444C65.7564 98.444 65.5244 98.472 65.3324 98.528C65.1484 98.584 64.9244 98.708 64.6604 98.9C64.3884 99.1 64.2084 99.2 64.1204 99.2C63.9764 99.2 63.9044 99.116 63.9044 98.948C63.9044 98.868 63.9684 98.764 64.0964 98.636C64.2324 98.508 64.4004 98.388 64.6004 98.276C65.0964 98.02 65.5724 97.892 66.0284 97.892C66.4684 97.892 66.7764 97.98 66.9524 98.156C67.1284 98.332 67.2164 98.604 67.2164 98.972C67.2164 99.772 66.8444 100.508 66.1004 101.18C66.5004 101.356 66.7004 101.828 66.7004 102.596L66.6764 103.088L67.5884 102.44C67.6524 102.408 67.7084 102.392 67.7564 102.392C67.8924 102.392 67.9604 102.464 67.9604 102.608C67.9604 102.68 67.9284 102.76 67.8644 102.848C67.6964 102.96 67.5924 103.028 67.5524 103.052L66.6164 103.712C66.4884 104.672 66.3084 105.572 66.0764 106.412C65.8524 107.26 65.6604 107.82 65.5004 108.092C65.3404 108.364 65.1724 108.568 64.9964 108.704C64.8204 108.848 64.5924 108.92 64.3124 108.92ZM64.1924 108.404C64.4324 108.404 64.6284 108.316 64.7804 108.14C65.0364 107.836 65.3284 107.06 65.6564 105.812C65.8164 105.252 65.9364 104.696 66.0164 104.144C65.0324 104.896 64.3004 105.564 63.8204 106.148C63.5164 106.524 63.3644 106.896 63.3644 107.264C63.3644 107.624 63.4404 107.904 63.5924 108.104C63.7444 108.304 63.9444 108.404 64.1924 108.404ZM72.3339 104.132C72.1099 104.132 71.9379 104.072 71.8179 103.952C71.7059 103.832 71.6499 103.676 71.6499 103.484C71.6499 103.284 71.7019 102.94 71.8059 102.452L72.0819 101C71.4979 101.44 70.9579 101.66 70.4619 101.66C70.1019 101.66 69.8259 101.564 69.6339 101.372C69.6179 101.452 69.6019 101.532 69.5859 101.612C69.5779 101.692 69.5659 101.772 69.5499 101.852C69.5179 102.116 69.4779 102.384 69.4299 102.656C69.2859 103.608 69.0699 104.084 68.7819 104.084C68.6619 104.084 68.5899 104 68.5659 103.832C68.6379 103.208 68.8139 102.24 69.0939 100.928C69.3819 99.608 69.5859 98.716 69.7059 98.252C69.7299 98.172 69.7739 98.104 69.8379 98.048C69.9099 97.992 69.9819 97.964 70.0539 97.964C70.1499 97.964 70.2179 98.032 70.2579 98.168C70.2579 98.296 70.1859 98.712 70.0419 99.416C69.9299 99.952 69.8419 100.412 69.7779 100.796C69.9539 100.996 70.2299 101.096 70.6059 101.096C70.9739 101.096 71.3779 100.912 71.8179 100.544C71.9539 100.424 72.0819 100.296 72.2019 100.16L72.3819 99.356C72.5179 98.772 72.6659 98.368 72.8259 98.144C72.9059 98.016 73.0139 97.952 73.1499 97.952C73.2859 97.952 73.3539 98.028 73.3539 98.18V98.24C72.9139 99.752 72.6379 100.848 72.5259 101.528C72.4219 102.112 72.3539 102.572 72.3219 102.908C72.2979 103.172 72.2819 103.316 72.2739 103.34L72.2619 103.496C72.2619 103.544 72.2819 103.568 72.3219 103.568C72.3539 103.568 72.3819 103.556 72.4059 103.532C72.4459 103.508 72.5099 103.496 72.5979 103.496C72.7339 103.496 72.8019 103.568 72.8019 103.712C72.8019 103.992 72.6459 104.132 72.3339 104.132ZM77.6564 104.12C77.5684 104.12 77.4724 104.048 77.3684 103.904C77.2724 103.752 77.2244 103.62 77.2244 103.508V103.304C77.2244 103.056 77.3964 102.308 77.7404 101.06L77.8964 100.4L77.5724 101.084C77.4684 101.348 77.3004 101.72 77.0684 102.2C76.4764 103.464 75.8444 104.096 75.1724 104.096C74.7724 104.096 74.5004 103.876 74.3564 103.436C74.3164 103.292 74.2964 103.112 74.2964 102.896C74.2964 102.448 74.3804 101.876 74.5484 101.18C74.6444 100.78 74.7244 100.484 74.7884 100.292L74.8844 99.98C74.9724 99.676 75.0604 99.356 75.1484 99.02C75.2444 98.676 75.2964 98.416 75.3044 98.24C75.3284 98.16 75.3724 98.092 75.4364 98.036C75.5084 97.98 75.5844 97.952 75.6644 97.952C75.7444 97.952 75.8084 98.056 75.8564 98.264C75.8564 98.472 75.8164 98.728 75.7364 99.032C75.6564 99.328 75.5764 99.592 75.4964 99.824C75.4244 100.056 75.3804 100.204 75.3644 100.268C75.0364 101.3 74.8724 102.196 74.8724 102.956C74.8724 103.196 74.9644 103.364 75.1484 103.46C75.2124 103.492 75.3004 103.508 75.4124 103.508C75.6364 103.508 75.9044 103.284 76.2164 102.836C76.5044 102.42 76.7964 101.9 77.0924 101.276C77.3884 100.652 77.6284 100.084 77.8124 99.572C78.0044 99.02 78.1644 98.616 78.2924 98.36C78.4204 98.104 78.5604 97.976 78.7124 97.976C78.8484 97.976 78.9164 98.044 78.9164 98.18C78.9164 98.284 78.8524 98.568 78.7244 99.032C78.6044 99.424 78.5244 99.704 78.4844 99.872C78.4444 100.032 78.3964 100.26 78.3404 100.556L78.0524 102.188L77.9204 102.872C77.9124 102.944 77.8924 103.052 77.8604 103.196C77.8604 103.348 77.8844 103.448 77.9324 103.496L78.0404 103.64C78.0644 103.664 78.0764 103.716 78.0764 103.796C78.0764 103.876 78.0284 103.948 77.9324 104.012C77.8444 104.084 77.7524 104.12 77.6564 104.12ZM82.0574 104.12C81.9134 104.12 81.8414 104.048 81.8414 103.904C81.8414 103.688 81.8894 103.58 81.9854 103.58C82.5214 103.58 82.9014 103.568 83.1254 103.544C83.1974 103.544 83.2894 103.536 83.4014 103.52L83.6534 103.508C83.7734 102.372 83.8774 101.584 83.9654 101.144C84.0454 100.824 84.1494 100.432 84.2774 99.968C83.9334 100.488 83.5254 100.972 83.0534 101.42C82.9814 101.468 82.9134 101.492 82.8494 101.492C82.7054 101.492 82.6334 101.42 82.6334 101.276C82.6334 101.212 82.6574 101.144 82.7054 101.072C83.0894 100.68 83.3534 100.396 83.4974 100.22C83.5454 100.156 83.6374 100.032 83.7734 99.848C83.9174 99.664 84.0454 99.46 84.1574 99.236C84.4374 98.676 84.6414 98.308 84.7694 98.132C84.8814 97.996 84.9814 97.928 85.0694 97.928C85.1734 97.928 85.2254 97.992 85.2254 98.12V98.18L85.2134 98.24L85.1774 98.36H85.1894L85.1654 98.396C84.6614 100.308 84.3374 102.004 84.1934 103.484C84.6574 103.468 84.9894 103.46 85.1894 103.46H85.6934L85.8614 103.472L86.0894 103.484C86.2254 103.524 86.2934 103.604 86.2934 103.724C86.2934 103.852 86.2214 103.952 86.0774 104.024C86.0294 104.048 85.9814 104.06 85.9334 104.06L85.1054 104L82.2614 104.048C82.1734 104.096 82.1054 104.12 82.0574 104.12Z" fill="#6D6F72"/>
</svg>
