<svg width="360" height="100" viewBox="0 0 360 100" fill="none" xmlns="http://www.w3.org/2000/svg">
<line x1="30.25" y1="1.09278e-08" x2="30.25" y2="88" stroke="#C6C8CC" stroke-width="0.5"/>
<line x1="90.25" y1="1.09278e-08" x2="90.25" y2="88" stroke="#C6C8CC" stroke-width="0.5"/>
<line x1="150.25" y1="1.09278e-08" x2="150.25" y2="88" stroke="#C6C8CC" stroke-width="0.5"/>
<line x1="210.25" y1="1.09278e-08" x2="210.25" y2="88" stroke="#C6C8CC" stroke-width="0.5"/>
<line x1="270.25" y1="1.09278e-08" x2="270.25" y2="88" stroke="#C6C8CC" stroke-width="0.5"/>
<line x1="330.25" y1="1.09278e-08" x2="330.25" y2="88" stroke="#C6C8CC" stroke-width="0.5"/>
<path d="M0 59.1636L2.5 62.755C5 66.3463 14.5626 66.5 13.5 59.1636C10 35 24 34.9378 29 34C34 33.0622 46 44 54.5 38.5C65 25.5 55 20.3408 60 15C65 9.65917 79 25.1101 84 19C89 12.8899 87 10.876 92 10.5C97 10.124 98.5 17.5 107 23C114.5 27 119.5 30.2498 124.5 28C129.5 25.7502 130 21.8238 135 21.5056C140 21.1875 150 39.5 152 45.5C154.653 53.4595 154 90 158 95C164.228 102.786 163.5 99.5 182 89C192 81 190 67.7696 195 62.2642C200 56.7588 204.5 47.6738 210 47.6738C215.5 47.6738 220 62.6075 225 62.2642C230 61.921 232.778 48.5388 240 41.7163C249.75 32.5065 252.5 65 270 18C275 11.3154 280 29.314 285 27.6483C291.143 21.5056 295 31.454 300 39.3662C305 47.2783 317 72.6668 322 73C342.221 74.3473 334.611 8.30457 357.5 25.3974L360 27.2644" stroke="#C6C8CC" stroke-linecap="round"/>
<path d="M0 64.0656C117.5 -42.5 137.786 57.7581 195.5 64.0656C231.5 68 252.472 25.496 280.5 29.5C301.5 32.5 312 61.4602 324 64.0656C338.957 67.313 351.036 50.259 360 40.4748" stroke="#939598" stroke-width="2" stroke-linecap="round"/>
</svg>
