<svg width="250" height="96" viewBox="0 0 250 96" fill="none" xmlns="http://www.w3.org/2000/svg">
<path d="M19.5588 38.5283C19.5588 40.8813 18.2831 42.5564 15.7316 43.5536C14.2939 44.1119 11.5602 44.3911 7.53051 44.3911H2.00235L1 43.4938C1.162 39.9839 1.24299 36.7735 1.24299 33.8619C1.24299 30.9106 1.162 27.7797 1 24.4694L2.0631 23.4524H6.64965C10.1934 23.4524 12.5929 23.6219 13.8484 23.9609C16.8656 24.7785 18.3742 26.2841 18.3742 28.4777C18.3742 30.771 16.6631 32.3264 13.2409 33.144C17.4529 33.9417 19.5588 35.7364 19.5588 38.5283ZM12.6638 29.1657C12.6638 27.7697 12.0462 26.7128 10.811 25.9949C9.81873 25.4366 8.54301 25.1275 6.98377 25.0676L6.92302 33.2038C8.46201 33.1241 9.72761 32.805 10.7198 32.2466C12.0158 31.5487 12.6638 30.5217 12.6638 29.1657ZM13.7877 38.6479C13.7877 36.1552 11.4995 34.7693 6.92302 34.4901L6.98377 42.8058C11.5197 42.5265 13.7877 41.1407 13.7877 38.6479ZM42.6254 33.9517C42.6254 37.1423 41.4712 39.7547 39.1627 41.7887C36.9352 43.723 34.1813 44.6903 30.9009 44.6903C28.6733 44.6903 26.7194 44.1619 25.0386 43.1049C23.3781 42.0479 22.1226 40.5224 21.2721 38.5283C20.6444 37.0525 20.3305 35.5171 20.3305 33.9218C20.3305 30.6713 21.4645 28.0489 23.7325 26.0548C25.8993 24.1204 28.6531 23.1532 31.9943 23.1532C35.1939 23.1532 37.7655 24.1603 39.7095 26.1744C41.6534 28.1885 42.6254 30.7809 42.6254 33.9517ZM36.0645 35.3276C36.0645 32.9346 35.6089 30.8807 34.6977 29.1657C33.6448 27.2313 32.0653 25.8853 29.9593 25.1275C27.8736 26.6032 26.8307 28.9762 26.8307 32.2466C26.8307 34.6197 27.2761 36.6538 28.1672 38.3488C29.1999 40.3032 30.749 41.6792 32.8145 42.4767C34.9813 40.9811 36.0645 38.5982 36.0645 35.3276ZM63.7168 41.3999C61.9347 42.5366 60.1832 43.7929 58.462 45.1689C56.6597 40.642 54.3816 36.1652 51.6278 31.7381C48.975 36.6239 46.1907 41.1008 43.2748 45.1689L41.2093 42.8955C43.5581 39.6051 46.4337 34.9488 49.8357 28.9264L47.9221 26.0847C49.1978 25.267 50.8582 24.1005 52.9035 22.5849C56.9532 28.8466 60.5579 35.1183 63.7168 41.3999ZM95.6519 42.0879L94.6192 44.5108C93.5663 44.5108 91.936 44.4909 89.7289 44.451C87.5217 44.411 85.8713 44.3911 84.7778 44.3911H77.5183C76.2628 44.3911 74.3696 44.4211 71.8383 44.4809C69.3274 44.5606 67.4541 44.6005 66.219 44.6005L65.1863 43.5835C65.3484 40.6719 65.4293 37.5412 65.4293 34.191C65.4293 30.8408 65.3484 27.6301 65.1863 24.5591L66.1582 23.572C67.0087 23.6318 67.8694 23.6617 68.7401 23.6617C69.6107 23.6617 70.4612 23.6318 71.2915 23.572C71.2915 24.6688 71.2714 26.324 71.2308 28.5375C71.1902 30.751 71.1701 32.4062 71.1701 33.503C71.1701 34.4602 71.1902 35.896 71.2308 37.8104C71.2714 39.7248 71.2915 41.1505 71.2915 42.0879H77.6398C77.8221 39.3558 77.9132 36.9231 77.9132 34.7892C77.9132 34.0115 77.8626 32.8549 77.7613 31.3194C77.6804 29.7639 77.6398 28.6073 77.6398 27.8495L78.5207 26.982H82.2871L83.0161 27.8495C83.0161 28.6073 82.9656 29.7639 82.8642 31.3194C82.7833 32.8549 82.7427 34.0115 82.7427 34.7892C82.7427 36.3447 82.8339 38.7776 83.0161 42.0879H89.5466C89.5466 41.1706 89.5668 39.7846 89.6074 37.93C89.6681 36.0555 89.6985 34.6496 89.6985 33.7124C89.6985 32.5757 89.6681 30.8807 89.6074 28.6272C89.5668 26.3738 89.5466 24.6888 89.5466 23.572C90.721 23.6318 91.5715 23.6617 92.0981 23.6617C92.8878 23.6617 93.7383 23.6318 94.6495 23.572L95.6519 24.5591C95.4898 28.1087 95.4089 31.3194 95.4089 34.191C95.4089 35.0684 95.4495 36.3846 95.5304 38.1394C95.6113 39.8942 95.6519 41.2104 95.6519 42.0879ZM115.409 44.4211C112.635 44.3213 110.641 44.2715 109.426 44.2715H106.874C105.031 44.2715 103.138 44.3115 101.194 44.3911L100.192 43.4938C100.354 39.9839 100.435 36.7735 100.435 33.8619C100.435 30.9106 100.354 27.7797 100.192 24.4694L101.255 23.4524C103.766 23.5321 105.953 23.572 107.816 23.572C109.8 23.572 112.028 23.5321 114.498 23.4524L113.314 25.8454C111.936 25.7656 110.489 25.7257 108.97 25.7257H106.419L106.236 33.0244C107.633 32.0871 109.152 30.9903 110.792 29.734C111.927 31.2097 113.121 32.5657 114.377 33.8021C112.473 35.1581 111.035 36.2749 110.063 37.1523C109.112 36.0755 107.836 34.7992 106.236 33.3235L106.419 42.058H107.056C107.218 42.058 107.441 42.058 107.725 42.058C108.008 42.0778 108.221 42.0879 108.362 42.0879C110.226 42.0879 112.129 42.018 114.073 41.8785L115.409 44.4211ZM134.791 38.0497C134.791 41.001 133.464 42.8757 130.812 43.6732C129.232 44.1518 126.883 44.3911 123.765 44.3911H118.874L117.811 43.3741C118.034 39.5053 118.145 35.9558 118.145 32.7252C118.145 29.734 118.044 27.002 117.842 24.5292L118.905 23.5122C121.072 23.6518 123.258 23.7216 125.466 23.7216C128.199 23.7216 130.609 23.6518 132.695 23.5122L131.601 25.9949C129.232 25.8553 127.572 25.7855 126.62 25.7855H124.19L123.856 30.8707C131.146 30.8707 134.791 33.2637 134.791 38.0497ZM129.202 37.5412C129.202 34.5499 127.42 32.8549 123.856 32.456V35.3276C123.856 36.2449 123.907 37.4813 124.008 39.0368C124.109 40.8315 124.17 42.058 124.19 42.716C127.531 42.3171 129.202 40.5922 129.202 37.5412ZM157.906 43.4938L156.934 44.3911C156.084 44.3313 155.223 44.3014 154.352 44.3014C153.461 44.3014 152.611 44.3313 151.801 44.3911C151.882 41.4796 151.922 38.4187 151.922 35.208H144.025V36.7335C144.025 38.8076 144.066 41.3599 144.146 44.3911C143.337 44.3313 142.486 44.3014 141.595 44.3014C140.745 44.3014 139.894 44.3313 139.044 44.3911L138.041 43.4938C138.203 39.9839 138.284 36.7735 138.284 33.8619C138.284 30.9106 138.203 27.7797 138.041 24.4694L139.104 23.4524C139.935 23.5321 140.765 23.572 141.595 23.572C142.263 23.572 143.114 23.5421 144.146 23.4823C144.066 26.1744 144.025 28.368 144.025 30.063V32.6953H151.922C151.922 29.2454 151.882 26.1744 151.801 23.4823C152.834 23.5421 153.684 23.572 154.352 23.572C155.203 23.572 156.043 23.5321 156.873 23.4524L157.906 24.4694C157.764 27.0219 157.693 30.1528 157.693 33.8619C157.693 37.5909 157.764 40.8016 157.906 43.4938ZM179.977 25.277C177.101 31.5587 174.601 37.4813 172.474 43.0451L170.318 48.6686L167.797 47.173L169.589 43.0451C168.394 40.4326 166.936 37.6608 165.215 34.7294C164.182 33.0344 162.643 30.4718 160.598 27.0419L160.962 26.2641C163.068 25.3269 164.708 24.4195 165.883 23.5421C166.511 24.9779 168.11 27.7099 170.682 31.7381C171.269 32.6355 171.928 33.7523 172.657 35.0883H172.778L177.395 23.5421L179.977 25.277ZM196.582 23.5421L195.458 26.0248H191.085C190.842 29.056 190.72 31.8279 190.72 34.3405C190.72 36.5739 190.842 39.9641 191.085 44.5108C190.416 44.4311 189.343 44.3911 187.865 44.3911C186.792 44.3911 185.961 44.4311 185.374 44.5108L184.463 43.4938C184.625 40.4625 184.706 37.8503 184.706 35.6567C184.706 32.2466 184.645 29.744 184.524 28.1486C184.483 27.67 184.423 26.9621 184.341 26.0248H179.967L178.874 23.5122C182.924 23.6518 185.921 23.7216 187.865 23.7216C190.68 23.7216 193.585 23.6617 196.582 23.5421ZM224.443 43.5835L223.471 44.4809C222.559 44.4211 221.618 44.3911 220.646 44.3911C219.694 44.3911 218.783 44.4211 217.912 44.4809C218.074 40.7717 218.155 37.3816 218.155 34.3106C218.155 31.1997 218.074 27.9492 217.912 24.5591L218.975 23.5122C220.008 23.6119 220.899 23.6617 221.648 23.6617C221.83 23.6617 222.762 23.6119 224.443 23.5122V23.572C224.443 24.1703 224.422 24.9779 224.382 25.9949C224.321 27.1914 224.291 27.9891 224.291 28.3879C224.25 30.2824 224.23 32.0173 224.23 33.5927C224.23 37.5213 224.301 40.8514 224.443 43.5835ZM215.087 37.1224C215.087 41.9682 212.293 44.3911 206.704 44.3911H199.171L198.108 43.3741C198.331 39.5053 198.442 35.9558 198.442 32.7252C198.442 29.734 198.341 27.002 198.138 24.5292L199.201 23.5122C200.457 23.6119 201.348 23.6617 201.874 23.6617C202.786 23.6617 203.677 23.6119 204.547 23.5122L204.152 30.8707C207.899 30.8707 210.632 31.3094 212.354 32.1868C214.176 33.1241 215.087 34.7693 215.087 37.1224ZM209.498 37.5412C209.498 34.1511 207.716 32.456 204.152 32.456V34.4303C204.152 36.8632 204.213 39.625 204.335 42.716C205.914 42.5366 207.15 42.028 208.04 41.1905C209.012 40.2733 209.498 39.0567 209.498 37.5412ZM245.689 16.4827L241.376 21.4183H237.488L234.177 16.9015L235.878 15.2264L239.068 18.9655L242.53 14L245.689 16.4827ZM249 43.4938L248.028 44.5108C247.258 44.4311 246.347 44.3911 245.294 44.3911C244.241 44.3911 243.441 44.4311 242.895 44.5108C243.057 41.3202 243.138 37.6807 243.138 33.5927V30.8108H243.047L235.028 44.6304C233.853 44.4708 232.223 44.3911 230.137 44.3911L229.135 43.4938C229.297 39.9839 229.378 36.7735 229.378 33.8619C229.378 30.9106 229.297 27.7797 229.135 24.4694L230.198 23.4524C230.786 23.5321 231.616 23.572 232.689 23.572C233.499 23.572 234.349 23.5321 235.24 23.4524V29.5246C235.24 31.9774 235.139 34.869 234.937 38.1992H235.058L240.222 29.2554C240.769 28.2783 241.325 27.2911 241.892 26.2941C242.561 25.1574 243.178 24.2102 243.745 23.4524C244.879 23.5521 246.378 23.6019 248.241 23.6019L249 24.4694C248.858 27.0219 248.787 30.1528 248.787 33.8619C248.787 37.5909 248.858 40.8016 249 43.4938ZM101.599 78.2908C100.202 79.2282 98.5824 80.4644 96.7395 82C94.6337 78.59 91.9 74.3824 88.5384 69.3769L87.4449 70.0948C87.5462 73.8836 87.7589 77.6328 88.0828 81.3419C87.1514 81.2622 86.1692 81.2223 85.1364 81.2223C84.1443 81.2223 83.2331 81.2622 82.4027 81.3419L81.4004 80.4445C81.5625 76.9347 81.6434 73.7243 81.6434 70.8127C81.6434 67.8614 81.5625 64.7304 81.4004 61.4202L82.4635 60.4031C83.2737 60.4828 84.1241 60.5228 85.015 60.5228C85.9466 60.5228 86.878 60.4828 87.8094 60.4031C87.4855 63.0354 87.3234 65.5282 87.3234 67.8813C90.8065 65.209 94.1983 62.5269 97.4989 59.8348L99.8377 61.5398L93.2161 66.2959C95.7068 70.3042 98.5012 74.3024 101.599 78.2908ZM123.59 70.9024C123.59 74.093 122.435 76.7055 120.127 78.7395C117.899 80.6738 115.145 81.641 111.865 81.641C109.637 81.641 107.683 81.1127 106.003 80.0557C104.342 78.9987 103.087 77.4732 102.236 75.4791C101.608 74.0033 101.295 72.468 101.295 70.8725C101.295 67.6221 102.428 64.9996 104.697 63.0055C106.863 61.0713 109.617 60.104 112.958 60.104C116.158 60.104 118.73 61.111 120.674 63.1252C122.618 65.1394 123.59 67.7317 123.59 70.9024ZM117.029 72.2784C117.029 69.8854 116.573 67.8315 115.662 66.1164C114.609 64.1822 113.029 62.8361 110.923 62.0782C108.837 63.554 107.795 65.9269 107.795 69.1974C107.795 71.5706 108.24 73.6046 109.131 75.2996C110.164 77.254 111.713 78.6299 113.779 79.4275C115.945 77.9319 117.029 75.5489 117.029 72.2784ZM152.485 70.5734C152.485 73.2457 151.301 75.2398 148.932 76.5559C147.048 77.6129 144.639 78.1413 141.702 78.1413C141.702 78.7395 141.773 79.8463 141.915 81.4616C141.449 81.3819 140.123 81.3419 137.936 81.3419C136.883 81.3419 136.124 81.3819 135.658 81.4616C135.8 79.9061 135.871 79.0786 135.871 78.9788V78.1413C132.934 78.1413 130.525 77.6129 128.641 76.5559C126.272 75.2398 125.088 73.2457 125.088 70.5734C125.088 68.8983 125.553 67.4524 126.485 66.2361C127.436 65.0197 128.722 64.1422 130.342 63.6038C131.476 63.225 133.319 63.0354 135.871 63.0354C135.871 62.7363 135.84 62.3276 135.779 61.809C135.719 61.1909 135.678 60.792 135.658 60.6125L136.022 60.4031C137.298 60.5427 138.22 60.6125 138.786 60.6125C139.414 60.6125 140.336 60.5427 141.551 60.4031L141.915 60.6125C141.895 60.792 141.854 61.1909 141.794 61.809C141.733 62.3276 141.702 62.7363 141.702 63.0354C144.274 63.0354 146.127 63.225 147.261 63.6038C148.881 64.1422 150.157 65.0197 151.088 66.2361C152.02 67.4524 152.485 68.8983 152.485 70.5734ZM146.896 70.5734C146.896 66.6649 145.165 64.7106 141.702 64.7106C141.601 67.2033 141.551 68.9682 141.551 70.0051V71.2016C141.551 72.3581 141.601 74.1529 141.702 76.5858C143.464 76.5858 144.79 75.9976 145.682 74.821C146.491 73.7841 146.896 72.3682 146.896 70.5734ZM136.022 69.2573C136.022 68.6789 135.972 67.1634 135.871 64.7106C132.408 64.7106 130.677 66.6649 130.677 70.5734C130.677 72.3682 131.082 73.7841 131.891 74.821C132.783 75.9976 134.109 76.5858 135.871 76.5858C135.972 74.173 136.022 72.6175 136.022 71.9195V69.2573ZM170.864 81.3718C168.089 81.272 166.095 81.2223 164.88 81.2223H162.328C160.486 81.2223 158.592 81.2622 156.648 81.3419L155.646 80.4445C155.808 76.9347 155.889 73.7243 155.889 70.8127C155.889 67.8614 155.808 64.7304 155.646 61.4202L156.709 60.4031C159.22 60.4828 161.407 60.5228 163.27 60.5228C165.254 60.5228 167.482 60.4828 169.952 60.4031L168.768 62.7962C167.391 62.7165 165.943 62.6765 164.424 62.6765H161.873L161.69 69.9752C163.088 69.0378 164.606 67.9411 166.247 66.6848C167.381 68.1605 168.575 69.5164 169.831 70.7529C167.927 72.109 166.49 73.2256 165.518 74.1031C164.566 73.0262 163.29 71.7501 161.69 70.2743L161.873 79.0087H162.51C162.673 79.0087 162.895 79.0087 163.179 79.0087C163.462 79.0286 163.675 79.0387 163.817 79.0387C165.68 79.0387 167.583 78.9688 169.527 78.8293L170.864 81.3718Z" fill="#261406"/>
</svg>
