<svg width="96" height="96" viewBox="0 0 96 96" fill="none" xmlns="http://www.w3.org/2000/svg">
<path d="M46.2151 73.0183C42.6932 73.0183 39.8273 75.8836 39.8273 79.4061C39.8273 82.928 42.6926 85.794 46.2151 85.794C49.7371 85.794 52.603 82.9287 52.603 79.4061C52.603 75.8842 49.7377 73.0183 46.2151 73.0183ZM46.2151 84.258C43.5399 84.258 41.3633 82.0813 41.3633 79.4061C41.3633 76.7309 43.5399 74.5543 46.2151 74.5543C48.8903 74.5543 51.067 76.7309 51.067 79.4061C51.067 82.0813 48.891 84.258 46.2151 84.258ZM22.7259 74.5076C23.8241 74.5076 24.8596 74.8653 25.7204 75.5418C26.0539 75.8036 26.5371 75.746 26.7988 75.4125C27.0606 75.0791 27.003 74.5965 26.6695 74.3341C25.5355 73.4426 24.1716 72.9716 22.7259 72.9716C19.2039 72.9716 16.338 75.8368 16.338 79.3594C16.338 82.8813 19.2033 85.7472 22.7259 85.7472C24.1716 85.7472 25.5348 85.2762 26.6695 84.3847C27.003 84.1229 27.0612 83.6397 26.7988 83.3063C26.5364 82.9728 26.0539 82.9146 25.7204 83.177C24.8596 83.8535 23.8241 84.2112 22.7259 84.2112C20.0507 84.2112 17.874 82.0346 17.874 79.3594C17.8747 76.6842 20.0507 74.5076 22.7259 74.5076ZM63.5406 74.5076C64.6388 74.5076 65.6743 74.8653 66.5351 75.5418C66.8686 75.8036 67.3511 75.746 67.6135 75.4125C67.8759 75.0791 67.8177 74.5965 67.4842 74.3341C66.3502 73.4426 64.9863 72.9716 63.5406 72.9716C60.0187 72.9716 57.1527 75.8368 57.1527 79.3594C57.1527 82.8813 60.018 85.7472 63.5406 85.7472C64.9863 85.7472 66.3495 85.2762 67.4842 84.3847C67.8177 84.1229 67.8759 83.6397 67.6135 83.3063C67.3518 82.9728 66.8686 82.9146 66.5351 83.177C65.6743 83.8535 64.6388 84.2112 63.5406 84.2112C60.8654 84.2112 58.6887 82.0346 58.6887 79.3594C58.6894 76.6842 60.8654 74.5076 63.5406 74.5076ZM37.5387 73.2103C37.1143 73.2103 36.7707 73.554 36.7707 73.9783V78.4493H30.0187V73.9783C30.0187 73.554 29.675 73.2103 29.2507 73.2103C28.8263 73.2103 28.4827 73.554 28.4827 73.9783V84.4884C28.4827 84.9127 28.8263 85.2564 29.2507 85.2564C29.675 85.2564 30.0187 84.9127 30.0187 84.4884V79.986H36.7707V84.4884C36.7707 84.9127 37.1143 85.2564 37.5387 85.2564C37.963 85.2564 38.3067 84.9127 38.3067 84.4884V73.9783C38.3067 73.5546 37.9623 73.2103 37.5387 73.2103ZM54.8782 73.2103C54.4539 73.2103 54.1102 73.554 54.1102 73.9783V84.4884C54.1102 84.9127 54.4539 85.2564 54.8782 85.2564C55.3025 85.2564 55.6462 84.9127 55.6462 84.4884V73.9783C55.6462 73.5546 55.3025 73.2103 54.8782 73.2103ZM77.9886 79.9546C78.4129 79.9546 78.7566 79.6109 78.7566 79.1866C78.7566 78.7623 78.4129 78.4186 77.9886 78.4186H70.8135V74.7156H77.9886C78.4129 74.7156 78.7566 74.3719 78.7566 73.9476C78.7566 73.5232 78.4129 73.1796 77.9886 73.1796H70.0455C69.6212 73.1796 69.2775 73.5232 69.2775 73.9476V84.4576C69.2775 84.882 69.6212 85.2256 70.0455 85.2256H77.9886C78.4129 85.2256 78.7566 84.882 78.7566 84.4576C78.7566 84.0333 78.4129 83.6896 77.9886 83.6896H70.8135V79.9552H77.9886V79.9546Z" fill="#17181A"/>
<path d="M41.7588 25.3415C42.418 24.8167 43.4413 25.2314 44.0404 24.6599C45.376 23.3876 47.5143 23.6448 49.1789 23.9015C52.1383 24.3802 54.9082 25.7613 57.0195 27.9028C57.1981 28.0858 57.4893 28.1184 57.7043 27.9623C58.2599 27.5188 57.5924 26.9312 57.2935 26.546C56.736 25.8772 56.0922 25.2877 55.3952 24.7636C54.1063 23.8183 52.6112 23.1252 51.0464 22.7751C49.6307 22.4544 48.153 22.5376 46.729 22.7623C46.1088 22.8647 45.4554 22.9959 44.8448 23.1418C44.4077 23.2576 43.9418 23.1188 43.4944 23.1719C42.7936 23.2589 42.3552 23.8484 41.8656 24.2957C41.0554 24.8628 40.1812 25.3677 39.4484 26.0436C33.104 31.5872 33.4848 41.746 40.6157 46.4468C40.7712 46.5492 40.93 46.6484 41.09 46.7437C41.1367 47.8343 42.0346 48.704 43.136 48.704C43.6762 48.704 44.1677 48.4948 44.5332 48.1524C45.5764 48.4058 46.6528 48.5242 47.728 48.4916C48.3866 48.4884 52.1363 48.1428 51.8624 47.1885C51.8131 46.914 51.5508 46.7309 51.2756 46.7796C49.129 47.218 47.058 47.09 45.1796 46.5274C45.1136 45.4567 44.224 44.608 43.136 44.608C42.6836 44.608 42.265 44.7552 41.9258 45.0042C37.2372 41.9066 34.8327 35.7479 37.6647 29.8432C38.5844 28.0071 40.0186 26.4314 41.7588 25.3415Z" fill="#17181A"/>
<path d="M66.6803 50.8589C66.1062 51.4893 65.5098 52.0954 64.8813 52.6707C50.8506 65.4106 28.7213 58.4314 24.5447 39.9501C24.4602 39.6199 24.3783 39.2864 24.3021 38.9511C25.1431 38.5671 25.728 37.7203 25.728 36.736C25.728 35.561 24.8941 34.5799 23.7863 34.3533C23.7869 34.3367 23.7869 34.32 23.7875 34.3034C23.7703 33.5034 24.2375 32.7898 24.4026 32.0327C24.6227 31.1271 24.3539 30.2906 24.5984 29.28C24.6317 29.1424 24.7123 28.8039 24.7731 28.6682C26.7245 21.8739 32.08 16.3507 38.4947 13.5578C44.9248 10.7367 52.5306 10.9133 58.8678 13.9194C59.5501 14.2291 60.0435 13.2442 59.3965 12.8743C57.3126 11.7472 55.0477 10.9274 52.7232 10.4589C47.3184 9.35426 41.5399 10.1152 36.6138 12.5997C31.9405 14.912 28.1485 18.8435 25.7651 23.4592C25.1053 24.7616 24.5082 26.1466 24.064 27.5399C23.7127 28.5127 23.5776 29.5757 23.0746 30.4909C22.5261 31.4605 22.7187 32.553 22.8743 33.5968C22.8813 33.8458 22.8749 34.0941 22.8647 34.3424C21.7274 34.5466 20.864 35.5399 20.864 36.736C20.864 37.9155 21.7043 38.8992 22.8186 39.1207C22.8538 39.6512 22.9101 40.1786 22.9952 40.7002C23.3472 42.681 23.9981 44.6343 24.8231 46.4672C27.4042 52.1671 32.1959 56.809 37.9699 59.2173C42.2765 61.0112 47.0823 61.5859 51.6896 60.8551C57.8771 59.8899 63.6525 56.4883 67.4349 51.4938C67.8259 51.0234 67.072 50.3923 66.6803 50.8589Z" fill="#17181A"/>
<path d="M57.6128 18.6804C53.913 16.5031 49.5046 15.5214 45.1962 16.2119C30.6534 18.3892 23.9769 34.9613 32.7866 46.697C33.3184 47.2545 33.4221 48.0948 33.9437 48.6535C34.503 49.289 35.3869 49.4701 36.0166 50.0148C36.3738 50.3233 36.905 50.7412 37.2966 50.9946C44.2227 56.0756 53.4566 56.0084 60.0608 50.3981C62.1389 48.6458 63.8227 46.4109 64.8986 43.9188C65.1104 43.4772 64.4103 43.1277 64.1856 43.561C62.1408 47.0925 59.0093 49.9789 55.2646 51.6097C49.3402 54.1626 41.2659 53.7569 36.3526 49.2801C36.1062 49.0554 35.9002 48.7905 35.7395 48.4986C34.9075 46.9889 34.5453 47.4561 33.5194 46.2759C33.369 46.0679 33.1699 45.7735 33.0189 45.5655C30.2586 41.4701 29.5245 36.1831 30.7629 31.4337C34.0723 19.0823 47.1475 15.0241 56.5472 20.0276C56.4006 20.3841 56.32 20.7745 56.32 21.1841C56.32 22.8807 57.6954 24.2561 59.392 24.2561C60.0775 24.2561 60.7104 24.0314 61.2211 23.6519C62.6631 25.2257 63.8867 27.1284 64.8 29.3665C65.0995 30.1101 66.2311 29.7101 65.9872 28.9364C65.2096 26.4897 63.8944 24.2849 62.2061 22.4167C62.3712 22.0398 62.464 21.6231 62.464 21.1847C62.464 19.4881 61.0887 18.1127 59.392 18.1127C58.7283 18.1121 58.1146 18.3233 57.6128 18.6804Z" fill="#17181A"/>
</svg>
