<svg width="128" height="128" viewBox="0 0 128 128" fill="none" xmlns="http://www.w3.org/2000/svg">
<path d="M67.3075 69.9424L65.38 69.2249C65.3543 69.2149 65.3312 69.1991 65.3125 69.1787C65.2939 69.1583 65.2802 69.1339 65.2725 69.1074L64.605 66.5949C64.5964 66.5291 64.5639 66.4687 64.5136 66.4254C64.4633 66.382 64.3989 66.3587 64.3325 66.3599H64.31C64.2436 66.3587 64.1792 66.382 64.1289 66.4254C64.0786 66.4687 64.0461 66.5291 64.0375 66.5949L63.37 69.1074C63.3623 69.1339 63.3486 69.1583 63.33 69.1787C63.3113 69.1991 63.2882 69.2149 63.2625 69.2249L61.335 69.9424C61.2702 69.9532 61.2113 69.9866 61.1688 70.0367C61.1263 70.0869 61.103 70.1504 61.103 70.2162C61.103 70.2819 61.1263 70.3455 61.1688 70.3956C61.2113 70.4457 61.2702 70.4791 61.335 70.4899L63.2625 71.2099C63.2887 71.2192 63.3121 71.2348 63.3309 71.2553C63.3496 71.2758 63.363 71.3005 63.37 71.3274L64.0375 73.8274C64.0461 73.8932 64.0786 73.9536 64.1289 73.9969C64.1792 74.0403 64.2436 74.0636 64.31 74.0624H64.3325C64.3989 74.0636 64.4633 74.0403 64.5136 73.9969C64.5639 73.9536 64.5964 73.8932 64.605 73.8274L65.2725 71.3274C65.2795 71.3005 65.2929 71.2758 65.3116 71.2553C65.3304 71.2348 65.3538 71.2192 65.38 71.2099L67.3075 70.4899C67.3723 70.4791 67.4312 70.4457 67.4737 70.3956C67.5162 70.3455 67.5395 70.2819 67.5395 70.2162C67.5395 70.1504 67.5162 70.0869 67.4737 70.0367C67.4312 69.9866 67.3723 69.9532 67.3075 69.9424Z" fill="#939598"/>
<path d="M82.195 61.37C81.0775 61.37 81.075 63.12 82.195 63.12C83.315 63.12 83.315 61.37 82.195 61.37Z" fill="#939598"/>
<path d="M75.25 66.5C73.58 66.5 73.5775 69.0975 75.25 69.0975C76.9225 69.0975 76.935 66.5 75.25 66.5Z" fill="#939598"/>
<path d="M54.2675 65.6475C51.5175 65.6475 51.5175 69.935 54.2675 69.935C57.0175 69.935 57.03 65.6475 54.2675 65.6475Z" fill="#939598"/>
<path d="M48.9275 62.6475L47.6775 62.1775C47.6606 62.171 47.6454 62.1606 47.6332 62.1472C47.621 62.1337 47.6122 62.1175 47.6075 62.1L47.1725 60.4575C47.1659 60.4147 47.144 60.3757 47.111 60.3477C47.0779 60.3196 47.0358 60.3045 46.9925 60.305H46.9775C46.9345 60.3046 46.8927 60.3198 46.8601 60.3479C46.8274 60.3759 46.8061 60.4149 46.8 60.4575L46.3625 62.1C46.3582 62.1177 46.3495 62.1341 46.3373 62.1476C46.3251 62.1611 46.3097 62.1714 46.2925 62.1775L45.0425 62.6475C44.9994 62.6525 44.9598 62.6735 44.9316 62.7064C44.9033 62.7393 44.8885 62.7817 44.89 62.825C44.889 62.8685 44.9039 62.9108 44.932 62.944C44.9601 62.9772 44.9994 62.9989 45.0425 63.005L46.2925 63.475C46.3096 63.4805 46.325 63.4902 46.3373 63.5034C46.3495 63.5165 46.3582 63.5326 46.3625 63.55L46.8 65.1925C46.8055 65.2354 46.8267 65.2746 46.8595 65.3028C46.8923 65.3309 46.9343 65.346 46.9775 65.345H46.9925C47.036 65.3461 47.0783 65.3311 47.1115 65.303C47.1447 65.2749 47.1664 65.2356 47.1725 65.1925L47.6075 63.55C47.6122 63.5328 47.621 63.5169 47.6332 63.5038C47.6454 63.4908 47.6606 63.4809 47.6775 63.475L48.9275 63.005C48.9706 62.9989 49.0099 62.9772 49.038 62.944C49.0661 62.9108 49.0811 62.8685 49.08 62.825C49.0816 62.7817 49.0667 62.7393 49.0385 62.7064C49.0102 62.6735 48.9706 62.6525 48.9275 62.6475Z" fill="#939598"/>
<path d="M60.9675 36.41L62.895 37.1275C62.9207 37.1371 62.9437 37.1529 62.9619 37.1733C62.9802 37.1938 62.9933 37.2184 63 37.245L63.6675 39.75C63.6777 39.8156 63.711 39.8753 63.7615 39.9184C63.8119 39.9616 63.8761 39.9852 63.9425 39.985H63.9625C64.0313 39.9894 64.0991 39.9676 64.1525 39.924C64.2058 39.8804 64.2407 39.8182 64.25 39.75L64.905 37.25C64.9127 37.2235 64.9264 37.1991 64.9451 37.1787C64.9637 37.1583 64.9868 37.1425 65.0125 37.1325L66.9375 36.415C67.0035 36.4058 67.0639 36.3728 67.1072 36.3221C67.1505 36.2714 67.1738 36.2066 67.1725 36.14C67.1742 36.0735 67.1511 36.0087 67.1077 35.9583C67.0642 35.9079 67.0036 35.8755 66.9375 35.8675L65.0125 35.1475C64.9866 35.1378 64.9633 35.1221 64.9446 35.1017C64.9259 35.0812 64.9124 35.0567 64.905 35.03L64.2375 32.53C64.2283 32.4639 64.1953 32.4036 64.1446 32.3603C64.0939 32.317 64.0292 32.2937 63.9625 32.295H63.9425C63.876 32.2943 63.8115 32.3177 63.7609 32.3609C63.7104 32.4041 63.6772 32.4642 63.6675 32.53L63 35.03C62.9937 35.0568 62.9808 35.0815 62.9624 35.1021C62.9441 35.1226 62.9209 35.1382 62.895 35.1475L60.9675 35.8675C60.9017 35.8756 60.8413 35.908 60.7982 35.9585C60.7552 36.0089 60.7326 36.0737 60.735 36.14C60.7344 36.2055 60.7576 36.2691 60.8004 36.3188C60.8432 36.3685 60.9026 36.4009 60.9675 36.41Z" fill="#939598"/>
<path d="M46.08 44.9825C47.1975 44.9825 47.1975 43.2325 46.08 43.2325C44.9625 43.2325 44.96 44.9825 46.08 44.9825Z" fill="#939598"/>
<path d="M53.0125 39.86C54.685 39.86 54.6875 37.2599 53.0125 37.2599C51.3375 37.2599 51.34 39.86 53.0125 39.86Z" fill="#939598"/>
<path d="M74 40.705C76.75 40.705 76.75 36.4175 74 36.4175C71.25 36.4175 71.25 40.705 74 40.705Z" fill="#939598"/>
<path d="M79.3475 43.705L80.5975 44.175C80.6142 44.1814 80.6291 44.1918 80.6409 44.2053C80.6526 44.2188 80.6609 44.235 80.665 44.2525L81.1025 45.8925C81.1086 45.9357 81.1302 45.9753 81.1633 46.0039C81.1964 46.0324 81.2388 46.0479 81.2825 46.0475H81.295C81.3387 46.0479 81.3811 46.0324 81.4142 46.0039C81.4473 45.9753 81.4689 45.9357 81.475 45.8925L81.91 44.2525C81.9147 44.2349 81.9235 44.2188 81.9357 44.2053C81.9479 44.1918 81.9631 44.1814 81.98 44.175L83.23 43.705C83.2729 43.6994 83.3121 43.6782 83.3403 43.6454C83.3684 43.6127 83.3835 43.5706 83.3825 43.5275C83.3836 43.484 83.3686 43.4416 83.3405 43.4085C83.3124 43.3753 83.2731 43.3536 83.23 43.3475L81.98 42.8775C81.9628 42.8713 81.9474 42.8611 81.9352 42.8475C81.923 42.834 81.9143 42.8177 81.91 42.8L81.475 41.16C81.4689 41.1167 81.4473 41.0771 81.4142 41.0485C81.3811 41.02 81.3387 41.0045 81.295 41.005H81.2825C81.2388 41.0045 81.1964 41.02 81.1633 41.0485C81.1302 41.0771 81.1086 41.1167 81.1025 41.16L80.665 42.8C80.6611 42.8175 80.6529 42.8338 80.6411 42.8473C80.6293 42.8608 80.6143 42.8712 80.5975 42.8775L79.3475 43.3475C79.3044 43.3536 79.2651 43.3753 79.237 43.4085C79.2089 43.4416 79.194 43.484 79.195 43.5275C79.194 43.5706 79.2091 43.6127 79.2372 43.6454C79.2654 43.6782 79.3047 43.6994 79.3475 43.705Z" fill="#939598"/>
<path d="M64.3877 56.2451C66.0638 56.2416 67.4198 54.8799 67.4163 53.2037C67.4128 51.5276 66.0511 50.1716 64.3749 50.1751C62.6988 50.1786 61.3428 51.5403 61.3463 53.2165C61.3498 54.8926 62.7115 56.2486 64.3877 56.2451Z" fill="#939598"/>
<path d="M64.3825 77.6475C69.2169 77.65 73.9435 76.2187 77.9643 73.5346C81.9851 70.8505 85.1196 67.0342 86.9713 62.5684C88.8229 58.1027 89.3086 53.1881 88.3667 48.4463C87.4249 43.7045 85.098 39.3485 81.6802 35.9294C78.2625 32.5102 73.9075 30.1815 69.1661 29.2377C64.4247 28.294 59.5099 28.7776 55.0434 30.6274C50.5769 32.4773 46.7593 35.6102 44.0735 39.6299C41.3878 43.6496 39.9545 48.3756 39.955 53.21C39.9616 59.6875 42.537 65.8979 47.1164 70.4791C51.6957 75.0603 57.905 77.6383 64.3825 77.6475ZM71.6325 53.21C71.6325 58.025 68.5875 61.96 64.7725 62.21C64.63 62.21 64.4875 62.21 64.3475 62.21C60.375 62.18 57.1525 58.1475 57.1525 53.1925C57.1525 48.2375 60.375 44.1925 64.3475 44.1725C64.4875 44.1725 64.63 44.1725 64.7725 44.1725C68.5775 44.4475 71.6225 48.3925 71.6225 53.21H71.6325ZM68.8825 44.575C74.845 45.56 80.8825 48.4525 86.8825 53.21C80.8825 57.96 74.8525 60.8575 68.8825 61.8425C71.245 60.0325 72.8175 56.8425 72.8175 53.21C72.8175 49.5775 71.25 46.3875 68.8775 44.575H68.8825ZM55.9575 53.21C55.9575 56.87 57.5575 60.0875 59.9575 61.89C53.935 60.945 47.8775 58.0325 41.8975 53.21C47.8775 48.385 53.935 45.46 59.9575 44.53C57.5525 46.3325 55.9525 49.5475 55.9525 53.21H55.9575ZM64.3875 76.46C58.3901 76.4517 52.6275 74.1279 48.3021 69.9734C43.9767 65.819 41.4225 60.1547 41.1725 54.1625C48.5958 60.1425 56.0825 63.2159 63.6325 63.3825C63.8815 63.4104 64.1319 63.4246 64.3825 63.425C64.6599 63.4248 64.9371 63.4081 65.2125 63.375C72.6625 63.14 80.1242 60.0675 87.5975 54.1575C87.3475 60.1497 84.7933 65.814 80.4679 69.9684C76.1425 74.1229 70.3799 76.4467 64.3825 76.455L64.3875 76.46ZM64.3875 29.96C70.3857 29.9684 76.149 32.2929 80.4746 36.4484C84.8001 40.604 87.3537 46.2695 87.6025 52.2625C80.1425 46.3525 72.6808 43.28 65.2175 43.045C64.9421 43.012 64.6649 42.9953 64.3875 42.995C64.1369 42.9955 63.8865 43.0097 63.6375 43.0375C56.1025 43.2042 48.6158 46.2775 41.1775 52.2575C41.4281 46.2675 43.9811 40.6054 48.3043 36.4517C52.6276 32.298 58.3872 29.9734 64.3825 29.9625L64.3875 29.96Z" fill="#939598"/>
<path d="M64.33 26.9351C64.4878 26.9351 64.6392 26.8724 64.7507 26.7608C64.8623 26.6492 64.925 26.4979 64.925 26.3401V11.7751C64.925 11.6969 64.9096 11.6195 64.8797 11.5474C64.8498 11.4752 64.806 11.4096 64.7507 11.3543C64.6955 11.2991 64.6299 11.2552 64.5577 11.2253C64.4855 11.1954 64.4081 11.1801 64.33 11.1801C64.2519 11.1801 64.1745 11.1954 64.1023 11.2253C64.0301 11.2552 63.9645 11.2991 63.9093 11.3543C63.854 11.4096 63.8102 11.4752 63.7803 11.5474C63.7504 11.6195 63.735 11.6969 63.735 11.7751V26.3401C63.7347 26.4183 63.7498 26.4958 63.7796 26.5681C63.8094 26.6405 63.8532 26.7062 63.9085 26.7615C63.9639 26.8168 64.0296 26.8607 64.1019 26.8904C64.1743 26.9202 64.2518 26.9354 64.33 26.9351Z" fill="#939598"/>
<path d="M58.0625 24.5424L58.3825 26.3525C58.4045 26.4918 58.4755 26.6187 58.5828 26.7104C58.69 26.802 58.8264 26.8524 58.9675 26.8525H59.07C59.147 26.8389 59.2206 26.8102 59.2865 26.7682C59.3525 26.7262 59.4095 26.6715 59.4543 26.6075C59.4991 26.5434 59.5308 26.4711 59.5477 26.3947C59.5645 26.3184 59.5662 26.2394 59.5525 26.1625L59.235 24.3499C59.2075 24.1945 59.1193 24.0563 58.9899 23.9658C58.8605 23.8753 58.7005 23.8399 58.545 23.8674C58.3895 23.895 58.2513 23.9831 58.1608 24.1125C58.0704 24.2419 58.035 24.402 58.0625 24.5575V24.5424Z" fill="#939598"/>
<path d="M57.2975 20.1999C57.32 20.3391 57.3912 20.4657 57.4983 20.5573C57.6054 20.6488 57.7416 20.6994 57.8825 20.6999C57.9166 20.7024 57.9509 20.7024 57.985 20.6999C58.0631 20.6864 58.1377 20.6575 58.2045 20.6148C58.2713 20.5722 58.329 20.5167 58.3741 20.4515C58.4192 20.3864 58.451 20.3129 58.4674 20.2354C58.4839 20.1578 58.4848 20.0778 58.47 19.9999L57.6925 15.5974C57.665 15.442 57.5768 15.3038 57.4474 15.2133C57.318 15.1228 57.158 15.0874 57.0025 15.1149C56.847 15.1425 56.7088 15.2306 56.6184 15.36C56.5279 15.4894 56.4925 15.6495 56.52 15.8049L57.2975 20.1999Z" fill="#939598"/>
<path d="M53.965 28.2774C54.0066 28.3925 54.0828 28.4919 54.183 28.5622C54.2832 28.6324 54.4026 28.6701 54.525 28.6699C54.5942 28.6696 54.6628 28.6569 54.7275 28.6324C54.8731 28.5788 54.992 28.4703 55.0588 28.3302C55.1256 28.1901 55.135 28.0294 55.085 27.8824L50.105 14.1824C50.051 14.0339 49.9401 13.913 49.7969 13.8461C49.6537 13.7793 49.4898 13.7722 49.3412 13.8262C49.1927 13.8802 49.0718 13.9911 49.0049 14.1343C48.9381 14.2775 48.931 14.4414 48.985 14.5899L53.965 28.2774Z" fill="#939598"/>
<path d="M49.4775 29.925C49.5588 30.0568 49.6882 30.1517 49.8384 30.1896C49.9885 30.2274 50.1475 30.2053 50.2816 30.1278C50.4156 30.0504 50.5142 29.9237 50.5564 29.7748C50.5986 29.6258 50.5811 29.4662 50.5075 29.33L49.585 27.73C49.5459 27.6622 49.4939 27.6027 49.4319 27.5551C49.3698 27.5074 49.299 27.4724 49.2234 27.4521C49.1479 27.4318 49.069 27.4265 48.9915 27.4367C48.9139 27.4468 48.8391 27.4722 48.7713 27.5112C48.7035 27.5503 48.644 27.6023 48.5963 27.6644C48.5487 27.7264 48.5137 27.7972 48.4933 27.8728C48.473 27.9484 48.4678 28.0272 48.4779 28.1048C48.4881 28.1824 48.5134 28.2572 48.5525 28.325L49.4775 29.925Z" fill="#939598"/>
<path d="M46.34 24.5C46.393 24.5902 46.4686 24.6652 46.5593 24.7173C46.6501 24.7695 46.7528 24.7971 46.8575 24.7975C46.9618 24.7964 47.0642 24.7689 47.155 24.7175C47.2917 24.6381 47.3914 24.5077 47.4321 24.3549C47.4729 24.2022 47.4514 24.0395 47.3725 23.9025L45.1225 20.0175C45.0847 19.9475 45.0332 19.8857 44.9711 19.8359C44.9091 19.7862 44.8376 19.7493 44.761 19.7277C44.6845 19.706 44.6043 19.6999 44.5254 19.7097C44.4464 19.7195 44.3702 19.7451 44.3013 19.7849C44.2324 19.8247 44.1722 19.878 44.1242 19.9414C44.0762 20.0049 44.0415 20.0774 44.022 20.1546C44.0025 20.2317 43.9987 20.312 44.0108 20.3907C44.023 20.4693 44.0507 20.5447 44.0925 20.6125L46.34 24.5Z" fill="#939598"/>
<path d="M45.985 33.25C46.0411 33.3166 46.1112 33.3702 46.1902 33.4069C46.2692 33.4436 46.3554 33.4626 46.4425 33.4625C46.5557 33.4623 46.6665 33.4299 46.7619 33.369C46.8573 33.3081 46.9334 33.2212 46.9812 33.1186C47.0289 33.016 47.0464 32.9018 47.0316 32.7896C47.0168 32.6774 46.9703 32.5717 46.8975 32.485L37.54 21.3225C37.4386 21.2015 37.2932 21.1257 37.1359 21.1119C36.9786 21.0981 36.8223 21.1473 36.7012 21.2487C36.5802 21.3502 36.5045 21.4956 36.4907 21.6528C36.4768 21.8101 36.5261 21.9665 36.6275 22.0875L45.985 33.25Z" fill="#939598"/>
<path d="M43.085 35.4225L41.665 34.28C41.6041 34.2308 41.5341 34.194 41.459 34.1718C41.3839 34.1496 41.3051 34.1425 41.2272 34.1507C41.1494 34.159 41.0739 34.1825 41.0051 34.2199C40.9363 34.2573 40.8755 34.3079 40.8263 34.3688C40.7268 34.4918 40.6803 34.6493 40.6969 34.8066C40.7136 34.9639 40.792 35.1081 40.915 35.2075L42.3375 36.35C42.4605 36.4495 42.618 36.496 42.7753 36.4794C42.9326 36.4627 43.0768 36.3843 43.1763 36.2613C43.2757 36.1383 43.3222 35.9808 43.3056 35.8235C43.2889 35.6662 43.2105 35.522 43.0875 35.4225H43.085Z" fill="#939598"/>
<path d="M34.0625 29.6975L37.515 32.4725C37.6209 32.5567 37.7522 32.6026 37.8875 32.6025C38.011 32.6027 38.1314 32.5646 38.2322 32.4933C38.3331 32.4221 38.4092 32.3212 38.4501 32.2047C38.4911 32.0883 38.4947 31.962 38.4607 31.8433C38.4266 31.7246 38.3565 31.6195 38.26 31.5425L34.81 28.7675C34.6863 28.6719 34.5301 28.6286 34.3749 28.6469C34.2196 28.6652 34.0777 28.7436 33.9796 28.8652C33.8815 28.9869 33.835 29.1422 33.85 29.2978C33.865 29.4533 33.9404 29.5968 34.06 29.6975H34.0625Z" fill="#939598"/>
<path d="M27.5775 33.36L40.185 40.6425C40.2754 40.6949 40.378 40.7225 40.4825 40.7225C40.6134 40.7224 40.7406 40.6791 40.8444 40.5994C40.9482 40.5197 41.0228 40.4079 41.0567 40.2815C41.0906 40.1551 41.0819 40.021 41.0318 39.9001C40.9818 39.7791 40.8933 39.678 40.78 39.6125L28.1725 32.33C28.0362 32.2564 27.8767 32.2389 27.7277 32.2811C27.5787 32.3232 27.4521 32.4218 27.3746 32.5559C27.2972 32.69 27.275 32.849 27.3129 32.9991C27.3508 33.1492 27.4457 33.2787 27.5775 33.36Z" fill="#939598"/>
<path d="M38.25 43.6801L36.5925 43.0776C36.5185 43.0481 36.4394 43.0337 36.3598 43.0354C36.2802 43.0371 36.2018 43.0547 36.1291 43.0872C36.0564 43.1198 35.991 43.1665 35.9368 43.2248C35.8825 43.2831 35.8405 43.3516 35.8132 43.4264C35.786 43.5012 35.774 43.5808 35.778 43.6603C35.782 43.7398 35.8019 43.8177 35.8366 43.8894C35.8713 43.961 35.92 44.025 35.9798 44.0775C36.0396 44.13 36.1094 44.17 36.185 44.1951L37.8425 44.8001C37.9073 44.8238 37.9759 44.8356 38.045 44.8351C38.1854 44.836 38.3217 44.7872 38.4296 44.6974C38.5376 44.6075 38.6103 44.4823 38.6348 44.344C38.6594 44.2058 38.6342 44.0632 38.5638 43.9417C38.4933 43.8202 38.3822 43.7275 38.25 43.6801Z" fill="#939598"/>
<path d="M28.585 40.1676C28.4381 40.1189 28.278 40.1293 28.1387 40.1967C27.9994 40.2641 27.8918 40.3831 27.8388 40.5285C27.7858 40.6739 27.7915 40.8342 27.8547 40.9755C27.9179 41.1167 28.0337 41.2278 28.1775 41.2851L32.2025 42.7501C32.2765 42.7795 32.3556 42.7939 32.4352 42.7922C32.5148 42.7905 32.5932 42.7729 32.6659 42.7404C32.7386 42.7079 32.804 42.6611 32.8582 42.6028C32.9125 42.5445 32.9545 42.476 32.9818 42.4012C33.009 42.3264 33.021 42.2469 33.017 42.1673C33.013 42.0878 32.9931 42.0099 32.9584 41.9383C32.9237 41.8666 32.875 41.8026 32.8152 41.7501C32.7553 41.6976 32.6856 41.6576 32.61 41.6326L28.585 40.1676Z" fill="#939598"/>
<path d="M22.9275 47.05L37.265 49.5801C37.3 49.5825 37.3351 49.5825 37.37 49.5801C37.5179 49.5786 37.6599 49.5221 37.7684 49.4216C37.8768 49.3211 37.944 49.1839 37.9568 49.0366C37.9696 48.8893 37.9271 48.7425 37.8376 48.6248C37.748 48.5071 37.6179 48.427 37.4725 48.4001L23.1325 45.8775C22.977 45.8504 22.8171 45.8861 22.688 45.9768C22.5588 46.0675 22.471 46.2058 22.4438 46.3613C22.4166 46.5168 22.4523 46.6767 22.543 46.8059C22.6337 46.935 22.772 47.0229 22.9275 47.05Z" fill="#939598"/>
<path d="M69.5875 26.8375C69.6225 26.8399 69.6576 26.8399 69.6925 26.8375C69.8334 26.8369 69.9696 26.7864 70.0767 26.6948C70.1839 26.6032 70.255 26.4766 70.2775 26.3375L70.5975 24.5275C70.625 24.372 70.5897 24.212 70.4992 24.0826C70.4087 23.9532 70.2705 23.865 70.115 23.8375C69.9595 23.81 69.7995 23.8453 69.6701 23.9358C69.5407 24.0263 69.4525 24.1645 69.425 24.32L69.105 26.1325C69.0895 26.2105 69.0897 26.2909 69.1057 26.3689C69.1216 26.4468 69.153 26.5208 69.198 26.5865C69.2429 26.6522 69.3005 26.7082 69.3674 26.7513C69.4343 26.7944 69.5091 26.8237 69.5875 26.8375Z" fill="#939598"/>
<path d="M70.6725 20.6825C70.7074 20.6849 70.7425 20.6849 70.7775 20.6825C70.9183 20.6814 71.0542 20.6307 71.1612 20.5392C71.2682 20.4477 71.3395 20.3214 71.3625 20.1825L72.1375 15.78C72.165 15.6245 72.1296 15.4645 72.0391 15.3351C71.9487 15.2057 71.8105 15.1175 71.655 15.09C71.4995 15.0625 71.3395 15.0978 71.2101 15.1883C71.0807 15.2788 70.9925 15.417 70.965 15.5725L70.19 20C70.1646 20.1543 70.2009 20.3125 70.2912 20.4402C70.3815 20.568 70.5185 20.655 70.6725 20.6825Z" fill="#939598"/>
<path d="M73.93 28.6325C74.0766 28.684 74.2375 28.6756 74.378 28.6091C74.5184 28.5427 74.6269 28.4235 74.68 28.2775L79.66 14.59C79.7087 14.4431 79.6983 14.283 79.6309 14.1437C79.5635 14.0044 79.4445 13.8968 79.2991 13.8438C79.1537 13.7908 78.9933 13.7965 78.8521 13.8597C78.7109 13.923 78.5998 14.0388 78.5425 14.1825L73.575 27.87C73.521 28.0182 73.5281 28.1818 73.5947 28.3248C73.6613 28.4677 73.7819 28.5784 73.93 28.6325Z" fill="#939598"/>
<path d="M79.075 27.73L78.15 29.33C78.072 29.4671 78.0514 29.6294 78.0926 29.7816C78.1338 29.9338 78.2335 30.0635 78.37 30.1425C78.4593 30.1953 78.5613 30.2229 78.665 30.2225C78.7698 30.2226 78.8727 30.1952 78.9636 30.143C79.0544 30.0908 79.1299 30.0156 79.1825 29.925L80.105 28.325C80.1468 28.2573 80.1745 28.1818 80.1867 28.1032C80.1988 28.0245 80.195 27.9443 80.1755 27.8671C80.156 27.7899 80.1213 27.7175 80.0733 27.654C80.0253 27.5905 79.9651 27.5373 79.8962 27.4975C79.8273 27.4576 79.7511 27.4321 79.6721 27.4222C79.5932 27.4124 79.513 27.4185 79.4365 27.4402C79.3599 27.4619 79.2884 27.4987 79.2264 27.5485C79.1643 27.5982 79.1128 27.66 79.075 27.73Z" fill="#939598"/>
<path d="M81.5 24.71C81.5906 24.7619 81.6931 24.7895 81.7975 24.79C81.902 24.7915 82.0051 24.7656 82.0964 24.7147C82.1877 24.6638 82.2639 24.5897 82.3175 24.5L84.5675 20.6124C84.6077 20.5443 84.6341 20.4689 84.6452 20.3906C84.6563 20.3123 84.6518 20.2325 84.6321 20.1559C84.6124 20.0793 84.5777 20.0074 84.5302 19.9441C84.4826 19.8809 84.4231 19.8277 84.355 19.7875C84.2869 19.7472 84.2115 19.7208 84.1332 19.7097C84.0548 19.6987 83.9751 19.7031 83.8985 19.7228C83.8219 19.7426 83.7499 19.7772 83.6867 19.8247C83.6234 19.8723 83.5702 19.9318 83.53 20L81.28 23.885C81.2394 23.9533 81.2129 24.0292 81.202 24.1079C81.1911 24.1867 81.1961 24.2669 81.2166 24.3437C81.2371 24.4205 81.2727 24.4925 81.3214 24.5554C81.37 24.6183 81.4308 24.6708 81.5 24.71Z" fill="#939598"/>
<path d="M81.835 33.3175C81.9415 33.4087 82.0773 33.4584 82.2175 33.4575C82.3043 33.4576 82.39 33.4385 82.4686 33.4018C82.5472 33.3651 82.6168 33.3116 82.6725 33.245L92.0325 22.0875C92.1339 21.9665 92.1832 21.8101 92.1693 21.6528C92.1555 21.4956 92.0797 21.3502 91.9587 21.2487C91.8377 21.1473 91.6814 21.0981 91.5241 21.1119C91.3668 21.1257 91.2214 21.2015 91.12 21.3225L81.75 32.48C81.7006 32.5406 81.6635 32.6103 81.641 32.6851C81.6186 32.76 81.6111 32.8386 81.6189 32.9164C81.6268 32.9941 81.65 33.0696 81.6871 33.1384C81.7241 33.2073 81.7744 33.2681 81.835 33.3175Z" fill="#939598"/>
<path d="M86.32 36.35L87.74 35.2075C87.8009 35.1583 87.8515 35.0975 87.8889 35.0287C87.9264 34.9599 87.9499 34.8844 87.9581 34.8066C87.9663 34.7287 87.9592 34.6499 87.937 34.5748C87.9148 34.4997 87.878 34.4297 87.8288 34.3688C87.7795 34.3079 87.7188 34.2573 87.6499 34.2199C87.5811 34.1825 87.5056 34.159 87.4278 34.1507C87.3499 34.1425 87.2711 34.1496 87.196 34.1718C87.1209 34.194 87.0509 34.2308 86.99 34.28L85.57 35.4225C85.447 35.522 85.3686 35.6662 85.3519 35.8235C85.3353 35.9808 85.3818 36.1383 85.4812 36.2613C85.5807 36.3843 85.725 36.4627 85.8823 36.4794C86.0395 36.496 86.197 36.4495 86.32 36.35Z" fill="#939598"/>
<path d="M90.3075 32.38C90.4061 32.5028 90.5494 32.5815 90.7059 32.5988C90.8624 32.6161 91.0194 32.5707 91.1425 32.4725L94.595 29.6975C94.7183 29.598 94.7971 29.4537 94.814 29.2961C94.8309 29.1386 94.7845 28.9808 94.685 28.8575C94.5855 28.7342 94.4412 28.6554 94.2836 28.6385C94.1261 28.6217 93.9683 28.668 93.845 28.7675L90.3925 31.5425C90.3319 31.5919 90.2816 31.6527 90.2446 31.7216C90.2075 31.7904 90.1843 31.8659 90.1764 31.9436C90.1685 32.0214 90.1761 32.1 90.1986 32.1749C90.221 32.2497 90.2581 32.3194 90.3075 32.38Z" fill="#939598"/>
<path d="M87.66 40.425C87.7122 40.5154 87.7873 40.5905 87.8777 40.6427C87.9681 40.6949 88.0706 40.7224 88.175 40.7225C88.2796 40.7232 88.3824 40.6956 88.4725 40.6425L101.083 33.36C101.214 33.2787 101.309 33.1492 101.347 32.9991C101.385 32.849 101.363 32.69 101.285 32.5559C101.208 32.4218 101.081 32.3232 100.932 32.2811C100.783 32.2389 100.624 32.2564 100.488 32.33L87.8775 39.6125C87.8097 39.6513 87.7502 39.7032 87.7025 39.7652C87.6548 39.8271 87.6198 39.8979 87.5996 39.9734C87.5794 40.049 87.5743 40.1277 87.5847 40.2052C87.595 40.2827 87.6206 40.3574 87.66 40.425Z" fill="#939598"/>
<path d="M90.625 44.835C90.6949 44.8358 90.7643 44.824 90.83 44.8L92.485 44.195C92.562 44.1713 92.6333 44.1321 92.6947 44.08C92.756 44.0278 92.8062 43.9637 92.8421 43.8916C92.878 43.8195 92.8988 43.7409 92.9034 43.6605C92.908 43.5801 92.8962 43.4995 92.8688 43.4238C92.8413 43.3481 92.7988 43.2787 92.7438 43.2199C92.6887 43.1611 92.6223 43.1141 92.5486 43.0817C92.4748 43.0494 92.3953 43.0323 92.3147 43.0316C92.2342 43.0309 92.1543 43.0465 92.08 43.0775L90.4225 43.68C90.2905 43.7274 90.1795 43.8199 90.1091 43.9412C90.0386 44.0624 90.0133 44.2047 90.0375 44.3428C90.0617 44.4809 90.1339 44.6061 90.2414 44.6961C90.3489 44.7862 90.4848 44.8354 90.625 44.835Z" fill="#939598"/>
<path d="M96.25 42.7875C96.3192 42.7872 96.3878 42.7745 96.4525 42.75L100.478 41.285C100.553 41.26 100.623 41.22 100.683 41.1675C100.743 41.115 100.791 41.051 100.826 40.9793C100.861 40.9076 100.881 40.8297 100.885 40.7502C100.889 40.6707 100.877 40.5912 100.849 40.5164C100.822 40.4416 100.78 40.373 100.726 40.3148C100.671 40.2565 100.606 40.2097 100.533 40.1772C100.461 40.1447 100.382 40.127 100.303 40.1254C100.223 40.1237 100.144 40.138 100.07 40.1675L96.045 41.6325C95.9128 41.68 95.8017 41.7727 95.7312 41.8942C95.6608 42.0157 95.6356 42.1582 95.6602 42.2965C95.6847 42.4348 95.7574 42.56 95.8654 42.6498C95.9733 42.7397 96.1096 42.7885 96.25 42.7875Z" fill="#939598"/>
<path d="M90.705 49.0975C90.727 49.2368 90.798 49.3637 90.9053 49.4554C91.0125 49.547 91.1489 49.5974 91.29 49.5975C91.3241 49.6 91.3584 49.6 91.3925 49.5975L105.733 47.0675C105.888 47.04 106.026 46.9518 106.117 46.8224C106.207 46.693 106.243 46.533 106.215 46.3775C106.187 46.222 106.099 46.0838 105.97 45.9933C105.841 45.9028 105.68 45.8675 105.525 45.895L91.1875 48.425C91.0352 48.4519 90.8995 48.5374 90.8094 48.663C90.7192 48.7887 90.6818 48.9446 90.705 49.0975Z" fill="#939598"/>
<path d="M36.8925 53.1H34.6425C34.491 53.1098 34.349 53.1769 34.2452 53.2876C34.1414 53.3984 34.0836 53.5444 34.0836 53.6962C34.0836 53.848 34.1414 53.9941 34.2452 54.1048C34.349 54.2156 34.491 54.2827 34.6425 54.2925H36.8925C37.044 54.2827 37.186 54.2156 37.2898 54.1048C37.3936 53.9941 37.4514 53.848 37.4514 53.6962C37.4514 53.5444 37.3936 53.3984 37.2898 53.2876C37.186 53.1769 37.044 53.1098 36.8925 53.1Z" fill="#939598"/>
<path d="M23.7125 53.1C23.561 53.1098 23.419 53.1769 23.3152 53.2876C23.2114 53.3984 23.1536 53.5444 23.1536 53.6962C23.1536 53.848 23.2114 53.9941 23.3152 54.1048C23.419 54.2156 23.561 54.2827 23.7125 54.2925H29.2125C29.364 54.2827 29.506 54.2156 29.6098 54.1048C29.7136 53.9941 29.7714 53.848 29.7714 53.6962C29.7714 53.5444 29.7136 53.3984 29.6098 53.2876C29.506 53.1769 29.364 53.1098 29.2125 53.1H23.7125Z" fill="#939598"/>
<path d="M91.9525 54.2925H94.215C94.3665 54.2827 94.5085 54.2156 94.6123 54.1048C94.7161 53.9941 94.7739 53.848 94.7739 53.6962C94.7739 53.5444 94.7161 53.3984 94.6123 53.2876C94.5085 53.1769 94.3665 53.1098 94.215 53.1H91.9525C91.801 53.1098 91.659 53.1769 91.5552 53.2876C91.4514 53.3984 91.3936 53.5444 91.3936 53.6962C91.3936 53.848 91.4514 53.9941 91.5552 54.1048C91.659 54.2156 91.801 54.2827 91.9525 54.2925Z" fill="#939598"/>
<path d="M105.133 54.2925C105.284 54.2827 105.426 54.2156 105.53 54.1048C105.634 53.9941 105.691 53.848 105.691 53.6962C105.691 53.5444 105.634 53.3984 105.53 53.2876C105.426 53.1769 105.284 53.1098 105.133 53.1H99.6325C99.481 53.1098 99.339 53.1769 99.2352 53.2876C99.1314 53.3984 99.0736 53.5444 99.0736 53.6962C99.0736 53.848 99.1314 53.9941 99.2352 54.1048C99.339 54.2156 99.481 54.2827 99.6325 54.2925H105.133Z" fill="#939598"/>
<path d="M64.33 79.7675C64.1722 79.7675 64.0209 79.8301 63.9093 79.9417C63.7977 80.0533 63.735 80.2047 63.735 80.3625V94.9275C63.735 95.0853 63.7977 95.2366 63.9093 95.3482C64.0209 95.4598 64.1722 95.5225 64.33 95.5225C64.4878 95.5225 64.6391 95.4598 64.7507 95.3482C64.8623 95.2366 64.925 95.0853 64.925 94.9275V80.3625C64.9243 80.2049 64.8614 80.0539 64.75 79.9425C64.6386 79.831 64.4876 79.7681 64.33 79.7675Z" fill="#939598"/>
<path d="M59.07 79.8649C58.993 79.8513 58.914 79.853 58.8377 79.8701C58.7613 79.8871 58.6891 79.9191 58.6252 79.9642C58.5613 80.0093 58.507 80.0666 58.4653 80.1328C58.4236 80.199 58.3955 80.2728 58.3825 80.3499L58.0625 82.1599C58.0485 82.2369 58.0499 82.316 58.0666 82.3925C58.0833 82.4689 58.115 82.5414 58.1599 82.6055C58.2047 82.6697 58.2619 82.7243 58.328 82.7662C58.3941 82.8082 58.4678 82.8366 58.545 82.8499C58.5799 82.8536 58.6151 82.8536 58.65 82.8499C58.7909 82.8493 58.9271 82.7988 59.0342 82.7072C59.1413 82.6156 59.2125 82.489 59.235 82.3499L59.5525 80.5374C59.5751 80.3846 59.5374 80.229 59.4473 80.1035C59.3573 79.978 59.222 79.8924 59.07 79.8649Z" fill="#939598"/>
<path d="M57.985 86.0201C57.8299 85.9932 57.6704 86.0289 57.5416 86.1193C57.4127 86.2098 57.325 86.3476 57.2975 86.5026L56.52 90.9051C56.5063 90.9821 56.508 91.061 56.5248 91.1374C56.5417 91.2137 56.5734 91.286 56.6182 91.3501C56.663 91.4142 56.72 91.4688 56.786 91.5109C56.8519 91.5529 56.9255 91.5815 57.0025 91.5951C57.0374 91.5988 57.0726 91.5988 57.1075 91.5951C57.2484 91.5945 57.3846 91.544 57.4917 91.4524C57.5988 91.3608 57.67 91.2342 57.6925 91.0951L58.47 86.6926C58.4919 86.5395 58.4536 86.3839 58.3631 86.2585C58.2727 86.1331 58.1372 86.0477 57.985 86.0201Z" fill="#939598"/>
<path d="M54.7275 78.0699C54.5809 78.0191 54.4202 78.0278 54.28 78.0942C54.1397 78.1606 54.0311 78.2793 53.9775 78.4249L48.9975 92.1124C48.9709 92.1859 48.959 92.264 48.9625 92.3421C48.966 92.4203 48.9849 92.497 49.0182 92.5678C49.0514 92.6386 49.0982 92.7022 49.156 92.7549C49.2138 92.8076 49.2814 92.8484 49.355 92.8749C49.4198 92.8988 49.4884 92.9107 49.5575 92.9099C49.6799 92.91 49.7993 92.8724 49.8995 92.8021C49.9997 92.7319 50.0759 92.6325 50.1175 92.5174L55.0975 78.8324C55.1239 78.7581 55.1352 78.6793 55.1308 78.6005C55.1265 78.5218 55.1065 78.4447 55.072 78.3737C55.0376 78.3028 54.9894 78.2394 54.9303 78.1872C54.8711 78.1351 54.8022 78.0952 54.7275 78.0699Z" fill="#939598"/>
<path d="M49.585 78.9726L50.5 77.3751C50.5792 77.2385 50.601 77.076 50.5604 76.9234C50.5198 76.7708 50.4203 76.6406 50.2837 76.5613C50.1472 76.4821 49.9847 76.4604 49.8321 76.5009C49.6795 76.5415 49.5492 76.641 49.47 76.7776L48.545 78.3776C48.4667 78.5147 48.4456 78.6772 48.4864 78.8298C48.5271 78.9823 48.6263 79.1127 48.7625 79.1926C48.8533 79.244 48.9557 79.2715 49.06 79.2726C49.1663 79.2741 49.2711 79.247 49.3634 79.1943C49.4558 79.1415 49.5323 79.065 49.585 78.9726Z" fill="#939598"/>
<path d="M47.155 82C47.0179 81.9217 46.8554 81.9006 46.7028 81.9413C46.5503 81.982 46.4199 82.0812 46.34 82.2174L44.09 86.105C44.011 86.2419 43.9896 86.4046 44.0304 86.5574C44.0711 86.7102 44.1708 86.8405 44.3075 86.92C44.3983 86.9713 44.5007 86.9989 44.605 87C44.7094 86.9999 44.8119 86.9724 44.9023 86.9202C44.9927 86.868 45.0678 86.7929 45.12 86.7025L47.37 82.815C47.4492 82.6783 47.471 82.5158 47.4307 82.3631C47.3904 82.2104 47.2913 82.0798 47.155 82Z" fill="#939598"/>
<path d="M46.825 73.385C46.7651 73.3345 46.6959 73.2963 46.6212 73.2726C46.5466 73.2488 46.468 73.2401 46.3899 73.2468C46.3119 73.2536 46.2359 73.2756 46.1665 73.3118C46.097 73.348 46.0353 73.3975 45.985 73.4575L36.6275 84.615C36.5261 84.736 36.4768 84.8924 36.4907 85.0497C36.5045 85.207 36.5802 85.3523 36.7012 85.4538C36.8223 85.5552 36.9786 85.6045 37.1359 85.5906C37.2932 85.5768 37.4386 85.501 37.54 85.38L46.8975 74.2225C46.9988 74.1018 47.048 73.9458 47.0345 73.7888C47.0209 73.6318 46.9455 73.4866 46.825 73.385Z" fill="#939598"/>
<path d="M40.8275 72.3325C40.8835 72.4019 40.9543 72.458 41.0348 72.4965C41.1152 72.535 41.2033 72.555 41.2925 72.555C41.4282 72.5552 41.5599 72.5084 41.665 72.4225L43.085 71.28C43.208 71.1805 43.2864 71.0363 43.3031 70.879C43.3197 70.7217 43.2732 70.5642 43.1737 70.4412C43.0743 70.3183 42.93 70.2398 42.7728 70.2232C42.6155 70.2065 42.458 70.253 42.335 70.3525L40.9175 71.5C40.7964 71.5993 40.7191 71.7422 40.7023 71.8978C40.6854 72.0535 40.7304 72.2096 40.8275 72.3325Z" fill="#939598"/>
<path d="M38.3525 74.3225C38.3037 74.2613 38.2432 74.2103 38.1745 74.1726C38.1059 74.1349 38.0304 74.1111 37.9525 74.1028C37.8746 74.0944 37.7959 74.1015 37.7208 74.1238C37.6457 74.1461 37.5757 74.183 37.515 74.2325L34.0625 77C33.9399 77.0994 33.8617 77.2433 33.8448 77.4002C33.828 77.5571 33.8739 77.7143 33.9725 77.8375C34.0281 77.9074 34.0989 77.9637 34.1794 78.0022C34.26 78.0408 34.3482 78.0605 34.4375 78.06C34.5728 78.0601 34.7041 78.0143 34.81 77.93L38.26 75.155C38.382 75.0565 38.4602 74.9137 38.4776 74.7578C38.4949 74.6019 38.4499 74.4454 38.3525 74.3225Z" fill="#939598"/>
<path d="M41 66.2775C40.9609 66.2096 40.9088 66.15 40.8466 66.1023C40.7844 66.0546 40.7134 66.0196 40.6377 65.9994C40.562 65.9792 40.483 65.9741 40.4053 65.9845C40.3276 65.9949 40.2528 66.0206 40.185 66.06L27.5775 73.3425C27.5075 73.3803 27.4457 73.4318 27.396 73.4939C27.3462 73.5559 27.3094 73.6274 27.2877 73.7039C27.266 73.7805 27.2599 73.8607 27.2697 73.9396C27.2796 74.0186 27.3051 74.0948 27.345 74.1637C27.3848 74.2326 27.438 74.2928 27.5015 74.3408C27.565 74.3888 27.6374 74.4235 27.7146 74.443C27.7918 74.4625 27.872 74.4663 27.9507 74.4541C28.0293 74.442 28.1048 74.4143 28.1725 74.3725L40.78 67.09C40.8478 67.0511 40.9073 66.9992 40.9551 66.9374C41.0028 66.8755 41.0379 66.8048 41.0584 66.7293C41.0788 66.6539 41.0842 66.5751 41.0741 66.4976C41.0641 66.4201 41.0389 66.3453 41 66.2775Z" fill="#939598"/>
<path d="M37.83 61.9025L36.1725 62.5C36.0403 62.5475 35.9292 62.6402 35.8587 62.7617C35.7883 62.8832 35.7631 63.0257 35.7877 63.164C35.8122 63.3023 35.8849 63.4275 35.9928 63.5173C36.1008 63.6072 36.237 63.656 36.3775 63.655C36.4467 63.6547 36.5153 63.642 36.58 63.6175L38.2375 63.015C38.386 62.961 38.507 62.8502 38.5738 62.707C38.6406 62.5637 38.6478 62.3998 38.5938 62.2513C38.5397 62.1028 38.4289 61.9818 38.2857 61.915C38.1424 61.8482 37.9785 61.841 37.83 61.895V61.9025Z" fill="#939598"/>
<path d="M32.2025 63.9526L28.1775 65.4176C28.0453 65.465 27.9341 65.5577 27.8637 65.6792C27.7933 65.8007 27.7681 65.9433 27.7927 66.0815C27.8172 66.2198 27.8899 66.345 27.9978 66.4348C28.1058 66.5247 28.242 66.5735 28.3825 66.5725C28.4517 66.5722 28.5203 66.5595 28.585 66.5351L32.61 65.0701C32.6856 65.045 32.7553 65.005 32.8152 64.9525C32.875 64.9 32.9237 64.836 32.9584 64.7644C32.9931 64.6927 33.013 64.6148 33.017 64.5353C33.021 64.4557 33.009 64.3762 32.9818 64.3014C32.9545 64.2266 32.9125 64.1581 32.8582 64.0998C32.804 64.0415 32.7386 63.9948 32.6659 63.9622C32.5932 63.9297 32.5148 63.9121 32.4352 63.9104C32.3556 63.9087 32.2764 63.9231 32.2025 63.9526Z" fill="#939598"/>
<path d="M37.955 57.6075C37.9275 57.4518 37.8395 57.3133 37.7102 57.2224C37.5809 57.1315 37.4208 57.0956 37.265 57.1225L22.9275 59.6525C22.779 59.6762 22.6449 59.7553 22.5523 59.8738C22.4598 59.9924 22.4155 60.1416 22.4285 60.2914C22.4415 60.4413 22.5107 60.5806 22.6223 60.6815C22.7339 60.7823 22.8796 60.8372 23.03 60.835C23.0641 60.8385 23.0984 60.8385 23.1325 60.835L37.4725 58.305C37.5504 58.2918 37.6249 58.2631 37.6916 58.2207C37.7582 58.1782 37.8158 58.1229 37.8607 58.0579C37.9057 57.9929 37.9372 57.9196 37.9534 57.8422C37.9696 57.7649 37.9701 57.685 37.955 57.6075Z" fill="#939598"/>
<path d="M70.5975 82.1599L70.2775 80.3499C70.2503 80.1945 70.1625 80.0561 70.0333 79.9654C69.9041 79.8747 69.7442 79.839 69.5887 79.8662C69.4333 79.8934 69.2949 79.9812 69.2042 80.1104C69.1135 80.2395 69.0778 80.3995 69.105 80.5549L69.425 82.3674C69.4475 82.5066 69.5186 82.6332 69.6258 82.7247C69.7329 82.8163 69.8691 82.8669 70.01 82.8674C70.0449 82.871 70.0801 82.871 70.115 82.8674C70.1938 82.854 70.2691 82.8248 70.3363 82.7816C70.4036 82.7385 70.4615 82.6822 70.5065 82.6162C70.5515 82.5501 70.5828 82.4757 70.5984 82.3973C70.6141 82.3189 70.6137 82.2382 70.5975 82.1599Z" fill="#939598"/>
<path d="M71.3625 86.4999C71.335 86.3444 71.2468 86.2062 71.1174 86.1158C70.988 86.0253 70.828 85.9899 70.6725 86.0174C70.517 86.0449 70.3788 86.1331 70.2883 86.2625C70.1979 86.3919 70.1625 86.5519 70.19 86.7074L70.965 91.1099C70.9875 91.249 71.0587 91.3756 71.1658 91.4672C71.2729 91.5588 71.4091 91.6093 71.55 91.6099C71.5849 91.6136 71.6201 91.6136 71.655 91.6099C71.7322 91.5966 71.8059 91.5682 71.872 91.5263C71.9381 91.4843 71.9953 91.4297 72.0401 91.3655C72.085 91.3014 72.1167 91.2289 72.1334 91.1525C72.1501 91.076 72.1515 90.9969 72.1375 90.9199L71.3625 86.4999Z" fill="#939598"/>
<path d="M74.6925 78.425C74.6352 78.2812 74.5241 78.1654 74.3829 78.1022C74.2417 78.0389 74.0813 78.0332 73.9359 78.0862C73.7905 78.1393 73.6715 78.2468 73.6041 78.3861C73.5368 78.5255 73.5263 78.6856 73.575 78.8325L78.555 92.5175C78.5962 92.6323 78.6719 92.7317 78.7716 92.8019C78.8714 92.8722 78.9905 92.9099 79.1125 92.91C79.1824 92.9107 79.2518 92.8989 79.3175 92.875C79.4656 92.8209 79.5863 92.7102 79.6528 92.5672C79.7194 92.4242 79.7265 92.2607 79.6725 92.1125L74.6925 78.425Z" fill="#939598"/>
<path d="M79.1825 76.7775C79.0985 76.6504 78.9692 76.5601 78.8209 76.5252C78.6726 76.4903 78.5165 76.5133 78.3846 76.5896C78.2527 76.6659 78.155 76.7898 78.1114 76.9358C78.0678 77.0818 78.0816 77.2389 78.15 77.375L79.075 78.9725C79.1267 79.0636 79.2016 79.1393 79.292 79.192C79.3825 79.2447 79.4853 79.2725 79.59 79.2725C79.6944 79.2721 79.7969 79.2445 79.8875 79.1925C80.0242 79.1131 80.1239 78.9827 80.1646 78.83C80.2054 78.6772 80.184 78.5145 80.105 78.3775L79.1825 76.7775Z" fill="#939598"/>
<path d="M82.3175 82.21C82.2383 82.0734 82.108 81.9739 81.9554 81.9333C81.8028 81.8927 81.6403 81.9145 81.5038 81.9937C81.3672 82.0729 81.2676 82.2032 81.2271 82.3558C81.1865 82.5084 81.2083 82.6709 81.2875 82.8075L83.5375 86.695C83.5897 86.7854 83.6648 86.8604 83.7552 86.9127C83.8456 86.9649 83.9481 86.9924 84.0525 86.9925C84.1569 86.992 84.2594 86.9645 84.35 86.9125C84.4867 86.833 84.5864 86.7027 84.6271 86.5499C84.6679 86.3971 84.6465 86.2344 84.5675 86.0975L82.3175 82.21Z" fill="#939598"/>
<path d="M82.6725 73.4575C82.5711 73.3365 82.4257 73.2607 82.2684 73.2469C82.1111 73.2331 81.9548 73.2823 81.8338 73.3838C81.7128 73.4852 81.637 73.6306 81.6232 73.7879C81.6093 73.9451 81.6586 74.1015 81.76 74.2225L91.12 85.38C91.2216 85.5003 91.3665 85.5757 91.5233 85.5898C91.6802 85.6038 91.8362 85.5554 91.9575 85.455C92.0786 85.3534 92.1544 85.2079 92.1685 85.0505C92.1825 84.8931 92.1337 84.7365 92.0325 84.615L82.6725 73.4575Z" fill="#939598"/>
<path d="M85.4825 70.445C85.4336 70.5059 85.3971 70.5758 85.3753 70.6507C85.3534 70.7256 85.3466 70.8042 85.3552 70.8818C85.3638 70.9594 85.3876 71.0345 85.4253 71.1028C85.4631 71.1712 85.5139 71.2314 85.575 71.28L86.995 72.4225C87.0999 72.5088 87.2317 72.5557 87.3675 72.555C87.4566 72.5547 87.5446 72.5345 87.625 72.496C87.7054 72.4576 87.7763 72.4017 87.8325 72.3325C87.9311 72.2108 87.9777 72.0552 87.9623 71.8993C87.9468 71.7435 87.8705 71.6 87.75 71.5L86.33 70.3575C86.269 70.3067 86.1985 70.2685 86.1225 70.2454C86.0466 70.2222 85.9668 70.2145 85.8878 70.2226C85.8088 70.2308 85.7323 70.2547 85.6627 70.2929C85.5931 70.3311 85.5318 70.3828 85.4825 70.445Z" fill="#939598"/>
<path d="M94.595 77L91.1425 74.2275C91.0195 74.128 90.862 74.0815 90.7048 74.0982C90.5475 74.1148 90.4032 74.1933 90.3038 74.3162C90.2043 74.4392 90.1578 74.5967 90.1744 74.754C90.1911 74.9113 90.2695 75.0555 90.3925 75.155L93.845 77.93C93.9683 78.0294 94.1261 78.0758 94.2836 78.059C94.4412 78.0421 94.5856 77.9633 94.685 77.84C94.7845 77.7167 94.8309 77.5589 94.814 77.4014C94.7971 77.2438 94.7183 77.0994 94.595 77Z" fill="#939598"/>
<path d="M101.082 73.3425L88.4725 66.06C88.4048 66.0182 88.3293 65.9905 88.2507 65.9784C88.172 65.9663 88.0918 65.97 88.0146 65.9895C87.9374 66.009 87.865 66.0437 87.8015 66.0917C87.738 66.1397 87.6847 66.1999 87.6449 66.2688C87.6051 66.3377 87.5796 66.4139 87.5697 66.4929C87.5599 66.5719 87.566 66.652 87.5877 66.7286C87.6093 66.8051 87.6462 66.8766 87.696 66.9387C87.7457 67.0007 87.8075 67.0522 87.8775 67.09L100.5 74.3725C100.59 74.4256 100.693 74.4533 100.798 74.4525C100.928 74.4524 101.056 74.4091 101.159 74.3294C101.263 74.2497 101.338 74.138 101.372 74.0115C101.406 73.8851 101.397 73.751 101.347 73.6301C101.297 73.5091 101.208 73.4081 101.095 73.3425H101.082Z" fill="#939598"/>
<path d="M90.4225 63.0225L92.08 63.625C92.1447 63.6497 92.2133 63.6624 92.2825 63.6625C92.4227 63.6628 92.5586 63.6136 92.6661 63.5236C92.7736 63.4335 92.8458 63.3084 92.87 63.1702C92.8942 63.0321 92.8689 62.8899 92.7984 62.7686C92.728 62.6474 92.617 62.5549 92.485 62.5075L90.83 61.9025C90.6815 61.8485 90.5176 61.8556 90.3743 61.9224C90.2311 61.9892 90.1203 62.1102 90.0663 62.2587C90.0122 62.4073 90.0194 62.5712 90.0862 62.7144C90.153 62.8576 90.274 62.9685 90.4225 63.0225Z" fill="#939598"/>
<path d="M100.073 66.5351C100.219 66.5838 100.38 66.5733 100.519 66.5059C100.658 66.4385 100.766 66.3195 100.819 66.1741C100.872 66.0287 100.866 65.8684 100.803 65.7272C100.74 65.5859 100.624 65.4749 100.48 65.4176L96.455 63.9526C96.381 63.9231 96.3019 63.9087 96.2223 63.9104C96.1427 63.9121 96.0643 63.9297 95.9916 63.9622C95.9189 63.9948 95.8535 64.0415 95.7993 64.0998C95.745 64.1581 95.703 64.2266 95.6757 64.3014C95.6485 64.3762 95.6365 64.4557 95.6405 64.5353C95.6445 64.6148 95.6644 64.6927 95.6991 64.7644C95.7338 64.836 95.7825 64.9 95.8423 64.9525C95.9022 65.005 95.9719 65.045 96.0475 65.0701L100.073 66.5351Z" fill="#939598"/>
<path d="M105.732 59.6525L91.3925 57.1225C91.237 57.0953 91.0771 57.131 90.9479 57.2217C90.8188 57.3124 90.7309 57.4507 90.7038 57.6062C90.6766 57.7617 90.7123 57.9216 90.803 58.0508C90.8937 58.18 91.032 58.2678 91.1875 58.295L105.525 60.825C105.56 60.8287 105.595 60.8287 105.63 60.825C105.78 60.8272 105.926 60.7723 106.038 60.6715C106.149 60.5706 106.219 60.4313 106.231 60.2814C106.244 60.1316 106.2 59.9824 106.108 59.8638C106.015 59.7453 105.881 59.6662 105.732 59.6425V59.6525Z" fill="#939598"/>
<path d="M108.623 116.735L99.7175 108.942C99.2129 108.498 98.8256 107.935 98.59 107.305L96.46 101.542C96.3558 101.259 96.2845 100.965 96.2475 100.665C96.2533 100.594 96.2465 100.522 96.2275 100.452C96.191 99.9557 96.2469 99.4564 96.3925 98.98L97.905 94.1275C97.9132 94.0997 97.9191 94.0713 97.9225 94.0425C103.732 89.104 108.401 82.9645 111.608 76.0473C114.815 69.1301 116.484 61.5996 116.5 53.975C116.5 25.0275 92.9575 1.47498 64.02 1.47498C35.0825 1.47498 11.54 25.0275 11.54 53.975C11.5558 61.7862 13.3069 69.4963 16.6667 76.548C20.0266 83.5997 24.9112 89.8168 30.9675 94.75L32.25 98.98C32.51 99.8182 32.4872 100.719 32.185 101.542L30.0525 107.305C29.8188 107.936 29.4312 108.499 28.925 108.942L20.02 116.735C19.7892 116.953 19.6054 117.216 19.4798 117.507C19.3543 117.799 19.2897 118.113 19.29 118.43C19.2722 118.755 19.3212 119.079 19.4338 119.384C19.5465 119.689 19.7205 119.967 19.945 120.202C24.8575 125 46.92 126.75 64.3225 126.775C81.7225 126.742 103.785 125.005 108.698 120.202C108.922 119.967 109.096 119.689 109.209 119.384C109.321 119.079 109.37 118.755 109.353 118.43C109.353 118.113 109.288 117.799 109.163 117.507C109.037 117.216 108.853 116.953 108.623 116.735ZM12.73 53.975C12.73 25.6825 35.73 2.66498 64.02 2.66498C92.31 2.66498 115.31 25.6825 115.31 53.975C115.295 62.0524 113.381 70.0131 109.723 77.2146C106.064 84.4161 100.764 90.6566 94.25 95.4325C90.4375 98.22 78.575 100.02 64.025 100.02C49.475 100.02 37.61 98.22 33.8 95.4325C27.2839 90.6577 21.9818 84.4176 18.3218 77.216C14.6617 70.0145 12.7463 62.0532 12.73 53.975ZM33.0925 96.395C36.13 98.615 46.055 101.21 64.02 101.21C81.985 101.21 91.9075 98.615 94.9475 96.395C95.3925 96.07 95.8308 95.7366 96.2625 95.395L95.2625 98.6225C95.1086 99.1238 95.0319 99.6456 95.035 100.17C75.0225 106.042 54.925 106.04 33.6225 100.17C33.626 99.648 33.5493 99.1286 33.395 98.63L32.605 96.0225C32.7625 96.145 32.925 96.2725 33.0925 96.395ZM33.3 101.955C33.3708 101.762 33.4292 101.565 33.475 101.365C44.175 104.302 54.5775 105.772 64.82 105.772C75.0947 105.762 85.3149 104.281 95.17 101.375C95.2164 101.571 95.274 101.765 95.3425 101.955L97.475 107.72C97.5 107.79 97.5375 107.855 97.565 107.925C75.9 114.322 54.1475 114.322 31.0775 107.925C31.1075 107.855 31.1425 107.79 31.1675 107.72L33.3 101.955ZM107.865 119.35C104.093 123.04 86.5925 125.545 64.3225 125.585C42.05 125.545 24.55 123.04 20.7775 119.35C20.565 119.105 20.4581 118.786 20.48 118.462C20.4763 118.309 20.5031 118.157 20.5589 118.014C20.6147 117.871 20.6984 117.74 20.805 117.63L29.71 109.837C29.9982 109.582 30.2573 109.295 30.4825 108.982C30.5204 109.001 30.5597 109.017 30.6 109.03C42.3 112.28 53.6625 113.917 64.85 113.917C76.136 113.909 87.3603 112.252 98.1675 109C98.3904 109.311 98.6479 109.595 98.935 109.847L107.838 117.64C107.944 117.75 108.028 117.88 108.084 118.023C108.14 118.166 108.167 118.319 108.163 118.472C108.182 118.793 108.075 119.107 107.865 119.35Z" fill="#939598"/>
</svg>
