<svg width="40" height="40" viewBox="0 0 40 40" fill="none" xmlns="http://www.w3.org/2000/svg">
<rect x="12.5" y="12.5" width="6" height="6" stroke="#939598"/>
<rect x="15" y="15" width="1" height="1" fill="#939598"/>
<rect x="24" y="15" width="1" height="1" fill="#939598"/>
<rect x="15" y="24" width="1" height="1" fill="#939598"/>
<rect x="12.5" y="21.5" width="6" height="6" stroke="#939598"/>
<rect x="21.5" y="21.5" width="2" height="2" stroke="#939598"/>
<rect x="25.5" y="25.5" width="2" height="2" stroke="#939598"/>
<rect x="21.5" y="12.5" width="6" height="6" stroke="#939598"/>
<line x1="21" y1="25.5" x2="25" y2="25.5" stroke="#939598"/>
<line x1="21" y1="27.5" x2="23" y2="27.5" stroke="#939598"/>
<line x1="25.5" y1="24" x2="25.5" y2="21" stroke="#939598"/>
<line x1="27.5" y1="24" x2="27.5" y2="23" stroke="#939598"/>
<line x1="27.5" y1="22" x2="27.5" y2="21" stroke="#939598"/>
<path d="M30.5 14L30.5 11.5C30.5 10.3954 29.6046 9.5 28.5 9.5L26 9.5" stroke="#939598"/>
<path d="M26 30.5H28.5C29.6046 30.5 30.5 29.6046 30.5 28.5L30.5 26" stroke="#939598"/>
<path d="M9.5 26L9.5 28.5C9.5 29.6046 10.3954 30.5 11.5 30.5L14 30.5" stroke="#939598"/>
<path d="M14 9.5L11.5 9.5C10.3954 9.5 9.5 10.3954 9.5 11.5L9.5 14" stroke="#939598"/>
</svg>
