<svg width="95" height="138" viewBox="0 0 95 138" fill="none" xmlns="http://www.w3.org/2000/svg">
<g clip-path="url(#clip0)">
<path d="M20.8613 66.3429C20.8046 65.7904 20.8574 65.2321 21.0167 64.6999C21.176 64.1678 21.4386 63.6723 21.7895 63.2417C22.1405 62.8111 22.5729 62.454 23.0619 62.1906C23.551 61.9273 24.0872 61.763 24.6398 61.707C25.4201 61.6268 26.2074 61.7656 26.9131 62.108C27.6189 62.4503 28.2152 62.9826 28.6353 63.6451C29.0553 64.3076 29.2823 65.074 29.2909 65.8584C29.2995 66.6428 29.0893 67.414 28.6838 68.0855L44.2926 77.8331C46.4145 74.6715 49.0435 71.0955 52.2171 67.0587C52.293 66.9614 52.581 66.6079 52.8981 66.2195C44.0585 64.104 37.3704 58.6424 34.4991 51.1548C34.1887 50.3434 33.921 49.5163 33.697 48.677C30.0033 34.892 37.7205 21.5099 52.047 16.8536C52.2456 16.8004 56.0257 15.7875 56.2201 15.7354C70.9486 12.6133 84.3293 20.3422 88.023 34.1272C88.2481 34.9663 88.4291 35.8166 88.5651 36.6746C89.8341 44.6731 86.7011 52.8252 79.9696 59.1016L80.4447 59.3027C80.5975 59.3659 80.7013 59.4151 80.7375 59.4235C91.1704 63.6055 98.2787 67.179 102.465 70.3603L102.506 70.3967C103.039 70.9225 103.444 71.5644 103.688 72.2722C104.191 73.6069 104.217 75.0741 103.763 76.4259C103.308 77.7777 102.401 78.9312 101.194 79.6914C100.388 80.1974 99.6369 80.4122 98.9918 80.3291C94.994 80.0071 91.0236 79.4062 87.1096 78.5307C88.558 83.2516 90.8776 91.1475 92.6248 98.6827L102.991 87.3265C102.542 86.6656 102.289 85.8907 102.263 85.0919C102.236 84.2931 102.437 83.5032 102.842 82.8141C103.247 82.1249 103.839 81.5648 104.549 81.1989C105.26 80.833 106.06 80.6763 106.856 80.7471C107.524 80.7993 108.171 81.0098 108.742 81.3612C109.313 81.7127 109.793 82.195 110.141 82.7682C110.489 83.3415 110.696 83.9894 110.744 84.6583C110.792 85.3272 110.681 85.9981 110.419 86.6154C110.156 87.2327 109.751 87.7788 109.236 88.2086C108.722 88.6384 108.112 88.9396 107.458 89.0873C106.803 89.235 106.123 89.2249 105.474 89.058C104.824 88.891 104.224 88.572 103.722 88.1271L92.9285 99.9511C94.1037 105.182 94.9502 110.142 94.9863 113.615C94.9908 113.632 94.9959 113.651 94.9836 113.672C94.7527 116.099 94.3879 118.008 91.9812 118.653L88.1779 119.672C87.7553 119.785 86.4495 120.135 81.5897 111.346C79.7714 108.051 78.1247 104.664 76.6562 101.2C77.1172 104.935 77.3837 108.691 77.4547 112.454C77.6427 122.495 76.3411 122.844 75.9143 122.958L72.1109 123.977C69.7043 124.622 68.4315 123.151 67.0206 121.165C67.0161 121.148 67.0004 121.132 66.9896 121.117C62.7022 113.517 58.1911 95.2361 56.2495 86.7815C53.3051 89.494 50.1749 91.9975 46.8816 94.2739C46.343 94.6809 45.5858 94.8724 44.6344 94.8375C43.2093 94.7822 41.8469 94.2369 40.7772 93.2936C39.7075 92.3503 38.9961 91.0668 38.763 89.6598C38.6218 88.9245 38.6511 88.1667 38.8488 87.4446L38.8665 87.3923C39.8876 84.974 41.488 82.1062 43.6982 78.742L28.0154 68.9463C27.5005 69.449 26.8657 69.8116 26.1712 69.9998C25.9502 70.0584 25.7248 70.0991 25.4972 70.1215C24.9446 70.1782 24.3863 70.1254 23.8542 69.9661C23.322 69.8068 22.8265 69.5442 22.3959 69.1933C21.9654 68.8423 21.6082 68.4099 21.3449 67.9209C21.0816 67.4318 20.9172 66.8956 20.8613 66.3429ZM106.259 88.0951C106.682 88.1534 107.113 88.1249 107.524 88.0112C107.936 87.8976 108.32 87.7011 108.653 87.4338C108.987 87.1666 109.262 86.8342 109.462 86.457C109.663 86.0798 109.784 85.6656 109.819 85.2399C109.854 84.8142 109.802 84.3858 109.665 83.981C109.529 83.5762 109.312 83.2034 109.026 82.8855C108.741 82.5676 108.394 82.3112 108.006 82.1319C107.618 81.9527 107.198 81.8544 106.771 81.8431C106.412 81.8141 106.05 81.8467 105.701 81.9397C104.987 82.1321 104.364 82.5703 103.941 83.1771C103.518 83.7839 103.323 84.5205 103.39 85.257C103.457 85.9936 103.781 86.6829 104.307 87.2036C104.832 87.7243 105.524 88.043 106.261 88.1035L106.259 88.0951ZM86.6962 90.4517C84.6619 90.4404 82.6302 90.3041 80.6127 90.0435C80.5819 90.0615 80.5495 90.0762 80.5158 90.0876C78.3495 90.8266 76.1648 91.4799 73.98 92.0654C71.8374 92.6394 69.6985 93.1371 67.5633 93.5582C65.9336 94.8046 64.227 95.9472 62.4537 96.9791C70.3706 95.972 78.3521 93.8198 86.6962 90.4517ZM75.8805 85.9058C75.3189 86.5228 74.7448 87.1273 74.1664 87.7239C79.4151 89.0056 84.5597 89.5521 89.1276 89.2906C88.9012 88.4454 88.6667 87.6296 88.4404 86.8274C84.2624 87.078 80.0696 86.776 75.9706 85.9292C75.9389 85.9212 75.908 85.9106 75.8782 85.8973L75.8805 85.9058ZM73.2813 88.6042C72.0415 89.8174 70.7651 90.9701 69.4646 92.0501C72.3897 91.4044 75.3304 90.6142 78.2491 89.6827C76.6467 89.4077 75.0236 89.0636 73.3924 88.6469C73.3526 88.6345 73.3146 88.6173 73.279 88.5957L73.2813 88.6042ZM59.8859 97.1327C71.9225 91.0722 83.6892 77.1078 88.0427 63.6894C87.3151 63.3657 86.5731 63.0392 85.7997 62.7051C81.2669 76.7309 71.3654 88.6465 59.259 94.6578C59.4529 95.4574 59.6652 96.2837 59.8837 97.1242L59.8859 97.1327ZM84.6681 62.218C84.6235 62.2765 84.5686 62.3265 84.5061 62.3655C78.994 65.6112 73.4047 67.9944 67.7737 69.5032C62.1068 71.0395 56.2329 71.6718 50.3689 71.3767C50.3394 71.3846 50.3078 71.3682 50.2769 71.3629L50.1279 71.559C51.0262 72.3759 51.9557 73.1573 52.905 73.9107C52.9333 73.9055 52.962 73.9023 52.9908 73.9013C63.3533 73.5864 73.3673 70.8805 83.5937 65.6288C84.0272 64.5253 84.4271 63.4058 84.7932 62.2705L84.6681 62.218ZM82.9705 67.1569C78.3366 69.4832 73.4825 71.3422 68.4802 72.7063C63.8235 73.9589 59.0458 74.7076 54.2292 74.9396C59.5764 78.9366 65.5935 81.9479 71.9981 83.8321C76.6238 78.975 80.3402 73.327 82.9705 67.1569ZM69.4064 86.3474C69.997 85.8132 70.5759 85.2633 71.1429 84.6976C63.1078 82.2452 55.7095 78.0573 49.4713 72.4302C48.9728 73.1051 48.4892 73.76 48.0209 74.4041C53.5236 79.3636 61.0843 83.5859 69.3476 86.3224C69.368 86.3286 69.3877 86.337 69.4064 86.3474ZM87.494 36.8438C87.3628 36.0236 87.1888 35.2107 86.9728 34.4086C85.2522 27.9873 81.2535 22.6905 75.7121 19.4965C70.1707 16.3025 63.3233 15.3427 56.445 16.803C56.2337 16.8596 52.5952 17.8345 52.3797 17.8923C45.6906 20.0673 40.2431 24.3148 37.0406 29.8585C33.8382 35.4022 33.0219 41.9824 34.7425 48.4036C34.9573 49.2061 35.2138 49.9969 35.5109 50.7727C38.3195 58.0936 44.973 63.3925 53.7675 65.3139C58.6118 66.3712 63.082 66.3872 67.0402 65.3629L67.2705 65.3012L67.4818 65.2446C71.1668 64.2232 74.7791 62.1954 78.2262 59.2132C78.2828 59.1369 78.9253 58.5933 78.9582 58.5641C85.6095 52.504 88.7221 44.5883 87.494 36.8438ZM80.3332 60.4332L80.0222 60.3036C79.7684 60.2018 79.4038 60.0413 79.0779 59.9067C75.4628 63.0653 71.6673 65.2123 67.7563 66.2943L67.321 66.4109C63.338 67.4442 58.887 67.466 54.0817 66.4866L53.9538 66.6432C53.5691 67.1177 53.1647 67.6201 53.0717 67.7379C52.3771 68.6192 51.7245 69.4712 51.0753 70.311C61.9614 70.7413 72.8499 67.8509 83.4582 61.7088C82.4494 61.2906 81.4139 60.866 80.3332 60.4332ZM99.1135 79.2366C99.5304 79.288 100.04 79.1287 100.634 78.7568C101.627 78.1294 102.374 77.1782 102.748 76.0639C103.121 74.9496 103.099 73.7405 102.684 72.6409C102.498 72.0987 102.193 71.6054 101.79 71.1978C98.9524 69.0593 94.7483 66.7232 89.0259 64.1302C86.6571 71.3483 82.2034 78.7129 76.7168 84.9615C80.4745 85.6964 84.3089 85.9621 88.1321 85.7527C87.2436 82.6482 86.4177 79.9209 85.8101 77.9322C85.7815 77.8411 85.7775 77.7441 85.7985 77.651C85.8196 77.5578 85.865 77.472 85.93 77.4021C85.995 77.3322 86.0774 77.2807 86.1688 77.253C86.2602 77.2254 86.3573 77.2224 86.4502 77.2444C90.616 78.2219 94.8488 78.8878 99.1135 79.2366ZM87.9378 118.615L91.701 117.607C93.3026 117.178 93.6655 116.073 93.9004 113.602C93.864 110.365 93.1038 105.804 92.0371 100.935L85.8547 107.705C85.7856 107.782 85.6955 107.837 85.5957 107.863C85.4823 107.894 85.3621 107.887 85.253 107.843C85.144 107.799 85.052 107.722 84.9909 107.621C84.9298 107.521 84.9029 107.404 84.9143 107.287C84.9256 107.17 84.9746 107.06 85.0538 106.973L91.7468 99.6404C91.0529 96.5856 90.2535 93.4503 89.4483 90.4706C84.9366 92.423 80.2998 94.0725 75.5686 95.4081C75.6383 95.4725 75.6905 95.5536 75.7201 95.6438C78.6199 104.759 86.2669 118.144 87.9378 118.615ZM67.9068 120.567C69.3538 122.587 70.2101 123.365 71.8138 122.936L75.577 121.927C76.7876 120.681 76.7183 105.268 74.6721 95.9246C74.6531 95.835 74.657 95.742 74.6834 95.6543L74.5693 95.6849C69.8598 96.9565 65.0533 97.8369 60.1988 98.3171C62.368 106.523 65.1948 115.746 67.9068 120.567ZM39.8739 87.7882C39.7289 88.3426 39.7109 88.9226 39.8213 89.4849C40.0116 90.6447 40.5965 91.7033 41.4773 92.4816C42.358 93.2599 43.4805 93.7101 44.6549 93.7563C45.3526 93.7822 45.8737 93.6562 46.2323 93.397C49.7452 90.9676 53.0727 88.2805 56.1873 85.3578C56.2568 85.2923 56.3423 85.2463 56.4353 85.2246C56.5283 85.2029 56.6254 85.2063 56.7166 85.2343C56.8079 85.2623 56.8901 85.314 56.9549 85.3841C57.0197 85.4542 57.0648 85.5403 57.0855 85.6335C57.5479 87.6633 58.1963 90.4381 58.9855 93.5693C62.4031 91.8358 65.5942 89.6877 68.4864 87.1736C60.3351 84.4072 52.8777 80.207 47.3932 75.2902C46.6135 76.3778 45.8955 77.4172 45.2236 78.4171L51.1739 82.1311C51.2344 82.1688 51.2869 82.2181 51.3284 82.2762C51.3698 82.3342 51.3995 82.3999 51.4156 82.4694C51.4317 82.5389 51.4339 82.6109 51.4222 82.6812C51.4105 82.7516 51.385 82.819 51.3472 82.8795C51.3095 82.94 51.2602 82.9925 51.2021 83.034C51.1441 83.0755 51.0784 83.1051 51.0089 83.1212C50.9394 83.1373 50.8674 83.1396 50.7971 83.1278C50.7267 83.1161 50.6593 83.0906 50.5988 83.0529L44.6164 79.3203C42.4406 82.6186 40.8637 85.4304 39.8718 87.7887L39.8739 87.7882ZM23.0817 68.3501C23.6446 68.8098 24.3494 69.0602 25.0761 69.0585C25.8028 69.0569 26.5065 68.8033 27.0672 68.341C27.6279 67.8787 28.011 67.2363 28.1512 66.5232C28.2914 65.8101 28.18 65.0705 27.836 64.4303C27.492 63.7902 26.9366 63.2891 26.2646 63.0125C25.5926 62.7359 24.8455 62.7008 24.1505 62.9133C23.4555 63.1258 22.8557 63.5726 22.4533 64.1778C22.0509 64.7829 21.8707 65.5088 21.9435 66.2319C21.9827 66.6428 22.1033 67.0418 22.2984 67.4056C22.4935 67.7693 22.7591 68.0906 23.0796 68.3506L23.0817 68.3501Z" fill="#C6C8CC"/>
<path d="M52.1888 43.4481C52.1154 43.5637 52.0013 43.6476 51.869 43.6832C51.797 43.7029 51.7216 43.7075 51.6477 43.6965C51.5738 43.6855 51.503 43.6592 51.4398 43.6193L47.6471 41.2385L45.5509 45.1972C45.5164 45.2631 45.4685 45.3211 45.4104 45.3675C45.3523 45.4138 45.2851 45.4476 45.2132 45.4666C45.111 45.4953 45.0025 45.4932 44.9015 45.4606C44.8004 45.428 44.7112 45.3663 44.645 45.2833C44.5788 45.2003 44.5385 45.0996 44.5292 44.9938C44.5198 44.8881 44.5419 44.7819 44.5926 44.6886L46.7249 40.6704L42.8691 38.2567C42.8085 38.219 42.7559 38.1698 42.7143 38.1117C42.6727 38.0537 42.643 37.988 42.6269 37.9184C42.6107 37.8489 42.6085 37.7768 42.6203 37.7064C42.6321 37.636 42.6576 37.5685 42.6955 37.508C42.7334 37.4475 42.7828 37.395 42.841 37.3537C42.8992 37.3123 42.965 37.2828 43.0346 37.2669C43.1042 37.2511 43.1763 37.2491 43.2467 37.2611C43.3171 37.2731 43.3844 37.2989 43.4448 37.337L47.2395 39.7172L49.3336 35.7591C49.367 35.696 49.4124 35.6401 49.4674 35.5946C49.5223 35.5492 49.5857 35.5149 49.6539 35.4939C49.7221 35.4729 49.7938 35.4655 49.8648 35.4722C49.9358 35.4789 50.0048 35.4995 50.0679 35.5329C50.131 35.5663 50.1868 35.6117 50.2323 35.6667C50.2778 35.7216 50.3121 35.785 50.3331 35.8532C50.3541 35.9214 50.3615 35.993 50.3548 36.0641C50.3481 36.1351 50.3275 36.2041 50.2941 36.2672L48.1596 40.2859L52.0175 42.699C52.1393 42.7759 52.2256 42.8979 52.2577 43.0382C52.2898 43.1786 52.265 43.3259 52.1888 43.4481Z" fill="#C6C8CC"/>
<path d="M69.6873 38.7299C69.6525 38.7961 69.6043 38.8542 69.5458 38.9007C69.4873 38.9472 69.4198 38.981 69.3475 38.9999C69.2454 39.0275 69.1375 39.0246 69.037 38.9917C68.9365 38.9587 68.8478 38.8971 68.7819 38.8145C68.716 38.7318 68.6756 38.6317 68.6658 38.5264C68.6561 38.4211 68.6772 38.3152 68.7268 38.2218L70.8613 34.2031L67.0034 31.79C66.8814 31.7134 66.7948 31.5914 66.7627 31.451C66.7305 31.3105 66.7555 31.163 66.8322 31.041C66.9088 30.9189 67.0307 30.8323 67.1712 30.8002C67.3117 30.7681 67.4591 30.7931 67.5812 30.8697L71.3738 33.2505L73.47 29.2918C73.4993 29.2222 73.5428 29.1594 73.5977 29.1076C73.6526 29.0557 73.7178 29.0159 73.789 28.9907C73.8602 28.9655 73.9359 28.9554 74.0112 28.9611C74.0865 28.9669 74.1598 28.9882 74.2264 29.0239C74.293 29.0596 74.3514 29.1088 74.3978 29.1684C74.4443 29.228 74.4778 29.2966 74.4962 29.3698C74.5146 29.4431 74.5176 29.5194 74.5048 29.5938C74.492 29.6683 74.4638 29.7392 74.422 29.8022L72.2875 33.8209L76.1454 36.234C76.2351 36.2901 76.3064 36.3712 76.3505 36.4673C76.3947 36.5634 76.4098 36.6703 76.394 36.7748C76.3783 36.8794 76.3323 36.977 76.2617 37.0558C76.1912 37.1346 76.0992 37.191 75.997 37.2182C75.9252 37.2379 75.8501 37.2424 75.7765 37.2313C75.703 37.2202 75.6325 37.1938 75.5698 37.1537L71.7751 34.7735L69.6873 38.7299Z" fill="#C6C8CC"/>
<path d="M71.4821 48.2679L72.076 50.4844L74.3643 49.8713C74.5044 49.8337 74.6537 49.8534 74.7793 49.9259C74.9049 49.9984 74.9966 50.1179 75.0341 50.258C75.0716 50.3981 75.052 50.5473 74.9795 50.6729C74.9069 50.7986 74.7875 50.8902 74.6474 50.9277L72.3654 51.5392L72.9191 53.6057C72.9566 53.7458 72.937 53.8951 72.8645 54.0207C72.792 54.1463 72.6725 54.2379 72.5324 54.2755C72.3923 54.313 72.243 54.2934 72.1174 54.2208C71.9918 54.1483 71.9002 54.0289 71.8626 53.8888L71.3089 51.8223L68.6212 52.5425L69.1749 54.6089C69.2125 54.749 69.1928 54.8983 69.1203 55.0239C69.0478 55.1495 68.9283 55.2412 68.7882 55.2787C68.6481 55.3163 68.4989 55.2966 68.3733 55.2241C68.2477 55.1516 68.156 55.0321 68.1185 54.892L67.5647 52.8255L64.8771 53.5457L65.4308 55.6122C65.4683 55.7523 65.4487 55.9015 65.3761 56.0272C65.3036 56.1528 65.1842 56.2444 65.0441 56.282C64.904 56.3195 64.7547 56.2998 64.6291 56.2273C64.5035 56.1548 64.4118 56.0354 64.3743 55.8953L63.8206 53.8288L61.135 54.5484L61.6887 56.6149C61.7262 56.755 61.7066 56.9042 61.6341 57.0298C61.5616 57.1554 61.4421 57.2471 61.302 57.2846C61.1619 57.3222 61.0126 57.3025 60.887 57.23C60.7614 57.1575 60.6698 57.038 60.6322 56.8979L60.0785 54.8315L57.3929 55.5511L57.9467 57.6175C57.9842 57.7576 57.9645 57.9069 57.892 58.0325C57.8195 58.1581 57.7001 58.2498 57.56 58.2873C57.4199 58.3249 57.2706 58.3052 57.145 58.2327C57.0194 58.1602 56.9277 58.0407 56.8902 57.9006L56.3365 55.8341L53.2177 56.6698C53.0776 56.7074 52.9284 56.6877 52.8027 56.6152C52.6771 56.5427 52.5855 56.4232 52.5479 56.2831C52.5104 56.143 52.5301 55.9937 52.6026 55.8681C52.6751 55.7425 52.7945 55.6509 52.9346 55.6133L56.0851 54.7692L55.4912 52.5527C55.4536 52.4126 55.4733 52.2633 55.5458 52.1377C55.6183 52.0121 55.7378 51.9204 55.8779 51.8829C56.018 51.8454 56.1672 51.865 56.2928 51.9375C56.4185 52.01 56.5101 52.1295 56.5476 52.2696L57.1416 54.4861L59.8208 53.7682L59.2269 51.5517C59.1893 51.4116 59.209 51.2623 59.2815 51.1367C59.354 51.0111 59.4735 50.9194 59.6136 50.8819C59.7537 50.8444 59.903 50.864 60.0286 50.9365C60.1542 51.0091 60.2458 51.1285 60.2834 51.2686L60.8773 53.4851L63.5565 52.7672L62.9626 50.5507C62.9251 50.4106 62.9447 50.2613 63.0172 50.1357C63.0898 50.0101 63.2092 49.9185 63.3493 49.8809C63.4894 49.8434 63.6387 49.863 63.7643 49.9356C63.8899 50.0081 63.9815 50.1275 64.0191 50.2676L64.613 52.4841L67.2922 51.7662L66.6983 49.5497C66.6608 49.4096 66.6804 49.2604 66.753 49.1347C66.8255 49.0091 66.9449 48.9175 67.085 48.8799C67.2251 48.8424 67.3744 48.8621 67.5 48.9346C67.6256 49.0071 67.7173 49.1265 67.7548 49.2666L68.3487 51.4831L71.0279 50.7652L70.434 48.5487C70.3965 48.4086 70.4161 48.2594 70.4887 48.1338C70.5612 48.0082 70.6806 47.9165 70.8207 47.879C70.9608 47.8414 71.1101 47.8611 71.2357 47.9336C71.3613 48.0061 71.453 48.1256 71.4905 48.2657L71.4821 48.2679Z" fill="#C6C8CC"/>
<path d="M48.5722 89.7309C48.4999 89.8477 48.3857 89.9325 48.2531 89.9682C48.1809 89.9875 48.1056 89.9918 48.0318 89.9808C47.9579 89.9698 47.8871 89.9438 47.8238 89.9043L45.7988 88.6351L44.6797 90.7467C44.6446 90.8126 44.5963 90.8706 44.5378 90.917C44.4793 90.9635 44.412 90.9974 44.3398 91.0167C44.2376 91.0437 44.1297 91.0404 44.0293 91.0071C43.929 90.9739 43.8405 90.9121 43.7746 90.8294C43.7087 90.7467 43.6684 90.6466 43.6584 90.5413C43.6485 90.436 43.6694 90.3301 43.7186 90.2365L44.8792 88.0685L42.7873 86.7607C42.6725 86.6808 42.5928 86.5599 42.5647 86.4228C42.5367 86.2858 42.5624 86.1432 42.6366 86.0247C42.7108 85.9061 42.8278 85.8206 42.9633 85.7859C43.0988 85.7512 43.2424 85.77 43.3645 85.8383L45.3894 87.1075L46.5086 84.9959C46.5421 84.9329 46.5877 84.8772 46.6428 84.8318C46.6979 84.7865 46.7613 84.7525 46.8296 84.7317C46.8978 84.7108 46.9695 84.7037 47.0405 84.7106C47.1115 84.7175 47.1805 84.7383 47.2434 84.7718C47.3064 84.8053 47.3621 84.8509 47.4075 84.906C47.4528 84.9611 47.4868 85.0246 47.5077 85.0928C47.5285 85.1611 47.5356 85.2327 47.5287 85.3037C47.5218 85.3747 47.501 85.4437 47.4675 85.5067L46.3118 87.6847L48.4011 88.9909C48.5208 89.0673 48.6058 89.1876 48.6378 89.326C48.6697 89.4643 48.6462 89.6097 48.5722 89.7309Z" fill="#C6C8CC"/>
<path d="M93.8953 72.2623C93.933 72.2016 93.9823 72.1491 94.0404 72.1075C94.0984 72.066 94.1641 72.0364 94.2336 72.0203C94.3031 72.0042 94.3751 72.0019 94.4455 72.0137C94.5159 72.0255 94.5833 72.051 94.6438 72.0889L96.6688 73.358L97.7879 71.2464C97.8556 71.1193 97.9711 71.0242 98.1089 70.9822C98.2467 70.9402 98.3956 70.9546 98.5227 71.0223C98.6499 71.0901 98.7449 71.2056 98.787 71.3434C98.829 71.4812 98.8145 71.63 98.7468 71.7572L97.5911 73.9352L99.6804 75.2415C99.741 75.2792 99.7934 75.3286 99.8349 75.3866C99.8764 75.4447 99.906 75.5103 99.9221 75.5798C99.9382 75.6493 99.9405 75.7213 99.9287 75.7917C99.917 75.862 99.8916 75.9294 99.8538 75.9899C99.816 76.0505 99.7667 76.103 99.7087 76.1444C99.6506 76.1859 99.585 76.2155 99.5155 76.2316C99.446 76.2477 99.374 76.25 99.3036 76.2383C99.2332 76.2265 99.1659 76.2011 99.1054 76.1633L97.0804 74.8942L95.9613 77.0058C95.9261 77.0716 95.8779 77.1296 95.8194 77.176C95.7609 77.2225 95.6936 77.2564 95.6214 77.2757C95.5193 77.3023 95.4116 77.2986 95.3115 77.2651C95.2114 77.2316 95.1232 77.1697 95.0576 77.087C94.992 77.0043 94.9519 76.9043 94.9421 76.7992C94.9322 76.6941 94.9532 76.5884 95.0023 76.495L96.1608 74.3275L94.071 73.0191C94.009 72.9816 93.9552 72.9321 93.9127 72.8735C93.8702 72.8148 93.8399 72.7483 93.8236 72.6777C93.8072 72.6072 93.8051 72.5341 93.8174 72.4627C93.8298 72.3914 93.8563 72.3232 93.8953 72.2623Z" fill="#C6C8CC"/>
<path d="M68.2678 114.866C68.3054 114.805 68.3547 114.753 68.4128 114.711C68.4708 114.67 68.5365 114.64 68.606 114.624C68.6755 114.608 68.7476 114.605 68.8179 114.617C68.8883 114.629 68.9557 114.655 69.0162 114.692L71.0412 115.962L72.1603 113.85C72.228 113.723 72.3435 113.628 72.4813 113.586C72.6191 113.544 72.768 113.558 72.8951 113.626C73.0223 113.694 73.1174 113.809 73.1594 113.947C73.2014 114.085 73.187 114.234 73.1192 114.361L71.9636 116.539L74.0528 117.845C74.1134 117.883 74.1659 117.932 74.2073 117.99C74.2488 118.048 74.2784 118.114 74.2945 118.183C74.3106 118.253 74.3129 118.325 74.3011 118.395C74.2894 118.466 74.264 118.533 74.2262 118.593C74.1884 118.654 74.1391 118.706 74.0811 118.748C74.023 118.789 73.9574 118.819 73.8879 118.835C73.8184 118.851 73.7464 118.853 73.676 118.842C73.6057 118.83 73.5383 118.805 73.4778 118.767L71.4528 117.498L70.3337 119.609C70.2986 119.675 70.2503 119.733 70.1918 119.78C70.1333 119.826 70.066 119.86 69.9938 119.879C69.8611 119.915 69.7197 119.899 69.5988 119.833C69.4706 119.768 69.3737 119.654 69.3294 119.517C69.285 119.379 69.2967 119.23 69.3621 119.102L70.5204 116.925L68.4284 115.618C68.3077 115.539 68.2229 115.416 68.1928 115.275C68.1627 115.134 68.1896 114.987 68.2678 114.866Z" fill="#C6C8CC"/>
<path d="M86.1096 110.085C86.1473 110.024 86.1966 109.972 86.2546 109.93C86.3127 109.889 86.3783 109.859 86.4479 109.843C86.5174 109.827 86.5894 109.825 86.6598 109.836C86.7302 109.848 86.7976 109.874 86.8581 109.912L88.883 111.181L90.0021 109.069C90.0699 108.942 90.1853 108.847 90.3232 108.805C90.461 108.763 90.6098 108.777 90.737 108.845C90.8642 108.913 90.9592 109.028 91.0012 109.166C91.0433 109.304 91.0288 109.453 90.9611 109.58L89.8054 111.758L91.8947 113.064C91.9552 113.102 92.0077 113.151 92.0492 113.209C92.0907 113.267 92.1203 113.333 92.1364 113.403C92.1525 113.472 92.1547 113.544 92.143 113.614C92.1313 113.685 92.1058 113.752 92.0681 113.813C92.0303 113.873 91.981 113.926 91.9229 113.967C91.8649 114.009 91.7992 114.038 91.7297 114.054C91.6602 114.07 91.5883 114.073 91.5179 114.061C91.4475 114.049 91.3801 114.024 91.3196 113.986L89.2946 112.717L88.1755 114.829C88.1404 114.894 88.0921 114.952 88.0337 114.999C87.9752 115.045 87.9078 115.079 87.8357 115.098C87.7335 115.125 87.6259 115.121 87.5258 115.088C87.4257 115.054 87.3374 114.992 87.2719 114.91C87.2063 114.827 87.1661 114.727 87.1563 114.622C87.1465 114.517 87.1674 114.411 87.2166 114.318L88.3728 112.142L86.283 110.833C86.2224 110.796 86.1698 110.746 86.1283 110.688C86.0868 110.63 86.0571 110.565 86.041 110.495C86.0249 110.426 86.0227 110.354 86.0344 110.283C86.0462 110.213 86.0718 110.146 86.1096 110.085Z" fill="#C6C8CC"/>
<path d="M67.2892 75.5302C67.3269 75.4696 67.3762 75.417 67.4343 75.3755C67.4923 75.334 67.558 75.3043 67.6275 75.2882C67.697 75.2721 67.769 75.2699 67.8394 75.2816C67.9098 75.2934 67.9772 75.319 68.0377 75.3568L70.0627 76.626L71.1818 74.5144C71.2153 74.4514 71.2609 74.3957 71.316 74.3503C71.3711 74.305 71.4346 74.2709 71.5028 74.2501C71.571 74.2293 71.6427 74.2222 71.7137 74.229C71.7847 74.2359 71.8537 74.2567 71.9166 74.2903C71.9796 74.3238 72.0353 74.3694 72.0807 74.4245C72.126 74.4796 72.1601 74.5431 72.1809 74.6113C72.2017 74.6795 72.2088 74.7512 72.2019 74.8222C72.1951 74.8932 72.1742 74.9622 72.1407 75.0251L70.9845 77.201L73.0743 78.5094C73.1966 78.5857 73.2835 78.7074 73.316 78.8477C73.3485 78.9881 73.3239 79.1356 73.2477 79.2579C73.1714 79.3801 73.0497 79.467 72.9094 79.4996C72.769 79.5321 72.6215 79.5075 72.4992 79.4312L70.4743 78.1621L69.3552 80.2737C69.32 80.3396 69.2718 80.3975 69.2133 80.444C69.1548 80.4904 69.0874 80.5244 69.0153 80.5437C68.9132 80.5702 68.8055 80.5665 68.7054 80.533C68.6053 80.4995 68.5171 80.4376 68.4515 80.3549C68.3859 80.2722 68.3458 80.1722 68.336 80.0671C68.3261 79.962 68.3471 79.8563 68.3962 79.7629L69.5603 77.5826L67.4711 76.2764C67.4101 76.2394 67.357 76.1907 67.3148 76.1331C67.2727 76.0756 67.2423 76.0103 67.2254 75.941C67.2085 75.8717 67.2054 75.7997 67.2164 75.7292C67.2274 75.6587 67.2521 75.5911 67.2892 75.5302Z" fill="#C6C8CC"/>
</g>
<defs>
<clipPath id="clip0">
<rect width="112" height="112" fill="white" transform="matrix(-0.965926 0.258819 0.258819 0.965926 109.012 0)"/>
</clipPath>
</defs>
</svg>
