<svg width="95" height="138" viewBox="0 0 95 138" fill="none" xmlns="http://www.w3.org/2000/svg">
<g clip-path="url(#clip0)">
<path d="M66.0919 14.5102C65.3141 15.1021 64.7267 15.909 64.4023 16.831C64.0779 17.753 64.0308 18.7499 64.2666 19.6984C64.5025 20.647 65.011 21.5057 65.7295 22.1684C66.4479 22.8312 67.3447 23.2689 68.3092 23.4277C68.3317 23.4334 68.3521 23.4455 68.3678 23.4625C68.3836 23.4796 68.3941 23.5008 68.3981 23.5237C68.4021 23.5466 68.3993 23.5701 68.3902 23.5915C68.3811 23.6128 68.366 23.6311 68.3468 23.6441C67.726 23.9965 67.037 24.2121 66.3261 24.2762C65.6151 24.3404 64.8987 24.2516 64.2249 24.0159C63.5511 23.7802 62.9355 23.4031 62.4195 22.9098C61.9035 22.4165 61.4991 21.8185 61.2333 21.156C60.9676 20.4935 60.8467 19.7817 60.8788 19.0686C60.9109 18.3555 61.0953 17.6575 61.4195 17.0215C61.7437 16.3856 62.2002 15.8263 62.7585 15.3814C63.3167 14.9365 63.9637 14.6162 64.6559 14.442C65.1036 14.3331 65.5642 14.2859 66.0247 14.3017C66.0476 14.3044 66.0693 14.3136 66.0872 14.3282C66.105 14.3429 66.1183 14.3624 66.1254 14.3843C66.1325 14.4063 66.1331 14.4299 66.1271 14.4522C66.1212 14.4745 66.1089 14.4946 66.0919 14.5102Z" fill="#C6C8CC"/>
<path d="M20.1761 64.538C21.4291 64.2023 21.9526 66.1478 20.6975 66.4841C19.4424 66.8204 18.921 64.8743 20.1761 64.538Z" fill="#C6C8CC"/>
<path d="M28.4366 106.946C29.6916 106.609 30.2158 108.557 28.9586 108.894C27.7014 109.231 27.1815 107.282 28.4366 106.946Z" fill="#C6C8CC"/>
<path d="M79.4828 12.9127C78.2277 13.249 77.693 11.3043 78.9608 10.9646C80.2286 10.6249 80.7379 12.5764 79.4828 12.9127Z" fill="#C6C8CC"/>
<path d="M19.4493 27.9842C18.1963 28.3199 17.6722 26.3723 18.9273 26.036C20.1824 25.6997 20.7044 27.6479 19.4493 27.9842Z" fill="#C6C8CC"/>
<path d="M68.4236 116.749L69.5457 115.95C69.5607 115.939 69.5729 115.925 69.5811 115.909C69.5894 115.892 69.5934 115.874 69.5929 115.856L69.5913 114.117C69.5856 114.073 69.5961 114.029 69.6209 113.992C69.6457 113.955 69.683 113.929 69.7259 113.918L69.7407 113.914C69.7836 113.901 69.8295 113.905 69.8698 113.925C69.91 113.944 69.9418 113.977 69.9589 114.019L70.8163 115.528C70.8258 115.544 70.8389 115.558 70.8545 115.567C70.8702 115.577 70.888 115.584 70.9065 115.585L72.2777 115.716C72.3218 115.711 72.3662 115.723 72.4028 115.748C72.4394 115.773 72.4659 115.81 72.4774 115.853C72.4888 115.896 72.4846 115.941 72.4654 115.981C72.4462 116.021 72.4134 116.053 72.3728 116.071L71.2507 116.87C71.2356 116.881 71.2233 116.895 71.2147 116.912C71.2061 116.928 71.2015 116.946 71.2013 116.965L71.2136 118.701C71.2193 118.745 71.2085 118.79 71.1833 118.827C71.1581 118.864 71.1202 118.89 71.0768 118.901L71.062 118.904C71.0194 118.916 70.9739 118.912 70.9341 118.893C70.8943 118.873 70.8629 118.84 70.8459 118.799L69.9779 117.293C69.9692 117.276 69.9566 117.263 69.9412 117.253C69.9259 117.243 69.9082 117.236 69.8899 117.235L68.5187 117.104C68.4746 117.109 68.4302 117.098 68.3936 117.072C68.357 117.047 68.3305 117.01 68.319 116.967C68.3076 116.924 68.3118 116.879 68.331 116.839C68.3501 116.799 68.383 116.767 68.4236 116.749Z" fill="#C6C8CC"/>
<path d="M80.1777 84.7521C80.1626 84.7629 80.1503 84.7771 80.1417 84.7935C80.1331 84.81 80.1285 84.8282 80.1283 84.8468L80.1406 86.5828C80.1463 86.6271 80.1355 86.6719 80.1103 86.7087C80.0851 86.7456 80.0472 86.7718 80.0038 86.7825L79.9912 86.7859C79.9483 86.7983 79.9023 86.7945 79.8621 86.7753C79.8218 86.756 79.7901 86.7225 79.7729 86.6813L78.9155 85.1718C78.9067 85.1556 78.8941 85.1419 78.8788 85.1318C78.8634 85.1217 78.8458 85.1155 78.8275 85.1138L77.4563 84.983C77.4122 84.9878 77.3678 84.9767 77.3312 84.9516C77.2945 84.9265 77.2681 84.8892 77.2566 84.8463C77.2451 84.8034 77.2493 84.7579 77.2685 84.7178C77.2877 84.6778 77.3206 84.6459 77.3612 84.628L78.4833 83.8292C78.4983 83.8186 78.5105 83.8044 78.5187 83.788C78.5269 83.7716 78.531 83.7533 78.5305 83.735L78.5183 81.999C78.5125 81.9547 78.5233 81.9099 78.5485 81.873C78.5737 81.8362 78.6117 81.8099 78.655 81.7993L78.6677 81.7959C78.7106 81.7834 78.7565 81.7872 78.7968 81.8065C78.837 81.8258 78.8688 81.8593 78.8859 81.9005L79.7433 83.41C79.7528 83.426 79.7659 83.4395 79.7815 83.4495C79.7972 83.4594 79.815 83.4656 79.8335 83.4674L81.2047 83.5982C81.2488 83.5934 81.2932 83.6045 81.3298 83.6296C81.3664 83.6547 81.3929 83.692 81.4044 83.7349C81.4158 83.7778 81.4116 83.8234 81.3924 83.8634C81.3733 83.9034 81.3404 83.9353 81.2998 83.9532L80.1777 84.7521Z" fill="#C6C8CC"/>
<path d="M32.5381 80.7878L33.6602 79.9889C33.6753 79.9781 33.6876 79.9639 33.6962 79.9475C33.7048 79.931 33.7094 79.9128 33.7096 79.8942L33.7052 78.1538C33.7 78.1096 33.7109 78.065 33.7361 78.0283C33.7612 77.9916 33.7988 77.9652 33.8419 77.9541L33.8567 77.9502C33.8994 77.9383 33.9449 77.9425 33.9847 77.9619C34.0245 77.9812 34.0559 78.0145 34.0729 78.0553L34.9409 79.562C34.9496 79.5782 34.9622 79.5919 34.9776 79.602C34.9929 79.6121 35.0105 79.6183 35.0288 79.62L36.4001 79.7508C36.4448 79.7439 36.4905 79.7538 36.5284 79.7785C36.5663 79.8032 36.5938 79.8411 36.6055 79.8848C36.6172 79.9286 36.6124 79.9751 36.5919 80.0154C36.5714 80.0558 36.5368 80.0872 36.4946 80.1036L35.3725 80.9025C35.3576 80.9132 35.3456 80.9274 35.3373 80.9438C35.3291 80.9602 35.325 80.9784 35.3253 80.9967L35.3275 82.7376C35.3332 82.7815 35.3227 82.826 35.2979 82.8627C35.2731 82.8993 35.2357 82.9257 35.1929 82.9368L35.1781 82.9407C35.1352 82.9527 35.0895 82.9487 35.0493 82.9294C35.0092 82.9102 34.9774 82.8771 34.9598 82.8362L34.1019 81.3245C34.0922 81.3088 34.079 81.2954 34.0634 81.2855C34.0478 81.2756 34.0301 81.2693 34.0118 81.2671L32.6406 81.1363C32.5974 81.1395 32.5545 81.1275 32.5192 81.1025C32.4839 81.0774 32.4585 81.0408 32.4473 80.999C32.4361 80.9572 32.4398 80.9128 32.4578 80.8735C32.4758 80.8341 32.507 80.8023 32.546 80.7835L32.5381 80.7878Z" fill="#C6C8CC"/>
<path d="M41.3201 52.6673C41.3492 52.7759 41.3455 52.8908 41.3093 52.9973C41.2732 53.1038 41.2062 53.1972 41.117 53.2657C41.0277 53.3342 40.9202 53.3747 40.8079 53.382C40.6957 53.3894 40.5838 53.3633 40.4864 53.307C40.389 53.2508 40.3104 53.1669 40.2607 53.066C40.2109 52.9652 40.1922 52.8518 40.2069 52.7403C40.2216 52.6287 40.269 52.5241 40.3431 52.4395C40.4173 52.3549 40.5149 52.2942 40.6235 52.2651C40.6957 52.2458 40.7709 52.2409 40.845 52.2506C40.919 52.2604 40.9904 52.2846 41.0551 52.3219C41.1198 52.3593 41.1765 52.409 41.222 52.4683C41.2674 52.5275 41.3008 52.5951 41.3201 52.6673Z" fill="#C6C8CC"/>
<path d="M14.4939 42.4358C14.3848 42.4663 14.2692 42.4636 14.1617 42.428C14.0542 42.3924 13.9598 42.3256 13.8905 42.236C13.8212 42.1464 13.7803 42.0382 13.7729 41.9253C13.7655 41.8123 13.792 41.6996 13.849 41.6018C13.906 41.504 13.9909 41.4254 14.0928 41.3761C14.1948 41.3268 14.3091 41.309 14.4212 41.3251C14.5333 41.3412 14.638 41.3903 14.722 41.4663C14.8059 41.5423 14.8653 41.6415 14.8925 41.7515C14.9286 41.895 14.9071 42.0469 14.8326 42.1748C14.7581 42.3027 14.6365 42.3964 14.4939 42.4358Z" fill="#C6C8CC"/>
<path d="M90.7411 53.9825C90.7115 53.8739 90.7149 53.7589 90.7507 53.6522C90.7865 53.5454 90.8532 53.4517 90.9423 53.3829C91.0315 53.3142 91.139 53.2734 91.2513 53.2657C91.3636 53.2581 91.4757 53.284 91.5733 53.3401C91.6709 53.3962 91.7497 53.48 91.7996 53.5809C91.8496 53.6818 91.8684 53.7952 91.8538 53.9069C91.8392 54.0185 91.7919 54.1233 91.7177 54.208C91.6435 54.2926 91.5458 54.3534 91.4371 54.3825C91.3651 54.4021 91.29 54.4073 91.216 54.3978C91.142 54.3883 91.0707 54.3642 91.006 54.3271C90.9413 54.2899 90.8846 54.2403 90.8392 54.1812C90.7937 54.1221 90.7604 54.0545 90.7411 53.9825Z" fill="#C6C8CC"/>
<path d="M92.1908 16.7364C92.2995 16.7073 92.4143 16.7111 92.5208 16.7472C92.6273 16.7834 92.7207 16.8503 92.7892 16.9396C92.8577 17.0288 92.8982 17.1364 92.9055 17.2486C92.9129 17.3609 92.8868 17.4728 92.8306 17.5702C92.7743 17.6676 92.6904 17.7462 92.5896 17.7959C92.4887 17.8457 92.3753 17.8644 92.2638 17.8497C92.1522 17.835 92.0476 17.7876 91.963 17.7134C91.8784 17.6393 91.8178 17.5417 91.7886 17.433C91.769 17.3609 91.7639 17.2855 91.7735 17.2114C91.7831 17.1372 91.8073 17.0657 91.8447 17.001C91.8821 16.9362 91.9319 16.8795 91.9913 16.8341C92.0507 16.7887 92.1185 16.7555 92.1908 16.7364Z" fill="#C6C8CC"/>
<path d="M93.001 111.488C93.1097 111.459 93.2245 111.463 93.331 111.499C93.4376 111.535 93.531 111.602 93.5994 111.691C93.6679 111.781 93.7084 111.888 93.7158 112C93.7231 112.113 93.697 112.224 93.6408 112.322C93.5845 112.419 93.5007 112.498 93.3998 112.548C93.2989 112.597 93.1855 112.616 93.074 112.601C92.9625 112.587 92.8578 112.539 92.7732 112.465C92.6886 112.391 92.628 112.293 92.5988 112.185C92.5598 112.039 92.5802 111.884 92.6557 111.753C92.7311 111.623 92.8553 111.527 93.001 111.488Z" fill="#C6C8CC"/>
<path d="M44.6331 92.5846C44.7417 92.5555 44.8566 92.5592 44.9631 92.5954C45.0696 92.6315 45.163 92.6985 45.2315 92.7877C45.3 92.877 45.3405 92.9845 45.3478 93.0968C45.3552 93.209 45.3291 93.3209 45.2728 93.4183C45.2166 93.5157 45.1327 93.5943 45.0318 93.6441C44.931 93.6938 44.8176 93.7125 44.7061 93.6978C44.5945 93.6832 44.4899 93.6357 44.4053 93.5616C44.3207 93.4874 44.26 93.3898 44.2309 93.2812C44.2113 93.209 44.2061 93.1337 44.2158 93.0595C44.2254 92.9854 44.2496 92.9139 44.287 92.8491C44.3243 92.7844 44.3742 92.7277 44.4336 92.6823C44.493 92.6369 44.5608 92.6037 44.6331 92.5846Z" fill="#C6C8CC"/>
<path d="M45.0652 114.676C45.1739 114.647 45.2887 114.651 45.3952 114.687C45.5018 114.723 45.5952 114.79 45.6636 114.879C45.7321 114.968 45.7726 115.076 45.78 115.188C45.7873 115.3 45.7612 115.412 45.705 115.51C45.6487 115.607 45.5649 115.686 45.464 115.735C45.3631 115.785 45.2497 115.804 45.1382 115.789C45.0267 115.775 44.922 115.727 44.8374 115.653C44.7528 115.579 44.6922 115.481 44.6631 115.373C44.6246 115.227 44.6453 115.072 44.7207 114.941C44.796 114.811 44.9198 114.716 45.0652 114.676Z" fill="#C6C8CC"/>
<path d="M58.5377 26.9201C58.429 26.9493 58.3142 26.9455 58.2077 26.9093C58.1011 26.8732 58.0077 26.8062 57.9393 26.717C57.8708 26.6278 57.8303 26.5202 57.8229 26.408C57.8156 26.2957 57.8417 26.1838 57.8979 26.0864C57.9542 25.989 58.038 25.9104 58.1389 25.8607C58.2398 25.8109 58.3532 25.7922 58.4647 25.8069C58.5762 25.8216 58.6809 25.869 58.7655 25.9432C58.85 26.0173 58.9107 26.1149 58.9398 26.2236C58.9595 26.2957 58.9646 26.371 58.955 26.4452C58.9454 26.5193 58.9212 26.5908 58.8838 26.6556C58.8464 26.7204 58.7966 26.7771 58.7372 26.8225C58.6778 26.8679 58.61 26.9011 58.5377 26.9201Z" fill="#C6C8CC"/>
<path d="M34.6095 45.8621C34.4325 44.9901 34.5661 44.2885 35.0151 43.7922L35.032 43.7877C34.8085 43.6853 34.6109 43.5338 34.4539 43.3446C34.2969 43.1553 34.1846 42.9331 34.1254 42.6945C34.0129 42.1344 33.9935 41.5596 34.0681 40.9932C34.1389 40.3107 34.4896 39.8363 34.7988 39.4182C34.9151 39.2637 35.0233 39.1032 35.1229 38.9373C35.2517 38.6713 35.3198 38.38 35.3224 38.0845C35.3396 37.7435 35.4074 37.4071 35.5237 37.0862C35.7448 36.5423 36.3191 36.2344 36.6993 36.0306C37.1271 35.7871 37.6176 35.6762 38.1086 35.7119C38.2152 35.7273 38.3206 35.7506 38.4239 35.7814C38.377 35.6031 38.3551 35.4192 38.3589 35.2349C38.3771 34.5506 38.7466 33.9602 39.4544 33.449C39.479 33.3971 39.517 33.294 39.5429 33.2214C39.6755 32.8711 39.8378 32.3951 40.3111 32.2682C41.8366 31.8595 43.5402 33.3914 44.0902 34.6662C46.5501 40.3731 47.2839 42.3596 47.4872 43.1181C49.7444 44.1212 52.076 45.2335 54.3317 46.4929C53.3949 45.3126 52.8294 44.1235 52.6591 42.9552C52.5251 42.219 52.6213 41.4594 52.9345 40.7798C53.0864 40.458 53.3467 40.1998 53.6699 40.0506C53.8332 39.9824 54.0095 39.9504 54.1864 39.957C54.3633 39.9635 54.5367 40.0084 54.6946 40.0885C55.0546 40.2629 55.3579 40.5358 55.569 40.8756C55.737 41.1557 55.8751 41.4527 55.9809 41.7617L56.3037 42.6875C56.4142 42.9817 56.5366 43.2864 56.6453 43.5313L57.4425 45.1883C58.4535 43.6197 58.8784 41.9093 58.6175 40.3441C57.9957 36.5951 52.1143 33.1548 50.3189 32.1933C49.5254 31.7673 48.6066 31.719 47.6347 31.6669C46.6628 31.6148 45.6617 31.5638 44.7136 31.1271C43.2312 30.4463 41.8946 29.0584 41.1304 27.4152L39.9007 24.6512L38.4607 22.5142C38.4373 22.4785 38.418 22.4404 38.403 22.4005C38.1761 21.7819 38.7941 20.9188 39.1839 20.4634C39.6205 19.9546 40.2655 19.3696 40.8756 19.4914L43.4783 20.1529L46.57 20.7716L46.6089 20.7815C46.8419 20.8482 47.0663 20.9081 47.2854 20.9649C48.5688 21.3004 49.7846 21.6291 50.8021 22.9666C51.6762 24.1161 52.2634 25.6482 52.549 27.5171C52.5742 27.684 52.6376 27.8428 52.7344 27.9811C52.8312 28.1194 52.9587 28.2334 53.1068 28.3142C54.4356 29.0865 55.7135 29.943 56.9328 30.8786L57.0091 30.9351C57.8984 31.5878 58.7208 32.327 59.4642 33.1421C60.2359 33.977 60.9 34.9053 61.4411 35.9052C61.6946 36.3586 61.9174 36.8285 62.1079 37.3118L62.1808 37.4825C62.1842 37.4952 62.1876 37.5078 62.191 37.5205L62.4559 38.3146C62.5223 38.5118 62.5762 38.7129 62.6172 38.9168C62.6405 39.0035 62.6637 39.0901 62.6908 39.1915L62.7872 39.6186C62.8132 39.7158 62.8202 39.8181 62.8352 39.916L62.894 40.3215C62.9217 40.5179 62.9515 40.7137 62.9722 40.9346L63.0183 41.7829C63.028 41.9964 63.0256 42.2102 63.0111 42.4235C63.0062 42.5153 63.003 42.6045 63.0005 42.7139C62.9315 43.9511 62.6568 45.1682 62.1877 46.3151C61.7277 47.4168 61.1203 48.4511 60.3823 49.3896C60.2929 49.5042 60.1998 49.6129 60.1099 49.7253C60.422 50.1716 60.7418 50.6045 61.0719 51.0166C61.0775 51.0377 61.098 51.0549 61.11 51.0743C61.1768 51.1379 61.2443 51.2037 61.3133 51.2667C62.3193 52.1408 63.2585 53.089 64.1229 54.1034C64.1538 54.1426 64.1852 54.184 64.2183 54.2227L64.236 54.2044C64.223 54.1558 64.2099 54.1072 64.1969 54.0586C64.0569 53.4937 63.9247 52.9245 63.8631 52.6013C63.7815 52.1702 63.6742 51.7189 63.56 51.2422C63.2517 49.9479 62.9321 48.6113 63.0696 47.3244C63.2601 45.5589 64.1713 45.2491 64.9028 45.3C66.699 45.4279 66.6884 47.6025 66.6754 48.5345L66.6749 48.6003C66.6407 49.759 66.4627 50.909 66.1451 52.0238L65.9621 52.7522C67.5709 51.5739 69.3881 50.7105 71.3178 50.2075C71.4678 50.1673 71.617 50.1409 71.7687 50.107C71.7652 50.0974 71.7626 50.0875 71.7608 50.0775C71.5427 49.3979 71.2883 48.7305 70.9986 48.0782C70.8916 47.8985 70.7428 47.6643 70.551 47.3964C70.4096 47.1897 70.237 46.9597 70.0315 46.7C69.8768 46.4946 69.7316 46.3161 69.6291 46.1873L69.6026 46.1559C69.0312 45.4442 68.404 44.7792 67.7268 44.1673L67.5656 44.0135C66.9177 43.432 66.3145 42.8026 65.7611 42.1305C65.3314 41.5662 64.4391 40.3831 65.4465 39.359C66.0409 38.7627 66.9049 38.7418 67.8132 39.3001C68.4345 39.7097 68.981 40.2228 69.429 40.817C70.2902 41.8978 70.9302 43.1377 71.3125 44.4657C71.432 44.8527 71.533 45.2378 71.6228 45.6236C71.5971 45.2998 71.5736 44.9755 71.5375 44.6545C71.2786 42.3263 70.7537 40.0355 69.973 37.8268C69.8911 37.8175 69.8104 37.7996 69.7322 37.7736C68.5005 37.4868 67.3673 36.8775 66.4487 36.0082L66.0968 35.6836C65.3575 35.0121 64.5976 34.3143 64.1635 33.3957C63.7926 32.6118 63.7493 31.9599 64.0326 31.4537C64.3628 30.8602 65.2083 30.6858 65.906 30.5849C66.2018 30.5542 66.5007 30.5962 66.7766 30.7071C66.8364 30.5086 66.9458 30.3285 67.0945 30.184C67.2432 30.0396 67.4264 29.9354 67.6266 29.8815C67.9725 29.7581 68.3501 29.7568 68.6968 29.8778C68.8213 29.6672 68.9912 29.4871 69.1941 29.3505C69.782 28.9665 70.5346 28.5384 71.1763 28.7696C71.7203 28.9658 72.118 29.4865 72.3549 30.3199C72.6345 31.2957 72.5158 32.3149 72.4074 33.3133C72.3894 33.4743 72.3709 33.6333 72.3516 33.7812C72.2311 35.1036 71.7414 36.3656 70.9383 37.4232C71.7551 39.7231 72.3042 42.1096 72.5744 44.5352C72.7716 46.319 72.8147 48.1283 72.8387 49.8996C73.5648 49.7909 74.2982 49.739 75.0323 49.7444C75.3677 47.8518 75.7941 45.981 76.3117 44.1317C76.303 44.0904 76.2986 44.0484 76.2984 44.0062C76.3196 43.4004 76.3056 42.7904 76.2736 42.1807C76.2334 42.0307 76.1961 41.8323 76.125 41.5841C76.0345 41.2461 75.9172 40.9015 75.8266 40.6224C75.796 40.5083 75.7573 40.4145 75.7298 40.329C75.4982 39.6381 75.2206 38.9634 74.8989 38.3096L74.8554 38.2148C74.4881 37.487 74.2104 36.7173 74.0283 35.9227C73.9456 35.4534 73.6876 34.0256 75.0931 33.5493C75.8804 33.284 76.603 33.5637 77.1322 34.33C77.4621 34.8629 77.6959 35.4495 77.823 36.0631C78.0543 37.01 78.1153 37.9906 78.0033 38.9589C78.6832 37.1688 79.4504 35.4119 80.3051 33.6882C80.3051 33.6882 80.3051 33.6882 80.3012 33.6734C79.9387 33.1659 78.9597 31.5236 75.9468 25.469C75.3284 24.226 75.2613 21.9386 76.5552 21.0371C76.9559 20.7576 77.4338 20.9353 77.7808 21.0642C77.8513 21.0906 77.9544 21.1287 78.0103 21.1431C78.8769 20.929 79.5781 21.0356 80.0973 21.4603L80.1124 21.4744C80.2037 21.2457 80.3455 21.0405 80.5272 20.8741C80.7089 20.7078 80.9258 20.5847 81.1617 20.5139C81.7174 20.3816 82.2904 20.3382 82.8597 20.385C83.5502 20.4264 84.0311 20.7505 84.4637 21.0468C84.6328 21.1622 84.7927 21.2689 84.9615 21.3663C85.2333 21.4828 85.5272 21.5385 85.8228 21.5296C86.1645 21.5318 86.504 21.5851 86.8299 21.6877C87.3814 21.8865 87.7129 22.4476 87.9346 22.8185C88.1943 23.2362 88.3243 23.7215 88.3083 24.213C88.2993 24.3199 88.2807 24.4257 88.2526 24.5292C88.4295 24.4759 88.6129 24.4465 88.7976 24.442C89.4746 24.4327 90.0874 24.7758 90.6263 25.4603C90.6803 25.4843 90.7865 25.517 90.8579 25.5386C91.2116 25.6499 91.6981 25.8004 91.8439 26.2686C92.3128 27.7735 90.8589 29.54 89.6099 30.1442C84.1411 32.7826 82.1473 33.6158 81.3639 33.8869C80.2849 36.0371 79.3392 38.2516 78.5321 40.518C78.6975 40.2902 78.8976 40.0396 79.0974 39.8048C79.2508 39.6127 79.4139 39.4285 79.5858 39.2527C80.7647 38.0151 82.3806 36.3207 84.234 35.6565C84.6854 35.4709 85.1728 35.3891 85.66 35.4171C85.9499 35.4415 86.2262 35.5508 86.4542 35.7314C86.6823 35.912 86.852 36.1558 86.9421 36.4324C87.514 38.0342 85.7009 38.9504 84.8291 39.39L84.6302 39.4931C83.8211 39.8782 82.9884 40.2118 82.1372 40.4918L81.4204 40.7495C80.4232 41.1186 79.3726 41.5587 78.4941 42.2696L78.473 42.2753C78.1537 42.6481 77.8579 43.0405 77.5875 43.4501C76.967 45.5286 76.463 47.64 76.0776 49.7746C76.5739 49.8183 77.0673 49.8903 77.5553 49.9901C77.6914 49.8132 77.8218 49.6492 77.9306 49.5226L78.3233 49.0528C79.5674 47.5599 80.9775 45.8663 82.561 44.8374C83.0771 44.5066 84.6483 43.499 85.5391 44.7867C85.8677 45.2694 86.0717 46.073 85.1766 47.178C84.6864 47.7298 84.1351 48.224 83.5331 48.651L83.499 48.676C82.491 49.4062 81.4253 50.053 80.3123 50.6102L80.0372 50.7586C80.9728 51.1611 81.8497 51.6878 82.6445 52.3246C83.7269 53.1967 84.6459 54.254 85.3587 55.4473L85.4312 55.566C85.4956 55.671 85.5579 55.7767 85.6241 55.8971L85.9144 56.4647C85.9676 56.5705 86.0187 56.6768 86.0744 56.8L86.4431 57.7113L86.5908 58.1609C86.6997 58.4816 86.7874 58.8091 86.8535 59.1413C86.9269 59.4659 86.9959 59.7825 87.0583 60.1168C87.0617 60.1295 87.0656 60.1443 87.069 60.157C87.1038 60.4896 87.1332 60.8192 87.1604 61.1403C87.1878 61.4209 87.1938 61.7032 87.1783 61.9847L87.1679 62.377C87.1649 62.6649 87.1428 62.9523 87.1017 63.2372C87.0573 63.5616 87.0108 63.8866 86.9589 64.2085L86.9495 64.2496L86.7244 65.1591C86.6622 65.4111 86.5841 65.6589 86.4907 65.9011L86.3504 66.2988C86.271 66.5396 86.1777 66.7755 86.071 67.0055L85.6789 67.8579C85.5724 68.0608 85.4612 68.2627 85.3494 68.4625L85.2479 68.6415C85.1007 68.9197 84.9388 69.1899 84.7628 69.4509L84.6184 69.673C84.5047 69.8484 84.3878 70.0292 84.2637 70.1915C83.5694 71.1398 82.8012 72.0317 81.9664 72.8589C81.8583 72.9626 81.7527 73.0588 81.6435 73.1583C81.9363 73.5916 82.131 74.2506 81.6722 75.1163C81.4353 75.5308 81.151 75.9163 80.825 76.265L80.6511 76.4611C79.9738 77.2076 79.2418 77.9026 78.4612 78.5403L78.3137 78.6659C77.5048 79.33 76.7538 80.0615 76.0688 80.8527L76.0455 80.8589C75.8141 81.2969 75.5939 81.7091 75.4184 82.0596C75.1124 86.834 74.4255 91.5474 73.1018 96.0736C74.8688 96.7555 76.5011 97.745 77.9229 98.9964C77.8805 98.1435 77.7897 97.2938 77.6508 96.4513C77.5902 96.0644 77.5249 95.6856 77.4625 95.3173C77.3544 94.6941 77.2559 94.1067 77.1825 93.5285C77.1121 93.066 77.1012 92.5963 77.1499 92.1309C77.1803 91.8441 77.2926 91.5722 77.4733 91.3475C77.654 91.1228 77.8956 90.9548 78.1692 90.8636C79.0122 90.5698 79.8609 91.058 80.386 92.1221C80.7403 92.9028 80.944 93.7433 80.9865 94.5996C81.123 96.343 80.6966 97.9044 80.3093 99.0703C80.1644 99.51 80.0082 99.9413 79.8536 100.37C79.7881 100.548 79.7227 100.727 79.663 100.901L79.9055 101.189C79.9156 101.201 79.9248 101.213 79.9332 101.225L79.9389 101.246C80.5916 100.301 81.2696 99.3836 81.9448 98.4803C82.553 97.6651 83.1808 96.822 83.7559 95.9931C83.7584 95.9595 83.7639 95.9262 83.7722 95.8936C83.9629 95.1767 84.1207 94.498 84.2545 93.8394C84.2709 93.647 84.285 93.3783 84.2888 93.0376C84.2964 92.6098 84.2787 92.1548 84.2704 91.8196L84.2624 91.5024C84.2333 90.6219 84.1332 89.7452 83.9631 88.8808L83.8909 88.4676C83.7418 87.7344 83.6405 86.9921 83.5877 86.2457C83.5726 86.0355 83.5721 85.8246 83.5861 85.6143C83.5901 85.3736 83.6282 85.1346 83.6993 84.9046C83.7779 84.6358 83.9285 84.3937 84.135 84.2047C84.3415 84.0156 84.5958 83.8867 84.8704 83.8321C85.7078 83.644 86.4412 84.0906 86.8871 85.0786C87.0482 85.4446 87.1607 85.8302 87.2215 86.2254C87.2796 86.5626 87.3157 86.9032 87.3294 87.2451C87.4016 88.4781 87.1798 89.7378 86.6326 91.2115C86.3691 91.9185 86.061 92.5944 85.7649 93.2558C87.0818 91.5441 88.4855 89.8862 89.948 88.3122C89.695 87.5624 89.15 85.5117 87.9012 79.4396C87.6231 78.0806 88.1428 75.8533 89.6258 75.311C90.083 75.1409 90.4997 75.4369 90.8021 75.6525C90.8654 75.6945 90.953 75.7593 91.006 75.7881C91.8971 75.8007 92.5482 76.0837 92.941 76.6285L92.9455 76.6454C93.0938 76.4496 93.2843 76.2897 93.5027 76.1774C93.7212 76.0652 93.9621 76.0035 94.2076 75.9969C94.7765 76.0107 95.3397 76.1152 95.8757 76.3063C96.5273 76.5236 96.9157 76.9675 97.2561 77.3587C97.3941 77.5024 97.5395 77.6388 97.6917 77.7674C97.9209 77.9499 98.1876 78.0796 98.4728 78.1469C98.8032 78.2376 99.1183 78.3767 99.4078 78.5599C99.8866 78.8846 100.067 79.5156 100.187 79.9365C100.33 80.4072 100.333 80.9098 100.193 81.3818C100.156 81.4823 100.11 81.5795 100.056 81.6722C100.241 81.6654 100.426 81.6845 100.606 81.7288C101.261 81.8929 101.768 82.38 102.113 83.1796C102.179 83.2285 102.247 83.2737 102.317 83.3152C102.631 83.5142 103.061 83.784 103.083 84.2718C103.147 85.7628 101.489 87.0361 100.158 87.3928C100.079 87.4137 100.005 87.4335 99.9315 87.4533C93.2927 88.734 91.3931 88.9554 90.7683 88.9733C88.5547 91.3439 86.5165 93.8723 84.6698 96.5386C84.49 96.7973 84.3012 97.0563 84.1145 97.3146L84.1855 97.2753L84.6577 96.9585L85.0182 96.7147C85.5764 96.3387 86.2319 95.9366 86.6083 95.727L86.8812 95.5791C87.7742 95.0699 88.696 94.6127 89.6418 94.2099C90.6196 93.8206 91.6246 93.5036 92.6488 93.2615C93.0757 93.1464 93.5148 93.0827 93.9568 93.0718C94.238 93.0631 94.5163 93.1307 94.7622 93.2674C95.0081 93.404 95.2125 93.6046 95.3537 93.8479C95.4791 94.0591 95.5484 94.2988 95.5551 94.5444C95.5619 94.7899 95.5058 95.033 95.3921 95.2508C95.1617 95.675 94.8251 96.0321 94.4152 96.2871C93.8839 96.6164 93.3043 96.8603 92.6975 97.01C92.4482 97.0768 92.2298 97.124 92.0697 97.1601C91.3815 97.3 90.6855 97.398 89.9855 97.4536L89.6126 97.4901C89.0871 97.5404 88.5594 97.5912 88.0277 97.6521C86.7218 97.7682 85.4341 98.0373 84.191 98.4537L84.1445 98.4661C83.611 98.7654 83.0893 99.075 82.5832 99.4008L82.541 99.4121C81.8747 100.306 81.2124 101.215 80.5828 102.145L80.6867 102.296C80.8471 102.512 80.9919 102.738 81.1199 102.975L81.2617 103.233C81.6076 103.037 81.9582 102.841 82.2024 102.721C82.4466 102.601 82.6602 102.494 82.8954 102.374C83.5794 102.028 84.2918 101.67 85.0358 101.362C86.0467 100.912 87.1269 100.639 88.2299 100.553C89.1963 100.5 89.9008 100.679 90.3182 101.079C90.4586 101.215 90.5689 101.38 90.6419 101.562C90.7148 101.744 90.7489 101.94 90.7419 102.136C90.731 102.94 90.2443 103.533 89.279 103.902C89.106 103.967 88.9218 104.023 88.7401 104.072C88.3175 104.185 87.8847 104.26 87.5471 104.319L87.3202 104.359C86.2096 104.536 85.0896 104.649 83.966 104.697L83.509 104.724C83.0156 104.759 82.5344 104.797 82.0582 104.845C82.9119 106.835 83.3041 108.992 83.2055 111.155C83.1013 113.186 82.6352 115.181 81.8289 117.048C82.4004 117.617 82.9953 118.189 83.629 118.762C83.6802 118.808 83.7219 118.863 83.7516 118.925C83.7813 118.987 83.7985 119.054 83.8021 119.123C83.8058 119.191 83.7958 119.26 83.7728 119.325C83.7498 119.39 83.7142 119.449 83.668 119.5C83.6219 119.551 83.5662 119.592 83.504 119.621C83.4419 119.651 83.3746 119.667 83.306 119.67C83.2373 119.674 83.1688 119.663 83.1042 119.64C83.0397 119.616 82.9804 119.58 82.9299 119.534C82.3835 119.041 81.869 118.55 81.3678 118.057C80.5182 119.774 79.462 121.381 78.2227 122.842C78.0301 123.069 77.7727 123.232 77.485 123.309C77.3964 123.333 77.3056 123.348 77.2141 123.355C77.0194 123.368 76.8239 123.343 76.6392 123.28C76.4546 123.216 76.2845 123.116 76.1392 122.986C75.8787 122.742 75.7144 122.412 75.6762 122.057C75.638 121.702 75.7284 121.345 75.931 121.051C76.9562 119.553 77.7847 117.93 78.3962 116.221C78.5163 115.883 78.6174 115.551 78.7136 115.217C77.2104 113.472 75.9124 111.56 74.845 109.518L74.8422 109.508C73.7803 108.455 72.7966 107.326 71.8988 106.129C71.8788 106.122 71.8596 106.113 71.8415 106.102C71.3601 105.81 70.8518 105.527 70.3246 105.258C70.1773 105.207 69.9656 105.144 69.696 105.076C69.3794 104.993 69.0476 104.921 68.784 104.867L68.4271 104.786C67.7913 104.643 67.1476 104.538 66.4994 104.471L66.1899 104.432C65.3884 104.356 64.6001 104.176 63.8451 103.896C63.416 103.715 62.1082 103.161 62.4634 101.723C62.6669 100.919 63.2822 100.46 64.2007 100.431C64.8142 100.439 65.4216 100.555 65.9952 100.772C67.0651 101.152 68.0525 101.733 68.9042 102.484C69.3288 102.835 69.7287 103.203 70.1188 103.56C69.3777 102.4 68.6869 101.208 68.0314 99.9958L66.9405 99.7786C66.2479 99.6448 65.5404 99.506 64.8214 99.3499C64.3422 99.2519 63.8322 99.1236 63.3452 99.0049L63.2845 98.9895C62.718 98.8446 62.2131 98.7014 61.7458 98.5548C60.604 98.2178 59.5039 97.7529 58.4666 97.1688C57.2608 96.4807 56.2119 95.5484 55.387 94.4317C54.9775 93.8601 54.6307 93.2462 54.3528 92.6004L54.1616 92.1488C54.1582 92.1362 54.1548 92.1235 54.1508 92.1087L53.9216 91.4137C53.8544 91.2053 53.7851 90.9974 53.7278 90.7749C53.3805 89.4528 53.2824 88.0776 53.4383 86.7195C53.608 85.332 54.0622 83.9945 54.7725 82.7906C54.9857 82.429 55.2177 82.0789 55.4675 81.7415C55.0471 81.6339 54.6363 81.4917 54.2394 81.3165L53.7989 81.1265C52.8823 80.7312 51.9346 80.3216 51.2235 79.5949C50.6198 78.9731 50.3635 78.3715 50.4643 77.8009C50.5841 77.1325 51.3221 76.6834 51.953 76.3671C52.2225 76.2435 52.5177 76.1861 52.814 76.1998C52.8045 75.9919 52.8487 75.785 52.9426 75.5991C53.0364 75.4133 53.1766 75.2549 53.3496 75.1391C53.6365 74.9101 53.9926 74.7851 54.3598 74.7846C54.4069 74.5456 54.5076 74.3204 54.6543 74.1259C55.082 73.5584 55.6608 72.9209 56.3401 72.9292C56.917 72.9354 57.4651 73.3071 57.9608 74.0077C58.5441 74.8411 58.7712 75.8491 58.9892 76.8234L59.0937 77.2891C59.1578 77.5599 59.2071 77.834 59.2412 78.1102C59.4304 77.9711 59.6423 77.8238 59.8548 77.6785C60.7515 77.0682 61.6791 76.5044 62.6339 75.9895C63.5959 75.4554 64.578 74.9794 65.4255 74.5757C66.6305 74.0014 67.8479 73.4737 69.0147 72.9346L69.7709 72.596L69.43 72.2616C68.8218 71.6809 68.1707 71.1467 67.4822 70.6638L67.4436 70.6379C66.726 70.1454 66.0556 69.5873 65.4411 68.971C65.0232 68.51 64.0466 67.4264 64.995 66.3004C65.3104 65.9306 66.0215 65.3981 67.2517 65.9834C67.8614 66.304 68.4119 66.7263 68.8795 67.2321C69.7748 68.155 70.477 69.2472 70.9451 70.4448C71.1397 70.909 71.3057 71.3763 71.4609 71.8375L71.7768 71.6894C71.0292 68.6427 69.9516 65.6866 68.5631 62.8736C68.0171 62.3654 67.4421 61.8763 66.8454 61.4157C66.5296 61.8204 66.2103 62.232 65.8877 62.6506L65.8316 62.72C64.4848 64.4555 63.2508 66.0114 61.7332 67.5232C60.9164 68.345 60.0311 69.0959 59.087 69.7677C58.0677 70.4962 56.959 71.0909 55.7882 71.5371C54.562 72.0027 53.2701 72.2724 51.96 72.3364C50.6606 72.4088 49.3577 72.2813 48.097 71.9583C46.7416 71.6135 45.4698 70.9983 44.3581 70.1497C43.1199 69.2074 42.174 67.9336 41.6299 66.4759C41.0994 64.9808 41.0298 63.3608 41.4302 61.8257C41.616 61.1329 41.8768 60.4624 42.2079 59.826C42.5222 59.2473 42.8842 58.6957 43.2902 58.1772C44.6647 56.4919 46.2254 54.9676 47.9427 53.6332C48.7028 53.0219 49.4671 52.4344 50.2052 51.8674C51.0313 51.2317 51.8129 50.6327 52.5666 50.0141C53.1241 49.559 53.6997 49.0786 54.2713 48.5835L54.2245 48.5779C54.024 48.5818 53.7542 48.5975 53.43 48.63C53.1604 48.6547 52.8728 48.6887 52.5917 48.7301L51.9146 48.8232C51.0304 48.9577 50.1561 49.1504 49.2972 49.3999C48.3987 49.6671 47.4771 49.8496 46.5445 49.945C45.9471 49.9806 44.3585 50.0779 44.1087 48.6048C44.0306 48.1275 44.0895 47.2398 45.3595 46.655C46.0153 46.3834 46.7102 46.2179 47.418 46.1645C48.7413 46.0325 50.0775 46.1475 51.3588 46.5036C51.9993 46.6626 52.6181 46.8592 53.2237 47.057C51.2368 45.9724 49.1957 45.0065 47.2128 44.1224C46.6748 44.4727 44.9672 45.3854 38.8457 48.115C38.6716 48.1922 38.4917 48.2555 38.3077 48.3044C37.0103 48.6521 35.1836 48.478 34.443 47.3199C34.1803 46.9056 34.3772 46.4317 34.5227 46.096C34.5501 46.0207 34.593 45.9186 34.6095 45.8621ZM66.0472 31.6023C65.0916 31.7293 64.958 31.9237 64.9462 31.9472C64.8421 32.1336 64.9023 32.4934 65.1093 32.9362C65.4554 33.6701 66.1519 34.2919 66.8042 34.9007C66.9244 35.0112 67.0467 35.1211 67.1648 35.2321C67.3892 35.436 67.6267 35.6251 67.8758 35.798C67.5995 35.3077 67.3619 34.7967 67.165 34.2696C66.9866 33.7897 66.8685 32.7909 66.7927 31.8488C66.5751 31.6925 66.315 31.6065 66.0472 31.6023ZM67.9029 30.8787C67.8641 30.8887 67.8301 30.9119 67.8066 30.9442C67.783 30.9765 67.7714 31.016 67.7737 31.0559C67.8618 32.4749 67.9875 33.5442 68.1315 33.9041C68.8042 35.6964 69.6313 36.5686 69.9851 36.7479C70.0309 36.7582 70.0724 36.7697 70.1177 36.778C70.1595 36.7396 70.2645 36.5484 70.2789 36.0781C70.2617 35.1287 70.0709 34.1905 69.716 33.3097C69.4946 32.7067 69.2107 32.1285 68.8688 31.5846C68.8219 31.5111 68.7766 31.4349 68.7334 31.3582C68.6367 31.1441 68.4871 30.9582 68.2987 30.8179C68.1639 30.8105 68.029 30.829 67.9012 30.8723L67.9029 30.8787ZM71.3289 33.6747C71.3448 33.5142 71.3643 33.3504 71.3817 33.1873C71.4829 32.2973 71.5868 31.3749 71.3662 30.5938C71.24 30.1226 71.0395 29.814 70.8387 29.741C70.8137 29.7318 70.594 29.6729 69.7838 30.2071C69.6477 30.3105 69.549 30.4554 69.5026 30.6199C69.5494 30.6934 69.5936 30.7653 69.6325 30.8342C69.6713 30.903 69.7105 30.965 69.7504 31.0291C70.1318 31.6344 70.4486 32.2783 70.6953 32.9499C70.896 33.4824 71.0547 34.0297 71.1702 34.5869C71.2439 34.2848 71.2964 33.9778 71.3272 33.6684L71.3289 33.6747ZM79.4466 22.2688C79.1883 22.0572 78.7781 22.0222 78.2287 22.1694C77.9541 22.2112 77.6733 22.167 77.4248 22.0428C77.3194 22.0011 77.2116 21.9657 77.102 21.9368C76.4442 22.4822 76.4254 24.0771 76.8894 25.0058C77.6506 26.5366 78.2999 27.8188 78.8473 28.8814C78.4957 27.5693 78.2058 26.1998 78.1764 25.2113C78.1744 25.1428 78.1859 25.0746 78.2103 25.0106C78.2347 24.9466 78.2714 24.888 78.3184 24.8382C78.3654 24.7884 78.4218 24.7483 78.4842 24.7203C78.5467 24.6922 78.6141 24.6768 78.6826 24.6748C78.7511 24.6728 78.8193 24.6843 78.8833 24.7087C78.9473 24.733 79.0059 24.7698 79.0557 24.8168C79.1055 24.8638 79.1456 24.9201 79.1736 24.9826C79.2016 25.0451 79.2171 25.1125 79.2191 25.181C79.251 26.2889 79.6619 27.9747 80.0897 29.4612C79.9845 27.0911 79.9008 24.953 79.8788 23.6454C79.8721 23.6064 79.8698 23.5667 79.8721 23.5272C79.8836 23.2999 79.8356 22.5881 79.4466 22.2688ZM87.0501 23.3544C86.9228 23.1417 86.6875 22.745 86.4873 22.6741C86.258 22.6064 86.02 22.5725 85.7809 22.5735C85.3315 22.5794 84.8868 22.4815 84.4814 22.2876C84.2667 22.1708 84.0767 22.045 83.8942 21.9218C83.5126 21.664 83.211 21.4594 82.8078 21.4339C82.366 21.3913 81.9202 21.4197 81.4874 21.5181C81.147 21.6252 81.0224 21.8534 80.9288 22.5352C80.8701 22.9586 80.9664 25.904 81.2169 31.3015C81.6306 30.158 82.4486 27.5564 82.5951 26.5478C82.6049 26.4801 82.6279 26.4149 82.6629 26.3561C82.6979 26.2972 82.7441 26.2458 82.799 26.2049C82.8538 26.1639 82.9162 26.1341 82.9825 26.1172C83.0489 26.1004 83.1179 26.0967 83.1857 26.1065C83.2534 26.1163 83.3186 26.1394 83.3774 26.1744C83.4363 26.2093 83.4877 26.2556 83.5286 26.3104C83.5696 26.3652 83.5994 26.4276 83.6163 26.494C83.6332 26.5603 83.6368 26.6293 83.627 26.6971C83.4756 27.7296 82.6967 30.2573 82.2315 31.5551L82.9881 30.8881C83.6695 30.1582 84.3118 29.3927 84.9122 28.5947L85.1656 28.2641C85.8023 27.4368 86.4601 26.5789 86.738 25.6212L86.7871 25.4495C86.8476 25.1891 86.9453 24.9387 87.077 24.706C87.1859 24.5272 87.2566 24.3279 87.2847 24.1204C87.2802 23.8481 87.1989 23.5826 87.0501 23.3544ZM89.1692 29.2092C90.1034 28.7573 91.0653 27.4873 90.8798 26.6515C90.7759 26.6062 90.6688 26.5683 90.5595 26.538C90.2883 26.4835 90.0405 26.3467 89.8499 26.1462C89.5061 25.7084 89.1681 25.4864 88.8264 25.4874C88.3208 25.4938 87.8371 25.9789 87.6388 26.211C87.2736 27.2147 86.6237 28.0682 85.9924 28.8987L85.7421 29.2239C85.4576 29.5991 85.1781 29.9503 84.8957 30.2909C85.9204 29.4751 86.9568 28.5678 87.7153 27.8572C87.7652 27.8104 87.8239 27.7739 87.8879 27.7497C87.9519 27.7255 88.0201 27.7142 88.0885 27.7164C88.1569 27.7186 88.2242 27.7342 88.2866 27.7624C88.3489 27.7906 88.4051 27.8308 88.452 27.8807C88.4988 27.9306 88.5353 27.9892 88.5595 28.0533C88.5837 28.1173 88.595 28.1854 88.5928 28.2538C88.5906 28.3222 88.575 28.3895 88.5468 28.4519C88.5186 28.5143 88.4784 28.5705 88.4285 28.6173C88.2133 28.8199 87.2468 29.7175 86.0723 30.6844C86.9757 30.2612 88.0017 29.7712 89.1692 29.2092ZM84.1688 38.5569L84.3676 38.4538C85.5204 37.8709 86.1883 37.3885 85.9706 36.7788C85.947 36.6866 85.894 36.6046 85.8197 36.5453C85.7453 36.4859 85.6537 36.4524 85.5586 36.4498C85.3502 36.437 85.1413 36.4615 84.9416 36.5223C84.8338 36.5511 84.7303 36.5789 84.5996 36.632C82.9756 37.2144 81.4567 38.8058 80.3408 39.9744L80.212 40.1108C80.4934 39.9947 80.7765 39.8848 81.055 39.7831C81.2981 39.693 81.5402 39.6077 81.7823 39.5225C82.5975 39.2517 83.3946 38.9292 84.1688 38.5569ZM76.2729 34.9181C75.9694 34.4785 75.6969 34.4587 75.4856 34.5153L75.4264 34.5312C75.0592 34.6568 74.9005 34.8759 75.0539 35.7271C75.2221 36.4361 75.473 37.1229 75.8015 37.7734L75.8471 37.8676C76.1889 38.563 76.4827 39.2811 76.7264 40.0166C76.7406 40.0695 76.757 40.1307 76.7751 40.1984C76.8252 39.929 76.87 39.6566 76.9078 39.3837C77.0818 38.3643 77.0493 37.3202 76.8122 36.3136C76.7144 35.8208 76.5319 35.3486 76.2729 34.9181ZM92.111 77.2245C91.9144 76.9556 91.529 76.8188 90.9602 76.8173C90.6846 76.7894 90.4248 76.6751 90.2182 76.4907C90.1301 76.4227 90.0378 76.3604 89.9418 76.3043C89.1635 76.6623 88.7394 78.1981 88.9486 79.2155C89.2936 80.8918 89.5905 82.2956 89.8594 83.46C89.8578 82.1017 89.925 80.7045 90.1513 79.7403C90.1669 79.6736 90.1955 79.6107 90.2354 79.5551C90.2753 79.4995 90.3258 79.4523 90.384 79.4163C90.4421 79.3802 90.5068 79.3559 90.5743 79.3448C90.6419 79.3337 90.7109 79.336 90.7776 79.3517C90.8442 79.3673 90.9071 79.3958 90.9627 79.4357C91.0183 79.4757 91.0655 79.5261 91.1015 79.5843C91.1376 79.6424 91.1619 79.7071 91.173 79.7747C91.1841 79.8422 91.1818 79.9113 91.1662 79.9779C90.9137 81.0556 90.8781 82.7908 90.9149 84.3481C91.5104 81.6091 91.931 79.7729 92.2005 78.6658C92.2033 78.6282 92.2109 78.5912 92.2231 78.5555C92.2779 78.3121 92.4074 77.6207 92.111 77.2245ZM98.8148 79.4231C98.6086 79.3007 98.3863 79.2078 98.1543 79.1472C97.7185 79.0393 97.3139 78.8314 96.9724 78.5399C96.8063 78.3797 96.6484 78.2111 96.4996 78.0347C96.1961 77.688 95.9548 77.413 95.5744 77.2862C95.1584 77.1329 94.7209 77.0461 94.278 77.0289C93.9228 77.0471 93.7418 77.2337 93.475 77.8691C93.3107 78.2619 92.6517 81.1356 91.5122 86.4165C92.2027 85.4184 93.6592 83.1122 94.06 82.1737C94.0868 82.1108 94.1258 82.0537 94.1747 82.0058C94.2236 81.9579 94.2814 81.9202 94.3449 81.8946C94.4084 81.8691 94.4764 81.8563 94.5448 81.857C94.6132 81.8577 94.6809 81.8719 94.7438 81.8988C94.8068 81.9256 94.8638 81.9646 94.9117 82.0135C94.9596 82.0624 94.9974 82.1203 95.0229 82.1838C95.0485 82.2473 95.0612 82.3152 95.0605 82.3836C95.0598 82.452 95.0456 82.5197 95.0188 82.5826C94.6083 83.5441 93.2091 85.7851 92.4243 86.9217L93.3294 86.4708C94.1741 85.939 94.9905 85.3634 95.7752 84.7465L96.1037 84.4932C96.9313 83.8547 97.7936 83.1934 98.3029 82.339L98.3932 82.1857C98.5184 81.9495 98.6769 81.7324 98.8637 81.5411C99.015 81.3975 99.1343 81.2235 99.2138 81.0306C99.2799 80.7656 99.269 80.4872 99.1822 80.2283C99.1242 79.9947 98.9938 79.5337 98.8131 79.4168L98.8148 79.4231ZM99.7306 86.4247C100.754 86.2297 102.005 85.2445 102.039 84.3907C101.951 84.3204 101.858 84.256 101.761 84.198C101.511 84.077 101.306 83.881 101.174 83.6374C100.96 83.1263 100.684 82.8243 100.354 82.7407C99.8671 82.6152 99.2774 82.9498 99.0189 83.1346C98.4092 84.0204 97.5617 84.6777 96.7399 85.3124L96.4151 85.5625C96.0401 85.8532 95.6816 86.1213 95.324 86.3757C96.5239 85.8503 97.7574 85.239 98.6735 84.7445C98.7337 84.7119 98.7998 84.6916 98.868 84.6847C98.9361 84.6777 99.005 84.6842 99.0706 84.7039C99.1362 84.7235 99.1973 84.7559 99.2504 84.7991C99.3035 84.8424 99.3476 84.8957 99.3801 84.956C99.4126 85.0162 99.4329 85.0823 99.4399 85.1505C99.4468 85.2186 99.4403 85.2875 99.4207 85.3531C99.401 85.4187 99.3687 85.4798 99.3254 85.5329C99.2822 85.586 99.2289 85.6301 99.1686 85.6626C98.9093 85.8023 97.7418 86.4231 96.3607 87.0581C97.3461 86.8734 98.4633 86.6646 99.7358 86.4187L99.7306 86.4247ZM86.2109 86.3921C86.1641 86.0836 86.0774 85.7825 85.9528 85.4965C85.6072 84.7308 85.2377 84.8139 85.114 84.8426L85.0739 84.8533C84.9827 84.8734 84.8994 84.9195 84.834 84.9861C84.7686 85.0527 84.724 85.1368 84.7055 85.2283C84.6651 85.3683 84.6445 85.5134 84.6443 85.6591C84.6329 85.8325 84.6333 86.0064 84.6457 86.1796C84.6971 86.8848 84.7927 87.5861 84.932 88.2793L85.0074 88.6961C85.1869 89.6153 85.292 90.5474 85.3218 91.4835L85.3269 91.6973C85.4485 91.4156 85.5641 91.1287 85.6728 90.8414C86.1673 89.5086 86.3745 88.3887 86.3078 87.2946C86.2968 86.9902 86.2662 86.6867 86.2161 86.3862L86.2109 86.3921ZM89.5146 96.4565L89.8875 96.42C90.5473 96.3685 91.2034 96.2767 91.852 96.145C92.2803 96.0529 93.1854 95.8557 93.8477 95.42C94.1 95.2699 94.3098 95.0578 94.4571 94.8038C94.497 94.7416 94.5187 94.6694 94.5197 94.5955C94.5207 94.5216 94.501 94.4489 94.4628 94.3856C94.3491 94.1896 94.2107 94.1293 93.9383 94.1185C93.5847 94.1331 93.2339 94.1876 92.8925 94.2809C92.7002 94.3325 92.5058 94.3845 92.3114 94.4366C91.5404 94.6434 90.7821 94.895 90.0403 95.1901C89.1293 95.5742 88.2414 96.011 87.3811 96.4983L87.1061 96.6467L86.9095 96.7582C87.2604 96.7072 87.6004 96.666 87.9235 96.6292C88.4564 96.5476 88.99 96.502 89.5198 96.4506L89.5146 96.4565ZM45.7945 47.5937C45.0568 47.9341 45.1148 48.2944 45.1367 48.4267C45.1979 48.7818 45.4296 48.962 46.4791 48.8982C47.3434 48.8062 48.1972 48.6343 49.0297 48.3846C49.9317 48.1234 50.8501 47.9228 51.7788 47.7838L51.9969 47.7526C51.7015 47.6642 51.4056 47.5826 51.1066 47.5065C49.945 47.182 48.7333 47.0759 47.5329 47.1936C47.1386 47.2297 46.7478 47.2973 46.3642 47.3958C46.1694 47.4466 45.9788 47.5128 45.7945 47.5937ZM48.5977 54.4383C46.9402 55.7213 45.434 57.1886 44.108 58.8119C43.7407 59.2831 43.4136 59.7843 43.1303 60.3103C42.8359 60.8736 42.6039 61.4673 42.4384 62.081C42.0902 63.4112 42.1508 64.8155 42.6123 66.1108C43.0896 67.3852 43.9187 68.498 45.0032 69.3201C46.0037 70.084 47.1488 70.637 48.3692 70.9455C50.7041 71.5358 53.1633 71.4005 55.4194 70.5579C56.5084 70.1421 57.5398 69.5887 58.4884 68.9112C59.3863 68.2747 60.2282 67.5628 61.0049 66.783C62.4797 65.3144 63.6935 63.7844 65.0159 62.0848L65.0699 62.016L65.9331 60.9015L66.0209 60.7896L66.263 60.4847L66.5279 60.1465L66.6584 59.9824L66.8002 59.8018L66.8496 59.741L66.8601 59.7382C67.105 59.4348 67.3399 59.1453 67.5571 58.8992L67.6774 58.765C67.9394 58.4691 68.2202 58.1903 68.5182 57.9306C69.5349 57.042 70.7213 56.369 72.0056 55.9521C72.2388 55.876 72.4753 55.8036 72.7137 55.7465C72.8172 55.7188 72.9278 55.7005 73.0261 55.6786C73.4437 55.5882 73.8672 55.5277 74.2934 55.4976C74.6419 55.4736 74.9915 55.4715 75.3402 55.4911C75.9776 55.5222 76.6081 55.6381 77.2148 55.8358C78.5735 56.2713 79.722 57.196 80.4375 58.4305L80.4855 58.5082C80.5144 58.5571 80.5455 58.6053 80.5827 58.6769L80.7414 58.9899C80.7666 59.042 80.794 59.0936 80.8309 59.172L81.0279 59.6537C81.0329 59.6682 81.0369 59.683 81.0398 59.6981L81.2032 60.1978C81.2305 60.2741 81.2515 60.3526 81.266 60.4324C81.27 60.4531 81.2755 60.4736 81.2824 60.4936L81.3889 60.9588C81.3982 60.985 81.4054 61.0118 81.4105 61.0391C81.4177 61.1844 81.4312 61.3279 81.4497 61.4815C81.4704 61.625 81.4752 61.7703 81.4639 61.9148C81.4614 61.9562 81.4595 61.9997 81.46 62.0608C81.4605 62.1218 81.4587 62.1404 81.4583 62.1812C81.4603 62.3261 81.4491 62.4709 81.4247 62.6137C81.2775 63.9576 80.6614 65.4362 79.6421 66.8892C79.1457 67.5833 78.5956 68.2373 77.9967 68.8452C77.3848 69.4515 76.7311 70.0141 76.0405 70.5289C75.8832 70.6435 75.7264 70.7512 75.5711 70.8562C75.2374 71.0815 74.8992 71.2899 74.5476 71.4905C74.3179 71.6223 74.0808 71.7515 73.8319 71.8793C73.5831 72.0071 73.2937 72.1526 73.0074 72.2927C72.7211 72.4328 72.3837 72.5935 72.0436 72.7525L71.8135 72.8572L71.6123 72.9519L71.3438 73.0737L71.2994 73.0856L71.0645 73.1893L70.6606 73.3722L70.5731 73.4092C70.2071 73.573 69.8416 73.7389 69.4687 73.9022C68.3032 74.4206 67.0986 74.954 65.9031 75.5211C65.0719 75.9182 64.0971 76.3878 63.1677 76.9086C62.2416 77.4044 61.3418 77.9479 60.472 78.5368C60.0523 78.8213 59.6712 79.0978 59.3144 79.3723C59.1604 79.4906 59.0102 79.6063 58.8639 79.7195C58.6038 79.9319 58.358 80.1472 58.132 80.3686L58.004 80.4912L57.9116 80.5771L57.6701 80.8252L57.6022 80.8932L57.5808 80.9148C57.3425 81.1523 57.1245 81.3896 56.9269 81.6268C56.8399 81.7248 56.7529 81.8229 56.6665 81.923C56.3113 82.362 55.9892 82.8267 55.703 83.3135C55.0663 84.3931 54.6591 85.5923 54.5068 86.8363C54.3675 88.0582 54.4556 89.2954 54.7666 90.4852C54.8193 90.6817 54.8708 90.874 54.9413 91.0612C54.9657 91.1521 55.0006 91.2401 55.0254 91.324L55.1639 91.7398L55.3464 92.1756C55.5947 92.7488 55.9032 93.2939 56.2668 93.8019C57.0076 94.7922 57.9432 95.6205 59.016 96.2357C59.986 96.7848 61.0149 97.2224 62.0832 97.5404C62.534 97.6846 63.0213 97.8213 63.5554 97.9635L63.6113 97.9779C64.0951 98.0929 64.5816 98.2184 65.0603 98.3144C65.7808 98.4678 66.4789 98.6137 67.1623 98.7385L67.4232 98.7909C67.8725 98.8789 68.3123 98.9649 68.742 99.0558C69.4236 99.1993 70.0868 99.35 70.7297 99.5265C71.2289 99.6599 71.7074 99.8118 72.1652 99.982C72.5408 100.121 72.9024 100.274 73.2501 100.439C74.0472 100.816 74.7998 101.28 75.494 101.823C75.5657 101.888 75.6389 101.95 75.7121 102.012C75.9767 102.23 76.226 102.466 76.4583 102.718L77.1215 103.435C77.1344 103.447 77.1464 103.461 77.1572 103.475L77.8147 104.297L77.928 104.442C77.9518 104.471 77.9778 104.501 77.9995 104.531C78.0659 104.618 78.1273 104.709 78.1835 104.803L78.3279 105.03L78.5072 105.31L78.5725 105.41L78.6745 105.571C78.7479 105.685 78.8137 105.803 78.8714 105.926C78.8753 105.936 78.8781 105.947 78.8799 105.957C79.7331 107.542 80.2087 109.303 80.2697 111.102C80.3151 112.399 80.1761 113.696 79.8569 114.954C79.7596 115.351 79.6452 115.749 79.5136 116.148C79.4676 116.29 79.4238 116.431 79.3753 116.571C78.7343 118.362 77.8669 120.064 76.7941 121.635C76.7312 121.72 76.7 121.824 76.706 121.93C76.7119 122.036 76.7546 122.136 76.8266 122.213C76.868 122.251 76.9165 122.28 76.9693 122.298C77.0222 122.317 77.0782 122.325 77.1341 122.321C77.1891 122.317 77.2428 122.302 77.2921 122.277C77.3414 122.252 77.3853 122.218 77.4214 122.176C78.6847 120.693 79.7491 119.051 80.5877 117.292C80.6169 117.232 80.6482 117.172 80.6748 117.11C80.8064 116.823 80.9241 116.536 81.0376 116.25C81.6974 114.61 82.0788 112.871 82.1662 111.105C82.2633 109.002 81.8605 106.905 80.9909 104.986C80.9835 104.959 80.9767 104.934 80.9567 104.91C80.9545 104.897 80.9513 104.885 80.9471 104.874C80.9357 104.831 80.9117 104.792 80.8941 104.752C80.8555 104.667 80.8169 104.582 80.7715 104.497C80.726 104.412 80.6925 104.346 80.6493 104.269L80.623 104.222L80.4063 103.827L80.3734 103.764L80.2053 103.458C80.1403 103.334 80.0681 103.214 79.9891 103.099C79.944 103.032 79.8988 102.965 79.8509 102.896L79.3393 102.161L79.2806 102.077L79.1294 101.859L79.1076 101.829L78.8943 101.574L78.5359 101.149L78.367 100.95L78.3248 100.902C78.2244 100.773 78.1082 100.643 77.994 100.513C77.7947 100.301 77.5815 100.089 77.3721 99.8822L77.234 99.7471C75.9896 98.6502 74.5689 97.7714 73.0318 97.1477C72.6942 97.0117 72.3438 96.8791 71.9872 96.7482C71.8623 96.7047 71.7368 96.659 71.6136 96.6218C70.3127 96.1868 69.0311 95.8667 67.7912 95.558L66.8186 95.3091C66.4882 95.2255 66.1663 95.1396 65.8443 95.0538L65.4791 94.9501C65.1997 94.871 64.9219 94.7891 64.6429 94.7031L64.4381 94.6402C63.9927 94.4991 63.5739 94.3645 63.1682 94.2196C62.3603 93.9474 61.5852 93.5862 60.8572 93.1425C60.2372 92.7586 59.7027 92.2512 59.287 91.6519C59.2796 91.6422 59.273 91.6318 59.2674 91.6209C59.0815 91.3296 58.9263 91.0198 58.8045 90.6964L58.7163 90.4687C58.7103 90.4507 58.7054 90.4323 58.7016 90.4137L58.6274 90.1369C58.6093 90.0693 58.5912 90.0017 58.5708 89.9256C58.5385 89.8052 58.5062 89.6848 58.4734 89.5622C58.1551 87.9603 58.3818 86.6427 59.1796 85.394C59.3966 85.063 59.6378 84.7485 59.9013 84.4532C60.1378 84.1859 60.3876 83.9308 60.6499 83.6888C61.3145 83.0811 62.0346 82.5371 62.8008 82.0639C63.5694 81.5704 64.3636 81.1179 65.1801 80.7085C65.916 80.3278 66.7488 79.9281 67.7267 79.4871C68.8563 78.9784 69.9923 78.5018 71.1952 77.9961L72.7432 77.3413L73.1094 77.1865L73.7547 76.9072C74.0186 76.7934 74.2972 76.6667 74.5879 76.5345C74.927 76.3802 75.2786 76.2135 75.6363 76.0271L75.9021 75.8947C76.1341 75.7804 76.3672 75.6614 76.6117 75.5257C76.8561 75.39 77.0465 75.2891 77.2729 75.1537L77.3354 75.1166C77.6513 74.9346 77.9457 74.7402 78.2442 74.5357L78.5201 74.3485L78.7253 74.2097C79.2705 73.819 79.8072 73.3876 80.3469 72.9169C80.5093 72.7737 80.6734 72.6256 80.8392 72.4724C80.9756 72.3476 81.112 72.2227 81.2488 72.0909C82.0463 71.3022 82.7792 70.4507 83.4404 69.5448C83.5479 69.405 83.6509 69.2483 83.7685 69.0787L83.9195 68.848C84.0675 68.6226 84.2232 68.3839 84.3584 68.1279L84.464 67.9389C84.5727 67.7444 84.6793 67.5505 84.7677 67.3819L85.1516 66.5408C85.2429 66.3434 85.3233 66.1412 85.3924 65.935L85.5336 65.5325C85.6133 65.3245 85.6795 65.1116 85.732 64.8951L85.9551 63.9951C86.004 63.6876 86.0476 63.377 86.0942 63.052C86.1292 62.81 86.1478 62.566 86.1498 62.3215L86.1602 61.9292C86.1734 61.6926 86.1689 61.4553 86.1466 61.2194C86.12 60.9004 86.0908 60.5799 86.0578 60.2626C86.0249 59.9453 85.9313 59.6466 85.8572 59.3109C85.7959 59.0201 85.7154 58.7338 85.6162 58.4537L85.4818 58.0368L85.1347 57.1809C85.091 57.0854 85.0454 56.9912 84.9978 56.8983L84.7255 56.3552C84.6757 56.2622 84.62 56.1729 84.566 56.0809L84.4896 55.9565C83.8389 54.8733 83.0028 53.913 82.0196 53.1194C81.0702 52.3796 80.001 51.8081 78.8584 51.43L78.6907 51.3707C78.5243 51.3157 78.3543 51.2729 78.1837 51.228C78.0132 51.1832 77.7679 51.113 77.5597 51.0714L77.442 51.0463C77.3462 51.0267 77.2519 51.0044 77.1545 50.9875L76.8831 50.9379C76.5591 50.8866 76.2342 50.8491 75.908 50.8233C75.5817 50.7974 75.2175 50.7818 74.8583 50.7852C74.1852 50.7902 73.5134 50.8453 72.8484 50.9501C72.5034 51.0063 72.1564 51.0721 71.8097 51.1559L71.5724 51.2082C69.3594 51.7847 67.3106 52.867 65.5871 54.37L65.4542 54.4826L65.4182 54.5172C65.2922 54.6302 65.1685 54.7517 65.0442 54.8711L64.9847 54.9278L64.864 55.0439C64.7644 55.1453 64.6686 55.2525 64.5678 55.3497L64.5522 55.3675C64.4396 55.4883 64.3253 55.6027 64.2186 55.7286L64.1473 55.8089C63.9136 56.0776 63.7093 56.3294 63.5098 56.5821L63.2727 56.8721L63.2135 56.9469L63.1855 56.9861L62.8661 57.4C62.6361 57.6995 62.4118 57.9951 62.1981 58.2879L61.8644 58.7328L61.7928 58.829L61.5328 59.1772L61.4182 59.3325C60.3298 60.8495 59.1463 62.296 57.8748 63.6631C56.4811 65.0964 55.1711 66.0476 53.882 66.5696C53.1751 66.8636 52.4261 67.0436 51.6629 67.1031C50.8922 67.1674 50.1163 67.119 49.3597 66.9593C47.8761 66.6457 46.6532 65.7754 46.2464 64.7475C46.0182 64.1849 45.9685 63.5657 46.1041 62.9739C46.1835 62.6305 46.298 62.2963 46.446 61.9764C46.6125 61.6357 46.8078 61.3099 47.0298 61.0025C48.1288 59.4919 49.621 58.0797 50.7997 57.0188C51.4604 56.4251 52.131 55.8513 52.8425 55.244C53.6357 54.5785 54.4489 53.8692 55.2522 53.1399C56.0555 52.4106 56.7388 51.7745 57.4445 51.0781C57.7122 50.8094 58.0001 50.5148 58.2926 50.2032L58.3119 50.1822C58.4296 50.0555 58.5469 49.9267 58.6608 49.7943C58.7748 49.6618 58.8791 49.5524 58.9873 49.4237L59.1376 49.2408C59.2541 49.1009 59.3662 48.953 59.4764 48.8148L59.531 48.7481C60.2127 47.8832 60.7739 46.9299 61.1993 45.9141C61.6217 44.8795 61.8702 43.7822 61.9348 42.6665C61.9374 42.5662 61.942 42.4653 61.9467 42.3644C61.959 42.1897 61.9612 42.0145 61.9533 41.8395L61.909 41.0067C61.8895 40.8239 61.8642 40.645 61.8368 40.4666L61.7784 40.0543C61.7574 39.9761 61.7549 39.8907 61.7471 39.8362L61.6555 39.435C61.6294 39.3378 61.6034 39.2406 61.5768 39.1413C61.5427 38.9762 61.499 38.8132 61.446 38.6532L61.1839 37.8696L61.1182 37.7174C60.9415 37.2704 60.7364 36.8352 60.5041 36.4144C60.0017 35.486 59.385 34.6242 58.6685 33.849C57.9735 33.0828 57.2039 32.3877 56.3711 31.7741L56.2921 31.716C55.1117 30.8088 53.8735 29.9794 52.5853 29.233C52.2965 29.0749 52.0476 28.8529 51.8577 28.5838C51.6679 28.3148 51.5421 28.0059 51.49 27.6808C51.2328 25.9855 50.7109 24.6126 49.9441 23.6019C49.2384 22.6587 48.4429 22.3691 47.404 22.0836C47.3205 22.3729 47.1632 22.6356 46.9476 22.8459C46.732 23.0561 46.4654 23.2067 46.174 23.2828C45.4471 23.4775 44.0585 23.417 43.3833 22.6717C43.1954 22.4567 43.0584 22.2021 42.9823 21.9269C42.9062 21.6517 42.893 21.3629 42.9437 21.082L40.6852 20.505C40.3291 20.6298 39.4943 21.6303 39.3993 22.0362L40.7859 24.0924C40.8025 24.1183 40.8173 24.1454 40.8302 24.1734L41.2516 25.1203C41.4828 24.9951 41.7375 24.9194 41.9996 24.8979C42.2617 24.8764 42.5254 24.9096 42.7739 24.9955C43.7252 25.3339 44.3126 26.5965 44.4106 27.3425C44.4911 27.9641 44.2269 28.7278 43.5824 29.0523C44.046 29.5125 44.5839 29.8913 45.1735 30.1727C45.9466 30.5227 46.8017 30.5698 47.7153 30.624C48.7626 30.6785 49.8439 30.733 50.8341 31.2762C53.2593 32.5853 58.9771 36.074 59.6589 40.1738C59.9885 42.1644 59.3807 44.3247 57.9852 46.2499C57.8747 46.4041 57.7563 46.5536 57.6357 46.7037C57.5504 46.808 57.4652 46.9124 57.373 47.0164L57.272 47.1295C57.1287 47.2879 56.9833 47.4469 56.8305 47.6034L56.6067 47.8332L56.5639 47.8763C56.5294 47.9082 56.4998 47.9411 56.4658 47.9751L56.0878 48.3391L55.8344 48.5768C55.7676 48.64 55.6996 48.699 55.6322 48.7601C54.8383 49.4824 54.002 50.173 53.2232 50.8165C52.4445 51.4599 51.6675 52.0509 50.8357 52.6905C50.107 53.2503 49.3479 53.8319 48.5977 54.4383ZM75.9898 64.8966L76.3027 64.5433C76.9261 63.844 77.5231 63.1813 77.8888 62.4334L77.9463 62.3183C78.3666 61.4697 78.458 61.033 77.8883 60.6988C77.8178 60.6465 77.7373 60.6094 77.6517 60.5898C77.5662 60.5702 77.4775 60.5686 77.3913 60.5851C77.1708 60.6724 76.9875 60.8336 76.8726 61.0411C76.3523 61.7784 76.2249 62.8498 76.1186 63.8815C76.0833 64.1808 76.0506 64.4727 76.0086 64.7557C76.0029 64.7935 75.9958 64.8429 75.9898 64.8966ZM76.0194 60.4432C76.9007 59.1766 77.8966 59.4872 78.4176 59.8006C79.9198 60.6821 79.1643 62.2071 78.879 62.7818L78.823 62.8942C78.3794 63.774 77.7222 64.5162 77.0817 65.2359C76.5676 65.7813 76.1001 66.3687 75.6838 66.9919L75.4362 67.758C75.4442 67.9823 75.4501 68.2072 75.4621 68.4463C75.4667 68.4797 75.4682 68.5134 75.4664 68.5471C75.4802 68.8944 75.4962 69.2412 75.5078 69.5891C76.1146 69.1288 76.6913 68.6301 77.2343 68.096C77.79 67.529 78.3015 66.9203 78.7642 66.2752C79.6903 64.9559 80.2433 63.6391 80.3652 62.4628C80.3675 62.4427 80.3712 62.4228 80.3764 62.4032C80.3894 62.3226 80.394 62.2409 80.3903 62.1594C80.3921 62.1068 80.3923 62.057 80.3929 62.0251C80.3934 61.9933 80.3951 61.9068 80.4 61.8488C80.406 61.7805 80.405 61.7117 80.3971 61.6435L80.3857 61.6013C80.3672 61.4477 80.3541 61.2972 80.3446 61.1435L80.2496 60.7296C80.2364 60.6894 80.2255 60.6485 80.2167 60.6071C80.2115 60.5821 80.2048 60.5574 80.1969 60.5331L80.033 60.0313L79.8466 59.5807C79.8358 59.5406 79.8108 59.5065 79.7916 59.4686L79.6351 59.155L79.5746 59.0557C79.5644 59.0177 79.5309 58.9859 79.514 58.9565C78.9258 57.9402 77.9808 57.1788 76.8626 56.8202C76.3393 56.6497 75.7954 56.5502 75.2456 56.5243C75.111 58.6154 75.0892 60.7123 75.1804 62.8058C75.3298 61.9686 75.5369 61.1273 76.0194 60.4432ZM74.2255 56.5372C73.8555 56.5698 73.4882 56.6281 73.1263 56.7117C73.36 58.8048 73.7076 60.8837 74.1676 62.939C74.0729 60.8056 74.0922 58.6686 74.2255 56.5372ZM66.8182 66.9261C66.5976 66.7939 66.3371 66.7449 66.0836 66.7878C65.9727 66.8188 65.8751 66.8855 65.8061 66.9776C65.569 67.2676 65.5672 67.5399 66.2274 68.2711C66.7928 68.8416 67.4097 69.3586 68.0702 69.8155L68.1067 69.842C68.8367 70.3536 69.5262 70.9207 70.1691 71.5382C70.2118 71.5788 70.2641 71.6305 70.3212 71.6831C70.2221 71.4062 70.1161 71.1289 70.0018 70.8629C69.5855 69.7895 68.9589 68.8101 68.1588 67.9823C67.7729 67.5576 67.3183 67.201 66.8139 66.9273L66.8182 66.9261ZM76.9627 111.125C76.5902 109.295 76.9011 107.337 77.501 105.679L77.2797 105.335C77.1958 105.197 77.1003 105.067 76.9941 104.945L76.3469 104.136L75.6595 103.43C75.4534 103.209 75.2324 103.003 74.9981 102.812C74.9216 102.747 74.8452 102.681 74.7935 102.641C74.3485 102.292 73.8756 101.98 73.3797 101.708C73.8965 105.065 75.1176 108.274 76.9627 111.125ZM79.1039 113.344C79.2111 112.612 79.2518 111.873 79.2254 111.135C79.1719 109.673 78.8227 108.237 78.1988 106.914C77.6138 109.041 77.617 111.505 79.0898 113.325C79.0977 113.33 79.1052 113.335 79.1124 113.341L79.1039 113.344ZM83.9065 103.655C84.9896 103.609 86.0692 103.501 87.14 103.332L87.3718 103.292C87.8956 103.217 88.4115 103.095 88.9134 102.927C89.6057 102.662 89.7006 102.374 89.7038 102.124C89.7097 102.07 89.7035 102.016 89.6856 101.965C89.6676 101.914 89.6384 101.868 89.6002 101.83C89.5085 101.742 89.1995 101.544 88.2887 101.593C87.8099 101.622 87.3355 101.701 86.8733 101.829C86.3842 101.963 85.9044 102.129 85.4368 102.325C84.7248 102.618 84.0372 102.968 83.3684 103.303L82.666 103.657L82.4666 103.758C82.7877 103.73 83.112 103.707 83.439 103.685L83.9065 103.655ZM79.4673 92.5812C79.3937 92.4333 79.0069 91.7081 78.5463 91.8315L78.5167 91.8394C78.3378 91.8987 78.2369 91.9869 78.1841 92.2886C78.1516 92.6583 78.1646 93.0305 78.2229 93.397C78.2911 93.9471 78.3889 94.5233 78.4941 95.136C78.5577 95.5085 78.6241 95.8916 78.6853 96.2805C78.8617 97.3342 78.9631 98.3991 78.9888 99.4671C78.991 99.5345 78.9918 99.6135 78.9955 99.7031C79.1111 99.3823 79.2245 99.062 79.3315 98.7344C79.6876 97.6629 80.0805 96.2305 79.9588 94.6688C79.9277 93.9482 79.761 93.2399 79.4673 92.5812ZM80.0382 75.5768C80.3099 75.2875 80.548 74.9684 80.7481 74.6257C80.9348 74.2744 80.9293 74.0426 80.8499 73.8646C80.3399 74.3025 79.8283 74.709 79.3077 75.0818L79.0958 75.2292C78.7606 75.4571 78.4132 75.6906 78.0529 75.9095C77.7964 76.4311 77.58 76.976 77.3708 77.5054C77.269 77.7591 77.1692 78.0123 77.0653 78.2666L77.0001 78.4291C77.2102 78.2414 77.4258 78.0568 77.6407 77.8701L77.7882 77.7446C78.5285 77.1433 79.2225 76.4872 79.8644 75.7819L80.0382 75.5768ZM75.55 79.4155L75.6972 78.9843C75.8525 78.5327 75.9981 78.1042 76.1074 77.853C76.2168 77.6017 76.3012 77.3843 76.4094 77.1289C76.4577 77.005 76.5112 76.8751 76.5617 76.7507C76.4959 76.7841 76.4249 76.8235 76.3628 76.8537C76.1113 76.98 75.8614 77.1036 75.616 77.2192C75.6004 77.9496 75.5798 78.6813 75.5543 79.4143L75.55 79.4155ZM65.0864 89.174C65.3572 88.2495 65.5284 87.2986 65.5969 86.3377L65.6013 86.1599C65.6344 85.0662 65.5308 84.4939 64.8826 84.4071C64.7899 84.3893 64.6947 84.3902 64.6024 84.4097C64.4102 84.4612 64.2049 84.6589 64.1 85.2985C63.9146 86.3899 64.2878 87.6895 64.6317 88.8293C64.7104 89.123 64.8022 89.4064 64.8765 89.6922C64.8884 89.7366 64.902 89.7873 64.9178 89.8465L65.0864 89.174ZM64.7659 93.497C63.4353 90.7623 62.0615 87.9848 60.4758 85.3886C60.3231 85.5744 60.1799 85.7677 60.0467 85.9679C59.3962 86.9801 59.2218 88.0278 59.4883 89.3605C59.5126 89.4513 59.5381 89.5464 59.5636 89.6415C59.5891 89.7366 59.6066 89.8021 59.6259 89.8739L59.6921 90.1212L59.778 90.3404C59.8754 90.5981 59.9992 90.845 60.1475 91.0771C60.4824 91.555 60.9114 91.9595 61.4081 92.2657C62.0703 92.668 62.7755 92.9948 63.5104 93.2401C63.9065 93.3831 64.3226 93.5162 64.7526 93.6501L64.8097 93.6688C64.7978 93.6373 64.7891 93.6047 64.7836 93.5716L64.7659 93.497ZM71.5846 78.9675C70.3896 79.4689 69.2599 79.9437 68.1424 80.4469C67.1808 80.8812 66.3638 81.2722 65.6437 81.6441C64.8567 82.0401 64.0907 82.4766 63.349 82.952C62.5808 83.4271 61.8629 83.9791 61.2065 84.5995C62.0124 85.9167 62.777 87.2745 63.4995 88.6525C63.1744 87.5235 62.8798 86.289 63.0778 85.1262C63.371 83.3469 64.5388 83.3103 65.027 83.3742C66.7224 83.5993 66.6725 85.4245 66.6472 86.1922L66.6416 86.3658C66.5733 87.4033 66.3929 88.4304 66.1036 89.4291C65.852 90.3129 65.6806 91.2176 65.5914 92.1322C65.5931 92.137 65.5945 92.142 65.5954 92.147C65.651 92.4899 65.7109 92.8317 65.7729 93.1729L65.956 93.5518L66.2121 94.0766C66.8038 94.2396 67.408 94.3902 68.0464 94.5498C69.3061 94.8645 70.6074 95.1907 71.9425 95.6346L71.9926 95.6529C72.0025 94.8954 72.0262 94.1387 72.0638 93.3828C71.9586 92.838 71.8311 92.2947 71.6909 91.7547C71.6296 91.6104 71.541 91.4235 71.4231 91.1946C71.2738 90.8995 71.1053 90.6004 70.9729 90.3596C70.9034 90.2355 70.8454 90.1288 70.7966 90.0399C70.4715 89.4562 70.1117 88.8924 69.7192 88.3516L69.5566 88.1166C69.0696 87.4605 68.6698 86.744 68.3672 85.9849C68.212 85.5328 67.7358 84.1612 69.0732 83.4813C69.8099 83.1118 70.5624 83.2747 71.1933 83.9391C71.5936 84.4068 71.9128 84.9383 72.1378 85.5113C72.3169 85.9188 72.4576 86.342 72.558 86.7756C72.7795 84.044 72.9508 81.2601 72.8186 78.4511L71.5846 78.9675ZM71.7038 89.5546C71.7295 89.5997 71.7601 89.6549 71.7919 89.7144C71.7916 89.4427 71.788 89.1674 71.7766 88.8964C71.7641 87.8771 71.5579 86.8695 71.1689 85.9272C70.9914 85.4657 70.7387 85.0368 70.4212 84.6578C70.1091 84.3383 69.8729 84.302 69.6869 84.3518C69.6331 84.3671 69.581 84.3879 69.5315 84.4138C69.1826 84.5911 69.0561 84.8288 69.3372 85.6412C69.6154 86.3109 69.9765 86.943 70.4121 87.5228L70.572 87.7562C70.9863 88.3318 71.365 88.9321 71.7059 89.554L71.7038 89.5546ZM79.8345 49.7145C80.8991 49.1787 81.9187 48.5578 82.8835 47.8581L82.9191 47.8304C83.454 47.4536 83.945 47.0182 84.383 46.5323C84.9751 45.8007 84.7624 45.4885 84.6949 45.3889C84.6274 45.2892 84.5144 45.1292 84.1235 45.234C83.774 45.3491 83.4429 45.5141 83.1405 45.7238C81.6924 46.6667 80.3332 48.2878 79.1414 49.7395L78.7419 50.2179L78.6852 50.2852L78.7519 50.3058C78.9958 50.168 79.2429 50.0338 79.4901 49.8997L79.8345 49.7145ZM66.4174 39.9481C66.3301 39.9723 66.2513 40.0201 66.1894 40.0862C65.9016 40.3898 65.9906 40.6966 66.5903 41.4893C67.1115 42.1181 67.6789 42.7072 68.2877 43.2516L68.4484 43.4033C69.1713 44.0548 69.84 44.764 70.4479 45.524C70.4847 45.5685 70.5259 45.6209 70.5709 45.679C70.4894 45.3747 70.4084 45.0726 70.3164 44.7711C69.9756 43.5702 69.4017 42.4481 68.6275 41.4688C68.252 40.9679 67.7957 40.533 67.2772 40.182C66.8526 39.9243 66.5843 39.9034 66.4174 39.9481ZM65.6339 48.603L65.628 48.5389C65.6347 47.2621 65.5077 46.3993 64.816 46.3536C64.7452 46.3451 64.6734 46.349 64.604 46.3652C64.4053 46.4184 64.1803 46.635 64.0926 47.4488C63.9749 48.5561 64.2713 49.806 64.5606 51.0126C64.6782 51.5019 64.7883 51.9639 64.874 52.4187C64.8887 52.4737 64.9057 52.5371 64.9138 52.6096L65.1342 51.767C65.4312 50.7371 65.599 49.6743 65.6339 48.603ZM61.1275 57.9859C61.4057 57.6124 61.6932 57.2319 61.9871 56.8497C61.6681 56.6661 61.3382 56.5019 60.9993 56.358C60.3748 56.0684 59.7116 55.8708 59.0304 55.7713C58.7961 55.7405 58.5582 55.7506 58.3273 55.8012C58.2334 55.8182 58.1452 55.8582 58.0706 55.9177C57.996 55.9772 57.9374 56.0544 57.9001 56.1422C57.7839 56.4609 57.9318 56.7338 59.0399 57.2522C59.7217 57.5437 60.4228 57.7879 61.1381 57.9831L61.1275 57.9859ZM46.3399 21.7889L43.9885 21.3047C43.9722 21.4235 43.9812 21.5444 44.0147 21.6595C44.0483 21.7746 44.1058 21.8813 44.1833 21.9727C44.5016 22.3154 45.3927 22.4209 45.9294 22.2771C46.0467 22.2522 46.155 22.1956 46.2423 22.1135C46.3297 22.0314 46.393 21.9269 46.4252 21.8114L46.3399 21.7889ZM43.0959 28.1409C43.2027 28.0716 43.2862 27.9717 43.3356 27.8543C43.3849 27.7369 43.3977 27.6073 43.3724 27.4825C43.3016 26.9308 42.8611 26.1407 42.4228 25.9841C42.3023 25.9475 42.1753 25.9374 42.0505 25.9544C41.9257 25.9715 41.806 26.0152 41.6997 26.0828L42.0978 26.9771C42.3174 27.4412 42.5868 27.8801 42.9014 28.2859C42.9539 28.2228 43.0205 28.1732 43.0959 28.1409ZM56.6479 45.8994L55.7132 43.9577C55.5919 43.6822 55.4596 43.3576 55.3411 43.0338L55.0168 42.1106C54.9382 41.8775 54.8363 41.6529 54.7126 41.4403C54.6105 41.263 54.4579 41.1201 54.2743 41.03C54.1833 40.9865 54.1382 40.9872 54.115 40.9934L54.096 40.9985C53.9953 41.0597 53.9167 41.1513 53.8717 41.2602C53.6693 41.745 53.6115 42.278 53.7054 42.7949C53.8626 43.8715 54.4295 44.9901 55.3941 46.1221C55.6161 46.3842 55.8485 46.6345 56.0855 46.8767C56.2628 46.6933 56.4396 46.5078 56.5941 46.3238C56.6513 46.2586 56.7059 46.1919 56.7669 46.1235C56.7227 46.0515 56.6875 45.9794 56.6479 45.8994ZM63.3161 54.7861C62.8802 54.2665 62.4124 53.7713 61.9245 53.286C61.9073 53.2725 61.8886 53.2617 61.8708 53.2461C61.4496 52.8404 61.0231 52.4405 60.5967 52.0407C60.1265 51.63 59.636 51.236 59.1439 50.8447C58.815 51.1978 58.4916 51.5291 58.1894 51.8297C57.4739 52.54 56.7867 53.1703 55.9668 53.9222C55.1469 54.6741 54.3271 55.3671 53.5315 56.049C52.8258 56.6526 52.1589 57.223 51.5107 57.8044C50.3707 58.8323 48.9286 60.1947 47.8861 61.629C47.7022 61.8855 47.5393 62.1564 47.3989 62.439C47.2864 62.6796 47.1982 62.9308 47.1356 63.189C47.0432 63.5764 47.073 63.9829 47.2209 64.3528C47.4992 65.0618 48.4513 65.699 49.5818 65.9373C50.2372 66.0755 50.9093 66.1182 51.5769 66.064C52.2356 66.0136 52.8821 65.8587 53.4922 65.6051C54.6527 65.1356 55.8494 64.2602 57.1362 62.9348C58.3361 61.6515 59.4532 60.2932 60.4807 58.8681C59.8496 58.683 59.2309 58.4577 58.6286 58.1935C57.9168 57.8611 56.4337 57.1692 56.9478 55.7745C57.12 55.3185 57.6333 54.5718 59.1588 54.7292C59.9415 54.8409 60.7038 55.0662 61.4215 55.3979C61.8427 55.5764 62.2515 55.7831 62.6449 56.0167C62.8938 55.7032 63.1438 55.3939 63.4473 55.0476L63.4948 54.9964C63.4304 54.9253 63.3751 54.854 63.3161 54.7861ZM74.5591 77.6949C74.3005 77.8117 74.0529 77.9188 73.8217 78.0193C74.0326 81.5704 73.7427 85.0609 73.4486 88.4597C73.3743 89.3402 73.2996 90.2276 73.2334 91.1217C74.1011 86.7449 74.4704 82.2321 74.5591 77.6949ZM63.4704 101.965C63.375 102.353 63.4672 102.596 64.2437 102.924C64.9134 103.166 65.611 103.321 66.3199 103.387L66.6272 103.427C67.3151 103.498 67.9979 103.611 68.6721 103.765L68.8505 103.805C68.6502 103.632 68.4439 103.445 68.2367 103.272C67.4831 102.606 66.6099 102.089 65.6635 101.749C65.2037 101.573 64.718 101.473 64.2259 101.455C64.1219 101.457 64.0185 101.471 63.9178 101.497C63.805 101.521 63.7022 101.579 63.6225 101.663C63.5428 101.746 63.4898 101.851 63.4704 101.965ZM73.5468 106.533C72.9237 104.793 72.4931 102.99 72.2624 101.156C71.6656 100.909 71.0527 100.702 70.4278 100.538C70.0855 100.444 69.7339 100.357 69.3785 100.273C70.5803 102.479 71.9752 104.573 73.5468 106.533ZM52.416 77.3006C51.5557 77.7327 51.4921 77.9603 51.4878 77.9864C51.4489 78.1961 51.6299 78.5168 51.9664 78.8682C52.5317 79.4482 53.3842 79.8154 54.2063 80.1704C54.3591 80.2336 54.5083 80.3001 54.6569 80.3644C54.9332 80.486 55.2174 80.5892 55.5073 80.6733C55.0864 80.3 54.6953 79.8945 54.3376 79.4603C54.0057 79.0669 53.5729 78.1615 53.1911 77.2945C52.9381 77.2176 52.6677 77.2198 52.416 77.3006ZM54.2638 75.8294C54.1433 75.8698 54.03 75.9292 53.9282 76.0054C53.895 76.0276 53.8705 76.0606 53.8588 76.0988C53.8472 76.137 53.8491 76.1781 53.8644 76.215C54.4107 77.5271 54.8864 78.4912 55.1377 78.7952C55.5928 79.3571 56.1137 79.8623 56.6891 80.3C56.8383 80.1468 56.9917 79.9924 57.1515 79.8364C57.3112 79.6804 57.4372 79.5673 57.5851 79.4349C57.2716 78.8157 56.888 78.2346 56.4417 77.703C56.0354 77.2049 55.5782 76.7506 55.0775 76.3474C55.0092 76.2955 54.9413 76.2367 54.8729 76.1758C54.6592 75.9952 54.4618 75.833 54.2852 75.8079L54.2638 75.8294ZM57.1087 74.6142C56.8271 74.2141 56.543 73.9822 56.3297 73.9805C56.3065 73.9867 56.0673 73.9987 55.4849 74.7662C55.3887 74.9099 55.3431 75.0815 55.3551 75.2539C55.424 75.308 55.4886 75.3631 55.5499 75.4146C55.6113 75.4661 55.6673 75.5145 55.7248 75.5602C56.2831 76.0085 56.7927 76.5141 57.2455 77.0687C57.6096 77.506 57.9388 77.9714 58.2299 78.4604C58.201 78.1521 58.1515 77.8461 58.0818 77.5444L57.9746 77.0681C57.776 76.1747 57.5718 75.2692 57.1074 74.601L57.1087 74.6142ZM73.3371 70.9452C73.7511 70.7324 74.1285 70.518 74.4934 70.2912C74.4758 69.7184 74.454 69.1467 74.4316 68.573C73.4956 64.8176 72.5364 60.9506 72.1058 57.0191C71.0403 57.3978 70.0552 57.9729 69.2015 58.7145C68.9347 58.9467 68.683 59.1957 68.4479 59.4599C68.3468 59.5731 68.2344 59.7028 68.1189 59.838C70.1861 63.4053 71.7432 67.2448 72.7446 71.2444L73.3371 70.9452ZM38.551 36.9657C38.3774 36.849 38.1812 36.7704 37.9751 36.735C37.7029 36.7293 37.4346 36.8012 37.2017 36.9423C36.9819 37.06 36.5765 37.2796 36.4975 37.4752C36.4215 37.7059 36.3784 37.9461 36.3695 38.1889C36.3582 38.6368 36.2433 39.0761 36.0339 39.4723C35.9143 39.6689 35.7846 39.8594 35.6456 40.0429C35.365 40.3988 35.145 40.6933 35.0981 41.0931C35.038 41.5318 35.0473 41.9771 35.1256 42.4129C35.2185 42.7594 35.4426 42.8941 36.1206 43.0159C36.5395 43.0916 39.4886 43.119 44.8889 43.0987C43.7642 42.6369 41.199 41.7095 40.1972 41.5205C40.0614 41.4947 39.9415 41.416 39.8637 41.3018C39.786 41.1876 39.7568 41.0471 39.7826 40.9114C39.8084 40.7757 39.887 40.6557 40.0013 40.578C40.1155 40.5002 40.2559 40.471 40.3917 40.4968C41.4169 40.6886 43.9077 41.5748 45.1868 42.0972L44.5527 41.3114C43.8523 40.5997 43.1145 39.9258 42.3427 39.2924L42.0219 39.025C41.2216 38.354 40.3949 37.6606 39.4487 37.3412L39.2801 37.2867C39.0229 37.2153 38.7774 37.1072 38.551 36.9657ZM43.1353 35.058C42.7255 34.1034 41.4954 33.0878 40.651 33.2325C40.6026 33.3348 40.5604 33.4398 40.5247 33.5472C40.4584 33.8157 40.3113 34.0575 40.1033 34.2398C39.6497 34.5584 39.4134 34.8935 39.4027 35.2338C39.3868 35.7408 39.8421 36.2484 40.0732 36.4514C41.0713 36.8634 41.8936 37.5489 42.689 38.2099L43.0068 38.4917C43.3706 38.7928 43.7104 39.089 44.0385 39.3838C43.2671 38.3222 42.4043 37.249 41.7241 36.4597C41.6497 36.3542 41.6171 36.2249 41.6327 36.0967C41.6483 35.9686 41.711 35.8508 41.8085 35.7662C41.9061 35.6817 42.0316 35.6364 42.1606 35.6391C42.2897 35.6419 42.4131 35.6925 42.507 35.7812C42.7007 36.0055 43.556 37.0083 44.4721 38.2213C44.0963 37.3006 43.651 36.2559 43.1381 35.0685L43.1353 35.058ZM38.4166 47.1474C39.9782 46.4505 41.2868 45.8575 42.3704 45.3543C41.045 45.6482 39.6651 45.8821 38.6742 45.8691C38.5361 45.867 38.4045 45.8102 38.3083 45.7111C38.2121 45.612 38.1592 45.4788 38.1612 45.3407C38.1633 45.2026 38.2201 45.071 38.3192 44.9748C38.4183 44.8786 38.5515 44.8257 38.6896 44.8277C39.7941 44.8421 41.497 44.5035 42.9992 44.1259C40.1997 44.1332 38.3079 44.1215 37.1768 44.1008C37.1395 44.1062 37.1018 44.1072 37.0643 44.1037C36.8204 44.0808 36.1171 44.1016 35.787 44.4754C35.5662 44.7248 35.5105 45.1338 35.6381 45.6861C35.6681 45.962 35.6121 46.2403 35.478 46.4832C35.4313 46.5861 35.3916 46.6921 35.3592 46.8004C35.8802 47.4941 37.4709 47.582 38.4194 47.158L38.4166 47.1474Z" fill="#C6C8CC"/>
<path d="M49.3649 69.8271C49.289 70.1101 48.5891 70.1686 47.8034 69.9579C47.0177 69.7472 46.4395 69.3473 46.5154 69.0642C46.5913 68.7812 47.2913 68.7227 48.0769 68.9334C48.8626 69.1441 49.4429 69.5435 49.3649 69.8271Z" fill="#C6C8CC"/>
<path d="M81.9638 55.6074C82.1937 55.4258 82.791 55.7956 83.2974 56.4345C83.8037 57.0733 84.025 57.7387 83.7952 57.9203C83.5653 58.1019 82.9679 57.7321 82.4637 57.0927C81.9595 56.4533 81.7339 55.789 81.9638 55.6074Z" fill="#C6C8CC"/>
<path d="M76.855 52.6755C76.8753 52.646 76.9014 52.6209 76.9318 52.6019C76.9621 52.5829 76.996 52.5702 77.0314 52.5648C77.0904 52.5497 77.1512 52.5433 77.212 52.5458C77.6337 52.5883 78.0399 52.7275 78.399 52.9525C79.1042 53.3614 79.5578 53.8966 79.4109 54.1511C79.2639 54.4057 78.5736 54.2804 77.869 53.8736C77.3037 53.5472 76.9047 53.14 76.8432 52.8598C76.8382 52.8453 76.8342 52.8305 76.8313 52.8154C76.8251 52.7675 76.8333 52.7187 76.855 52.6755Z" fill="#C6C8CC"/>
<path d="M83.1801 60.5355C83.4709 60.5051 83.7797 61.1335 83.868 61.9364C83.9564 62.7394 83.7944 63.4282 83.5042 63.4607C83.214 63.4931 82.9025 62.8632 82.8142 62.0603C82.7259 61.2574 82.892 60.5674 83.1801 60.5355Z" fill="#C6C8CC"/>
<path d="M56.8521 91.6339C56.5735 91.7266 56.1397 91.1725 55.8853 90.4005C55.6309 89.6285 55.6482 88.9241 55.9184 88.8336C56.1885 88.7431 56.6287 89.2955 56.8858 90.069C57.1429 90.8426 57.1308 91.5411 56.8521 91.6339Z" fill="#C6C8CC"/>
<path d="M56.4854 86.4872C56.2238 86.3558 56.3044 85.6593 56.6683 84.93C57.0323 84.2006 57.5382 83.714 57.7999 83.8454C58.0616 83.9769 57.981 84.6733 57.6171 85.4027C57.2531 86.1321 56.7466 86.6166 56.4854 86.4872Z" fill="#C6C8CC"/>
<path d="M59.9101 94.0622C60.5448 94.5715 60.913 95.1681 60.7217 95.4005C60.5303 95.633 59.8748 95.401 59.238 94.8922C58.6012 94.3835 58.2324 93.7848 58.4159 93.5567C58.5994 93.3286 59.2733 93.5534 59.9101 94.0622Z" fill="#C6C8CC"/>
<path d="M48.9105 27.106C48.2908 26.5767 47.9421 25.9682 48.1315 25.7453C48.3209 25.5224 48.9803 25.7692 49.6 26.2984C50.2196 26.8277 50.5678 27.4341 50.379 27.6591C50.1902 27.8841 49.5301 27.6352 48.9105 27.106Z" fill="#C6C8CC"/>
<path d="M45.5855 25.9633C44.9284 25.4803 44.5371 24.899 44.7115 24.662C44.8858 24.4251 45.5577 24.6255 46.2142 25.1064C46.8707 25.5872 47.261 26.1733 47.0889 26.4097C46.9167 26.6461 46.2426 26.4462 45.5855 25.9633Z" fill="#C6C8CC"/>
<path d="M47.3797 29.287C46.7585 28.7605 46.4113 28.1492 46.6007 27.9264C46.7901 27.7035 47.4474 27.9509 48.0671 28.4801C48.6867 29.0093 49.0376 29.6173 48.8461 29.8408C48.6546 30.0642 47.9993 29.8163 47.3797 29.287Z" fill="#C6C8CC"/>
<path d="M52.9882 68.1951C53.7949 68.0786 54.4823 68.2183 54.5237 68.5084C54.5652 68.7985 53.9473 69.1294 53.1364 69.247C52.69 69.3402 52.2266 69.3076 51.7977 69.1528C51.7507 69.1359 51.7085 69.1079 51.6746 69.0713C51.6408 69.0346 51.6162 68.9904 51.6031 68.9422C51.6004 68.937 51.5988 68.9312 51.5986 68.9253C51.5914 68.6283 52.1989 68.3092 52.9882 68.1951Z" fill="#C6C8CC"/>
</g>
<defs>
<clipPath id="clip0">
<rect width="112" height="112" fill="white" transform="matrix(-0.965926 0.258819 0.258819 0.965926 109.012 0)"/>
</clipPath>
</defs>
</svg>
