<svg width="95" height="138" viewBox="0 0 95 138" fill="none" xmlns="http://www.w3.org/2000/svg">
<g clip-path="url(#clip0)">
<path d="M39.7777 79.104L39.7743 79.0913L39.7703 79.0765C39.772 79.0655 39.7752 79.0547 39.7798 79.0445C39.7753 79.0276 39.7904 79.0077 39.7949 78.9907C40.1468 77.5489 42.6446 77.3031 44.7022 77.3587L44.9921 77.3671C43.523 76.3762 42.1321 75.274 40.8317 74.0703C39.8341 73.1541 38.8887 72.1825 38.0002 71.1602C36.5258 69.4106 36.1114 68.3372 36.6302 67.6955L36.64 67.6815L36.6527 67.6781L36.6662 67.6609L36.697 67.6323L36.7205 67.6101C37.5469 66.7976 39.2116 67.2212 42.2622 69.0218C43.2259 69.5924 44.2119 70.2295 45.0905 70.8207L44.2876 67.8246C42.4081 65.4926 40.6853 63.0384 39.1306 60.4784C34.8258 53.2956 35.2394 52.2359 35.9589 51.794C36.6038 51.3947 37.737 51.4149 40.7531 54.6333L37.7524 43.4346C37.7408 43.394 37.7357 43.3519 37.737 43.3097C37.7368 43.2958 37.7376 43.282 37.7395 43.2682C37.7371 43.2606 37.735 43.2528 37.7333 43.245C37.7403 43.19 37.7566 43.1366 37.7816 43.0871L51.8803 16.6627C51.907 16.6145 51.9412 16.571 51.9816 16.5336L51.9964 16.5297C52.0375 16.4944 52.0845 16.4665 52.1351 16.4472C52.1832 16.4253 52.2346 16.4116 52.2872 16.4065L52.3126 16.3997L52.3316 16.3946C52.3784 16.3963 52.4248 16.4045 52.4694 16.4188L52.48 16.4159L66.6162 21.2679C66.6253 21.2702 66.634 21.274 66.6419 21.2791L66.6911 21.3022L66.7114 21.3103L77.701 27.8659C77.2206 26.0866 77.0067 24.2459 77.0663 22.4038L77.0713 22.262C77.0981 21.5071 77.1694 20.7545 77.2849 20.008C77.4432 19.1028 77.7496 17.8884 78.7163 17.6927C79.9025 17.4542 80.9577 18.451 81.714 20.513C82.1615 21.8237 82.4499 23.1835 82.5728 24.5631C82.6593 25.5436 82.6842 26.5285 82.6473 27.5121C82.66 27.485 82.6741 27.4585 82.6895 27.4329C83.1255 26.6442 83.6305 25.8958 84.1986 25.1964C85.4432 23.7305 86.2908 23.7073 86.7958 23.9524C88.1025 24.6033 87.9706 26.4436 87.7024 27.9784C87.439 29.3344 87.0761 30.6693 86.6166 31.9721C86.0968 33.417 85.5003 34.8333 84.8297 36.2147L84.8592 36.3246L84.9619 36.2178L85.0318 36.1492C85.5529 35.6176 86.1093 35.122 86.6975 34.6657C87.1056 34.3548 88.3499 33.4122 89.2901 34.005C90.2963 34.6413 90.4212 36.0458 89.65 37.985C89.2689 38.9041 88.7973 39.783 88.2423 40.6087C89.0353 40.4325 89.7509 40.483 90.1948 41.0073C90.3629 41.2066 90.4876 41.4387 90.5608 41.6889C90.6341 41.9391 90.6544 42.2019 90.6204 42.4604C90.4542 44.063 88.6337 45.8983 87.6594 46.7753L99.2658 90.091C99.2758 90.128 99.2815 90.166 99.2826 90.2043C99.2826 90.2043 99.2883 90.2254 99.2905 90.2339C99.2895 90.2621 99.2864 90.2902 99.2813 90.3179C99.2824 90.3229 99.2837 90.3278 99.2853 90.3327L95.106 109.033C95.0828 109.136 95.0289 109.229 94.9514 109.301L81.8677 121.596L81.8466 121.602C81.8339 121.614 81.8203 121.625 81.8058 121.635L81.7889 121.64L81.7642 121.658C81.7276 121.678 81.6884 121.694 81.6477 121.705C81.6012 121.718 81.5529 121.723 81.5047 121.72C81.4895 121.719 81.4744 121.716 81.4595 121.712C81.4324 121.71 81.4055 121.706 81.3792 121.7L81.3686 121.703L64.6147 115.804C64.5172 115.769 64.4324 115.706 64.3713 115.622L52.9987 100.022C52.9651 99.9761 52.9399 99.9246 52.924 99.87C52.924 99.87 52.924 99.87 52.9206 99.8573L48.4705 83.2494C47.468 83.0153 46.4968 82.7546 45.5756 82.4693L45.3451 82.3951C44.6805 82.1882 43.4472 81.8031 42.3465 81.3461C41.0252 80.8102 39.7036 80.1293 39.8266 79.1429L39.7777 79.104ZM45.8486 81.4767C46.5884 81.7019 47.3476 81.9152 48.1362 82.1115C48.5078 82.2022 48.8837 82.2895 49.2639 82.3733C49.5382 82.4334 49.8125 82.4935 50.0926 82.5498C51.4849 82.8357 52.9692 83.0925 54.5063 83.3102C55.9591 83.5256 57.4374 83.7183 58.9052 83.8799L59.2699 83.9226C56.6005 82.9077 53.8621 82.0847 51.0755 81.4598C50.3633 81.2951 49.6316 81.1424 48.8937 80.9914C48.5266 80.9176 48.1551 80.8466 47.779 80.7783C45.8361 80.4156 43.7698 80.0996 41.4861 79.817C41.8738 80.0332 42.2757 80.2228 42.689 80.3847C43.7597 80.8225 44.9663 81.2013 45.6183 81.4116L45.8486 81.4767ZM81.328 120.047L89.4132 93.1795L67.3628 99.9348L81.328 120.047ZM89.4226 41.6581C89.3701 41.5974 89.1303 41.4125 88.3189 41.6299C87.9202 41.7433 87.5312 41.8884 87.1557 42.0639C86.9711 42.2878 86.7805 42.5064 86.5831 42.7246C86.3174 43.0177 86.0417 43.3045 85.756 43.5849C84.5664 44.7628 83.2385 45.7923 81.8014 46.651C81.3593 47.2949 80.9624 47.9687 80.6138 48.6677C81.186 48.0607 81.8281 47.5237 82.5269 47.0681C83.3705 46.337 84.2459 45.5725 85.1253 44.7979C85.2269 44.7085 85.3598 44.6631 85.4949 44.6717C85.6299 44.6804 85.756 44.7423 85.8454 44.8439C85.9348 44.9454 85.9801 45.0784 85.9715 45.2134C85.9629 45.3484 85.901 45.4745 85.7994 45.5639L85.6147 45.7198C85.8465 45.685 86.0819 45.6821 86.3144 45.7112C86.5662 45.7386 86.8067 45.8301 87.013 45.977C87.1243 45.877 87.2403 45.7689 87.3578 45.6581C88.3501 44.7128 89.4987 43.3452 89.5992 42.3513C89.6211 42.2298 89.6167 42.1051 89.5862 41.9855C89.5557 41.8659 89.4999 41.7542 89.4226 41.6581ZM88.756 34.8683C88.7019 34.8449 88.6437 34.8323 88.5848 34.8314C88.5259 34.8305 88.4673 34.8412 88.4126 34.8629C88.0145 35.001 87.6447 35.2098 87.3208 35.4793C86.7705 35.9101 86.2486 36.376 85.7583 36.8741L85.6883 36.9426C85.5087 37.1176 85.3462 37.297 85.1784 37.4823C84.9066 37.7862 84.6405 38.1089 84.3802 38.4504C83.6371 39.4501 82.9906 40.5181 82.4494 41.64C81.9789 42.6081 81.5689 43.6044 81.2218 44.6232C82.4778 43.1407 83.6749 41.5993 84.8009 40.0203C84.9341 39.8329 85.0727 39.6485 85.2032 39.4596C85.2819 39.3501 85.4002 39.2755 85.5329 39.2518C85.6657 39.2281 85.8025 39.257 85.9142 39.3325C86.0251 39.4101 86.1008 39.5285 86.1246 39.6617C86.1484 39.795 86.1185 39.9322 86.0413 40.0435C85.9989 40.1047 85.9552 40.1617 85.9122 40.2208C85.6598 40.5805 85.4015 40.9351 85.1412 41.2902C84.7869 41.7769 84.4241 42.2568 84.0544 42.7364C83.362 43.6345 82.6484 44.5157 81.9137 45.3799C82.0607 45.2861 82.2056 45.1929 82.353 45.0923C83.4724 44.3183 84.5107 43.4331 85.452 42.4502C85.4969 42.4065 85.5391 42.3612 85.5813 42.3159C85.8175 42.0647 86.0477 41.8082 86.2672 41.5456C86.3499 41.4487 86.4267 41.3466 86.5085 41.2545C86.626 41.1097 86.7477 40.9639 86.8588 40.8209C87.6104 39.8316 88.234 38.7514 88.715 37.6059C89.2594 36.2145 89.2777 35.1927 88.756 34.8683ZM86.3528 24.8683C86.3001 24.849 86.2423 24.8492 86.1899 24.8689C85.9553 24.9318 85.5349 25.2052 84.9887 25.8543C84.4619 26.5058 83.993 27.2021 83.5873 27.9351C83.0995 28.8056 82.706 29.7256 82.4135 30.6796C82.3491 30.8871 82.2885 31.1004 82.2321 31.3125L82.1538 31.7049L82.1105 31.9067C82.0469 32.1933 81.9821 32.4756 81.9093 32.7533C81.885 32.8821 81.8633 33.0124 81.8422 33.1449C81.7845 33.5046 81.7328 33.8695 81.6945 34.2421C81.576 35.4504 81.5609 36.6667 81.6496 37.8776C81.8084 37.287 81.9636 36.717 82.1153 36.1675C82.41 35.1034 82.6974 34.1138 82.9713 33.1753L83.2743 32.1678L83.5163 31.3806L83.6925 30.8125C83.7391 30.6907 83.8304 30.5912 83.9479 30.5345C84.0654 30.4777 84.2 30.468 84.3245 30.5072C84.4489 30.5464 84.5536 30.6317 84.6173 30.7455C84.681 30.8594 84.6988 30.9932 84.6671 31.1198C84.455 31.7903 84.2453 32.4784 84.0328 33.1898C83.8515 33.7977 83.6693 34.4195 83.4808 35.0769C83.2044 36.0569 82.9162 37.0943 82.612 38.2153C83.004 37.5486 83.3869 36.8391 83.7543 36.0975C83.9846 35.6327 84.2099 35.1579 84.4302 34.6731C84.8763 33.6839 85.292 32.6576 85.6673 31.624C86.1081 30.3753 86.4563 29.0959 86.7092 27.7961C86.9982 26.1108 86.8808 25.1231 86.3528 24.8683ZM80.751 20.8661C80.336 19.7227 79.6355 18.5539 78.9137 18.6997L78.9031 18.7026C78.8038 18.7292 78.5083 18.9193 78.2881 20.1854C78.18 20.8909 78.1135 21.6021 78.0889 22.3155L78.0817 22.4578C78.0272 24.4731 78.3058 26.4835 78.9061 28.4081C78.9265 28.4842 78.9469 28.5602 78.9784 28.6356C79.1333 29.1376 79.3057 29.6372 79.4944 30.1302C79.6831 30.6231 79.8768 31.1011 80.0917 31.5735C80.0662 31.1908 80.0391 30.8108 80.0137 30.4371C79.9795 30.0138 79.947 29.5967 79.9057 29.1888C79.7714 27.6395 79.615 26.1686 79.4333 24.7634C79.4247 24.697 79.4293 24.6296 79.4467 24.5649C79.4642 24.5003 79.4943 24.4397 79.5352 24.3867C79.5761 24.3337 79.627 24.2893 79.6851 24.2559C79.7432 24.2226 79.8072 24.201 79.8736 24.1925C79.9088 24.1876 79.9445 24.1871 79.9797 24.1912C80.0962 24.2001 80.206 24.2489 80.2907 24.3293C80.3754 24.4098 80.4297 24.517 80.4446 24.6329C80.6573 26.2721 80.8375 27.9925 80.9868 29.8344C81.0191 30.2425 81.0516 30.6595 81.0826 31.0793C81.0942 31.2324 81.1042 31.3882 81.1137 31.542C81.1194 31.5631 81.1245 31.5821 81.1301 31.6032C81.1611 31.4568 81.1926 31.3125 81.2215 31.1666C81.2892 30.811 81.3517 30.4523 81.4028 30.0853C81.5325 29.1742 81.611 28.2564 81.6378 27.3365C81.6697 26.4458 81.6477 25.5539 81.5722 24.6659C81.4523 23.3694 81.1777 22.0919 80.7541 20.8608L80.751 20.8661ZM66.104 22.1706L52.8396 17.572L51.9922 42.6809L72.5344 37.1766C72.5369 37.1012 72.5372 37.0264 72.5391 36.9489C72.5708 36.1206 72.7064 35.038 73.3336 34.5642L66.104 22.1706ZM43.6148 65.2714C44.1359 65.9652 44.6671 66.663 45.23 67.3524C47.1264 69.7101 49.1459 71.9659 51.2803 74.1105C51.785 74.6161 52.2927 75.1165 52.8124 75.6023L44.379 64.1426L42.7084 61.8885L40.1322 58.3847L36.8669 53.9489C37.2644 54.9929 38.1345 56.8115 40.0153 59.9514C41.1242 61.7846 42.3256 63.5602 43.6148 65.2714ZM38.2354 68.2686C40.8069 70.2587 43.3865 72.1696 45.9452 73.9683C46.3801 74.273 46.8118 74.574 47.245 74.8724L47.6515 75.1553C49.6329 76.5154 51.557 77.7798 53.456 78.9763C53.8759 79.1151 54.2918 79.2641 54.7061 79.4158C52.372 77.4663 49.7747 75.422 47.1157 73.4599L46.8127 73.2422C46.4733 72.998 46.028 72.6802 45.5084 72.3212C44.4432 71.583 43.078 70.6715 41.7536 69.8873C39.917 68.8054 38.8536 68.3951 38.2375 68.2681L38.2354 68.2686ZM41.3219 78.7649C43.5461 79.0363 45.5759 79.3349 47.475 79.6776C47.8507 79.7445 48.2207 79.8152 48.5885 79.8865C48.9564 79.9577 49.3371 80.0346 49.7066 80.1123C50.2418 80.2248 50.7728 80.3384 51.2943 80.4591C51.5473 80.5159 51.7924 80.577 52.0417 80.637C53.4025 80.9654 54.7056 81.3213 55.9513 81.7047C56.869 81.9857 57.761 82.2834 58.6274 82.5978C58.8932 82.6941 59.1612 82.7899 59.4234 82.8895C59.5163 82.9235 59.6061 82.9628 59.6996 82.999C59.5446 82.9023 59.3896 82.8057 59.2304 82.7102C59.0712 82.6147 58.8537 82.4873 58.6613 82.3781C58.2237 82.1307 57.7729 81.8937 57.3127 81.6637L56.9681 81.4934C55.6841 80.8745 54.3604 80.3417 53.0056 79.8986C52.1167 79.6069 51.2092 79.3473 50.3083 79.129C50.1676 79.0942 49.9961 79.0541 49.799 79.0118C49.39 78.9221 48.8667 78.82 48.275 78.7249L48.1543 78.7052C47.8419 78.6552 47.5148 78.6093 47.1745 78.5646L46.8305 78.5232C46.1298 78.4437 45.4008 78.3854 44.6825 78.3672C43.7051 78.3151 42.7252 78.3978 41.7704 78.6131C41.6188 78.6558 41.4704 78.7092 41.3263 78.7728L41.3219 78.7649ZM41.1682 52.185C47.3657 54.9201 56.7603 56.0806 69.0987 55.6348C69.2637 55.0335 69.5745 54.5199 70.1451 54.3082C70.3225 54.244 70.5083 54.2057 70.6966 54.1943C70.674 54.1098 70.6519 54.0274 70.6187 53.9457C67.0347 54.093 62.9527 54.1315 58.8103 53.9189L58.6494 53.9099C52.2721 53.5805 45.7651 52.6313 40.7323 50.558L41.1682 52.185ZM46.8111 55.1321L46.7878 55.1383L45.7857 55.3706C44.6335 55.6431 43.2144 55.9758 42.2227 56.1373L42.2754 56.3338C42.5693 56.6786 42.8613 57.0329 43.1538 57.3893C45.5622 57.008 47.9427 56.467 50.2793 55.7699C49.0942 55.5787 47.9613 55.3538 46.8805 55.0954C46.8584 55.1095 46.8352 55.1217 46.8111 55.1321ZM86.573 47.0143C86.5457 46.9574 86.513 46.9032 86.4753 46.8525C86.4297 46.8079 86.3755 46.7731 86.316 46.7501C86.2565 46.7271 86.193 46.7165 86.1292 46.7188C85.879 46.7092 85.6289 46.741 85.389 46.813C85.2728 46.8441 85.1481 46.8775 85.0232 46.9268C84.3794 47.1742 83.7628 47.4874 83.1833 47.8614L83.1545 47.8805C82.4021 48.3621 81.7201 48.9457 81.128 49.6147L81.0561 49.6929C80.8546 49.9212 80.6613 50.1633 80.4744 50.4126C80.2876 50.662 80.1447 50.8724 79.9838 51.117C79.9015 51.241 79.8252 51.3702 79.7446 51.5005C79.4864 51.9278 79.2515 52.3687 79.0409 52.8213C78.7773 53.3946 78.5518 53.9846 78.3659 54.5875C78.6615 54.2425 78.9539 53.9053 79.243 53.5757L80.0548 52.6584C80.8013 51.8212 81.5434 51.0185 82.2811 50.2501L82.3781 50.1471C82.4325 50.09 82.4995 50.0464 82.5738 50.0198C82.6481 49.9932 82.7275 49.9844 82.8059 49.994C82.9002 50.0046 82.9898 50.0414 83.0644 50.1001C83.139 50.1589 83.1957 50.2374 83.228 50.3266C83.2604 50.4159 83.2673 50.5124 83.2477 50.6054C83.2282 50.6983 83.1831 50.7839 83.1174 50.8526C82.2107 51.8044 81.3005 52.8024 80.3747 53.8522L79.8541 54.4446C80.0444 54.3098 80.237 54.1835 80.4313 54.0635C80.6987 53.9035 80.9705 53.7514 81.2452 53.6189C81.4195 53.5337 81.6896 53.4093 82.009 53.2829C82.6342 52.7848 83.243 52.2593 83.8179 51.7089C84.5809 50.9689 85.2739 50.1601 85.8881 49.2927C86.4078 48.5193 86.6122 47.9889 86.6557 47.6104C86.6906 47.4079 86.6617 47.1996 86.573 47.0143ZM70.3502 52.9352C70.2658 52.6203 70.2099 52.2934 70.1666 51.9879C70.0433 51.2316 69.9747 50.4674 69.9615 49.7012C69.9507 49.2425 70.0025 48.7845 70.1153 48.3397C70.1647 48.1101 70.2655 47.8948 70.4101 47.7098C70.5547 47.5247 70.7392 47.3748 70.95 47.2713C71.3229 47.1064 71.7429 47.0824 72.1322 47.2037C72.0506 46.7726 71.9826 46.3243 71.9379 45.8788C70.4846 47.1741 66.8936 50.0929 60.9128 52.9841C64.2167 53.093 67.4411 53.0488 70.3502 52.9352ZM72.6357 77.8954C72.685 77.8595 72.8772 77.7061 73.1439 77.4761C73.4106 77.2461 73.7314 76.9473 74.0647 76.6021C74.2785 76.3772 74.4925 76.1364 74.6899 75.8843C75.8337 74.4228 75.4403 73.842 75.3124 73.6521C75.1519 73.4165 74.6435 73.3784 73.9445 73.5249L73.7332 73.5815C73.2059 73.7309 72.6931 73.9274 72.2011 74.1687C71.4852 74.5134 70.8239 74.9615 70.2384 75.4986C69.9414 75.7676 69.6604 76.0539 69.3969 76.3559C69.3329 76.4296 69.2669 76.513 69.2019 76.5916C69.0314 76.8003 68.8525 77.0203 68.6792 77.2525C68.4798 77.5143 68.2845 77.7908 68.0865 78.0748L67.838 78.4404L67.7138 78.6276C67.5979 78.8036 67.481 78.9844 67.3685 79.1731L67.1772 79.4735C67.3437 79.3677 67.5095 79.2599 67.6721 79.1484C67.9639 78.9524 68.2523 78.7498 68.5374 78.5406C68.6171 78.483 68.6974 78.4275 68.7765 78.3678C68.9782 78.2164 69.1804 78.058 69.3778 77.8987C69.6254 77.6987 69.8692 77.493 70.1188 77.2835L70.691 76.7904L71.3635 76.2071C71.4146 76.1635 71.4737 76.1305 71.5376 76.1098C71.6015 76.0892 71.6688 76.0813 71.7357 76.0868C71.8026 76.0922 71.8677 76.1108 71.9274 76.1415C71.9871 76.1722 72.0402 76.2143 72.0835 76.2656C72.0986 76.2834 72.112 76.3025 72.1237 76.3227C72.1907 76.426 72.2179 76.5502 72.2001 76.672C72.1823 76.7939 72.1209 76.9051 72.0272 76.985L71.4973 77.4417L71.3614 77.5597C71.1302 77.762 70.8928 77.9661 70.6547 78.168C70.3859 78.3986 70.1116 78.6261 69.8319 78.8414C69.6879 78.9547 69.5418 79.0686 69.3962 79.1846C68.8314 79.6123 68.2396 80.0154 67.6411 80.3932C68.2299 80.2659 68.8065 80.0879 69.3646 79.8612C69.984 79.6099 70.5806 79.3061 71.1481 78.953C71.4427 78.7676 71.6909 78.6037 71.9406 78.4281L72.0333 78.3602C72.218 78.2043 72.4388 78.0478 72.6357 77.8954ZM76.5802 46.9765C76.126 44.7657 75.0762 41.8538 73.9774 41.3193C73.8326 41.2418 73.666 41.2154 73.5044 41.2445C73.4842 41.2506 73.4653 41.2603 73.4486 41.273C73.3668 41.3312 73.2126 41.4993 73.0856 41.9637C72.9366 42.5063 72.8209 43.4523 72.8955 45.1081C72.9462 46.0758 73.0971 47.0357 73.3459 47.9723C73.7422 48.3643 74.0882 48.8041 74.3761 49.2815C74.851 50.0598 75.2548 50.8794 75.5825 51.7302L74.4882 47.3333C74.4704 47.2683 74.466 47.2004 74.4752 47.1337C74.4844 47.0669 74.507 47.0027 74.5417 46.945C74.5763 46.8872 74.6224 46.8371 74.677 46.7976C74.7316 46.7581 74.7936 46.7301 74.8593 46.7152C74.8941 46.7057 74.9301 46.7006 74.9662 46.7002C75.083 46.6959 75.1977 46.7318 75.2912 46.802C75.3846 46.8722 75.4511 46.9724 75.4795 47.0858L75.6855 47.9138L77.1651 53.8584L77.1821 53.9218C77.1846 53.8804 77.1849 53.8395 77.1874 53.7981C77.2218 52.456 77.1646 51.1132 77.0163 49.7789C76.9821 49.4483 76.9416 49.1195 76.8941 48.7902C76.8392 48.3996 76.7765 48.0133 76.708 47.6308C76.6626 47.3938 76.625 47.1774 76.5845 46.9754L76.5802 46.9765ZM64.2382 72.3845C64.2089 72.7696 64.2028 73.1562 64.2201 73.542C64.2646 74.3072 64.367 75.0678 64.5263 75.8175C64.694 76.6377 64.9209 77.5099 65.1908 78.4159C65.3229 77.5758 65.4121 76.7295 65.4581 75.8804C65.4818 75.4618 65.4927 75.0377 65.4956 74.6089C65.5019 74.1256 65.4946 73.6361 65.4735 73.1405C65.4727 73.1049 65.4753 73.0693 65.4813 73.0342C65.5003 72.9082 65.5659 72.7939 65.6651 72.7138C65.7643 72.6337 65.8899 72.5937 66.0172 72.6017C66.1444 72.6097 66.264 72.6651 66.3524 72.7569C66.4409 72.8488 66.4916 72.9704 66.4948 73.0979C66.5186 73.6939 66.5194 74.2802 66.5144 74.8613C66.5129 74.9659 66.5109 75.0683 66.5074 75.1734C66.5014 75.3539 66.5024 75.5349 66.4937 75.7138C66.476 76.1126 66.4455 76.5058 66.4122 76.8974C66.3969 77.0601 66.3816 77.2227 66.3637 77.3838C66.3532 77.4885 66.3385 77.5943 66.326 77.6996C66.3134 77.8049 66.296 77.9341 66.2799 78.0516L66.2602 78.2064C66.239 78.3638 66.2135 78.5224 66.1875 78.6788C66.2612 78.5481 66.3316 78.4137 66.4 78.2799C66.5 78.0787 66.5963 77.8717 66.6861 77.6574C66.7381 77.5303 66.788 77.4037 66.8361 77.2708C66.8672 77.1922 66.9009 77.1153 66.9272 77.0358C66.9534 76.9562 66.9717 76.9061 66.9929 76.8415C67.0909 76.548 67.1801 76.2387 67.2554 75.9196C67.3827 75.3866 67.4753 74.8458 67.5328 74.3008C67.5728 73.9346 67.5963 73.5659 67.6034 73.2039C67.6148 72.2596 67.5284 71.3166 67.3455 70.3901C67.2631 69.9378 67.1109 69.5011 66.8944 69.0956C66.8154 68.9414 66.7056 68.8052 66.5718 68.6954C66.4379 68.5855 66.2829 68.5044 66.1164 68.457C66.0607 68.4437 66.0026 68.4452 65.9477 68.4615C65.6899 68.5305 65.3608 68.8656 65.0904 69.3525C65.0352 69.451 64.9855 69.5527 64.9442 69.6521C64.7572 70.0624 64.6068 70.4884 64.4949 70.9252C64.4686 71.0296 64.4473 71.1191 64.429 71.1693C64.335 71.5684 64.2726 71.9744 64.2425 72.3833L64.2382 72.3845ZM76.4715 65.4944C76.5622 64.9877 76.5064 64.6019 76.3131 64.3117C76.2645 64.2374 76.2075 64.1691 76.1431 64.1081C76.1121 64.081 76.0758 64.0606 76.0365 64.0484C75.927 64.0206 75.8125 64.0187 75.7021 64.0428L75.5817 64.0751C75.5246 64.0904 75.457 64.1085 75.3976 64.1403C75.3381 64.1721 75.3173 64.1618 75.2729 64.1737L75.1966 64.21C75.0681 64.2716 74.9351 64.3412 74.8012 64.4247L74.6736 64.5064L74.6022 64.5527C74.4925 64.6251 74.3834 64.6997 74.2818 64.7767L74.1089 64.9091C73.9837 65.0083 73.8691 65.1047 73.7619 65.1946L73.6139 65.3271C73.5407 65.392 73.4749 65.4504 73.419 65.5039L73.383 65.5384L73.2832 65.6308C73.1928 65.7162 73.1041 65.8079 73.0218 65.8979C72.7034 66.2272 72.4121 66.5816 72.1509 66.9579C71.8432 67.4056 71.5712 67.8768 71.3372 68.3671C71.1063 68.8434 70.9065 69.3342 70.739 69.8364C70.6239 70.1843 70.5199 70.5428 70.4271 70.9119C70.3216 71.3636 70.2202 71.8301 70.1386 72.3117L70.1279 72.3984C70.1167 72.458 70.1097 72.5165 70.1006 72.5756L70.1813 72.4543C70.8233 71.4693 71.4474 70.4686 72.0544 69.4884C72.3849 68.9469 72.7183 68.4107 73.0546 67.8797C73.0903 67.823 73.1368 67.7739 73.1914 67.7352C73.2461 67.6965 73.3078 67.6689 73.3731 67.654C73.4384 67.6391 73.506 67.6373 73.572 67.6485C73.6381 67.6598 73.7012 67.6839 73.7579 67.7196C73.8146 67.7553 73.8637 67.8017 73.9025 67.8564C73.9412 67.911 73.9688 67.9728 73.9837 68.0381C73.9985 68.1034 74.0004 68.171 73.9891 68.237C73.9779 68.303 73.9537 68.3662 73.9181 68.4229C73.5839 68.9563 73.2522 69.4906 72.9231 70.0257C72.2685 71.082 71.5964 72.1657 70.8943 73.2303C71.3778 72.859 71.8416 72.4626 72.2836 72.0427C73.1629 71.1951 73.9623 70.2683 74.6715 69.2741C74.7094 69.2209 74.752 69.1687 74.7878 69.1161C75.2227 68.4801 75.6051 67.8096 75.9309 67.1113L76.0267 66.9022C76.0885 66.7611 76.1476 66.6184 76.2004 66.4774C76.2284 66.4043 76.249 66.3376 76.2733 66.2677C76.3443 66.0643 76.4037 65.8571 76.4513 65.6471C76.4563 65.5982 76.4634 65.5487 76.4715 65.4944ZM66.3804 67.4646C66.8999 67.6068 67.3493 67.9343 67.6439 68.3852C67.5443 68.0812 67.4511 67.7756 67.3701 67.4734C67.22 66.9081 67.1033 66.3344 67.0207 65.7553C66.9082 65.6783 66.7813 65.6245 66.6477 65.5971C66.5957 65.5858 66.5417 65.5878 66.4907 65.6029C66.3879 65.6346 66.2934 65.6885 66.2138 65.7609C65.9793 65.9832 65.7881 66.2471 65.6501 66.5393C65.478 66.9003 65.3392 67.2764 65.2355 67.6627C65.4014 67.5505 65.5893 67.4748 65.7867 67.4407C65.984 67.4066 66.1864 67.4147 66.3804 67.4646ZM68.2275 66.6752C68.2745 66.8506 68.3088 67.0294 68.3569 67.209C68.4135 67.4203 68.4847 67.6435 68.552 67.861C68.7594 68.5114 69.0058 69.1487 69.2898 69.7695C69.294 69.6076 69.2976 69.4435 69.2987 69.287C69.325 67.509 69.2885 65.9358 69.1927 64.4373C69.1923 64.3069 69.2416 64.1812 69.3307 64.086C69.4198 63.9907 69.5419 63.9331 69.6721 63.9248C69.8022 63.9165 69.9306 63.9582 70.0311 64.0414C70.1315 64.1246 70.1964 64.243 70.2125 64.3724C70.2886 65.5523 70.3263 66.7832 70.3275 68.1145C70.57 67.5889 70.8513 67.082 71.169 66.5982C71.2787 65.881 71.3299 65.1561 71.322 64.4307C71.3222 64.2879 71.3138 64.1045 71.2986 63.8957C71.2747 63.5782 71.2323 63.2001 71.1614 62.8001C71.0836 62.3294 70.9648 61.8664 70.8064 61.4164C70.6923 61.1005 70.3536 60.2672 69.818 59.908C69.6523 59.7895 69.4513 59.7308 69.2479 59.7414C69.216 59.7416 69.1841 59.7441 69.1526 59.7489L69.123 59.7568C68.9328 59.8077 68.6595 60.0554 68.3942 60.9078C68.2395 61.4398 68.1222 61.9821 68.0431 62.5305L68.025 62.6486C67.9001 63.509 67.8896 64.3822 67.9938 65.2454C68.0417 65.7266 68.1183 66.2044 68.2232 66.6764L68.2275 66.6752ZM69.9982 58.1635L70.0091 58.2715C70.0264 58.4798 70.0569 58.6867 70.0938 58.892C70.7794 59.211 71.3597 59.9569 71.7584 61.073C72.0314 61.8633 72.2072 62.6839 72.2819 63.5167C72.4989 63.8028 72.7222 64.0781 72.9508 64.3226L73.0634 64.4555L73.1188 64.4089L73.0435 64.1279C72.6397 62.7392 72.1649 61.263 71.6003 59.6546C71.5782 59.5914 71.5687 59.5245 71.5724 59.4576C71.5762 59.3907 71.593 59.3252 71.6221 59.2649C71.6511 59.2045 71.6918 59.1505 71.7417 59.1058C71.7916 59.0612 71.8499 59.0268 71.9131 59.0047C71.9763 58.9825 72.0432 58.973 72.1101 58.9768C72.177 58.9805 72.2425 58.9974 72.3028 59.0264C72.3632 59.0555 72.4172 59.0961 72.4619 59.146C72.5065 59.196 72.5409 59.2542 72.563 59.3174C72.981 60.5053 73.3517 61.6267 73.6805 62.6935C73.7889 63.0472 73.8935 63.3951 73.9932 63.7421L74.221 63.595C74.2403 62.9379 74.2154 62.2803 74.1465 61.6266C74.0882 61.0523 73.9951 60.482 73.8679 59.9189C73.7914 59.6337 73.7304 59.3466 73.6414 59.0737C73.6018 58.9258 73.5338 58.7312 73.4542 58.5102C73.1994 57.7915 72.8633 57.1042 72.4524 56.4619C72.2855 56.2082 72.0945 55.9712 71.8823 55.7541C71.669 55.525 71.4018 55.3529 71.105 55.2535C70.9398 55.2046 70.7644 55.2015 70.5975 55.2445L70.513 55.2672C70.2313 55.3653 69.8106 55.8743 69.9982 58.1635ZM73.2811 55.8865C73.8564 56.7855 74.3043 57.76 74.6118 58.782C74.6684 58.9933 74.7312 59.2279 74.7913 59.4518C74.846 59.521 74.9029 59.5895 74.9598 59.6581L75.0042 59.7141C74.9957 59.6824 74.9872 59.6507 74.9787 59.619C74.3031 57.4946 73.5814 55.4437 72.9284 53.6575C72.9057 53.5944 72.8957 53.5275 72.8988 53.4606C72.902 53.3936 72.9183 53.3279 72.9468 53.2673C72.9754 53.2067 73.0156 53.1522 73.0652 53.1071C73.1148 53.062 73.1727 53.0271 73.2358 53.0044C73.2989 52.9817 73.3658 52.9717 73.4327 52.9748C73.4997 52.978 73.5653 52.9943 73.626 53.0229C73.6866 53.0514 73.7411 53.0916 73.7862 53.1412C73.8313 53.1908 73.8662 53.2488 73.8889 53.3118C74.4176 54.778 74.9987 56.4227 75.5657 58.1414C75.6719 58.4648 75.7772 58.7898 75.8814 59.1167L75.993 58.9079C75.9719 58.4403 75.9404 57.9595 75.8868 57.4553C75.8778 57.4214 75.8687 57.3876 75.8718 57.3483C75.7728 56.4923 75.6267 55.6423 75.4342 54.8023C75.3126 54.2642 75.1764 53.7391 75.0112 53.2239C74.9988 53.1775 74.9858 53.1289 74.9733 53.0824C74.612 51.9433 74.1193 50.8502 73.5049 49.8252C73.4274 49.6965 73.3415 49.5701 73.2522 49.44C73.0188 49.1022 72.7433 48.7955 72.4325 48.5273C72.0962 48.2528 71.7567 48.1014 71.4567 48.1818C71.4245 48.1882 71.3927 48.1967 71.3616 48.2073C71.3193 48.2186 71.1999 48.2801 71.0959 48.6272C71.0121 48.9797 70.9743 49.3415 70.9835 49.7036C70.9978 50.4193 71.0619 51.1331 71.1754 51.8399C71.3184 52.7456 71.5564 53.6337 71.8854 54.4895C72.4534 54.8397 72.9314 55.3182 73.2811 55.8865ZM83.3267 53.8901C83.0515 53.965 82.7809 54.0557 82.5162 54.1616L82.4655 54.1752C82.1334 54.3049 81.8548 54.4317 81.6806 54.5168C81.3414 54.6807 81.0128 54.8656 80.6966 55.0704C80.3901 55.2705 80.0953 55.4879 79.8134 55.7215C79.4946 55.9829 79.1915 56.2629 78.9059 56.5602C78.4857 56.9953 78.0997 57.4622 77.7514 57.9566C77.485 58.3367 77.2381 58.7301 77.0119 59.1354C76.8245 59.4755 76.6562 59.8195 76.5039 60.1638C76.4829 60.2124 76.4572 60.2601 76.4363 60.3087C76.3975 60.4006 76.3645 60.4887 76.3272 60.578L76.4937 60.4133L77.0196 59.9078C77.3178 59.6264 77.6145 59.3476 77.9051 59.0795C78.6941 58.3563 79.4386 57.6948 80.1699 57.0685L80.6606 56.6517C80.7116 56.6083 80.7706 56.5754 80.8343 56.5548C80.898 56.5342 80.9651 56.5264 81.0319 56.5317C81.0986 56.5371 81.1636 56.5555 81.2232 56.586C81.2828 56.6165 81.3358 56.6584 81.3792 56.7094C81.4226 56.7604 81.4556 56.8194 81.4761 56.8831C81.4967 56.9468 81.5046 57.0139 81.4992 57.0807C81.4939 57.1474 81.4754 57.2124 81.4449 57.272C81.4144 57.3316 81.3725 57.3846 81.3215 57.428C81.0406 57.6641 80.7555 57.9103 80.4684 58.1571C80.0128 58.5532 79.5523 58.9642 79.0709 59.399C79.5503 59.0829 80.0552 58.8075 80.5805 58.5755C80.7406 58.5054 80.8986 58.4359 81.0616 58.3764C81.1602 58.3386 81.3295 58.2774 81.5389 58.2055C81.7906 58.1222 82.1042 58.0246 82.446 57.9397C83.0694 57.4207 83.6512 56.8537 84.1861 56.2438C85.0444 55.2212 85.3062 54.5079 85.0027 53.9415C84.8825 53.7042 84.3006 53.654 83.5839 53.8189L83.3267 53.8901ZM82.9194 58.8864C82.7862 58.922 82.6552 58.9571 82.5263 58.9917C82.2559 59.0641 82.0066 59.131 81.8105 59.2107L81.5251 59.312L81.4216 59.3398C81.2302 59.4114 81.0411 59.4916 80.8515 59.5786C79.945 60.0059 79.1074 60.5662 78.3664 61.2409C77.9749 61.5915 77.6065 61.9671 77.2636 62.3653L77.1938 62.4429C76.9878 62.6883 76.7952 62.9415 76.608 63.1977C76.6914 63.2434 76.7692 63.2985 76.84 63.362C76.941 63.4592 77.0336 63.5646 77.117 63.6773L77.25 63.5737C78.1876 62.8469 79.196 62.1057 80.2207 61.3827C80.3318 61.3113 80.4661 61.2855 80.5957 61.3109C80.7254 61.3362 80.8402 61.4106 80.9162 61.5186C80.9922 61.6266 81.0235 61.7598 81.0036 61.8903C80.9837 62.0209 80.9141 62.1387 80.8094 62.2191C79.7957 62.9324 78.8088 63.6611 77.8738 64.3804L77.5108 64.6656C77.5346 64.8438 77.5419 65.0238 77.5326 65.2033C77.6359 65.1575 77.736 65.1171 77.8471 65.0669C78.0272 64.987 78.2051 64.8986 78.3841 64.8144C78.5631 64.7302 78.7278 64.6181 78.9041 64.5323C79.0041 64.4829 79.1952 64.3932 79.4328 64.291C80.1024 63.9418 80.7447 63.5749 81.3348 63.1994C81.3794 63.1716 81.5274 63.073 81.7477 62.9234C81.9681 62.7738 82.2941 62.5369 82.6309 62.2723C83.0343 61.9611 83.4186 61.6259 83.7819 61.2687C84.7493 60.2983 85.0619 59.6054 84.7943 59.0294C84.7018 58.8277 84.227 58.6787 83.3754 58.8049C83.2245 58.825 83.0716 58.8546 82.9194 58.8864ZM82.1778 65.0525C81.9257 64.7033 81.2081 64.8141 80.9025 64.8824C80.8286 64.9022 80.7546 64.922 80.6785 64.9424C80.402 65.0187 80.1307 65.1126 79.8661 65.2235C79.6322 65.3224 79.4474 65.4104 79.3517 65.4587C79.189 65.5363 79.0313 65.6238 78.8753 65.7177C78.0683 66.2192 77.3674 66.874 76.8123 67.6451C76.4686 68.364 76.0701 69.0552 75.6203 69.7129L75.5538 69.8031C75.456 70.0128 75.3651 70.2228 75.2705 70.4361C76.3791 69.5616 77.4268 68.5947 78.4472 67.6532L78.7722 67.3532C78.8215 67.3078 78.8792 67.2724 78.9421 67.2493C79.0049 67.2261 79.0718 67.2156 79.1387 67.2182C79.2057 67.2209 79.2715 67.2367 79.3323 67.2648C79.3931 67.2929 79.4479 67.3327 79.4933 67.3819C79.5388 67.4312 79.5741 67.4889 79.5972 67.5518C79.6204 67.6146 79.631 67.6815 79.6283 67.7484C79.6256 67.8154 79.6098 67.8812 79.5817 67.942C79.5536 68.0028 79.5138 68.0576 79.4646 68.103L79.1396 68.403C78.0794 69.3823 76.9879 70.3881 75.8179 71.304C76.3361 71.1611 76.8416 70.9757 77.3293 70.7496C78.3348 70.2829 79.2773 69.691 80.1343 68.988C80.7776 68.4526 81.3493 67.8366 81.8354 67.1552C82.6333 65.9495 82.4125 65.3791 82.1778 65.0525ZM75.6336 72.6194C75.844 72.7264 76.0241 72.8844 76.1576 73.0791C76.6343 73.7848 76.6135 74.6283 76.1 75.5857C76.4171 75.3946 76.7234 75.1863 77.0176 74.9616C77.6279 74.4924 78.5986 73.5936 78.2297 72.8251C78.112 72.5803 77.6047 72.4536 76.8389 72.4776C76.4346 72.5003 76.0321 72.5477 75.6336 72.6194ZM58.6863 52.89C66.9256 49.2148 71.2261 45.1659 71.8514 44.55C71.8311 43.9095 71.8545 43.2684 71.9215 42.6311C66.9849 46.8628 61.3827 50.2493 55.3416 52.6538C56.4539 52.7566 57.5727 52.8328 58.6863 52.89ZM63.5247 76.018C63.3539 75.2173 63.2444 74.4047 63.1972 73.5874C63.1485 72.6966 63.2264 71.8035 63.4285 70.9346C63.5514 70.413 63.7176 69.9026 63.9255 69.4087C63.9421 69.0124 63.9878 68.6179 64.0622 68.2284C64.1966 67.4851 64.4261 66.7622 64.745 66.0774C64.9455 65.6627 65.2241 65.2905 65.5655 64.9812C65.7367 64.8225 65.9424 64.7056 66.1664 64.6396C66.3904 64.5737 66.6266 64.5606 66.8565 64.6013L66.913 64.6179C66.8731 63.9064 66.9057 63.1927 67.0104 62.4879L67.0285 62.3698C67.1137 61.773 67.2417 61.1832 67.4117 60.6049C67.6351 59.8837 68.041 58.9053 68.9669 58.7433L69.0366 58.7246C69.0186 58.5981 69.0005 58.4716 68.9894 58.3455L68.9801 58.2347C68.9293 57.7079 68.9152 57.1782 68.938 56.6494C64.4559 56.8335 59.9667 56.7508 55.4943 56.4017L57.8422 65.1642C58.5611 66.6648 59.1898 68.2069 59.7251 69.7823C61.2651 74.2704 62.3672 79.288 62.6897 83.2553L62.8596 83.8892L62.9979 84.0084L63.8882 82.3273L64.8267 80.5562C64.2911 79.0752 63.8583 77.559 63.5316 76.0184L63.5247 76.018ZM52.6697 56.1123L52.5936 56.1327C51.3706 56.5125 50.2152 56.8492 49.1207 57.1425C47.1979 57.6577 45.4634 58.0387 43.8865 58.2982C45.0282 59.736 46.0809 61.1547 46.8065 62.1809C50.4425 67.2986 53.8991 73.0487 56.303 77.8873C57.3916 78.9635 58.5096 80.0227 59.657 81.065C56.6984 76.9117 54.3976 72.0183 53.4257 67.6814C52.7578 64.6899 52.2563 61.5677 53.53 60.9795C53.5604 60.9606 53.5925 60.9444 53.6258 60.9312L53.7272 60.904C54.4713 60.7228 55.2311 61.2258 55.9517 62.0812L54.4033 56.3023C53.8218 56.2452 53.2434 56.1828 52.6766 56.1127L52.6697 56.1123ZM53.7768 62.7795C53.7518 63.5313 53.8637 64.9212 54.4368 67.4739C55.3514 71.5634 57.4908 76.1672 60.2482 80.1275L53.7768 62.7795ZM59.4144 74.9701L61.2242 79.823C60.663 76.5252 59.839 73.2775 58.7601 70.1111C58.2332 68.5724 57.6136 67.0671 56.9045 65.6034C56.0963 63.9561 55.2748 62.6567 54.6282 62.1369L59.4144 74.9701ZM54.3001 51.9704C65.1761 47.7653 71.6993 41.5312 72.7779 40.4518C72.7259 40.1396 72.6836 39.8294 72.6529 39.5205C72.6261 39.2514 72.582 38.7741 72.5547 38.2243L52.0864 43.7087L54.3001 51.9704ZM73.5655 36.9003C73.5729 36.9278 73.5612 36.9604 73.5602 36.9901C73.547 37.3129 73.5515 37.6424 73.5637 37.9584C73.5869 38.5773 73.6404 39.1404 73.6722 39.4535C73.6971 39.7072 73.729 39.9614 73.7683 40.2181C74.4208 40.2697 74.983 40.6943 75.462 41.3156C75.5283 41.2197 75.6251 41.149 75.7366 41.1152C75.7891 41.0993 75.8439 41.0922 75.8987 41.0944C76.0064 41.0975 76.1102 41.1352 76.1949 41.2018C76.2796 41.2684 76.3407 41.3604 76.3692 41.4643C77.0478 43.794 77.7518 46.1848 78.5487 48.5417C78.5044 47.8017 78.4371 47.052 78.3524 46.3047C78.2925 45.7772 78.224 45.2536 78.1466 44.7338C78.0108 44.5143 77.8786 44.2915 77.7517 44.0628C77.1727 43.0211 76.6983 41.9246 76.3355 40.7894C75.9818 39.6812 75.7334 38.5421 75.5938 37.3873C75.5567 37.0711 75.5291 36.7569 75.509 36.4453C75.4741 36.3912 75.4371 36.3377 75.4007 36.2863C74.896 35.5859 74.4021 35.2472 74.0049 35.3536C73.949 35.3792 73.9025 35.4218 73.8722 35.4752C73.7399 35.6579 73.6122 36.0771 73.5655 36.9003ZM76.511 36.1111C76.5208 36.3168 76.5334 36.5241 76.5506 36.7323C76.5679 36.9406 76.5891 37.1546 76.6165 37.3669C76.7507 38.4211 76.9815 39.4608 77.306 40.4727C77.5916 41.3643 77.9495 42.2311 78.3764 43.0643C78.4774 43.2637 78.5847 43.4614 78.6941 43.6586C78.5029 42.4801 78.3434 41.2931 78.1973 40.1139C78.0823 39.1777 77.9802 38.2471 77.8782 37.3255L77.8162 36.7646C77.8084 36.6335 77.8512 36.5044 77.936 36.404C78.0207 36.3036 78.1407 36.2396 78.2713 36.2253C78.4019 36.2109 78.533 36.2474 78.6375 36.327C78.7419 36.4066 78.8118 36.5234 78.8326 36.6531L78.8945 37.214C79.1256 39.3103 79.3651 41.4632 79.7127 43.5804C79.7968 42.88 79.8647 42.1643 79.9164 41.4333C80.0364 39.8569 80.0466 38.2742 79.9471 36.6964C79.8946 35.9982 79.8051 35.3033 79.6791 34.6145C79.616 34.2691 79.5388 33.9048 79.4467 33.5445C79.3901 33.3332 79.3335 33.1219 79.2769 32.9106C78.9146 31.753 78.2725 30.5482 77.5558 30.6541L77.541 30.6581C77.4459 30.6836 77.1295 30.8635 76.8544 32.1103C76.7008 32.8654 76.5978 33.6299 76.5459 34.3987C76.5162 34.7781 76.5068 35.1656 76.5075 35.5572C76.4987 35.7271 76.5025 35.9186 76.511 36.1111ZM85.9197 53.4761C86.0282 53.6825 86.1004 53.906 86.133 54.1368C87.249 53.9828 88.0596 53.8471 88.4969 53.7888L88.1085 52.3393C87.6364 52.4114 86.5158 52.5736 84.9193 52.7681C85.1279 52.8043 85.3257 52.8872 85.4979 53.0104C85.6701 53.1336 85.8123 53.2941 85.914 53.4799L85.9197 53.4761ZM88.7609 54.7824C88.3264 54.8513 87.3743 55 86.0238 55.1829C85.7836 55.8179 85.4272 56.4026 84.973 56.9071C84.7253 57.1999 84.4484 57.4847 84.1917 57.7438C84.9524 57.7936 85.4856 58.0764 85.7247 58.5967C86.3381 59.9225 85.3264 61.1673 84.5072 61.9893C84.0093 62.4736 83.4792 62.9236 82.9205 63.3361L86.6419 77.2246C90.9885 75.0635 93.2345 73.2614 93.6254 72.937L88.7609 54.7824ZM82.929 67.3151C82.8553 67.4458 82.7743 67.583 82.6869 67.7129C82.145 68.4772 81.5065 69.1682 80.7873 69.7687C79.926 70.4706 78.9863 71.0705 77.9871 71.5562C78.2331 71.5972 78.4665 71.6939 78.6694 71.839C78.8723 71.984 79.0394 72.1735 79.1579 72.3929C79.6647 73.4393 79.1241 74.6418 77.6458 75.7762C76.7167 76.4607 75.708 77.0298 74.6418 77.4711C74.2093 77.9092 73.7497 78.3197 73.2658 78.7003C73.0217 78.888 72.768 79.0738 72.5084 79.2543C72.2488 79.4348 71.9882 79.6202 71.6735 79.8064C71.0566 80.192 70.4072 80.5229 69.7327 80.7952C69.278 80.9819 68.8118 81.1393 68.3371 81.2666C67.4492 81.5095 66.5325 81.631 65.6121 81.6276C65.5499 81.6259 65.4886 81.6123 65.4315 81.5877L64.7891 82.7993L64.0378 84.2212C73.7434 82.5786 80.8752 79.9769 85.7061 77.6792L82.929 67.3151ZM47.1706 77.5443C47.4513 77.5777 47.7259 77.622 47.9859 77.6542C48.8349 77.78 49.5802 77.9245 50.117 78.0434C49.3029 77.5066 48.4794 76.955 47.6467 76.3885C47.4551 76.2564 47.2625 76.1292 47.0702 75.9949L46.3531 75.5077C43.5415 73.5593 40.6973 71.4725 37.8689 69.284C38.1485 69.7108 38.456 70.1186 38.7893 70.5049C41.1171 73.1787 43.8349 75.4861 46.8511 77.3491C46.9615 77.4146 47.0713 77.478 47.1775 77.5447L47.1706 77.5443ZM41.982 59.1776L43.6503 61.4482L53.6926 75.0924C51.3545 70.8525 48.7822 66.7461 45.9875 62.7922C44.9232 61.2883 43.8888 59.9213 42.9154 58.7056C42.3734 58.0295 41.8529 57.4027 41.354 56.8253C39.6796 54.887 38.2902 53.5472 37.407 52.964L41.982 59.1776ZM41.9587 55.1437C42.7129 55.0254 43.7791 54.7872 44.7771 54.5561C43.666 54.2401 42.5723 53.8656 41.5007 53.4343L41.9587 55.1437ZM40.3905 49.2908C43.9706 50.9041 48.4272 51.875 53.0879 52.4243L53.3268 52.3354L51.0559 43.8603L38.9117 43.8057L40.3905 49.2908ZM86.7373 49.8419C86.2821 50.4975 85.7795 51.1189 85.2335 51.701C86.4757 51.5448 87.3788 51.4161 87.843 51.3483L87.2242 49.0388C87.0757 49.3171 86.9112 49.5865 86.7315 49.8457L86.7373 49.8419ZM94.6155 76.6236C93.7124 77.3185 91.427 78.9568 87.6121 80.8372L90.5698 91.8754L98.1511 89.844L94.6155 76.6236ZM76.0924 94.4388C76.023 94.5363 75.9217 94.6067 75.8061 94.6378C75.7339 94.6571 75.6583 94.6603 75.5847 94.6471C75.5111 94.634 75.4413 94.6048 75.3803 94.5617L73.7394 93.4161C70.8757 91.4001 68.3976 89.6568 65.8836 87.6785C65.2527 87.7917 64.6114 87.9001 63.9598 88.0037L66.9078 99.0059L89.5655 92.0743L86.678 81.2981C82.5676 83.2085 78.2946 84.7476 73.9101 85.8969C71.8457 86.4501 69.6158 86.9683 67.2251 87.4277C69.4788 89.1701 71.7432 90.7668 74.3287 92.581L75.9674 93.7272C76.0226 93.7661 76.0695 93.8155 76.1054 93.8726C76.1412 93.9298 76.1654 93.9934 76.1765 94.06C76.1876 94.1265 76.1854 94.1946 76.17 94.2603C76.1545 94.326 76.1262 94.3879 76.0867 94.4426L76.0924 94.4388ZM62.9419 88.1519C62.5936 88.2045 62.2432 88.2576 61.8896 88.3071C60.1618 91.6122 58.8025 94.2388 57.2679 97.4876C57.2357 97.5546 57.1893 97.6138 57.132 97.6612C57.0748 97.7086 57.0079 97.743 56.9361 97.7622C56.8197 97.794 56.6957 97.7821 56.5875 97.7288C56.5266 97.7005 56.4719 97.6603 56.4267 97.6107C56.3814 97.5611 56.3464 97.503 56.3238 97.4397C56.3012 97.3765 56.2913 97.3094 56.2948 97.2423C56.2983 97.1752 56.3151 97.1095 56.3442 97.049C57.7913 93.9979 59.0726 91.4941 60.6502 88.4738C57.6847 88.8585 54.5112 89.1518 51.1266 89.3249L53.7706 99.1924L65.8842 99.133L62.9419 88.1519ZM50.8566 88.317C80.2078 86.8591 93.33 76.3815 94.3273 75.5481L93.9185 74.0225C92.2215 75.3378 85.6472 79.9529 73.2103 83.2853C67.0827 84.9272 59.5135 86.2601 50.4297 86.7239L50.8566 88.317ZM46.4025 71.6944C46.9604 72.0861 47.4223 72.4153 47.7231 72.6336C48.6064 73.2847 49.4835 73.9465 50.348 74.6117C48.7955 73.0438 47.2948 71.3986 45.868 69.7247L46.4025 71.6944ZM39.1077 42.7793L50.9649 42.8361L51.7697 19.0476L39.1077 42.7793ZM67.8967 23.1985L74.3823 34.3195C74.7994 34.3887 75.1871 34.5784 75.4978 34.8653C75.505 34.664 75.5122 34.4628 75.5291 34.2636C75.584 33.4582 75.6924 32.6575 75.8538 31.8666C76.0535 30.9638 76.4342 29.7476 77.4238 29.6206C77.7055 29.5847 77.9916 29.6236 78.2535 29.7334C78.2038 29.5905 78.1569 29.4491 78.1094 29.3055L67.8967 23.1985ZM94.1427 108.641L98.1055 90.916L90.5601 92.9378L82.5601 119.54L94.1427 108.641ZM65.0603 114.88L80.1877 120.203L66.2707 100.153L54.3699 100.212L65.0603 114.88ZM50.1468 85.7103C53.3385 85.5527 56.3357 85.2863 59.1486 84.9402L58.7748 84.8977C57.3017 84.733 55.8122 84.5411 54.3477 84.3243C52.7935 84.1021 51.2901 83.8414 49.8792 83.5536L49.55 83.4833L50.1468 85.7103Z" fill="#C6C8CC"/>
</g>
<defs>
<clipPath id="clip0">
<rect width="112" height="112" fill="white" transform="matrix(-0.965926 0.258819 0.258819 0.965926 109.012 0)"/>
</clipPath>
</defs>
</svg>
