<svg width="138" height="138" viewBox="0 0 138 138" fill="none" xmlns="http://www.w3.org/2000/svg">
<g clip-path="url(#clip0)">
<path d="M51.4442 43.9752C50.2039 43.6429 49.6854 45.5694 50.9279 45.9023C52.1703 46.2352 52.6866 44.3081 51.4442 43.9752Z" fill="#C6C8CC"/>
<path d="M97.1021 69.8131C95.8638 69.4814 95.346 71.4057 96.5863 71.738C97.8266 72.0704 98.3445 70.146 97.1021 69.8131Z" fill="#C6C8CC"/>
<path d="M40.4258 70.1533C39.1855 69.821 38.6692 71.748 39.9095 72.0803C41.1498 72.4127 41.6683 70.4862 40.4258 70.1533Z" fill="#C6C8CC"/>
<path d="M79.7451 61.5909L80.3654 62.3437C80.3891 62.3716 80.4029 62.4065 80.405 62.443C80.4071 62.4795 80.3972 62.5157 80.3769 62.5461L79.8531 63.3682C79.8339 63.3989 79.8249 63.4349 79.8272 63.4711C79.8296 63.5073 79.8433 63.5418 79.8664 63.5697C79.8894 63.5977 79.9207 63.6177 79.9557 63.6269C79.9908 63.6361 80.0278 63.6341 80.0617 63.6211L80.9702 63.2644C81.0044 63.2516 81.0417 63.2498 81.0769 63.2593C81.1122 63.2687 81.1436 63.2889 81.1668 63.3171L81.785 64.0693C81.8082 64.0975 81.8396 64.1176 81.8749 64.1268C81.9102 64.136 81.9474 64.1338 81.9814 64.1206C82.0154 64.1073 82.0443 64.0836 82.064 64.0529C82.0837 64.0223 82.0931 63.9861 82.0911 63.9497L82.0326 62.9761C82.0302 62.9395 82.0396 62.9031 82.0593 62.8721C82.079 62.8412 82.108 62.8173 82.1422 62.8039L83.0508 62.4473C83.0844 62.4336 83.1128 62.4097 83.1321 62.379C83.1514 62.3483 83.1605 62.3123 83.1582 62.2761C83.1558 62.2399 83.1422 62.2053 83.1191 62.1773C83.0961 62.1493 83.0648 62.1293 83.0297 62.12L82.0874 61.8675C82.0525 61.8579 82.0214 61.8376 81.9985 61.8096C81.9756 61.7815 81.962 61.7471 81.9595 61.711L81.901 60.7374C81.8989 60.7011 81.8854 60.6664 81.8625 60.6382C81.8396 60.61 81.8083 60.5898 81.7732 60.5804C81.7381 60.571 81.701 60.5729 81.667 60.5858C81.633 60.5988 81.604 60.6221 81.5841 60.6524L81.0582 61.474C81.0389 61.5047 81.0103 61.5285 80.9766 61.5418C80.9429 61.5552 80.9058 61.5575 80.8707 61.5483L79.9283 61.2958C79.8896 61.2779 79.8456 61.2747 79.8046 61.287C79.7637 61.2992 79.7287 61.326 79.7061 61.3623C79.6836 61.3986 79.6751 61.4419 79.6823 61.484C79.6895 61.5261 79.7118 61.5641 79.7451 61.5909Z" fill="#C6C8CC"/>
<path d="M81.3931 92.0371L80.4508 91.7846C80.4154 91.7753 80.3838 91.7551 80.3605 91.7269C80.3372 91.6987 80.3233 91.664 80.3207 91.6275L80.2623 90.6539C80.2602 90.6176 80.2467 90.5829 80.2238 90.5547C80.2008 90.5265 80.1696 90.5063 80.1345 90.4969C80.0994 90.4875 80.0622 90.4894 80.0283 90.5023C79.9943 90.5153 79.9653 90.5386 79.9454 90.5689L79.4195 91.3905C79.4004 91.4215 79.3719 91.4454 79.3381 91.4588C79.3043 91.4722 79.2671 91.4743 79.232 91.4648L78.2896 91.2123C78.2544 91.2035 78.2173 91.206 78.1836 91.2194C78.1499 91.2329 78.1213 91.2566 78.1018 91.2872C78.0823 91.3178 78.073 91.3538 78.0751 91.39C78.0772 91.4262 78.0907 91.4608 78.1136 91.489L78.7318 92.2412C78.7549 92.2694 78.7687 92.3041 78.7711 92.3405C78.7735 92.3769 78.7645 92.4131 78.7454 92.4441L78.2195 93.2657C78.1996 93.2964 78.1899 93.3326 78.1919 93.3692C78.1939 93.4057 78.2074 93.4407 78.2305 93.469C78.2537 93.4974 78.2852 93.5177 78.3206 93.5269C78.356 93.5362 78.3934 93.5341 78.4275 93.5207L79.3361 93.164C79.3701 93.1505 79.4076 93.1484 79.443 93.1579C79.4784 93.1674 79.5098 93.188 79.5326 93.2167L80.1529 93.9695C80.1757 93.9983 80.2071 94.019 80.2425 94.0285C80.2779 94.038 80.3155 94.0359 80.3496 94.0224C80.3837 94.0089 80.4125 93.9848 80.4319 93.9536C80.4512 93.9225 80.46 93.8859 80.4569 93.8493L80.3984 92.8757C80.3965 92.8395 80.4059 92.8036 80.4255 92.7731C80.4451 92.7426 80.4737 92.719 80.5074 92.7056L81.416 92.349C81.4446 92.3329 81.468 92.309 81.4835 92.2801C81.499 92.2512 81.5059 92.2185 81.5035 92.1858C81.5011 92.1531 81.4895 92.1217 81.4699 92.0954C81.4504 92.0691 81.4237 92.0489 81.3931 92.0371Z" fill="#C6C8CC"/>
<path d="M56.6142 77.8087L55.6718 77.5562C55.6364 77.5475 55.6048 77.5275 55.5818 77.4992C55.5587 77.471 55.5454 77.4361 55.5439 77.3996L55.4855 76.426C55.4827 76.3899 55.4688 76.3554 55.4457 76.3275C55.4225 76.2996 55.3913 76.2795 55.3563 76.2701C55.3212 76.2607 55.2841 76.2625 55.2501 76.2751C55.2161 76.2877 55.1869 76.3106 55.1664 76.3405L54.6427 77.1627C54.6227 77.1934 54.5937 77.2173 54.5596 77.2309C54.5256 77.2444 54.4881 77.2471 54.4525 77.2385L53.5101 76.986C53.4749 76.9772 53.4378 76.9797 53.4041 76.9931C53.3704 77.0066 53.3418 77.0303 53.3223 77.0609C53.3028 77.0915 53.2935 77.1275 53.2956 77.1637C53.2977 77.1999 53.3112 77.2346 53.3341 77.2627L53.9544 78.0155C53.9777 78.0436 53.9914 78.0784 53.9934 78.1148C53.9955 78.1512 53.9858 78.1873 53.9659 78.2178L53.4415 79.0421C53.4223 79.0728 53.4133 79.1088 53.4157 79.145C53.418 79.1812 53.4317 79.2157 53.4548 79.2436C53.4778 79.2716 53.5091 79.2916 53.5441 79.3008C53.5792 79.31 53.6162 79.308 53.6501 79.295L54.5587 78.9383C54.5924 78.9253 54.6294 78.9233 54.6644 78.9327C54.6993 78.942 54.7304 78.9622 54.7531 78.9904L55.3729 79.7453C55.396 79.7739 55.4277 79.7944 55.4634 79.8037C55.499 79.813 55.5367 79.8107 55.5709 79.7972C55.6051 79.7836 55.6341 79.7594 55.6536 79.7282C55.6732 79.697 55.6822 79.6604 55.6795 79.6236L55.621 78.65C55.6184 78.6137 55.6276 78.5775 55.6472 78.5468C55.6669 78.5162 55.6959 78.4927 55.73 78.4799L56.6365 78.1227C56.6657 78.1069 56.6897 78.083 56.7057 78.0538C56.7216 78.0247 56.7289 77.9916 56.7265 77.9585C56.7242 77.9254 56.7123 77.8936 56.6924 77.8671C56.6725 77.8405 56.6453 77.8203 56.6142 77.8087Z" fill="#C6C8CC"/>
<path d="M91.6433 81.37L89.4901 80.5485L90.2425 75.9739C90.2551 75.8976 90.2387 75.8193 90.1966 75.7544C90.1545 75.6896 90.0898 75.6427 90.015 75.6231C89.9404 75.6032 89.861 75.6116 89.7923 75.6467C89.7235 75.6818 89.6701 75.741 89.6425 75.8131L88.0061 80.1622L85.7397 79.7882C85.6639 79.7772 85.5868 79.7944 85.5228 79.8366C85.4589 79.8787 85.4127 79.9428 85.3928 80.0168C85.373 80.0907 85.381 80.1694 85.4153 80.2379C85.4496 80.3063 85.5078 80.3598 85.5789 80.3882L87.7337 81.2125L87.1088 85.3026C87.0975 85.378 87.1143 85.455 87.1561 85.5188C87.1979 85.5826 87.2617 85.6289 87.3354 85.6487C87.4094 85.6684 87.4882 85.66 87.5564 85.6252C87.6247 85.5904 87.6777 85.5316 87.7052 85.4601L89.2086 81.6076L91.4958 81.9714C91.5716 81.9823 91.6487 81.9651 91.7127 81.923C91.7766 81.8808 91.8228 81.8167 91.8427 81.7427C91.8625 81.6688 91.8545 81.5901 91.8202 81.5217C91.7859 81.4532 91.7277 81.3997 91.6566 81.3713L91.6433 81.37Z" fill="#C6C8CC"/>
<path d="M60.1552 54.5188C60.1756 54.4442 60.1674 54.3647 60.1323 54.2958C60.0971 54.2269 60.0375 54.1736 59.9652 54.1463L57.8125 53.3227L58.5677 48.7375C58.5803 48.6612 58.5639 48.5829 58.5218 48.5181C58.4798 48.4532 58.415 48.4063 58.3402 48.3867C58.2652 48.3668 58.1856 48.3754 58.1166 48.4109C58.0477 48.4464 57.9944 48.5063 57.9671 48.5788L56.3313 52.9258L54.0531 52.5622C53.9764 52.5484 53.8974 52.5639 53.8317 52.6056C53.7659 52.6474 53.7182 52.7123 53.6981 52.7875C53.6779 52.8627 53.6868 52.9428 53.7228 53.0118C53.7589 53.0808 53.8196 53.1337 53.8929 53.1601L56.0498 53.9849L55.4227 58.0745C55.4118 58.1504 55.4289 58.2278 55.4709 58.292C55.5129 58.3562 55.5769 58.4029 55.6509 58.4232C55.7249 58.443 55.8036 58.4346 55.8719 58.3998C55.9402 58.365 55.9932 58.3062 56.0207 58.2347L57.524 54.3822L59.8022 54.7458C59.8789 54.7595 59.9578 54.7437 60.0233 54.7016C60.0888 54.6595 60.1359 54.5942 60.1552 54.5188Z" fill="#C6C8CC"/>
<path d="M76.4029 80.8259C73.7596 80.1177 72.6547 84.2241 75.3023 84.9335C77.9498 85.643 79.0462 81.5342 76.4029 80.8259Z" fill="#C6C8CC"/>
<path d="M62.5234 44.4551C65.1646 45.1628 66.2695 41.0564 63.624 40.3475C60.9786 39.6387 59.8759 43.7457 62.5234 44.4551Z" fill="#C6C8CC"/>
<path d="M88.3852 49.7994C86.549 49.3074 85.7799 52.1609 87.6203 52.654C89.4607 53.1472 90.2256 50.2926 88.3852 49.7994Z" fill="#C6C8CC"/>
<path d="M48.5487 71.2201C50.3849 71.7121 51.1525 68.8559 49.3142 68.3633C47.4759 67.8708 46.7083 70.7269 48.5487 71.2201Z" fill="#C6C8CC"/>
<path d="M88.1236 64.332L89.769 65.5021C89.7907 65.5184 89.8084 65.5394 89.8207 65.5635C89.8331 65.5876 89.8398 65.6142 89.8405 65.6412L89.8363 68.1924C89.8316 68.2557 89.8494 68.3186 89.8866 68.37C89.9238 68.4214 89.978 68.458 90.0396 68.4733L90.0607 68.479C90.1217 68.4965 90.1869 68.4919 90.2448 68.466C90.3027 68.44 90.3496 68.3945 90.3772 68.3373L91.6492 66.1259C91.6632 66.1027 91.6824 66.0831 91.7051 66.0684C91.7279 66.0537 91.7537 66.0444 91.7806 66.0411L93.7779 65.847C93.8422 65.8539 93.9068 65.8375 93.9601 65.801C94.0134 65.7644 94.0519 65.71 94.0687 65.6475C94.0854 65.5851 94.0793 65.5187 94.0514 65.4604C94.0235 65.402 93.9757 65.3556 93.9166 65.3294L92.2718 64.1571C92.2499 64.1411 92.2321 64.1201 92.2197 64.096C92.2073 64.0718 92.2007 64.0451 92.2004 64.018L92.204 61.4689C92.2087 61.4057 92.1908 61.3428 92.1536 61.2913C92.1165 61.2399 92.0623 61.2033 92.0007 61.188L91.9796 61.1823C91.9186 61.1648 91.8534 61.1695 91.7955 61.1954C91.7376 61.2213 91.6907 61.2668 91.6631 61.324L90.3917 63.5333C90.3779 63.5567 90.3588 63.5765 90.336 63.5912C90.3132 63.606 90.2872 63.6152 90.2603 63.6181L88.2497 63.8109C88.1854 63.8041 88.1208 63.8204 88.0675 63.857C88.0142 63.8936 87.9757 63.948 87.9589 64.0104C87.9422 64.0729 87.9483 64.1392 87.9762 64.1976C88.0041 64.2559 88.0519 64.3024 88.111 64.3286L88.1236 64.332Z" fill="#C6C8CC"/>
<path d="M48.6846 82.8495L47.0414 81.6799C47.0191 81.6642 47.0009 81.6434 46.9885 81.6191C46.9761 81.5949 46.9697 81.568 46.9699 81.5408L46.9736 78.9917C46.9821 78.9268 46.9664 78.861 46.9296 78.8068C46.8927 78.7527 46.8372 78.714 46.7737 78.6981L46.7525 78.6924C46.6898 78.675 46.6228 78.6812 46.5643 78.7097C46.5058 78.7382 46.4597 78.7872 46.4347 78.8473L45.1634 81.0567C45.1499 81.0804 45.131 81.1005 45.1081 81.1153C45.0852 81.13 45.0591 81.139 45.0319 81.1415L43.024 81.3327C42.9602 81.3274 42.8965 81.3447 42.8441 81.3816C42.7917 81.4185 42.7539 81.4726 42.7373 81.5344C42.7207 81.5963 42.7264 81.6621 42.7534 81.7202C42.7803 81.7783 42.8268 81.8251 42.8847 81.8525L44.528 83.022C44.5506 83.0375 44.5689 83.0583 44.5814 83.0826C44.5939 83.1069 44.6001 83.1339 44.5995 83.1612L44.5958 85.7103C44.5874 85.7748 44.6028 85.8402 44.6392 85.8942C44.6757 85.9482 44.7306 85.987 44.7936 86.0033L44.8147 86.009C44.8777 86.027 44.9451 86.0212 45.0041 85.9927C45.0631 85.9643 45.1095 85.9151 45.1346 85.8546L46.406 83.6453C46.4191 83.6213 46.438 83.601 46.461 83.5862C46.4839 83.5714 46.5102 83.5625 46.5375 83.5605L48.5448 83.3714C48.6087 83.3767 48.6723 83.3594 48.7247 83.3225C48.7771 83.2856 48.8149 83.2315 48.8315 83.1696C48.8481 83.1077 48.8424 83.042 48.8155 82.9839C48.7885 82.9257 48.742 82.8789 48.6841 82.8516L48.6846 82.8495Z" fill="#C6C8CC"/>
<path d="M47.2563 58.7171L45.613 57.5475C45.5907 57.5318 45.5726 57.511 45.5602 57.4867C45.5477 57.4625 45.5414 57.4356 45.5416 57.4084L45.5452 54.8593C45.5537 54.7944 45.5381 54.7286 45.5012 54.6744C45.4643 54.6203 45.4089 54.5816 45.3453 54.5657L45.3263 54.5606C45.2633 54.5426 45.1959 54.5484 45.1369 54.5768C45.078 54.6053 45.0315 54.6544 45.0064 54.7149L43.735 56.9243C43.7216 56.948 43.7026 56.9681 43.6797 56.9829C43.6568 56.9977 43.6307 57.0067 43.6036 57.0091L41.5957 57.2003C41.5318 57.195 41.4681 57.2123 41.4157 57.2492C41.3633 57.2861 41.3256 57.3402 41.309 57.402C41.2924 57.4639 41.2981 57.5297 41.325 57.5878C41.352 57.6459 41.3985 57.6928 41.4564 57.7201L43.0997 58.8896C43.122 58.9053 43.1401 58.9262 43.1525 58.9504C43.165 58.9747 43.1713 59.0016 43.1711 59.0288L43.1675 61.5779C43.159 61.6428 43.1746 61.7086 43.2115 61.7627C43.2483 61.8169 43.3038 61.8556 43.3674 61.8715L43.3864 61.8766C43.4494 61.8946 43.5168 61.8888 43.5757 61.8604C43.6347 61.8319 43.6812 61.7827 43.7063 61.7222L44.9777 59.5129C44.9911 59.4892 45.0101 59.4691 45.033 59.4543C45.0559 59.4395 45.082 59.4305 45.1091 59.4281L47.117 59.2369C47.1809 59.2422 47.2446 59.2249 47.297 59.188C47.3494 59.1511 47.3871 59.097 47.4037 59.0351C47.4203 58.9732 47.4146 58.9075 47.3877 58.8494C47.3607 58.7912 47.3142 58.7444 47.2563 58.7171Z" fill="#C6C8CC"/>
<path d="M77.2012 36.3059C59.4649 31.5535 41.1692 42.1166 36.4168 59.8528C31.6644 77.589 42.2274 95.8848 59.9636 100.637C77.6998 105.39 95.9956 94.8265 100.748 77.0903C105.5 59.3541 94.9374 41.0584 77.2012 36.3059ZM60.2309 99.6399C43.044 95.0347 32.8089 77.3069 37.4141 60.1201C42.0193 42.9332 59.7465 32.7002 76.9334 37.3054C94.1202 41.9106 104.356 59.6363 99.7507 76.8231C95.1455 94.0099 77.4183 104.243 60.2314 99.6378L60.2309 99.6399Z" fill="#C6C8CC"/>
<path d="M73.2107 48.3922C73.2464 48.489 73.3044 48.5761 73.38 48.6464C73.4556 48.7166 73.5467 48.768 73.6459 48.7964L73.6607 48.8004C73.7581 48.8269 73.8603 48.8306 73.9594 48.8112C74.0585 48.7918 74.1518 48.7498 74.232 48.6885L79.8381 44.4248C79.9386 44.3512 80.0161 44.2506 80.0616 44.1347C80.107 44.0187 80.1186 43.8922 80.0948 43.7699C80.071 43.6477 80.013 43.5347 79.9274 43.4442C79.8418 43.3537 79.7322 43.2894 79.6115 43.2589L71.6224 41.1182C71.505 41.0852 71.3808 41.0855 71.2637 41.1191C71.1465 41.1527 71.041 41.2182 70.959 41.3084C70.877 41.3986 70.8217 41.5098 70.7994 41.6297C70.777 41.7495 70.7885 41.8732 70.8325 41.9868L73.2107 48.3922ZM78.6115 44.0667L74.0031 47.565L72.0486 42.3082L78.6115 44.0667Z" fill="#C6C8CC"/>
<path d="M66.6685 91.5633L58.6793 89.4226C58.5617 89.3892 58.4371 89.3893 58.3196 89.4229C58.202 89.4565 58.0962 89.5222 58.014 89.6128C57.9318 89.7033 57.8766 89.815 57.8545 89.9352C57.8324 90.0555 57.8443 90.1795 57.8889 90.2933L60.2694 96.6902C60.3058 96.7866 60.364 96.8733 60.4395 96.9434C60.5151 97.0136 60.6058 97.0653 60.7046 97.0945L60.7194 97.0984C60.8168 97.125 60.919 97.1287 61.0181 97.1093C61.1172 97.0899 61.2105 97.0479 61.2906 96.9865L66.8972 92.7297C66.9977 92.6562 67.0752 92.5556 67.1207 92.4396C67.1661 92.3236 67.1777 92.1971 67.1539 92.0749C67.1301 91.9526 67.0721 91.8396 66.9865 91.7491C66.9009 91.6587 66.7913 91.5944 66.6706 91.5639L66.6685 91.5633ZM61.0617 95.8631L59.1073 90.6062L65.6701 92.3647L61.0617 95.8631Z" fill="#C6C8CC"/>
<path d="M81.9706 72.8515C78.6653 67.0833 74.6948 63.5441 70.1667 62.3308L70.1096 62.3155C65.5934 61.1258 60.4434 62.2166 54.7931 65.5716C54.6775 65.6873 54.5943 65.8314 54.5519 65.9894C54.5096 66.1474 54.5096 66.3137 54.5519 66.4717C57.773 72.1993 61.6817 75.7242 66.1878 76.952L66.2449 76.9673C70.7729 78.1806 75.9811 77.1008 81.7277 73.758C81.8461 73.6428 81.9312 73.4978 81.974 73.3382C82.0167 73.1786 82.0156 73.0105 81.9706 72.8515ZM66.5077 75.9778L66.457 75.9643C62.3117 74.8354 58.6712 71.5772 55.6317 66.2877C60.9082 63.2289 65.69 62.2274 69.8449 63.3203L69.8956 63.3339C74.0666 64.4515 77.7593 67.726 80.8794 73.0529C75.5145 76.1039 70.6787 77.0955 66.5077 75.9778Z" fill="#C6C8CC"/>
<path d="M69.0885 66.5826C68.4776 66.4188 67.8318 66.44 67.2328 66.6433C66.6338 66.8466 66.1086 67.223 65.7236 67.7248C65.3385 68.2266 65.1109 68.8314 65.0695 69.4625C65.0282 70.0937 65.1749 70.723 65.4912 71.2708C65.8074 71.8186 66.279 72.2602 66.8463 72.54C67.4136 72.8198 68.0511 72.925 68.6783 72.8425C69.3054 72.7599 69.8939 72.4932 70.3695 72.0762C70.845 71.6591 71.1863 71.1104 71.35 70.4994C71.5683 69.6802 71.4528 68.8078 71.0289 68.0736C70.605 67.3393 69.9072 66.8031 69.0885 66.5826ZM67.6997 71.7656C67.2854 71.6551 66.9132 71.4241 66.6301 71.1019C66.3471 70.7797 66.1659 70.3809 66.1096 69.9557C66.0533 69.5306 66.1244 69.0983 66.3138 68.7136C66.5033 68.3288 66.8026 68.0089 67.1738 67.7943C67.5451 67.5797 67.9717 67.48 68.3997 67.5079C68.8276 67.5358 69.2377 67.69 69.5779 67.951C69.9182 68.2119 70.1735 68.568 70.3114 68.9741C70.4493 69.3801 70.4636 69.818 70.3527 70.2322C70.2034 70.7869 69.8404 71.2597 69.3431 71.5472C68.8458 71.8346 68.2549 71.9132 67.6997 71.7656Z" fill="#C6C8CC"/>
<path d="M71.1905 57.5799C72.3032 57.9254 73.4805 58.0094 74.631 57.8255C75.7814 57.6415 76.8739 57.1946 77.8233 56.5194C78.7728 55.8442 79.5536 54.959 80.105 53.9326C80.6564 52.9063 80.9635 51.7666 81.0024 50.6022C80.9994 50.5789 80.9896 50.5571 80.9742 50.5394C80.9588 50.5217 80.9384 50.509 80.9157 50.5029C80.8931 50.4968 80.8691 50.4977 80.8469 50.5053C80.8247 50.5129 80.8052 50.5269 80.7911 50.5456C79.9071 51.8426 78.6418 52.8326 77.1703 53.3787C75.6988 53.9248 74.094 54 72.5779 53.5937C71.0619 53.1875 69.7096 52.32 68.7083 51.1113C67.707 49.9026 67.1063 48.4126 66.9892 46.8474C66.9868 46.8218 66.9763 46.7976 66.9591 46.7784C66.9419 46.7592 66.9191 46.746 66.8938 46.7407C66.8686 46.7355 66.8424 46.7385 66.819 46.7493C66.7956 46.7601 66.7763 46.7781 66.7639 46.8006C66.2399 47.7838 65.9394 48.8705 65.8839 49.9832C65.8283 51.0959 66.0191 52.2071 66.4425 53.2376C66.866 54.268 67.5118 55.1923 68.3337 55.9444C69.1556 56.6965 70.1334 57.2579 71.1973 57.5885L71.1905 57.5799Z" fill="#C6C8CC"/>
<path d="M65.3312 81.7546C64.2185 81.4093 63.041 81.3256 61.8906 81.5098C60.7402 81.694 59.6478 82.1413 58.6985 82.8167C57.7492 83.4922 56.9685 84.3776 56.4174 85.4041C55.8663 86.4306 55.5595 87.5704 55.5209 88.7349C55.5239 88.7582 55.5337 88.7801 55.5491 88.7978C55.5645 88.8154 55.5849 88.8281 55.6075 88.8342C55.6302 88.8403 55.6542 88.8395 55.6764 88.8319C55.6986 88.8243 55.718 88.8102 55.7322 88.7915C56.6162 87.4946 57.8815 86.5045 59.353 85.9584C60.8244 85.4123 62.4293 85.3372 63.9454 85.7434C65.4614 86.1496 66.8137 87.0171 67.815 88.2258C68.8163 89.4345 69.417 90.9245 69.5341 92.4897C69.5346 92.5163 69.544 92.542 69.5609 92.5626C69.5777 92.5832 69.6011 92.5974 69.6271 92.6031C69.6531 92.6088 69.6803 92.6055 69.7042 92.5938C69.7281 92.582 69.7473 92.5626 69.7588 92.5386C70.2818 91.5559 70.5816 90.47 70.637 89.3581C70.6924 88.2463 70.5019 87.136 70.0791 86.1062C69.6563 85.0764 69.0116 84.1525 68.1909 83.4004C67.3703 82.6482 66.3939 82.0863 65.3312 81.7546Z" fill="#C6C8CC"/>
<path d="M33.1469 56.8683C33.275 56.8997 33.4103 56.8808 33.525 56.8155C33.6397 56.7503 33.725 56.6436 33.7635 56.5173C33.802 56.3911 33.7906 56.2549 33.7318 56.1368C33.673 56.0187 33.5712 55.9276 33.4473 55.8821L17.484 50.4294C17.3545 50.3851 17.2126 50.3941 17.0896 50.4543C16.9667 50.5146 16.8727 50.6213 16.8283 50.7508C16.784 50.8804 16.793 51.0223 16.8533 51.1452C16.9135 51.2682 17.0202 51.3622 17.1498 51.4065L33.1136 56.8571L33.1469 56.8683Z" fill="#C6C8CC"/>
<path d="M32.9881 53.6235L34.1213 54.1106L34.1953 54.1304C34.3205 54.162 34.4531 54.1456 34.5668 54.0843C34.6805 54.023 34.7671 53.9212 34.8094 53.7992C34.8518 53.6772 34.8469 53.5437 34.7956 53.4251C34.7444 53.3065 34.6505 53.2114 34.5326 53.1587L33.3979 52.6689C33.2727 52.6176 33.1323 52.6176 33.007 52.6688C32.8818 52.72 32.7816 52.8183 32.7281 52.9426C32.6746 53.0669 32.6721 53.2072 32.721 53.3334C32.77 53.4596 32.8665 53.5615 32.9898 53.6172L32.9881 53.6235Z" fill="#C6C8CC"/>
<path d="M26.7865 49.8239C26.6608 49.7695 26.5187 49.7673 26.3914 49.8177C26.264 49.8681 26.162 49.967 26.1076 50.0927C26.0532 50.2183 26.0509 50.3605 26.1013 50.4878C26.1517 50.6151 26.2506 50.7172 26.3763 50.7716L30.5254 52.5627C30.5494 52.5714 30.5741 52.5781 30.5993 52.5826C30.7261 52.6186 30.8619 52.6047 30.9788 52.5439C31.0957 52.483 31.1849 52.3797 31.2281 52.2552C31.2713 52.1307 31.2653 51.9944 31.2112 51.8742C31.1571 51.7539 31.0591 51.659 30.9373 51.6087L26.7865 49.8239Z" fill="#C6C8CC"/>
<path d="M21.2015 48.5403L23.5584 49.5568L23.6303 49.5761C23.7555 49.6077 23.8881 49.5913 24.0018 49.53C24.1155 49.4686 24.2021 49.3669 24.2445 49.2449C24.2868 49.1228 24.2819 48.9893 24.2307 48.8708C24.1794 48.7522 24.0856 48.6571 23.9677 48.6043L21.6108 47.5878C21.5483 47.5596 21.4808 47.5441 21.4122 47.5422C21.3437 47.5404 21.2755 47.5522 21.2115 47.577C21.1476 47.6018 21.0893 47.6391 21.0399 47.6867C20.9905 47.7343 20.9512 47.7912 20.924 47.8542C20.8969 47.9172 20.8827 47.985 20.882 48.0535C20.8814 48.1221 20.8944 48.1901 20.9204 48.2536C20.9463 48.3171 20.9846 48.3747 21.0331 48.4232C21.0816 48.4717 21.1392 48.5101 21.2027 48.5361L21.2015 48.5403Z" fill="#C6C8CC"/>
<path d="M35.4599 51.507C35.5823 51.5394 35.7124 51.5255 35.8254 51.4682C35.9383 51.4108 36.0263 51.3139 36.0724 51.196C36.1186 51.078 36.1197 50.9472 36.0757 50.8284C36.0316 50.7096 35.9455 50.6112 35.8336 50.5518L26.2677 45.4975C26.1477 45.4464 26.0128 45.4425 25.8901 45.4868C25.7675 45.531 25.6661 45.62 25.6063 45.7359C25.5466 45.8518 25.5329 45.9861 25.5681 46.1116C25.6033 46.2372 25.6847 46.3448 25.7959 46.4129L35.364 51.4677C35.3945 51.4841 35.4266 51.4973 35.4599 51.507Z" fill="#C6C8CC"/>
<path d="M37.4816 48.7537C37.5195 48.6962 37.5454 48.6317 37.558 48.5641C37.5705 48.4964 37.5694 48.4269 37.5548 48.3597C37.5401 48.2924 37.5121 48.2288 37.4725 48.1726C37.4328 48.1163 37.3823 48.0685 37.324 48.0321L35.893 47.1436C35.8358 47.1038 35.7712 47.076 35.703 47.0619C35.6348 47.0477 35.5645 47.0475 35.4962 47.0612C35.4279 47.075 35.3631 47.1024 35.3057 47.1418C35.2483 47.1813 35.1995 47.2319 35.1622 47.2907C35.1249 47.3495 35.0998 47.4153 35.0886 47.484C35.0774 47.5527 35.0801 47.623 35.0968 47.6907C35.1134 47.7583 35.1436 47.8219 35.1854 47.8775C35.2273 47.9332 35.2799 47.9798 35.3403 48.0146L36.7694 48.9184C36.8128 48.9471 36.8607 48.9684 36.9111 48.9813C37.018 49.0091 37.1311 49.002 37.2337 48.9611C37.3363 48.9201 37.4232 48.8475 37.4816 48.7537Z" fill="#C6C8CC"/>
<path d="M31.9194 45.8388C31.9635 45.8678 32.0121 45.8892 32.0632 45.9023C32.1822 45.9335 32.3084 45.9212 32.4192 45.8676C32.5299 45.814 32.6179 45.7226 32.6672 45.6099C32.7165 45.4972 32.724 45.3706 32.6882 45.2528C32.6524 45.1351 32.5758 45.034 32.4721 44.9678L29.0027 42.77C28.9455 42.7302 28.8809 42.7024 28.8127 42.6883C28.7445 42.6741 28.6742 42.6739 28.6059 42.6876C28.5376 42.7014 28.4729 42.7288 28.4155 42.7682C28.3581 42.8077 28.3092 42.8583 28.2719 42.9171C28.2346 42.9759 28.2096 43.0417 28.1983 43.1104C28.1871 43.1791 28.1899 43.2494 28.2065 43.3171C28.2232 43.3847 28.2533 43.4483 28.2951 43.5039C28.337 43.5596 28.3897 43.6062 28.45 43.641L31.9194 45.8388Z" fill="#C6C8CC"/>
<path d="M38.5806 46.5796C38.6964 46.6116 38.8199 46.602 38.9294 46.5524C39.0389 46.5028 39.1276 46.4164 39.18 46.3082C39.2324 46.2 39.2453 46.0769 39.2163 45.9602C39.1873 45.8435 39.1184 45.7407 39.0214 45.6696L35.6615 43.1478C35.5517 43.0775 35.4194 43.0513 35.2911 43.0746C35.1628 43.0978 35.048 43.1687 34.9699 43.2731C34.8917 43.3775 34.856 43.5076 34.8698 43.6372C34.8836 43.7669 34.9459 43.8865 35.0443 43.9721L38.4048 46.4917C38.4569 46.5325 38.5167 46.5624 38.5806 46.5796Z" fill="#C6C8CC"/>
<path d="M27.5947 33.0056L40.2294 44.1702C40.2794 44.2192 40.3389 44.2576 40.4042 44.2829C40.4695 44.3082 40.5393 44.32 40.6093 44.3175C40.6793 44.315 40.7481 44.2982 40.8114 44.2683C40.8747 44.2383 40.9313 44.1958 40.9777 44.1433C41.0241 44.0908 41.0593 44.0294 41.0812 43.9629C41.1031 43.8964 41.1112 43.8261 41.105 43.7563C41.0989 43.6865 41.0786 43.6187 41.0454 43.557C41.0122 43.4953 40.9668 43.441 40.912 43.3974L28.2774 32.2328C28.1738 32.1505 28.0426 32.1111 27.9108 32.1227C27.7791 32.1343 27.6568 32.1961 27.5692 32.2952C27.4816 32.3943 27.4354 32.5233 27.4402 32.6555C27.4449 32.7877 27.5002 32.913 27.5947 33.0056Z" fill="#C6C8CC"/>
<path d="M42.9532 42.0421C43.002 41.995 43.0411 41.9387 43.0681 41.8764C43.0951 41.8142 43.1096 41.7473 43.1108 41.6794C43.1119 41.6116 43.0997 41.5442 43.0747 41.4811C43.0498 41.418 43.0127 41.3604 42.9655 41.3116L42.107 40.4249C42.0628 40.3681 42.0071 40.3212 41.9436 40.2873C41.8802 40.2534 41.8103 40.2332 41.7385 40.2281C41.6667 40.2229 41.5946 40.2328 41.527 40.2573C41.4593 40.2817 41.3975 40.3201 41.3455 40.3699C41.2936 40.4198 41.2527 40.4799 41.2255 40.5466C41.1984 40.6132 41.1855 40.6848 41.1877 40.7567C41.1899 40.8287 41.2072 40.8993 41.2385 40.9642C41.2698 41.029 41.3143 41.0865 41.3692 41.133L42.2271 42.0219C42.2925 42.0882 42.3743 42.1359 42.4641 42.1602C42.5489 42.1838 42.6384 42.1854 42.724 42.1647C42.8096 42.1441 42.8885 42.1019 42.9532 42.0421Z" fill="#C6C8CC"/>
<path d="M36.3601 35.968L39.5009 39.2147C39.5967 39.3122 39.727 39.3681 39.8636 39.3704C40.0003 39.3727 40.1324 39.3212 40.2314 39.2269C40.2802 39.1798 40.3192 39.1235 40.3463 39.0613C40.3733 38.9991 40.3878 38.9321 40.3889 38.8643C40.3901 38.7964 40.3778 38.729 40.3529 38.6659C40.328 38.6028 40.2909 38.5452 40.2437 38.4965L37.1008 35.2493C37.0029 35.1721 36.8805 35.1329 36.756 35.139C36.6315 35.145 36.5135 35.1959 36.4236 35.2822C36.3337 35.3685 36.278 35.4843 36.2669 35.6085C36.2557 35.7326 36.2899 35.8565 36.363 35.9574L36.3601 35.968Z" fill="#C6C8CC"/>
<path d="M32.4391 31.9145L34.2271 33.7524C34.2915 33.8201 34.3733 33.8687 34.4636 33.8927C34.5729 33.9223 34.6889 33.9152 34.7937 33.8723C34.8986 33.8295 34.9864 33.7534 35.0438 33.6557C35.1011 33.5581 35.1247 33.4442 35.111 33.3318C35.0972 33.2194 35.0469 33.1146 34.9678 33.0336L33.1818 31.1963C33.1384 31.1371 33.0828 31.0878 33.0188 31.0518C32.9548 31.0158 32.8838 30.9939 32.8107 30.9875C32.7375 30.9811 32.6638 30.9904 32.5945 31.0147C32.5252 31.0391 32.4619 31.0779 32.4089 31.1287C32.3558 31.1794 32.3142 31.2409 32.2867 31.3091C32.2593 31.3772 32.2468 31.4504 32.2499 31.5238C32.253 31.5971 32.2718 31.669 32.3049 31.7346C32.338 31.8001 32.3847 31.8578 32.4419 31.9039L32.4391 31.9145Z" fill="#C6C8CC"/>
<path d="M37.4897 31.7187L44.3817 40.0582C44.4233 40.1151 44.476 40.1628 44.5367 40.1985C44.5973 40.2343 44.6646 40.2572 44.7345 40.2659C44.8044 40.2747 44.8753 40.269 44.9429 40.2493C45.0104 40.2297 45.0733 40.1964 45.1276 40.1515C45.1818 40.1066 45.2263 40.0512 45.2583 39.9885C45.2903 39.9258 45.3092 39.8572 45.3137 39.7869C45.3183 39.7167 45.3084 39.6462 45.2847 39.5799C45.261 39.5136 45.224 39.4529 45.176 39.4014L38.2851 31.0577C38.1974 30.9522 38.0714 30.8859 37.9349 30.8733C37.7983 30.8607 37.6623 30.9029 37.5569 30.9905C37.4514 31.0782 37.3851 31.2041 37.3725 31.3407C37.3599 31.4773 37.402 31.6133 37.4897 31.7187Z" fill="#C6C8CC"/>
<path d="M45.7062 36.8644L46.6761 38.2567C46.7598 38.3549 46.8772 38.4182 47.0052 38.4342C47.1332 38.4502 47.2626 38.4176 47.3678 38.343C47.4731 38.2683 47.5465 38.157 47.5738 38.0309C47.601 37.9048 47.58 37.773 47.515 37.6616L46.5422 36.28C46.5049 36.2211 46.456 36.1704 46.3985 36.1309C46.341 36.0915 46.2761 36.0642 46.2077 36.0507C46.1393 36.0371 46.0689 36.0376 46.0007 36.0522C45.9325 36.0667 45.868 36.095 45.811 36.1353C45.7541 36.1755 45.706 36.2269 45.6695 36.2864C45.6331 36.3459 45.6092 36.4121 45.5992 36.4811C45.5891 36.5501 45.5933 36.6204 45.6113 36.6878C45.6293 36.7551 45.6608 36.8181 45.7039 36.8729L45.7062 36.8644Z" fill="#C6C8CC"/>
<path d="M43.3769 33.5475C43.4472 33.6453 43.5491 33.7158 43.6654 33.7471C43.7677 33.7755 43.8763 33.7716 43.9763 33.7358C44.0762 33.7 44.1626 33.6341 44.2237 33.5472C44.2847 33.4603 44.3173 33.3566 44.317 33.2504C44.3167 33.1442 44.2836 33.0408 44.2221 32.9542L41.8567 29.6028C41.773 29.5046 41.6556 29.4412 41.5276 29.4252C41.3996 29.4093 41.2702 29.4418 41.165 29.5164C41.0598 29.5911 40.9863 29.7024 40.9591 29.8286C40.9318 29.9547 40.9528 30.0864 41.0179 30.1978L43.3769 33.5475Z" fill="#C6C8CC"/>
<path d="M49.4281 36.8607C49.5273 36.8874 49.6322 36.8839 49.7294 36.8507C49.8266 36.8174 49.9116 36.7559 49.9737 36.6741C50.0357 36.5922 50.072 36.4937 50.0777 36.3912C50.0835 36.2886 50.0585 36.1867 50.006 36.0984L47.8647 32.4854C47.8317 32.4244 47.7866 32.3706 47.7323 32.3274C47.678 32.2842 47.6155 32.2523 47.5486 32.2338C47.4817 32.2153 47.4117 32.2104 47.3429 32.2196C47.2741 32.2287 47.2078 32.2516 47.148 32.287C47.0883 32.3223 47.0362 32.3694 46.9951 32.4253C46.9539 32.4812 46.9245 32.5448 46.9085 32.6124C46.8925 32.6799 46.8903 32.75 46.902 32.8185C46.9137 32.8869 46.9391 32.9523 46.9767 33.0107L49.1174 36.6257C49.186 36.7419 49.2976 36.8264 49.4281 36.8607Z" fill="#C6C8CC"/>
<path d="M51.7184 35.1848C51.7829 35.3001 51.8891 35.3862 52.0152 35.4255C52.1412 35.4648 52.2776 35.4543 52.3961 35.3961C52.5147 35.3379 52.6065 35.2366 52.6526 35.1128C52.6987 34.9891 52.6956 34.8523 52.644 34.7308L45.2207 19.584C45.1909 19.5231 45.1494 19.4687 45.0986 19.4238C45.0478 19.3789 44.9886 19.3444 44.9245 19.3224C44.8604 19.3004 44.7925 19.2912 44.7248 19.2954C44.6572 19.2996 44.591 19.3171 44.5301 19.3469C44.4692 19.3767 44.4147 19.4181 44.3698 19.469C44.3249 19.5198 44.2905 19.5789 44.2685 19.6431C44.2465 19.7072 44.2373 19.775 44.2415 19.8427C44.2457 19.9104 44.2632 19.9766 44.2929 20.0375L51.7184 35.1848Z" fill="#C6C8CC"/>
<path d="M54.7112 34.2588C54.8035 34.2839 54.901 34.2828 54.9927 34.2556C55.0844 34.2284 55.1667 34.1761 55.2303 34.1047C55.2939 34.0332 55.3363 33.9455 55.3528 33.8513C55.3692 33.757 55.3591 33.6601 55.3235 33.5713L54.87 32.4239C54.8171 32.3004 54.7181 32.2024 54.5941 32.1507C54.47 32.099 54.3307 32.0977 54.2058 32.1471C54.0808 32.1964 53.98 32.2926 53.9248 32.4151C53.8696 32.5375 53.8643 32.6767 53.9101 32.8031L54.3657 33.951C54.3952 34.0258 54.4419 34.0925 54.5019 34.146C54.5619 34.1994 54.6336 34.2381 54.7112 34.2588Z" fill="#C6C8CC"/>
<path d="M52.92 30.3116C52.9485 30.388 52.9945 30.4567 53.0544 30.5121C53.1143 30.5675 53.1864 30.608 53.2648 30.6304C53.3716 30.6595 53.485 30.6525 53.5873 30.6104C53.6505 30.5857 53.7081 30.5488 53.757 30.5017C53.8058 30.4546 53.8449 30.3983 53.8719 30.3361C53.8989 30.2738 53.9133 30.2069 53.9143 30.139C53.9153 30.0712 53.9028 30.0039 53.8776 29.9409L52.2133 25.731C52.1616 25.6034 52.0614 25.5014 51.9345 25.4477C51.8077 25.394 51.6648 25.3928 51.5371 25.4445C51.4094 25.4962 51.3075 25.5965 51.2538 25.7233C51.2001 25.8501 51.1989 25.9931 51.2506 26.1208L52.92 30.3116Z" fill="#C6C8CC"/>
<path d="M50.1217 23.2593C50.1496 23.3357 50.1952 23.4044 50.2548 23.4597C50.3144 23.5151 50.3862 23.5555 50.4645 23.5776C50.5719 23.6069 50.6859 23.6001 50.789 23.5582C50.916 23.5074 51.0177 23.4084 51.0718 23.2827C51.1258 23.1571 51.1278 23.0151 51.0773 22.8881L50.131 20.5034C50.078 20.3799 49.9791 20.2819 49.855 20.2302C49.731 20.1785 49.5917 20.1772 49.4668 20.2266C49.3418 20.276 49.241 20.3721 49.1858 20.4946C49.1306 20.6171 49.1253 20.7563 49.1711 20.8826L50.1217 23.2593Z" fill="#C6C8CC"/>
<path d="M57.1136 32.9504C57.1395 33.0337 57.1862 33.1092 57.2492 33.1696C57.3122 33.2301 57.3895 33.2736 57.4739 33.296C57.5674 33.3205 57.6659 33.3186 57.7584 33.2907C57.8889 33.2502 57.9981 33.1596 58.0619 33.0387C58.1257 32.9178 58.1389 32.7765 58.0988 32.6459L54.9059 22.3082C54.8859 22.2434 54.8534 22.1831 54.8101 22.1309C54.7669 22.0786 54.7138 22.0354 54.6538 22.0037C54.5939 21.9719 54.5283 21.9523 54.4608 21.9459C54.3932 21.9396 54.3251 21.9466 54.2603 21.9665C54.1955 21.9865 54.1352 22.019 54.0829 22.0622C54.0307 22.1055 53.9874 22.1586 53.9557 22.2185C53.924 22.2785 53.9044 22.3441 53.898 22.4116C53.8916 22.4792 53.8986 22.5473 53.9186 22.6121L57.1136 32.9504Z" fill="#C6C8CC"/>
<path d="M59.9259 32.1572C59.9461 32.2494 59.9913 32.3342 60.0565 32.4024C60.1217 32.4706 60.2044 32.5196 60.2956 32.5439C60.3815 32.5663 60.4716 32.5664 60.5575 32.544C60.6433 32.5216 60.722 32.4776 60.786 32.4161C60.85 32.3546 60.8971 32.2777 60.9228 32.1928C60.9486 32.1079 60.9521 32.0178 60.9331 31.9311L60.5618 30.2826C60.5295 30.1515 60.4471 30.0383 60.3322 29.9672C60.2174 29.8962 60.0793 29.873 59.9475 29.9025C59.8158 29.9321 59.7009 30.0121 59.6274 30.1254C59.554 30.2388 59.5278 30.3763 59.5546 30.5087L59.9259 32.1572Z" fill="#C6C8CC"/>
<path d="M58.666 26.5565C58.6864 26.6485 58.7317 26.733 58.7971 26.8009C58.8624 26.8687 58.9452 26.9173 59.0363 26.9411C59.1165 26.9633 59.2009 26.9649 59.2819 26.9457C59.3481 26.9312 59.4108 26.9038 59.4663 26.8649C59.5219 26.8261 59.5692 26.7767 59.6056 26.7195C59.6419 26.6623 59.6666 26.5985 59.6782 26.5317C59.6899 26.465 59.6882 26.3965 59.6732 26.3304L58.7723 22.3229C58.7399 22.1918 58.6575 22.0786 58.5427 22.0075C58.4278 21.9365 58.2897 21.9133 58.158 21.9428C58.0262 21.9724 57.9113 22.0524 57.8379 22.1657C57.7644 22.279 57.7383 22.4166 57.7651 22.549L58.666 26.5565Z" fill="#C6C8CC"/>
<path d="M63.3732 32.021C63.5085 32.0009 63.6304 31.9282 63.7124 31.8187C63.7943 31.7091 63.8297 31.5716 63.8107 31.4361L63.2103 27.2872C63.191 27.152 63.1187 27.03 63.0094 26.948C62.9002 26.8661 62.7628 26.8309 62.6276 26.8502C62.4924 26.8696 62.3704 26.9418 62.2884 27.0511C62.2065 27.1604 62.1713 27.2977 62.1906 27.4329L62.7861 31.5919C62.7957 31.659 62.8185 31.7236 62.8531 31.7819C62.8877 31.8403 62.9335 31.8912 62.9878 31.9318C63.0421 31.9725 63.1039 32.002 63.1696 32.0187C63.2354 32.0355 63.3038 32.0391 63.3709 32.0294L63.3732 32.021Z" fill="#C6C8CC"/>
<path d="M65.7293 31.2483C65.7356 31.3561 65.7757 31.4592 65.8439 31.5429C65.9121 31.6266 66.005 31.6867 66.1093 31.7147C66.1632 31.729 66.2189 31.7347 66.2746 31.7318C66.4117 31.7231 66.5397 31.6604 66.6306 31.5573C66.7215 31.4543 66.7678 31.3194 66.7592 31.1823L65.7031 14.3491C65.702 14.2793 65.6868 14.2105 65.6583 14.1467C65.6299 14.083 65.5888 14.0257 65.5375 13.9783C65.4863 13.9309 65.426 13.8944 65.3602 13.8709C65.2945 13.8475 65.2246 13.8377 65.155 13.842C65.0853 13.8463 65.0172 13.8647 64.9549 13.8961C64.8925 13.9275 64.8372 13.9712 64.7922 14.0245C64.7472 14.0779 64.7135 14.1399 64.6932 14.2066C64.6728 14.2734 64.6662 14.3436 64.6737 14.413L65.7293 31.2483Z" fill="#C6C8CC"/>
<path d="M68.6635 29.8989L68.6433 31.1322C68.6412 31.2474 68.6778 31.36 68.7471 31.452C68.8164 31.5441 68.9145 31.6103 69.0258 31.6401C69.0663 31.6513 69.1082 31.6572 69.1502 31.6576C69.2871 31.66 69.4193 31.608 69.5179 31.5129C69.6164 31.4178 69.6731 31.2875 69.6756 31.1506L69.6958 29.9173C69.6977 29.8491 69.6861 29.7811 69.6616 29.7174C69.6371 29.6537 69.6002 29.5955 69.5531 29.5462C69.506 29.4968 69.4495 29.4573 69.387 29.4299C69.3245 29.4025 69.2572 29.3878 69.189 29.3866C69.1207 29.3853 69.0529 29.3977 68.9895 29.4228C68.926 29.448 68.8682 29.4854 68.8193 29.5331C68.7705 29.5807 68.7315 29.6376 68.7048 29.7004C68.6781 29.7632 68.664 29.8306 68.6635 29.8989Z" fill="#C6C8CC"/>
<path d="M68.7831 22.6998L68.7072 27.2088C68.702 27.3261 68.737 27.4416 68.8063 27.5364C68.8756 27.6311 68.9751 27.6994 69.0885 27.73C69.13 27.7405 69.1727 27.7458 69.2155 27.7459C69.2846 27.7476 69.3533 27.7353 69.4176 27.7099C69.4818 27.6844 69.5402 27.6463 69.5894 27.5977C69.6385 27.5492 69.6774 27.4912 69.7037 27.4273C69.7299 27.3634 69.743 27.2948 69.7422 27.2257L69.818 22.7167C69.8238 22.6463 69.8151 22.5755 69.7925 22.5086C69.7698 22.4417 69.7337 22.3802 69.6863 22.3279C69.6389 22.2755 69.5813 22.2334 69.517 22.2042C69.4527 22.175 69.3831 22.1593 69.3125 22.1581C69.2419 22.1569 69.1718 22.1701 69.1065 22.1971C69.0412 22.2241 68.9822 22.2641 68.933 22.3148C68.8838 22.3655 68.8456 22.4257 68.8206 22.4918C68.7956 22.5578 68.7845 22.6283 68.7879 22.6988L68.7831 22.6998Z" fill="#C6C8CC"/>
<path d="M68.8331 19.631C68.831 19.7458 68.8673 19.858 68.9362 19.9499C69.0051 20.0418 69.1027 20.1081 69.2135 20.1383C69.2549 20.1486 69.2973 20.1546 69.34 20.1563C69.4078 20.1573 69.4753 20.1449 69.5383 20.1199C69.6014 20.0948 69.6589 20.0575 69.7076 20.0102C69.7562 19.9628 69.7951 19.9064 69.8219 19.844C69.8487 19.7816 69.8629 19.7146 69.8638 19.6467L69.9065 17.0787C69.9115 17.0086 69.9022 16.9383 69.8791 16.8719C69.856 16.8056 69.8196 16.7447 69.7721 16.6929C69.7246 16.6411 69.6671 16.5995 69.603 16.5708C69.5389 16.542 69.4697 16.5266 69.3994 16.5255C69.3292 16.5244 69.2595 16.5377 69.1945 16.5645C69.1296 16.5913 69.0708 16.6311 69.0218 16.6814C68.9728 16.7317 68.9345 16.7915 68.9094 16.8571C68.8843 16.9227 68.8728 16.9928 68.8757 17.063L68.8331 19.631Z" fill="#C6C8CC"/>
<path d="M71.5659 31.2631C71.5521 31.3853 71.5826 31.5083 71.6517 31.6099C71.7209 31.7116 71.8242 31.785 71.9429 31.817C71.9697 31.8265 71.9973 31.8339 72.0253 31.8391C72.0927 31.8459 72.1608 31.8393 72.2256 31.8197C72.2905 31.8001 72.3508 31.7679 72.4032 31.7249C72.4555 31.6819 72.4989 31.6289 72.5307 31.5691C72.5625 31.5093 72.5822 31.4438 72.5886 31.3763L73.6157 20.6045C73.6222 20.4719 73.5774 20.3418 73.4906 20.2414C73.4037 20.1409 73.2815 20.0778 73.1493 20.0651C73.0171 20.0524 72.8851 20.0912 72.7808 20.1733C72.6764 20.2554 72.6077 20.3746 72.589 20.506L71.5659 31.2631Z" fill="#C6C8CC"/>
<path d="M74.7542 29.9456L74.4641 31.6117C74.4409 31.7384 74.4664 31.8692 74.5355 31.978C74.6046 32.0868 74.7122 32.1655 74.8368 32.1984L74.8811 32.2103C74.9477 32.2222 75.016 32.2208 75.0821 32.2062C75.1482 32.1916 75.2107 32.1641 75.2661 32.1253C75.3215 32.0865 75.3687 32.0372 75.4051 31.9801C75.4414 31.923 75.466 31.8593 75.4777 31.7927L75.7699 30.1272C75.7893 29.9944 75.7561 29.8592 75.6775 29.7505C75.5989 29.6417 75.481 29.5678 75.3489 29.5444C75.2167 29.5211 75.0806 29.5501 74.9695 29.6254C74.8584 29.7007 74.781 29.8163 74.7536 29.9477L74.7542 29.9456Z" fill="#C6C8CC"/>
<path d="M75.8266 26.5438L75.8731 26.5563C76.0078 26.5792 76.1462 26.5479 76.258 26.4693C76.3698 26.3907 76.4461 26.2711 76.4702 26.1365L77.1782 22.0913C77.1975 21.9585 77.1643 21.8234 77.0857 21.7146C77.0071 21.6058 76.8892 21.5319 76.7571 21.5085C76.6249 21.4852 76.4888 21.5142 76.3777 21.5895C76.2666 21.6648 76.1892 21.7804 76.1618 21.9118L75.4533 25.9592C75.4318 26.0856 75.4581 26.2155 75.5271 26.3235C75.5961 26.4316 75.7029 26.5101 75.8266 26.5438Z" fill="#C6C8CC"/>
<path d="M77.7019 32.8144C77.7674 32.8313 77.8357 32.8352 77.9027 32.8257C77.9697 32.8162 78.0342 32.7936 78.0925 32.7592C78.1508 32.7247 78.2016 32.679 78.2422 32.6249C78.2828 32.5707 78.3123 32.509 78.329 32.4434L79.3716 28.3746C79.3895 28.309 79.3941 28.2404 79.3851 28.173C79.3761 28.1055 79.3537 28.0405 79.3191 27.9819C79.2846 27.9233 79.2387 27.8721 79.1841 27.8315C79.1295 27.7909 79.0673 27.7616 79.0012 27.7454C78.9355 27.7287 78.8672 27.7251 78.8001 27.7348C78.733 27.7445 78.6684 27.7673 78.6101 27.802C78.5519 27.8366 78.501 27.8824 78.4604 27.9367C78.4198 27.991 78.3903 28.0528 78.3736 28.1185L77.3309 32.1873C77.3137 32.2528 77.3096 32.3212 77.3189 32.3883C77.3283 32.4554 77.3508 32.52 77.3854 32.5784C77.4199 32.6367 77.4656 32.6876 77.52 32.7281C77.5743 32.7686 77.6361 32.7979 77.7019 32.8144Z" fill="#C6C8CC"/>
<path d="M80.5175 33.6571L80.5513 33.6661C80.6777 33.7003 80.8122 33.6849 80.9276 33.6233C81.043 33.5616 81.1306 33.4583 81.1724 33.3343L86.6252 17.371C86.6695 17.2415 86.6605 17.0996 86.6003 16.9766C86.54 16.8537 86.4333 16.7597 86.3038 16.7154C86.1742 16.671 86.0323 16.68 85.9094 16.7403C85.7864 16.8005 85.6924 16.9072 85.6481 17.0368L80.1954 33.0001C80.1732 33.0643 80.164 33.1324 80.1682 33.2002C80.1724 33.2681 80.19 33.3345 80.2199 33.3955C80.2499 33.4566 80.2916 33.5111 80.3426 33.556C80.3937 33.6009 80.4531 33.6352 80.5175 33.6571Z" fill="#C6C8CC"/>
<path d="M83.2133 34.6853C83.2366 34.6937 83.2607 34.7001 83.2851 34.7045C83.4041 34.7363 83.5306 34.7244 83.6416 34.6711C83.7527 34.6178 83.841 34.5266 83.8907 34.4138L84.3799 33.2812C84.4342 33.1556 84.4365 33.0134 84.3861 32.8861C84.3357 32.7588 84.2368 32.6567 84.1111 32.6023C83.9854 32.5479 83.8433 32.5456 83.716 32.596C83.5886 32.6464 83.4865 32.7454 83.4322 32.871L82.9424 34.0057C82.9154 34.0681 82.9011 34.1352 82.9001 34.2032C82.8991 34.2711 82.9116 34.3386 82.9367 34.4018C82.9619 34.4649 82.9993 34.5224 83.0467 34.5711C83.0942 34.6197 83.1508 34.6585 83.2133 34.6853Z" fill="#C6C8CC"/>
<path d="M84.7622 31.094C84.7855 31.1025 84.8096 31.1089 84.834 31.1133C84.9533 31.1457 85.0802 31.1342 85.1917 31.081C85.3032 31.0277 85.3919 30.9363 85.4417 30.8232L87.2328 26.6741C87.2611 26.6117 87.2765 26.5442 87.2784 26.4756C87.2803 26.4071 87.2684 26.3388 87.2436 26.2749C87.2188 26.211 87.1815 26.1526 87.1339 26.1033C87.0864 26.0539 87.0294 26.0145 86.9664 25.9874C86.9034 25.9603 86.8357 25.946 86.7671 25.9454C86.6985 25.9448 86.6305 25.9578 86.5671 25.9837C86.5036 26.0097 86.4459 26.048 86.3974 26.0965C86.3489 26.145 86.3105 26.2026 86.2846 26.2661L84.494 30.413C84.4667 30.4753 84.452 30.5424 84.4507 30.6104C84.4494 30.6784 84.4616 30.746 84.4865 30.8093C84.5114 30.8725 84.5486 30.9303 84.5959 30.9792C84.6432 31.028 84.6997 31.0671 84.7622 31.094Z" fill="#C6C8CC"/>
<path d="M87.7654 24.1287L87.8393 24.1485C87.9584 24.1807 88.085 24.1691 88.1962 24.1157C88.3073 24.0624 88.3956 23.9708 88.4449 23.8578L89.462 21.4988C89.5133 21.3736 89.5133 21.2332 89.4621 21.108C89.4109 20.9827 89.3126 20.8825 89.1883 20.829C89.064 20.7755 88.9237 20.773 88.7975 20.8219C88.6713 20.8709 88.5694 20.9674 88.5137 21.0907L87.4972 23.4476C87.4699 23.5099 87.4552 23.577 87.4539 23.645C87.4527 23.713 87.4648 23.7806 87.4897 23.8439C87.5147 23.9072 87.5518 23.9649 87.5992 24.0138C87.6465 24.0627 87.703 24.1017 87.7654 24.1287Z" fill="#C6C8CC"/>
<path d="M85.8055 35.9392C85.8653 35.971 85.9307 35.9906 85.9981 35.997C86.0654 36.0034 86.1334 35.9965 86.1981 35.9766C86.2627 35.9567 86.3228 35.9242 86.3749 35.881C86.427 35.8378 86.4701 35.7847 86.5016 35.7249L91.5565 26.1568C91.6076 26.0369 91.6114 25.902 91.5672 25.7793C91.523 25.6567 91.434 25.5553 91.3181 25.4955C91.2022 25.4358 91.0679 25.4221 90.9424 25.4573C90.8168 25.4925 90.7092 25.5738 90.6411 25.6851L85.5868 35.251C85.5261 35.3716 85.515 35.5111 85.5558 35.6397C85.5967 35.7683 85.6864 35.8759 85.8055 35.9392Z" fill="#C6C8CC"/>
<path d="M88.1419 36.6603C88.1038 36.7175 88.0775 36.7819 88.0647 36.8494C88.0518 36.917 88.0527 36.9865 88.0672 37.0537C88.0817 37.121 88.1096 37.1846 88.1491 37.2409C88.1887 37.2972 88.2391 37.3449 88.2974 37.3814C88.3421 37.4093 88.3905 37.4307 88.4412 37.4448C88.5476 37.4728 88.66 37.4662 88.7624 37.426C88.8647 37.3859 88.9517 37.3142 89.0106 37.2215L89.9139 35.7944C89.9537 35.7373 89.9815 35.6726 89.9956 35.6044C90.0098 35.5363 90.01 35.4659 89.9962 35.3976C89.9825 35.3294 89.9551 35.2646 89.9156 35.2072C89.8762 35.1498 89.8256 35.1009 89.7668 35.0636C89.708 35.0263 89.6422 35.0013 89.5735 34.99C89.5047 34.9788 89.4344 34.9816 89.3668 34.9982C89.2992 35.0149 89.2356 35.045 89.18 35.0869C89.1243 35.1287 89.0777 35.1814 89.0429 35.2417L88.1419 36.6603Z" fill="#C6C8CC"/>
<path d="M91.3835 32.524C91.4282 32.552 91.4766 32.5733 91.5273 32.5875C91.6336 32.6154 91.7461 32.6088 91.8485 32.5687C91.9508 32.5285 92.0378 32.4569 92.0967 32.3641L94.2945 28.8947C94.3343 28.8376 94.3621 28.7729 94.3763 28.7047C94.3904 28.6366 94.3906 28.5662 94.3769 28.4979C94.3632 28.4297 94.3357 28.3649 94.2963 28.3075C94.2569 28.2501 94.2062 28.2012 94.1474 28.1639C94.0886 28.1266 94.0229 28.1016 93.9541 28.0903C93.8854 28.0791 93.8151 28.0819 93.7475 28.0985C93.6799 28.1152 93.6163 28.1453 93.5606 28.1872C93.505 28.229 93.4583 28.2817 93.4235 28.342L91.2252 31.8135C91.1888 31.8705 91.1641 31.9342 91.1524 32.0008C91.1407 32.0674 91.1422 32.1356 91.1569 32.2016C91.1716 32.2676 91.1992 32.3301 91.2381 32.3854C91.277 32.4407 91.3264 32.4878 91.3835 32.524Z" fill="#C6C8CC"/>
<path d="M90.6631 39.0162C90.7153 39.0552 90.7744 39.0841 90.8373 39.1014C90.9368 39.1281 91.042 39.1244 91.1394 39.0907C91.2368 39.0571 91.3219 38.9951 91.3838 38.9127L93.9056 35.5528C93.9463 35.4985 93.9759 35.4368 93.9928 35.3711C94.0096 35.3055 94.0134 35.2371 94.0038 35.17C93.9942 35.1029 93.9715 35.0383 93.937 34.9799C93.9025 34.9216 93.8568 34.8706 93.8026 34.8299C93.7484 34.7892 93.6867 34.7596 93.621 34.7427C93.5553 34.7259 93.487 34.7221 93.4199 34.7317C93.3527 34.7413 93.2881 34.7639 93.2298 34.7985C93.1714 34.833 93.1205 34.8787 93.0798 34.9329L90.5601 38.2934C90.5194 38.3476 90.4897 38.4093 90.4729 38.475C90.456 38.5407 90.4523 38.609 90.4618 38.6761C90.4714 38.7433 90.4941 38.8079 90.5286 38.8662C90.5631 38.9246 90.6088 38.9755 90.6631 39.0162Z" fill="#C6C8CC"/>
<path d="M92.9259 40.8569C92.9864 40.9085 93.0575 40.9461 93.1342 40.967C93.2267 40.9919 93.3242 40.9905 93.4159 40.9631C93.5077 40.9357 93.59 40.8833 93.6536 40.8118L104.821 28.1666C104.903 28.063 104.943 27.9318 104.931 27.8001C104.92 27.6683 104.858 27.546 104.759 27.4584C104.66 27.3709 104.531 27.3247 104.398 27.3294C104.266 27.3342 104.141 27.3895 104.048 27.4839L92.8809 40.1292C92.7905 40.2317 92.7445 40.3659 92.753 40.5023C92.7614 40.6387 92.8236 40.7662 92.9259 40.8569Z" fill="#C6C8CC"/>
<path d="M95.2482 42.9828C95.3338 43.0047 95.4236 43.0043 95.509 42.9816C95.5944 42.9589 95.6725 42.9146 95.7359 42.8531L96.6221 41.9967C96.6813 41.9532 96.7306 41.8976 96.7666 41.8336C96.8026 41.7696 96.8245 41.6987 96.8309 41.6255C96.8373 41.5524 96.828 41.4787 96.8037 41.4094C96.7793 41.3401 96.7405 41.2768 96.6897 41.2237C96.639 41.1707 96.5775 41.129 96.5093 41.1016C96.4412 41.0742 96.368 41.0616 96.2946 41.0648C96.2213 41.0679 96.1494 41.0866 96.0839 41.1197C96.0183 41.1529 95.9606 41.1996 95.9145 41.2568L95.0256 42.1147C94.9605 42.1779 94.9132 42.2572 94.8885 42.3446C94.8638 42.4319 94.8625 42.5243 94.8849 42.6123C94.9072 42.7002 94.9524 42.7808 95.0158 42.8457C95.0792 42.9107 95.1587 42.9578 95.2461 42.9823L95.2482 42.9828Z" fill="#C6C8CC"/>
<path d="M98.0634 40.2609C98.149 40.2831 98.2388 40.2827 98.3243 40.26C98.4097 40.2373 98.4878 40.1929 98.5511 40.1312L101.804 36.9921C101.903 36.8968 101.959 36.7664 101.962 36.6294C101.964 36.4924 101.912 36.3601 101.816 36.2616C101.721 36.1631 101.591 36.1065 101.454 36.1042C101.317 36.1019 101.184 36.1541 101.086 36.2493L97.8387 39.3922C97.7736 39.4555 97.7262 39.5348 97.7015 39.6221C97.6768 39.7095 97.6756 39.8018 97.6979 39.8898C97.7203 39.9778 97.7655 40.0583 97.8289 40.1233C97.8923 40.1882 97.9717 40.2353 98.0592 40.2598L98.0634 40.2609Z" fill="#C6C8CC"/>
<path d="M103.279 34.853C103.325 34.902 103.381 34.9411 103.444 34.9683C103.506 34.9954 103.573 35.0099 103.64 35.011C103.708 35.0121 103.775 34.9997 103.838 34.9746C103.901 34.9495 103.959 34.9121 104.007 34.8647L105.844 33.0788C105.903 33.0353 105.953 32.9797 105.989 32.9157C106.025 32.8517 106.047 32.7807 106.053 32.7076C106.059 32.6344 106.05 32.5607 106.026 32.4915C106.001 32.4222 105.963 32.3589 105.912 32.3058C105.861 32.2527 105.8 32.2111 105.731 32.1837C105.663 32.1563 105.59 32.1437 105.517 32.1468C105.443 32.15 105.372 32.1687 105.306 32.2018C105.24 32.2349 105.183 32.2816 105.137 32.3388L103.299 34.1269C103.2 34.2206 103.142 34.3496 103.138 34.4858C103.135 34.6219 103.185 34.754 103.279 34.853Z" fill="#C6C8CC"/>
<path d="M96.9299 44.9983C97.0173 45.103 97.1426 45.1688 97.2784 45.1815C97.4142 45.1941 97.5495 45.1525 97.6547 45.0657L105.996 38.1742C106.1 38.0863 106.165 37.961 106.177 37.8257C106.188 37.6903 106.146 37.5557 106.06 37.4511C105.973 37.3465 105.848 37.2803 105.713 37.2669C105.578 37.2535 105.443 37.2939 105.337 37.3794L96.999 44.2672C96.9461 44.3104 96.9024 44.3637 96.8702 44.424C96.8381 44.4843 96.8182 44.5503 96.8118 44.6183C96.8054 44.6863 96.8125 44.7549 96.8328 44.8202C96.8531 44.8854 96.8861 44.9459 96.9299 44.9983Z" fill="#C6C8CC"/>
<path d="M98.9712 47.4884C99.044 47.5082 99.1203 47.5118 99.1946 47.4988C99.2689 47.4859 99.3395 47.4567 99.4012 47.4134L100.793 46.4435C100.889 46.3593 100.95 46.2427 100.965 46.116C100.98 45.9894 100.948 45.8617 100.874 45.7576C100.801 45.6535 100.691 45.5803 100.567 45.5522C100.442 45.524 100.312 45.5429 100.201 45.6052L98.8083 46.5751C98.7276 46.631 98.6645 46.7089 98.6266 46.7996C98.5888 46.8902 98.5777 46.9898 98.5946 47.0865C98.6116 47.1833 98.6559 47.2732 98.7223 47.3455C98.7888 47.4179 98.8746 47.4696 98.9695 47.4948L98.9712 47.4884Z" fill="#C6C8CC"/>
<path d="M103.381 43.9867C103.42 44.0423 103.47 44.0895 103.527 44.1259C103.584 44.1622 103.648 44.1869 103.715 44.1985C103.781 44.21 103.85 44.2083 103.916 44.1933C103.982 44.1784 104.044 44.1505 104.1 44.1113L107.461 41.7509C107.523 41.7148 107.577 41.6661 107.619 41.6082C107.661 41.5502 107.69 41.484 107.705 41.414C107.721 41.344 107.721 41.2716 107.707 41.2014C107.692 41.1312 107.663 41.0648 107.622 41.0064C107.58 40.9479 107.527 40.8988 107.466 40.862C107.404 40.8252 107.336 40.8017 107.265 40.7928C107.194 40.7839 107.122 40.7899 107.053 40.8105C106.984 40.831 106.921 40.8656 106.866 40.912L103.504 43.2746C103.395 43.3536 103.32 43.4724 103.297 43.6056C103.274 43.7387 103.305 43.8756 103.381 43.9867Z" fill="#C6C8CC"/>
<path d="M100.956 49.8952L104.568 47.7539C104.63 47.7208 104.683 47.6758 104.727 47.6215C104.77 47.5671 104.802 47.5046 104.82 47.4377C104.839 47.3708 104.843 47.3009 104.834 47.232C104.825 47.1632 104.802 47.0969 104.767 47.0372C104.732 46.9774 104.685 46.9254 104.629 46.8842C104.573 46.8431 104.509 46.8136 104.442 46.7976C104.374 46.7816 104.304 46.7794 104.235 46.7911C104.167 46.8029 104.102 46.8283 104.043 46.8658L100.428 49.0066C100.31 49.0754 100.224 49.1882 100.188 49.3205C100.153 49.4527 100.171 49.5935 100.239 49.7123C100.308 49.8285 100.419 49.913 100.55 49.9473C100.617 49.9663 100.688 49.9715 100.758 49.9626C100.828 49.9536 100.895 49.9307 100.956 49.8952Z" fill="#C6C8CC"/>
<path d="M101.636 52.2902C101.668 52.3566 101.714 52.4152 101.77 52.4621C101.827 52.509 101.893 52.5429 101.965 52.5615C102.085 52.5942 102.213 52.5818 102.325 52.5267L117.472 45.1013C117.537 45.0739 117.595 45.0336 117.644 44.9829C117.692 44.9322 117.73 44.8721 117.754 44.8064C117.779 44.7406 117.79 44.6706 117.786 44.6005C117.783 44.5304 117.765 44.4618 117.734 44.3988C117.703 44.3358 117.66 44.2798 117.606 44.2341C117.553 44.1885 117.491 44.1542 117.424 44.1333C117.357 44.1124 117.287 44.1054 117.217 44.1127C117.147 44.12 117.079 44.1414 117.018 44.1757L101.871 51.599C101.749 51.6595 101.655 51.7663 101.611 51.8959C101.567 52.0255 101.576 52.1674 101.636 52.2902Z" fill="#C6C8CC"/>
<path d="M104.253 53.7998L103.107 54.256C102.984 54.3089 102.886 54.4079 102.834 54.5319C102.782 54.6559 102.781 54.7952 102.83 54.9202C102.88 55.0451 102.976 55.1459 103.098 55.2012C103.221 55.2564 103.36 55.2617 103.486 55.2159L104.634 54.7603C104.697 54.7353 104.755 54.698 104.804 54.6508C104.852 54.6035 104.891 54.5471 104.918 54.4848C104.945 54.4225 104.959 54.3555 104.96 54.2877C104.961 54.2199 104.949 54.1525 104.924 54.0894C104.899 54.0263 104.862 53.9688 104.814 53.9201C104.767 53.8715 104.711 53.8326 104.648 53.8057C104.586 53.7788 104.519 53.7644 104.451 53.7634C104.383 53.7624 104.316 53.7748 104.253 53.7998Z" fill="#C6C8CC"/>
<path d="M106.799 53.789C106.906 53.817 107.019 53.81 107.122 53.769L111.323 52.1024C111.389 52.0793 111.449 52.0432 111.5 51.9963C111.552 51.9493 111.593 51.8924 111.622 51.8291C111.65 51.7658 111.666 51.6973 111.668 51.6277C111.669 51.5581 111.657 51.489 111.631 51.4243C111.606 51.3597 111.567 51.3009 111.518 51.2515C111.469 51.2022 111.41 51.1632 111.346 51.1371C111.281 51.1109 111.212 51.098 111.143 51.0992C111.073 51.1004 111.005 51.1157 110.941 51.1441L106.742 52.8112C106.641 52.8514 106.556 52.9223 106.498 53.0137C106.44 53.1052 106.412 53.2126 106.418 53.3208C106.424 53.4289 106.465 53.5324 106.533 53.6164C106.601 53.7005 106.695 53.7609 106.799 53.789Z" fill="#C6C8CC"/>
<path d="M116.181 49.0651L113.795 50.0109C113.694 50.0511 113.609 50.122 113.551 50.2134C113.492 50.3049 113.465 50.4123 113.471 50.5204C113.477 50.6286 113.518 50.732 113.586 50.8161C113.654 50.9001 113.747 50.9605 113.852 50.9887C113.959 51.0173 114.073 51.0112 114.176 50.9713L116.561 50.025C116.628 50.0033 116.69 49.9681 116.743 49.9214C116.796 49.8748 116.839 49.8178 116.869 49.7539C116.899 49.69 116.916 49.6206 116.918 49.55C116.92 49.4795 116.908 49.4092 116.882 49.3435C116.856 49.2779 116.817 49.2183 116.767 49.1684C116.717 49.1185 116.657 49.0794 116.591 49.0535C116.525 49.0276 116.455 49.0155 116.385 49.0178C116.314 49.0202 116.245 49.037 116.181 49.0672L116.181 49.0651Z" fill="#C6C8CC"/>
<path d="M103.763 57.6476C103.789 57.7309 103.836 57.8064 103.899 57.8668C103.962 57.9273 104.039 57.9708 104.124 57.9932C104.217 58.019 104.316 58.0172 104.408 57.9879L114.746 54.795C114.811 54.7751 114.871 54.7426 114.923 54.6993C114.975 54.6561 115.019 54.603 115.05 54.543C115.082 54.4831 115.102 54.4174 115.108 54.3499C115.114 54.2824 115.107 54.2143 115.087 54.1494C115.067 54.0846 115.035 54.0244 114.992 53.9721C114.948 53.9198 114.895 53.8766 114.835 53.8449C114.775 53.8132 114.71 53.7935 114.642 53.7872C114.575 53.7808 114.507 53.7878 114.442 53.8077L104.104 57.0006C104.039 57.0204 103.979 57.0528 103.926 57.0961C103.874 57.1394 103.83 57.1927 103.799 57.2529C103.767 57.3131 103.747 57.3789 103.741 57.4467C103.735 57.5144 103.743 57.5827 103.763 57.6476Z" fill="#C6C8CC"/>
<path d="M106.774 60.4516C106.905 60.4193 107.018 60.3368 107.089 60.222C107.16 60.1072 107.183 59.9691 107.154 59.8373C107.124 59.7056 107.044 59.5907 106.931 59.5172C106.817 59.4437 106.68 59.4176 106.547 59.4444L104.905 59.8174C104.793 59.8427 104.692 59.9052 104.619 59.9946C104.546 60.0841 104.505 60.1955 104.502 60.311C104.5 60.4265 104.537 60.5394 104.606 60.6317C104.676 60.7239 104.774 60.7902 104.886 60.8199C104.966 60.8414 105.05 60.843 105.131 60.8246L106.774 60.4516Z" fill="#C6C8CC"/>
<path d="M114.505 57.6542L110.498 58.5552C110.43 58.5688 110.366 58.5958 110.309 58.6345C110.253 58.6731 110.204 58.7227 110.167 58.7804C110.129 58.8381 110.104 58.9026 110.092 58.9702C110.08 59.0379 110.081 59.1072 110.096 59.1743C110.111 59.2413 110.14 59.3047 110.179 59.3606C110.219 59.4166 110.27 59.4641 110.328 59.5002C110.387 59.5364 110.452 59.5605 110.52 59.5712C110.588 59.5819 110.657 59.5789 110.724 59.5624L114.727 58.6603C114.858 58.628 114.971 58.5456 115.042 58.4307C115.113 58.3159 115.137 58.1778 115.107 58.046C115.077 57.9143 114.997 57.7994 114.884 57.7259C114.771 57.6525 114.633 57.6263 114.501 57.6531L114.505 57.6542Z" fill="#C6C8CC"/>
<path d="M105.411 63.6873C105.478 63.7053 105.549 63.7096 105.618 63.6998L109.775 63.1017C109.91 63.0823 110.032 63.0101 110.114 62.9008C110.196 62.7915 110.232 62.6542 110.212 62.519C110.193 62.3837 110.121 62.2617 110.011 62.1798C109.902 62.0979 109.765 62.0627 109.629 62.082L105.471 62.6774C105.353 62.6943 105.244 62.7513 105.164 62.8389C105.083 62.9264 105.035 63.0391 105.028 63.1579C105.021 63.2766 105.056 63.3942 105.125 63.4907C105.195 63.5871 105.296 63.6566 105.411 63.6873Z" fill="#C6C8CC"/>
<path d="M105.322 66.1659C105.329 66.2737 105.369 66.3765 105.438 66.4599C105.507 66.5433 105.6 66.6031 105.704 66.6308C105.758 66.645 105.814 66.6508 105.87 66.6479L122.705 65.5923C122.775 65.5912 122.843 65.576 122.907 65.5475C122.971 65.5191 123.028 65.478 123.076 65.4267C123.123 65.3755 123.16 65.3152 123.183 65.2494C123.206 65.1837 123.216 65.1138 123.212 65.0442C123.208 64.9745 123.189 64.9064 123.158 64.8441C123.126 64.7817 123.083 64.7264 123.029 64.6814C122.976 64.6364 122.914 64.6027 122.847 64.5824C122.781 64.562 122.71 64.5554 122.641 64.5629L105.806 65.6185C105.738 65.6226 105.672 65.64 105.611 65.6697C105.55 65.6994 105.495 65.7409 105.45 65.7918C105.405 65.8426 105.371 65.9018 105.349 65.966C105.327 66.0302 105.317 66.0981 105.322 66.1659Z" fill="#C6C8CC"/>
<path d="M105.779 69.5473C105.82 69.5583 105.861 69.5642 105.903 69.5648L107.137 69.585C107.207 69.5908 107.278 69.5821 107.345 69.5594C107.412 69.5368 107.473 69.5006 107.526 69.4532C107.578 69.4059 107.62 69.3482 107.649 69.2839C107.678 69.2196 107.694 69.15 107.695 69.0794C107.697 69.0088 107.683 68.9387 107.656 68.8734C107.629 68.8082 107.589 68.7491 107.539 68.6999C107.488 68.6508 107.428 68.6125 107.362 68.5876C107.296 68.5626 107.225 68.5514 107.155 68.5548L105.919 68.534C105.794 68.5339 105.674 68.579 105.58 68.6609C105.486 68.7428 105.424 68.856 105.407 68.9795C105.39 69.1031 105.418 69.2287 105.487 69.3331C105.555 69.4374 105.659 69.5135 105.779 69.5473Z" fill="#C6C8CC"/>
<path d="M109.693 69.611C109.734 69.6222 109.776 69.6281 109.818 69.6285L114.327 69.7043C114.397 69.7101 114.468 69.7014 114.535 69.6788C114.602 69.6561 114.663 69.62 114.716 69.5726C114.768 69.5252 114.81 69.4676 114.839 69.4033C114.868 69.339 114.884 69.2694 114.885 69.1988C114.887 69.1282 114.873 69.0581 114.846 68.9928C114.819 68.9275 114.779 68.8685 114.729 68.8193C114.678 68.7701 114.618 68.7319 114.552 68.7069C114.486 68.6819 114.415 68.6708 114.345 68.6742L109.836 68.5983C109.708 68.5937 109.584 68.6364 109.487 68.718C109.389 68.7997 109.326 68.9146 109.308 69.0405C109.29 69.1664 109.32 69.2944 109.391 69.3998C109.462 69.5052 109.57 69.5804 109.693 69.611Z" fill="#C6C8CC"/>
<path d="M120.496 69.2875C120.498 69.2198 120.485 69.1525 120.461 69.0895C120.436 69.0265 120.399 68.9691 120.351 68.9204C120.304 68.8718 120.248 68.833 120.186 68.8062C120.124 68.7794 120.057 68.7652 119.989 68.7643L117.423 68.7222C117.297 68.72 117.175 68.7639 117.079 68.8457C116.983 68.9276 116.92 69.0416 116.903 69.1664C116.885 69.2912 116.914 69.4181 116.983 69.5232C117.053 69.6283 117.158 69.7044 117.28 69.737C117.321 69.7471 117.363 69.753 117.405 69.7545L119.973 69.795C120.041 69.7962 120.108 69.7841 120.171 69.7592C120.234 69.7343 120.292 69.6972 120.34 69.6501C120.389 69.6029 120.428 69.5466 120.454 69.4844C120.481 69.4222 120.496 69.3553 120.496 69.2875Z" fill="#C6C8CC"/>
<path d="M117.027 73.0412C117.033 72.9737 117.026 72.9055 117.007 72.8405C116.987 72.7756 116.954 72.7152 116.911 72.6629C116.868 72.6105 116.815 72.5671 116.755 72.5353C116.695 72.5035 116.629 72.4838 116.562 72.4773L105.792 71.4509C105.664 71.4409 105.538 71.4786 105.436 71.5567C105.335 71.6349 105.266 71.7479 105.244 71.8738C105.221 71.9997 105.246 72.1296 105.313 72.2382C105.381 72.3469 105.486 72.4266 105.609 72.4618C105.636 72.4713 105.664 72.4786 105.692 72.4839L116.464 73.5109C116.532 73.5176 116.6 73.5108 116.665 73.4907C116.731 73.4706 116.791 73.4378 116.844 73.3941C116.896 73.3503 116.939 73.2966 116.971 73.2361C117.002 73.1755 117.021 73.1092 117.027 73.0412Z" fill="#C6C8CC"/>
<path d="M105.267 75.3707L106.933 75.6608C107 75.6724 107.068 75.6708 107.134 75.656C107.2 75.6412 107.262 75.6136 107.318 75.5747C107.373 75.5358 107.42 75.4864 107.456 75.4293C107.493 75.3721 107.517 75.3085 107.529 75.2418C107.54 75.1752 107.539 75.1069 107.524 75.0409C107.509 74.9749 107.482 74.9125 107.443 74.8572C107.404 74.8018 107.354 74.7547 107.297 74.7185C107.24 74.6823 107.176 74.6577 107.11 74.6461L105.446 74.3544C105.381 74.3397 105.312 74.3381 105.246 74.3497C105.179 74.3614 105.116 74.3861 105.059 74.4223C105.002 74.4585 104.952 74.5057 104.913 74.561C104.875 74.6163 104.847 74.6787 104.832 74.7446C104.818 74.8106 104.816 74.8788 104.828 74.9453C104.839 75.0119 104.864 75.0755 104.9 75.1325C104.937 75.1896 104.984 75.2389 105.039 75.2777C105.094 75.3165 105.157 75.3441 105.223 75.3588L105.267 75.3707Z" fill="#C6C8CC"/>
<path d="M111.097 75.3431C110.966 75.3207 110.832 75.3495 110.722 75.4235C110.612 75.4975 110.534 75.6111 110.506 75.7406C110.477 75.8702 110.499 76.0058 110.568 76.1193C110.637 76.2328 110.747 76.3155 110.875 76.3502L110.919 76.3621L114.964 77.07C115.032 77.0831 115.102 77.0824 115.169 77.068C115.236 77.0536 115.3 77.0258 115.357 76.9862C115.413 76.9466 115.461 76.896 115.498 76.8375C115.534 76.779 115.559 76.7138 115.569 76.6456C115.592 76.5113 115.56 76.3737 115.482 76.2622C115.404 76.1507 115.286 76.0742 115.152 76.0491L111.097 75.3431Z" fill="#C6C8CC"/>
<path d="M104.599 78.2354L108.669 79.276C108.797 79.3016 108.931 79.2773 109.042 79.2081C109.153 79.1389 109.234 79.0299 109.268 78.9033C109.302 78.7767 109.286 78.6419 109.225 78.5262C109.163 78.4106 109.059 78.3229 108.935 78.2808L104.866 77.2381C104.734 77.2027 104.593 77.2212 104.475 77.2897C104.356 77.3581 104.27 77.4709 104.234 77.6032C104.199 77.7354 104.217 77.8763 104.286 77.9949C104.354 78.1135 104.467 78.2 104.599 78.2354Z" fill="#C6C8CC"/>
<path d="M120.015 85.5367L104.051 80.0861C103.986 80.0592 103.916 80.0459 103.846 80.047C103.775 80.0481 103.706 80.0637 103.641 80.0928C103.577 80.1218 103.519 80.1637 103.472 80.2158C103.425 80.268 103.388 80.3293 103.366 80.396C103.343 80.4627 103.334 80.5334 103.339 80.6036C103.345 80.6739 103.365 80.7423 103.398 80.8046C103.431 80.8669 103.476 80.9218 103.531 80.9659C103.586 81.01 103.649 81.0424 103.717 81.0611L119.681 86.5138L119.717 86.5234C119.845 86.5548 119.98 86.5359 120.095 86.4706C120.209 86.4054 120.295 86.2987 120.333 86.1724C120.372 86.0462 120.36 85.91 120.302 85.7919C120.243 85.6738 120.141 85.5827 120.017 85.5372L120.015 85.5367Z" fill="#C6C8CC"/>
<path d="M104.172 83.3297L103.039 82.8426C102.913 82.7886 102.771 82.7866 102.644 82.8371C102.517 82.8876 102.416 82.9864 102.362 83.1119C102.308 83.2374 102.306 83.3792 102.356 83.5061C102.407 83.633 102.506 83.7347 102.631 83.7887L103.764 84.2779C103.788 84.2866 103.812 84.2932 103.838 84.2977C103.964 84.3331 104.1 84.3187 104.216 84.2576C104.333 84.1964 104.422 84.0931 104.464 83.9687C104.507 83.8443 104.501 83.7082 104.447 83.5883C104.393 83.4683 104.295 83.3736 104.173 83.3233L104.172 83.3297Z" fill="#C6C8CC"/>
<path d="M110.378 87.1192L110.452 87.139C110.578 87.1701 110.71 87.1532 110.823 87.0917C110.937 87.0301 111.023 86.9283 111.065 86.8063C111.107 86.6843 111.102 86.551 111.05 86.4326C110.999 86.3142 110.905 86.2194 110.788 86.1667L106.638 84.3756C106.513 84.3243 106.373 84.3243 106.248 84.3755C106.122 84.4266 106.022 84.525 105.969 84.6493C105.915 84.7736 105.913 84.9139 105.962 85.0401C106.011 85.1662 106.107 85.2681 106.23 85.3238L110.378 87.1192Z" fill="#C6C8CC"/>
<path d="M115.963 88.4028L113.598 87.3841C113.472 87.3297 113.33 87.3274 113.203 87.3778C113.075 87.4282 112.973 87.5271 112.919 87.6528C112.865 87.7785 112.862 87.9206 112.913 88.0479C112.963 88.1752 113.062 88.2773 113.188 88.3317L115.547 89.3488C115.57 89.3573 115.594 89.3638 115.619 89.3681C115.744 89.3997 115.876 89.3833 115.99 89.322C116.104 89.2606 116.19 89.1589 116.233 89.0369C116.275 88.9148 116.27 88.7813 116.219 88.6628C116.168 88.5442 116.074 88.4491 115.956 88.3963L115.963 88.4028Z" fill="#C6C8CC"/>
<path d="M101.115 85.6946C101.083 85.7544 101.063 85.8198 101.057 85.8871C101.051 85.9545 101.058 86.0225 101.077 86.0871C101.097 86.1518 101.13 86.2119 101.173 86.264C101.216 86.3161 101.269 86.3591 101.329 86.3907L110.897 91.4456C110.931 91.4636 110.967 91.4777 111.004 91.4877C111.126 91.52 111.256 91.5062 111.369 91.4488C111.482 91.3915 111.57 91.2946 111.616 91.1766C111.662 91.0586 111.664 90.9278 111.62 90.8091C111.575 90.6903 111.489 90.5918 111.377 90.5325L101.811 85.4782C101.752 85.4464 101.686 85.4268 101.618 85.4205C101.551 85.4142 101.483 85.4213 101.418 85.4414C101.353 85.4615 101.293 85.4943 101.241 85.5377C101.189 85.5812 101.146 85.6345 101.115 85.6946Z" fill="#C6C8CC"/>
<path d="M99.6826 88.1915C99.6445 88.2487 99.6182 88.3131 99.6054 88.3806C99.5926 88.4482 99.5934 88.5177 99.6079 88.5849C99.6225 88.6522 99.6503 88.7158 99.6899 88.7721C99.7294 88.8284 99.7798 88.8761 99.8382 88.9126L101.267 89.8164C101.311 89.8451 101.359 89.8664 101.409 89.8793C101.528 89.911 101.655 89.8992 101.766 89.8459C101.877 89.7925 101.965 89.7012 102.015 89.5884C102.064 89.4757 102.072 89.3488 102.036 89.2309C102.001 89.113 101.924 89.0117 101.82 88.9454L100.391 88.0416C100.277 87.9681 100.139 87.9426 100.006 87.9707C99.8733 87.9988 99.7571 88.0781 99.6826 88.1915Z" fill="#C6C8CC"/>
<path d="M105.243 91.1038C105.186 91.0631 105.121 91.0344 105.053 91.0196C104.984 91.0049 104.913 91.0042 104.844 91.0178C104.775 91.0313 104.71 91.0588 104.652 91.0985C104.594 91.1382 104.545 91.1892 104.507 91.2486C104.47 91.3079 104.445 91.3743 104.434 91.4437C104.423 91.513 104.426 91.5838 104.444 91.6519C104.461 91.7199 104.492 91.7837 104.535 91.8393C104.578 91.8949 104.631 91.9412 104.693 91.9754L108.162 94.1732C108.206 94.201 108.254 94.2221 108.304 94.2361C108.423 94.2678 108.549 94.256 108.66 94.2027C108.771 94.1493 108.86 94.058 108.909 93.9453C108.959 93.8325 108.967 93.7057 108.931 93.5877C108.895 93.4698 108.819 93.3685 108.715 93.3022L105.243 91.1038Z" fill="#C6C8CC"/>
<path d="M98.1413 91.273L101.501 93.7948C101.554 93.8347 101.614 93.8639 101.677 93.8805C101.793 93.9116 101.916 93.9014 102.025 93.8516C102.135 93.8018 102.223 93.7156 102.275 93.6078C102.328 93.4999 102.341 93.3772 102.313 93.2606C102.285 93.1441 102.217 93.0409 102.121 92.969L98.7606 90.4493C98.7069 90.4036 98.6445 90.3693 98.5772 90.3486C98.5098 90.3279 98.4389 90.3212 98.3689 90.329C98.2989 90.3367 98.2312 90.3587 98.1699 90.3936C98.1087 90.4285 98.0553 90.4756 98.0129 90.5319C97.9706 90.5882 97.9402 90.6526 97.9237 90.7211C97.9072 90.7896 97.9049 90.8607 97.9169 90.9302C97.9289 90.9996 97.955 91.0658 97.9936 91.1248C98.0322 91.1838 98.0825 91.2342 98.1413 91.273Z" fill="#C6C8CC"/>
<path d="M109.57 103.937L96.9249 92.7701C96.874 92.7252 96.8148 92.6908 96.7506 92.6688C96.6864 92.6469 96.6185 92.6378 96.5508 92.642C96.4832 92.6463 96.417 92.6638 96.356 92.6937C96.2951 92.7235 96.2407 92.765 96.1958 92.8159C96.151 92.8668 96.1166 92.926 96.0946 92.9902C96.0726 93.0544 96.0635 93.1222 96.0677 93.1899C96.072 93.2576 96.0896 93.3238 96.1194 93.3848C96.1492 93.4457 96.1908 93.5001 96.2417 93.545L108.876 104.71C108.937 104.761 109.008 104.799 109.085 104.82C109.197 104.85 109.316 104.841 109.423 104.795C109.53 104.749 109.618 104.669 109.673 104.566C109.728 104.464 109.747 104.346 109.727 104.231C109.707 104.117 109.649 104.012 109.562 103.935L109.57 103.937Z" fill="#C6C8CC"/>
<path d="M94.2115 94.901C94.1128 94.9959 94.0559 95.1261 94.0532 95.263C94.0505 95.3999 94.1023 95.5322 94.1971 95.6309L95.0556 96.5177C95.1201 96.5852 95.2019 96.6337 95.292 96.658C95.401 96.6872 95.5164 96.6799 95.6208 96.6373C95.7252 96.5946 95.8128 96.519 95.8701 96.4219C95.9274 96.3248 95.9514 96.2116 95.9384 96.0996C95.9253 95.9876 95.8759 95.883 95.7978 95.8017L94.9393 94.9149C94.8925 94.8661 94.8365 94.827 94.7745 94.7999C94.7126 94.7728 94.6459 94.7582 94.5783 94.7569C94.5107 94.7557 94.4435 94.7677 94.3806 94.7925C94.3176 94.8172 94.2602 94.8541 94.2115 94.901Z" fill="#C6C8CC"/>
<path d="M100.804 100.977L97.6619 97.728C97.5655 97.6344 97.4366 97.5821 97.3023 97.582C97.168 97.582 97.039 97.6343 96.9427 97.7278C96.8463 97.8213 96.7902 97.9487 96.7862 98.0829C96.7822 98.2171 96.8306 98.3476 96.9212 98.4467L100.059 101.704C100.124 101.771 100.205 101.82 100.296 101.844C100.405 101.873 100.52 101.866 100.624 101.823C100.729 101.781 100.816 101.705 100.874 101.608C100.931 101.511 100.955 101.398 100.942 101.286C100.929 101.174 100.88 101.069 100.801 100.988L100.804 100.977Z" fill="#C6C8CC"/>
<path d="M104.724 105.028L102.936 103.19C102.839 103.097 102.71 103.044 102.576 103.044C102.442 103.044 102.313 103.097 102.216 103.19C102.12 103.284 102.064 103.411 102.06 103.545C102.056 103.679 102.104 103.81 102.195 103.909L103.981 105.746C104.045 105.814 104.127 105.862 104.217 105.887C104.303 105.908 104.393 105.908 104.478 105.885C104.563 105.862 104.641 105.818 104.705 105.757C104.754 105.71 104.794 105.655 104.821 105.593C104.849 105.531 104.864 105.464 104.866 105.396C104.868 105.329 104.856 105.261 104.831 105.198C104.807 105.135 104.77 105.077 104.724 105.028Z" fill="#C6C8CC"/>
<path d="M99.6752 105.224L92.7831 96.8849C92.7401 96.8318 92.6871 96.7878 92.6269 96.7553C92.5668 96.7229 92.5009 96.7028 92.4329 96.696C92.3649 96.6893 92.2963 96.6961 92.231 96.716C92.1657 96.736 92.105 96.7687 92.0524 96.8123C91.9998 96.8559 91.9564 96.9095 91.9247 96.97C91.893 97.0304 91.8736 97.0966 91.8676 97.1647C91.8616 97.2327 91.8692 97.3013 91.89 97.3663C91.9107 97.4314 91.9441 97.4917 91.9883 97.5438L98.8803 105.883C98.9683 105.987 99.0935 106.052 99.2289 106.064C99.3642 106.075 99.4988 106.033 99.6034 105.947C99.708 105.86 99.7742 105.735 99.7876 105.6C99.8011 105.465 99.7607 105.33 99.6752 105.224Z" fill="#C6C8CC"/>
<path d="M91.4584 100.079L90.4885 98.6866C90.4049 98.5884 90.2875 98.525 90.1595 98.509C90.0314 98.4931 89.9021 98.5256 89.7968 98.6002C89.6916 98.6749 89.6181 98.7862 89.5909 98.9123C89.5637 99.0385 89.5846 99.1702 89.6497 99.2816L90.6196 100.674C90.7033 100.772 90.8207 100.835 90.9487 100.851C91.0767 100.867 91.2061 100.835 91.3113 100.76C91.4165 100.686 91.49 100.574 91.5172 100.448C91.5445 100.322 91.5235 100.19 91.4584 100.079Z" fill="#C6C8CC"/>
<path d="M93.7853 103.397C93.748 103.338 93.6991 103.287 93.6416 103.248C93.5841 103.209 93.5191 103.181 93.4507 103.168C93.3823 103.154 93.3119 103.155 93.2437 103.169C93.1755 103.184 93.111 103.212 93.0541 103.252C92.9971 103.293 92.949 103.344 92.9126 103.404C92.8762 103.463 92.8522 103.529 92.8422 103.598C92.8322 103.667 92.8363 103.738 92.8543 103.805C92.8723 103.872 92.9039 103.935 92.947 103.99L95.3074 107.351C95.3436 107.413 95.3922 107.467 95.4502 107.509C95.5081 107.551 95.5743 107.581 95.6443 107.596C95.7143 107.611 95.7867 107.611 95.8569 107.597C95.9271 107.582 95.9935 107.554 96.0519 107.512C96.1104 107.471 96.1595 107.418 96.1963 107.356C96.2331 107.295 96.2567 107.226 96.2655 107.155C96.2744 107.084 96.2684 107.012 96.2478 106.943C96.2273 106.875 96.1927 106.811 96.1463 106.756L93.7853 103.397Z" fill="#C6C8CC"/>
<path d="M87.3394 100.137C87.2211 100.206 87.1348 100.318 87.0994 100.451C87.064 100.583 87.0823 100.724 87.1503 100.843L89.2916 104.455C89.3638 104.568 89.4768 104.648 89.6068 104.678C89.7367 104.709 89.8736 104.688 89.9885 104.62C90.1035 104.552 90.1876 104.443 90.2233 104.314C90.2589 104.185 90.2433 104.048 90.1797 103.93L88.0468 100.32C87.9769 100.202 87.8633 100.117 87.7308 100.082C87.5982 100.048 87.4575 100.068 87.3394 100.137Z" fill="#C6C8CC"/>
<path d="M85.4549 101.761C85.3948 101.638 85.2882 101.543 85.1587 101.499C85.0292 101.455 84.8874 101.463 84.7643 101.523C84.6413 101.584 84.5472 101.69 84.5027 101.82C84.4583 101.949 84.4671 102.091 84.5272 102.214L91.9526 117.361C91.98 117.426 92.0203 117.484 92.071 117.533C92.1218 117.581 92.1818 117.619 92.2476 117.643C92.3133 117.668 92.3834 117.679 92.4534 117.675C92.5235 117.672 92.5921 117.654 92.6551 117.623C92.7181 117.592 92.7741 117.549 92.8198 117.496C92.8654 117.442 92.8998 117.38 92.9206 117.313C92.9415 117.246 92.9485 117.176 92.9412 117.106C92.9339 117.036 92.9125 116.969 92.8782 116.907L85.4549 101.761Z" fill="#C6C8CC"/>
<path d="M82.129 102.704C82.0659 102.729 82.0084 102.766 81.9597 102.813C81.9111 102.86 81.8722 102.917 81.8454 102.979C81.8186 103.041 81.8044 103.108 81.8036 103.176C81.8028 103.244 81.8154 103.311 81.8407 103.374L82.2948 104.519C82.3243 104.594 82.371 104.661 82.431 104.714C82.491 104.768 82.5627 104.806 82.6404 104.827C82.7325 104.851 82.8296 104.849 82.9209 104.822C83.0122 104.794 83.094 104.742 83.1574 104.671C83.2208 104.6 83.2633 104.512 83.2801 104.419C83.2969 104.325 83.2873 104.228 83.2526 104.139L82.7991 102.992C82.7484 102.865 82.6493 102.763 82.5237 102.709C82.398 102.655 82.2561 102.653 82.129 102.704Z" fill="#C6C8CC"/>
<path d="M84.2427 106.631C84.2196 106.565 84.1835 106.505 84.1365 106.454C84.0896 106.402 84.0327 106.361 83.9694 106.332C83.906 106.303 83.8375 106.288 83.768 106.286C83.6984 106.284 83.6292 106.297 83.5646 106.322C83.4999 106.348 83.4412 106.387 83.3918 106.436C83.3425 106.485 83.3035 106.543 83.2773 106.608C83.2512 106.672 83.2383 106.741 83.2395 106.811C83.2407 106.881 83.256 106.949 83.2843 107.013L84.9515 111.212C85.0076 111.33 85.1067 111.423 85.2287 111.471C85.3507 111.519 85.4864 111.519 85.6083 111.471C85.7302 111.423 85.8291 111.33 85.885 111.211C85.9409 111.092 85.9496 110.957 85.9093 110.832L84.2427 106.631Z" fill="#C6C8CC"/>
<path d="M87.043 113.684C86.9924 113.557 86.8933 113.455 86.7675 113.4C86.6417 113.346 86.4995 113.344 86.3721 113.394C86.2447 113.445 86.1427 113.544 86.0884 113.67C86.0341 113.796 86.0319 113.938 86.0825 114.065L87.0283 116.452C87.0578 116.527 87.1044 116.593 87.1645 116.647C87.2245 116.7 87.2962 116.739 87.3738 116.76C87.4813 116.788 87.5949 116.781 87.6984 116.74C87.8254 116.689 87.9271 116.59 87.9811 116.465C88.0351 116.339 88.0371 116.197 87.9866 116.07L87.043 113.684Z" fill="#C6C8CC"/>
<path d="M80.0513 103.993C80.011 103.862 79.9203 103.752 79.7992 103.688C79.6782 103.624 79.5366 103.611 79.4057 103.651C79.2747 103.691 79.1652 103.782 79.1011 103.903C79.037 104.024 79.0237 104.166 79.064 104.297L82.2569 114.634C82.2828 114.718 82.3294 114.793 82.3924 114.854C82.4555 114.914 82.5328 114.958 82.6172 114.98C82.7105 115.006 82.8093 115.004 82.9017 114.975C82.9665 114.955 83.0267 114.922 83.0789 114.879C83.1312 114.836 83.1743 114.783 83.206 114.723C83.2376 114.663 83.2571 114.598 83.2633 114.53C83.2694 114.463 83.2622 114.395 83.242 114.33L80.0513 103.993Z" fill="#C6C8CC"/>
<path d="M77.2304 104.784C77.2168 104.716 77.1898 104.652 77.1512 104.596C77.1125 104.539 77.0629 104.49 77.0052 104.453C76.9476 104.415 76.883 104.39 76.8154 104.378C76.7478 104.366 76.6784 104.367 76.6113 104.382C76.5443 104.397 76.4809 104.426 76.425 104.466C76.369 104.505 76.3216 104.556 76.2854 104.614C76.2492 104.673 76.2251 104.738 76.2144 104.806C76.2038 104.874 76.2067 104.943 76.2232 105.01L76.5945 106.658C76.6149 106.75 76.6602 106.835 76.7255 106.903C76.7909 106.97 76.8736 107.019 76.9648 107.043C77.0449 107.065 77.1294 107.067 77.2104 107.047C77.2766 107.033 77.3392 107.005 77.3948 106.967C77.4503 106.928 77.4976 106.878 77.534 106.821C77.5704 106.764 77.5951 106.7 77.6067 106.633C77.6183 106.567 77.6166 106.498 77.6017 106.432L77.2304 104.784Z" fill="#C6C8CC"/>
<path d="M78.4987 110.387C78.4664 110.255 78.3839 110.142 78.2691 110.071C78.1543 110 78.0162 109.977 77.8844 110.006C77.7527 110.036 77.6377 110.116 77.5643 110.229C77.4908 110.343 77.4647 110.48 77.4915 110.613L78.3925 114.62C78.4128 114.712 78.4582 114.797 78.5235 114.865C78.5888 114.932 78.6716 114.981 78.7627 115.005C78.8429 115.027 78.9274 115.029 79.0083 115.009C79.0745 114.995 79.1372 114.967 79.1928 114.929C79.2483 114.89 79.2956 114.84 79.332 114.783C79.3684 114.726 79.3931 114.662 79.4047 114.595C79.4163 114.529 79.4146 114.46 79.3997 114.394L78.4987 110.387Z" fill="#C6C8CC"/>
<path d="M73.7959 104.923C73.7287 104.933 73.6641 104.956 73.6058 104.99C73.5475 105.025 73.4966 105.071 73.4559 105.125C73.4153 105.179 73.3858 105.241 73.369 105.307C73.3523 105.373 73.3486 105.441 73.3583 105.508L73.9524 109.655C73.9753 109.788 74.0488 109.906 74.1573 109.985C74.2658 110.064 74.4008 110.097 74.5337 110.078C74.6666 110.06 74.7869 109.99 74.8691 109.884C74.9513 109.777 74.989 109.644 74.9742 109.51L74.3766 105.351C74.3547 105.218 74.2817 105.099 74.1732 105.019C74.0647 104.939 73.9293 104.905 73.7959 104.923Z" fill="#C6C8CC"/>
<path d="M71.4355 105.695C71.4269 105.558 71.3641 105.43 71.2611 105.339C71.158 105.248 71.0231 105.202 70.8859 105.21C70.7488 105.219 70.6207 105.282 70.5298 105.385C70.4389 105.488 70.3927 105.623 70.4013 105.76L71.4541 122.597C71.4616 122.704 71.5025 122.807 71.5711 122.89C71.6397 122.974 71.7326 123.034 71.8368 123.062C71.8907 123.076 71.9465 123.082 72.0021 123.079C72.0701 123.075 72.1366 123.057 72.1977 123.027C72.2589 122.997 72.3135 122.956 72.3584 122.904C72.4033 122.853 72.4376 122.794 72.4592 122.729C72.4809 122.665 72.4896 122.596 72.4847 122.529L71.4355 105.695Z" fill="#C6C8CC"/>
<path d="M68.4991 107.044L68.5193 105.81C68.5251 105.74 68.5164 105.669 68.4938 105.602C68.4711 105.535 68.435 105.474 68.3876 105.422C68.3402 105.369 68.2826 105.327 68.2183 105.298C68.154 105.269 68.0844 105.253 68.0138 105.252C67.9432 105.251 67.873 105.264 67.8078 105.291C67.7425 105.318 67.6835 105.358 67.6343 105.409C67.5851 105.459 67.5469 105.519 67.5219 105.586C67.4969 105.652 67.4858 105.722 67.4891 105.793L67.4684 107.028C67.4668 107.143 67.5034 107.254 67.5724 107.346C67.6414 107.437 67.7388 107.503 67.8493 107.533C67.8906 107.545 67.9331 107.551 67.9759 107.551C68.1125 107.553 68.2443 107.501 68.3423 107.406C68.4404 107.311 68.4968 107.18 68.4991 107.044Z" fill="#C6C8CC"/>
<path d="M68.3818 114.243L68.4576 109.734C68.4522 109.602 68.3966 109.478 68.3021 109.386C68.2077 109.294 68.0816 109.241 67.9497 109.239C67.8179 109.237 67.6902 109.286 67.593 109.375C67.4958 109.464 67.4364 109.587 67.4269 109.718L67.3511 114.228C67.3495 114.342 67.3863 114.455 67.4557 114.546C67.5251 114.638 67.6231 114.704 67.7341 114.733C67.7747 114.744 67.8165 114.75 67.8585 114.751C67.9952 114.753 68.127 114.7 68.225 114.605C68.3231 114.51 68.3795 114.38 68.3818 114.243Z" fill="#C6C8CC"/>
<path d="M68.3317 117.312C68.3339 117.175 68.2815 117.043 68.1862 116.945C68.0909 116.846 67.9604 116.79 67.8234 116.788C67.6865 116.785 67.5543 116.838 67.4559 116.933C67.3575 117.028 67.301 117.159 67.2989 117.296L67.2583 119.864C67.2563 119.979 67.2925 120.091 67.3614 120.183C67.4303 120.275 67.5279 120.342 67.6387 120.372C67.6802 120.382 67.7226 120.388 67.7652 120.39C67.9019 120.392 68.0336 120.339 68.1317 120.244C68.2298 120.149 68.2862 120.019 68.2885 119.882L68.3317 117.312Z" fill="#C6C8CC"/>
<path d="M65.6031 105.681C65.6146 105.545 65.5723 105.41 65.4853 105.305C65.3982 105.2 65.2734 105.133 65.1377 105.119C65.0704 105.113 65.0025 105.12 64.9378 105.14C64.8732 105.159 64.8131 105.192 64.7609 105.235C64.7088 105.278 64.6657 105.331 64.634 105.39C64.6024 105.45 64.5828 105.515 64.5764 105.583L63.5473 116.354C63.5348 116.476 63.5661 116.599 63.6355 116.701C63.7048 116.802 63.8079 116.876 63.9264 116.909C63.9529 116.919 63.9806 116.926 64.0088 116.931C64.0762 116.937 64.1443 116.931 64.2091 116.911C64.274 116.892 64.3343 116.859 64.3867 116.816C64.439 116.773 64.4824 116.72 64.5142 116.661C64.546 116.601 64.5657 116.535 64.5721 116.468L65.6031 105.681Z" fill="#C6C8CC"/>
<path d="M61.8054 107.413C61.872 107.425 61.9403 107.423 62.0064 107.409C62.0725 107.394 62.135 107.367 62.1904 107.328C62.2458 107.289 62.2931 107.24 62.3294 107.183C62.3657 107.126 62.3904 107.062 62.402 106.995L62.6943 105.33C62.7136 105.197 62.6805 105.062 62.6018 104.953C62.5232 104.844 62.4053 104.77 62.2732 104.747C62.141 104.724 62.0049 104.753 61.8938 104.828C61.7827 104.903 61.7053 105.019 61.678 105.15L61.3878 106.816C61.3647 106.943 61.3902 107.074 61.4593 107.183C61.5284 107.291 61.6359 107.37 61.7605 107.403L61.8054 107.413Z" fill="#C6C8CC"/>
<path d="M61.2911 110.389C61.1563 110.366 61.0176 110.397 60.9057 110.475C60.7937 110.554 60.7176 110.674 60.694 110.809L59.986 114.854C59.9639 114.981 59.9899 115.111 60.0588 115.219C60.1278 115.328 60.2347 115.407 60.3587 115.441L60.4052 115.453C60.5397 115.477 60.6779 115.446 60.7897 115.367C60.9015 115.289 60.9777 115.17 61.0018 115.036L61.7103 110.988C61.7332 110.853 61.7021 110.715 61.6236 110.603C61.5452 110.49 61.4257 110.414 61.2911 110.389Z" fill="#C6C8CC"/>
<path d="M59.4608 104.128C59.3951 104.111 59.3268 104.107 59.2596 104.117C59.1925 104.126 59.1279 104.149 59.0694 104.183C59.011 104.217 58.9599 104.263 58.9191 104.317C58.8783 104.371 58.8486 104.433 58.8316 104.499L57.7889 108.567C57.7554 108.699 57.775 108.839 57.8435 108.956C57.912 109.074 58.0239 109.16 58.1551 109.195C58.2208 109.212 58.2891 109.216 58.3562 109.206C58.4234 109.196 58.4879 109.174 58.5462 109.139C58.6045 109.104 58.6553 109.058 58.6959 109.004C58.7365 108.95 58.766 108.888 58.7827 108.822L59.8254 104.754C59.8588 104.622 59.8392 104.483 59.771 104.366C59.7028 104.249 59.5914 104.164 59.4608 104.128Z" fill="#C6C8CC"/>
<path d="M56.6473 103.286C56.5833 103.264 56.5155 103.255 56.4479 103.259C56.3804 103.263 56.3143 103.281 56.2535 103.31C56.1927 103.34 56.1384 103.382 56.0936 103.432C56.0489 103.483 56.0147 103.542 55.9929 103.607L50.5402 119.57C50.4961 119.7 50.5052 119.842 50.5656 119.965C50.626 120.088 50.7327 120.182 50.8624 120.227L50.8962 120.236C51.0225 120.27 51.1568 120.254 51.2721 120.192C51.3874 120.131 51.475 120.028 51.5173 119.904L56.9679 103.94C56.99 103.876 56.9992 103.809 56.995 103.741C56.9908 103.673 56.9733 103.607 56.9436 103.547C56.9138 103.486 56.8722 103.431 56.8214 103.387C56.7706 103.342 56.7114 103.308 56.6473 103.286Z" fill="#C6C8CC"/>
<path d="M53.9515 102.258C53.8254 102.204 53.6832 102.202 53.5558 102.253C53.4285 102.304 53.3264 102.403 53.272 102.529L52.7849 103.662C52.7579 103.724 52.7435 103.791 52.7426 103.859C52.7416 103.927 52.754 103.995 52.7792 104.058C52.8044 104.121 52.8418 104.179 52.8892 104.227C52.9367 104.276 52.9933 104.315 53.0558 104.342C53.0791 104.35 53.1032 104.356 53.1276 104.361C53.2466 104.393 53.3733 104.381 53.4844 104.328C53.5956 104.275 53.6839 104.183 53.7332 104.07L54.2223 102.937C54.2493 102.875 54.2637 102.808 54.2647 102.74C54.2656 102.672 54.2532 102.605 54.228 102.541C54.2029 102.478 54.1655 102.421 54.118 102.372C54.0706 102.323 54.014 102.285 53.9515 102.258Z" fill="#C6C8CC"/>
<path d="M52.4026 105.849C52.2766 105.795 52.1343 105.794 52.0069 105.844C51.8796 105.895 51.7776 105.994 51.7231 106.12L49.932 110.269C49.905 110.332 49.8906 110.399 49.8897 110.467C49.8887 110.535 49.9011 110.602 49.9263 110.665C49.9515 110.728 49.9888 110.786 50.0363 110.834C50.0838 110.883 50.1404 110.922 50.2028 110.949C50.2269 110.957 50.2516 110.964 50.2768 110.968C50.3958 111.001 50.5224 110.989 50.6336 110.936C50.7448 110.882 50.8331 110.791 50.8823 110.678L52.674 106.527C52.7278 106.401 52.7294 106.259 52.6785 106.132C52.6276 106.005 52.5284 105.903 52.4026 105.849Z" fill="#C6C8CC"/>
<path d="M49.3974 112.814C49.2715 112.761 49.1297 112.759 49.0028 112.81C48.876 112.861 48.7743 112.96 48.72 113.085L47.7035 115.442C47.6765 115.504 47.6622 115.571 47.6613 115.639C47.6604 115.707 47.6729 115.774 47.6981 115.837C47.7233 115.9 47.7608 115.958 47.8083 116.006C47.8558 116.055 47.9124 116.093 47.9749 116.12C47.9989 116.128 48.0237 116.135 48.0488 116.139C48.1678 116.171 48.2941 116.159 48.4051 116.105C48.516 116.052 48.6044 115.961 48.6544 115.849L49.6709 113.492C49.7241 113.366 49.7252 113.223 49.674 113.096C49.6227 112.969 49.5233 112.868 49.3974 112.814Z" fill="#C6C8CC"/>
<path d="M51.3593 101.004C51.2379 100.94 51.0963 100.927 50.9653 100.968C50.8344 101.008 50.7248 101.099 50.6605 101.22L45.6062 110.786C45.5745 110.846 45.5548 110.911 45.5484 110.978C45.542 111.046 45.5489 111.114 45.5688 111.178C45.5888 111.243 45.6212 111.303 45.6644 111.355C45.7076 111.407 45.7607 111.45 45.8205 111.482C45.8551 111.5 45.8915 111.514 45.9291 111.525C46.0419 111.555 46.1616 111.546 46.2687 111.499C46.3758 111.453 46.4639 111.371 46.5187 111.268L51.5736 101.7C51.6054 101.64 51.625 101.575 51.6314 101.507C51.6378 101.44 51.6309 101.372 51.611 101.307C51.5911 101.243 51.5586 101.183 51.5154 101.131C51.4722 101.079 51.4191 101.036 51.3593 101.004Z" fill="#C6C8CC"/>
<path d="M48.1191 101.712L49.0229 100.283C49.0636 100.226 49.0923 100.161 49.1071 100.092C49.1219 100.024 49.1225 99.9527 49.1089 99.8838C49.0954 99.8149 49.0679 99.7495 49.0282 99.6916C48.9886 99.6337 48.9375 99.5845 48.8781 99.547C48.8188 99.5095 48.7524 99.4845 48.683 99.4735C48.6137 99.4626 48.5429 99.4659 48.4748 99.4832C48.4068 99.5006 48.343 99.5316 48.2874 99.5744C48.2318 99.6173 48.1855 99.671 48.1513 99.7323L47.246 101.159C47.2084 101.216 47.1827 101.281 47.1703 101.348C47.1579 101.416 47.1591 101.485 47.1738 101.553C47.1884 101.62 47.2163 101.683 47.2558 101.74C47.2952 101.796 47.3455 101.844 47.4036 101.88C47.4483 101.908 47.4967 101.93 47.5474 101.944C47.655 101.972 47.7686 101.964 47.8715 101.922C47.9744 101.881 48.0612 101.807 48.1191 101.712Z" fill="#C6C8CC"/>
<path d="M45.7897 104.421C45.7322 104.384 45.6677 104.358 45.6001 104.345C45.5324 104.333 45.4629 104.334 45.3957 104.348C45.3284 104.363 45.2648 104.391 45.2086 104.431C45.1523 104.47 45.1045 104.521 45.0681 104.579L42.8702 108.048C42.8324 108.106 42.8064 108.17 42.7939 108.238C42.7813 108.306 42.7824 108.375 42.7971 108.443C42.8118 108.51 42.8398 108.573 42.8794 108.63C42.919 108.686 42.9695 108.734 43.0279 108.77C43.0721 108.797 43.12 108.818 43.1701 108.831C43.2762 108.859 43.3885 108.853 43.4907 108.813C43.593 108.774 43.68 108.702 43.739 108.61L45.9368 105.14C45.9747 105.084 46.0009 105.02 46.014 104.953C46.0271 104.886 46.0268 104.817 46.0132 104.75C45.9995 104.683 45.9727 104.62 45.9343 104.563C45.896 104.507 45.8468 104.459 45.7897 104.421Z" fill="#C6C8CC"/>
<path d="M46.5012 97.929C46.4469 97.8883 46.3852 97.8587 46.3195 97.8418C46.2539 97.8249 46.1855 97.8212 46.1184 97.8308C46.0513 97.8403 45.9867 97.863 45.9283 97.8975C45.87 97.9321 45.819 97.9777 45.7783 98.032L43.2629 101.394C43.2222 101.448 43.1927 101.509 43.1759 101.575C43.1591 101.64 43.1554 101.709 43.165 101.775C43.1747 101.842 43.1974 101.907 43.232 101.965C43.2665 102.023 43.3122 102.074 43.3664 102.114C43.4189 102.154 43.4788 102.184 43.5427 102.2C43.642 102.227 43.7469 102.223 43.844 102.189C43.941 102.155 44.0257 102.093 44.0871 102.011L46.6089 98.6509C46.6498 98.5966 46.6795 98.5347 46.6962 98.4689C46.7129 98.403 46.7163 98.3345 46.7063 98.2673C46.6963 98.2001 46.673 98.1356 46.6377 98.0775C46.6025 98.0194 46.5561 97.9689 46.5012 97.929Z" fill="#C6C8CC"/>
<path d="M44.2325 96.0846C44.1294 95.9942 43.9946 95.9483 43.8577 95.957C43.7208 95.9658 43.5929 96.0284 43.5021 96.1312L32.3375 108.766C32.2885 108.816 32.2502 108.875 32.2248 108.941C32.1995 109.006 32.1878 109.076 32.1903 109.146C32.1928 109.216 32.2095 109.285 32.2395 109.348C32.2694 109.411 32.3119 109.468 32.3644 109.514C32.4169 109.561 32.4783 109.596 32.5448 109.618C32.6114 109.64 32.6817 109.648 32.7515 109.642C32.8212 109.635 32.889 109.615 32.9507 109.582C33.0124 109.549 33.0667 109.503 33.1103 109.449L44.277 96.8144C44.3675 96.7116 44.4137 96.5771 44.4053 96.4403C44.397 96.3036 44.3349 96.1757 44.2325 96.0846Z" fill="#C6C8CC"/>
<path d="M41.4224 94.0882L40.5356 94.9467C40.4869 94.9937 40.4479 95.0499 40.421 95.1119C40.394 95.174 40.3796 95.2408 40.3785 95.3085C40.3774 95.3761 40.3897 95.4434 40.4146 95.5063C40.4396 95.5692 40.4767 95.6266 40.5239 95.6751C40.5882 95.7428 40.67 95.7914 40.7603 95.8154C40.8459 95.8376 40.9357 95.8373 41.0212 95.8145C41.1066 95.7918 41.1847 95.7474 41.248 95.6857L42.1348 94.8272C42.217 94.7301 42.2603 94.6061 42.2564 94.4789C42.2524 94.3518 42.2015 94.2307 42.1134 94.1389C42.0254 94.0472 41.9064 93.9913 41.7795 93.9822C41.6527 93.973 41.5269 94.0112 41.4266 94.0894L41.4224 94.0882Z" fill="#C6C8CC"/>
<path d="M38.6031 96.8091L35.3607 99.951C35.3119 99.9982 35.2729 100.054 35.2458 100.117C35.2188 100.179 35.2043 100.246 35.2032 100.314C35.202 100.382 35.2143 100.449 35.2392 100.512C35.2641 100.575 35.3012 100.633 35.3484 100.681C35.3953 100.73 35.4514 100.77 35.5135 100.797C35.5755 100.824 35.6424 100.838 35.7102 100.84C35.7779 100.841 35.8452 100.828 35.9081 100.803C35.9711 100.778 36.0284 100.741 36.0768 100.693L39.3261 97.5509C39.4033 97.453 39.4424 97.3306 39.4364 97.2061C39.4304 97.0817 39.3795 96.9636 39.2932 96.8737C39.2069 96.7838 39.091 96.7281 38.9669 96.717C38.8428 96.7059 38.7189 96.74 38.6179 96.8131L38.6031 96.8091Z" fill="#C6C8CC"/>
<path d="M33.8862 102.09C33.8391 102.041 33.7828 102.002 33.7206 101.975C33.6583 101.948 33.5914 101.934 33.5236 101.933C33.4557 101.932 33.3883 101.944 33.3252 101.969C33.2621 101.994 33.2045 102.031 33.1558 102.078L31.3184 103.864C31.2696 103.911 31.2306 103.967 31.2036 104.03C31.1765 104.092 31.162 104.159 31.1609 104.227C31.1597 104.294 31.172 104.362 31.1969 104.425C31.2218 104.488 31.259 104.546 31.3061 104.594C31.3708 104.661 31.4529 104.709 31.5431 104.733C31.6284 104.755 31.7181 104.755 31.8035 104.733C31.8888 104.71 31.967 104.666 32.0303 104.605L33.8682 102.817C33.9664 102.723 34.0234 102.593 34.0268 102.457C34.0301 102.321 33.9796 102.189 33.8862 102.09Z" fill="#C6C8CC"/>
<path d="M40.2349 91.9449C40.1475 91.8395 40.0218 91.7731 39.8855 91.7604C39.7492 91.7477 39.6134 91.7896 39.508 91.877L31.1685 98.769C31.0952 98.829 31.0399 98.9082 31.0088 98.9977C30.9777 99.0872 30.9719 99.1835 30.9921 99.2761C31.0123 99.3686 31.0576 99.4538 31.1232 99.5222C31.1887 99.5906 31.2719 99.6396 31.3635 99.6637C31.4432 99.6853 31.5268 99.6872 31.6073 99.6694C31.6879 99.6515 31.7628 99.6144 31.8259 99.5611L40.1637 92.6754C40.2164 92.6322 40.26 92.579 40.2921 92.5188C40.3243 92.4587 40.3442 92.3928 40.3508 92.3249C40.3574 92.2571 40.3506 92.1886 40.3307 92.1234C40.3108 92.0582 40.2782 91.9975 40.2349 91.9449Z" fill="#C6C8CC"/>
<path d="M37.7586 89.5398L36.3669 90.5076C36.2687 90.5913 36.2054 90.7087 36.1894 90.8367C36.1734 90.9647 36.206 91.0941 36.2806 91.1993C36.3552 91.3046 36.4666 91.378 36.5927 91.4053C36.7188 91.4325 36.8506 91.4115 36.962 91.3465L38.3542 90.3766C38.4524 90.2929 38.5158 90.1755 38.5317 90.0475C38.5477 89.9195 38.5152 89.7901 38.4405 89.6849C38.3659 89.5796 38.2545 89.5062 38.1284 89.4789C38.0023 89.4517 37.8706 89.4727 37.7592 89.5377L37.7586 89.5398Z" fill="#C6C8CC"/>
<path d="M33.7835 92.9565C33.7044 92.8446 33.5841 92.7686 33.4491 92.7452C33.314 92.7217 33.1752 92.7527 33.0629 92.8313L29.7116 95.1967C29.656 95.2355 29.6087 95.285 29.5724 95.3422C29.5361 95.3994 29.5114 95.4632 29.4998 95.53C29.4882 95.5968 29.49 95.6652 29.5049 95.7313C29.5199 95.7974 29.5478 95.8599 29.587 95.9152C29.656 96.0144 29.758 96.0859 29.8749 96.1169C29.9479 96.1363 30.0243 96.1395 30.0987 96.1262C30.1731 96.1128 30.2437 96.0833 30.3055 96.0397L33.6569 93.6744C33.7125 93.6357 33.7599 93.5864 33.7964 93.5293C33.8329 93.4722 33.8577 93.4085 33.8695 93.3418C33.8812 93.275 33.8797 93.2067 33.865 93.1405C33.8502 93.0744 33.8226 93.0119 33.7835 92.9565Z" fill="#C6C8CC"/>
<path d="M36.2092 87.0479L32.5942 89.1887C32.4763 89.2586 32.3911 89.3725 32.3572 89.5053C32.3233 89.638 32.3436 89.7788 32.4135 89.8967C32.4834 90.0145 32.5973 90.0997 32.7301 90.1336C32.8629 90.1675 33.0037 90.1472 33.1215 90.0773L36.7344 87.936C36.7955 87.9029 36.8492 87.8579 36.8925 87.8036C36.9357 87.7492 36.9675 87.6868 36.9861 87.6199C37.0046 87.5529 37.0094 87.483 37.0003 87.4142C36.9912 87.3453 36.9682 87.2791 36.9329 87.2193C36.8975 87.1595 36.8505 87.1075 36.7946 87.0664C36.7387 87.0252 36.675 86.9957 36.6075 86.9797C36.5399 86.9637 36.4698 86.9615 36.4014 86.9733C36.333 86.985 36.2676 87.0104 36.2092 87.0479Z" fill="#C6C8CC"/>
<path d="M35.52 84.6506C35.4595 84.5278 35.3527 84.4341 35.2231 84.39C35.0935 84.3459 34.9517 84.3551 34.8288 84.4156L19.6821 91.8389C19.559 91.8993 19.4649 92.0062 19.4206 92.1359C19.3763 92.2657 19.3853 92.4077 19.4457 92.5308C19.5061 92.6539 19.613 92.748 19.7427 92.7923C19.8725 92.8366 20.0145 92.8276 20.1376 92.7672L35.2829 85.3412C35.344 85.3117 35.3987 85.2703 35.4437 85.2195C35.4888 85.1688 35.5233 85.1095 35.5454 85.0453C35.5674 84.9811 35.5765 84.9132 35.5722 84.8454C35.5678 84.7777 35.5501 84.7115 35.52 84.6506Z" fill="#C6C8CC"/>
<path d="M32.5892 83.1723C32.6956 83.201 32.8085 83.1947 32.9111 83.1544L34.059 82.6988C34.1247 82.6757 34.185 82.6396 34.2363 82.5927C34.2876 82.5457 34.329 82.4888 34.3578 82.4255C34.3866 82.3621 34.4023 82.2936 34.4039 82.2241C34.4056 82.1545 34.3932 82.0853 34.3674 82.0207C34.3417 81.9561 34.3031 81.8973 34.2541 81.8479C34.205 81.7986 34.1465 81.7596 34.082 81.7335C34.0176 81.7073 33.9485 81.6944 33.8789 81.6956C33.8093 81.6968 33.7407 81.7121 33.6772 81.7405L32.5319 82.1945C32.4313 82.2347 32.3459 82.3056 32.2878 82.397C32.2297 82.4885 32.2018 82.5959 32.2082 82.7041C32.2145 82.8122 32.2547 82.9157 32.3231 82.9997C32.3915 83.0838 32.4846 83.1442 32.5892 83.1723Z" fill="#C6C8CC"/>
<path d="M30.0423 83.1694L25.8419 84.8408C25.7413 84.881 25.6559 84.9518 25.5978 85.0433C25.5397 85.1347 25.5118 85.2422 25.5182 85.3503C25.5245 85.4585 25.5647 85.5619 25.6331 85.646C25.7015 85.73 25.7946 85.7904 25.8992 85.8186C26.006 85.8477 26.1193 85.8407 26.2217 85.7986L30.423 84.132C30.4887 84.1089 30.549 84.0728 30.6003 84.0258C30.6516 83.9788 30.693 83.922 30.7218 83.8586C30.7506 83.7953 30.7663 83.7268 30.7679 83.6572C30.7696 83.5877 30.7572 83.5185 30.7314 83.4539C30.7056 83.3892 30.6671 83.3305 30.618 83.2811C30.569 83.2317 30.5105 83.1928 30.446 83.1666C30.3816 83.1404 30.3125 83.1276 30.2429 83.1288C30.1733 83.13 30.1047 83.1452 30.0412 83.1736L30.0423 83.1694Z" fill="#C6C8CC"/>
<path d="M20.9835 87.8779L23.3702 86.9321C23.4358 86.9091 23.4961 86.8729 23.5475 86.826C23.5988 86.779 23.6401 86.7221 23.6689 86.6588C23.6977 86.5955 23.7134 86.527 23.7151 86.4574C23.7167 86.3878 23.7043 86.3187 23.6786 86.254C23.6528 86.1894 23.6142 86.1306 23.5652 86.0813C23.5162 86.0319 23.4576 85.993 23.3932 85.9668C23.3287 85.9406 23.2596 85.9277 23.19 85.9289C23.1205 85.9301 23.0519 85.9454 22.9883 85.9738L20.6016 86.9195C20.4994 86.9587 20.4122 87.0294 20.3528 87.1213C20.2933 87.2133 20.2647 87.3218 20.2709 87.4311C20.2772 87.5404 20.318 87.6449 20.3876 87.7295C20.4571 87.814 20.5517 87.8743 20.6578 87.9016C20.766 87.9298 20.8805 87.9214 20.9835 87.8779Z" fill="#C6C8CC"/>
<path d="M33.4015 79.2956C33.3817 79.2308 33.3493 79.1705 33.3061 79.1183C33.2629 79.0661 33.2098 79.0229 33.1499 78.9913C33.09 78.9596 33.0244 78.9402 32.9569 78.934C32.8894 78.9278 32.8214 78.935 32.7567 78.9552L22.419 82.1481C22.3118 82.181 22.2181 82.248 22.1523 82.3388C22.0865 82.4297 22.0521 82.5395 22.0543 82.6517C22.0565 82.7638 22.0952 82.8722 22.1645 82.9605C22.2338 83.0487 22.3299 83.112 22.4384 83.1407C22.5321 83.1657 22.6311 83.1632 22.7235 83.1333L33.0611 79.9404C33.1917 79.8999 33.3008 79.8092 33.3646 79.6883C33.4284 79.5674 33.4417 79.4262 33.4015 79.2956Z" fill="#C6C8CC"/>
<path d="M30.3739 77.4947C30.4542 77.5156 30.5384 77.5172 30.6195 77.4993L32.268 77.1281C32.3353 77.1144 32.3993 77.0875 32.4561 77.0488C32.5129 77.0101 32.5614 76.9605 32.5988 76.9029C32.6361 76.8452 32.6616 76.7807 32.6737 76.713C32.6859 76.6454 32.6843 76.576 32.6693 76.509C32.6542 76.442 32.626 76.3786 32.5861 76.3226C32.5463 76.2666 32.4956 76.2192 32.4372 76.183C32.3788 76.1469 32.3137 76.1228 32.2458 76.1121C32.178 76.1014 32.1086 76.1044 32.0419 76.1208L30.3934 76.4921C30.2807 76.5175 30.1798 76.5799 30.1067 76.6694C30.0337 76.7589 29.9928 76.8703 29.9905 76.9858C29.9883 77.1012 30.0248 77.2142 30.0943 77.3064C30.1638 77.3987 30.2623 77.465 30.3739 77.4947Z" fill="#C6C8CC"/>
<path d="M26.6673 78.3879C26.7984 78.3556 26.9116 78.2731 26.9827 78.1583C27.0537 78.0435 27.077 77.9054 27.0474 77.7736C27.0178 77.6419 26.9378 77.5269 26.8245 77.4535C26.7112 77.38 26.5736 77.3539 26.4412 77.3807L22.4337 78.2817C22.321 78.307 22.2201 78.3694 22.147 78.4589C22.074 78.5484 22.0331 78.6598 22.0308 78.7753C22.0286 78.8908 22.0651 79.0037 22.1346 79.0959C22.2041 79.1882 22.3025 79.2545 22.4142 79.2842C22.4945 79.3051 22.5787 79.3067 22.6598 79.2889L26.6673 78.3879Z" fill="#C6C8CC"/>
<path d="M26.9527 74.4152C26.9623 74.4824 26.9851 74.547 27.0197 74.6053C27.0544 74.6636 27.1001 74.7146 27.1544 74.7552C27.2088 74.7958 27.2705 74.8254 27.3363 74.8421C27.402 74.8588 27.4704 74.8625 27.5375 74.8528L31.6965 74.2573C31.7706 74.2579 31.8441 74.2425 31.9117 74.2122C31.9794 74.1819 32.0398 74.1373 32.0887 74.0816C32.1376 74.0258 32.174 73.9602 32.1952 73.8891C32.2165 73.818 32.2222 73.7432 32.2119 73.6698C32.2017 73.5963 32.1757 73.5259 32.1358 73.4634C32.0959 73.4009 32.043 73.3477 31.9807 73.3074C31.9184 73.2672 31.8482 73.2408 31.7748 73.2302C31.7014 73.2195 31.6265 73.2248 31.5553 73.2457L27.3846 73.8516C27.2541 73.8724 27.1367 73.9425 27.0563 74.0474C26.976 74.1522 26.9389 74.2839 26.9527 74.4152Z" fill="#C6C8CC"/>
<path d="M31.8426 70.7793C31.8386 70.7114 31.8211 70.6448 31.7913 70.5836C31.7615 70.5224 31.7198 70.4677 31.6687 70.4226C31.6176 70.3776 31.5581 70.3431 31.4937 70.3211C31.4292 70.2991 31.361 70.2902 31.2931 70.2947L14.4557 71.3496C14.3343 71.3583 14.2199 71.4096 14.1327 71.4944C14.0455 71.5792 13.991 71.6921 13.9789 71.8131C13.9668 71.9342 13.9978 72.0556 14.0664 72.156C14.1351 72.2564 14.2371 72.3294 14.3543 72.3619C14.4088 72.3764 14.4653 72.3824 14.5216 72.3796L31.3569 71.3241C31.4247 71.3205 31.491 71.3035 31.5522 71.2741C31.6133 71.2447 31.668 71.2035 31.7132 71.1528C31.7583 71.1022 31.793 71.0431 31.8152 70.979C31.8374 70.9149 31.8467 70.8471 31.8426 70.7793Z" fill="#C6C8CC"/>
<path d="M29.8832 68.3724C29.9247 68.383 29.9674 68.3884 30.0102 68.3883L31.243 68.4106C31.3112 68.4126 31.3792 68.401 31.4429 68.3765C31.5066 68.352 31.5648 68.3151 31.6141 68.268C31.6635 68.2208 31.703 68.1644 31.7304 68.1019C31.7578 68.0394 31.7725 67.972 31.7738 67.9038C31.775 67.8356 31.7627 67.7678 31.7375 67.7043C31.7124 67.6409 31.6749 67.5831 31.6272 67.5342C31.5796 67.4853 31.5227 67.4464 31.4599 67.4197C31.3972 67.3929 31.3297 67.3789 31.2615 67.3784L30.026 67.3576C29.9 67.3554 29.7775 67.3993 29.6817 67.4811C29.5858 67.563 29.5232 67.677 29.5057 67.8018C29.4881 67.9266 29.5168 68.0535 29.5863 68.1586C29.6559 68.2637 29.7614 68.3397 29.8832 68.3724Z" fill="#C6C8CC"/>
<path d="M27.3449 67.3142L22.8359 67.2383C22.7113 67.2382 22.5909 67.2831 22.4968 67.3648C22.4027 67.4464 22.3414 67.5594 22.3241 67.6828C22.3067 67.8061 22.3346 67.9316 22.4025 68.036C22.4704 68.1405 22.5738 68.2168 22.6936 68.251C22.7349 68.2624 22.7774 68.2684 22.8202 68.2691L27.3292 68.3449C27.4609 68.3395 27.5856 68.2838 27.6776 68.1894C27.7697 68.0949 27.8221 67.9688 27.8241 67.837C27.8261 67.7051 27.7776 67.5775 27.6885 67.4803C27.5994 67.3831 27.4764 67.3236 27.3449 67.3142Z" fill="#C6C8CC"/>
<path d="M19.7575 67.1902L17.1916 67.1481C17.0646 67.1435 16.9403 67.1862 16.8429 67.2679C16.7454 67.3495 16.6817 67.4644 16.664 67.5903C16.6463 67.7162 16.6759 67.8442 16.7471 67.9496C16.8183 68.055 16.926 68.1302 17.0494 68.1608C17.0899 68.172 17.1317 68.1779 17.1738 68.1783L19.7418 68.2209C19.8119 68.226 19.8822 68.2167 19.9486 68.1936C20.0149 68.1705 20.0758 68.1341 20.1276 68.0866C20.1794 68.0391 20.221 67.9816 20.2497 67.9175C20.2785 67.8534 20.2939 67.7842 20.295 67.7139C20.2961 67.6437 20.2828 67.574 20.256 67.509C20.2292 67.4441 20.1894 67.3853 20.1391 67.3363C20.0888 67.2873 20.029 67.249 19.9634 67.2239C19.8978 67.1988 19.8277 67.1873 19.7575 67.1902Z" fill="#C6C8CC"/>
<path d="M31.9446 65.0318C31.9573 64.8955 31.9155 64.7597 31.8284 64.654C31.7413 64.5484 31.616 64.4815 31.4797 64.4679L20.71 63.4415C20.5824 63.4315 20.4557 63.4692 20.3543 63.5473C20.253 63.6255 20.1843 63.7385 20.1616 63.8644C20.1388 63.9903 20.1637 64.1202 20.2313 64.2288C20.2989 64.3375 20.4044 64.4172 20.5274 64.4524C20.5543 64.4619 20.5818 64.4692 20.6098 64.4745L31.3686 65.4912C31.4367 65.4998 31.5059 65.4947 31.572 65.4761C31.6381 65.4576 31.6999 65.4259 31.7536 65.3831C31.8072 65.3403 31.8518 65.2871 31.8846 65.2268C31.9174 65.1665 31.9378 65.1002 31.9446 65.0318Z" fill="#C6C8CC"/>
<path d="M30.2316 61.2822C30.0984 61.2525 29.9589 61.277 29.8437 61.3502C29.7286 61.4234 29.6472 61.5393 29.6175 61.6725C29.5878 61.8057 29.6123 61.9452 29.6855 62.0604C29.7587 62.1756 29.8746 62.2569 30.0078 62.2866L30.0522 62.2985L31.7182 62.5887C31.8528 62.6121 31.9911 62.5811 32.1029 62.5026C32.2146 62.424 32.2905 62.3042 32.314 62.1697C32.3374 62.0351 32.3065 61.8967 32.2279 61.785C32.1493 61.6733 32.0296 61.5974 31.895 61.5739L30.2316 61.2822Z" fill="#C6C8CC"/>
<path d="M22.0205 60.8916L26.0699 61.6007C26.2033 61.6208 26.3392 61.5879 26.4486 61.5091C26.558 61.4302 26.6322 61.3117 26.6554 61.1789C26.6785 61.0461 26.6488 60.9094 26.5725 60.7982C26.4963 60.687 26.3795 60.6101 26.2473 60.5838L22.202 59.8758C22.0714 59.8534 21.9372 59.8821 21.8272 59.9559C21.7171 60.0297 21.6397 60.143 21.6108 60.2723C21.582 60.4016 21.604 60.5371 21.6723 60.6507C21.7406 60.7642 21.8499 60.8472 21.9776 60.8824L22.0205 60.8916Z" fill="#C6C8CC"/>
<path d="M32.5559 58.7187L28.4808 57.6743C28.3522 57.6487 28.2187 57.673 28.1073 57.7422C27.996 57.8114 27.9152 57.9204 27.8812 58.047C27.8473 58.1736 27.8628 58.3084 27.9246 58.4241C27.9865 58.5397 28.09 58.6274 28.2141 58.6695L32.2829 59.7122C32.3498 59.7349 32.4206 59.7436 32.491 59.7378C32.5614 59.732 32.6298 59.7118 32.6921 59.6785C32.7544 59.6452 32.8092 59.5995 32.8531 59.5442C32.897 59.4889 32.929 59.4251 32.9473 59.3569C32.9656 59.2887 32.9697 59.2174 32.9593 59.1476C32.949 59.0777 32.9244 59.0107 32.8871 58.9507C32.8498 58.8908 32.8006 58.8391 32.7426 58.7989C32.6845 58.7587 32.6188 58.7308 32.5496 58.717L32.5559 58.7187Z" fill="#C6C8CC"/>
</g>
<defs>
<clipPath id="clip0">
<rect width="112" height="112" fill="white" transform="translate(28.9878) rotate(15)"/>
</clipPath>
</defs>
</svg>
