<svg width="138" height="138" viewBox="0 0 138 138" fill="none" xmlns="http://www.w3.org/2000/svg">
<g clip-path="url(#clip0)">
<path d="M81.8177 22.7615C80.1274 22.3086 79.427 24.9223 81.1174 25.3752C82.8077 25.8281 83.5018 23.2127 81.8177 22.7615Z" fill="#C6C8CC"/>
<path d="M78.4912 36.1987C79.7759 36.543 80.313 34.5468 79.0262 34.202C77.7394 33.8572 77.2044 35.8539 78.4912 36.1987Z" fill="#C6C8CC"/>
<path d="M39.6453 108.437C38.5234 108.136 38.0547 109.877 39.1788 110.178C40.3029 110.479 40.7673 108.737 39.6453 108.437Z" fill="#C6C8CC"/>
<path d="M76.5604 51.0199C77.6803 51.32 78.1489 49.5795 77.0269 49.2788C75.9049 48.9782 75.4363 50.7187 76.5604 51.0199Z" fill="#C6C8CC"/>
<path d="M35.3317 79.7492C34.2097 79.4486 33.7405 81.1912 34.8646 81.4924C35.9887 81.7936 36.4537 80.0499 35.3317 79.7492Z" fill="#C6C8CC"/>
<path d="M64.4301 96.2652C64.4269 96.2075 64.442 96.1503 64.4734 96.1017C64.5047 96.0531 64.5506 96.0157 64.6045 95.9949L66.0371 95.4321C66.0903 95.4107 66.1355 95.3731 66.1662 95.3246C66.1969 95.2762 66.2116 95.2192 66.2082 95.162C66.2047 95.1047 66.1834 95.0499 66.1471 95.0055C66.1108 94.961 66.0614 94.9291 66.006 94.9142L64.5241 94.5285C64.4682 94.5139 64.4184 94.4822 64.3815 94.4378C64.3447 94.3934 64.3227 94.3385 64.3187 94.2809L64.2283 92.7417C64.2255 92.6838 64.2044 92.6284 64.168 92.5834C64.1317 92.5383 64.0819 92.506 64.026 92.491C63.9701 92.476 63.9109 92.4792 63.8569 92.5C63.8029 92.5208 63.7568 92.5583 63.7255 92.6069L62.8971 93.9068C62.8664 93.9558 62.8209 93.9936 62.7671 94.0147C62.7133 94.0357 62.6542 94.0389 62.5985 94.0238L61.1054 93.6374C61.0495 93.6221 60.9903 93.6252 60.9362 93.6461C60.8822 93.667 60.8363 93.7047 60.8053 93.7536C60.7742 93.8025 60.7596 93.86 60.7636 93.9178C60.7676 93.9756 60.79 94.0305 60.8275 94.0747L61.8061 95.2654C61.843 95.3097 61.8647 95.3647 61.8681 95.4222C61.8714 95.4798 61.8561 95.5369 61.8246 95.5852L60.9843 96.8955C60.9528 96.9439 60.9377 97.0012 60.941 97.0589C60.9444 97.1166 60.966 97.1717 61.0029 97.2162C61.0398 97.2607 61.0899 97.2923 61.1459 97.3063C61.202 97.3203 61.261 97.3161 61.3145 97.2942L62.7492 96.732C62.8027 96.711 62.8616 96.7077 62.9171 96.7226C62.9726 96.7375 63.0219 96.7697 63.0577 96.8147L64.0363 98.0054C64.0731 98.0497 64.1228 98.0812 64.1786 98.0955C64.2343 98.1099 64.2931 98.1063 64.3466 98.0853C64.4002 98.0642 64.4458 98.0269 64.4768 97.9784C64.5079 97.93 64.5229 97.873 64.5197 97.8156L64.4301 96.2652Z" fill="#C6C8CC"/>
<path d="M64.5299 76.9606L63.7713 76.7574C63.7431 76.7503 63.718 76.7344 63.6995 76.7119C63.6811 76.6894 63.6703 76.6616 63.6689 76.6326L63.6205 75.8496C63.6191 75.8204 63.6085 75.7925 63.5902 75.7697C63.5718 75.747 63.5467 75.7307 63.5185 75.7231C63.4903 75.7156 63.4604 75.7172 63.4332 75.7277C63.406 75.7382 63.3828 75.7571 63.367 75.7817L62.9451 76.4432C62.9292 76.4676 62.9059 76.4864 62.8787 76.497C62.8515 76.5076 62.8217 76.5094 62.7934 76.5022L62.0349 76.2989C62.0064 76.2911 61.9762 76.2926 61.9487 76.3032C61.9211 76.3138 61.8977 76.333 61.8819 76.358C61.8661 76.3829 61.8587 76.4122 61.8609 76.4417C61.863 76.4711 61.8745 76.4991 61.8937 76.5215L62.3908 77.1258C62.4096 77.1485 62.4207 77.1765 62.4225 77.2059C62.4244 77.2353 62.417 77.2645 62.4013 77.2894L61.9801 77.9488C61.9633 77.9738 61.9551 78.0036 61.9567 78.0337C61.9582 78.0638 61.9694 78.0926 61.9887 78.1158C62.0079 78.139 62.0341 78.1554 62.0634 78.1625C62.0926 78.1697 62.1234 78.1672 62.1512 78.1554L62.8803 77.8684C62.9078 77.8575 62.938 77.8558 62.9665 77.8635C62.9951 77.8711 63.0204 77.8877 63.0388 77.9109L63.5359 78.5151C63.5531 78.541 63.5785 78.5603 63.608 78.5698C63.6376 78.5794 63.6695 78.5788 63.6986 78.568C63.7277 78.5572 63.7523 78.5368 63.7684 78.5103C63.7845 78.4837 63.7912 78.4525 63.7874 78.4217L63.7411 77.6393C63.7391 77.6102 63.7464 77.5811 63.762 77.5564C63.7776 77.5317 63.8006 77.5125 63.8278 77.5017L64.559 77.2153C64.5834 77.2023 64.6033 77.1822 64.6162 77.1578C64.629 77.1333 64.6342 77.1055 64.631 77.0781C64.6279 77.0506 64.6166 77.0247 64.5985 77.0038C64.5805 76.9829 64.5566 76.9678 64.5299 76.9606Z" fill="#C6C8CC"/>
<path d="M80.5424 69.1127L81.2578 69.9838C81.2838 70.016 81.2991 70.0554 81.3018 70.0966C81.3046 70.1379 81.2945 70.179 81.2731 70.2143L80.667 71.1661C80.6447 71.2016 80.6342 71.2432 80.637 71.2851C80.6397 71.3269 80.6556 71.3667 80.6824 71.399C80.7091 71.4312 80.7453 71.4542 80.7859 71.4647C80.8265 71.4752 80.8693 71.4726 80.9083 71.4573L81.959 71.0435C81.9983 71.0288 82.0412 71.0267 82.0818 71.0376C82.1223 71.0485 82.1584 71.0717 82.1851 71.1041L82.9027 71.9758C82.9297 72.0065 82.9653 72.0282 83.0049 72.0382C83.0445 72.0481 83.0862 72.0458 83.1245 72.0314C83.1627 72.0171 83.1957 71.9915 83.2191 71.958C83.2424 71.9244 83.255 71.8846 83.2551 71.8438L83.1881 70.7161C83.1857 70.6749 83.1964 70.634 83.2187 70.5993C83.2411 70.5646 83.2739 70.5378 83.3124 70.523L84.3631 70.1092C84.4029 70.0943 84.4369 70.067 84.4601 70.0313C84.4833 69.9956 84.4944 69.9534 84.4919 69.9109C84.4893 69.8685 84.4732 69.8279 84.4459 69.7953C84.4186 69.7626 84.3816 69.7395 84.3403 69.7295L83.25 69.4373C83.209 69.4274 83.1724 69.4045 83.1456 69.372C83.1187 69.3395 83.1032 69.2992 83.1013 69.2571L83.0343 68.1294C83.0314 68.0876 83.0155 68.0478 82.9888 68.0154C82.9622 67.9831 82.9261 67.9598 82.8856 67.949C82.8451 67.9381 82.8022 67.9402 82.763 67.9549C82.7237 67.9696 82.69 67.9962 82.6666 68.0309L82.0646 68.9929C82.0414 69.0278 82.0081 69.0548 81.9692 69.0703C81.9302 69.0857 81.8875 69.0889 81.8467 69.0794L80.7564 68.7873C80.7139 68.7707 80.667 68.7692 80.6235 68.783C80.58 68.7968 80.5426 68.8252 80.5176 68.8633C80.4925 68.9014 80.4813 68.947 80.4858 68.9924C80.4903 69.0378 80.5103 69.0802 80.5424 69.1127Z" fill="#C6C8CC"/>
<path d="M35.8065 96.8842L34.7162 96.5921C34.6754 96.5818 34.6389 96.5588 34.6122 96.5264C34.5854 96.494 34.5697 96.4538 34.5675 96.4118L34.5005 95.2842C34.4976 95.2424 34.4817 95.2025 34.455 95.1701C34.4284 95.1378 34.3923 95.1146 34.3518 95.1037C34.3113 95.0929 34.2684 95.095 34.2292 95.1096C34.1899 95.1243 34.1562 95.1509 34.1328 95.1857L33.5246 96.1369C33.5024 96.1728 33.4692 96.2006 33.4299 96.2162C33.3907 96.2318 33.3475 96.2343 33.3067 96.2235L32.2164 95.9313C32.1757 95.9209 32.1328 95.9236 32.0938 95.939C32.0547 95.9544 32.0215 95.9818 31.999 96.0172C31.9764 96.0526 31.9657 96.0942 31.9682 96.1361C31.9707 96.178 31.9864 96.2181 32.0131 96.2505L32.7307 97.1222C32.7563 97.1545 32.7715 97.1939 32.7742 97.2351C32.7769 97.2763 32.7671 97.3173 32.7459 97.3527L32.1377 98.304C32.1155 98.3395 32.105 98.3811 32.1077 98.4229C32.1105 98.4647 32.1264 98.5046 32.1531 98.5368C32.1798 98.5691 32.2161 98.5921 32.2566 98.6026C32.2972 98.613 32.34 98.6104 32.3791 98.5951L33.4297 98.1814C33.4694 98.1666 33.5127 98.1645 33.5536 98.1755C33.5945 98.1864 33.631 98.2099 33.6579 98.2425L34.3734 99.1137C34.4004 99.1443 34.436 99.1661 34.4757 99.176C34.5153 99.186 34.557 99.1836 34.5952 99.1693C34.6335 99.155 34.6664 99.1293 34.6898 99.0958C34.7131 99.0623 34.7257 99.0225 34.7259 98.9816L34.6589 97.854C34.6568 97.8128 34.6676 97.7721 34.6899 97.7374C34.7122 97.7027 34.7448 97.676 34.7831 97.6608L35.8338 97.2471C35.8677 97.2289 35.8957 97.2012 35.9142 97.1674C35.9327 97.1336 35.941 97.0952 35.9381 97.0568C35.9352 97.0183 35.9212 96.9816 35.8979 96.951C35.8745 96.9203 35.8428 96.8971 35.8065 96.8842Z" fill="#C6C8CC"/>
<path d="M82.9676 114.99L81.8773 114.698C81.8365 114.687 81.8001 114.664 81.7734 114.631C81.7468 114.598 81.7313 114.558 81.7292 114.516L81.6616 113.39C81.6587 113.348 81.6428 113.308 81.6161 113.276C81.5895 113.244 81.5534 113.22 81.5129 113.21C81.4724 113.199 81.4296 113.201 81.3903 113.215C81.3511 113.23 81.3174 113.257 81.2939 113.292L80.6858 114.243C80.6635 114.279 80.6303 114.306 80.5911 114.322C80.5518 114.338 80.5086 114.34 80.4678 114.329L79.3775 114.037C79.3369 114.027 79.2939 114.029 79.2549 114.045C79.2158 114.06 79.1827 114.088 79.1601 114.123C79.1376 114.158 79.1268 114.2 79.1293 114.242C79.1319 114.284 79.1476 114.324 79.1742 114.356L79.8897 115.227C79.9165 115.259 79.9325 115.299 79.9352 115.34C79.938 115.382 79.9273 115.423 79.9049 115.458L79.2989 116.41C79.2766 116.445 79.2661 116.487 79.2689 116.529C79.2716 116.571 79.2875 116.61 79.3142 116.643C79.341 116.675 79.3772 116.698 79.4178 116.708C79.4583 116.719 79.5012 116.716 79.5402 116.701L80.5903 116.289C80.6295 116.274 80.6726 116.272 80.7133 116.282C80.754 116.293 80.7902 116.317 80.8164 116.35L81.534 117.222C81.5604 117.254 81.5961 117.276 81.6361 117.287C81.6761 117.298 81.7185 117.296 81.7573 117.281C81.7961 117.267 81.8293 117.24 81.8525 117.206C81.8756 117.172 81.8875 117.131 81.8864 117.09L81.8194 115.962C81.8173 115.921 81.8282 115.88 81.8505 115.845C81.8727 115.811 81.9053 115.784 81.9437 115.769L82.9938 115.357C83.0291 115.34 83.0583 115.312 83.0779 115.278C83.0974 115.243 83.1063 115.204 83.1035 115.165C83.1007 115.126 83.0863 115.088 83.0621 115.057C83.0379 115.026 83.005 115.002 82.9676 114.99Z" fill="#C6C8CC"/>
<path d="M64.0189 55.6673C64.2137 55.7195 64.4195 55.7127 64.6104 55.6479C64.8013 55.5831 64.9687 55.4631 65.0915 55.3032C65.2142 55.1432 65.2868 54.9505 65.2999 54.7493C65.3131 54.5481 65.2664 54.3476 65.1656 54.173C65.0648 53.9984 64.9144 53.8576 64.7336 53.7684C64.5528 53.6792 64.3496 53.6457 64.1497 53.672C63.9498 53.6983 63.7622 53.7833 63.6106 53.9162C63.4591 54.0492 63.3503 54.2241 63.2981 54.4188C63.2281 54.68 63.2648 54.9582 63.4 55.1923C63.5351 55.4265 63.7578 55.5973 64.0189 55.6673Z" fill="#C6C8CC"/>
<path d="M75.6188 20.7857C75.5113 20.7564 75.3976 20.7598 75.292 20.7953C75.1864 20.8308 75.0938 20.8968 75.0258 20.9851C74.9578 21.0733 74.9176 21.1797 74.9102 21.2908C74.9028 21.402 74.9286 21.5128 74.9843 21.6092C75.04 21.7057 75.1231 21.7834 75.223 21.8326C75.3229 21.8818 75.4352 21.9001 75.5456 21.8854C75.656 21.8706 75.7595 21.8234 75.8431 21.7497C75.9266 21.6761 75.9863 21.5792 76.0148 21.4715C76.0526 21.3281 76.0322 21.1755 75.958 21.0471C75.8839 20.9186 75.7619 20.8246 75.6188 20.7857Z" fill="#C6C8CC"/>
<path d="M73.6632 32.851C73.5562 32.8223 73.4431 32.826 73.3382 32.8616C73.2333 32.8972 73.1414 32.9631 73.074 33.051C73.0065 33.1389 72.9667 33.2448 72.9594 33.3553C72.9522 33.4658 72.9779 33.576 73.0333 33.6719C73.0886 33.7678 73.1712 33.8452 73.2705 33.8942C73.3699 33.9432 73.4815 33.9616 73.5913 33.9471C73.7011 33.9327 73.8042 33.886 73.8875 33.8129C73.9707 33.7399 74.0305 33.6438 74.0591 33.5369C74.0785 33.4658 74.0836 33.3917 74.0741 33.3186C74.0646 33.2456 74.0408 33.1752 74.004 33.1115C73.9672 33.0477 73.9181 32.9919 73.8596 32.9472C73.8011 32.9025 73.7344 32.8698 73.6632 32.851Z" fill="#C6C8CC"/>
<path d="M89.0789 24.6437C89.1863 24.6729 89.2999 24.6696 89.4054 24.6342C89.5109 24.5987 89.6035 24.5328 89.6715 24.4447C89.7395 24.3566 89.7799 24.2504 89.7874 24.1393C89.795 24.0283 89.7694 23.9175 89.7139 23.821C89.6585 23.7246 89.5756 23.6467 89.4759 23.5973C89.3762 23.548 89.264 23.5293 89.1537 23.5437C89.0434 23.5582 88.9398 23.605 88.8561 23.6783C88.7724 23.7517 88.7123 23.8482 88.6835 23.9557C88.645 24.0993 88.665 24.2524 88.7391 24.3813C88.8132 24.5103 88.9354 24.6046 89.0789 24.6437Z" fill="#C6C8CC"/>
<path d="M77.0993 25.7321C76.9923 25.7039 76.8793 25.708 76.7747 25.744C76.67 25.7799 76.5783 25.846 76.5112 25.934C76.4441 26.022 76.4046 26.1279 76.3976 26.2384C76.3906 26.3488 76.4166 26.4588 76.4721 26.5546C76.5276 26.6503 76.6102 26.7274 76.7095 26.7762C76.8089 26.825 76.9204 26.8433 77.0301 26.8288C77.1398 26.8142 77.2428 26.7675 77.3259 26.6945C77.4091 26.6215 77.4688 26.5255 77.4974 26.4186C77.5165 26.3474 77.5213 26.2731 77.5116 26.2C77.5019 26.1269 77.4779 26.0565 77.4409 25.9927C77.4039 25.9289 77.3547 25.8731 77.2961 25.8284C77.2375 25.7836 77.1706 25.7509 77.0993 25.7321Z" fill="#C6C8CC"/>
<path d="M83.5241 36.7705C83.6311 36.7987 83.7441 36.7946 83.8487 36.7587C83.9534 36.7228 84.0451 36.6566 84.1122 36.5686C84.1793 36.4807 84.2188 36.3747 84.2258 36.2643C84.2328 36.1539 84.2069 36.0438 84.1513 35.9481C84.0958 35.8524 84.0132 35.7752 83.9139 35.7264C83.8145 35.6776 83.703 35.6594 83.5933 35.6739C83.4836 35.6885 83.3806 35.7352 83.2975 35.8082C83.2143 35.8812 83.1546 35.9772 83.126 36.0841C83.1069 36.1553 83.1021 36.2296 83.1118 36.3027C83.1215 36.3758 83.1455 36.4462 83.1825 36.51C83.2195 36.5738 83.2687 36.6296 83.3273 36.6743C83.3859 36.719 83.4528 36.7517 83.5241 36.7705Z" fill="#C6C8CC"/>
<path d="M86.0477 28.6371C86.1935 28.6762 86.3477 28.6712 86.4907 28.6226C86.6337 28.5741 86.759 28.4843 86.851 28.3645C86.9429 28.2447 86.9972 28.1003 87.0071 27.9496C87.017 27.799 86.9819 27.6488 86.9064 27.518C86.8309 27.3872 86.7184 27.2818 86.5829 27.215C86.4475 27.1482 86.2953 27.1231 86.1456 27.1428C85.9959 27.1625 85.8554 27.2262 85.7419 27.3257C85.6284 27.4253 85.5469 27.5563 85.5079 27.7021C85.4819 27.799 85.4753 27.9 85.4884 27.9994C85.5015 28.0988 85.534 28.1946 85.5841 28.2814C85.6342 28.3683 85.701 28.4444 85.7805 28.5054C85.8601 28.5664 85.9508 28.6112 86.0477 28.6371Z" fill="#C6C8CC"/>
<path d="M63.807 104.321C62.5709 103.99 62.0541 105.91 63.2923 106.242C64.5305 106.574 65.0367 104.651 63.807 104.321Z" fill="#C6C8CC"/>
<path d="M53.8919 105.32C53.7845 105.291 53.6707 105.294 53.5652 105.329C53.4596 105.365 53.367 105.431 53.299 105.519C53.231 105.607 53.1908 105.714 53.1834 105.825C53.176 105.936 53.2018 106.047 53.2575 106.143C53.3132 106.24 53.3962 106.318 53.4962 106.367C53.5961 106.416 53.7084 106.434 53.8188 106.419C53.9292 106.405 54.0327 106.358 54.1162 106.284C54.1998 106.21 54.2595 106.113 54.2879 106.006C54.3264 105.862 54.3062 105.709 54.232 105.581C54.1577 105.452 54.0354 105.358 53.8919 105.32Z" fill="#C6C8CC"/>
<path d="M72.7213 90.6691C72.9303 90.7251 73.1512 90.7178 73.356 90.6483C73.5608 90.5788 73.7405 90.4501 73.8722 90.2784C74.0038 90.1068 74.0817 89.9 74.0958 89.6841C74.11 89.4683 74.0598 89.2531 73.9516 89.0657C73.8435 88.8784 73.6822 88.7273 73.4882 88.6317C73.2942 88.536 73.0761 88.5 72.8617 88.5282C72.6472 88.5565 72.4459 88.6477 72.2833 88.7903C72.1206 88.9329 72.0039 89.1206 71.9479 89.3295C71.8729 89.6097 71.9122 89.9083 72.0572 90.1595C72.2022 90.4107 72.4411 90.594 72.7213 90.6691Z" fill="#C6C8CC"/>
<path d="M69.8211 82.747C69.7137 82.7177 69.6 82.7211 69.4945 82.7565C69.389 82.7919 69.2964 82.8578 69.2284 82.9459C69.1604 83.034 69.1201 83.1403 69.1125 83.2513C69.105 83.3623 69.1306 83.4731 69.186 83.5696C69.2415 83.6661 69.3243 83.7439 69.424 83.7933C69.5238 83.8426 69.6359 83.8613 69.7463 83.8469C69.8566 83.8325 69.9602 83.7856 70.0439 83.7123C70.1276 83.639 70.1877 83.5424 70.2165 83.4349C70.255 83.2913 70.235 83.1382 70.1609 83.0093C70.0867 82.8803 69.9646 82.786 69.8211 82.747Z" fill="#C6C8CC"/>
<path d="M72.2397 70.6269C72.1322 70.5977 72.0185 70.601 71.9129 70.6365C71.8074 70.672 71.7147 70.7381 71.6468 70.8263C71.5788 70.9145 71.5386 71.021 71.5312 71.1321C71.5238 71.2432 71.5495 71.354 71.6052 71.4505C71.6609 71.5469 71.744 71.6247 71.8439 71.6739C71.9439 71.723 72.0562 71.7414 72.1666 71.7266C72.277 71.7119 72.3805 71.6647 72.464 71.591C72.5475 71.5173 72.6073 71.4205 72.6357 71.3128C72.6741 71.1693 72.654 71.0165 72.5798 70.8879C72.5055 70.7592 72.3832 70.6654 72.2397 70.6269Z" fill="#C6C8CC"/>
<path d="M70.9695 44.2225C71.0764 44.2512 71.1895 44.2475 71.2944 44.2119C71.3993 44.1763 71.4912 44.1104 71.5587 44.0225C71.6261 43.9346 71.6659 43.8288 71.6732 43.7182C71.6804 43.6077 71.6547 43.4975 71.5994 43.4016C71.544 43.3057 71.4614 43.2284 71.3621 43.1794C71.2627 43.1304 71.1511 43.1119 71.0413 43.1264C70.9315 43.1409 70.8284 43.1876 70.7452 43.2606C70.6619 43.3336 70.6021 43.4297 70.5735 43.5367C70.535 43.6801 70.5552 43.833 70.6294 43.9616C70.7037 44.0902 70.826 44.1841 70.9695 44.2225Z" fill="#C6C8CC"/>
<path d="M80.9237 43.1032C81.0909 43.148 81.2675 43.1422 81.4314 43.0866C81.5953 43.031 81.739 42.928 81.8443 42.7907C81.9497 42.6534 82.012 42.4879 82.0233 42.3153C82.0346 42.1426 81.9945 41.9704 81.9079 41.8205C81.8214 41.6707 81.6924 41.5498 81.5372 41.4733C81.3819 41.3967 81.2075 41.3679 81.0359 41.3905C80.8644 41.4131 80.7033 41.4861 80.5732 41.6002C80.4431 41.7143 80.3498 41.8644 80.305 42.0316C80.2449 42.2557 80.2764 42.4945 80.3924 42.6955C80.5084 42.8965 80.6995 43.0431 80.9237 43.1032Z" fill="#C6C8CC"/>
<path d="M81.2434 57.6895C81.3504 57.7178 81.4634 57.7136 81.568 57.6777C81.6727 57.6418 81.7644 57.5756 81.8315 57.4877C81.8986 57.3997 81.9381 57.2938 81.9451 57.1833C81.9521 57.0729 81.9262 56.9628 81.8706 56.8671C81.8151 56.7714 81.7325 56.6942 81.6332 56.6454C81.5338 56.5966 81.4223 56.5784 81.3126 56.5929C81.2029 56.6075 81.0999 56.6542 81.0168 56.7272C80.9336 56.8002 80.8739 56.8962 80.8453 57.0031C80.8262 57.0743 80.8214 57.1486 80.8311 57.2217C80.8408 57.2948 80.8648 57.3652 80.9018 57.429C80.9388 57.4928 80.988 57.5486 81.0466 57.5933C81.1052 57.638 81.1721 57.6707 81.2434 57.6895Z" fill="#C6C8CC"/>
<path d="M53.6853 115.743C53.5779 115.714 53.4643 115.717 53.3588 115.752C53.2533 115.788 53.1607 115.854 53.0927 115.942C53.0247 116.03 52.9844 116.136 52.9768 116.247C52.9693 116.358 52.9948 116.469 53.0503 116.566C53.1057 116.662 53.1886 116.74 53.2883 116.789C53.388 116.839 53.5002 116.857 53.6105 116.843C53.7209 116.828 53.8245 116.782 53.9082 116.708C53.9919 116.635 54.0519 116.538 54.0807 116.431C54.1192 116.287 54.0992 116.134 54.0251 116.005C53.951 115.876 53.8288 115.782 53.6853 115.743Z" fill="#C6C8CC"/>
<path d="M90.6076 110.092C90.5006 110.063 90.3876 110.067 90.2827 110.102C90.1778 110.138 90.0858 110.204 90.0184 110.292C89.951 110.379 89.9111 110.485 89.9039 110.596C89.8966 110.706 89.9223 110.817 89.9777 110.912C90.0331 111.008 90.1157 111.086 90.215 111.135C90.3143 111.184 90.426 111.202 90.5358 111.188C90.6456 111.173 90.7486 111.127 90.8319 111.054C90.9152 110.98 90.9749 110.884 91.0036 110.777C91.0414 110.634 91.0211 110.481 90.9469 110.353C90.8727 110.224 90.7508 110.131 90.6076 110.092Z" fill="#C6C8CC"/>
<path d="M90.2748 82.8173C90.3822 82.8465 90.4958 82.8432 90.6013 82.8078C90.7068 82.7724 90.7994 82.7065 90.8674 82.6184C90.9354 82.5303 90.9758 82.424 90.9833 82.313C90.9909 82.202 90.9653 82.0912 90.9098 81.9947C90.8544 81.8982 90.7715 81.8204 90.6718 81.771C90.5721 81.7216 90.4599 81.703 90.3496 81.7174C90.2392 81.7318 90.1356 81.7787 90.0519 81.852C89.9682 81.9253 89.9082 82.0218 89.8794 82.1293C89.8409 82.273 89.8609 82.426 89.935 82.555C90.0091 82.6839 90.1313 82.7783 90.2748 82.8173Z" fill="#C6C8CC"/>
<path d="M53.2042 64.8832C53.3112 64.9119 53.4243 64.9082 53.5292 64.8726C53.634 64.837 53.726 64.7711 53.7934 64.6832C53.8609 64.5954 53.9007 64.4895 53.908 64.3789C53.9152 64.2684 53.8895 64.1582 53.8341 64.0623C53.7788 63.9664 53.6962 63.8891 53.5968 63.8401C53.4975 63.7911 53.3859 63.7727 53.2761 63.7871C53.1663 63.8016 53.0632 63.8483 52.9799 63.9213C52.8967 63.9943 52.8369 64.0904 52.8082 64.1974C52.7704 64.3408 52.7908 64.4934 52.865 64.6219C52.9391 64.7504 53.0611 64.8443 53.2042 64.8832Z" fill="#C6C8CC"/>
<path d="M93.3976 98.3608C93.4268 98.2533 93.4235 98.1396 93.388 98.034C93.3525 97.9285 93.2865 97.8358 93.1982 97.7678C93.11 97.6999 93.0036 97.6596 92.8925 97.6522C92.7813 97.6449 92.6705 97.6706 92.574 97.7263C92.4776 97.782 92.3998 97.8651 92.3507 97.965C92.3015 98.065 92.2832 98.1773 92.2979 98.2877C92.3127 98.3981 92.3599 98.5016 92.4335 98.5851C92.5072 98.6686 92.6041 98.7284 92.7117 98.7568C92.8552 98.7946 93.0078 98.7742 93.1362 98.7001C93.2647 98.6259 93.3586 98.5039 93.3976 98.3608Z" fill="#C6C8CC"/>
<path d="M71.7383 118.764C71.5795 118.721 71.4116 118.727 71.2559 118.78C71.1002 118.832 70.9637 118.93 70.8636 119.061C70.7636 119.191 70.7044 119.348 70.6936 119.512C70.6829 119.676 70.721 119.84 70.8032 119.982C70.8854 120.125 71.008 120.24 71.1555 120.312C71.3029 120.385 71.4686 120.412 71.6316 120.391C71.7946 120.369 71.9476 120.3 72.0712 120.192C72.1948 120.083 72.2835 119.941 72.326 119.782C72.3543 119.676 72.3615 119.566 72.3472 119.458C72.333 119.35 72.2976 119.246 72.243 119.151C72.1884 119.057 72.1157 118.974 72.0291 118.907C71.9425 118.841 71.8437 118.792 71.7383 118.764Z" fill="#C6C8CC"/>
<path d="M53.768 89.0986C54.3421 89.2524 54.9322 88.9117 55.0861 88.3376C55.2399 87.7634 54.8992 87.1733 54.3251 87.0194C53.7509 86.8656 53.1608 87.2063 53.0069 87.7805C52.8531 88.3546 53.1938 88.9447 53.768 89.0986Z" fill="#C6C8CC"/>
<path d="M98.9471 100.774C100.241 90.0873 97.0249 82.6512 91.0314 73.4179C83.0958 61.1889 86.3337 50.2122 90.433 36.3163L90.6452 35.5918C90.6593 35.5565 90.6692 35.5196 90.6747 35.482C90.9117 35.4934 91.135 35.4966 91.3293 35.4898C92.4597 35.4462 93.2852 34.9518 93.4873 34.1974L94.2001 31.5372C94.2092 31.5034 94.2183 31.4696 94.2173 31.4308C94.3505 30.7056 93.8884 29.9114 92.9669 29.3361C92.455 29.0288 91.9223 28.7574 91.3727 28.524C91.2908 28.4885 91.2063 28.4591 91.1201 28.4359L90.465 28.2604L93.1696 21.8265L93.1787 21.7927L93.1855 21.7673C93.1917 21.7441 93.1974 21.7229 93.2036 21.6997C93.9619 18.9203 85.4973 16.5005 83.7963 16.0447C82.0954 15.589 73.5507 13.4512 72.805 16.2339C72.7988 16.2572 72.7931 16.2783 72.7869 16.3015L72.7818 16.3206L72.773 16.4042L71.9085 23.2225L71.4201 23.1098L71.3694 23.0962C70.6488 22.9961 69.9214 22.9526 69.1939 22.9662C68.1166 23.0059 67.3194 23.4626 67.0636 24.155C67.054 24.191 67.0344 24.2219 67.0253 24.2557L66.3125 26.916C66.1104 27.6703 66.5802 28.5118 67.5353 29.1142C67.7001 29.2173 67.8952 29.3261 68.1055 29.4369C68.0916 29.4715 68.0819 29.5077 68.0767 29.5446L67.8982 30.2781C64.5004 44.362 61.8225 55.4887 48.8292 62.1098C39.022 67.1094 32.518 71.9433 28.296 81.8431C25.8706 87.514 24.7545 94.1471 25.1357 100.509C25.6037 108.363 30.702 114.92 37.8206 116.828L73.2063 126.309C80.3249 128.217 88.0269 125.09 92.3511 118.519C95.86 113.2 98.2031 106.898 98.9471 100.774ZM90.854 29.429C90.8907 29.4354 90.9267 29.4451 90.9617 29.4579C91.4659 29.6696 91.9544 29.917 92.4233 30.1983C92.908 30.5025 93.1466 30.8291 93.1993 31.072C92.8953 31.0993 92.0858 31.0862 90.0522 30.7224C89.8659 30.6907 89.6718 30.6545 89.474 30.6151L90.066 29.2088L90.854 29.429ZM72.5742 26.1728L73.6539 17.6299C74.3499 18.0642 75.0857 18.4313 75.8513 18.726C78.0222 19.5778 80.2428 20.2969 82.5009 20.8792C87.0185 22.0897 90.1254 22.6142 91.792 22.4629L88.4425 30.4247C85.9307 29.9102 82.7119 29.127 79.465 28.2457C76.8924 27.5269 74.5023 26.8118 72.5742 26.1728ZM83.5302 17.0378C86.0383 17.7099 88.3144 18.5462 89.9403 19.3918C91.6572 20.2866 92.2423 20.9937 92.2355 21.3656C91.6412 21.6479 88.3431 21.3802 82.767 19.8861C77.1909 18.392 74.213 16.9803 73.831 16.4364C74.211 15.6776 77.6773 15.4695 83.5302 17.0378ZM69.2376 23.9947C69.8999 23.9843 70.5621 24.0254 71.218 24.1177L71.783 24.2488L71.585 25.833L71.221 25.7038C69.1355 24.9593 68.3921 24.5472 68.1309 24.364C68.2959 24.1795 68.6658 24.0159 69.2376 23.9947ZM68.098 28.2481C67.4721 27.854 67.2528 27.4215 67.3162 27.1849L67.8025 25.3699C68.3894 25.7151 69.3419 26.1243 70.8715 26.67C72.9945 27.4269 75.9513 28.3346 79.1959 29.2244L80.2165 29.4979C83.9142 30.4886 87.3889 31.2974 89.87 31.7403C91.3545 32.0067 92.3321 32.1192 92.9731 32.1188L92.4868 33.9339C92.4234 34.1705 92.0193 34.4359 91.2802 34.4643C87.1771 34.615 71.5749 30.4344 68.098 28.2481ZM86.7059 34.9621L85.5783 38.0207C85.5776 38.028 85.5757 38.0351 85.5727 38.0418C85.1923 38.4132 82.4181 38.3289 78.1309 37.1801C73.8437 36.0314 71.3961 34.7279 71.2552 34.2055C71.256 34.1982 71.2579 34.191 71.2609 34.1844L71.8137 30.9717C73.9563 31.7315 76.5589 32.524 79.1917 33.2295C81.8245 33.9349 84.4704 34.5488 86.7059 34.9621ZM91.4926 117.954C87.4044 124.151 80.1621 127.109 73.4724 125.316L38.093 115.836C31.4033 114.044 26.6103 107.861 26.1682 100.45C25.7952 94.2357 26.8913 87.7784 29.2463 82.2518C33.3463 72.6385 39.7029 67.9237 49.3003 63.031C62.7095 56.1929 65.5808 44.2937 68.9033 30.5248L69.0563 29.8864C69.5803 30.1196 70.1721 30.362 70.8307 30.6087L70.247 33.9874C70.0649 34.7516 70.8201 35.4998 72.6196 36.3398C74.3164 37.0912 76.0724 37.7011 77.8697 38.1632C80.3081 38.8166 86.0165 40.1378 86.5543 38.3592L87.7381 35.1413C88.4297 35.2564 89.0655 35.3429 89.6339 35.4024L89.4492 36.0323C85.441 49.622 81.9834 61.3596 90.1734 73.9829C96.0364 83.0273 99.1862 90.2803 97.9282 100.655C97.2023 106.618 94.917 112.764 91.4926 117.954Z" fill="#C6C8CC"/>
<path d="M85.0151 104.467C85.2746 104.301 85.5094 104.099 85.7123 103.868C86.3492 103.071 86.0464 102.426 85.8102 102.116C85.5464 101.764 85.1553 101.528 84.7202 101.46C84.5374 101.429 84.3522 101.416 84.1669 101.42C84.0114 101.426 83.8487 101.441 83.6807 101.46L83.6244 101.467C83.2238 101.525 82.7935 101.618 82.4159 101.7C82.1438 101.761 81.8865 101.817 81.6657 101.855C81.3475 101.91 81.0292 101.965 80.7141 102.026C79.7176 102.212 78.6916 102.39 77.6366 102.524C76.944 102.623 76.2563 102.688 75.5379 102.749L75.0694 102.807C75.0938 102.716 75.1176 102.628 75.1425 102.535L75.173 102.421C75.8314 102.051 76.5214 101.69 77.2449 101.332C77.8462 101.04 78.5118 100.745 79.2174 100.436C81.6747 99.3617 84.6069 98.0707 86.1687 95.7919C86.2554 95.7133 86.3406 95.6319 86.4076 95.5593L86.6651 95.2999C87.2116 94.7727 87.7237 94.2109 88.1982 93.6182C88.8073 92.8794 89.2416 92.0126 89.4688 91.0825C89.5863 90.5591 89.6444 89.8183 89.2542 89.2631C89.1333 89.0947 88.9777 88.9542 88.7979 88.8509C88.6182 88.7477 88.4184 88.6841 88.2121 88.6645C87.4524 88.5583 86.8356 88.8573 86.3882 89.555C86.1611 89.9242 85.9746 90.3169 85.832 90.7263C85.7966 90.8164 85.7622 90.9023 85.7279 90.9882C85.4658 91.6818 85.2394 92.3884 85.0497 93.1051C84.9806 93.3629 84.9115 93.6207 84.8265 93.8788C84.5697 94.841 84.1823 95.7636 83.6751 96.6207C83.6751 96.6207 83.6751 96.6207 83.6712 96.6355C83.3574 96.9614 83.0311 97.2748 82.6955 97.5721L82.6669 97.6029C81.6851 98.1831 80.6665 98.6984 79.6174 99.1456C79.8898 98.8812 80.1507 98.6091 80.3024 98.4233L80.6809 97.9744C81.5357 96.9647 82.5031 95.8221 82.8656 94.6215C82.9788 94.1989 83.3574 92.9552 82.0435 92.2974C81.3215 91.9409 80.5797 92.0976 80.0094 92.7216C79.6537 93.1459 79.3755 93.6294 79.1873 94.15C78.8699 94.9851 78.6585 95.8566 78.5579 96.7443L78.5266 96.9623C78.388 97.8515 78.227 98.7142 77.8004 99.4695C77.7997 99.4768 77.7978 99.484 77.7948 99.4906C77.5424 99.765 77.2657 100.028 76.9623 100.307C76.9482 100.321 76.9352 100.335 76.9234 100.351L76.8068 100.406C76.376 100.619 75.9607 100.834 75.5516 101.05C75.9547 99.5457 76.3237 97.8305 76.1257 96.4481C76.7162 95.1987 77.1554 93.8833 77.4338 92.5297L81.9521 90.0354C82.2601 89.8652 82.5109 89.6076 82.6728 89.2952C82.8347 88.9827 82.9005 88.6293 82.8619 88.2795C82.8019 87.4909 82.4338 86.7576 81.8371 86.2384C81.5872 86.0232 81.2826 85.8812 80.957 85.8283C80.6315 85.7755 80.2976 85.8138 79.9924 85.9389L77.2721 87.0648C76.946 85.9035 76.3891 84.82 75.6346 83.879C75.9925 83.7257 76.3606 83.5973 76.7363 83.4948C79.439 82.7809 81.3117 83.8466 81.3333 83.8592C81.4042 83.8973 81.4831 83.9185 81.5636 83.9209L81.6249 83.9373C82.732 84.234 83.9686 83.0842 84.4414 81.3199C84.9005 79.6063 84.4441 78.0391 83.4064 77.6773C82.1117 76.7959 80.4057 76.6717 78.7189 76.89C79.0104 75.3625 78.7314 73.1499 78.2246 72.0154C77.7026 70.8983 76.8963 69.938 75.8863 69.2306L78.0907 64.993C78.1582 64.8594 78.2466 64.7155 78.3346 64.5647C78.7401 63.8965 79.2306 63.0632 78.9502 62.2249C78.5475 61.0231 76.9952 60.3423 75.8558 60.4786C75.5544 60.5162 75.2664 60.6257 75.0161 60.7979C74.7658 60.9701 74.5606 61.1998 74.4176 61.4678L71.1836 67.4859L71.1625 67.4802C71.1477 67.4763 71.1405 67.4607 71.129 67.4531C70.9207 66.3035 71.7223 60.6324 72.3397 58.472C72.3986 58.2775 72.4021 58.0705 72.35 57.8741C72.2978 57.6777 72.1919 57.4998 72.0443 57.3602C71.2505 56.57 69.0774 56.5154 68.5319 56.675C67.6329 56.9368 67.3815 57.875 67.249 58.3694C66.513 61.1163 65.9252 64.7045 66.2488 67.2665C66.015 66.5584 65.8331 66.1134 65.6323 65.6202C65.4315 65.1271 65.2094 64.5784 64.874 63.6325C64.4197 62.3445 63.4885 61.839 62.105 62.1341C61.3366 62.2974 60.1825 62.5475 59.9327 63.9277C59.8501 64.4086 59.9369 64.9033 60.1782 65.3274C60.2192 65.4108 60.2586 65.5006 60.3033 65.5873C60.6776 66.4893 61.896 69.5402 62.2895 70.6919C61.9621 71.0693 61.66 71.468 61.3854 71.8855C58.3273 70.7558 53.8297 70.3501 50.946 70.9702C50.9173 70.9756 50.8892 70.984 50.8622 70.9953C50.6781 71.0138 50.4999 71.071 50.3394 71.1632C50.124 71.3006 49.9464 71.4897 49.8228 71.7133C49.6992 71.9369 49.6336 72.1879 49.6318 72.4433C49.6151 72.9873 49.7548 73.5247 50.0345 73.9916C50.3177 74.4856 50.6932 74.9207 51.1405 75.2731C51.355 75.4442 51.6006 75.5723 51.8637 75.6503C52.1034 75.7203 52.3595 75.7093 52.5923 75.619C54.8544 75.5195 57.1179 75.785 59.2957 76.4052C59.0112 77.2892 58.7748 78.1883 58.5672 79.0816C58.0122 78.3554 56.9744 77.715 55.6475 77.3594C53.4183 76.7621 51.4811 77.2644 51.1431 78.5258L50.0379 82.6503C49.5905 82.6666 49.1503 82.7685 48.7413 82.9506C48.5075 82.7258 48.2103 82.5781 47.8899 82.5277C47.0848 82.3799 46.3923 82.7922 45.9888 83.6556C45.7469 84.2463 45.6086 84.8742 45.5798 85.5118C45.3875 84.953 45.2166 84.3908 45.0707 83.8196C45.0839 83.7224 45.0678 83.6235 45.0246 83.5354C45.0009 83.4883 44.9848 83.4387 44.9644 83.388C44.8336 82.8366 44.7247 82.2797 44.6423 81.7164C44.6474 81.6974 44.6362 81.6717 44.6349 81.651C44.6369 81.4409 44.647 81.1583 44.6771 80.8176C44.7161 80.3592 44.7821 79.8764 44.8288 79.5244L44.8669 79.2469C45.0008 78.3292 45.1978 77.4217 45.4565 76.5311L45.4741 76.4656C45.74 75.5617 45.9323 74.6377 46.049 73.7027C46.1066 73.0908 46.2545 71.4569 44.7902 71.1913C43.9792 71.0488 43.2641 71.5116 42.8295 72.4573C42.5453 73.1335 42.3651 73.8487 42.295 74.5788C42.1395 75.944 42.2359 77.3262 42.5793 78.6566C42.789 79.5643 43.0694 80.4366 43.3411 81.2817C43.4495 81.621 43.5585 81.9582 43.6599 82.2979L43.6789 82.3369L43.6942 82.4656C43.7406 82.8668 43.8282 83.2621 43.9556 83.6453C44.2748 84.9713 44.7046 86.2682 45.2403 87.5224C45.194 87.6278 45.1492 87.7358 45.1017 87.8454C44.7879 87.4782 44.4674 87.0685 44.1558 86.6679C43.9979 86.4626 43.8374 86.2588 43.6799 86.0603C43.1921 85.408 42.6503 84.7977 42.0604 84.2359C41.7738 83.9572 41.4383 83.7337 41.0707 83.5766C40.8253 83.4792 40.5594 83.4448 40.2973 83.4766C40.0352 83.5084 39.7852 83.6055 39.5703 83.7589C38.8523 84.2323 38.6795 85.0715 39.1075 86.0014C39.4198 86.6177 39.8521 87.1655 40.3788 87.6126C41.3078 88.473 42.3411 88.9695 43.4091 89.4459C43.731 89.5888 44.0571 89.7237 44.3806 89.8602L44.3954 89.8642C43.941 91.3884 43.7551 92.98 43.8462 94.5679C43.8962 95.2841 43.9825 95.9974 44.1047 96.7048C43.9229 96.7389 43.7502 96.8102 43.5972 96.9142C43.4443 97.0182 43.3144 97.1526 43.2158 97.3091C42.7315 98.0263 42.9424 98.9298 43.7871 99.7835C44.263 100.246 44.8017 100.64 45.3874 100.953C46.071 102.467 46.9681 103.875 48.0514 105.134C50.1198 107.556 52.9794 109.697 57.063 111.876C57.5506 112.136 58.0505 112.417 58.5623 112.713C59.7748 113.448 61.0411 114.09 62.3505 114.634C62.7117 115.734 62.9494 116.871 63.0591 118.024C63.0616 118.094 63.0783 118.162 63.1083 118.225C63.1383 118.289 63.1809 118.345 63.2334 118.391C63.286 118.438 63.3475 118.473 63.414 118.494C63.4806 118.516 63.5509 118.524 63.6206 118.517C63.6903 118.511 63.7579 118.49 63.8194 118.456C63.8808 118.423 63.9347 118.377 63.9778 118.322C64.0209 118.267 64.0523 118.204 64.0701 118.136C64.0879 118.068 64.0916 117.997 64.0811 117.928C63.9844 116.942 63.7985 115.967 63.5258 115.014C65.3935 115.49 67.2795 115.323 69.0617 113.726C71.5275 111.513 73.4124 108.324 74.6835 104.205L74.9458 104.258C75.2567 104.323 75.5683 104.411 75.9009 104.513C76.2981 104.62 76.5559 104.689 76.7461 104.74L77.0706 104.813C78.1266 105.077 79.1996 105.266 80.282 105.379C81.6002 105.528 82.935 105.366 84.1794 104.906C84.4688 104.782 84.7482 104.635 85.0151 104.467ZM85.808 94.1712C85.8794 93.905 85.9607 93.6437 86.0346 93.3849C86.2248 92.6749 86.4254 92.0108 86.6781 91.3719C86.7119 91.2881 86.7485 91.1938 86.7884 91.0957C86.9068 90.7558 87.0589 90.4286 87.2426 90.1191C87.4794 89.7591 87.7214 89.6337 88.0819 89.6827L88.1855 89.7104C88.2796 89.7295 88.363 89.7834 88.419 89.8614C88.5501 90.0482 88.5698 90.4226 88.47 90.8715C88.2736 91.6525 87.9039 92.3793 87.3883 92.998C87.2472 93.1867 87.1033 93.3519 86.9534 93.5224C86.6289 93.8884 86.279 94.2476 85.9401 94.5825L85.6729 94.8529C85.6411 94.8874 85.6011 94.9265 85.5558 94.9687C85.5819 94.8715 85.6057 94.7828 85.6438 94.6911C85.7069 94.5064 85.7656 94.3297 85.814 94.166L85.808 94.1712ZM81.4199 93.1539C81.4752 93.169 81.5289 93.1894 81.5802 93.215C81.9954 93.4236 82.0637 93.6842 81.8735 94.3263C81.574 95.3172 80.6786 96.3772 79.8898 97.3095C79.7598 97.4649 79.631 97.6161 79.5069 97.7663C79.4777 97.7992 79.4441 97.84 79.4025 97.8855C79.4518 97.6337 79.4927 97.3797 79.5336 97.1257L79.5649 96.9076C79.6543 96.0968 79.8449 95.3003 80.1322 94.5368C80.2784 94.1338 80.4894 93.7574 80.7569 93.4224C81.0325 93.1294 81.242 93.0995 81.4259 93.1487L81.4199 93.1539ZM43.4484 77.8047C43.2406 76.7913 43.1967 75.7512 43.3183 74.7239C43.3763 74.0995 43.5274 73.4874 43.7664 72.9077C44.0017 72.3932 44.2878 72.1619 44.612 72.2284L44.6754 72.2454C44.9205 72.311 45.1302 72.5257 45.0277 73.6351C45.0044 73.8826 44.9662 74.135 44.919 74.3873C44.8092 74.983 44.6525 75.5932 44.4836 76.2319L44.4666 76.2953C44.1939 77.2306 43.9876 78.1842 43.8493 79.1486L43.818 79.3667C43.7334 79.0655 43.652 78.7606 43.5808 78.4517C43.5315 78.2301 43.4874 78.0145 43.4484 77.8047ZM77.2952 103.798L76.9622 103.722L76.7318 103.66C77.0843 103.621 77.4331 103.579 77.7884 103.529C78.8531 103.384 79.892 103.2 80.8958 103.021L81.8468 102.852C82.0836 102.814 82.3514 102.761 82.6439 102.692C83.022 102.608 83.414 102.523 83.7603 102.473L83.8002 102.468C83.9426 102.451 84.0803 102.436 84.2173 102.432C84.3331 102.431 84.4487 102.441 84.5628 102.461L84.6346 102.481C84.7804 102.517 84.9087 102.604 84.9972 102.725C85.0672 102.818 85.1492 102.927 84.9243 103.208C84.7883 103.355 84.635 103.484 84.4678 103.593C84.2503 103.724 84.0235 103.839 83.7892 103.937C82.5808 104.424 81.2648 104.424 80.3679 104.34C79.3321 104.233 78.3053 104.051 77.2952 103.798ZM81.8475 88.3972C81.8588 88.4998 81.8487 88.6036 81.818 88.7022C81.7874 88.8007 81.7367 88.8919 81.6691 88.9699C81.2029 88.7408 80.9232 88.4575 80.8423 88.1256C80.7261 87.6551 80.9986 87.162 81.1146 86.9824C81.1337 86.9875 81.1569 86.9938 81.1708 87.0179C81.3703 87.1907 81.533 87.4018 81.6493 87.6388C81.7655 87.8757 81.8329 88.1337 81.8475 88.3972ZM79.9333 87.0894C79.7825 87.4959 79.7515 87.9372 79.844 88.3608C79.9695 88.8531 80.2682 89.2837 80.6853 89.5737L77.6347 91.2474C77.7451 90.1909 77.707 89.1241 77.5214 88.0782L79.9333 87.0894ZM76.4342 87.8843C76.7313 89.2744 76.7463 90.7101 76.4784 92.1061C76.284 93.1539 75.9807 94.1785 75.5732 95.1632C74.4342 93.7257 71.8669 92.7592 70.4213 92.6776C69.2921 92.6151 68.8706 92.244 68.1431 91.4602C70.1867 88.0084 72.3806 85.6273 74.6906 84.3507C75.5532 85.3655 76.1495 86.5791 76.4258 87.882L76.4342 87.8843ZM81.8974 82.9708C81.4452 82.8497 81.1695 81.7658 81.4945 80.5529C81.8195 79.3401 82.5996 78.5413 83.0518 78.6625C83.504 78.7837 83.7803 79.8655 83.4553 81.0783C83.1303 82.2912 82.3432 83.0903 81.889 82.9686L81.8974 82.9708ZM81.8259 78.0736C81.1667 78.6571 80.7041 79.4301 80.5014 80.2868C80.3001 80.9887 80.2704 81.7287 80.4147 82.4445C79.1311 82.1411 77.7923 82.1622 76.5189 82.5057C73.2226 83.364 70.1569 86.1253 67.3965 90.7053C66.458 89.8718 65.4808 89.5126 64.1837 89.0881C63.4396 88.8479 62.5884 88.2802 61.9362 87.7815C63.9756 84.3965 66.1683 82.2393 69.0361 80.7997C69.1145 80.7602 69.1815 80.7014 69.2307 80.6287C69.2799 80.5561 69.3097 80.472 69.3172 80.3846C69.3248 80.2972 69.3098 80.2093 69.2737 80.1292C69.2377 80.0492 69.1818 79.9798 69.1113 79.9275C68.4642 79.4646 67.794 79.0348 67.1033 78.6399C67.3915 77.4376 67.7085 76.2883 68.0277 75.6378L68.814 76.2448C69.3034 76.616 69.7638 76.9681 70.1829 77.3227C70.9408 77.9849 71.8365 78.4702 72.8052 78.7432C73.7823 79.0124 74.8173 78.9855 75.7791 78.6659C77.6206 78.0474 80.0079 77.514 81.8175 78.0713L81.8259 78.0736ZM70.8477 76.5406C70.4066 76.1665 69.9367 75.8073 69.4385 75.427C69.2069 75.2517 68.9711 75.0753 68.7345 74.8851C69.4124 74.5187 70.3681 74.5777 71.1733 74.9112C71.8662 75.1988 72.6073 76.3802 72.3947 77.5032C71.8308 77.2613 71.3064 76.936 70.8392 76.5383L70.8477 76.5406ZM66.6947 80.4101C66.7575 80.1755 66.803 79.9296 66.8603 79.6822C67.239 79.9082 67.5646 80.1132 67.8186 80.2809C67.3803 80.5304 66.9539 80.8034 66.5404 81.0957C66.5807 80.8778 66.6328 80.6494 66.6845 80.4141L66.6947 80.4101ZM77.2865 72.457C77.7667 73.53 78.0096 75.8689 77.627 77.1025C76.8937 77.2572 76.1705 77.4559 75.4611 77.6975C74.793 77.918 74.0791 77.9608 73.3895 77.8218C73.7519 76.2159 72.7769 74.4622 71.5787 73.9645C70.0865 73.3382 68.0725 73.4168 67.1974 75.0348C66.6295 76.0807 66.137 78.2655 65.7039 80.1944C65.5411 80.9117 65.3891 81.5889 65.2612 82.0664C65.2553 82.0837 65.2506 82.1014 65.247 82.1193C63.6961 83.4978 62.3622 85.1026 61.2902 86.8792C61.1202 86.3558 60.6608 85.8477 59.9358 85.384C59.504 85.1126 59.0327 84.9099 58.5387 84.7832C58.5505 84.7517 58.5592 84.7191 58.5647 84.686C58.6319 84.3167 58.6993 83.9385 58.7674 83.5491C59.6884 78.2949 60.8336 71.7557 65.7327 69.3363C67.3182 68.5495 69.3597 68.2835 71.3073 68.554L71.4941 68.5837C72.106 68.6775 72.7076 68.8296 73.2906 69.0378C74.6201 69.4937 76.4001 70.4825 77.2865 72.457ZM75.9807 61.5085C76.6942 61.4234 77.7468 61.873 77.9761 62.564C78.007 62.6637 78.0128 62.7695 77.9932 62.8721C76.7356 63.0016 76.2035 62.739 75.5724 61.6799C75.691 61.5878 75.8319 61.5287 75.9807 61.5085ZM74.9669 62.6296C75.3326 63.2065 75.8965 63.6298 76.5525 63.8199C76.8713 63.8988 77.1994 63.9341 77.5276 63.9249L77.4534 64.05C77.354 64.2181 77.2584 64.3805 77.18 64.5293L75.0161 68.6917C74.571 68.4421 74.1061 68.2296 73.626 68.0565C73.1785 67.8988 72.7212 67.7703 72.2571 67.6716L74.9669 62.6296ZM68.8213 57.6742C69.1641 57.5781 70.886 57.6681 71.3197 58.1036C71.3682 58.1506 71.3654 58.1611 71.3519 58.2028L71.3101 58.3592C70.8455 58.5789 70.3359 58.6864 69.8222 58.673C69.3085 58.6597 68.8051 58.5259 68.3526 58.2824C68.4735 57.9411 68.6114 57.7222 68.8241 57.6636L68.8213 57.6742ZM68.0789 59.287C68.3117 59.3951 68.5532 59.4833 68.8009 59.5507C69.5319 59.7489 70.3026 59.749 71.0337 59.5511C70.7979 60.7018 70.5503 62.2003 70.359 63.6075C70.086 65.6744 70.0433 66.7886 70.0975 67.4145C69.1748 67.3902 68.2526 67.4777 67.3509 67.675C66.9053 65.4586 67.3941 62.0453 68.08 59.2828L68.0789 59.287ZM62.325 63.1556C62.8922 63.0335 63.2706 63.0919 63.5446 63.3623C63.2492 63.8475 62.7895 64.2105 62.2491 64.3853C61.8139 64.523 61.3421 64.4852 60.9344 64.2799C60.9352 64.2273 60.9402 64.1749 60.9493 64.1231C61.0565 63.52 61.3825 63.3514 62.3261 63.1513L62.325 63.1556ZM61.3574 65.4735C61.757 65.5238 62.1626 65.4881 62.5472 65.3688C63.1273 65.1859 63.6471 64.8493 64.0515 64.395C64.3099 65.1209 64.5083 65.5976 64.6821 66.0224C64.9869 66.7516 65.253 67.4964 65.4792 68.2538C65.4758 68.2664 65.4905 68.2794 65.494 68.2917C65.4191 68.326 65.34 68.3591 65.2646 68.3956C64.4722 68.7917 63.7397 69.2976 63.0887 69.8983C62.6206 68.6111 61.7521 66.4262 61.3586 65.4693L61.3574 65.4735ZM50.9267 73.5014C50.7486 73.2067 50.6558 72.8682 50.6588 72.5238C50.6565 72.4392 50.673 72.3552 50.7071 72.2778C50.7411 72.2004 50.7919 72.1315 50.8557 72.0761C50.9509 72.0315 51.0596 72.0257 51.159 72.0599C51.222 72.0772 51.2833 72.1004 51.3419 72.1293C51.6429 72.2974 51.89 72.5474 52.0546 72.8502C52.2577 73.2236 52.3651 73.6414 52.3674 74.0664C52.3685 74.4766 52.258 74.6689 52.2179 74.6921C52.0717 74.739 51.3985 74.3186 50.9267 73.5014ZM53.3519 74.5929C53.3854 74.4186 53.401 74.2415 53.3984 74.0641C53.3976 73.4611 53.245 72.868 52.9547 72.3395C52.842 72.1455 52.7082 71.9646 52.5557 71.8001C55.3602 71.5836 58.1798 71.9243 60.8521 72.8024C60.3771 73.6534 59.9725 74.5417 59.6422 75.4585C57.5947 74.8774 55.476 74.5856 53.3477 74.5917L53.3519 74.5929ZM55.3879 78.3791C57.1965 78.8638 58.1172 79.8736 57.9807 80.3829C57.8443 80.8921 56.514 81.3011 54.7328 80.8238C52.9516 80.3466 52.0069 79.3166 52.1405 78.818C52.2741 78.3193 53.5749 77.8934 55.3836 78.378L55.3879 78.3791ZM51.738 80.3203C52.3248 80.9531 53.2813 81.4993 54.4667 81.8169C55.8929 82.1991 57.1979 82.1298 58.0424 81.6993C57.9373 82.269 57.8404 82.8251 57.7471 83.3594C57.6795 83.7467 57.6121 84.125 57.5455 84.4921C57.5392 84.5154 57.5489 84.5383 57.5469 84.5627C57.2278 84.5112 56.908 84.4708 56.5903 84.4309C55.6309 84.3097 54.7244 84.1937 53.9524 83.8124C53.05 83.3298 52.0853 82.9738 51.0857 82.7544L51.738 80.3203ZM51.3551 83.8706C52.0971 84.0875 52.8161 84.3765 53.5018 84.7334C54.429 85.1948 55.4652 85.3252 56.4792 85.4542C57.5615 85.5902 58.5845 85.7194 59.3866 86.2333C60.0385 86.6571 60.3828 87.0709 60.3519 87.3978C60.3287 87.6362 60.0617 88.278 58.0747 89.084C56.9952 89.5138 55.9498 90.0248 54.9475 90.6126C54.4984 90.8587 54.0298 91.0672 53.5463 91.2359C52.8393 91.4994 52.1033 91.7868 51.4505 92.2958C50.8923 92.7678 50.416 93.3289 50.0409 93.9563C49.6881 93.436 49.346 92.9126 49.0145 92.3859C48.9214 92.2206 48.8294 92.0487 48.7383 91.8703C48.6562 91.7034 48.5746 91.5343 48.5047 91.3729C48.4647 91.237 48.443 91.0964 48.4401 90.9547C48.4363 90.5461 48.4631 90.0913 48.484 89.7594L48.4999 89.4806C48.5633 88.7076 48.6928 87.9415 48.887 87.1906L48.9244 87.0511C49.1171 86.3051 49.2402 85.5428 49.2922 84.7741C49.308 84.4811 49.2894 84.1873 49.2369 83.8987C49.81 83.6446 50.5099 83.6442 51.3551 83.8706ZM58.0263 103.413C57.7404 102.841 57.4506 102.181 57.1346 101.442C56.8028 100.66 56.5658 100.048 56.3624 99.4639L56.2398 99.1185C56.0297 98.5711 55.8593 98.0093 55.73 97.4374C55.5441 96.4409 55.8354 96.2495 55.9502 96.1761C55.9834 96.1493 56.0224 96.1307 56.0642 96.1218C56.1059 96.1129 56.1491 96.114 56.1904 96.1249C56.4143 96.185 56.7945 96.5495 57.1982 97.3756C57.6806 98.4177 57.9942 99.5299 58.1271 100.67C58.1677 100.967 58.1951 101.262 58.2273 101.556L58.3028 102.432C58.3567 103.076 58.4145 103.612 58.4923 104.134C58.5027 104.204 58.514 104.289 58.5286 104.37C58.3392 104.054 58.1743 103.731 58.0157 103.41L58.0263 103.413ZM44.5312 99.077C44.3069 98.8493 43.8134 98.2823 44.073 97.8966C44.1302 97.8128 44.2181 97.755 44.3177 97.7357C44.4402 97.7173 44.5654 97.7276 44.6833 97.7657C44.9529 97.8489 45.2144 97.9561 45.4648 98.0861L45.7242 98.2168C45.9388 98.3286 46.1548 98.4522 46.373 98.5763C46.6536 98.7375 46.9368 98.9063 47.2294 99.0821L47.2526 99.0883C47.6435 99.3198 48.0338 99.5535 48.427 99.7766C49.4137 100.322 50.4345 100.804 51.483 101.218L51.7106 101.315L51.0404 101.281L50.6497 101.26C49.9333 101.235 49.2197 101.158 48.5141 101.032C47.8898 100.909 47.2812 100.717 46.6994 100.46C46.5983 100.414 46.4961 100.373 46.4003 100.325C45.8096 100.05 45.2564 99.6997 44.7543 99.284C44.6621 99.214 44.5901 99.1448 44.5207 99.0742L44.5312 99.077ZM53.6967 101.155C53.1063 100.827 52.4981 100.531 51.8751 100.27C50.8616 99.8674 49.8748 99.4003 48.9208 98.8717C48.5686 98.6732 48.2273 98.4594 47.8857 98.2637C48.1156 98.006 48.3661 97.747 48.6253 97.4813C48.8845 97.2156 49.1604 96.9294 49.4147 96.6398C49.646 96.3758 49.8587 96.096 50.0512 95.8025C51.0094 97.1622 52.0083 98.5055 53.0009 99.8382C53.4102 100.384 53.8201 100.936 54.2307 101.495C54.068 101.383 53.8832 101.27 53.6862 101.152L53.6967 101.155ZM46.9383 84.1184C47.2366 83.4782 47.5778 83.5402 47.718 83.5664L47.7983 83.5879C48.0899 83.6661 48.2343 83.8791 48.2372 84.5616C48.2378 84.6184 48.2385 84.6751 48.2374 84.7383C48.1889 85.4425 48.0775 86.141 47.9046 86.8254L47.8672 86.9649C47.6615 87.7753 47.5256 88.6019 47.4611 89.4355L47.4501 89.6205C47.2646 89.2008 47.1015 88.7715 46.9613 88.3346C46.82 87.8929 46.7179 87.4397 46.6561 86.9801C46.5967 86.5508 46.5817 86.1165 46.6116 85.6841C46.6341 85.3905 46.6723 85.0984 46.7261 84.8089C46.7649 84.5706 46.8311 84.3375 46.9235 84.1144L46.9383 84.1184ZM43.8416 88.5336C42.8198 88.0787 41.9092 87.6399 41.0888 86.8901C40.6655 86.532 40.3149 86.0959 40.056 85.6056C39.8472 85.1511 39.8812 84.8296 40.1565 84.6474C40.2236 84.5956 40.3017 84.5598 40.3847 84.5428C40.4678 84.5258 40.5536 84.5281 40.6357 84.5494L40.716 84.5709C40.9625 84.6857 41.1871 84.8425 41.38 85.0341C41.9265 85.5577 42.4288 86.1256 42.8817 86.7319C43.0376 86.9277 43.1945 87.1283 43.3508 87.3309C43.7211 87.8084 44.1055 88.3009 44.4846 88.7286L44.609 88.8729C44.3446 88.7522 44.0838 88.6438 43.8268 88.5297L43.8416 88.5336ZM45.3634 90.3002C45.7136 90.4552 46.058 90.6154 46.3941 90.7892L46.43 90.7989C46.6746 90.9935 46.9181 91.1833 47.1617 91.3731C47.2442 91.513 47.3311 91.645 47.4213 91.7733C47.6649 92.1828 47.9149 92.585 48.1686 92.9904C48.263 93.1538 48.3579 93.3151 48.4551 93.468C48.4738 93.4926 48.4951 93.515 48.5187 93.5349C48.8166 93.9952 49.1225 94.4508 49.4316 94.9118C49.2025 95.2861 48.9444 95.6417 48.6596 95.9754C48.4195 96.2463 48.1559 96.5199 47.9 96.782C47.5913 97.0888 47.292 97.4117 47.0018 97.7506C46.7375 97.596 46.4736 97.4483 46.2133 97.3129L46.1795 97.3038C45.8604 97.1339 45.5299 96.9863 45.1904 96.8621C45.0438 96.0871 44.9436 95.304 44.8902 94.517C44.8033 93.0936 44.9585 91.6657 45.3492 90.2941L45.3634 90.3002ZM59.0827 111.835C58.5567 111.534 58.0595 111.251 57.5627 110.975C53.3071 108.703 49.2327 105.974 46.8845 101.637C47.1381 101.73 47.3946 101.812 47.6587 101.883C47.87 101.94 48.094 102 48.3179 102.035C49.0702 102.172 49.8313 102.254 50.5954 102.283L50.9888 102.302C51.5762 102.333 52.1308 102.359 52.7053 102.429C53.3699 102.513 54.0161 102.706 54.6176 103C54.6346 103.007 54.6524 103.012 54.6704 103.014C55.1417 103.326 55.5962 103.659 56.0427 103.987C56.2899 104.341 56.5328 104.693 56.7736 105.045C57.1743 105.641 57.5726 106.222 57.9684 106.79C59.5017 109.013 60.9061 111.04 61.8639 113.305C60.9212 112.885 59.9899 112.355 59.0685 111.829L59.0827 111.835ZM68.3877 112.97C66.7543 114.435 64.9792 114.441 63.1731 113.837C62.5883 112.279 61.8385 110.787 60.9365 109.388C60.9313 109.324 60.9144 109.261 60.8866 109.203C60.5197 108.439 60.2072 107.651 59.9515 106.844C59.8961 106.602 59.8312 106.27 59.761 105.864C59.6879 105.419 59.6288 104.954 59.5801 104.57C59.5501 104.336 59.5243 104.136 59.5104 103.985C59.4354 103.487 59.3836 102.971 59.3277 102.351L59.2507 101.472C59.2209 101.161 59.1906 100.851 59.1454 100.538C59.0009 99.2902 58.6588 98.0733 58.1321 96.9329C57.6351 95.9142 57.0779 95.3142 56.4774 95.1465L56.4648 95.1431C56.2869 95.0946 56.1006 95.0846 55.9186 95.1139C55.7365 95.1433 55.5628 95.2112 55.4092 95.3132C54.7451 95.7377 54.5176 96.5192 54.7344 97.6371C54.8724 98.2601 55.0567 98.8719 55.2857 99.4675C55.3261 99.587 55.3667 99.6976 55.4042 99.8027C55.6147 100.412 55.8604 101.041 56.2003 101.844C56.4191 102.371 56.6352 102.866 56.8484 103.313L56.7955 103.274C55.843 101.918 54.8337 100.563 53.8499 99.2391C52.7768 97.8011 51.698 96.3502 50.6722 94.8796C51.1002 94.1949 51.5179 93.5572 52.0836 93.1109C52.6435 92.7183 53.2598 92.413 53.9115 92.2056C54.4453 92.0154 54.9625 91.7813 55.4578 91.5058C56.4192 90.9431 57.4222 90.4548 58.4581 90.045C59.7409 89.5259 60.5912 88.9724 61.029 88.3696C61.7729 88.9743 62.8832 89.7496 63.8817 90.0715C65.2908 90.5261 66.2119 90.8748 67.1385 91.8795L67.2104 91.9576C68.129 92.9579 68.7361 93.6166 70.3646 93.7087C71.9932 93.8008 74.8559 95.1273 75.1007 96.4701C75.3522 97.8556 74.8155 99.8587 74.3841 101.469L74.3088 101.75C72.365 102.84 70.5518 104.148 68.9046 105.649C69.1623 105.185 69.4229 104.712 69.5429 104.425L69.7361 104.008C70.0801 103.298 70.3802 102.567 70.6346 101.821C70.984 100.849 71.1074 99.8098 70.9956 98.783C70.9356 98.314 70.7422 97.4469 70.1089 97.0213C69.9378 96.9073 69.7439 96.8319 69.5407 96.8006C69.3375 96.7692 69.1299 96.7825 68.9324 96.8397C68.1901 97.0235 67.7265 97.5538 67.5545 98.4068C67.4781 98.8241 67.4404 99.2477 67.442 99.672C67.4386 99.8115 67.4347 99.9441 67.4272 100.073C67.3996 100.836 67.4269 101.579 67.4566 102.364C67.4672 102.679 67.4788 103 67.4856 103.321C67.5304 104.407 67.4666 105.494 67.2952 106.567C67.2952 106.567 67.2912 106.582 67.2884 106.592C67.1063 107.069 66.9236 107.523 66.7585 107.936C65.9943 108.903 65.3303 109.945 64.7769 111.047C64.7154 111.168 64.7049 111.309 64.7475 111.439C64.7901 111.568 64.8823 111.676 65.004 111.737C65.0366 111.75 65.0707 111.759 65.1054 111.764C65.2195 111.795 65.3406 111.785 65.4484 111.737C65.5562 111.689 65.6441 111.605 65.6973 111.499C67.008 108.907 68.9881 106.647 71.7663 104.604C71.8012 104.598 71.8355 104.589 71.8687 104.577C72.4227 104.324 73.019 104.176 73.627 104.142C72.4152 107.955 70.6541 110.918 68.3741 112.962L68.3877 112.97ZM69.6615 101.505C69.4189 102.213 69.1336 102.905 68.8073 103.578L68.6069 104.013C68.5939 104.062 68.5611 104.116 68.5314 104.176C68.5333 103.873 68.5288 103.578 68.5223 103.297C68.5146 102.971 68.5014 102.649 68.4893 102.331C68.4682 101.564 68.4364 100.838 68.4637 100.127C68.4712 99.9976 68.4736 99.8533 68.4789 99.6985C68.4756 99.3369 68.5056 98.9757 68.5687 98.6196C68.6856 98.0395 68.9352 97.9026 69.1926 97.8379C69.2734 97.8127 69.3595 97.8092 69.4421 97.8278C69.4772 97.8376 69.5105 97.8527 69.5411 97.8724C69.7457 98.0133 69.9109 98.4109 69.9761 98.9198C70.0612 99.7927 69.949 100.674 69.6478 101.497L69.6615 101.505Z" fill="#C6C8CC"/>
</g>
<defs>
<clipPath id="clip0">
<rect width="112" height="112" fill="white" transform="translate(28.9877) rotate(15)"/>
</clipPath>
</defs>
</svg>
