<svg width="138" height="138" viewBox="0 0 138 138" fill="none" xmlns="http://www.w3.org/2000/svg">
<g clip-path="url(#clip0)">
<path d="M70.0354 74.3572L68.5688 73.3142C68.5494 73.2999 68.5334 73.2813 68.5223 73.2599C68.5111 73.2385 68.5051 73.2147 68.5046 73.1906L68.5094 70.9159C68.5171 70.8583 68.5032 70.7999 68.4706 70.7519C68.4379 70.7039 68.3887 70.6696 68.3323 70.6555L68.3133 70.6505C68.2575 70.6344 68.1977 70.6395 68.1454 70.6648C68.0931 70.69 68.0519 70.7337 68.0298 70.7874L66.8966 72.7597C66.8841 72.7804 66.867 72.7979 66.8466 72.8109C66.8263 72.8239 66.8032 72.832 66.7792 72.8347L64.9876 73.0046C64.9303 72.999 64.873 73.0139 64.8257 73.0467C64.7785 73.0794 64.7443 73.1279 64.7295 73.1834C64.7146 73.239 64.7199 73.298 64.7445 73.35C64.769 73.402 64.8112 73.4435 64.8636 73.4673L66.3296 74.5124C66.3496 74.5262 66.3659 74.5447 66.3771 74.5662C66.3883 74.5878 66.3941 74.6117 66.3939 74.636L66.3919 76.9002C66.3842 76.9577 66.3981 77.0161 66.4307 77.0641C66.4634 77.1121 66.5126 77.1465 66.5689 77.1605L66.588 77.1656C66.6438 77.1816 66.7036 77.1765 66.7559 77.1513C66.8082 77.126 66.8493 77.0824 66.8715 77.0287L68.0018 75.0669C68.0138 75.0457 68.0308 75.0279 68.0512 75.0148C68.0717 75.0017 68.0951 74.9939 68.1193 74.9919L69.9114 74.8199C69.9687 74.8255 70.026 74.8106 70.0733 74.7778C70.1206 74.7451 70.1547 74.6966 70.1696 74.6411C70.1844 74.5855 70.1791 74.5265 70.1546 74.4745C70.13 74.4225 70.0878 74.3809 70.0354 74.3572Z" fill="#C6C8CC"/>
<path d="M84.5594 70.4834C83.6149 70.2304 83.2165 71.7089 84.1631 71.9625C85.1097 72.2162 85.5061 70.7371 84.5594 70.4834Z" fill="#C6C8CC"/>
<path d="M77.5279 73.2464C76.1164 72.8682 75.5261 75.063 76.9396 75.4418C78.3532 75.8206 78.952 73.628 77.5279 73.2464Z" fill="#C6C8CC"/>
<path d="M59.9868 67.774C57.6626 67.1512 56.6916 70.7749 59.0159 71.3977C61.3401 72.0205 62.3217 68.3996 59.9868 67.774Z" fill="#C6C8CC"/>
<path d="M56.153 64.0292L55.2029 63.3489C55.1901 63.3395 55.1796 63.3273 55.1723 63.3132C55.1651 63.299 55.1613 63.2834 55.1613 63.2675L55.1656 61.7808C55.1697 61.7431 55.1601 61.7052 55.1385 61.674C55.1169 61.6428 55.0848 61.6205 55.048 61.6111L55.0354 61.6077C54.9991 61.5976 54.9603 61.601 54.9264 61.6173C54.8924 61.6337 54.8656 61.6618 54.8508 61.6964L54.1091 62.9856C54.1014 62.9995 54.0904 63.0114 54.077 63.0201C54.0636 63.0287 54.0482 63.0339 54.0323 63.0352L52.8694 63.1494C52.8319 63.1438 52.7936 63.1526 52.7623 63.174C52.731 63.1954 52.7088 63.2279 52.7003 63.2648C52.6896 63.3013 52.6926 63.3405 52.7089 63.3749C52.7251 63.4093 52.7534 63.4366 52.7885 63.4515L53.7385 64.1318C53.7517 64.1403 53.7625 64.1521 53.7699 64.1659C53.7773 64.1798 53.781 64.1954 53.7807 64.2111L53.7785 65.6984C53.7735 65.7358 53.7825 65.7738 53.8038 65.8051C53.8251 65.8363 53.8572 65.8585 53.894 65.8675L53.9066 65.8709C53.9431 65.8816 53.9823 65.8785 54.0167 65.8623C54.0511 65.846 54.0784 65.8177 54.0933 65.7827L54.8329 64.493C54.8408 64.4795 54.8519 64.4681 54.8651 64.4598C54.8784 64.4516 54.8935 64.4466 54.9091 64.4455L56.072 64.3313C56.1098 64.3359 56.1479 64.3265 56.1792 64.3048C56.2105 64.2831 56.2327 64.2507 56.2417 64.2137C56.2528 64.1775 56.2498 64.1383 56.2334 64.1041C56.217 64.0699 56.1882 64.0432 56.153 64.0292Z" fill="#C6C8CC"/>
<path d="M72.2709 44.5803L73.7375 45.6232C73.757 45.6372 73.7729 45.6557 73.7837 45.6771C73.7945 45.6986 73.8 45.7223 73.7996 45.7463L73.7965 48.0147C73.7902 48.0724 73.8049 48.1305 73.8377 48.1783C73.8706 48.2262 73.9196 48.2607 73.9757 48.2756L73.9926 48.2801C74.0497 48.2994 74.112 48.2964 74.167 48.2716C74.2219 48.2468 74.2655 48.2022 74.2888 48.1466L75.4086 46.182C75.4211 46.1613 75.4382 46.1438 75.4586 46.1308C75.4789 46.1178 75.502 46.1097 75.526 46.107L77.3155 45.9365C77.3734 45.9437 77.4319 45.9295 77.48 45.8965C77.5281 45.8634 77.5624 45.8139 77.5764 45.7573C77.5929 45.7015 77.5881 45.6415 77.5628 45.5891C77.5374 45.5367 77.4935 45.4956 77.4395 45.4738L75.9756 44.4293C75.9559 44.4153 75.9397 44.3967 75.9286 44.3752C75.9174 44.3537 75.9115 44.3299 75.9113 44.3057L75.9133 42.0415C75.9206 41.9836 75.9063 41.9251 75.8733 41.8771C75.8402 41.829 75.7907 41.7947 75.7341 41.7806L75.7172 41.7761C75.6612 41.7604 75.6014 41.7656 75.5488 41.7907C75.4963 41.8158 75.4547 41.859 75.4316 41.9124L74.3013 43.8742C74.2899 43.8954 74.2733 43.9135 74.2532 43.9267C74.233 43.9399 74.2099 43.9478 74.1859 43.9498L72.3937 44.1218C72.3363 44.1137 72.2779 44.1275 72.2301 44.1604C72.1823 44.1933 72.1485 44.2429 72.1355 44.2994C72.1201 44.3547 72.1254 44.4137 72.1503 44.4654C72.1752 44.5171 72.2181 44.5579 72.2709 44.5803Z" fill="#C6C8CC"/>
<path d="M57.7468 48.4542C58.6913 48.7072 59.0876 47.2282 58.1431 46.9751C57.1986 46.722 56.8002 48.2005 57.7468 48.4542Z" fill="#C6C8CC"/>
<path d="M64.7662 45.6946C66.1797 46.0734 66.7707 43.8765 65.355 43.4971C63.9393 43.1178 63.3526 45.3158 64.7662 45.6946Z" fill="#C6C8CC"/>
<path d="M82.3131 51.1618C84.6374 51.7845 85.6083 48.1608 83.2841 47.538C80.9598 46.9152 79.9889 50.539 82.3131 51.1618Z" fill="#C6C8CC"/>
<path d="M86.1533 54.9083L87.1034 55.5887C87.116 55.5979 87.1263 55.6101 87.1331 55.6242C87.14 55.6382 87.1434 55.6538 87.1429 55.6695L87.1412 57.1546C87.1366 57.1926 87.1459 57.231 87.1674 57.2626C87.1889 57.2942 87.2212 57.3169 87.2583 57.3264L87.2688 57.3292C87.3057 57.3395 87.345 57.336 87.3795 57.3194C87.4139 57.3028 87.4411 57.2742 87.4561 57.239L88.1951 55.9514C88.2031 55.9377 88.2142 55.926 88.2275 55.9174C88.2409 55.9087 88.2561 55.9034 88.2719 55.9018L89.4348 55.7876C89.4722 55.7926 89.5102 55.7836 89.5415 55.7623C89.5727 55.741 89.5949 55.7088 89.6039 55.6721C89.6146 55.6356 89.6115 55.5964 89.5953 55.562C89.5791 55.5276 89.5507 55.5004 89.5157 55.4855L88.5657 54.8051C88.5526 54.7961 88.5419 54.7839 88.5346 54.7697C88.5274 54.7555 88.5237 54.7397 88.5241 54.7238L88.5278 53.2392C88.5325 53.2012 88.5232 53.1628 88.5017 53.1312C88.4801 53.0996 88.4478 53.0769 88.4108 53.0674L88.4002 53.0646C88.3634 53.0543 88.3241 53.0578 88.2896 53.0744C88.2552 53.091 88.2279 53.1196 88.213 53.1548L87.4718 54.4418C87.4646 54.4558 87.4539 54.4677 87.4409 54.4764C87.4279 54.4852 87.4129 54.4906 87.3972 54.492L86.2343 54.6062C86.1965 54.6016 86.1584 54.6111 86.1271 54.6327C86.0958 54.6544 86.0736 54.6868 86.0646 54.7238C86.054 54.7601 86.0572 54.799 86.0736 54.8331C86.09 54.8671 86.1184 54.894 86.1533 54.9083Z" fill="#C6C8CC"/>
<path d="M70.6696 62.1192C72.0871 62.4958 73.5415 61.652 73.9181 60.2345C74.2947 58.8171 73.451 57.3626 72.0335 56.986C70.616 56.6094 69.1616 57.4531 68.785 58.8706C68.4083 60.2881 69.2521 61.7425 70.6696 62.1192Z" fill="#C6C8CC"/>
<path d="M65.8183 80.207C69.9037 81.304 74.2227 81.1646 78.2289 79.8066C82.2351 78.4486 85.7486 75.933 88.3249 72.578C90.9013 69.2229 92.4247 65.1792 92.7025 60.9582C92.9804 56.7372 92.0002 52.5286 89.8859 48.8648C87.7716 45.201 84.6182 42.2465 80.8245 40.3751C77.0309 38.5037 72.7675 37.7994 68.5735 38.3513C64.3796 38.9033 60.4435 40.6866 57.2632 43.4758C54.0829 46.265 51.8013 49.9347 50.7068 54.0208C49.2455 59.497 50.0157 65.3292 52.8486 70.2382C55.6815 75.1472 60.3458 78.7323 65.8183 80.207ZM77.4802 61.1947C76.3898 65.2643 72.925 67.9005 69.644 67.2478C69.5236 67.2155 69.4031 67.1833 69.2848 67.1516C65.9341 66.2266 64.1237 62.0886 65.2459 57.9007C66.368 53.7128 70.0077 51.0238 73.3697 51.9065C73.488 51.9382 73.6085 51.9705 73.7289 52.0028C76.8826 53.0969 78.5627 57.1208 77.4717 61.1924L77.4802 61.1947ZM77.1115 53.2737C81.9278 55.4566 86.3756 59.2685 90.3693 64.6483C84.2224 67.3041 78.4698 68.3875 73.201 67.868C75.6076 66.8732 77.6591 64.5332 78.4817 61.4631C79.3044 58.3929 78.702 55.3418 77.1072 53.2726L77.1115 53.2737ZM64.2319 57.6448C63.403 60.7382 64.0267 63.8199 65.6469 65.8869C60.7708 63.7243 56.3107 59.8909 52.3486 54.4607C58.4955 51.737 64.2776 50.6366 69.5784 51.2145C67.1375 52.1933 65.0571 54.5482 64.2277 57.6437L64.2319 57.6448ZM66.0915 79.2045C61.0244 77.8393 56.6803 74.5702 53.9653 70.0793C51.2504 65.5885 50.3744 60.2227 51.5201 55.1016C56.44 61.8369 62.0716 66.1299 68.415 67.9806C68.6191 68.0606 68.8275 68.1293 69.0392 68.1864C69.2738 68.249 69.5118 68.2977 69.7521 68.3321C76.1019 69.8207 83.1042 68.9136 90.759 65.6111C89.1907 70.619 85.7491 74.8278 81.1525 77.3596C76.5559 79.8913 71.1592 80.5503 66.0884 79.1992L66.0915 79.2045ZM76.6222 39.9034C81.6899 41.2689 86.0345 44.5387 88.7493 49.0305C91.4641 53.5223 92.3394 58.889 91.1924 64.0106C86.2257 57.3261 80.615 53.0394 74.3604 51.1506C74.1351 51.0603 73.9046 50.9834 73.6702 50.9204C73.4583 50.864 73.2435 50.8193 73.0267 50.7864C66.6205 49.2209 59.5968 50.1229 51.9558 53.4926C53.5241 48.4867 56.9642 44.2793 61.5588 41.7477C66.1534 39.2162 71.5478 38.5558 76.6174 39.9044L76.6222 39.9034Z" fill="#C6C8CC"/>
<path d="M77.2586 37.3337C77.392 37.3694 77.5341 37.3507 77.6536 37.2817C77.7732 37.2126 77.8605 37.0989 77.8962 36.9655L81.1947 24.6554C81.2124 24.5894 81.2169 24.5205 81.208 24.4527C81.1991 24.3849 81.1769 24.3196 81.1427 24.2604C81.1085 24.2012 81.063 24.1493 81.0087 24.1076C80.9545 24.066 80.8926 24.0355 80.8266 24.0178C80.7605 24.0001 80.6916 23.9956 80.6239 24.0045C80.5561 24.0134 80.4907 24.0356 80.4315 24.0698C80.3723 24.104 80.3204 24.1495 80.2788 24.2037C80.2372 24.258 80.2066 24.3199 80.1889 24.3859L76.8904 36.696C76.8724 36.7621 76.8677 36.831 76.8765 36.8989C76.8853 36.9668 76.9074 37.0323 76.9417 37.0916C76.9759 37.1508 77.0215 37.2028 77.0759 37.2443C77.1303 37.2859 77.1924 37.3162 77.2586 37.3337Z" fill="#C6C8CC"/>
<path d="M72.5032 33.8921L72.3638 35.4944C72.3508 35.6172 72.3821 35.7405 72.452 35.8423C72.5219 35.944 72.6258 36.0175 72.745 36.0495L72.8316 36.0727C72.8998 36.0787 72.9684 36.0711 73.0337 36.0505C73.0989 36.0299 73.1595 35.9967 73.2119 35.9527C73.2643 35.9086 73.3075 35.8547 73.339 35.794C73.3705 35.7333 73.3898 35.667 73.3957 35.5988L73.5378 33.995C73.5498 33.8573 73.5065 33.7206 73.4177 33.6148C73.3288 33.509 73.2015 33.4429 73.0639 33.4309C72.9262 33.419 72.7895 33.4622 72.6837 33.5511C72.5779 33.6399 72.5118 33.7672 72.4998 33.9048L72.5032 33.8921Z" fill="#C6C8CC"/>
<path d="M72.8401 30.0487C72.8276 30.1714 72.8591 30.2945 72.9289 30.3961C72.9987 30.4978 73.1023 30.5714 73.2213 30.6038C73.2496 30.6136 73.2785 30.6213 73.3079 30.627C73.377 30.6332 73.4466 30.6257 73.5127 30.6047C73.5789 30.5838 73.6401 30.55 73.693 30.5051C73.746 30.4603 73.7894 30.4054 73.8209 30.3436C73.8524 30.2818 73.8712 30.2143 73.8764 30.1452L74.2163 26.2482C74.2282 26.1105 74.185 25.9738 74.0961 25.868C74.0073 25.7622 73.88 25.6961 73.7424 25.6841C73.6047 25.6722 73.468 25.7154 73.3622 25.8042C73.2564 25.8931 73.1902 26.0204 73.1783 26.158L72.8401 30.0487Z" fill="#C6C8CC"/>
<path d="M68.1942 36.121C68.2034 36.2277 68.2452 36.3289 68.314 36.411C68.3828 36.493 68.4752 36.5519 68.5787 36.5795C68.6372 36.5949 68.6981 36.5997 68.7583 36.5937C68.8936 36.5813 69.0186 36.5166 69.1068 36.4133C69.195 36.31 69.2393 36.1763 69.2303 36.0408L68.1239 23.3339C68.1118 23.1962 68.0456 23.0688 67.9396 22.9799C67.8337 22.891 67.6968 22.8478 67.559 22.8599C67.4213 22.8719 67.2939 22.9382 67.205 23.0441C67.1161 23.15 67.0729 23.2869 67.085 23.4247L68.1942 36.121Z" fill="#C6C8CC"/>
<path d="M64.0284 36.4971C64.0672 36.6269 64.1551 36.7365 64.2734 36.8025C64.3918 36.8685 64.5311 36.8858 64.662 36.8507C64.7929 36.8156 64.9049 36.7309 64.9743 36.6145C65.0437 36.4982 65.065 36.3593 65.0337 36.2275L64.6163 34.6663C64.5986 34.6002 64.5681 34.5381 64.5265 34.4838C64.4849 34.4294 64.4329 34.3838 64.3737 34.3495C64.3144 34.3153 64.249 34.293 64.1811 34.284C64.1132 34.275 64.0442 34.2795 63.9781 34.2971C63.9119 34.3148 63.8499 34.3453 63.7956 34.387C63.7412 34.4286 63.6956 34.4805 63.6613 34.5398C63.627 34.5991 63.6048 34.6645 63.5958 34.7324C63.5868 34.8002 63.5912 34.8692 63.6089 34.9354L64.0284 36.4971Z" fill="#C6C8CC"/>
<path d="M62.6052 31.2015C62.6295 31.2898 62.6764 31.3702 62.7413 31.4348C62.8062 31.4995 62.8868 31.5461 62.9752 31.5701C63.0636 31.5928 63.1563 31.5927 63.2447 31.5699C63.3783 31.5337 63.492 31.4461 63.5611 31.3262C63.6301 31.2063 63.6488 31.064 63.6131 30.9303L62.5913 27.1372C62.5752 27.0695 62.5457 27.0056 62.5045 26.9495C62.4633 26.8934 62.4112 26.8461 62.3514 26.8104C62.2916 26.7747 62.2253 26.7514 62.1563 26.7418C62.0873 26.7323 62.0171 26.7366 61.9499 26.7547C61.8826 26.7727 61.8197 26.8041 61.7648 26.8469C61.7098 26.8897 61.664 26.943 61.6301 27.0038C61.5962 27.0647 61.5748 27.1316 61.5672 27.2009C61.5596 27.2701 61.566 27.3401 61.586 27.4068L62.6052 31.2015Z" fill="#C6C8CC"/>
<path d="M60.3235 38.5165C60.3559 38.5855 60.403 38.6466 60.4614 38.6956C60.5199 38.7445 60.5884 38.78 60.6621 38.7997C60.7578 38.8252 60.8588 38.8229 60.9532 38.793C61.0477 38.7631 61.1316 38.7069 61.1952 38.631C61.2588 38.5551 61.2995 38.4626 61.3124 38.3644C61.3253 38.2662 61.3099 38.1663 61.268 38.0766L55.8871 26.523C55.8288 26.3978 55.7231 26.3008 55.5933 26.2535C55.4635 26.2062 55.3202 26.2124 55.1949 26.2707C55.0697 26.3291 54.9727 26.4348 54.9254 26.5646C54.8781 26.6944 54.8843 26.8377 54.9426 26.9629L60.3235 38.5165Z" fill="#C6C8CC"/>
<path d="M57.3805 39.6959L56.4391 38.4087C56.3988 38.3533 56.3479 38.3064 56.2895 38.2706C56.231 38.2348 56.1661 38.2109 56.0984 38.2003C56.0307 38.1896 55.9616 38.1924 55.895 38.2084C55.8283 38.2245 55.7655 38.2535 55.7101 38.2938C55.5982 38.3752 55.5232 38.4978 55.5017 38.6345C55.4801 38.7712 55.5137 38.9109 55.5952 39.0228L56.5387 40.3106C56.6201 40.4225 56.7427 40.4975 56.8794 40.519C57.0161 40.5406 57.1558 40.5069 57.2677 40.4255C57.3796 40.3441 57.4546 40.2215 57.4762 40.0848C57.4977 39.9481 57.4641 39.8084 57.3826 39.6965L57.3805 39.6959Z" fill="#C6C8CC"/>
<path d="M51.0514 32.8139L53.3409 35.9411C53.4113 36.0363 53.5119 36.1048 53.6263 36.1354C53.7306 36.1636 53.8411 36.1586 53.9424 36.1212C54.0438 36.0838 54.1309 36.0158 54.1919 35.9266C54.2529 35.8375 54.2846 35.7315 54.2827 35.6235C54.2808 35.5155 54.2453 35.4108 54.1812 35.3238L51.8938 32.1971C51.8109 32.0884 51.6886 32.0164 51.5533 31.9967C51.418 31.977 51.2803 32.0111 51.1698 32.0917C51.0593 32.1723 50.9848 32.293 50.9623 32.4279C50.9398 32.5628 50.971 32.7012 51.0493 32.8133L51.0514 32.8139Z" fill="#C6C8CC"/>
<path d="M44.7409 34.4407L53.7474 43.451C53.8119 43.5158 53.8924 43.5623 53.9807 43.586C54.0913 43.6155 54.2086 43.6078 54.3144 43.5639C54.4202 43.52 54.5086 43.4425 54.5659 43.3433C54.6231 43.2441 54.6461 43.1288 54.6312 43.0153C54.6163 42.9017 54.5644 42.7963 54.4835 42.7152L45.4771 33.705C45.3786 33.6119 45.2477 33.561 45.1122 33.5629C44.9768 33.5648 44.8474 33.6195 44.7516 33.7152C44.6557 33.811 44.601 33.9404 44.599 34.0758C44.5971 34.2113 44.648 34.3422 44.7409 34.4407Z" fill="#C6C8CC"/>
<path d="M51.424 45.5801L50.1595 44.6955C50.1037 44.6538 50.0401 44.6238 49.9724 44.6072C49.9048 44.5905 49.8345 44.5877 49.7657 44.5987C49.6969 44.6097 49.631 44.6345 49.572 44.6714C49.5129 44.7084 49.4619 44.7568 49.4219 44.8139C49.3819 44.8709 49.3538 44.9354 49.3391 45.0035C49.3245 45.0716 49.3237 45.142 49.3368 45.2104C49.3499 45.2788 49.3765 45.3439 49.4152 45.4019C49.4539 45.4598 49.5038 45.5094 49.562 45.5477L50.8259 46.4344C50.8754 46.4691 50.9306 46.4947 50.9891 46.5098C51.1076 46.5424 51.2338 46.5321 51.3454 46.4806C51.457 46.429 51.5468 46.3397 51.5988 46.2284C51.6509 46.1171 51.6619 45.9909 51.6299 45.8723C51.5979 45.7536 51.525 45.6501 51.424 45.5801Z" fill="#C6C8CC"/>
<path d="M44.0508 40.4225C43.9376 40.3481 43.8 40.3207 43.667 40.3461C43.5339 40.3715 43.4161 40.4477 43.3383 40.5586C43.2606 40.6695 43.2291 40.8063 43.2506 40.94C43.272 41.0737 43.3447 41.1938 43.4533 41.2748L46.5234 43.4245C46.5792 43.4661 46.6428 43.4962 46.7105 43.5128C46.7781 43.5294 46.8484 43.5323 46.9172 43.5213C46.986 43.5102 47.0519 43.4855 47.1109 43.4485C47.17 43.4116 47.221 43.3631 47.261 43.3061C47.301 43.249 47.3291 43.1846 47.3438 43.1164C47.3584 43.0483 47.3592 42.978 47.3461 42.9095C47.333 42.8411 47.3064 42.776 47.2677 42.7181C47.229 42.6601 47.1791 42.6106 47.1209 42.5723L44.0508 40.4225Z" fill="#C6C8CC"/>
<path d="M37.7105 44.9583L49.2554 50.3436C49.2843 50.3536 49.314 50.3615 49.3441 50.3674C49.4694 50.3996 49.6022 50.384 49.7166 50.3237C49.8311 50.2633 49.919 50.1625 49.9631 50.0409C50.0073 49.9193 50.0046 49.7856 49.9556 49.6659C49.9066 49.5462 49.8147 49.449 49.698 49.3933L38.1493 44.0138C38.024 43.9556 37.8808 43.9495 37.7511 43.9969C37.6213 44.0444 37.5158 44.1414 37.4576 44.2666C37.3994 44.3919 37.3934 44.5351 37.4408 44.6648C37.4882 44.7946 37.5852 44.9001 37.7105 44.9583Z" fill="#C6C8CC"/>
<path d="M81.7243 38.4419C81.7532 38.4519 81.7829 38.4598 81.813 38.4656C81.9322 38.4971 82.0588 38.4852 82.1701 38.4321C82.2813 38.3789 82.3701 38.288 82.4207 38.1755L83.101 36.7182C83.1595 36.593 83.1659 36.4498 83.1187 36.3199C83.0715 36.19 82.9747 36.0842 82.8495 36.0258C82.7243 35.9673 82.581 35.961 82.4512 36.0081C82.3213 36.0553 82.2155 36.1521 82.157 36.2773L81.4761 37.7367C81.4453 37.7992 81.4273 37.8672 81.4231 37.9367C81.419 38.0062 81.4287 38.0758 81.4519 38.1415C81.475 38.2072 81.511 38.2676 81.5578 38.3192C81.6045 38.3708 81.6611 38.4125 81.7243 38.4419Z" fill="#C6C8CC"/>
<path d="M84.0352 33.4855C84.0642 33.4955 84.0938 33.5034 84.1239 33.5092C84.2432 33.5402 84.3695 33.5281 84.4807 33.475C84.5919 33.422 84.6807 33.3313 84.7316 33.2191L86.3836 29.6737C86.4421 29.5485 86.4485 29.4053 86.4013 29.2754C86.3541 29.1455 86.2573 29.0397 86.1321 28.9813C86.0069 28.9228 85.8636 28.9165 85.7338 28.9636C85.6039 29.0108 85.4981 29.1076 85.4397 29.2328L83.782 32.7994C83.7255 32.924 83.7204 33.066 83.7678 33.1944C83.8152 33.3228 83.9113 33.4274 84.0352 33.4855Z" fill="#C6C8CC"/>
<path d="M84.988 40.9425C85.1002 41.0192 85.2382 41.0485 85.3719 41.0241C85.5056 40.9998 85.6243 40.9236 85.7023 40.8123L93.0111 30.3716C93.0855 30.2585 93.1129 30.1208 93.0875 29.9878C93.0621 29.8548 92.9859 29.7369 92.875 29.6592C92.7641 29.5814 92.6273 29.55 92.4936 29.5714C92.3599 29.5929 92.2398 29.6656 92.1588 29.7741L84.8606 40.2176C84.7814 40.3306 84.7504 40.4705 84.7743 40.6064C84.7982 40.7423 84.875 40.8632 84.988 40.9425Z" fill="#C6C8CC"/>
<path d="M89.5408 41.3448L88.3967 42.4876C88.2998 42.5858 88.2456 42.7183 88.2459 42.8563C88.2463 42.9943 88.3012 43.1265 88.3986 43.2242C88.4622 43.289 88.5421 43.3355 88.6298 43.3586C88.7184 43.3824 88.8116 43.3826 88.9002 43.359C88.9888 43.3355 89.0696 43.289 89.1346 43.2243L90.2766 42.081C90.3273 42.0332 90.3678 41.9757 90.3959 41.912C90.4239 41.8482 90.4389 41.7795 90.4399 41.7099C90.4409 41.6403 90.428 41.5712 90.4018 41.5066C90.3756 41.4421 90.3368 41.3835 90.2876 41.3342C90.2383 41.285 90.1797 41.2461 90.1152 41.2199C90.0507 41.1937 89.9816 41.1807 89.912 41.1817C89.8423 41.1827 89.7736 41.1976 89.7099 41.2257C89.6461 41.2537 89.5886 41.2942 89.5408 41.3448Z" fill="#C6C8CC"/>
<path d="M92.2743 39.3415C92.3391 39.406 92.4195 39.4525 92.5077 39.4765C92.5956 39.5015 92.6886 39.5029 92.7773 39.4806C92.866 39.4582 92.9472 39.4129 93.0128 39.3492L95.7949 36.5731C95.8443 36.5246 95.8837 36.4669 95.9108 36.4032C95.9379 36.3395 95.9522 36.2711 95.9529 36.2019C95.9536 36.1326 95.9406 36.064 95.9147 35.9998C95.8889 35.9356 95.8506 35.8771 95.8021 35.8277C95.7537 35.7782 95.6959 35.7388 95.6322 35.7117C95.5685 35.6846 95.5001 35.6703 95.4309 35.6697C95.3617 35.669 95.293 35.682 95.2288 35.7078C95.1646 35.7337 95.1061 35.772 95.0567 35.8204L92.2752 38.5944C92.2255 38.643 92.1859 38.7011 92.1589 38.7652C92.1318 38.8293 92.1178 38.8982 92.1178 38.9678C92.1177 39.0374 92.1315 39.1063 92.1584 39.1704C92.1853 39.2346 92.2247 39.2928 92.2743 39.3415Z" fill="#C6C8CC"/>
<path d="M90.6081 46.6924C90.6775 46.7935 90.781 46.8663 90.8997 46.8973C90.973 46.917 91.0498 46.9204 91.1246 46.9071C91.1993 46.8939 91.2703 46.8644 91.3324 46.8207L101.77 39.5103C101.883 39.431 101.96 39.31 101.984 39.174C102.008 39.0379 101.977 38.8979 101.898 38.7847C101.818 38.6716 101.697 38.5946 101.561 38.5706C101.425 38.5467 101.285 38.5778 101.172 38.6571L90.7259 45.9653C90.6704 46.0053 90.6234 46.0558 90.5874 46.114C90.5514 46.1722 90.5273 46.2369 90.5164 46.3044C90.5054 46.3719 90.5079 46.4409 90.5236 46.5075C90.5394 46.5741 90.5681 46.6369 90.6081 46.6924Z" fill="#C6C8CC"/>
<path d="M93.712 50.2711L95.1709 49.6271C95.2335 49.5993 95.2901 49.5594 95.3373 49.5097C95.3845 49.46 95.4215 49.4015 95.4461 49.3376C95.4707 49.2736 95.4824 49.2054 95.4807 49.1369C95.4789 49.0684 95.4637 49.0009 95.4359 48.9383C95.4081 48.8757 95.3682 48.8191 95.3185 48.7719C95.2688 48.7247 95.2103 48.6878 95.1464 48.6632C95.0824 48.6385 95.0142 48.6268 94.9457 48.6285C94.8772 48.6303 94.8097 48.6455 94.7471 48.6733L93.2882 49.3174C93.1617 49.3736 93.0627 49.4777 93.013 49.6069C92.9634 49.7361 92.967 49.8797 93.0232 50.0062C93.0794 50.1326 93.1836 50.2316 93.3127 50.2813C93.4419 50.331 93.5855 50.3273 93.712 50.2711Z" fill="#C6C8CC"/>
<path d="M97.9813 47.8187C98.0369 47.9448 98.1401 48.0438 98.2685 48.0939C98.3968 48.144 98.5398 48.1411 98.6661 48.086L102.213 46.5225C102.339 46.4664 102.439 46.3622 102.489 46.2329C102.538 46.1035 102.535 45.9597 102.479 45.8329C102.423 45.7062 102.319 45.6069 102.189 45.557C102.06 45.507 101.916 45.5105 101.789 45.5666L98.2428 47.1301C98.1804 47.1582 98.1241 47.1982 98.0772 47.248C98.0303 47.2978 97.9937 47.3563 97.9694 47.4202C97.9451 47.4842 97.9336 47.5523 97.9357 47.6207C97.9377 47.689 97.9532 47.7563 97.9813 47.8187Z" fill="#C6C8CC"/>
<path d="M93.9218 54.0187C93.9454 54.1069 93.9918 54.1874 94.0564 54.252C94.121 54.3166 94.2014 54.363 94.2896 54.3867C94.3779 54.4111 94.471 54.411 94.5592 54.3865L106.866 51.0872C106.996 51.0483 107.106 50.9604 107.172 50.8421C107.238 50.7238 107.255 50.5844 107.22 50.4536C107.185 50.3227 107.1 50.2107 106.984 50.1413C106.867 50.0719 106.728 50.0506 106.597 50.0819L94.2896 53.3812C94.2234 53.3987 94.1614 53.4291 94.1071 53.4706C94.0527 53.5122 94.0071 53.5641 93.9729 53.6233C93.9387 53.6826 93.9166 53.748 93.9078 53.8159C93.899 53.8837 93.9038 53.9527 93.9218 54.0187Z" fill="#C6C8CC"/>
<path d="M95.429 58.4175C95.4879 58.4339 95.5493 58.4397 95.6102 58.4343L97.146 58.2978C97.2164 58.2951 97.2856 58.2782 97.3492 58.248C97.4129 58.2178 97.4698 58.175 97.5165 58.1222C97.5631 58.0694 97.5986 58.0076 97.6207 57.9407C97.6428 57.8738 97.6511 57.8031 97.645 57.7329C97.639 57.6626 97.6187 57.5944 97.5855 57.5322C97.5523 57.4701 97.5068 57.4153 97.4518 57.3712C97.3968 57.3272 97.3335 57.2947 97.2655 57.2759C97.1976 57.257 97.1266 57.2521 97.0568 57.2616L95.5194 57.3954C95.3971 57.4056 95.2824 57.4586 95.1954 57.5451C95.1084 57.6317 95.0547 57.7461 95.0439 57.8684C95.0331 57.9906 95.0658 58.1127 95.1363 58.2132C95.2067 58.3136 95.3104 58.386 95.429 58.4175Z" fill="#C6C8CC"/>
<path d="M100.647 57.9608C100.705 57.9762 100.766 57.981 100.827 57.975L104.56 57.6483C104.63 57.6442 104.698 57.6263 104.76 57.5954C104.823 57.5646 104.878 57.5216 104.924 57.4688C104.969 57.4161 105.004 57.3548 105.025 57.2885C105.047 57.2222 105.055 57.1523 105.048 57.0829C105.042 57.0135 105.022 56.946 104.99 56.8845C104.957 56.8229 104.912 56.7686 104.858 56.7246C104.804 56.6807 104.742 56.648 104.675 56.6286C104.608 56.6092 104.538 56.6034 104.469 56.6115L100.735 56.9382C100.613 56.9484 100.498 57.0015 100.411 57.0883C100.324 57.175 100.27 57.2898 100.26 57.4122C100.249 57.5347 100.282 57.6569 100.353 57.7573C100.424 57.8577 100.528 57.9298 100.647 57.9608Z" fill="#C6C8CC"/>
<path d="M94.5313 62.0381C94.5184 62.1609 94.5496 62.2842 94.6195 62.386C94.6894 62.4877 94.7933 62.5612 94.9125 62.5932C94.9408 62.603 94.9697 62.6108 94.9991 62.6164L107.692 63.7256C107.83 63.7376 107.966 63.6944 108.072 63.6055C108.178 63.5166 108.244 63.3893 108.256 63.2517C108.268 63.1141 108.225 62.9773 108.136 62.8715C108.047 62.7657 107.92 62.6996 107.782 62.6876L95.0914 61.579C94.9566 61.5673 94.8225 61.6087 94.7179 61.6945C94.6132 61.7803 94.5463 61.9036 94.5313 62.0381Z" fill="#C6C8CC"/>
<path d="M48.1434 53.2342L46.2417 52.7247C46.1115 52.6987 45.9762 52.7232 45.8634 52.7933C45.7506 52.8634 45.6687 52.9738 45.6343 53.102C45.5999 53.2303 45.6157 53.3669 45.6783 53.484C45.741 53.6011 45.8458 53.69 45.9716 53.7326L47.8733 54.2421C48.0035 54.2681 48.1388 54.2436 48.2516 54.1735C48.3644 54.1034 48.4463 53.993 48.4807 53.8647C48.5151 53.7364 48.4993 53.5999 48.4367 53.4828C48.374 53.3657 48.2692 53.2768 48.1434 53.2342Z" fill="#C6C8CC"/>
<path d="M37.0038 50.2494C36.8735 50.2234 36.7383 50.2479 36.6255 50.318C36.5127 50.3881 36.4308 50.4985 36.3964 50.6268C36.362 50.7551 36.3778 50.8916 36.4404 51.0087C36.5031 51.1258 36.6079 51.2147 36.7337 51.2573L41.3822 52.5028C41.5125 52.5288 41.6477 52.5043 41.7605 52.4342C41.8733 52.3641 41.9552 52.2537 41.9896 52.1255C42.024 51.9972 42.0083 51.8606 41.9456 51.7435C41.883 51.6264 41.7781 51.5376 41.6523 51.495L37.0038 50.2494Z" fill="#C6C8CC"/>
<path d="M94.4092 66.7114L96.3214 67.2237C96.4517 67.2498 96.5869 67.2252 96.6997 67.1551C96.8125 67.085 96.8944 66.9747 96.9288 66.8464C96.9632 66.7181 96.9474 66.5815 96.8848 66.4644C96.8221 66.3473 96.7173 66.2585 96.5915 66.2159L94.6793 65.7035C94.549 65.6775 94.4138 65.702 94.301 65.7721C94.1882 65.8422 94.1063 65.9526 94.0719 66.0809C94.0375 66.2091 94.0532 66.3457 94.1159 66.4628C94.1785 66.5799 94.2834 66.6688 94.4092 66.7114Z" fill="#C6C8CC"/>
<path d="M105.549 69.6962C105.679 69.7222 105.814 69.6977 105.927 69.6276C106.04 69.5575 106.122 69.4471 106.156 69.3188C106.19 69.1905 106.175 69.054 106.112 68.9369C106.049 68.8198 105.945 68.7309 105.819 68.6883L101.17 67.4427C101.04 67.4167 100.905 67.4413 100.792 67.5114C100.679 67.5814 100.597 67.6918 100.563 67.8201C100.529 67.9484 100.544 68.085 100.607 68.2021C100.67 68.3192 100.774 68.408 100.9 68.4506L105.549 69.6962Z" fill="#C6C8CC"/>
<path d="M65.2938 81.9869C65.1605 81.9511 65.0184 81.9698 64.8988 82.0389C64.7792 82.1079 64.6919 82.2216 64.6562 82.355L61.3577 94.6651C61.322 94.7985 61.3407 94.9406 61.4097 95.0602C61.4788 95.1798 61.5925 95.267 61.7259 95.3027C61.8592 95.3385 62.0013 95.3198 62.1209 95.2507C62.2405 95.1817 62.3278 95.068 62.3635 94.9346L65.662 82.6245C65.6971 82.4911 65.6781 82.3493 65.6092 82.2299C65.5402 82.1105 65.4269 82.0231 65.2938 81.9869Z" fill="#C6C8CC"/>
<path d="M60.8261 80.878C60.7641 80.8491 60.6969 80.8327 60.6285 80.8298C60.5602 80.8269 60.4919 80.8376 60.4277 80.8612C60.3634 80.8848 60.3045 80.921 60.2543 80.9675C60.2041 81.014 60.1636 81.07 60.1352 81.1322L59.4548 82.5896C59.4255 82.6515 59.4088 82.7186 59.4056 82.787C59.4024 82.8555 59.4128 82.9238 59.4362 82.9882C59.4596 83.0526 59.4955 83.1117 59.5419 83.1622C59.5882 83.2126 59.6441 83.2533 59.7063 83.282C59.735 83.293 59.7648 83.301 59.7951 83.3058C59.9143 83.3372 60.0409 83.3253 60.1521 83.2722C60.2634 83.2191 60.3522 83.1282 60.4027 83.0157L61.0816 81.5557C61.1353 81.4317 61.1386 81.2916 61.0909 81.1651C61.0433 81.0387 60.9483 80.9357 60.8261 80.878Z" fill="#C6C8CC"/>
<path d="M58.5151 85.8346C58.3901 85.7767 58.2472 85.7708 58.1178 85.818C57.9884 85.8653 57.8831 85.9619 57.8247 86.0867L56.1706 89.6315C56.1416 89.6935 56.1251 89.7606 56.1221 89.8289C56.119 89.8973 56.1295 89.9656 56.1528 90.0299C56.1762 90.0942 56.212 90.1533 56.2582 90.2037C56.3044 90.2542 56.3601 90.2951 56.4221 90.324C56.4508 90.335 56.4805 90.343 56.5109 90.3478C56.6301 90.3792 56.7566 90.3673 56.8679 90.3142C56.9792 90.261 57.068 90.1701 57.1185 90.0576L58.7727 86.5128C58.8259 86.3884 58.8287 86.2482 58.7807 86.1217C58.7326 85.9952 58.6374 85.8923 58.5151 85.8346Z" fill="#C6C8CC"/>
<path d="M57.5623 78.3775C57.4499 78.3014 57.3122 78.2723 57.1786 78.2967C57.045 78.321 56.9264 78.3968 56.8481 78.5077L49.5393 88.9484C49.5001 89.0045 49.4723 89.0678 49.4576 89.1346C49.4429 89.2014 49.4416 89.2705 49.4536 89.3379C49.4656 89.4053 49.4908 89.4696 49.5277 89.5273C49.5646 89.5849 49.6126 89.6347 49.6687 89.6738C49.7181 89.7086 49.7734 89.7342 49.832 89.7492C49.9354 89.777 50.0448 89.7723 50.1454 89.7356C50.246 89.6989 50.3329 89.6321 50.3942 89.5443L57.7024 79.1057C57.7415 79.0489 57.7689 78.9848 57.783 78.9173C57.7972 78.8498 57.7978 78.7801 57.7847 78.7123C57.7717 78.6446 57.7453 78.5801 57.7071 78.5226C57.669 78.4651 57.6197 78.4158 57.5623 78.3775Z" fill="#C6C8CC"/>
<path d="M53.0116 77.9758L54.1467 76.8329C54.2446 76.7354 54.2997 76.603 54.3 76.4648C54.3003 76.3266 54.2457 76.194 54.1482 76.0961C54.0507 75.9982 53.9183 75.9431 53.7801 75.9428C53.642 75.9425 53.5094 75.9971 53.4115 76.0946L52.2673 77.2374C52.1701 77.3356 52.1155 77.4681 52.1153 77.6063C52.1152 77.7445 52.1695 77.8771 52.2666 77.9755C52.3317 78.0395 52.412 78.0859 52.4999 78.1105C52.5894 78.1358 52.6841 78.1367 52.7741 78.113C52.8641 78.0893 52.9461 78.042 53.0116 77.9758Z" fill="#C6C8CC"/>
<path d="M50.2722 79.9842C50.174 79.887 50.0415 79.8324 49.9033 79.8322C49.7651 79.8321 49.6325 79.8864 49.5341 79.9834L46.752 82.7596C46.6543 82.8575 46.5993 82.9901 46.5992 83.1284C46.599 83.2668 46.6537 83.3996 46.7513 83.4976C46.8164 83.5616 46.8967 83.6081 46.9846 83.6326C47.0729 83.6562 47.1658 83.6562 47.254 83.6325C47.3422 83.6089 47.4227 83.5624 47.4873 83.4978L50.2693 80.7217C50.3672 80.6241 50.4224 80.4917 50.423 80.3535C50.4235 80.2153 50.3693 80.0825 50.2722 79.9842Z" fill="#C6C8CC"/>
<path d="M51.9442 72.6283C51.9051 72.572 51.8552 72.524 51.7975 72.4871C51.7398 72.4501 51.6753 72.4249 51.6078 72.4129C51.5404 72.401 51.4712 72.4024 51.4042 72.4172C51.3373 72.4321 51.274 72.46 51.2179 72.4993L40.7822 79.8103C40.6691 79.8896 40.5921 80.0106 40.5682 80.1467C40.5442 80.2828 40.5753 80.4228 40.6546 80.5359C40.7339 80.6491 40.8549 80.7261 40.991 80.75C41.1271 80.7739 41.2671 80.7428 41.3802 80.6635L51.8159 73.3525C51.9288 73.2734 52.0058 73.1527 52.0298 73.017C52.0539 72.8812 52.0231 72.7414 51.9442 72.6283Z" fill="#C6C8CC"/>
<path d="M47.1136 70.3804C47.1452 70.4518 47.1924 70.5152 47.2516 70.566C47.3109 70.6167 47.3808 70.6536 47.4562 70.6738C47.5709 70.7047 47.6928 70.695 47.8011 70.6462L49.26 70.0021C49.3864 69.9459 49.4854 69.8418 49.5351 69.7126C49.5848 69.5834 49.5811 69.4398 49.5249 69.3133C49.4687 69.1869 49.3646 69.0879 49.2354 69.0382C49.1062 68.9885 48.9626 68.9922 48.8361 69.0484L47.3782 69.6972C47.2534 69.7537 47.1557 69.8569 47.1062 69.9847C47.0567 70.1125 47.0594 70.2546 47.1136 70.3804Z" fill="#C6C8CC"/>
<path d="M44.5711 71.5018C44.5437 71.439 44.5041 71.3822 44.4547 71.3348C44.4052 71.2874 44.3468 71.2502 44.2829 71.2255C44.2189 71.2008 44.1507 71.189 44.0822 71.1908C44.0137 71.1926 43.9462 71.208 43.8837 71.2361L40.3389 72.7932C40.2128 72.8495 40.1141 72.9534 40.0643 73.0822C40.0145 73.211 40.0177 73.3543 40.0732 73.4807C40.1044 73.5523 40.1514 73.616 40.2108 73.6668C40.2701 73.7176 40.3402 73.7543 40.4158 73.7741C40.5302 73.8048 40.6515 73.7958 40.7601 73.7486L44.3044 72.1845C44.4299 72.1288 44.5283 72.0259 44.5783 71.898C44.6282 71.7702 44.6256 71.6278 44.5711 71.5018Z" fill="#C6C8CC"/>
<path d="M48.6307 65.3019C48.613 65.2356 48.5824 65.1735 48.5407 65.1191C48.499 65.0647 48.4469 65.019 48.3874 64.9848C48.328 64.9506 48.2624 64.9284 48.1944 64.9196C48.1264 64.9108 48.0573 64.9155 47.9911 64.9335L35.6862 68.2334C35.6184 68.2495 35.5546 68.279 35.4985 68.3202C35.4423 68.3614 35.395 68.4135 35.3594 68.4733C35.3237 68.5331 35.3004 68.5994 35.2908 68.6684C35.2812 68.7374 35.2856 68.8076 35.3037 68.8748C35.3217 68.9421 35.353 69.005 35.3958 69.0599C35.4386 69.1149 35.492 69.1606 35.5528 69.1946C35.6136 69.2285 35.6806 69.2499 35.7498 69.2575C35.8191 69.265 35.8891 69.2587 35.9558 69.2387L48.2607 65.9388C48.3268 65.9213 48.3889 65.8909 48.4432 65.8494C48.4976 65.808 48.5433 65.7562 48.5777 65.697C48.612 65.6379 48.6344 65.5725 48.6435 65.5047C48.6526 65.4369 48.6482 65.368 48.6307 65.3019Z" fill="#C6C8CC"/>
<path d="M46.9423 60.8864L45.406 61.016C45.2836 61.0262 45.1686 61.0793 45.0816 61.1661C44.9945 61.2528 44.941 61.3676 44.9304 61.49C44.9198 61.6125 44.9529 61.7347 45.0238 61.8351C45.0947 61.9355 45.1988 62.0076 45.3177 62.0386C45.3763 62.054 45.4371 62.0588 45.4974 62.0528L47.0347 61.9189C47.1725 61.9069 47.2998 61.8406 47.3887 61.7347C47.4776 61.6287 47.5208 61.4918 47.5088 61.3541C47.4967 61.2163 47.4305 61.089 47.3245 61.0001C47.2186 60.9112 47.0817 60.868 46.9439 60.88L46.9423 60.8864Z" fill="#C6C8CC"/>
<path d="M41.7217 61.3445L37.988 61.6712C37.8656 61.6813 37.7506 61.7345 37.6636 61.8213C37.5765 61.908 37.523 62.0228 37.5124 62.1452C37.5018 62.2677 37.5349 62.3899 37.6058 62.4903C37.6767 62.5907 37.7808 62.6628 37.8997 62.6938C37.9583 62.7092 38.0191 62.714 38.0794 62.708L41.813 62.3813C41.8826 62.3772 41.9506 62.3593 42.0131 62.3284C42.0755 62.2976 42.1312 62.2545 42.1767 62.2018C42.2223 62.1491 42.2567 62.0878 42.2781 62.0215C42.2995 61.9552 42.3074 61.8853 42.3013 61.8159C42.2952 61.7465 42.2752 61.679 42.2425 61.6175C42.2099 61.5559 42.1652 61.5016 42.1112 61.4576C42.0571 61.4137 41.9948 61.381 41.9279 61.3616C41.861 61.3422 41.7909 61.3363 41.7217 61.3445Z" fill="#C6C8CC"/>
<path d="M48.0205 57.2845C48.0326 57.1467 47.9895 57.0098 47.9008 56.9037C47.8121 56.7976 47.6849 56.7309 47.5472 56.7184L34.8564 55.6097C34.7255 55.5961 34.5943 55.6326 34.4892 55.7118C34.3841 55.7911 34.3129 55.9071 34.2899 56.0367C34.267 56.1663 34.294 56.2998 34.3654 56.4103C34.4369 56.5208 34.5476 56.6002 34.6752 56.6324C34.7032 56.643 34.7323 56.6508 34.7619 56.6556L47.4548 57.7648C47.5236 57.7713 47.5931 57.7639 47.659 57.7431C47.725 57.7224 47.7861 57.6886 47.8388 57.6439C47.8916 57.5991 47.9348 57.5443 47.966 57.4826C47.9972 57.4209 48.0157 57.3535 48.0205 57.2845Z" fill="#C6C8CC"/>
<path d="M70.0492 85.4284L70.1886 83.8261C70.2009 83.6885 70.1579 83.5517 70.0693 83.4458C69.9807 83.3399 69.8536 83.2735 69.7161 83.2613C69.5785 83.249 69.4417 83.2919 69.3358 83.3806C69.2298 83.4692 69.1635 83.5963 69.1512 83.7338L69.0112 85.3382C68.9987 85.4609 69.0302 85.584 69.1 85.6857C69.1698 85.7873 69.2734 85.8609 69.3924 85.8933C69.4211 85.9042 69.4508 85.9122 69.4811 85.9171C69.5508 85.9235 69.621 85.9159 69.6876 85.8947C69.7543 85.8734 69.8159 85.8389 69.8689 85.7933C69.922 85.7477 69.9652 85.6919 69.9962 85.6292C70.0272 85.5665 70.0452 85.4982 70.0492 85.4284Z" fill="#C6C8CC"/>
<path d="M69.7129 89.2696C69.7249 89.132 69.6817 88.9952 69.5928 88.8895C69.5039 88.7837 69.3766 88.7175 69.239 88.7056C69.1014 88.6936 68.9646 88.7368 68.8588 88.8257C68.753 88.9146 68.6869 89.0418 68.6749 89.1795L68.3329 93.0759C68.3204 93.1986 68.3519 93.3217 68.4217 93.4234C68.4915 93.525 68.5952 93.5986 68.7141 93.631C68.7428 93.642 68.7726 93.65 68.8029 93.6548C68.8711 93.661 68.9399 93.6537 69.0053 93.6332C69.0706 93.6127 69.1313 93.5795 69.1837 93.5355C69.2362 93.4914 69.2794 93.4374 69.3108 93.3765C69.3423 93.3156 69.3614 93.2491 69.367 93.1809L69.7129 89.2696Z" fill="#C6C8CC"/>
<path d="M74.3561 83.199C74.3402 83.0645 74.2726 82.9415 74.1675 82.856C74.0624 82.7706 73.9282 82.7295 73.7933 82.7413C73.6584 82.7532 73.5335 82.8172 73.445 82.9197C73.3565 83.0222 73.3114 83.1551 73.3193 83.2903L74.4291 95.9845C74.4379 96.0909 74.4794 96.192 74.5478 96.274C74.6162 96.3559 74.7083 96.4148 74.8114 96.4425C74.8703 96.4589 74.9317 96.4646 74.9926 96.4593C75.1301 96.4471 75.2571 96.3809 75.3457 96.2751C75.4344 96.1693 75.4774 96.0327 75.4653 95.8952L74.3561 83.199Z" fill="#C6C8CC"/>
<path d="M78.5241 82.8234C78.4819 82.6969 78.393 82.5914 78.2755 82.5282C78.1581 82.4651 78.021 82.4493 77.8922 82.4839C77.7635 82.5186 77.6529 82.6011 77.5829 82.7146C77.513 82.8281 77.4891 82.964 77.5161 83.0946L77.9361 84.6543C77.9592 84.7429 78.0053 84.8239 78.0698 84.8889C78.1343 84.9539 78.2149 85.0007 78.3034 85.0244C78.3918 85.0477 78.4847 85.0476 78.573 85.0242C78.7065 84.988 78.8203 84.9004 78.8893 84.7805C78.9584 84.6607 78.9771 84.5183 78.9414 84.3846L78.5241 82.8234Z" fill="#C6C8CC"/>
<path d="M79.9434 88.1248C79.9074 87.9914 79.8199 87.8778 79.7001 87.8089C79.5803 87.7401 79.438 87.7217 79.3047 87.7577C79.1713 87.7937 79.0577 87.8813 78.9888 88.0011C78.92 88.1209 78.9016 88.2631 78.9376 88.3965L79.9589 92.1917C79.9825 92.2799 80.029 92.3604 80.0935 92.425C80.1581 92.4896 80.2385 92.5361 80.3268 92.5598C80.4151 92.583 80.508 92.583 80.5963 92.5595C80.7299 92.5234 80.8436 92.4357 80.9127 92.3159C80.9817 92.196 81.0004 92.0536 80.9647 91.92L79.9434 88.1248Z" fill="#C6C8CC"/>
<path d="M82.2256 80.8078C82.1673 80.6825 82.0616 80.5856 81.9318 80.5383C81.802 80.4909 81.6587 80.4971 81.5334 80.5555C81.4082 80.6138 81.3112 80.7195 81.2639 80.8493C81.2166 80.9791 81.2228 81.1224 81.2811 81.2477L86.6653 92.7976C86.7238 92.9223 86.8293 93.0188 86.9586 93.0662C87.088 93.1136 87.2308 93.108 87.3561 93.0506C87.4815 92.9921 87.5785 92.8864 87.626 92.7565C87.6736 92.6266 87.6677 92.4832 87.6097 92.3576L82.2256 80.8078Z" fill="#C6C8CC"/>
<path d="M85.2828 78.8981C85.2276 78.9384 85.181 78.9892 85.1456 79.0476C85.1101 79.106 85.0866 79.1708 85.0763 79.2384C85.066 79.3059 85.0691 79.3748 85.0855 79.4411C85.1019 79.5074 85.1313 79.5698 85.1719 79.6247L86.1133 80.912C86.1824 81.0086 86.2832 81.0781 86.3981 81.1083C86.4735 81.1282 86.5524 81.1311 86.6291 81.1167C86.7058 81.1024 86.7783 81.0713 86.8415 81.0255C86.9524 80.945 87.027 80.824 87.0493 80.6888C87.0715 80.5536 87.0396 80.4151 86.9603 80.3033L86.0189 79.016C85.9789 78.9593 85.9279 78.911 85.8689 78.8743C85.81 78.8375 85.7443 78.8129 85.6757 78.8019C85.6071 78.7909 85.537 78.7937 85.4695 78.8102C85.402 78.8268 85.3385 78.8566 85.2828 78.8981Z" fill="#C6C8CC"/>
<path d="M91.5001 86.5019L89.21 83.3767C89.1285 83.2648 89.006 83.1899 88.8693 83.1683C88.7326 83.1467 88.5929 83.1804 88.481 83.2618C88.3691 83.3432 88.2941 83.4658 88.2725 83.6025C88.251 83.7392 88.2846 83.8789 88.366 83.9908L90.6556 87.1181C90.7373 87.2301 90.8602 87.305 90.9971 87.3264C91.1341 87.3478 91.2739 87.3139 91.3859 87.2322C91.4979 87.1505 91.5729 87.0277 91.5943 86.8907C91.6157 86.7537 91.5818 86.6139 91.5001 86.5019Z" fill="#C6C8CC"/>
<path d="M97.8115 84.8798L88.803 75.869C88.7552 75.8183 88.6977 75.7778 88.634 75.7497C88.5702 75.7217 88.5015 75.7067 88.4319 75.7057C88.3623 75.7047 88.2932 75.7176 88.2286 75.7438C88.1641 75.77 88.1055 75.8088 88.0562 75.858C88.007 75.9073 87.9681 75.9659 87.9419 76.0304C87.9157 76.0949 87.9027 76.164 87.9037 76.2336C87.9047 76.3033 87.9196 76.372 87.9477 76.4357C87.9757 76.4995 88.0162 76.557 88.0668 76.6048L97.0859 85.6184C97.15 85.6837 97.2307 85.7304 97.3193 85.7534C97.4299 85.783 97.5472 85.7752 97.653 85.7313C97.7588 85.6875 97.8472 85.6099 97.9044 85.5107C97.9617 85.4116 97.9847 85.2963 97.9698 85.1827C97.9549 85.0692 97.903 84.9637 97.8221 84.8826L97.8115 84.8798Z" fill="#C6C8CC"/>
<path d="M91.139 73.7434L92.4034 74.628C92.4525 74.6635 92.5076 74.6898 92.5661 74.7055C92.6845 74.7376 92.8105 74.7268 92.9217 74.675C93.033 74.6232 93.1223 74.5338 93.1741 74.4226C93.2258 74.3113 93.2366 74.1853 93.2046 74.0669C93.1725 73.9485 93.0996 73.8451 92.9988 73.7752L91.737 72.8891C91.6237 72.8098 91.4836 72.7787 91.3474 72.8027C91.2112 72.8268 91.0901 72.9039 91.0108 73.0172C90.9315 73.1305 90.9005 73.2706 90.9245 73.4068C90.9485 73.543 91.0257 73.6641 91.139 73.7434Z" fill="#C6C8CC"/>
<path d="M98.4996 78.8975C98.6127 78.9719 98.7504 78.9994 98.8834 78.974C99.0164 78.9486 99.1343 78.8723 99.212 78.7614C99.2897 78.6506 99.3212 78.5138 99.2998 78.3801C99.2783 78.2464 99.2056 78.1263 99.0971 78.0453L96.027 75.8956C95.9711 75.8539 95.9075 75.8239 95.8398 75.8072C95.7722 75.7906 95.7019 75.7877 95.6331 75.7988C95.5643 75.8098 95.4985 75.8346 95.4394 75.8715C95.3803 75.9085 95.3293 75.9569 95.2893 76.014C95.2493 76.071 95.2212 76.1355 95.2066 76.2036C95.192 76.2717 95.1912 76.3421 95.2042 76.4105C95.2173 76.4789 95.244 76.544 95.2827 76.602C95.3213 76.6599 95.3713 76.7095 95.4295 76.7478L98.4996 78.8975Z" fill="#C6C8CC"/>
<path d="M104.842 74.3622L93.295 68.9764C93.1697 68.9182 93.0265 68.9122 92.8968 68.9596C92.767 69.007 92.6615 69.104 92.6033 69.2293C92.5451 69.3545 92.5391 69.4978 92.5865 69.6275C92.6339 69.7572 92.7309 69.8628 92.8562 69.921L104.401 75.3062C104.43 75.3173 104.459 75.3252 104.49 75.33C104.616 75.3659 104.752 75.3526 104.869 75.2926C104.986 75.2327 105.076 75.1305 105.121 75.0068C105.166 74.8831 105.163 74.747 105.111 74.6258C105.06 74.5047 104.964 74.4075 104.844 74.3538L104.842 74.3622Z" fill="#C6C8CC"/>
<path d="M94.3572 123.262L88.5956 114.659C88.2699 114.169 88.0699 113.606 88.0135 113.02L87.5183 107.667C87.4944 107.404 87.5008 107.139 87.5374 106.877C87.5585 106.818 87.569 106.756 87.5686 106.693C87.6502 106.265 87.8106 105.856 88.0415 105.486L90.4188 101.727C90.4321 101.706 90.4435 101.683 90.4529 101.659C96.4811 98.8012 101.818 94.6696 106.095 89.5495C110.372 84.4295 113.488 78.4428 115.228 72.0022C121.784 47.5362 107.22 22.2984 82.7624 15.745C58.3049 9.19164 33.0732 23.7663 26.5176 48.2323C24.762 54.8378 24.4959 61.7508 25.7386 68.4717C26.9813 75.1926 29.7017 81.5534 33.7033 87.0944L33.8293 90.96C33.8592 91.7272 33.636 92.4831 33.194 93.111L30.0866 97.4985C29.7461 97.9789 29.2911 98.3669 28.7628 98.6271L19.4717 103.197C19.2273 103.328 19.0124 103.509 18.8403 103.727C18.6682 103.945 18.5425 104.195 18.4709 104.464C18.3824 104.734 18.3502 105.02 18.3764 105.303C18.4026 105.586 18.4865 105.861 18.6231 106.11C21.6886 111.278 39.9391 117.753 54.6418 121.715C69.3554 125.628 88.3958 129.156 93.6354 126.21C93.8784 126.062 94.0885 125.866 94.2527 125.634C94.417 125.402 94.5319 125.138 94.5904 124.86C94.6625 124.592 94.679 124.312 94.6389 124.037C94.5989 123.762 94.503 123.498 94.3572 123.262ZM27.5234 48.5018C33.9307 24.5894 58.5826 10.3441 82.4929 16.7508C106.403 23.1575 120.63 47.8203 114.222 71.7327C112.38 78.5562 108.96 84.851 104.237 90.1091C99.5143 95.3672 93.6214 99.4413 87.0341 102.003C83.1806 103.495 72.7469 102.33 60.4495 99.0349C48.152 95.7398 38.5316 91.5315 35.9427 88.3127C31.5167 82.8014 28.4486 76.3266 26.9861 69.4111C25.5236 62.4956 25.7076 55.3331 27.5234 48.5018ZM35.1267 88.9659C37.1912 91.5301 44.992 95.9711 60.1758 100.04C75.3595 104.108 84.3336 104.162 87.4057 102.974C87.8554 102.8 88.3013 102.618 88.7435 102.427L87.1674 104.928C86.9238 105.317 86.7408 105.741 86.6247 106.184C68.3805 106.616 51.395 102.062 34.7198 92.2765C34.8409 91.8362 34.8937 91.3798 34.8763 90.9234L34.7991 88.5407C34.9044 88.6799 35.0129 88.8245 35.1267 88.9659ZM34.043 93.7122C34.1464 93.5653 34.2405 93.412 34.3245 93.2531C42.7027 98.1591 51.1619 101.757 59.8187 104.077C68.505 106.395 77.4784 107.458 86.4659 107.233C86.4607 107.41 86.4655 107.587 86.4804 107.763L86.9771 113.118C86.9824 113.183 86.9994 113.246 87.0068 113.312C67.247 113.812 48.8621 108.886 30.8125 98.2546C30.8537 98.2022 30.898 98.1552 30.935 98.1017L34.043 93.7122ZM93.1248 125.301C89.1007 127.565 73.7426 125.719 54.9113 120.709C36.096 115.632 21.8725 109.551 19.5197 105.578C19.3956 105.323 19.3775 105.029 19.4693 104.761C19.5009 104.63 19.5581 104.507 19.6376 104.399C19.7172 104.291 19.8174 104.2 19.9325 104.131L29.2236 99.5613C29.5251 99.4105 29.809 99.2268 30.0702 99.0136C30.0979 99.0381 30.1275 99.0604 30.1587 99.0804C39.3114 104.477 48.5439 108.434 57.9994 110.968C67.5401 113.517 77.4019 114.658 87.2726 114.357C87.3906 114.67 87.5438 114.968 87.7293 115.247L93.4888 123.849C93.5542 123.966 93.5955 124.096 93.6103 124.229C93.6251 124.363 93.6131 124.498 93.575 124.626C93.5185 124.901 93.357 125.143 93.1248 125.301Z" fill="#C6C8CC"/>
</g>
<defs>
<clipPath id="clip0">
<rect width="112" height="112" fill="white" transform="translate(28.9877) rotate(15)"/>
</clipPath>
</defs>
</svg>
