<svg width="138" height="138" viewBox="0 0 138 138" fill="none" xmlns="http://www.w3.org/2000/svg">
<g clip-path="url(#clip0)">
<path d="M74.9472 73.3023C75.8624 72.9799 76.7289 72.5331 77.5224 71.9745C77.5645 71.9439 77.5962 71.9011 77.6132 71.8519C77.6303 71.8027 77.6317 71.7495 77.6174 71.6994C77.6032 71.6494 77.5738 71.6049 77.5334 71.5721C77.493 71.5393 77.4435 71.5196 77.3916 71.5159C75.342 71.3699 73.3796 70.6284 71.7455 69.3825C70.1115 68.1367 68.8769 66.4406 68.1935 64.5028C67.51 62.5649 67.4075 60.4697 67.8984 58.4743C68.3894 56.479 69.4524 54.6705 70.957 53.271C70.9956 53.2359 71.0224 53.1896 71.0336 53.1386C71.0447 53.0875 71.0397 53.0343 71.0192 52.9862C70.9988 52.9381 70.9638 52.8976 70.9193 52.8703C70.8747 52.843 70.8228 52.8303 70.7706 52.8338C69.2669 52.9295 67.8011 53.3463 66.472 54.0563C65.143 54.7662 63.9815 55.7528 63.066 56.9495C62.1504 58.1462 61.5019 59.5252 61.1643 60.9937C60.8266 62.4622 60.8077 63.986 61.1086 65.4624C61.4096 66.9388 62.0235 68.3336 62.9091 69.5527C63.7946 70.7719 64.9311 71.787 66.2421 72.5298C67.553 73.2726 69.008 73.7258 70.5089 73.8589C72.0098 73.9919 73.5218 73.8017 74.943 73.3011L74.9472 73.3023Z" fill="#C6C8CC"/>
<path d="M76.0267 48.3041L77.6621 49.4693C77.6843 49.4846 77.7025 49.5051 77.715 49.5289C77.7275 49.5528 77.7341 49.5794 77.7341 49.6063L77.7333 52.1448C77.7277 52.2079 77.745 52.2709 77.7819 52.3223C77.8188 52.3737 77.8729 52.4102 77.9344 52.4252L77.9556 52.4309C78.0163 52.4491 78.0816 52.4448 78.1394 52.4187C78.1972 52.3925 78.2436 52.3463 78.27 52.2886L79.5385 50.0899C79.5516 50.0665 79.5701 50.0468 79.5926 50.0323C79.615 50.0177 79.6407 50.0089 79.6673 50.0066L81.6683 49.8158C81.7326 49.8226 81.7972 49.8063 81.8505 49.7697C81.9038 49.7331 81.9423 49.6787 81.959 49.6163C81.9757 49.5538 81.9696 49.4875 81.9418 49.4291C81.9139 49.3708 81.8661 49.3243 81.807 49.2981L80.162 48.1349C80.1401 48.1196 80.1223 48.0991 80.1101 48.0753C80.098 48.0516 80.0918 48.0252 80.0921 47.9984L80.0935 45.4578C80.0995 45.3947 80.0824 45.3315 80.0454 45.28C80.0085 45.2284 79.9541 45.192 79.8923 45.1775L79.8712 45.1718C79.8104 45.154 79.7453 45.1586 79.6876 45.1846C79.6299 45.2107 79.5835 45.2566 79.5568 45.314L78.2877 47.5149C78.2742 47.5383 78.2552 47.558 78.2324 47.5724C78.2096 47.5868 78.1837 47.5955 78.1568 47.5976L76.1579 47.789C76.0936 47.7821 76.029 47.7985 75.9757 47.8351C75.9224 47.8716 75.8839 47.9261 75.8672 47.9885C75.8504 48.051 75.8566 48.1173 75.8844 48.1757C75.9123 48.234 75.9601 48.2804 76.0192 48.3067L76.0267 48.3041Z" fill="#C6C8CC"/>
<path d="M61.5211 81.6395L60.4032 80.8417C60.3884 80.8314 60.3763 80.8176 60.3679 80.8016C60.3596 80.7856 60.3553 80.7677 60.3554 80.7497L60.3665 79.0179C60.3722 78.974 60.3616 78.9296 60.3368 78.8929C60.3121 78.8562 60.2747 78.8299 60.2319 78.8188L60.2171 78.8148C60.1742 78.8029 60.1285 78.8069 60.0883 78.8261C60.0482 78.8453 60.0164 78.8785 59.9988 78.9194L59.1426 80.4247C59.1328 80.4401 59.1197 80.4531 59.1041 80.4626C59.0886 80.4722 59.0712 80.4781 59.053 80.48L57.6649 80.6062C57.6213 80.6015 57.5775 80.6126 57.5413 80.6374C57.5052 80.6622 57.4791 80.699 57.4677 80.7414C57.4564 80.7837 57.4606 80.8287 57.4795 80.8683C57.4984 80.9078 57.5308 80.9393 57.5709 80.957L58.6867 81.7542C58.7015 81.7648 58.7136 81.7787 58.7223 81.7948C58.7309 81.8108 58.7358 81.8286 58.7366 81.8468L58.7255 83.5786C58.7202 83.6228 58.7312 83.6674 58.7563 83.7041C58.7815 83.7408 58.8191 83.7672 58.8622 83.7783L58.877 83.7822C58.9197 83.7941 58.9652 83.7899 59.005 83.7706C59.0448 83.7512 59.0761 83.718 59.0932 83.6771L59.9494 82.1718C59.9584 82.1561 59.971 82.1428 59.9863 82.1331C60.0015 82.1234 60.0189 82.1175 60.0369 82.116L61.4038 81.984C61.4474 81.9887 61.4912 81.9777 61.5274 81.9529C61.5636 81.9281 61.5897 81.8912 61.601 81.8489C61.6124 81.8065 61.6082 81.7615 61.5893 81.722C61.5703 81.6825 61.5379 81.651 61.4978 81.6333L61.5211 81.6395Z" fill="#C6C8CC"/>
<path d="M90.3196 60.1599L90.3085 61.8917C90.3032 61.9359 90.3142 61.9805 90.3393 62.0172C90.3645 62.0539 90.4021 62.0803 90.4452 62.0914L90.4579 62.0948C90.5008 62.1072 90.5467 62.1034 90.587 62.0841C90.6273 62.0648 90.659 62.0314 90.6762 61.9902L91.5324 60.4849C91.5422 60.4695 91.5553 60.4565 91.5708 60.4469C91.5864 60.4374 91.6038 60.4314 91.622 60.4296L92.989 60.2977C93.0325 60.3024 93.0764 60.2913 93.1125 60.2665C93.1487 60.2418 93.1748 60.2049 93.1861 60.1625C93.1975 60.1202 93.1933 60.0752 93.1744 60.0357C93.1555 59.9961 93.123 59.9646 93.0829 59.9469L91.9651 59.1492C91.95 59.1388 91.9377 59.1249 91.929 59.1088C91.9203 59.0927 91.9156 59.0748 91.9152 59.0565L91.9262 57.3248C91.932 57.2805 91.9212 57.2357 91.896 57.1988C91.8708 57.162 91.8329 57.1357 91.7895 57.1251L91.7768 57.1217C91.734 57.1097 91.6882 57.1137 91.6481 57.133C91.6079 57.1522 91.5761 57.1853 91.5586 57.2263L90.7023 58.7315C90.6928 58.7472 90.6797 58.7603 90.6642 58.7699C90.6486 58.7795 90.631 58.7853 90.6128 58.7868L89.2479 58.9193C89.2043 58.9146 89.1605 58.9257 89.1243 58.9504C89.0882 58.9752 89.0621 59.0121 89.0507 59.0545C89.0394 59.0968 89.0435 59.1418 89.0625 59.1813C89.0814 59.2209 89.1138 59.2524 89.1539 59.2701L90.2697 60.0673C90.2845 60.0779 90.2967 60.0918 90.3053 60.1078C90.3139 60.1239 90.3188 60.1417 90.3196 60.1599Z" fill="#C6C8CC"/>
<path d="M62.1225 106.712C62.1325 106.678 62.1297 106.641 62.1144 106.609C62.0992 106.577 62.0727 106.552 62.04 106.538L61.1475 105.905C61.1357 105.896 61.1261 105.885 61.1194 105.872C61.1127 105.858 61.1092 105.844 61.109 105.829L61.1126 104.446C61.1166 104.411 61.1077 104.376 61.0876 104.347C61.0675 104.318 61.0376 104.297 61.0034 104.288L60.9928 104.285C60.9587 104.276 60.9224 104.279 60.8904 104.294C60.8585 104.309 60.8331 104.335 60.819 104.368L60.1307 105.567C60.1232 105.58 60.1128 105.59 60.1005 105.599C60.0881 105.607 60.074 105.612 60.0594 105.613L58.9699 105.716C58.9347 105.712 58.8993 105.721 58.8702 105.741C58.8411 105.761 58.8203 105.791 58.8115 105.825C58.8016 105.859 58.8046 105.895 58.82 105.927C58.8353 105.958 58.8619 105.983 58.8946 105.997L59.7865 106.632C59.7983 106.641 59.8079 106.652 59.8146 106.665C59.8213 106.679 59.8248 106.693 59.825 106.708L59.8135 108.086C59.8095 108.121 59.8184 108.157 59.8385 108.186C59.8586 108.215 59.8885 108.236 59.9228 108.245L59.9333 108.247C59.9674 108.257 60.0037 108.254 60.0357 108.239C60.0676 108.224 60.093 108.197 60.1072 108.165L60.7954 106.966C60.8029 106.953 60.8133 106.942 60.8257 106.934C60.838 106.926 60.8521 106.921 60.8668 106.919L61.9568 106.815C61.9923 106.822 62.0293 106.815 62.0601 106.796C62.0909 106.777 62.1132 106.747 62.1225 106.712Z" fill="#C6C8CC"/>
<path d="M68.0917 44.7785C69.3404 45.1131 69.8629 43.1718 68.612 42.8366C67.3611 42.5015 66.8408 44.4433 68.0917 44.7785Z" fill="#C6C8CC"/>
<path d="M63.6695 93.2214C62.4208 92.8868 61.8984 94.8281 63.1492 95.1633C64.4001 95.4984 64.9204 93.5566 63.6695 93.2214Z" fill="#C6C8CC"/>
<path d="M59.0069 70.6957C57.7582 70.3611 57.2363 72.3002 58.4872 72.6354C59.7381 72.9706 60.2578 71.0309 59.0069 70.6957Z" fill="#C6C8CC"/>
<path d="M51.5719 66.5044C52.8207 66.839 53.3431 64.8978 52.0922 64.5626C50.8413 64.2274 50.321 66.1692 51.5719 66.5044Z" fill="#C6C8CC"/>
<path d="M70.9581 48.7444C71.6216 48.9221 71.8979 47.891 71.2344 47.7132C70.5709 47.5354 70.2862 48.5643 70.9581 48.7444Z" fill="#C6C8CC"/>
<path d="M95.8597 49.9814C96.8824 50.2554 97.3102 48.667 96.2854 48.3924C95.2606 48.1178 94.8349 49.7068 95.8597 49.9814Z" fill="#C6C8CC"/>
<path d="M78.8898 36.4188C79.5533 36.5966 79.8317 35.566 79.1661 35.3877C78.5005 35.2094 78.2264 36.241 78.8898 36.4188Z" fill="#C6C8CC"/>
<path d="M83.9303 30.031C85.0079 30.3198 85.459 28.6447 84.3793 28.3554C83.2996 28.0661 82.8443 29.74 83.9303 30.031Z" fill="#C6C8CC"/>
<path d="M84.4774 39.8137C85.1409 39.9915 85.4193 38.9609 84.7537 38.7826C84.0881 38.6042 83.8161 39.6365 84.4774 39.8137Z" fill="#C6C8CC"/>
<path d="M82.3874 22.7737C83.0509 22.9515 83.3293 21.921 82.6637 21.7426C81.9981 21.5643 81.7239 22.596 82.3874 22.7737Z" fill="#C6C8CC"/>
<path d="M70.5707 31.9769C71.2342 32.1547 71.5105 31.1236 70.847 30.9458C70.1836 30.768 69.9052 31.7986 70.5707 31.9769Z" fill="#C6C8CC"/>
<path d="M66.3449 29.4067C67.0084 29.5845 67.2868 28.5539 66.6212 28.3755C65.9556 28.1972 65.6814 29.2289 66.3449 29.4067Z" fill="#C6C8CC"/>
<path d="M75.3937 25.8096C76.0572 25.9874 76.3335 24.9563 75.67 24.7785C75.0066 24.6007 74.7282 25.6313 75.3937 25.8096Z" fill="#C6C8CC"/>
<path d="M55.2762 89.0565C54.6128 88.8787 54.3344 89.9093 54.9999 90.0876C55.6655 90.266 55.9397 89.2343 55.2762 89.0565Z" fill="#C6C8CC"/>
<path d="M79.4574 97.5967C78.7939 97.419 78.5155 98.4495 79.1811 98.6279C79.8467 98.8062 80.1209 97.7745 79.4574 97.5967Z" fill="#C6C8CC"/>
<path d="M75.2057 107.548C74.5422 107.37 74.2638 108.4 74.9294 108.579C75.595 108.757 75.8691 107.725 75.2057 107.548Z" fill="#C6C8CC"/>
<path d="M79.8235 104.505C79.1601 104.327 78.8838 105.358 79.5472 105.536C80.2107 105.714 80.4891 104.683 79.8235 104.505Z" fill="#C6C8CC"/>
<path d="M63.7834 102.263C64.4469 102.441 64.7232 101.41 64.0597 101.232C63.3962 101.054 63.1178 102.085 63.7834 102.263Z" fill="#C6C8CC"/>
<path d="M56.812 99.29C56.1506 99.1128 55.8722 100.143 56.5357 100.321C57.1992 100.499 57.4776 99.4683 56.812 99.29Z" fill="#C6C8CC"/>
<path d="M48.3726 106.538C47.7091 106.36 47.4328 107.391 48.0963 107.569C48.7598 107.747 49.0361 106.716 48.3726 106.538Z" fill="#C6C8CC"/>
<path d="M45.7676 94.6661C45.1062 94.4889 44.8278 95.5195 45.4913 95.6973C46.1547 95.875 46.4331 94.8445 45.7676 94.6661Z" fill="#C6C8CC"/>
<path d="M46.8768 87.9066C46.2133 87.7288 45.9349 88.7593 46.6005 88.9377C47.2661 89.116 47.5318 88.0821 46.8768 87.9066Z" fill="#C6C8CC"/>
<path d="M68.9481 86.5374C68.2846 86.3596 68.0062 87.3901 68.6718 87.5685C69.3374 87.7468 69.6158 86.7163 68.9481 86.5374Z" fill="#C6C8CC"/>
<path d="M71.6502 93.6024C70.9867 93.4246 70.7104 94.4557 71.3739 94.6335C72.0374 94.8113 72.3158 93.7807 71.6502 93.6024Z" fill="#C6C8CC"/>
<path d="M66.9109 114.839C66.2475 114.661 65.9712 115.692 66.6346 115.87C67.2981 116.048 67.5765 115.017 66.9109 114.839Z" fill="#C6C8CC"/>
<path d="M60.0301 113.312C59.3667 113.134 59.0883 114.165 59.7538 114.343C60.4194 114.522 60.6936 113.49 60.0301 113.312Z" fill="#C6C8CC"/>
<path d="M52.3149 112.237C51.2352 111.948 50.7862 113.623 51.866 113.912C52.9457 114.202 53.3947 112.526 52.3149 112.237Z" fill="#C6C8CC"/>
<path d="M61.699 86.9684C61.0355 86.7906 60.7593 87.8217 61.4227 87.9995C62.0862 88.1773 62.3646 87.1467 61.699 86.9684Z" fill="#C6C8CC"/>
<path d="M68.5413 77.406C67.8778 77.2283 67.6015 78.2594 68.265 78.4372C68.9285 78.6149 69.2048 77.5838 68.5413 77.406Z" fill="#C6C8CC"/>
<path d="M72.6135 65.1673C73.2769 65.3451 73.5532 64.3139 72.8898 64.1362C72.2263 63.9584 71.9479 64.989 72.6135 65.1673Z" fill="#C6C8CC"/>
<path d="M78.1865 68.3206C78.8499 68.4983 79.1283 67.4678 78.4628 67.2894C77.7972 67.1111 77.523 68.1428 78.1865 68.3206Z" fill="#C6C8CC"/>
<path d="M79.4508 53.8485C78.7873 53.6707 78.5089 54.7012 79.1745 54.8796C79.8401 55.0579 80.1143 54.0262 79.4508 53.8485Z" fill="#C6C8CC"/>
<path d="M73.0756 57.5256C73.7391 57.7034 74.0175 56.6728 73.3519 56.4945C72.6863 56.3162 72.4122 57.3479 73.0756 57.5256Z" fill="#C6C8CC"/>
<path d="M81.8782 77.2951C80.7985 77.0058 80.3474 78.6808 81.4292 78.9707C82.5111 79.2605 82.9643 77.5861 81.8782 77.2951Z" fill="#C6C8CC"/>
<path d="M89.3226 78.5196C88.6591 78.3418 88.3828 79.373 89.0463 79.5508C89.7097 79.7285 89.9881 78.698 89.3226 78.5196Z" fill="#C6C8CC"/>
<path d="M78.4896 91.1505C77.8261 90.9727 77.5477 92.0032 78.2133 92.1816C78.8789 92.3599 79.1531 91.3282 78.4896 91.1505Z" fill="#C6C8CC"/>
<path d="M85.6609 92.7594C84.9975 92.5817 84.7212 93.6128 85.3846 93.7906C86.0481 93.9683 86.3308 92.9389 85.6609 92.7594Z" fill="#C6C8CC"/>
<path d="M89.5154 64.7841C88.854 64.6069 88.5756 65.6375 89.2391 65.8152C89.9026 65.993 90.181 64.9625 89.5154 64.7841Z" fill="#C6C8CC"/>
<path d="M90.0067 51.1262C89.3432 50.9484 89.0648 51.9789 89.7304 52.1573C90.396 52.3356 90.6702 51.3039 90.0067 51.1262Z" fill="#C6C8CC"/>
<path d="M57.2314 41.5377C57.8949 41.7155 58.1712 40.6844 57.5077 40.5066C56.8442 40.3288 56.5658 41.3594 57.2314 41.5377Z" fill="#C6C8CC"/>
<path d="M53.0196 57.8472C52.3562 57.6695 52.0778 58.7 52.7433 58.8784C53.4089 59.0567 53.6831 58.025 53.0196 57.8472Z" fill="#C6C8CC"/>
<path d="M45.1666 83.0142C44.5031 82.8364 44.2247 83.867 44.8903 84.0453C45.5559 84.2237 45.8301 83.192 45.1666 83.0142Z" fill="#C6C8CC"/>
<path d="M50.9186 72.8221C51.5821 72.9999 51.8584 71.9688 51.1949 71.791C50.5315 71.6132 50.2446 72.6415 50.9186 72.8221Z" fill="#C6C8CC"/>
<path d="M64.2971 52.4739C64.9606 52.6517 65.2369 51.6206 64.5734 51.4428C63.9099 51.265 63.621 52.2927 64.2971 52.4739Z" fill="#C6C8CC"/>
<path d="M91.3323 29.6137C90.6688 29.436 90.3931 30.465 91.0566 30.6428C91.7201 30.8205 91.9979 29.7921 91.3323 29.6137Z" fill="#C6C8CC"/>
<path d="M71.8108 37.9981C72.4743 38.1759 72.75 37.1469 72.0865 36.9691C71.4231 36.7913 71.1452 37.8198 71.8108 37.9981Z" fill="#C6C8CC"/>
<path d="M45.7565 99.736C44.5077 99.4014 43.9858 101.34 45.2367 101.676C46.4876 102.011 47.0137 100.073 45.7565 99.736Z" fill="#C6C8CC"/>
<path d="M54.7103 52.129C55.9591 52.4636 56.4815 50.5224 55.2306 50.1872C53.9798 49.8521 53.4595 51.7939 54.7103 52.129Z" fill="#C6C8CC"/>
<path d="M88.5503 71.3443C86.3655 70.7589 85.453 74.156 87.6399 74.7419C89.8268 75.3279 90.7393 71.9309 88.5503 71.3443Z" fill="#C6C8CC"/>
<path d="M48.8426 76.2337C46.6578 75.6483 45.7437 79.0427 47.9328 79.6292C50.1218 80.2158 51.0316 76.8202 48.8426 76.2337Z" fill="#C6C8CC"/>
<path d="M77.7028 31.9745C79.8876 32.5599 80.8022 29.1634 78.6132 28.5768C76.4242 27.9903 75.5138 31.3879 77.7028 31.9745Z" fill="#C6C8CC"/>
<path d="M72.5604 81.3388C71.3116 81.0041 70.7892 82.9454 72.0401 83.2806C73.291 83.6157 73.8113 81.6739 72.5604 81.3388Z" fill="#C6C8CC"/>
<path d="M72.4513 110.136C71.2025 109.802 70.6801 111.743 71.931 112.078C73.1818 112.413 73.7022 110.472 72.4513 110.136Z" fill="#C6C8CC"/>
<path d="M62.3402 33.112C63.589 33.4466 64.1109 31.5075 62.86 31.1723C61.6091 30.8371 61.0915 32.7774 62.3402 33.112Z" fill="#C6C8CC"/>
<path d="M83.4708 86.7599C82.222 86.4253 81.7002 88.3644 82.9511 88.6996C84.2019 89.0348 84.7196 87.0945 83.4708 86.7599Z" fill="#C6C8CC"/>
<path d="M93.6339 36.4062C92.3851 36.0716 91.8627 38.0128 93.1136 38.348C94.3645 38.6832 94.8848 36.7414 93.6339 36.4062Z" fill="#C6C8CC"/>
<path d="M78.6014 62.3352C79.8501 62.6698 80.3726 60.7285 79.1217 60.3934C77.8708 60.0582 77.3526 62.0006 78.6014 62.3352Z" fill="#C6C8CC"/>
<path d="M86.7069 100.638L101.937 43.7988C101.948 43.7576 101.954 43.7151 101.955 43.6723L101.95 43.6303L101.946 43.6022C101.939 43.5462 101.922 43.492 101.897 43.4416L87.6894 16.8047C87.6628 16.7566 87.6286 16.713 87.5881 16.6756L87.5712 16.6711C87.5298 16.6346 87.4826 16.6051 87.4316 16.5839C87.382 16.5617 87.3292 16.5475 87.2752 16.542L87.252 16.5357L87.2308 16.5301C87.1837 16.5326 87.1372 16.5414 87.0924 16.5564L87.0798 16.553L72.8633 21.4763C72.8542 21.4786 72.8455 21.4824 72.8376 21.4875L72.7858 21.5121L72.7676 21.5208L55.9972 31.5211C55.9813 31.5309 55.9662 31.542 55.9521 31.5543C55.9399 31.5633 55.9282 31.573 55.9171 31.5834C55.9137 31.5961 55.895 31.6069 55.8826 31.6195C55.8701 31.632 55.8598 31.6451 55.849 31.6603L55.8399 31.6941C55.8302 31.7093 55.8215 31.7251 55.8137 31.7414C55.8081 31.758 55.8035 31.7749 55.8001 31.7921C55.7964 31.8017 55.7938 31.8116 55.7921 31.8217L39.9882 90.8029C39.9785 90.8408 39.9734 90.8798 39.9729 90.9189C39.9729 90.9189 39.9673 90.94 39.9645 90.9506C39.9656 90.9778 39.9682 91.0049 39.9721 91.0319C39.9721 91.0319 39.9721 91.0319 39.9681 91.0467L44.1795 109.889C44.203 109.992 44.2569 110.086 44.3342 110.157L57.514 122.541L57.5372 122.548C57.5494 122.559 57.5625 122.569 57.5765 122.578L57.5934 122.583L57.6201 122.601C57.6574 122.622 57.6973 122.638 57.7387 122.649C57.7859 122.662 57.8349 122.668 57.8838 122.665L57.9318 122.656C57.9595 122.654 57.9871 122.65 58.0142 122.644L58.0248 122.647L74.9204 116.709C75.0197 116.674 75.1062 116.611 75.1687 116.526L86.6265 100.811C86.6591 100.763 86.6839 100.71 86.7002 100.654C86.7002 100.654 86.7057 100.642 86.7069 100.638ZM56.5774 32.8044L63.502 37.5065L48.7369 92.6104L41.1006 90.5643L56.5774 32.8044ZM86.7314 17.7686L87.5872 43.0406L64.8897 36.9589L73.3854 22.393L86.7314 17.7686ZM49.7588 92.8027L64.4644 37.9206L87.4957 44.0918L72.5755 99.7748L49.7588 92.8027ZM88.6387 43.2069L87.8274 19.2649L100.573 43.1503L88.6387 43.2069ZM63.9272 36.5447L57.2203 31.9938L71.562 23.4421L63.9272 36.5447ZM72.0942 100.726L58.0475 120.981L49.906 93.9269L72.0942 100.726ZM88.52 44.2417L100.759 44.1876L85.8089 99.9825L73.6141 99.9217L88.52 44.2417ZM41.1571 91.6551L48.7469 93.6888L56.8035 120.46L45.1453 109.505L41.1571 91.6551ZM74.4255 115.783L59.2011 121.139L73.2136 100.96L85.1998 101.022L74.4255 115.783Z" fill="#C6C8CC"/>
</g>
<defs>
<clipPath id="clip0">
<rect width="112" height="112" fill="white" transform="translate(28.9878) rotate(15)"/>
</clipPath>
</defs>
</svg>
