<svg width="116" height="116" viewBox="0 0 116 116" fill="none" xmlns="http://www.w3.org/2000/svg">
<path d="M34.6586 38.2504C33.3745 38.2504 33.3723 40.2454 34.6586 40.2454C35.9448 40.2454 35.9448 38.2504 34.6586 38.2504Z" fill="#C6C8CC"/>
<path d="M85.4479 51.3907C84.1661 51.3907 84.1639 53.3836 85.4479 53.3836C86.732 53.3836 86.7342 51.3907 85.4479 51.3907Z" fill="#C6C8CC"/>
<path d="M30.791 66.3882C29.5069 66.3882 29.5069 68.3832 30.791 68.3832C32.0751 68.3832 32.0772 66.3882 30.791 66.3882Z" fill="#C6C8CC"/>
<path d="M66.5544 47.941L67.3485 48.5075C67.3785 48.5284 67.401 48.5584 67.4124 48.5932C67.4238 48.6279 67.4237 48.6654 67.4119 48.7L67.1188 49.6297C67.1082 49.6644 67.1088 49.7015 67.1204 49.7358C67.1321 49.7701 67.1542 49.7999 67.1837 49.8209C67.2132 49.842 67.2486 49.8532 67.2849 49.8531C67.3211 49.8529 67.3564 49.8413 67.3857 49.82L68.171 49.2403C68.2007 49.2191 68.2362 49.2077 68.2727 49.2077C68.3092 49.2077 68.3447 49.2191 68.3744 49.2403L69.1663 49.8069C69.1959 49.8281 69.2315 49.8394 69.268 49.8392C69.3045 49.8389 69.3399 49.8272 69.3693 49.8056C69.3986 49.784 69.4204 49.7536 69.4315 49.7189C69.4426 49.6842 69.4424 49.6468 69.431 49.6122L69.1226 48.6869C69.1108 48.6521 69.1104 48.6145 69.1214 48.5795C69.1324 48.5445 69.1542 48.514 69.1838 48.4922L69.9691 47.9125C69.998 47.8906 70.0193 47.8602 70.03 47.8255C70.0407 47.7909 70.0402 47.7537 70.0286 47.7194C70.0169 47.685 69.9948 47.6552 69.9653 47.6341C69.9358 47.613 69.9004 47.6017 69.8641 47.6019H68.8885C68.8523 47.6016 68.8171 47.5901 68.7877 47.5689C68.7583 47.5478 68.7362 47.518 68.7244 47.4838L68.416 46.5585C68.4046 46.524 68.3826 46.4939 68.3531 46.4727C68.3237 46.4514 68.2883 46.4399 68.2519 46.4399C68.2156 46.4399 68.1802 46.4514 68.1507 46.4727C68.1213 46.4939 68.0993 46.524 68.0879 46.5585L67.7926 47.4881C67.7819 47.5228 67.7604 47.5531 67.7313 47.5748C67.7022 47.5964 67.6669 47.6082 67.6307 47.6085H66.6551C66.613 47.6012 66.5697 47.6095 66.5333 47.6319C66.4969 47.6544 66.47 47.6893 66.4577 47.7302C66.4453 47.7711 66.4483 47.8151 66.4661 47.8539C66.4839 47.8927 66.5154 47.9237 66.5544 47.941Z" fill="#C6C8CC"/>
<path d="M76.0263 76.9232H75.0507C75.0141 76.9234 74.9784 76.9121 74.9486 76.8909C74.9187 76.8697 74.8963 76.8397 74.8844 76.8051L74.576 75.8798C74.5646 75.8453 74.5426 75.8153 74.5131 75.794C74.4837 75.7727 74.4483 75.7613 74.4119 75.7613C74.3756 75.7613 74.3402 75.7727 74.3107 75.794C74.2813 75.8153 74.2593 75.8453 74.2479 75.8798L73.9526 76.8095C73.9422 76.8443 73.9208 76.8749 73.8916 76.8966C73.8624 76.9183 73.827 76.9299 73.7907 76.9298H72.8151C72.7788 76.9304 72.7436 76.9424 72.7145 76.9641C72.6855 76.9858 72.6639 77.0161 72.6531 77.0507C72.6422 77.0853 72.6424 77.1225 72.6538 77.1569C72.6653 77.1914 72.6872 77.2214 72.7166 77.2426L73.5085 77.8092C73.5381 77.8304 73.5604 77.8604 73.5721 77.8949C73.5839 77.9294 73.5846 77.9668 73.5741 78.0017L73.2788 78.9314C73.2675 78.9662 73.2675 79.0037 73.2789 79.0385C73.2903 79.0732 73.3124 79.1035 73.3421 79.1249C73.3717 79.1463 73.4075 79.1577 73.444 79.1576C73.4806 79.1574 73.5162 79.1456 73.5457 79.1239L74.331 78.5442C74.3604 78.5223 74.3961 78.5106 74.4327 78.5106C74.4694 78.5106 74.505 78.5223 74.5344 78.5442L75.3285 79.1107C75.3579 79.1327 75.3936 79.1445 75.4303 79.1446C75.467 79.1446 75.5027 79.1329 75.5321 79.111C75.5616 79.0892 75.5832 79.0584 75.5938 79.0233C75.6044 78.9882 75.6034 78.9506 75.591 78.9161L75.2826 77.9908C75.2713 77.9563 75.2711 77.9192 75.2821 77.8846C75.2931 77.8501 75.3147 77.8199 75.3438 77.7982L76.1291 77.2186C76.1525 77.1956 76.169 77.1665 76.1764 77.1346C76.1839 77.1026 76.1822 77.0693 76.1714 77.0383C76.1606 77.0073 76.1413 76.9801 76.1156 76.9597C76.0899 76.9393 76.0589 76.9267 76.0263 76.9232Z" fill="#C6C8CC"/>
<path d="M48.4091 69.5929H47.4335C47.397 69.5937 47.3614 69.5825 47.3318 69.5612C47.3022 69.5399 47.2803 69.5096 47.2694 69.4748L46.961 68.5495C46.949 68.5153 46.9267 68.4856 46.8971 68.4646C46.8675 68.4436 46.8321 68.4324 46.7958 68.4324C46.7596 68.4324 46.7242 68.4436 46.6946 68.4646C46.665 68.4856 46.6427 68.5153 46.6307 68.5495L46.3376 69.4792C46.3262 69.5141 46.3044 69.5446 46.275 69.5665C46.2456 69.5885 46.2102 69.6008 46.1735 69.6017H45.1979C45.1616 69.6023 45.1264 69.6143 45.0973 69.636C45.0683 69.6577 45.0468 69.688 45.0359 69.7226C45.025 69.7572 45.0252 69.7944 45.0367 69.8288C45.0481 69.8633 45.07 69.8932 45.0994 69.9145L45.8935 70.4811C45.9233 70.5022 45.9455 70.5322 45.9569 70.5669C45.9683 70.6015 45.9683 70.6389 45.9569 70.6736L45.6638 71.6055C45.6532 71.6401 45.6538 71.6772 45.6654 71.7115C45.6771 71.7459 45.6992 71.7756 45.7287 71.7967C45.7582 71.8177 45.7936 71.829 45.8299 71.8288C45.8661 71.8286 45.9014 71.8171 45.9307 71.7958L46.716 71.2161C46.7452 71.1947 46.7804 71.1832 46.8166 71.1832C46.8528 71.1832 46.888 71.1947 46.9172 71.2161L47.7113 71.7848C47.7411 71.8065 47.777 71.818 47.8138 71.8178C47.8507 71.8176 47.8865 71.8056 47.916 71.7837C47.9456 71.7617 47.9673 71.7309 47.9781 71.6956C47.9889 71.6604 47.9881 71.6227 47.976 71.588L47.6676 70.6626C47.6556 70.6282 47.6551 70.5909 47.6661 70.5562C47.6772 70.5215 47.6992 70.4913 47.7288 70.4701L48.5119 69.8904C48.536 69.8676 48.553 69.8383 48.5609 69.8061C48.5688 69.7738 48.5672 69.74 48.5564 69.7086C48.5455 69.6772 48.5259 69.6496 48.4998 69.6291C48.4736 69.6086 48.4422 69.596 48.4091 69.5929Z" fill="#C6C8CC"/>
<path d="M83.1664 63.9666L80.8739 63.7304L80.4167 59.1169C80.4091 59.04 80.373 58.9686 80.3156 58.9168C80.2581 58.865 80.1834 58.8365 80.1061 58.8369C80.0289 58.837 79.9544 58.8657 79.8971 58.9174C79.8397 58.9691 79.8035 59.0401 79.7954 59.1169L79.3404 63.7413L77.0545 63.9666C76.9785 63.9757 76.9084 64.0123 76.8576 64.0695C76.8067 64.1268 76.7786 64.2007 76.7786 64.2772C76.7786 64.3538 76.8067 64.4277 76.8576 64.485C76.9084 64.5422 76.9785 64.5788 77.0545 64.5879L79.3492 64.8263L79.8042 68.9388C79.8128 69.0146 79.849 69.0846 79.9059 69.1354C79.9627 69.1863 80.0363 69.2144 80.1126 69.2144C80.1893 69.2143 80.2631 69.1859 80.3201 69.1346C80.377 69.0833 80.413 69.0128 80.4211 68.9366L80.8761 64.8263L83.1795 64.5857C83.2555 64.5766 83.3256 64.54 83.3765 64.4828C83.4273 64.4255 83.4554 64.3516 83.4554 64.275C83.4554 64.1985 83.4273 64.1246 83.3765 64.0673C83.3256 64.0101 83.2555 63.9735 83.1795 63.9644L83.1664 63.9666Z" fill="#C6C8CC"/>
<path d="M45.8016 46.1801C45.802 46.1028 45.7735 46.0281 45.7217 45.9706C45.67 45.9132 45.5986 45.8771 45.5216 45.8695L43.2291 45.6311L42.7719 41.0067C42.7643 40.9297 42.7283 40.8584 42.6708 40.8066C42.6134 40.7548 42.5387 40.7263 42.4613 40.7267C42.3838 40.7269 42.3091 40.7558 42.2517 40.808C42.1943 40.8601 42.1583 40.9317 42.1507 41.0089L41.6957 45.6311L39.401 45.8695C39.3234 45.876 39.2511 45.9115 39.1984 45.9688C39.1457 46.0261 39.1164 46.1012 39.1164 46.179C39.1164 46.2569 39.1457 46.3319 39.1984 46.3893C39.2511 46.4466 39.3234 46.482 39.401 46.4886L41.6979 46.727L42.1507 50.8395C42.1598 50.9157 42.1963 50.986 42.2535 51.0371C42.3107 51.0883 42.3846 51.1168 42.4613 51.1173C42.5379 51.1172 42.6118 51.0888 42.6688 51.0375C42.7257 50.9862 42.7617 50.9157 42.7698 50.8395L43.2248 46.7292L45.5194 46.4908C45.597 46.4841 45.6692 46.4484 45.7215 46.3908C45.7738 46.3332 45.8025 46.258 45.8016 46.1801Z" fill="#C6C8CC"/>
<path d="M68.3045 67.3856C65.5679 67.3856 65.5635 71.6381 68.3045 71.6381C71.0454 71.6381 71.041 67.3856 68.3045 67.3856Z" fill="#C6C8CC"/>
<path d="M45.4845 35.8464C48.2188 35.8464 48.2232 31.5939 45.4845 31.5939C42.7457 31.5939 42.7435 35.8464 45.4845 35.8464Z" fill="#C6C8CC"/>
<path d="M71.8482 34.3151C69.9472 34.3151 69.9429 37.2704 71.8482 37.2704C73.7535 37.2704 73.7535 34.3151 71.8482 34.3151Z" fill="#C6C8CC"/>
<path d="M38.9132 65.3163C40.8142 65.3163 40.8164 62.3588 38.9132 62.3588C37.0101 62.3588 37.0079 65.3163 38.9132 65.3163Z" fill="#C6C8CC"/>
<path d="M75.3569 48.4201L77.2491 49.1245C77.2742 49.1346 77.2967 49.1503 77.3149 49.1704C77.3331 49.1905 77.3465 49.2144 77.3541 49.2404L78.0104 51.7057C78.0222 51.7681 78.0557 51.8242 78.105 51.8642C78.1542 51.9043 78.216 51.9256 78.2794 51.9245H78.3013C78.3648 51.9256 78.4265 51.9043 78.4758 51.8642C78.525 51.8242 78.5585 51.7681 78.5704 51.7057L79.2266 49.2404C79.2342 49.2144 79.2476 49.1905 79.2658 49.1704C79.284 49.1503 79.3065 49.1346 79.3316 49.1245L81.2107 48.4201C81.2745 48.4101 81.3327 48.3776 81.3748 48.3285C81.4168 48.2793 81.4399 48.2168 81.4399 48.1521C81.4399 48.0875 81.4168 48.025 81.3748 47.9758C81.3327 47.9267 81.2745 47.8942 81.2107 47.8842L79.3185 47.1776C79.2932 47.1678 79.2705 47.1522 79.2523 47.132C79.2341 47.1119 79.2208 47.0878 79.2135 47.0617L78.5572 44.5986C78.5454 44.5362 78.5119 44.4801 78.4627 44.4401C78.4134 44.4 78.3516 44.3787 78.2882 44.3798H78.2663C78.2029 44.3787 78.1411 44.4 78.0918 44.4401C78.0426 44.4801 78.0091 44.5362 77.9972 44.5986L77.341 47.0617C77.3337 47.0878 77.3204 47.1119 77.3022 47.132C77.2839 47.1522 77.2613 47.1678 77.236 47.1776L75.3438 47.8842C75.2799 47.8942 75.2218 47.9267 75.1797 47.9758C75.1377 48.025 75.1146 48.0875 75.1146 48.1521C75.1146 48.2168 75.1377 48.2793 75.1797 48.3285C75.2218 48.3776 75.2799 48.4101 75.3438 48.4201H75.3569Z" fill="#C6C8CC"/>
<path d="M42.0544 76.5142L40.1644 75.8098C40.1389 75.8004 40.116 75.785 40.0977 75.7648C40.0794 75.7446 40.0663 75.7203 40.0594 75.6939L39.4032 73.2308C39.3946 73.1658 39.3624 73.1063 39.3128 73.0636C39.2632 73.0208 39.1996 72.9978 39.1341 72.9989H39.1123C39.0471 72.9983 38.9841 73.0216 38.9349 73.0643C38.8858 73.107 38.8539 73.1662 38.8454 73.2308L38.1891 75.6939C38.1823 75.7203 38.1692 75.7446 38.1509 75.7648C38.1326 75.785 38.1097 75.8004 38.0841 75.8098L36.1941 76.5142C36.1311 76.5256 36.074 76.5588 36.033 76.608C35.9919 76.6572 35.9694 76.7192 35.9694 76.7833C35.9694 76.8473 35.9919 76.9094 36.033 76.9585C36.074 77.0077 36.1311 77.0409 36.1941 77.0523L38.0841 77.7567C38.1099 77.7658 38.133 77.7811 38.1513 77.8014C38.1697 77.8216 38.1827 77.8461 38.1891 77.8726L38.8454 80.3358C38.8539 80.4003 38.8858 80.4595 38.9349 80.5022C38.9841 80.5449 39.0471 80.5682 39.1123 80.5676H39.1341C39.1996 80.5687 39.2632 80.5457 39.3128 80.503C39.3624 80.4602 39.3946 80.4007 39.4032 80.3358L40.0594 77.8726C40.0659 77.8461 40.0789 77.8216 40.0972 77.8014C40.1156 77.7811 40.1387 77.7658 40.1644 77.7567L42.0544 77.0545C42.1175 77.0431 42.1745 77.0099 42.2156 76.9607C42.2567 76.9116 42.2792 76.8495 42.2792 76.7854C42.2792 76.7214 42.2567 76.6593 42.2156 76.6102C42.1745 76.561 42.1175 76.5278 42.0544 76.5164V76.5142Z" fill="#C6C8CC"/>
<path d="M34.4288 53.5738L32.5388 52.8695C32.5132 52.8601 32.4903 52.8446 32.472 52.8244C32.4537 52.8042 32.4406 52.7799 32.4338 52.7535L31.7775 50.2904C31.769 50.2255 31.7368 50.1659 31.6872 50.1232C31.6376 50.0804 31.574 50.0574 31.5085 50.0585H31.4888C31.4233 50.0574 31.3597 50.0804 31.3101 50.1232C31.2605 50.1659 31.2283 50.2255 31.2197 50.2904L30.5635 52.7535C30.5567 52.7799 30.5435 52.8042 30.5253 52.8244C30.507 52.8446 30.4841 52.8601 30.4585 52.8695L28.5685 53.5738C28.5054 53.5852 28.4484 53.6184 28.4073 53.6676C28.3663 53.7168 28.3438 53.7788 28.3438 53.8429C28.3438 53.907 28.3663 53.969 28.4073 54.0182C28.4484 54.0673 28.5054 54.1005 28.5685 54.112L30.4585 54.8163C30.4841 54.8257 30.507 54.8412 30.5253 54.8614C30.5435 54.8816 30.5567 54.9059 30.5635 54.9323L31.2197 57.3954C31.2283 57.4603 31.2605 57.5198 31.3101 57.5626C31.3597 57.6054 31.4233 57.6284 31.4888 57.6273H31.5085C31.574 57.6284 31.6376 57.6054 31.6872 57.5626C31.7368 57.5198 31.769 57.4603 31.7775 57.3954L32.4338 54.9323C32.4406 54.9059 32.4537 54.8816 32.472 54.8614C32.4903 54.8412 32.5132 54.8257 32.5388 54.8163L34.4288 54.112C34.4918 54.1005 34.5489 54.0673 34.5899 54.0182C34.631 53.969 34.6535 53.907 34.6535 53.8429C34.6535 53.7788 34.631 53.7168 34.5899 53.6676C34.5489 53.6184 34.4918 53.5852 34.4288 53.5738Z" fill="#C6C8CC"/>
<path d="M57.5529 24.176C39.191 24.176 24.2526 39.1144 24.2526 57.4763C24.2526 75.8382 39.191 90.7766 57.5529 90.7766C75.9148 90.7766 90.8532 75.8382 90.8532 57.4763C90.8532 39.1144 75.9148 24.176 57.5529 24.176ZM57.5529 89.7441C39.7598 89.7441 25.2851 75.2694 25.2851 57.4763C25.2851 39.6832 39.7598 25.2107 57.5529 25.2107C75.346 25.2107 89.8207 39.6832 89.8207 57.4763C89.8207 75.2694 75.346 89.7419 57.5529 89.7419V89.7441Z" fill="#C6C8CC"/>
<path d="M56.8266 36.8833C56.8861 36.9676 56.9647 37.0367 57.0559 37.085C57.1471 37.1332 57.2484 37.1593 57.3516 37.1611H57.3669C57.4679 37.1615 57.5676 37.1386 57.6583 37.0942C57.749 37.0499 57.8282 36.9851 57.8898 36.9051L62.2013 31.3358C62.2794 31.2387 62.3282 31.1214 62.3421 30.9977C62.356 30.8739 62.3344 30.7487 62.2798 30.6368C62.2252 30.5248 62.1399 30.4307 62.0338 30.3655C61.9277 30.3002 61.8052 30.2665 61.6807 30.2683H53.4097C53.2879 30.2667 53.168 30.2991 53.0635 30.3619C52.959 30.4247 52.8741 30.5153 52.8182 30.6237C52.7623 30.732 52.7377 30.8537 52.7472 30.9753C52.7566 31.0968 52.7997 31.2133 52.8716 31.3117L56.8266 36.8833ZM60.9238 31.3073L57.3779 35.8792L54.1294 31.3073H60.9238Z" fill="#C6C8CC"/>
<path d="M61.6807 80.2766H53.4098C53.2875 80.2747 53.1672 80.3071 53.0623 80.3699C52.9575 80.4328 52.8723 80.5237 52.8163 80.6324C52.7604 80.7411 52.7359 80.8633 52.7457 80.9852C52.7555 81.1071 52.7991 81.2238 52.8716 81.3222L56.8266 86.885C56.8868 86.9687 56.9654 87.0374 57.0565 87.0856C57.1476 87.1338 57.2486 87.1602 57.3516 87.1628H57.367C57.4679 87.1632 57.5676 87.1404 57.6583 87.096C57.749 87.0516 57.8282 86.9869 57.8898 86.9069L62.2035 81.3441C62.2816 81.247 62.3304 81.1297 62.3443 81.006C62.3582 80.8822 62.3366 80.757 62.282 80.6451C62.2274 80.5331 62.1421 80.439 62.036 80.3738C61.9299 80.3085 61.8074 80.2748 61.6829 80.2766H61.6807ZM57.3779 85.8809L54.1295 81.3091H60.9238L57.3779 85.8809Z" fill="#C6C8CC"/>
<path d="M71.6185 58.2419C66.9329 53.5257 62.1817 51.1348 57.4939 51.1348H57.4348C52.7645 51.1545 48.0723 53.541 43.4829 58.2441C43.4012 58.3858 43.3581 58.5465 43.3581 58.7101C43.3581 58.8737 43.4012 59.0343 43.4829 59.176C48.0767 63.8748 52.7645 66.2679 57.4348 66.2876H57.4939C62.1817 66.2876 66.9329 63.8966 71.6185 59.1804C71.7031 59.0385 71.7478 58.8764 71.7478 58.7112C71.7478 58.546 71.7031 58.3839 71.6185 58.2419ZM57.4917 65.2638H57.4392C53.1429 65.2463 48.7832 63.0413 44.4783 58.7188C48.7832 54.3985 53.1429 52.1935 57.4392 52.1738H57.4917C61.8098 52.1738 66.2242 54.381 70.6167 58.7188C66.2242 63.0544 61.8098 65.2638 57.4917 65.2638Z" fill="#C6C8CC"/>
<path d="M57.5529 55.5206C56.9204 55.5206 56.3021 55.7082 55.7761 56.0596C55.2502 56.411 54.8403 56.9105 54.5982 57.4949C54.3562 58.0793 54.2928 58.7223 54.4162 59.3427C54.5396 59.963 54.8442 60.5329 55.2915 60.9802C55.7388 61.4274 56.3086 61.732 56.929 61.8554C57.5494 61.9788 58.1924 61.9155 58.7768 61.6734C59.3612 61.4314 59.8606 61.0215 60.2121 60.4955C60.5635 59.9696 60.751 59.3513 60.751 58.7187C60.7499 57.8709 60.4126 57.0581 59.8131 56.4586C59.2135 55.8591 58.4008 55.5218 57.5529 55.5206ZM57.5529 60.8866C57.1241 60.887 56.7047 60.7602 56.3479 60.5223C55.9912 60.2843 55.713 59.9459 55.5486 59.5499C55.3841 59.1538 55.3409 58.7178 55.4243 58.2972C55.5077 57.8765 55.714 57.49 56.0171 57.1867C56.3202 56.8833 56.7064 56.6766 57.127 56.5928C57.5476 56.5089 57.9836 56.5517 58.3798 56.7157C58.776 56.8798 59.1147 57.1576 59.353 57.5142C59.5913 57.8707 59.7185 58.2899 59.7185 58.7187C59.718 59.2931 59.4897 59.8439 59.0837 60.2502C58.6778 60.6566 58.1273 60.8854 57.5529 60.8866Z" fill="#C6C8CC"/>
<path d="M57.2532 46.2807C58.4174 46.3265 59.5764 46.1029 60.64 45.6275C61.7036 45.1521 62.6432 44.4376 63.3855 43.5396C64.1279 42.6417 64.653 41.5846 64.92 40.4505C65.1869 39.3165 65.1886 38.1361 64.9248 37.0013C64.9159 36.9796 64.9008 36.961 64.8813 36.9479C64.8618 36.9348 64.8389 36.9278 64.8154 36.9278C64.7919 36.9278 64.769 36.9348 64.7495 36.9479C64.73 36.961 64.7149 36.9796 64.706 37.0013C64.1879 38.4829 63.2219 39.7667 61.9419 40.675C60.6619 41.5834 59.1312 42.0713 57.5617 42.0713C55.9921 42.0713 54.4614 41.5834 53.1814 40.675C51.9014 39.7667 50.9355 38.4829 50.4173 37.0013C50.4084 36.9772 50.3919 36.9565 50.3704 36.9424C50.3488 36.9283 50.3233 36.9215 50.2976 36.923C50.2719 36.9245 50.2473 36.9341 50.2275 36.9506C50.2077 36.9671 50.1937 36.9895 50.1876 37.0145C49.9359 38.0997 49.9269 39.2272 50.1612 40.3164C50.3955 41.4055 50.8674 42.4295 51.5432 43.3153C52.2189 44.201 53.0819 44.9267 54.0704 45.4404C55.059 45.9541 56.1488 46.2433 57.262 46.2873L57.2532 46.2807Z" fill="#C6C8CC"/>
<path d="M57.8504 71.1482C56.6862 71.1027 55.5273 71.3265 54.4637 71.8022C53.4002 72.2779 52.4607 72.9927 51.7186 73.8908C50.9765 74.7889 50.4516 75.8462 50.1849 76.9804C49.9183 78.1146 49.9169 79.295 50.1811 80.4297C50.1899 80.4514 50.2051 80.47 50.2246 80.4831C50.244 80.4962 50.267 80.5032 50.2904 80.5032C50.3139 80.5032 50.3369 80.4962 50.3563 80.4831C50.3758 80.47 50.391 80.4514 50.3998 80.4297C50.918 78.9482 51.8839 77.6644 53.1639 76.756C54.4439 75.8477 55.9747 75.3598 57.5442 75.3598C59.1137 75.3598 60.6445 75.8477 61.9245 76.756C63.2044 77.6644 64.1704 78.9482 64.6886 80.4297C64.6959 80.4553 64.7117 80.4777 64.7333 80.4932C64.7549 80.5087 64.7812 80.5164 64.8077 80.5152C64.8343 80.5139 64.8597 80.5037 64.8798 80.4862C64.8998 80.4687 64.9134 80.4449 64.9183 80.4188C65.1691 79.3342 65.1777 78.2077 64.9434 77.1194C64.7091 76.0311 64.2377 75.0079 63.5628 74.1227C62.8879 73.2374 62.026 72.5119 61.0387 71.9977C60.0513 71.4836 58.9627 71.1935 57.8504 71.1482Z" fill="#C6C8CC"/>
<path d="M20.3217 55.4398C20.4536 55.4369 20.5794 55.3837 20.6733 55.2909C20.7672 55.1982 20.822 55.073 20.8265 54.9412C20.8309 54.8093 20.7847 54.6807 20.6974 54.5818C20.61 54.4829 20.4881 54.4212 20.3567 54.4095L3.52603 53.2741C3.3894 53.2649 3.25468 53.3102 3.15151 53.4003C3.04833 53.4903 2.98516 53.6177 2.97587 53.7543C2.96659 53.8909 3.01196 54.0256 3.10201 54.1288C3.19206 54.232 3.3194 54.2952 3.45603 54.3045L20.2867 55.4376L20.3217 55.4398Z" fill="#C6C8CC"/>
<path d="M19.3285 52.3467L20.5491 52.5238H20.6257C20.7549 52.522 20.8786 52.4718 20.9726 52.3831C21.0666 52.2945 21.1239 52.1738 21.1332 52.045C21.1426 51.9161 21.1033 51.7885 21.0231 51.6872C20.9429 51.5859 20.8276 51.5184 20.7001 51.4979L19.4772 51.3185C19.343 51.3014 19.2074 51.3377 19.0997 51.4196C18.9919 51.5014 18.9206 51.6223 18.9011 51.7563C18.8816 51.8902 18.9155 52.0264 18.9954 52.1356C19.0753 52.2448 19.195 52.3182 19.3285 52.3401V52.3467Z" fill="#C6C8CC"/>
<path d="M12.3548 50.2817C12.2193 50.2617 12.0814 50.2963 11.9715 50.3779C11.8615 50.4595 11.7885 50.5815 11.7685 50.717C11.7485 50.8524 11.7831 50.9903 11.8647 51.1003C11.9464 51.2102 12.0683 51.2832 12.2038 51.3032L16.6751 51.9595C16.7005 51.9616 16.7262 51.9616 16.7516 51.9595C16.8834 51.9615 17.011 51.913 17.1082 51.8239C17.2053 51.7348 17.2648 51.612 17.2743 51.4805C17.2838 51.3491 17.2427 51.2189 17.1593 51.1168C17.076 51.0147 16.9567 50.9484 16.826 50.9314L12.3548 50.2817Z" fill="#C6C8CC"/>
<path d="M6.62792 50.4872L9.16761 50.8591H9.24198C9.37116 50.8572 9.49495 50.807 9.58891 50.7184C9.68288 50.6297 9.74019 50.5091 9.74953 50.3802C9.75887 50.2514 9.71956 50.1237 9.63937 50.0224C9.55917 49.9211 9.44392 49.8536 9.31636 49.8331L6.77667 49.4613C6.709 49.4502 6.6398 49.4527 6.57311 49.4686C6.50642 49.4846 6.44358 49.5136 6.38825 49.5541C6.33292 49.5946 6.28621 49.6458 6.25085 49.7045C6.21549 49.7633 6.19219 49.8285 6.18231 49.8963C6.17243 49.9642 6.17617 50.0333 6.1933 50.0997C6.21044 50.1661 6.24063 50.2284 6.28211 50.283C6.3236 50.3376 6.37554 50.3834 6.43491 50.4177C6.49429 50.452 6.5599 50.4742 6.62792 50.4828V50.4872Z" fill="#C6C8CC"/>
<path d="M21.1682 49.6626C21.2949 49.6621 21.417 49.6151 21.5112 49.5304C21.6055 49.4458 21.6653 49.3295 21.6794 49.2036C21.6934 49.0777 21.6607 48.951 21.5874 48.8477C21.5141 48.7444 21.4054 48.6716 21.282 48.6432L10.7338 46.2369C10.6047 46.2186 10.4735 46.2498 10.3664 46.3243C10.2594 46.3987 10.1845 46.511 10.1568 46.6384C10.1291 46.7658 10.1506 46.899 10.2171 47.0112C10.2836 47.1234 10.39 47.2063 10.5151 47.2432L21.0654 49.6494C21.0991 49.6573 21.1336 49.6617 21.1682 49.6626Z" fill="#C6C8CC"/>
<path d="M22.4085 46.4797C22.4302 46.4144 22.4386 46.3454 22.4332 46.2768C22.4278 46.2082 22.4088 46.1414 22.3772 46.0802C22.3456 46.0191 22.3021 45.9649 22.2493 45.9208C22.1964 45.8767 22.1353 45.8436 22.0695 45.8235L20.4573 45.3357C20.3918 45.312 20.3222 45.3019 20.2526 45.3059C20.1831 45.3099 20.1151 45.3279 20.0527 45.3588C19.9903 45.3898 19.9348 45.433 19.8896 45.486C19.8444 45.5389 19.8103 45.6005 19.7895 45.6669C19.7687 45.7334 19.7615 45.8034 19.7684 45.8727C19.7754 45.942 19.7962 46.0092 19.8298 46.0702C19.8634 46.1312 19.909 46.1848 19.9638 46.2277C20.0186 46.2707 20.0816 46.3021 20.1489 46.3201L21.7632 46.8232C21.8126 46.8397 21.8643 46.8478 21.9164 46.8472C22.0268 46.8464 22.1342 46.8103 22.2227 46.7442C22.3113 46.6781 22.3764 46.5855 22.4085 46.4797Z" fill="#C6C8CC"/>
<path d="M16.2813 45.1038C16.3314 45.1204 16.3839 45.1285 16.4366 45.1279C16.5597 45.1273 16.6784 45.0827 16.7715 45.0023C16.8646 44.9218 16.9259 44.8108 16.9444 44.6892C16.9629 44.5675 16.9373 44.4433 16.8723 44.3388C16.8073 44.2344 16.7071 44.1566 16.5898 44.1195L12.6698 42.8945C12.6043 42.8708 12.5346 42.8607 12.4651 42.8647C12.3956 42.8687 12.3276 42.8867 12.2652 42.9176C12.2028 42.9486 12.1473 42.9918 12.1021 43.0448C12.0568 43.0977 12.0228 43.1593 12.002 43.2257C11.9811 43.2922 11.974 43.3622 11.9809 43.4315C11.9878 43.5008 12.0087 43.5679 12.0423 43.629C12.0759 43.69 12.1214 43.7436 12.1763 43.7865C12.2311 43.8295 12.294 43.8609 12.3613 43.8788L16.2813 45.1038Z" fill="#C6C8CC"/>
<path d="M22.9073 44.0954C23.0275 44.0963 23.1442 44.055 23.2372 43.9788C23.3301 43.9025 23.3934 43.7961 23.4161 43.6781C23.4387 43.56 23.4192 43.4377 23.361 43.3325C23.3028 43.2273 23.2096 43.1458 23.0976 43.1022L19.1995 41.536C19.0752 41.4965 18.9406 41.5055 18.8227 41.5611C18.7048 41.6168 18.6123 41.715 18.5638 41.836C18.5154 41.9571 18.5145 42.092 18.5614 42.2137C18.6083 42.3353 18.6995 42.4347 18.8166 42.4919L22.7148 44.056C22.7757 44.0819 22.8411 44.0952 22.9073 44.0954Z" fill="#C6C8CC"/>
<path d="M8.78258 33.8272L23.8763 41.3413C23.9373 41.3757 24.0047 41.3973 24.0744 41.4049C24.144 41.4124 24.2145 41.4057 24.2814 41.3852C24.3484 41.3646 24.4105 41.3307 24.4639 41.2854C24.5173 41.2401 24.561 41.1844 24.5922 41.1216C24.6234 41.0589 24.6415 40.9905 24.6454 40.9206C24.6494 40.8506 24.639 40.7806 24.615 40.7148C24.591 40.649 24.5539 40.5888 24.5059 40.5378C24.4579 40.4867 24.4 40.4461 24.3357 40.4181L9.24196 32.9041C9.12063 32.8514 8.9837 32.8472 8.85942 32.8926C8.73515 32.9379 8.633 33.0292 8.57407 33.1476C8.51514 33.266 8.50391 33.4025 8.54271 33.529C8.58151 33.6555 8.66737 33.7622 8.78258 33.8272Z" fill="#C6C8CC"/>
<path d="M25.9566 38.5807C25.9915 38.5226 26.0147 38.4581 26.0247 38.391C26.0347 38.3239 26.0314 38.2554 26.0149 38.1896C25.9985 38.1238 25.9692 38.0619 25.9288 38.0073C25.8884 37.9528 25.8376 37.9068 25.7794 37.872L24.7207 37.2376C24.6632 37.1942 24.5974 37.1634 24.5273 37.147C24.4572 37.1307 24.3844 37.1293 24.3138 37.1429C24.2431 37.1565 24.176 37.1847 24.117 37.2259C24.0579 37.267 24.0082 37.3201 23.9709 37.3816C23.9337 37.4432 23.9098 37.5119 23.9007 37.5833C23.8917 37.6547 23.8978 37.7272 23.9186 37.7961C23.9393 37.865 23.9743 37.9288 24.0213 37.9833C24.0683 38.0378 24.1262 38.0819 24.1913 38.1126L25.25 38.7492C25.3303 38.7963 25.4217 38.8212 25.5147 38.8213C25.6028 38.8223 25.6896 38.8006 25.767 38.7585C25.8443 38.7164 25.9096 38.6552 25.9566 38.5807Z" fill="#C6C8CC"/>
<path d="M18.016 34.42L21.8901 36.7432C22.0078 36.8126 22.1481 36.8329 22.2807 36.7997C22.4133 36.7666 22.5276 36.6826 22.5988 36.566C22.6338 36.5078 22.6569 36.4433 22.6669 36.3762C22.6769 36.3091 22.6736 36.2407 22.6572 36.1749C22.6407 36.109 22.6114 36.0471 22.571 35.9926C22.5306 35.9381 22.4798 35.8921 22.4216 35.8572L18.5454 33.5341C18.4309 33.4849 18.3025 33.4787 18.1838 33.5168C18.0652 33.5548 17.9643 33.6345 17.8998 33.7411C17.8353 33.8478 17.8115 33.9741 17.8329 34.0969C17.8542 34.2196 17.9193 34.3305 18.016 34.4091V34.42Z" fill="#C6C8CC"/>
<path d="M13.1794 31.5194L15.3823 32.8319C15.4619 32.8807 15.5535 32.9064 15.6469 32.9063C15.7602 32.9066 15.8704 32.8697 15.9606 32.8012C16.0508 32.7327 16.1159 32.6364 16.146 32.5272C16.1761 32.418 16.1695 32.302 16.1271 32.197C16.0848 32.0919 16.009 32.0037 15.9116 31.946L13.711 30.6335C13.6537 30.5875 13.5873 30.5544 13.5161 30.5361C13.445 30.5179 13.3708 30.5151 13.2984 30.5279C13.2261 30.5406 13.1573 30.5687 13.0967 30.6101C13.0361 30.6516 12.985 30.7055 12.9469 30.7682C12.9087 30.831 12.8844 30.9012 12.8756 30.9741C12.8668 31.047 12.8736 31.1209 12.8956 31.191C12.9176 31.2611 12.9543 31.3256 13.0032 31.3804C13.0522 31.4351 13.1123 31.4788 13.1794 31.5085V31.5194Z" fill="#C6C8CC"/>
<path d="M18.0073 30.0232L26.8229 36.2948C26.8777 36.3389 26.941 36.3714 27.0089 36.3902C27.0767 36.409 27.1477 36.4137 27.2174 36.4041C27.2872 36.3944 27.3542 36.3706 27.4144 36.3341C27.4746 36.2976 27.5267 36.2492 27.5675 36.1918C27.6082 36.1344 27.6369 36.0693 27.6516 36.0005C27.6663 35.9316 27.6667 35.8605 27.6529 35.7915C27.6391 35.7225 27.6114 35.657 27.5713 35.5991C27.5313 35.5412 27.4798 35.4921 27.4201 35.4548L18.6045 29.1788C18.4925 29.0997 18.3537 29.0682 18.2185 29.0914C18.0833 29.1145 17.9629 29.1905 17.8837 29.3024C17.8045 29.4144 17.773 29.5533 17.7962 29.6884C17.8194 29.8236 17.8953 29.944 18.0073 30.0232Z" fill="#C6C8CC"/>
<path d="M27.2757 32.8669L28.5729 33.9607C28.6791 34.0339 28.8089 34.0647 28.9367 34.047C29.0645 34.0293 29.1811 33.9644 29.2634 33.865C29.3457 33.7657 29.3879 33.6391 29.3815 33.5103C29.3752 33.3814 29.3208 33.2596 29.2292 33.1688L27.932 32.086C27.8807 32.0387 27.8204 32.0024 27.7546 31.9792C27.6888 31.956 27.6191 31.9465 27.5495 31.9511C27.4799 31.9557 27.412 31.9744 27.3499 32.0061C27.2878 32.0378 27.2328 32.0818 27.1883 32.1355C27.1437 32.1891 27.1105 32.2512 27.0907 32.3181C27.0709 32.3849 27.0649 32.4551 27.0731 32.5243C27.0813 32.5936 27.1035 32.6604 27.1383 32.7208C27.1731 32.7812 27.2199 32.8339 27.2757 32.8757V32.8669Z" fill="#C6C8CC"/>
<path d="M24.1673 30.266C24.2605 30.3422 24.3772 30.3839 24.4976 30.3841C24.6038 30.385 24.7076 30.3531 24.7949 30.2926C24.8822 30.2322 24.9486 30.1462 24.9851 30.0465C25.0215 29.9467 25.0262 29.8382 24.9984 29.7357C24.9707 29.6332 24.9119 29.5418 24.8301 29.4741L21.6779 26.8491C21.5717 26.7759 21.4419 26.7451 21.3141 26.7628C21.1863 26.7805 21.0697 26.8454 20.9874 26.9447C20.9051 27.0441 20.8629 27.1706 20.8693 27.2995C20.8756 27.4283 20.93 27.5502 21.0216 27.641L24.1673 30.266Z" fill="#C6C8CC"/>
<path d="M30.8698 31.9C30.9725 31.9001 31.0729 31.8696 31.1582 31.8124C31.2435 31.7551 31.3097 31.6737 31.3485 31.5786C31.3872 31.4834 31.3967 31.3789 31.3758 31.2784C31.3548 31.1778 31.3043 31.0858 31.2307 31.0141L28.2273 28.0785C28.1796 28.0281 28.1221 27.9878 28.0585 27.9601C27.9948 27.9324 27.9262 27.9178 27.8568 27.9173C27.7874 27.9167 27.7185 27.9301 27.6544 27.9567C27.5903 27.9834 27.5322 28.0227 27.4836 28.0723C27.4351 28.1219 27.397 28.1808 27.3717 28.2455C27.3464 28.3101 27.3344 28.3792 27.3365 28.4486C27.3385 28.518 27.3545 28.5863 27.3835 28.6494C27.4126 28.7124 27.454 28.769 27.5054 28.8157L30.5089 31.7535C30.6052 31.848 30.7349 31.9007 30.8698 31.9Z" fill="#C6C8CC"/>
<path d="M32.6482 29.6885C32.7404 29.7831 32.8652 29.8388 32.9972 29.8441C33.1291 29.8495 33.2581 29.804 33.3576 29.7172C33.4571 29.6303 33.5195 29.5086 33.532 29.3772C33.5445 29.2457 33.5061 29.1144 33.4248 29.0104L22.3342 16.301C22.2896 16.2499 22.2355 16.208 22.1748 16.1778C22.1141 16.1476 22.048 16.1297 21.9804 16.125C21.9127 16.1203 21.8448 16.129 21.7805 16.1506C21.7163 16.1722 21.6568 16.2062 21.6057 16.2507C21.5546 16.2952 21.5127 16.3494 21.4825 16.4101C21.4523 16.4708 21.4344 16.5369 21.4297 16.6045C21.425 16.6722 21.4337 16.7401 21.4553 16.8043C21.4769 16.8686 21.5109 16.928 21.5554 16.9792L32.6482 29.6885Z" fill="#C6C8CC"/>
<path d="M35.2995 28.0195C35.3951 28.0199 35.489 27.9936 35.5705 27.9436C35.652 27.8935 35.718 27.8217 35.7609 27.7363C35.8039 27.6508 35.8222 27.5551 35.8137 27.4598C35.8052 27.3645 35.7703 27.2735 35.7129 27.197L34.9779 26.206C34.8948 26.1004 34.7738 26.0314 34.6407 26.0135C34.5075 25.9957 34.3726 26.0305 34.2647 26.1105C34.1567 26.1905 34.0843 26.3095 34.0626 26.4421C34.041 26.5747 34.0719 26.7105 34.1488 26.8207L34.886 27.8116C34.9339 27.8762 34.9962 27.9286 35.068 27.9647C35.1398 28.0008 35.2191 28.0195 35.2995 28.0195Z" fill="#C6C8CC"/>
<path d="M32.5476 24.6704C32.5949 24.7368 32.6572 24.7913 32.7294 24.8293C32.8015 24.8673 32.8817 24.8878 32.9632 24.8891C33.0739 24.8896 33.1816 24.8534 33.2695 24.7863C33.3241 24.7461 33.3703 24.6955 33.4053 24.6374C33.4403 24.5793 33.4634 24.5148 33.4734 24.4477C33.4834 24.3806 33.4799 24.3122 33.4633 24.2464C33.4467 24.1806 33.4173 24.1188 33.3767 24.0644L30.6795 20.4288C30.5965 20.3189 30.4733 20.2464 30.3369 20.2273C30.2005 20.2082 30.0621 20.2441 29.9521 20.3271C29.8422 20.41 29.7697 20.5333 29.7506 20.6697C29.7316 20.8061 29.7675 20.9445 29.8504 21.0544L32.5476 24.6704Z" fill="#C6C8CC"/>
<path d="M28.0195 18.5826C28.0662 18.6492 28.128 18.7037 28.1999 18.7417C28.2717 18.7798 28.3516 18.8002 28.4329 18.8014C28.5442 18.8019 28.6526 18.7657 28.7413 18.6986C28.8509 18.6167 28.9235 18.4947 28.9432 18.3593C28.9629 18.224 28.928 18.0864 28.8463 17.9767L27.3151 15.9182C27.232 15.8126 27.111 15.7436 26.9779 15.7258C26.8447 15.7079 26.7098 15.7427 26.6019 15.8227C26.4939 15.9028 26.4215 16.0217 26.3998 16.1543C26.3782 16.2869 26.4091 16.4228 26.486 16.5329L28.0195 18.5826Z" fill="#C6C8CC"/>
<path d="M37.2813 26.1338C37.3279 26.2076 37.3925 26.2684 37.469 26.3105C37.5455 26.3526 37.6315 26.3746 37.7188 26.3744C37.8155 26.3739 37.9101 26.3466 37.9922 26.2957C38.1078 26.2228 38.1898 26.107 38.2202 25.9737C38.2505 25.8404 38.2268 25.7005 38.1541 25.5847L32.3944 16.4257C32.3584 16.3682 32.3114 16.3184 32.2561 16.2792C32.2008 16.2399 32.1383 16.2119 32.0722 16.1967C32.006 16.1816 31.9376 16.1796 31.8707 16.191C31.8038 16.2023 31.7399 16.2267 31.6824 16.2627C31.6249 16.2988 31.5752 16.3458 31.5359 16.4011C31.4966 16.4564 31.4686 16.5189 31.4534 16.585C31.4383 16.6511 31.4364 16.7196 31.4477 16.7864C31.459 16.8533 31.4834 16.9173 31.5194 16.9747L37.2813 26.1338Z" fill="#C6C8CC"/>
<path d="M39.7926 24.6398C39.8359 24.7236 39.9015 24.7939 39.9822 24.8429C40.0628 24.8919 40.1554 24.9177 40.2497 24.9176C40.3385 24.9171 40.4256 24.8938 40.5027 24.8499C40.5799 24.8061 40.6445 24.7432 40.6903 24.6672C40.7362 24.5913 40.7618 24.5048 40.7647 24.4161C40.7676 24.3275 40.7477 24.2395 40.7069 24.1607L39.9216 22.6645C39.8564 22.5462 39.7475 22.4582 39.6182 22.4193C39.4889 22.3804 39.3495 22.3937 39.2299 22.4564C39.1103 22.519 39.02 22.6261 38.9784 22.7545C38.9367 22.883 38.9471 23.0226 39.0072 23.1435L39.7926 24.6398Z" fill="#C6C8CC"/>
<path d="M37.126 19.5561C37.1695 19.6396 37.2352 19.7096 37.3159 19.7582C37.3965 19.8068 37.489 19.8323 37.5832 19.8317C37.6664 19.8324 37.7484 19.8121 37.8217 19.7726C37.8819 19.7415 37.9353 19.6987 37.9789 19.6468C38.0225 19.595 38.0554 19.535 38.0757 19.4703C38.0961 19.4057 38.1034 19.3376 38.0974 19.2701C38.0913 19.2026 38.0719 19.137 38.0404 19.077L36.1329 15.4392C36.0677 15.3209 35.9588 15.2329 35.8295 15.194C35.7002 15.1551 35.5608 15.1684 35.4412 15.2311C35.3216 15.2937 35.2313 15.4008 35.1897 15.5292C35.1481 15.6577 35.1584 15.7974 35.2185 15.9183L37.126 19.5561Z" fill="#C6C8CC"/>
<path d="M43.087 23.616C43.2126 23.5616 43.3115 23.4598 43.3623 23.3328C43.4131 23.2058 43.4117 23.0638 43.3583 22.9379L41.7045 19.0857C41.6508 18.9601 41.5495 18.8609 41.4227 18.8101C41.296 18.7592 41.1542 18.7608 41.0286 18.8144C40.903 18.8681 40.8038 18.9695 40.753 19.0962C40.7021 19.223 40.7037 19.3648 40.7573 19.4904L42.4089 23.3535C42.4356 23.4158 42.4743 23.4723 42.5228 23.5197C42.5714 23.5671 42.6288 23.6044 42.6917 23.6296C42.7547 23.6548 42.822 23.6674 42.8899 23.6665C42.9577 23.6657 43.0247 23.6515 43.087 23.6247V23.616Z" fill="#C6C8CC"/>
<path d="M45.1629 22.2598C45.1969 22.3623 45.2623 22.4515 45.3499 22.5147C45.4375 22.5779 45.5427 22.6119 45.6507 22.612C45.7064 22.6118 45.7618 22.6029 45.8148 22.5857C45.945 22.5418 46.0524 22.4481 46.1135 22.325C46.1747 22.202 46.1844 22.0597 46.1407 21.9295L40.7638 5.94321C40.7447 5.87608 40.7122 5.81352 40.6682 5.75933C40.6242 5.70513 40.5697 5.66042 40.5079 5.62789C40.4461 5.59537 40.3784 5.5757 40.3089 5.57009C40.2393 5.56448 40.1693 5.57304 40.1031 5.59524C40.0369 5.61745 39.976 5.65284 39.9238 5.69929C39.8717 5.74573 39.8296 5.80226 39.7999 5.86546C39.7703 5.92866 39.7538 5.99721 39.7514 6.06697C39.749 6.13673 39.7608 6.20625 39.786 6.27133L45.1629 22.2598Z" fill="#C6C8CC"/>
<path d="M47.6478 20.1969L47.9475 21.3935C47.9754 21.5053 48.0398 21.6046 48.1306 21.6755C48.2213 21.7465 48.3332 21.785 48.4485 21.785C48.4905 21.7854 48.5324 21.7802 48.5732 21.7697C48.706 21.7367 48.8203 21.6522 48.8908 21.5348C48.9614 21.4175 48.9825 21.277 48.9494 21.1441L48.6497 19.9475C48.6339 19.8812 48.6051 19.8185 48.565 19.7634C48.5248 19.7082 48.4741 19.6615 48.4158 19.626C48.3575 19.5905 48.2928 19.567 48.2253 19.5567C48.1579 19.5464 48.089 19.5496 48.0228 19.5661C47.9566 19.5826 47.8943 19.612 47.8395 19.6527C47.7847 19.6934 47.7386 19.7446 47.7037 19.8033C47.6688 19.8619 47.6459 19.9269 47.6364 19.9945C47.6268 20.0621 47.6307 20.1309 47.6478 20.1969Z" fill="#C6C8CC"/>
<path d="M45.9001 13.2123L46.9938 17.5873C47.0192 17.7019 47.0829 17.8045 47.1743 17.878C47.2658 17.9516 47.3796 17.9918 47.497 17.992C47.5398 17.9914 47.5824 17.9855 47.6238 17.9745C47.691 17.9583 47.7542 17.9287 47.8097 17.8874C47.8651 17.8462 47.9117 17.7943 47.9466 17.7346C47.9815 17.675 48.0041 17.609 48.0129 17.5404C48.0217 17.4719 48.0166 17.4023 47.9979 17.3358L46.9041 12.9608C46.8915 12.8913 46.8648 12.8251 46.8256 12.7664C46.7864 12.7076 46.7356 12.6576 46.6763 12.6193C46.6169 12.5809 46.5504 12.5552 46.4807 12.5436C46.4111 12.5321 46.3398 12.5349 46.2712 12.552C46.2027 12.5691 46.1384 12.6001 46.0824 12.643C46.0263 12.6859 45.9796 12.7399 45.9452 12.8016C45.9109 12.8633 45.8895 12.9314 45.8825 13.0016C45.8755 13.0719 45.883 13.1429 45.9045 13.2101L45.9001 13.2123Z" fill="#C6C8CC"/>
<path d="M45.1541 10.235C45.1818 10.3465 45.246 10.4455 45.3363 10.5164C45.4266 10.5873 45.538 10.6261 45.6529 10.6266C45.6956 10.6258 45.7381 10.6207 45.7797 10.6113C45.8456 10.5947 45.9075 10.5653 45.9619 10.5247C46.0163 10.4842 46.0622 10.4333 46.097 10.375C46.1317 10.3166 46.1546 10.2521 46.1644 10.1849C46.1741 10.1177 46.1705 10.0493 46.1538 9.98348L45.5304 7.49191C45.5171 7.42293 45.4899 7.35738 45.4504 7.29927C45.4109 7.24117 45.36 7.19174 45.3007 7.154C45.2415 7.11626 45.1752 7.09101 45.1058 7.0798C45.0365 7.06859 44.9655 7.07165 44.8974 7.08879C44.8293 7.10593 44.7654 7.1368 44.7096 7.1795C44.6538 7.2222 44.6073 7.27584 44.573 7.33712C44.5387 7.39841 44.5172 7.46606 44.5099 7.53593C44.5027 7.6058 44.5097 7.67643 44.5307 7.74348L45.1541 10.235Z" fill="#C6C8CC"/>
<path d="M50.8045 20.7635C50.8228 20.885 50.8841 20.996 50.9772 21.0763C51.0703 21.1565 51.1891 21.2008 51.312 21.201C51.3404 21.2031 51.3689 21.2031 51.3973 21.201C51.4642 21.1901 51.5283 21.1661 51.5858 21.1304C51.6434 21.0946 51.6933 21.0479 51.7328 20.9928C51.7722 20.9377 51.8004 20.8754 51.8156 20.8093C51.8309 20.7433 51.8329 20.675 51.8217 20.6081L50.0258 9.93752C49.9978 9.80771 49.9208 9.69368 49.8109 9.61913C49.7011 9.54458 49.5667 9.51524 49.4357 9.53721C49.3047 9.55917 49.1873 9.63076 49.1077 9.73709C49.0282 9.84342 48.9927 9.97631 49.0086 10.1081L50.8045 20.7635Z" fill="#C6C8CC"/>
<path d="M53.5432 18.6657L53.6941 20.3501C53.7046 20.4785 53.7631 20.5983 53.858 20.6854C53.9529 20.7726 54.0771 20.8208 54.206 20.8204H54.2519C54.3193 20.8146 54.3849 20.7956 54.445 20.7644C54.505 20.7332 54.5583 20.6905 54.6018 20.6387C54.6453 20.5868 54.6781 20.5269 54.6984 20.4624C54.7187 20.3979 54.7261 20.33 54.72 20.2626L54.5713 18.5782C54.5556 18.4449 54.4886 18.323 54.3845 18.2382C54.2804 18.1535 54.1474 18.1126 54.0137 18.1243C53.88 18.1359 53.7561 18.1992 53.6683 18.3007C53.5804 18.4022 53.5356 18.5339 53.5432 18.6679V18.6657Z" fill="#C6C8CC"/>
<path d="M53.6985 15.1023H53.7466C53.8827 15.0895 54.0083 15.0235 54.096 14.9186C54.1836 14.8138 54.2263 14.6785 54.2148 14.5423L53.8516 10.4517C53.8359 10.3184 53.769 10.1964 53.6649 10.1117C53.5608 10.0269 53.4278 9.98608 53.2941 9.99774C53.1604 10.0094 53.0364 10.0727 52.9486 10.1742C52.8608 10.2757 52.8159 10.4074 52.8235 10.5414L53.1866 14.6342C53.1986 14.7618 53.2576 14.8805 53.3522 14.967C53.4469 15.0535 53.5703 15.1018 53.6985 15.1023Z" fill="#C6C8CC"/>
<path d="M57.1329 20.6738C57.2005 20.6732 57.2675 20.6593 57.3298 20.6328C57.392 20.6063 57.4485 20.5677 57.4959 20.5194C57.5432 20.471 57.5805 20.4137 57.6057 20.3509C57.6309 20.288 57.6434 20.2208 57.6425 20.1532L57.5966 15.9532C57.5969 15.8851 57.5836 15.8177 57.5574 15.7549C57.5313 15.6921 57.4928 15.6351 57.4443 15.5874C57.3957 15.5397 57.3381 15.5022 57.2749 15.4771C57.2116 15.452 57.144 15.4398 57.076 15.4413C57.0082 15.4421 56.9412 15.4563 56.8789 15.4831C56.8166 15.5098 56.7602 15.5486 56.7129 15.5971C56.6655 15.6457 56.6282 15.7031 56.6031 15.766C56.5779 15.829 56.5654 15.8963 56.5663 15.9641L56.6122 20.1641C56.6125 20.2319 56.6263 20.2989 56.6526 20.3613C56.679 20.4238 56.7176 20.4803 56.766 20.5278C56.8144 20.5752 56.8718 20.6125 56.9348 20.6376C56.9978 20.6626 57.0651 20.6749 57.1329 20.6738Z" fill="#C6C8CC"/>
<path d="M60.0707 20.7591H60.1057C60.2365 20.7594 60.3625 20.7097 60.458 20.6203C60.5536 20.5309 60.6114 20.4084 60.6197 20.2778L61.755 3.44722C61.7643 3.31059 61.719 3.17587 61.6289 3.0727C61.5389 2.96952 61.4115 2.90635 61.2749 2.89706C61.1383 2.88778 61.0035 2.93315 60.9004 3.0232C60.7972 3.11325 60.734 3.24059 60.7247 3.37722L59.5894 20.2078C59.5847 20.2757 59.5934 20.3438 59.615 20.4082C59.6366 20.4727 59.6708 20.5322 59.7155 20.5835C59.7602 20.6347 59.8146 20.6766 59.8756 20.7067C59.9365 20.7368 60.0028 20.7547 60.0707 20.7591Z" fill="#C6C8CC"/>
<path d="M62.9407 21.0545C62.9655 21.0566 62.9904 21.0566 63.0151 21.0545C63.1383 21.0544 63.2574 21.0102 63.3508 20.93C63.4443 20.8497 63.506 20.7387 63.5248 20.617L63.7042 19.3964C63.7242 19.2609 63.6896 19.123 63.6079 19.0131C63.5263 18.9031 63.4043 18.8301 63.2689 18.8101C63.1334 18.7901 62.9955 18.8247 62.8856 18.9064C62.7756 18.988 62.7026 19.11 62.6826 19.2454L62.5032 20.4682C62.4933 20.5355 62.4968 20.604 62.5134 20.6699C62.5301 20.7358 62.5596 20.7977 62.6002 20.8522C62.6409 20.9067 62.6919 20.9526 62.7503 20.9873C62.8087 21.022 62.8734 21.0448 62.9407 21.0545Z" fill="#C6C8CC"/>
<path d="M63.5073 17.1848C63.532 17.1869 63.5569 17.1869 63.5817 17.1848C63.7052 17.1852 63.8248 17.1412 63.9188 17.061C64.0127 16.9807 64.0747 16.8694 64.0936 16.7473L64.7498 12.276C64.7609 12.2083 64.7584 12.1391 64.7424 12.0725C64.7265 12.0058 64.6974 11.9429 64.6569 11.8876C64.6164 11.8323 64.5653 11.7856 64.5065 11.7502C64.4478 11.7148 64.3826 11.6915 64.3147 11.6817C64.2469 11.6718 64.1777 11.6755 64.1113 11.6926C64.0449 11.7098 63.9826 11.74 63.928 11.7815C63.8734 11.8229 63.8276 11.8749 63.7933 11.9343C63.759 11.9936 63.7369 12.0592 63.7282 12.1273L63.072 16.5963C63.0617 16.6636 63.0649 16.7322 63.0813 16.7982C63.0976 16.8642 63.1269 16.9263 63.1673 16.981C63.2078 17.0357 63.2586 17.0819 63.317 17.1168C63.3753 17.1518 63.44 17.1749 63.5073 17.1848Z" fill="#C6C8CC"/>
<path d="M64.6054 9.67947H64.682C64.8053 9.6798 64.9246 9.63579 65.0182 9.55548C65.1117 9.47517 65.1733 9.3639 65.1917 9.24197L65.5635 6.7001C65.5806 6.56586 65.5444 6.43028 65.4625 6.32253C65.3806 6.21478 65.2597 6.14348 65.1258 6.12398C64.9919 6.10448 64.8557 6.13834 64.7465 6.21827C64.6373 6.2982 64.5639 6.41781 64.542 6.55135L64.1701 9.09104C64.1599 9.15828 64.163 9.22688 64.1794 9.2929C64.1958 9.35892 64.225 9.42106 64.2654 9.47574C64.3059 9.53042 64.3568 9.57657 64.4151 9.61153C64.4734 9.64649 64.5381 9.66958 64.6054 9.67947Z" fill="#C6C8CC"/>
<path d="M65.7692 21.5948C65.8351 21.61 65.9034 21.612 65.9701 21.6008C66.0368 21.5895 66.1007 21.5652 66.158 21.5293C66.2153 21.4933 66.265 21.4464 66.3041 21.3912C66.3432 21.336 66.3711 21.2736 66.3861 21.2076L68.7923 10.6573C68.8106 10.5282 68.7794 10.3969 68.705 10.2899C68.6305 10.1828 68.5183 10.1079 68.3908 10.0802C68.2634 10.0525 68.1302 10.0741 68.018 10.1405C67.9059 10.207 67.823 10.3135 67.7861 10.4385L65.3798 20.9866C65.3523 21.1188 65.3777 21.2564 65.4505 21.3701C65.5233 21.4838 65.6377 21.5644 65.7692 21.5948Z" fill="#C6C8CC"/>
<path d="M68.2125 21.6866C68.1905 21.7518 68.1818 21.8207 68.1869 21.8893C68.192 21.9579 68.2108 22.0248 68.2422 22.086C68.2736 22.1472 68.317 22.2014 68.3698 22.2456C68.4225 22.2897 68.4836 22.3228 68.5494 22.3429C68.5998 22.3583 68.6521 22.3664 68.7047 22.3669C68.8147 22.3664 68.9216 22.331 69.0101 22.2657C69.0986 22.2004 69.164 22.1087 69.1969 22.0038L69.7001 20.3916C69.7237 20.3261 69.7338 20.2565 69.7298 20.187C69.7259 20.1174 69.7079 20.0494 69.6769 19.987C69.646 19.9246 69.6027 19.8692 69.5498 19.8239C69.4968 19.7787 69.4352 19.7446 69.3688 19.7238C69.3023 19.703 69.2323 19.6958 69.1631 19.7028C69.0938 19.7097 69.0266 19.7306 68.9656 19.7641C68.9045 19.7977 68.8509 19.8433 68.808 19.8981C68.7651 19.9529 68.7337 20.0159 68.7157 20.0832L68.2125 21.6866Z" fill="#C6C8CC"/>
<path d="M70.2733 16.8523C70.3236 16.8677 70.3759 16.8758 70.4286 16.8763C70.5385 16.8758 70.6454 16.8404 70.7339 16.7751C70.8224 16.7098 70.8878 16.6181 70.9208 16.5132L72.1458 12.5932C72.1694 12.5277 72.1795 12.4581 72.1755 12.3886C72.1716 12.319 72.1536 12.251 72.1226 12.1886C72.0917 12.1262 72.0484 12.0708 71.9955 12.0255C71.9425 11.9803 71.8809 11.9462 71.8145 11.9254C71.748 11.9046 71.6781 11.8974 71.6088 11.9044C71.5395 11.9113 71.4723 11.9322 71.4113 11.9657C71.3502 11.9993 71.2966 12.0449 71.2537 12.0997C71.2108 12.1545 71.1794 12.2175 71.1614 12.2848L69.9364 16.207C69.916 16.2715 69.9086 16.3393 69.9145 16.4067C69.9205 16.474 69.9396 16.5396 69.9709 16.5995C70.0022 16.6595 70.045 16.7126 70.0969 16.756C70.1488 16.7994 70.2087 16.8321 70.2733 16.8523Z" fill="#C6C8CC"/>
<path d="M71.2576 23.3097C71.3182 23.3338 71.3827 23.3465 71.4479 23.3469C71.5509 23.3469 71.6516 23.3161 71.737 23.2584C71.8224 23.2007 71.8885 23.1188 71.927 23.0232L73.4932 19.1251C73.5185 19.0621 73.5311 18.9949 73.5304 18.9271C73.5297 18.8593 73.5156 18.7923 73.489 18.7299C73.4624 18.6676 73.4238 18.6111 73.3753 18.5636C73.3269 18.5162 73.2695 18.4788 73.2066 18.4535C73.1437 18.4282 73.0765 18.4156 73.0087 18.4163C72.9409 18.417 72.8739 18.4311 72.8115 18.4577C72.7491 18.4843 72.6926 18.5229 72.6452 18.5714C72.5978 18.6198 72.5604 18.6771 72.5351 18.7401L70.971 22.6382C70.9457 22.7011 70.9331 22.7684 70.9338 22.8362C70.9345 22.904 70.9486 22.971 70.9752 23.0333C71.0018 23.0957 71.0404 23.1522 71.0889 23.1996C71.1373 23.247 71.1947 23.2845 71.2576 23.3097Z" fill="#C6C8CC"/>
<path d="M73.9198 24.502C73.9915 24.5362 74.07 24.5541 74.1495 24.5545C74.2452 24.5546 74.3391 24.528 74.4206 24.4778C74.5021 24.4276 74.568 24.3557 74.611 24.2701L82.1251 9.16543C82.1778 9.04411 82.1819 8.90718 82.1366 8.7829C82.0913 8.65862 82 8.55648 81.8816 8.49755C81.7632 8.43861 81.6266 8.42739 81.5002 8.46619C81.3737 8.50499 81.267 8.59085 81.202 8.70606L73.6879 23.8107C73.6272 23.9332 73.6175 24.0747 73.6609 24.2043C73.7044 24.3339 73.7975 24.4409 73.9198 24.502Z" fill="#C6C8CC"/>
<path d="M76.7132 25.9544C76.8015 25.9534 76.8881 25.9298 76.9647 25.8857C77.0413 25.8417 77.1054 25.7787 77.1507 25.7028L77.785 24.6463C77.831 24.589 77.8642 24.5225 77.8824 24.4514C77.9006 24.3803 77.9034 24.306 77.8906 24.2337C77.8779 24.1614 77.8499 24.0926 77.8084 24.032C77.7669 23.9714 77.713 23.9203 77.6503 23.8822C77.5875 23.844 77.5173 23.8197 77.4444 23.8109C77.3715 23.802 77.2976 23.8089 77.2275 23.8309C77.1574 23.8529 77.0929 23.8896 77.0381 23.9385C76.9834 23.9875 76.9397 24.0476 76.91 24.1147L76.2735 25.1735C76.2269 25.2514 76.2017 25.3403 76.2005 25.431C76.1992 25.5218 76.2219 25.6113 76.2663 25.6905C76.3107 25.7697 76.3751 25.8358 76.4532 25.8821C76.5313 25.9285 76.6202 25.9534 76.711 25.9544H76.7132Z" fill="#C6C8CC"/>
<path d="M78.7279 22.5967C78.8163 22.5959 78.903 22.5723 78.9796 22.5283C79.0563 22.4842 79.1203 22.4211 79.1654 22.3451L81.4951 18.471C81.5656 18.3535 81.5865 18.2129 81.5533 18.08C81.52 17.947 81.4354 17.8328 81.3179 17.7623C81.2004 17.6918 81.0597 17.6709 80.9268 17.7041C80.7939 17.7373 80.6796 17.822 80.6091 17.9395L78.286 21.8157C78.2395 21.8937 78.2143 21.9825 78.213 22.0733C78.2118 22.164 78.2345 22.2536 78.2788 22.3328C78.3232 22.412 78.3877 22.4781 78.4658 22.5244C78.5438 22.5707 78.6327 22.5957 78.7235 22.5967H78.7279Z" fill="#C6C8CC"/>
<path d="M82.3657 16.0232C82.4236 16.0584 82.4879 16.0817 82.5549 16.0918C82.6219 16.102 82.6903 16.0987 82.756 16.0822C82.8217 16.0657 82.8835 16.0364 82.9378 15.9958C82.9921 15.9553 83.0378 15.9043 83.0723 15.846L84.3848 13.6454C84.4307 13.5881 84.4639 13.5216 84.4821 13.4505C84.5003 13.3793 84.5031 13.3051 84.4904 13.2328C84.4776 13.1605 84.4496 13.0917 84.4081 13.0311C84.3667 12.9705 84.3128 12.9194 84.25 12.8812C84.1872 12.8431 84.1171 12.8188 84.0442 12.81C83.9712 12.8011 83.8973 12.8079 83.8272 12.8299C83.7572 12.852 83.6926 12.8887 83.6379 12.9376C83.5831 12.9866 83.5394 13.0466 83.5098 13.1138L82.1973 15.3166C82.126 15.4327 82.1037 15.5723 82.1353 15.7047C82.1669 15.8372 82.2498 15.9517 82.3657 16.0232Z" fill="#C6C8CC"/>
<path d="M78.8592 27.466C78.9707 27.5445 79.1087 27.5757 79.2432 27.5528C79.3776 27.5298 79.4975 27.4546 79.5766 27.3435L85.8504 18.5279C85.9277 18.4162 85.9578 18.2784 85.9342 18.1446C85.9107 18.0108 85.8353 17.8917 85.7244 17.8131C85.6136 17.7345 85.4762 17.7028 85.3422 17.7248C85.2081 17.7468 85.0881 17.8208 85.0082 17.9307L78.7367 26.742C78.6968 26.7974 78.6683 26.8602 78.6528 26.9268C78.6374 26.9933 78.6353 27.0622 78.6467 27.1296C78.6581 27.1969 78.6827 27.2614 78.7192 27.3191C78.7557 27.3769 78.8032 27.4268 78.8592 27.466Z" fill="#C6C8CC"/>
<path d="M81.4754 29.3429C81.5509 29.3432 81.6254 29.3269 81.6939 29.2951C81.7623 29.2634 81.8229 29.2169 81.8713 29.1591L82.9651 27.862C83.0358 27.7559 83.0648 27.6273 83.0464 27.5011C83.028 27.375 82.9636 27.26 82.8655 27.1785C82.7674 27.097 82.6427 27.0547 82.5153 27.0597C82.3878 27.0647 82.2668 27.1167 82.1754 27.2057L81.0817 28.5029C81.0181 28.5778 80.9774 28.6694 80.9643 28.7667C80.9511 28.8641 80.9662 28.9631 81.0076 29.0522C81.049 29.1413 81.1151 29.2166 81.198 29.2693C81.2809 29.322 81.3772 29.3498 81.4754 29.3495V29.3429Z" fill="#C6C8CC"/>
<path d="M84.8289 24.8191C84.8808 24.8627 84.9408 24.8956 85.0055 24.9159C85.0701 24.9362 85.1382 24.9435 85.2057 24.9374C85.2731 24.9313 85.3388 24.9119 85.3988 24.8803C85.4587 24.8488 85.5119 24.8057 85.5551 24.7535L88.1911 21.6035C88.2415 21.5526 88.2807 21.4918 88.3064 21.4249C88.332 21.358 88.3434 21.2864 88.3399 21.2149C88.3363 21.1433 88.318 21.0733 88.2859 21.0092C88.2539 20.9452 88.2088 20.8885 88.1537 20.8428C88.0985 20.797 88.0344 20.7633 87.9655 20.7437C87.8966 20.7241 87.8244 20.7191 87.7534 20.7289C87.6825 20.7387 87.6143 20.7632 87.5533 20.8008C87.4923 20.8384 87.4399 20.8883 87.3992 20.9473L84.7633 24.0994C84.6778 24.2041 84.6369 24.3381 84.6491 24.4727C84.6614 24.6072 84.7259 24.7316 84.8289 24.8191Z" fill="#C6C8CC"/>
<path d="M84.0151 31.1541L86.9507 28.1507C87.0011 28.103 87.0414 28.0455 87.0691 27.9819C87.0968 27.9182 87.1113 27.8496 87.1119 27.7802C87.1125 27.7108 87.0991 27.6419 87.0724 27.5778C87.0458 27.5137 87.0065 27.4556 86.9569 27.407C86.9073 27.3585 86.8484 27.3204 86.7837 27.2951C86.719 27.2698 86.65 27.2578 86.5806 27.2599C86.5112 27.2619 86.4429 27.2779 86.3798 27.3069C86.3167 27.336 86.2602 27.3774 86.2135 27.4288L83.2757 30.4323C83.1792 30.5294 83.1251 30.6607 83.1251 30.7976C83.1251 30.9344 83.1792 31.0658 83.2757 31.1629C83.372 31.2574 83.5017 31.3101 83.6366 31.3095C83.7069 31.3103 83.7766 31.297 83.8417 31.2703C83.9067 31.2437 83.9657 31.2041 84.0151 31.1541Z" fill="#C6C8CC"/>
<path d="M85.2926 33.2913C85.3403 33.3472 85.3997 33.3921 85.4666 33.4227C85.5335 33.4533 85.6062 33.4689 85.6798 33.4685C85.8045 33.4689 85.925 33.4238 86.0188 33.3416L98.7282 22.2488C98.7835 22.2056 98.8294 22.1516 98.8631 22.09C98.8968 22.0285 98.9176 21.9608 98.9242 21.8909C98.9309 21.8211 98.9232 21.7506 98.9017 21.6838C98.8802 21.617 98.8453 21.5553 98.7991 21.5025C98.753 21.4496 98.6965 21.4068 98.6333 21.3765C98.57 21.3461 98.5012 21.3291 98.4311 21.3262C98.361 21.3234 98.2911 21.3349 98.2255 21.36C98.16 21.3851 98.1003 21.4233 98.0501 21.4722L85.3407 32.5629C85.2377 32.6531 85.1748 32.7805 85.1658 32.9171C85.1568 33.0537 85.2024 33.1883 85.2926 33.2913Z" fill="#C6C8CC"/>
<path d="M88.2107 34.0723L87.2219 34.8094C87.1163 34.8925 87.0473 35.0135 87.0295 35.1467C87.0116 35.2798 87.0464 35.4147 87.1264 35.5227C87.2065 35.6306 87.3254 35.7031 87.458 35.7247C87.5906 35.7463 87.7265 35.7154 87.8366 35.6385L88.8276 34.9013C88.882 34.8608 88.9279 34.81 88.9627 34.7517C88.9975 34.6935 89.0205 34.6289 89.0303 34.5618C89.0402 34.4947 89.0367 34.4263 89.0201 34.3605C89.0035 34.2947 88.9742 34.2328 88.9337 34.1783C88.8931 34.1239 88.8423 34.078 88.7841 34.0432C88.7258 34.0084 88.6613 33.9854 88.5941 33.9756C88.527 33.9657 88.4586 33.9692 88.3928 33.9858C88.327 34.0024 88.2651 34.0317 88.2107 34.0723Z" fill="#C6C8CC"/>
<path d="M90.6673 33.4029C90.7777 33.4023 90.8851 33.3662 90.9735 33.3001L94.6004 30.6029C94.6579 30.5636 94.7068 30.5131 94.7442 30.4545C94.7816 30.3958 94.8068 30.3302 94.8182 30.2616C94.8296 30.1929 94.8271 30.1227 94.8107 30.0551C94.7943 29.9874 94.7644 29.9238 94.7228 29.8681C94.6812 29.8123 94.6287 29.7655 94.5686 29.7305C94.5084 29.6955 94.4418 29.6731 94.3728 29.6645C94.3037 29.6559 94.2337 29.6613 94.1668 29.6805C94.0999 29.6997 94.0376 29.7322 93.9835 29.776L90.3589 32.4732C90.2721 32.5381 90.2079 32.6286 90.1755 32.732C90.143 32.8354 90.1439 32.9464 90.178 33.0492C90.2121 33.152 90.2778 33.2415 90.3656 33.305C90.4534 33.3685 90.5589 33.4027 90.6673 33.4029Z" fill="#C6C8CC"/>
<path d="M98.5072 26.4116L96.4466 27.9429C96.3598 28.0078 96.2957 28.0983 96.2632 28.2017C96.2308 28.3051 96.2317 28.416 96.2658 28.5189C96.2999 28.6217 96.3655 28.7112 96.4533 28.7747C96.5411 28.8382 96.6467 28.8724 96.7551 28.8726C96.8659 28.8724 96.9739 28.8372 97.0635 28.7719L99.1219 27.2407C99.1812 27.2023 99.232 27.1522 99.2711 27.0934C99.3103 27.0347 99.337 26.9685 99.3495 26.899C99.3621 26.8295 99.3602 26.7582 99.3441 26.6894C99.328 26.6207 99.2979 26.5559 99.2558 26.4993C99.2137 26.4426 99.1603 26.3952 99.0992 26.3599C99.038 26.3247 98.9702 26.3024 98.9 26.2943C98.8299 26.2863 98.7588 26.2928 98.6912 26.3134C98.6237 26.3339 98.5611 26.3681 98.5072 26.4138V26.4116Z" fill="#C6C8CC"/>
<path d="M88.7335 37.9156C88.7802 37.9895 88.8448 38.0503 88.9213 38.0924C88.9978 38.1344 89.0837 38.1564 89.171 38.1563C89.2679 38.157 89.3629 38.1296 89.4445 38.0775L98.6035 32.3178C98.661 32.2818 98.7108 32.2348 98.7501 32.1795C98.7893 32.1242 98.8174 32.0617 98.8325 31.9956C98.8476 31.9295 98.8496 31.861 98.8383 31.7941C98.8269 31.7272 98.8026 31.6633 98.7665 31.6058C98.7305 31.5483 98.6834 31.4986 98.6281 31.4593C98.5728 31.42 98.5104 31.392 98.4442 31.3769C98.3781 31.3617 98.3097 31.3598 98.2428 31.3711C98.1759 31.3824 98.1119 31.4068 98.0545 31.4428L88.8954 37.2025C88.8377 37.2384 88.7876 37.2855 88.7481 37.3409C88.7087 37.3963 88.6806 37.4589 88.6656 37.5253C88.6505 37.5916 88.6488 37.6603 88.6604 37.7273C88.6721 37.7943 88.697 37.8583 88.7335 37.9156Z" fill="#C6C8CC"/>
<path d="M92.367 39.845C92.4852 39.7799 92.5733 39.6709 92.6122 39.5416C92.6511 39.4123 92.6378 39.2729 92.5751 39.1533C92.5124 39.0337 92.4054 38.9434 92.2769 38.9018C92.1485 38.8602 92.0088 38.8705 91.8879 38.9307L90.3982 39.716C90.2959 39.7696 90.2146 39.856 90.1672 39.9614C90.1198 40.0667 90.1091 40.1849 90.1369 40.297C90.1646 40.4092 90.2291 40.5088 90.3201 40.5799C90.4111 40.651 90.5234 40.6896 90.6389 40.6894C90.722 40.6894 90.8038 40.6691 90.8773 40.6304L92.367 39.845Z" fill="#C6C8CC"/>
<path d="M99.1111 35.142L95.4733 37.0495C95.4117 37.0801 95.3569 37.1226 95.3121 37.1747C95.2672 37.2267 95.2332 37.2872 95.212 37.3526C95.1908 37.4179 95.1829 37.4869 95.1887 37.5553C95.1945 37.6238 95.214 37.6904 95.2458 37.7513C95.2777 37.8122 95.3215 37.866 95.3744 37.9098C95.4274 37.9535 95.4886 37.9863 95.5544 38.0061C95.6202 38.0259 95.6893 38.0323 95.7576 38.0251C95.8259 38.0178 95.8921 37.997 95.9523 37.9638L99.5857 36.0563C99.704 35.9912 99.792 35.8823 99.8309 35.7529C99.8698 35.6236 99.8565 35.4842 99.7939 35.3646C99.7312 35.245 99.6242 35.1547 99.4957 35.1131C99.3672 35.0715 99.2276 35.0818 99.1067 35.142H99.1111Z" fill="#C6C8CC"/>
<path d="M91.8879 43.3232C91.9578 43.3231 92.027 43.309 92.0913 43.2816L95.9522 41.6279C96.0779 41.5742 96.177 41.4729 96.2279 41.3461C96.2787 41.2193 96.2772 41.0776 96.2235 40.9519C96.1698 40.8263 96.0685 40.7272 95.9417 40.6763C95.8149 40.6255 95.6732 40.627 95.5476 40.6807L91.6844 42.3323C91.575 42.379 91.4851 42.4622 91.43 42.5676C91.3748 42.673 91.3577 42.7942 91.3817 42.9108C91.4056 43.0273 91.4691 43.132 91.5613 43.2072C91.6535 43.2823 91.7689 43.3233 91.8879 43.3232Z" fill="#C6C8CC"/>
<path d="M92.4435 45.7404C92.4783 45.8426 92.5443 45.9314 92.6322 45.9942C92.7201 46.057 92.8255 46.0906 92.9335 46.0904C92.9892 46.0902 93.0446 46.0813 93.0976 46.0641L109.086 40.6872C109.153 40.6681 109.216 40.6356 109.27 40.5916C109.324 40.5476 109.369 40.4931 109.401 40.4313C109.434 40.3695 109.454 40.3018 109.459 40.2323C109.465 40.1627 109.456 40.0927 109.434 40.0265C109.412 39.9603 109.376 39.8994 109.33 39.8472C109.283 39.7951 109.227 39.753 109.164 39.7234C109.101 39.6937 109.032 39.6772 108.962 39.6748C108.892 39.6724 108.823 39.6842 108.758 39.7094L92.7695 45.0863C92.7051 45.1078 92.6456 45.1418 92.5943 45.1863C92.5431 45.2308 92.5011 45.285 92.4708 45.3457C92.4406 45.4065 92.4226 45.4726 92.4179 45.5403C92.4132 45.6081 92.4219 45.676 92.4435 45.7404Z" fill="#C6C8CC"/>
<path d="M93.7604 48.8882C93.8025 48.8884 93.8444 48.8833 93.8851 48.8729L95.0817 48.5732C95.1512 48.5606 95.2173 48.5339 95.2761 48.4947C95.3348 48.4555 95.3849 48.4047 95.4232 48.3453C95.4615 48.286 95.4872 48.2195 95.4988 48.1498C95.5104 48.0801 95.5075 48.0088 95.4904 47.9403C95.4733 47.8718 95.4424 47.8075 95.3994 47.7514C95.3565 47.6954 95.3025 47.6487 95.2408 47.6143C95.1791 47.5799 95.1111 47.5586 95.0408 47.5516C94.9705 47.5445 94.8996 47.552 94.8323 47.5735L93.6335 47.8732C93.513 47.9054 93.4082 47.9801 93.3385 48.0836C93.2688 48.1871 93.2389 48.3123 93.2544 48.436C93.2699 48.5598 93.3297 48.6738 93.4227 48.757C93.5157 48.8401 93.6357 48.8867 93.7604 48.8882Z" fill="#C6C8CC"/>
<path d="M97.5579 47.9366C97.5999 47.9369 97.6419 47.9318 97.6826 47.9213L102.058 46.8276C102.127 46.8149 102.193 46.7882 102.252 46.749C102.311 46.7098 102.361 46.659 102.399 46.5997C102.437 46.5403 102.463 46.4738 102.475 46.4041C102.486 46.3345 102.483 46.2632 102.466 46.1946C102.449 46.1261 102.418 46.0618 102.375 46.0058C102.332 45.9497 102.278 45.903 102.217 45.8687C102.155 45.8343 102.087 45.8129 102.017 45.8059C101.946 45.7989 101.875 45.8064 101.808 45.8279L97.4332 46.9216C97.3093 46.9501 97.2003 47.0234 97.1273 47.1275C97.0543 47.2317 97.0225 47.3591 97.038 47.4853C97.0535 47.6115 97.1152 47.7275 97.2112 47.8109C97.3073 47.8942 97.4308 47.939 97.5579 47.9366Z" fill="#C6C8CC"/>
<path d="M107.909 44.8282C107.893 44.7624 107.864 44.7006 107.823 44.6462C107.783 44.5918 107.732 44.5458 107.674 44.5111C107.616 44.4763 107.552 44.4534 107.484 44.4436C107.417 44.4338 107.349 44.4374 107.284 44.4541L104.794 45.0775C104.672 45.108 104.565 45.1822 104.494 45.286C104.422 45.3898 104.391 45.5162 104.407 45.6413C104.422 45.7664 104.482 45.8815 104.577 45.9651C104.671 46.0486 104.793 46.0947 104.919 46.0947C104.961 46.0939 105.003 46.0888 105.044 46.0794L107.535 45.4538C107.601 45.4374 107.663 45.4083 107.717 45.3679C107.772 45.3276 107.817 45.2769 107.852 45.2187C107.887 45.1606 107.91 45.0962 107.92 45.0291C107.929 44.9621 107.926 44.8938 107.909 44.8282Z" fill="#C6C8CC"/>
<path d="M105.529 49.352C105.518 49.285 105.494 49.2209 105.458 49.1633C105.422 49.1057 105.375 49.0558 105.32 49.0164C105.264 48.9769 105.202 48.9488 105.136 48.9336C105.07 48.9183 105.001 48.9163 104.934 48.9276L94.2657 50.7235C94.1399 50.7469 94.0273 50.8161 93.9496 50.9178C93.872 51.0195 93.8349 51.1465 93.8455 51.274C93.8561 51.4015 93.9137 51.5205 94.0071 51.608C94.1006 51.6954 94.2231 51.7451 94.3511 51.7473C94.3795 51.7494 94.408 51.7494 94.4364 51.7473L105.107 49.9513C105.174 49.9402 105.239 49.9159 105.297 49.8796C105.354 49.8433 105.404 49.7959 105.444 49.7401C105.483 49.6843 105.511 49.6213 105.525 49.5546C105.54 49.488 105.541 49.4191 105.529 49.352Z" fill="#C6C8CC"/>
<path d="M94.7732 54.6457L96.4576 54.4947C96.5249 54.4887 96.5904 54.4695 96.6504 54.4381C96.7103 54.4068 96.7635 54.3639 96.8068 54.312C96.8502 54.2601 96.8829 54.2002 96.9031 54.1356C96.9233 54.0711 96.9306 54.0032 96.9246 53.9358C96.9186 53.8685 96.8993 53.8029 96.868 53.743C96.8366 53.6831 96.7938 53.6299 96.7419 53.5866C96.69 53.5432 96.63 53.5105 96.5655 53.4903C96.5009 53.4701 96.433 53.4628 96.3657 53.4688L94.6835 53.6175C94.616 53.6204 94.5497 53.6366 94.4884 53.665C94.4272 53.6935 94.3721 53.7338 94.3264 53.7836C94.2807 53.8333 94.2452 53.8916 94.2221 53.9551C94.1989 54.0186 94.1884 54.086 94.1913 54.1535C94.1942 54.221 94.2103 54.2873 94.2388 54.3485C94.2673 54.4098 94.3076 54.4649 94.3573 54.5106C94.4071 54.5563 94.4654 54.5917 94.5289 54.6149C94.5923 54.6381 94.6597 54.6485 94.7272 54.6457H94.7732Z" fill="#C6C8CC"/>
<path d="M100.397 53.1101C100.265 53.1223 100.143 53.1849 100.056 53.2849C99.9684 53.3849 99.9231 53.5146 99.929 53.6472C99.9349 53.7797 99.9916 53.9049 100.087 53.9967C100.183 54.0886 100.311 54.14 100.443 54.1404H100.489L104.58 53.7773C104.649 53.7724 104.716 53.7537 104.777 53.7223C104.838 53.6909 104.893 53.6475 104.937 53.5947C104.982 53.5418 105.015 53.4806 105.035 53.4146C105.055 53.3487 105.062 53.2793 105.054 53.2107C105.041 53.0753 104.975 52.9504 104.871 52.8629C104.767 52.7754 104.632 52.7322 104.497 52.7426L100.397 53.1101Z" fill="#C6C8CC"/>
<path d="M94.8695 57.5856L99.0695 57.5375C99.2003 57.529 99.323 57.471 99.4126 57.3753C99.5023 57.2797 99.5521 57.1535 99.5521 57.0224C99.5521 56.8913 99.5023 56.7651 99.4126 56.6694C99.323 56.5737 99.2003 56.5157 99.0695 56.5072L94.8695 56.5531C94.7326 56.5531 94.6013 56.6075 94.5044 56.7043C94.4076 56.8012 94.3532 56.9325 94.3532 57.0694C94.3532 57.2063 94.4076 57.3376 94.5044 57.4344C94.6013 57.5313 94.7326 57.5856 94.8695 57.5856Z" fill="#C6C8CC"/>
<path d="M111.65 60.6482L94.8191 59.515C94.7492 59.5059 94.6782 59.5112 94.6104 59.5305C94.5426 59.5499 94.4795 59.5829 94.425 59.6276C94.3705 59.6722 94.3257 59.7276 94.2933 59.7903C94.261 59.8529 94.2419 59.9215 94.2371 59.9919C94.2323 60.0622 94.242 60.1328 94.2655 60.1992C94.289 60.2657 94.3259 60.3266 94.3739 60.3783C94.4219 60.4299 94.4799 60.4712 94.5445 60.4996C94.609 60.5279 94.6787 60.5428 94.7492 60.5432L111.58 61.6785H111.617C111.749 61.6756 111.875 61.6224 111.969 61.5296C112.062 61.4369 112.117 61.3118 112.122 61.1799C112.126 61.048 112.08 60.9194 111.993 60.8205C111.905 60.7216 111.783 60.66 111.652 60.6482H111.65Z" fill="#C6C8CC"/>
<path d="M95.7751 62.617L94.5545 62.4398C94.4193 62.4201 94.2818 62.4548 94.1723 62.5365C94.0627 62.6181 93.9901 62.7399 93.9704 62.8751C93.9507 63.0103 93.9855 63.1478 94.0671 63.2573C94.1487 63.3668 94.2705 63.4394 94.4057 63.4592L95.6263 63.6385C95.6518 63.6407 95.6774 63.6407 95.7029 63.6385C95.8345 63.6399 95.9616 63.591 96.0583 63.5017C96.155 63.4125 96.214 63.2897 96.2232 63.1585C96.2324 63.0272 96.1912 62.8974 96.1079 62.7955C96.0246 62.6937 95.9056 62.6275 95.7751 62.6104V62.617Z" fill="#C6C8CC"/>
<path d="M102.751 64.6709H102.828C102.957 64.6686 103.08 64.618 103.174 64.5292C103.267 64.4404 103.324 64.3197 103.333 64.191C103.342 64.0623 103.303 63.9349 103.223 63.8338C103.142 63.7327 103.027 63.6654 102.9 63.645L98.4285 62.9888C98.2942 62.9717 98.1587 63.0079 98.0509 63.0898C97.9432 63.1717 97.8719 63.2926 97.8524 63.4265C97.8329 63.5604 97.8667 63.6966 97.9466 63.8058C98.0266 63.915 98.1462 63.9884 98.2797 64.0103L102.751 64.6709Z" fill="#C6C8CC"/>
<path d="M108.478 64.4654L105.929 64.0936C105.794 64.0735 105.656 64.1082 105.546 64.1898C105.436 64.2714 105.363 64.3934 105.343 64.5289C105.323 64.6643 105.358 64.8022 105.439 64.9121C105.521 65.0221 105.643 65.0951 105.779 65.1151L108.32 65.487C108.345 65.4892 108.37 65.4892 108.395 65.487C108.524 65.4851 108.648 65.4349 108.742 65.3463C108.836 65.2576 108.893 65.137 108.902 65.0081C108.912 64.8793 108.872 64.7516 108.792 64.6503C108.712 64.549 108.597 64.4815 108.469 64.4611L108.478 64.4654Z" fill="#C6C8CC"/>
<path d="M93.4345 65.6925C93.4193 65.7585 93.4172 65.8267 93.4285 65.8935C93.4397 65.9602 93.464 66.024 93.5 66.0814C93.536 66.1387 93.5829 66.1883 93.6381 66.2274C93.6933 66.2666 93.7557 66.2944 93.8217 66.3094L104.372 68.7157C104.409 68.7243 104.447 68.7287 104.486 68.7288C104.612 68.7283 104.734 68.6813 104.829 68.5966C104.923 68.512 104.983 68.3957 104.997 68.2698C105.011 68.1439 104.978 68.0172 104.905 67.9139C104.832 67.8106 104.723 67.7378 104.599 67.7094L94.0514 65.3031C93.9853 65.288 93.9168 65.286 93.85 65.2974C93.7832 65.3088 93.7192 65.3333 93.6619 65.3695C93.6045 65.4056 93.5549 65.4528 93.5159 65.5083C93.4769 65.5637 93.4492 65.6263 93.4345 65.6925Z" fill="#C6C8CC"/>
<path d="M92.6973 68.475C92.6753 68.5402 92.6665 68.6091 92.6716 68.6777C92.6767 68.7463 92.6956 68.8132 92.727 68.8744C92.7584 68.9356 92.8018 68.9898 92.8545 69.034C92.9073 69.0781 92.9684 69.1112 93.0342 69.1313L94.6485 69.6344C94.6979 69.6509 94.7496 69.659 94.8017 69.6584C94.9249 69.6583 95.044 69.6142 95.1375 69.5339C95.231 69.4536 95.2927 69.3426 95.3114 69.2208C95.3302 69.099 95.3048 68.9745 95.2398 68.8698C95.1748 68.7652 95.0745 68.6872 94.957 68.65L93.3426 68.1469C93.2135 68.1054 93.0733 68.1166 92.9524 68.1781C92.8315 68.2395 92.7398 68.3463 92.6973 68.475Z" fill="#C6C8CC"/>
<path d="M98.8222 69.8488C98.7565 69.8243 98.6864 69.8134 98.6162 69.8169C98.5461 69.8204 98.4775 69.8381 98.4144 69.869C98.3514 69.9 98.2953 69.9434 98.2497 69.9967C98.204 70.0501 98.1697 70.1121 98.1488 70.1792C98.128 70.2462 98.121 70.3168 98.1284 70.3866C98.1357 70.4564 98.1572 70.524 98.1916 70.5852C98.226 70.6464 98.2725 70.7 98.3282 70.7427C98.384 70.7853 98.4479 70.8161 98.516 70.8332L102.436 72.0582C102.486 72.0737 102.537 72.0818 102.589 72.0823C102.712 72.0822 102.831 72.038 102.925 71.9577C103.018 71.8775 103.08 71.7664 103.099 71.6446C103.118 71.5228 103.092 71.3984 103.027 71.2937C102.962 71.189 102.862 71.111 102.744 71.0738L98.8222 69.8488Z" fill="#C6C8CC"/>
<path d="M92.0061 71.8504L95.9042 73.4167C95.9653 73.4416 96.0307 73.4543 96.0967 73.4539C96.2166 73.4539 96.3328 73.4122 96.4253 73.3358C96.5178 73.2595 96.5809 73.1534 96.6036 73.0356C96.6264 72.9179 96.6075 72.7959 96.5501 72.6906C96.4927 72.5853 96.4005 72.5032 96.2892 72.4585L92.3911 70.8945C92.3274 70.8642 92.2583 70.8473 92.1879 70.8447C92.1174 70.8421 92.0473 70.854 91.9816 70.8796C91.916 70.9052 91.8562 70.944 91.8061 70.9936C91.756 71.0431 91.7166 71.1024 91.6903 71.1677C91.664 71.2331 91.6513 71.3032 91.6531 71.3736C91.6549 71.444 91.671 71.5134 91.7006 71.5773C91.7302 71.6413 91.7726 71.6985 91.8251 71.7455C91.8776 71.7924 91.9392 71.8281 92.0061 71.8504Z" fill="#C6C8CC"/>
<path d="M106.323 81.1254L91.2185 73.6114C91.1577 73.5812 91.0916 73.5633 91.024 73.5587C90.9563 73.5541 90.8884 73.5628 90.8241 73.5845C90.7598 73.6061 90.7004 73.6402 90.6493 73.6848C90.5982 73.7294 90.5563 73.7836 90.5262 73.8443C90.496 73.9051 90.4781 73.9712 90.4735 74.0389C90.4689 74.1066 90.4776 74.1745 90.4992 74.2388C90.5209 74.3031 90.555 74.3625 90.5996 74.4136C90.6441 74.4647 90.6984 74.5065 90.7591 74.5367L105.853 82.0508C105.925 82.0849 106.003 82.1029 106.083 82.1033C106.199 82.1034 106.312 82.0643 106.403 81.9922C106.494 81.9201 106.559 81.8193 106.586 81.7061C106.612 81.593 106.6 81.474 106.551 81.3686C106.502 81.2632 106.418 81.1775 106.314 81.1254H106.323Z" fill="#C6C8CC"/>
<path d="M89.1492 76.3719C89.0784 76.4891 89.0571 76.6296 89.0899 76.7625C89.1227 76.8954 89.207 77.0099 89.3242 77.0807L90.3829 77.715C90.4627 77.7635 90.5543 77.7892 90.6476 77.7894C90.7604 77.7894 90.87 77.7525 90.9598 77.6843C91.0496 77.616 91.1146 77.5203 91.1449 77.4117C91.1751 77.3031 91.169 77.1875 91.1274 77.0827C91.0858 76.9779 91.011 76.8896 90.9145 76.8313L89.8557 76.1969C89.7979 76.1619 89.7337 76.1387 89.6668 76.1286C89.6 76.1184 89.5318 76.1216 89.4661 76.1378C89.4005 76.1541 89.3387 76.1831 89.2843 76.2233C89.2299 76.2635 89.184 76.314 89.1492 76.3719Z" fill="#C6C8CC"/>
<path d="M97.0898 80.5348L93.2136 78.2095C93.0963 78.1441 92.9582 78.1269 92.8285 78.1616C92.6988 78.1963 92.5877 78.2802 92.5188 78.3955C92.45 78.5108 92.4287 78.6483 92.4596 78.779C92.4904 78.9097 92.571 79.0232 92.6842 79.0954L96.5583 81.4295C96.6381 81.478 96.7296 81.5037 96.8229 81.5039C96.9357 81.5039 97.0454 81.4669 97.1352 81.3987C97.2249 81.3305 97.2899 81.2348 97.3202 81.1261C97.3505 81.0175 97.3443 80.902 97.3027 80.7972C97.2611 80.6924 97.1863 80.604 97.0898 80.5457V80.5348Z" fill="#C6C8CC"/>
<path d="M101.924 83.4332L99.7214 82.1207C99.6041 82.0553 99.466 82.0381 99.3363 82.0728C99.2066 82.1075 99.0955 82.1914 99.0266 82.3067C98.9578 82.4219 98.9365 82.5595 98.9674 82.6902C98.9983 82.8209 99.0788 82.9344 99.192 83.0066L101.393 84.3191C101.472 84.3676 101.564 84.3933 101.657 84.3935C101.746 84.3923 101.832 84.3686 101.909 84.3245C101.985 84.2805 102.049 84.2177 102.095 84.1419C102.13 84.0842 102.154 84.0201 102.165 83.9532C102.175 83.8863 102.173 83.8179 102.157 83.7521C102.141 83.6862 102.112 83.6241 102.072 83.5694C102.032 83.5147 101.982 83.4684 101.924 83.4332Z" fill="#C6C8CC"/>
<path d="M97.0985 84.9295L88.2829 78.6579C88.2277 78.6177 88.165 78.5889 88.0985 78.5732C88.0321 78.5574 87.9632 78.555 87.8958 78.5661C87.8284 78.5772 87.7638 78.6015 87.7059 78.6377C87.648 78.6739 87.5978 78.7212 87.5583 78.7769C87.5188 78.8326 87.4908 78.8956 87.4758 78.9623C87.4608 79.0289 87.4592 79.0978 87.471 79.1651C87.4829 79.2324 87.508 79.2966 87.5448 79.3541C87.5817 79.4116 87.6296 79.4612 87.6857 79.5001L96.5014 85.7716C96.6131 85.8489 96.7508 85.8791 96.8846 85.8555C97.0185 85.8319 97.1376 85.7565 97.2162 85.6457C97.2948 85.5349 97.3265 85.3975 97.3045 85.2634C97.2825 85.1293 97.2085 85.0093 97.0985 84.9295Z" fill="#C6C8CC"/>
<path d="M87.8301 82.0858L86.5329 80.992C86.4267 80.9188 86.2969 80.888 86.1691 80.9057C86.0413 80.9234 85.9247 80.9883 85.8424 81.0877C85.7601 81.187 85.7179 81.3136 85.7243 81.4424C85.7306 81.5713 85.785 81.6931 85.8766 81.7839L87.1738 82.8776C87.28 82.9509 87.4098 82.9817 87.5376 82.964C87.6654 82.9463 87.782 82.8813 87.8643 82.782C87.9466 82.6827 87.9888 82.5561 87.9824 82.4272C87.9761 82.2984 87.9217 82.1766 87.8301 82.0858Z" fill="#C6C8CC"/>
<path d="M90.9364 84.6888C90.8851 84.6416 90.8247 84.6053 90.759 84.5821C90.6932 84.5589 90.6234 84.5493 90.5539 84.5539C90.4843 84.5586 90.4164 84.5773 90.3543 84.609C90.2922 84.6407 90.2372 84.6847 90.1926 84.7383C90.1481 84.7919 90.1149 84.8541 90.0951 84.9209C90.0753 84.9878 90.0693 85.0579 90.0775 85.1272C90.0857 85.1964 90.1078 85.2633 90.1427 85.3237C90.1775 85.3841 90.2243 85.4368 90.2801 85.4785L93.4301 88.1145C93.481 88.1649 93.5419 88.2041 93.6088 88.2297C93.6757 88.2554 93.7472 88.2668 93.8187 88.2633C93.8903 88.2597 93.9603 88.2414 94.0244 88.2093C94.0885 88.1772 94.1452 88.1322 94.1909 88.077C94.2366 88.0219 94.2703 87.9578 94.2899 87.8889C94.3095 87.82 94.3146 87.7478 94.3047 87.6768C94.2949 87.6058 94.2704 87.5377 94.2328 87.4767C94.1952 87.4157 94.1454 87.3632 94.0864 87.3226L90.9364 84.6888Z" fill="#C6C8CC"/>
<path d="M83.8663 83.2079C83.7699 83.305 83.7158 83.4363 83.7158 83.5732C83.7158 83.7101 83.7699 83.8414 83.8663 83.9385L86.8698 86.8742C86.9686 86.964 87.0985 87.0119 87.232 87.008C87.3655 87.0041 87.4922 86.9486 87.5857 86.8532C87.6791 86.7577 87.732 86.6298 87.7331 86.4963C87.7342 86.3627 87.6835 86.2339 87.5916 86.137L84.597 83.2013C84.499 83.1058 84.3672 83.0528 84.2303 83.054C84.0934 83.0553 83.9626 83.1106 83.8663 83.2079Z" fill="#C6C8CC"/>
<path d="M82.4663 85.2642C82.3764 85.1609 82.2491 85.0976 82.1125 85.0881C81.9759 85.0787 81.8412 85.1239 81.7379 85.2138C81.6346 85.3038 81.5713 85.431 81.5619 85.5676C81.5524 85.7043 81.5977 85.839 81.6876 85.9423L92.7804 98.6517C92.8236 98.7069 92.8776 98.7528 92.9392 98.7865C93.0007 98.8202 93.0684 98.841 93.1383 98.8477C93.2081 98.8543 93.2786 98.8467 93.3454 98.8251C93.4122 98.8036 93.4739 98.7688 93.5267 98.7226C93.5796 98.6765 93.6224 98.62 93.6528 98.5567C93.6831 98.4935 93.7001 98.4247 93.703 98.3546C93.7058 98.2845 93.6943 98.2145 93.6692 98.149C93.6441 98.0835 93.6059 98.0238 93.557 97.9735L82.4663 85.2642Z" fill="#C6C8CC"/>
<path d="M79.4979 87.036C79.4434 87.0763 79.3975 87.1271 79.3627 87.1853C79.3279 87.2435 79.305 87.308 79.2952 87.3751C79.2854 87.4422 79.289 87.5105 79.3058 87.5762C79.3226 87.6419 79.3522 87.7036 79.3929 87.7578L80.1279 88.7466C80.1758 88.8111 80.2381 88.8636 80.3099 88.8997C80.3817 88.9357 80.461 88.9545 80.5414 88.9544C80.6367 88.954 80.73 88.9272 80.8111 88.877C80.8921 88.8268 80.9576 88.7552 81.0005 88.67C81.0433 88.5848 81.0617 88.4895 81.0536 88.3945C81.0455 88.2995 81.0113 88.2087 80.9548 88.1319L80.2198 87.141C80.1379 87.0314 80.0159 86.9588 79.8806 86.9392C79.7452 86.9195 79.6076 86.9543 79.4979 87.036Z" fill="#C6C8CC"/>
<path d="M82.556 90.2822C82.5167 90.2248 82.4662 90.1759 82.4076 90.1384C82.3489 90.101 82.2833 90.0758 82.2147 90.0644C82.146 90.053 82.0758 90.0555 82.0082 90.0719C81.9405 90.0883 81.8769 90.1182 81.8212 90.1598C81.7654 90.2014 81.7186 90.2539 81.6836 90.314C81.6486 90.3742 81.6262 90.4408 81.6176 90.5098C81.609 90.5789 81.6144 90.6489 81.6336 90.7158C81.6528 90.7827 81.6852 90.845 81.7291 90.8991L84.4263 94.5237C84.5112 94.6237 84.6309 94.6876 84.7612 94.7024C84.8915 94.7173 85.0225 94.682 85.1277 94.6038C85.2329 94.5256 85.3045 94.4103 85.3278 94.2812C85.3511 94.1522 85.3244 94.0191 85.2532 93.9091L82.556 90.2822Z" fill="#C6C8CC"/>
<path d="M87.0863 96.3701C87.0045 96.2602 86.8824 96.1872 86.7468 96.1673C86.6112 96.1474 86.4733 96.1822 86.3633 96.264C86.2534 96.3458 86.1805 96.468 86.1606 96.6035C86.1407 96.7391 86.1754 96.8771 86.2573 96.987L87.7885 99.0476C87.8364 99.1122 87.8987 99.1646 87.9705 99.2007C88.0423 99.2368 88.1216 99.2555 88.2019 99.2554C88.313 99.2545 88.421 99.2185 88.5104 99.1526C88.6199 99.0707 88.6925 98.9487 88.7122 98.8134C88.7319 98.6781 88.6971 98.5404 88.6154 98.4307L87.0863 96.3701Z" fill="#C6C8CC"/>
<path d="M77.8245 88.8189C77.7517 88.7028 77.6358 88.6205 77.5022 88.5899C77.3687 88.5594 77.2285 88.5831 77.1125 88.6559C76.9964 88.7287 76.9141 88.8446 76.8835 88.9782C76.8529 89.1117 76.8767 89.2519 76.9495 89.3679L82.7092 98.527C82.7558 98.6008 82.8204 98.6616 82.8969 98.7037C82.9734 98.7458 83.0594 98.7678 83.1467 98.7676C83.2435 98.7684 83.3385 98.741 83.4201 98.6889C83.4776 98.653 83.5274 98.606 83.5666 98.5508C83.6059 98.4956 83.6339 98.4331 83.6489 98.3671C83.664 98.301 83.6658 98.2326 83.6543 98.1658C83.6428 98.099 83.6182 98.0352 83.582 97.9779L77.8245 88.8189Z" fill="#C6C8CC"/>
<path d="M75.3045 90.3128C75.2739 90.2513 75.2313 90.1965 75.1793 90.1516C75.1272 90.1068 75.0668 90.0727 75.0014 90.0516C74.936 90.0304 74.8671 90.0225 74.7986 90.0283C74.7302 90.0341 74.6635 90.0535 74.6027 90.0854C74.5418 90.1173 74.4879 90.161 74.4442 90.214C74.4004 90.267 74.3677 90.3281 74.3479 90.3939C74.3281 90.4597 74.3217 90.5288 74.3289 90.5971C74.3362 90.6655 74.357 90.7317 74.3901 90.7918L75.1754 92.2881C75.2189 92.3717 75.2846 92.4416 75.3653 92.4902C75.4459 92.5389 75.5384 92.5643 75.6326 92.5637C75.7158 92.5644 75.7978 92.5441 75.8711 92.5047C75.9313 92.4735 75.9847 92.4308 76.0283 92.3789C76.0719 92.327 76.1048 92.267 76.1251 92.2023C76.1455 92.1377 76.1528 92.0697 76.1468 92.0022C76.1407 91.9347 76.1213 91.869 76.0898 91.809L75.3045 90.3128Z" fill="#C6C8CC"/>
<path d="M77.9797 95.3965C77.9146 95.2783 77.8056 95.1903 77.6763 95.1513C77.547 95.1124 77.4076 95.1258 77.288 95.1884C77.1684 95.2511 77.0781 95.3581 77.0365 95.4866C76.9949 95.615 77.0052 95.7547 77.0654 95.8756L78.9729 99.5134C79.0163 99.597 79.082 99.6669 79.1627 99.7156C79.2433 99.7642 79.3359 99.7896 79.4301 99.789C79.5133 99.79 79.5954 99.7697 79.6685 99.73C79.7287 99.6988 79.7821 99.6561 79.8257 99.6042C79.8693 99.5523 79.9022 99.4923 79.9226 99.4277C79.9429 99.363 79.9502 99.295 79.9442 99.2275C79.9381 99.16 79.9188 99.0944 79.8872 99.0344L77.9797 95.3965Z" fill="#C6C8CC"/>
<path d="M72.0232 91.3366C71.9608 91.3633 71.9043 91.402 71.857 91.4506C71.8096 91.4991 71.7722 91.5565 71.747 91.6195C71.7219 91.6825 71.7093 91.7498 71.7102 91.8176C71.711 91.8854 71.7252 91.9524 71.7519 92.0148L73.3991 95.8669C73.4555 95.9888 73.557 96.0839 73.6823 96.1321C73.8076 96.1803 73.9467 96.1778 74.0701 96.1252C74.1936 96.0725 74.2917 95.9739 74.3437 95.8501C74.3957 95.7264 74.3974 95.5873 74.3485 95.4623L72.6948 91.5991C72.6392 91.4764 72.5379 91.3802 72.4124 91.3312C72.2869 91.2822 72.1472 91.2841 72.0232 91.3366Z" fill="#C6C8CC"/>
<path d="M69.9429 92.6929C69.8991 92.5626 69.8053 92.4551 69.6822 92.394C69.5592 92.3329 69.4169 92.3231 69.2866 92.3669C69.1564 92.4107 69.0489 92.5045 68.9877 92.6276C68.9266 92.7506 68.9169 92.8929 68.9607 93.0232L74.3354 109.014C74.3704 109.116 74.4365 109.205 74.5243 109.267C74.6122 109.33 74.7174 109.364 74.8254 109.364C74.8811 109.364 74.9364 109.355 74.9894 109.338C75.054 109.316 75.1137 109.282 75.1651 109.237C75.2164 109.193 75.2584 109.138 75.2885 109.077C75.3186 109.016 75.3363 108.95 75.3405 108.882C75.3448 108.814 75.3355 108.746 75.3132 108.681L69.9429 92.6929Z" fill="#C6C8CC"/>
<path d="M67.4557 94.7558L67.156 93.5592C67.1434 93.4897 67.1167 93.4236 67.0775 93.3648C67.0383 93.3061 66.9875 93.256 66.9281 93.2177C66.8688 93.1794 66.8023 93.1537 66.7326 93.1421C66.6629 93.1305 66.5917 93.1334 66.5231 93.1505C66.4546 93.1676 66.3903 93.1985 66.3343 93.2415C66.2782 93.2844 66.2315 93.3384 66.1971 93.4001C66.1628 93.4617 66.1414 93.5298 66.1344 93.6001C66.1274 93.6704 66.1348 93.7413 66.1564 93.8086L66.456 95.0073C66.4842 95.1184 66.5485 95.2169 66.6388 95.2874C66.7291 95.3579 66.8402 95.3963 66.9548 95.3967C66.9976 95.397 67.0402 95.3919 67.0817 95.3814C67.2141 95.3478 67.3279 95.2631 67.398 95.1459C67.4681 95.0286 67.4889 94.8883 67.4557 94.7558Z" fill="#C6C8CC"/>
<path d="M69.2057 101.74L68.1119 97.3653C68.0726 97.2394 67.9865 97.1334 67.8715 97.0689C67.7564 97.0045 67.6211 96.9865 67.4932 97.0187C67.3653 97.0508 67.2546 97.1307 67.1838 97.242C67.1129 97.3532 67.0873 97.4873 67.1122 97.6168L68.206 101.992C68.2342 102.103 68.2988 102.202 68.3896 102.273C68.4803 102.343 68.592 102.381 68.7069 102.381C68.749 102.382 68.7909 102.376 68.8316 102.366C68.9641 102.332 69.0778 102.248 69.1479 102.13C69.218 102.013 69.2388 101.873 69.2057 101.74Z" fill="#C6C8CC"/>
<path d="M69.9516 104.718C69.9183 104.585 69.8335 104.471 69.716 104.4C69.5985 104.33 69.4578 104.309 69.3249 104.342C69.1921 104.376 69.0779 104.461 69.0075 104.578C68.9372 104.696 68.9164 104.836 68.9498 104.969L69.5754 107.461C69.6031 107.572 69.6672 107.671 69.7576 107.742C69.8479 107.813 69.9593 107.852 70.0741 107.852C70.1168 107.851 70.1593 107.846 70.201 107.837C70.3335 107.803 70.4472 107.719 70.5173 107.601C70.5874 107.484 70.6082 107.344 70.5751 107.211L69.9516 104.718Z" fill="#C6C8CC"/>
<path d="M64.3057 94.1891C64.2816 94.0548 64.2058 93.9354 64.0945 93.8564C63.9832 93.7774 63.8454 93.7453 63.7107 93.767C63.644 93.7781 63.5802 93.8023 63.5229 93.8381C63.4655 93.8739 63.4158 93.9207 63.3766 93.9758C63.3374 94.0309 63.3094 94.0931 63.2943 94.159C63.2792 94.2249 63.2772 94.2931 63.2885 94.3598L65.0822 105.03C65.1019 105.152 65.1638 105.262 65.2571 105.342C65.3504 105.422 65.469 105.467 65.5919 105.468C65.6203 105.471 65.6489 105.471 65.6772 105.468C65.7441 105.457 65.8082 105.433 65.8658 105.397C65.9233 105.362 65.9733 105.315 66.0127 105.26C66.0521 105.205 66.0803 105.142 66.0956 105.076C66.1108 105.01 66.1129 104.942 66.1016 104.875L64.3057 94.1891Z" fill="#C6C8CC"/>
<path d="M61.0857 96.8447C61.1531 96.839 61.2187 96.8199 61.2787 96.7888C61.3388 96.7576 61.392 96.7148 61.4355 96.663C61.479 96.6112 61.5119 96.5513 61.5322 96.4868C61.5524 96.4222 61.5598 96.3543 61.5538 96.2869L61.405 94.6026C61.3894 94.4693 61.3224 94.3473 61.2183 94.2626C61.1142 94.1778 60.9812 94.137 60.8475 94.1486C60.7138 94.1603 60.5899 94.2236 60.502 94.325C60.4142 94.4265 60.3693 94.5582 60.3769 94.6922L60.5279 96.3766C60.5383 96.505 60.5968 96.6248 60.6917 96.712C60.7866 96.7992 60.9109 96.8474 61.0397 96.8469L61.0857 96.8447Z" fill="#C6C8CC"/>
<path d="M61.3591 99.8526C61.2228 99.8648 61.0969 99.9306 61.0091 100.036C60.9213 100.141 60.8789 100.276 60.891 100.413L61.2541 104.503C61.2656 104.631 61.3244 104.75 61.4191 104.837C61.5137 104.924 61.6374 104.973 61.766 104.974H61.8141C61.95 104.961 62.0756 104.896 62.1633 104.791C62.251 104.687 62.2938 104.552 62.2823 104.416L61.9191 100.323C61.9063 100.187 61.8404 100.061 61.7356 99.9728C61.6308 99.8848 61.4956 99.8416 61.3591 99.8526Z" fill="#C6C8CC"/>
<path d="M57.9707 94.2788C57.9029 94.2794 57.8359 94.2933 57.7735 94.3198C57.711 94.3463 57.6545 94.3848 57.6069 94.4331C57.5594 94.4814 57.5218 94.5387 57.4964 94.6015C57.471 94.6644 57.4582 94.7316 57.4588 94.7994L57.5048 98.9994C57.5065 99.1354 57.5616 99.2653 57.6581 99.361C57.7547 99.4568 57.885 99.5108 58.021 99.5113C58.0888 99.5105 58.1558 99.4963 58.2181 99.4695C58.2804 99.4428 58.3368 99.404 58.3841 99.3555C58.4315 99.3069 58.4688 99.2495 58.4939 99.1866C58.5191 99.1236 58.5316 99.0563 58.5307 98.9885L58.4847 94.7885C58.483 94.6531 58.4282 94.5238 58.332 94.4285C58.2359 94.3331 58.1061 94.2794 57.9707 94.2788Z" fill="#C6C8CC"/>
<path d="M55.0351 94.1935C54.9675 94.1887 54.8997 94.1973 54.8355 94.2189C54.7713 94.2404 54.712 94.2744 54.661 94.3189C54.61 94.3634 54.5683 94.4176 54.5382 94.4783C54.5082 94.5389 54.4905 94.605 54.486 94.6725L53.3507 111.503C53.3417 111.64 53.3873 111.775 53.4775 111.878C53.5677 111.982 53.6951 112.045 53.832 112.054H53.867C53.9976 112.054 54.1234 112.004 54.2188 111.915C54.3142 111.826 54.3722 111.704 54.381 111.573L55.5141 94.7425C55.5189 94.675 55.5103 94.6072 55.4887 94.543C55.4672 94.4788 55.4332 94.4195 55.3887 94.3685C55.3442 94.3174 55.29 94.2757 55.2293 94.2457C55.1687 94.2157 55.1026 94.1979 55.0351 94.1935Z" fill="#C6C8CC"/>
<path d="M52.1651 93.8982C52.0294 93.8788 51.8915 93.914 51.7816 93.996C51.6718 94.0779 51.5988 94.2001 51.5788 94.3357L51.4016 95.5564C51.3917 95.6236 51.3952 95.6921 51.4118 95.758C51.4285 95.8239 51.458 95.8859 51.4986 95.9403C51.5393 95.9948 51.5903 96.0407 51.6487 96.0754C51.7071 96.1101 51.7719 96.133 51.8391 96.1426C51.8639 96.1447 51.8888 96.1447 51.9135 96.1426C52.0368 96.1429 52.1561 96.0989 52.2497 96.0186C52.3432 95.9383 52.4048 95.827 52.4232 95.7051L52.6026 94.4845C52.6125 94.4172 52.609 94.3487 52.5924 94.2828C52.5757 94.2169 52.5462 94.155 52.5056 94.1005C52.4649 94.046 52.4139 94.0001 52.3555 93.9654C52.2971 93.9307 52.2323 93.9079 52.1651 93.8982Z" fill="#C6C8CC"/>
<path d="M51.5985 97.768C51.4628 97.7486 51.3249 97.7837 51.2151 97.8657C51.1052 97.9477 51.0323 98.0699 51.0123 98.2055L50.356 102.677C50.3461 102.744 50.3496 102.812 50.3662 102.878C50.3829 102.944 50.4124 103.006 50.453 103.061C50.4937 103.115 50.5447 103.161 50.6031 103.196C50.6615 103.23 50.7262 103.253 50.7935 103.263C50.819 103.265 50.8446 103.265 50.8701 103.263C50.9934 103.263 51.1127 103.219 51.2063 103.139C51.2998 103.059 51.3614 102.947 51.3798 102.825L52.036 98.352C52.0554 98.2166 52.0202 98.079 51.9382 97.9695C51.8561 97.8599 51.734 97.7875 51.5985 97.768Z" fill="#C6C8CC"/>
<path d="M50.4983 105.273C50.3629 105.254 50.2256 105.29 50.1162 105.372C50.0068 105.454 49.9342 105.575 49.9142 105.711L49.5423 108.25C49.5324 108.317 49.5359 108.386 49.5526 108.452C49.5693 108.517 49.5988 108.579 49.6395 108.633C49.6801 108.688 49.7311 108.733 49.7896 108.768C49.848 108.802 49.9126 108.825 49.9798 108.834C50.0053 108.837 50.0309 108.837 50.0564 108.834C50.1795 108.834 50.2983 108.79 50.3917 108.709C50.485 108.629 50.5469 108.518 50.5661 108.397L50.938 105.857C50.9567 105.722 50.921 105.584 50.8386 105.475C50.7562 105.365 50.6339 105.293 50.4983 105.273Z" fill="#C6C8CC"/>
<path d="M49.3366 93.3579C49.2029 93.3278 49.0627 93.3518 48.9467 93.4248C48.8307 93.4978 48.7483 93.6137 48.7176 93.7472L46.3113 104.295C46.2961 104.361 46.2941 104.43 46.3053 104.496C46.3165 104.563 46.3408 104.627 46.3768 104.684C46.4128 104.742 46.4597 104.791 46.5149 104.83C46.5701 104.869 46.6325 104.897 46.6985 104.912C46.7366 104.921 46.7754 104.925 46.8144 104.925C46.9312 104.925 47.0445 104.886 47.1359 104.813C47.2273 104.74 47.2913 104.639 47.3176 104.525L49.7238 93.9748C49.739 93.9088 49.7411 93.8405 49.7298 93.7738C49.7186 93.7071 49.6943 93.6432 49.6583 93.5859C49.6223 93.5286 49.5754 93.479 49.5202 93.4398C49.465 93.4007 49.4026 93.3728 49.3366 93.3579Z" fill="#C6C8CC"/>
<path d="M46.3901 94.8805L46.8932 93.2661C46.9178 93.2003 46.9286 93.1302 46.9252 93.0601C46.9217 92.99 46.9039 92.9213 46.873 92.8583C46.8421 92.7953 46.7987 92.7392 46.7453 92.6935C46.692 92.6479 46.6299 92.6136 46.5629 92.5927C46.4959 92.5718 46.4253 92.5649 46.3555 92.5722C46.2856 92.5796 46.2181 92.6011 46.1568 92.6355C46.0956 92.6698 46.0421 92.7163 45.9994 92.7721C45.9568 92.8279 45.926 92.8917 45.9089 92.9598L45.4035 94.572C45.3822 94.6374 45.374 94.7063 45.3795 94.7748C45.3851 94.8433 45.4042 94.9101 45.4357 94.9711C45.4673 95.0322 45.5106 95.0864 45.5633 95.1305C45.616 95.1747 45.677 95.2079 45.7426 95.2283C45.7929 95.2437 45.8453 95.2518 45.8979 95.2523C46.009 95.2512 46.1167 95.2145 46.2053 95.1476C46.2939 95.0806 46.3587 94.987 46.3901 94.8805Z" fill="#C6C8CC"/>
<path d="M44.8414 98.1005C44.776 98.0788 44.707 98.0704 44.6384 98.0758C44.5698 98.0812 44.503 98.1002 44.4418 98.1318C44.3807 98.1634 44.3265 98.2069 44.2824 98.2598C44.2383 98.3126 44.2052 98.3737 44.1851 98.4395L42.9601 102.36C42.9384 102.425 42.9301 102.494 42.9354 102.562C42.9408 102.631 42.9599 102.698 42.9915 102.759C43.023 102.82 43.0665 102.874 43.1194 102.918C43.1722 102.963 43.2334 102.996 43.2992 103.016C43.3489 103.031 43.4005 103.038 43.4523 103.038C43.5621 103.038 43.6689 103.003 43.7574 102.938C43.846 102.873 43.9115 102.781 43.9445 102.677L45.1695 98.7567C45.1914 98.6921 45.2003 98.6238 45.1956 98.5557C45.1909 98.4877 45.1728 98.4212 45.1423 98.3602C45.1118 98.2991 45.0695 98.2448 45.0178 98.2002C44.9662 98.1556 44.9062 98.1217 44.8414 98.1005Z" fill="#C6C8CC"/>
<path d="M43.8482 91.645C43.7853 91.6197 43.718 91.6071 43.6502 91.6078C43.5824 91.6085 43.5154 91.6226 43.4531 91.6492C43.3907 91.6758 43.3342 91.7145 43.2868 91.7629C43.2393 91.8114 43.2019 91.8687 43.1766 91.9316L41.617 95.8297C41.5917 95.8925 41.5791 95.9596 41.5798 96.0272C41.5806 96.0949 41.5947 96.1617 41.6213 96.2239C41.6479 96.2861 41.6866 96.3424 41.735 96.3896C41.7834 96.4368 41.8407 96.4741 41.9035 96.4991C41.9646 96.5242 42.03 96.5369 42.096 96.5363C42.1988 96.5362 42.2991 96.5052 42.3841 96.4475C42.4691 96.3898 42.5349 96.308 42.5729 96.2125L44.1391 92.3144C44.1646 92.2514 44.1772 92.184 44.1763 92.1161C44.1754 92.0481 44.161 91.9811 44.1339 91.9188C44.1069 91.8565 44.0676 91.8002 44.0186 91.7532C43.9695 91.7062 43.9116 91.6694 43.8482 91.645Z" fill="#C6C8CC"/>
<path d="M41.1795 90.4507C41.0564 90.3901 40.9144 90.3806 40.7844 90.4245C40.6544 90.4684 40.5471 90.562 40.486 90.6848L32.972 105.779C32.9376 105.84 32.9159 105.907 32.9084 105.977C32.9008 106.046 32.9075 106.117 32.9281 106.184C32.9486 106.251 32.9826 106.313 33.0279 106.366C33.0732 106.42 33.1289 106.463 33.1916 106.494C33.2543 106.526 33.3227 106.544 33.3927 106.548C33.4626 106.552 33.5326 106.541 33.5984 106.517C33.6642 106.493 33.7245 106.456 33.7755 106.408C33.8265 106.36 33.8672 106.302 33.8951 106.238L41.4114 91.1442C41.4722 91.0214 41.4819 90.8796 41.4385 90.7496C41.395 90.6197 41.3019 90.5122 41.1795 90.4507Z" fill="#C6C8CC"/>
<path d="M37.9485 89.2497L37.3141 90.3084C37.2792 90.3664 37.2561 90.4307 37.2461 90.4977C37.2361 90.5646 37.2395 90.6329 37.2559 90.6985C37.2724 90.7642 37.3017 90.8259 37.3421 90.8802C37.3824 90.9345 37.4332 90.9803 37.4913 91.015C37.5709 91.0638 37.6626 91.0895 37.756 91.0894C37.8444 91.0886 37.9311 91.065 38.0077 91.021C38.0844 90.9769 38.1483 90.9138 38.1935 90.8378L38.8278 89.7791C38.8821 89.664 38.8919 89.533 38.8552 89.4112C38.8185 89.2894 38.7379 89.1856 38.6291 89.1198C38.5203 89.0539 38.3909 89.0308 38.266 89.0548C38.1411 89.0788 38.0295 89.1482 37.9528 89.2497H37.9485Z" fill="#C6C8CC"/>
<path d="M35.9295 92.6075L33.6107 96.4815C33.5758 96.5397 33.5526 96.6041 33.5426 96.6713C33.5326 96.7384 33.5359 96.8068 33.5524 96.8726C33.5689 96.9384 33.5981 97.0004 33.6385 97.0549C33.6789 97.1094 33.7297 97.1554 33.7879 97.1903C33.8458 97.2254 33.9101 97.2488 33.9771 97.2589C34.0441 97.2691 34.1125 97.2658 34.1782 97.2493C34.2439 97.2328 34.3057 97.2035 34.36 97.1629C34.4143 97.1224 34.46 97.0714 34.4945 97.0131L36.8198 93.1368C36.869 93.0224 36.8752 92.8939 36.8371 92.7753C36.799 92.6566 36.7194 92.5557 36.6127 92.4912C36.5061 92.4267 36.3798 92.403 36.257 92.4243C36.1342 92.4457 36.0234 92.5107 35.9448 92.6075H35.9295Z" fill="#C6C8CC"/>
<path d="M32.7401 98.9295C32.6819 98.8946 32.6174 98.8714 32.5503 98.8614C32.4832 98.8514 32.4148 98.8547 32.349 98.8712C32.2832 98.8876 32.2212 98.9169 32.1667 98.9573C32.1122 98.9977 32.0662 99.0485 32.0313 99.1067L30.7188 101.307C30.6839 101.365 30.6608 101.43 30.6507 101.497C30.6407 101.564 30.6441 101.633 30.6605 101.698C30.677 101.764 30.7062 101.826 30.7466 101.881C30.7871 101.935 30.8378 101.981 30.896 102.016C30.9759 102.064 31.0675 102.089 31.1607 102.088C31.2489 102.088 31.3356 102.065 31.4122 102.021C31.4889 101.977 31.553 101.915 31.5982 101.839L32.9107 99.6361C32.9812 99.5196 33.0028 99.38 32.9708 99.2477C32.9389 99.1153 32.8559 99.001 32.7401 98.9295Z" fill="#C6C8CC"/>
<path d="M36.2466 87.4867C36.135 87.4075 35.9964 87.376 35.8614 87.3989C35.7265 87.4219 35.6062 87.4975 35.527 87.6092L29.2554 96.4248C29.2002 96.5018 29.1673 96.5925 29.1604 96.687C29.1535 96.7815 29.1728 96.8761 29.2163 96.9603C29.2597 97.0445 29.3256 97.115 29.4066 97.1641C29.4876 97.2132 29.5807 97.239 29.6754 97.2386C29.7579 97.2388 29.8392 97.219 29.9123 97.1809C29.9855 97.1428 30.0483 97.0875 30.0954 97.0198L36.367 88.2108C36.4067 88.1554 36.4351 88.0927 36.4505 88.0262C36.466 87.9598 36.4682 87.891 36.457 87.8238C36.4458 87.7565 36.4215 87.6921 36.3854 87.6343C36.3493 87.5765 36.3022 87.5263 36.2466 87.4867Z" fill="#C6C8CC"/>
<path d="M33.2323 85.8045L32.1385 87.0995C32.0653 87.2057 32.0345 87.3355 32.0522 87.4633C32.0699 87.5911 32.1348 87.7076 32.2342 87.79C32.3335 87.8723 32.4601 87.9144 32.589 87.9081C32.7178 87.9018 32.8396 87.8474 32.9304 87.7557L34.0242 86.4585C34.0974 86.3523 34.1282 86.2225 34.1105 86.0947C34.0928 85.9669 34.0279 85.8504 33.9285 85.768C33.8292 85.6857 33.7026 85.6436 33.5738 85.6499C33.4449 85.6563 33.3231 85.7106 33.2323 85.8023V85.8045Z" fill="#C6C8CC"/>
<path d="M30.2769 90.1335C30.1715 90.046 30.0357 90.0037 29.8992 90.016C29.7627 90.0283 29.6366 90.0942 29.5485 90.1992L26.9235 93.3513C26.8799 93.4033 26.8471 93.4633 26.8268 93.5279C26.8065 93.5926 26.7992 93.6606 26.8053 93.7281C26.8114 93.7956 26.8307 93.8612 26.8623 93.9212C26.8939 93.9812 26.937 94.0343 26.9891 94.0776C27.0815 94.1556 27.1986 94.1982 27.3194 94.1979C27.395 94.1978 27.4697 94.1811 27.5381 94.1489C27.6065 94.1168 27.667 94.0701 27.7154 94.012L30.3404 90.8598C30.3841 90.808 30.4171 90.7481 30.4376 90.6835C30.4581 90.619 30.4656 90.551 30.4597 90.4835C30.4538 90.416 30.4346 90.3503 30.4032 90.2903C30.3719 90.2302 30.329 90.177 30.2769 90.1335Z" fill="#C6C8CC"/>
<path d="M31.0907 83.7984L28.1529 86.8019C28.0572 86.8999 28.0043 87.032 28.006 87.169C28.0076 87.306 28.0636 87.4368 28.1617 87.5325C28.2597 87.6282 28.3918 87.6811 28.5288 87.6795C28.6658 87.6778 28.7966 87.6218 28.8923 87.5238L31.8279 84.5203C31.8783 84.4726 31.9186 84.4152 31.9463 84.3515C31.974 84.2878 31.9886 84.2192 31.9891 84.1498C31.9897 84.0804 31.9763 84.0116 31.9496 83.9474C31.923 83.8833 31.8837 83.8252 31.8341 83.7767C31.7845 83.7281 31.7256 83.69 31.6609 83.6647C31.5963 83.6394 31.5272 83.6275 31.4578 83.6295C31.3884 83.6315 31.3201 83.6475 31.257 83.6766C31.194 83.7056 31.1374 83.7471 31.0907 83.7984Z" fill="#C6C8CC"/>
<path d="M29.8045 81.6613C29.7142 81.5583 29.5868 81.4954 29.4502 81.4864C29.3136 81.4773 29.179 81.5229 29.076 81.6131L16.3667 92.7038C16.2634 92.794 16.2002 92.9215 16.191 93.0583C16.1817 93.1951 16.2272 93.33 16.3174 93.4333C16.4077 93.5366 16.5352 93.5998 16.672 93.609C16.8088 93.6182 16.9437 93.5727 17.047 93.4825L29.7542 82.3897C29.8056 82.3453 29.8476 82.2912 29.878 82.2305C29.9084 82.1698 29.9264 82.1037 29.9311 82.036C29.9358 81.9682 29.927 81.9003 29.9053 81.8359C29.8835 81.7716 29.8493 81.7123 29.8045 81.6613Z" fill="#C6C8CC"/>
<path d="M26.591 80.9919C26.7012 80.9921 26.8086 80.9568 26.8972 80.8913L27.8882 80.1541C27.9456 80.1148 27.9945 80.0643 28.0319 80.0057C28.0694 79.947 28.0946 79.8814 28.106 79.8128C28.1174 79.7441 28.1148 79.6739 28.0984 79.6063C28.082 79.5387 28.0521 79.475 28.0105 79.4193C27.9689 79.3635 27.9165 79.3167 27.8563 79.2817C27.7962 79.2468 27.7296 79.2243 27.6605 79.2157C27.5915 79.2071 27.5214 79.2125 27.4545 79.2317C27.3876 79.2509 27.3253 79.2834 27.2713 79.3272L26.2826 80.0622C26.1958 80.1271 26.1316 80.2177 26.0992 80.321C26.0667 80.4244 26.0676 80.5354 26.1017 80.6382C26.1359 80.7411 26.2015 80.8306 26.2893 80.894C26.3771 80.9575 26.4826 80.9918 26.591 80.9919Z" fill="#C6C8CC"/>
<path d="M24.1301 81.6482L20.5054 84.3498C20.4186 84.4147 20.3545 84.5052 20.322 84.6086C20.2896 84.712 20.2905 84.823 20.3246 84.9258C20.3587 85.0286 20.4243 85.1181 20.5121 85.1816C20.5999 85.2451 20.7055 85.2793 20.8138 85.2795C20.9245 85.28 21.0322 85.2438 21.1201 85.1767L24.747 82.4795C24.8044 82.4402 24.8533 82.3897 24.8907 82.3311C24.9281 82.2724 24.9533 82.2068 24.9648 82.1381C24.9762 82.0695 24.9736 81.9993 24.9572 81.9317C24.9408 81.864 24.9109 81.8004 24.8693 81.7447C24.8277 81.6889 24.7752 81.6421 24.7151 81.6071C24.655 81.5721 24.5884 81.5497 24.5193 81.5411C24.4503 81.5325 24.3802 81.5379 24.3133 81.5571C24.2464 81.5763 24.1841 81.6087 24.1301 81.6526V81.6482Z" fill="#C6C8CC"/>
<path d="M16.5985 88.5409L18.6592 87.0096C18.7166 86.9703 18.7655 86.9199 18.8029 86.8612C18.8404 86.8026 18.8655 86.7369 18.877 86.6683C18.8884 86.5997 18.8858 86.5294 18.8694 86.4618C18.853 86.3942 18.8231 86.3306 18.7815 86.2748C18.7399 86.219 18.6875 86.1723 18.6273 86.1373C18.5672 86.1023 18.5006 86.0798 18.4315 86.0712C18.3625 86.0626 18.2924 86.0681 18.2255 86.0872C18.1586 86.1064 18.0963 86.1389 18.0423 86.1828L15.9817 87.714C15.893 87.7783 15.8272 87.8691 15.7935 87.9733C15.7599 88.0775 15.7603 88.1897 15.7946 88.2937C15.829 88.3977 15.8955 88.4881 15.9845 88.5517C16.0736 88.6154 16.1806 88.6492 16.2901 88.6481C16.4019 88.6473 16.5103 88.6096 16.5985 88.5409Z" fill="#C6C8CC"/>
<path d="M26.3723 77.037C26.3364 76.9795 26.2894 76.9297 26.2342 76.8904C26.179 76.8512 26.1165 76.8232 26.0505 76.8082C25.9844 76.7931 25.916 76.7913 25.8492 76.8028C25.7824 76.8143 25.7186 76.8388 25.6613 76.8751L16.5023 82.6348C16.4072 82.6943 16.3341 82.7832 16.2941 82.888C16.254 82.9928 16.2492 83.1078 16.2804 83.2156C16.3115 83.3234 16.3769 83.4181 16.4667 83.4854C16.5565 83.5526 16.6657 83.5889 16.7779 83.5885C16.8749 83.5885 16.9699 83.5604 17.0513 83.5076L26.2104 77.7479C26.326 77.675 26.408 77.5592 26.4383 77.4259C26.4686 77.2926 26.4449 77.1528 26.3723 77.037Z" fill="#C6C8CC"/>
<path d="M22.9816 76.081C23.0646 76.0804 23.1463 76.0602 23.22 76.022L24.7163 75.2367C24.7778 75.2061 24.8326 75.1635 24.8775 75.1115C24.9223 75.0594 24.9563 74.9989 24.9775 74.9336C24.9987 74.8682 25.0066 74.7993 25.0008 74.7308C24.995 74.6623 24.9756 74.5957 24.9437 74.5348C24.9118 74.474 24.8681 74.4201 24.8151 74.3763C24.7621 74.3326 24.7009 74.2999 24.6351 74.2801C24.5693 74.2603 24.5003 74.2538 24.4319 74.2611C24.3636 74.2683 24.2974 74.2891 24.2372 74.3223L22.741 75.1076C22.6387 75.1613 22.5573 75.2477 22.51 75.353C22.4626 75.4583 22.4519 75.5765 22.4796 75.6887C22.5073 75.8008 22.5718 75.9004 22.6628 75.9715C22.7539 76.0427 22.8661 76.0812 22.9816 76.081Z" fill="#C6C8CC"/>
<path d="M19.6326 77.9032C19.7508 77.838 19.8389 77.7291 19.8778 77.5998C19.9167 77.4705 19.9034 77.3311 19.8407 77.2115C19.778 77.0919 19.671 77.0016 19.5425 76.9599C19.4141 76.9183 19.2744 76.9287 19.1535 76.9888L15.5157 78.8963C15.4134 78.95 15.3321 79.0364 15.2847 79.1417C15.2373 79.2471 15.2266 79.3653 15.2543 79.4774C15.282 79.5895 15.3466 79.6891 15.4376 79.7603C15.5286 79.8314 15.6408 79.87 15.7563 79.8698C15.8393 79.8691 15.921 79.8489 15.9948 79.8107L19.6326 77.9032Z" fill="#C6C8CC"/>
<path d="M18.8801 73.9921C18.9068 74.0544 18.9455 74.1109 18.994 74.1583C19.0426 74.2057 19.1 74.243 19.1629 74.2682C19.2259 74.2934 19.2932 74.3059 19.3611 74.3051C19.4289 74.3042 19.4959 74.29 19.5582 74.2633L23.4213 72.6117C23.4931 72.5931 23.5601 72.5593 23.6176 72.5124C23.6751 72.4656 23.7219 72.407 23.7547 72.3404C23.7875 72.2739 23.8056 72.2011 23.8078 72.127C23.8099 72.0528 23.7961 71.9791 23.7672 71.9108C23.7383 71.8425 23.695 71.7812 23.6403 71.7311C23.5855 71.6811 23.5207 71.6434 23.4501 71.6206C23.3795 71.5979 23.3048 71.5906 23.2311 71.5993C23.1575 71.608 23.0866 71.6325 23.0232 71.6711L19.1513 73.3358C19.0307 73.3897 18.9354 73.4878 18.885 73.6099C18.8345 73.732 18.8328 73.8687 18.8801 73.9921Z" fill="#C6C8CC"/>
<path d="M22.6623 69.2144C22.6408 69.1497 22.6067 69.09 22.5621 69.0386C22.5174 68.9872 22.463 68.9451 22.402 68.9148C22.341 68.8845 22.2746 68.8666 22.2066 68.862C22.1387 68.8575 22.0705 68.8665 22.006 68.8884L6.01539 74.2653C5.90043 74.3051 5.80322 74.3842 5.74091 74.4887C5.6786 74.5932 5.65519 74.7163 5.6748 74.8364C5.69442 74.9565 5.75581 75.0657 5.84814 75.1449C5.94046 75.2242 6.0578 75.2682 6.17945 75.2694C6.23588 75.2692 6.29196 75.2604 6.3457 75.2431L22.3341 69.8662C22.3986 69.8452 22.4583 69.8116 22.5098 69.7674C22.5612 69.7232 22.6034 69.6692 22.6339 69.6086C22.6644 69.548 22.6827 69.482 22.6875 69.4143C22.6924 69.3467 22.6838 69.2787 22.6623 69.2144Z" fill="#C6C8CC"/>
<path d="M20.1466 67.3966C20.1895 67.3961 20.2321 67.3903 20.2735 67.3791L21.4701 67.0816C21.5365 67.0658 21.5991 67.037 21.6543 66.9969C21.7094 66.9567 21.7561 66.906 21.7916 66.8477C21.8271 66.7894 21.8506 66.7247 21.8609 66.6572C21.8712 66.5897 21.868 66.5209 21.8515 66.4547C21.8351 66.3884 21.8056 66.3261 21.7649 66.2714C21.7242 66.2166 21.673 66.1704 21.6143 66.1356C21.5557 66.1007 21.4907 66.0778 21.4231 66.0682C21.3555 66.0586 21.2867 66.0625 21.2207 66.0797L20.0219 66.3794C19.8997 66.4099 19.7927 66.484 19.7213 66.5879C19.6499 66.6917 19.619 66.8181 19.6343 66.9432C19.6497 67.0682 19.7102 67.1834 19.8046 67.2669C19.899 67.3504 20.0206 67.3966 20.1466 67.3966Z" fill="#C6C8CC"/>
<path d="M17.421 67.0314L13.046 68.1251C12.9256 68.1572 12.8209 68.2318 12.7512 68.335C12.6815 68.4383 12.6514 68.5633 12.6666 68.6869C12.6818 68.8106 12.7412 68.9246 12.8339 69.0079C12.9265 69.0912 13.0461 69.1381 13.1707 69.1402C13.2135 69.1405 13.2561 69.1353 13.2976 69.1248L17.6726 68.0311C17.7984 67.9917 17.9045 67.9057 17.9689 67.7907C18.0334 67.6756 18.0514 67.5403 18.0192 67.4124C17.987 67.2845 17.9071 67.1738 17.7959 67.1029C17.6846 67.0321 17.5505 67.0065 17.421 67.0314Z" fill="#C6C8CC"/>
<path d="M10.0601 68.8754L7.5707 69.4989C7.44678 69.5273 7.33779 69.6007 7.2648 69.7048C7.19181 69.8089 7.16 69.9364 7.1755 70.0626C7.191 70.1888 7.25272 70.3048 7.34874 70.3881C7.44476 70.4715 7.56826 70.5163 7.69539 70.5139C7.73744 70.5142 7.77935 70.5091 7.82007 70.4986L10.3116 69.8751C10.3806 69.8619 10.4462 69.8347 10.5043 69.7952C10.5624 69.7557 10.6118 69.7048 10.6496 69.6455C10.6873 69.5863 10.7125 69.5199 10.7238 69.4506C10.735 69.3812 10.7319 69.3103 10.7148 69.2422C10.6976 69.1741 10.6668 69.1102 10.6241 69.0544C10.5814 68.9986 10.5277 68.9521 10.4664 68.9178C10.4051 68.8834 10.3375 68.862 10.2676 68.8547C10.1977 68.8474 10.1271 68.8545 10.0601 68.8754Z" fill="#C6C8CC"/>
<path d="M21.2732 63.6363C21.2502 63.5013 21.1747 63.3809 21.0632 63.3014C20.9517 63.2219 20.8133 63.1898 20.6782 63.2119L10.0098 65.0079C9.88398 65.0312 9.77133 65.1005 9.69368 65.2022C9.61604 65.3039 9.57893 65.4308 9.58955 65.5583C9.60018 65.6858 9.65778 65.8049 9.75119 65.8923C9.8446 65.9798 9.96716 66.0294 10.0951 66.0316C10.1235 66.0338 10.152 66.0338 10.1804 66.0316L20.8357 64.2291C20.9038 64.2198 20.9693 64.1969 21.0283 64.1619C21.0874 64.1268 21.1388 64.0803 21.1796 64.0251C21.2204 63.9698 21.2497 63.9069 21.2658 63.8401C21.2818 63.7734 21.2844 63.7041 21.2732 63.6363Z" fill="#C6C8CC"/>
<path d="M18.6482 60.4578C18.5119 60.4636 18.3834 60.5233 18.2911 60.6238C18.1988 60.7244 18.1502 60.8574 18.156 60.9938C18.1618 61.1301 18.2216 61.2585 18.3221 61.3508C18.4226 61.4431 18.5556 61.4917 18.692 61.4859H18.7379L20.4223 61.335C20.5583 61.3228 20.684 61.2571 20.7715 61.1523C20.8591 61.0475 20.9015 60.9121 20.8893 60.7761C20.8771 60.64 20.8114 60.5144 20.7066 60.4268C20.6018 60.3392 20.4665 60.2969 20.3304 60.3091L18.6482 60.4578Z" fill="#C6C8CC"/>
<path d="M10.6157 62.2057L14.7107 61.8426C14.8447 61.8275 14.9675 61.7605 15.0528 61.6561C15.138 61.5516 15.1791 61.418 15.1671 61.2837C15.155 61.1493 15.091 61.0251 14.9885 60.9374C14.8861 60.8497 14.7534 60.8056 14.6188 60.8145L10.5282 61.1776C10.3963 61.1898 10.2741 61.2522 10.1869 61.3519C10.0997 61.4517 10.0542 61.5812 10.0598 61.7136C10.0654 61.846 10.1217 61.9711 10.2171 62.0631C10.3124 62.1552 10.4395 62.207 10.572 62.2079L10.6157 62.2057Z" fill="#C6C8CC"/>
<path d="M20.2298 57.3801L16.0232 57.4261C15.8924 57.4346 15.7697 57.4926 15.6801 57.5882C15.5904 57.6839 15.5406 57.8101 15.5406 57.9412C15.5406 58.0723 15.5904 58.1985 15.6801 58.2942C15.7697 58.3899 15.8924 58.4478 16.0232 58.4564L20.2232 58.4104C20.2937 58.415 20.3644 58.4051 20.4309 58.3813C20.4973 58.3575 20.5582 58.3203 20.6098 58.272C20.6613 58.2237 20.7024 58.1654 20.7305 58.1006C20.7586 58.0358 20.7731 57.9659 20.7731 57.8953C20.7731 57.8247 20.7586 57.7548 20.7305 57.69C20.7024 57.6252 20.6613 57.5668 20.6098 57.5185C20.5582 57.4703 20.4973 57.4331 20.4309 57.4093C20.3644 57.3854 20.2937 57.3755 20.2232 57.3801H20.2298Z" fill="#C6C8CC"/>
</svg>
