<svg width="24" height="20" viewBox="0 0 24 20" fill="none" xmlns="http://www.w3.org/2000/svg">
<path d="M3 1L21 19" stroke="#17181A"/>
<path fill-rule="evenodd" clip-rule="evenodd" d="M19.6597 15.5384C22.8047 13.1874 24 10 24 10C24 10 21 2 12 2C10.0891 2 8.44873 2.36064 7.05009 2.92877L7.8241 3.70278C9.0243 3.26828 10.4089 3 12 3C16.1647 3 18.9151 4.83819 20.6455 6.68394C21.5161 7.61266 22.127 8.54334 22.519 9.24026C22.6922 9.54815 22.8216 9.80843 22.9109 10C22.8216 10.1916 22.6922 10.4519 22.519 10.7597C22.127 11.4567 21.5161 12.3873 20.6455 13.3161C20.1613 13.8325 19.5973 14.3483 18.9448 14.8235L19.6597 15.5384ZM15.6835 11.5621C15.8873 11.0822 16 10.5543 16 10C16 7.79086 14.2091 6 12 6C11.4457 6 10.9178 6.11274 10.4379 6.31653L11.2229 7.10161C11.4708 7.03534 11.7313 7 12 7C13.6569 7 15 8.34315 15 10C15 10.2687 14.9647 10.5292 14.8984 10.7771L15.6835 11.5621ZM12.7771 12.8984L13.5621 13.6835C13.0822 13.8873 12.5543 14 12 14C9.79086 14 8 12.2091 8 10C8 9.44573 8.11274 8.91778 8.31653 8.43785L9.10161 9.22294C9.03534 9.47078 9 9.73126 9 10C9 11.6569 10.3431 13 12 13C12.2687 13 12.5292 12.9647 12.7771 12.8984ZM5.05519 5.17651C4.4027 5.65167 3.83869 6.16751 3.35454 6.68394C2.48387 7.61266 1.87297 8.54334 1.48095 9.24026C1.30776 9.54815 1.17841 9.80843 1.08913 10C1.17841 10.1916 1.30776 10.4518 1.48095 10.7597C1.87297 11.4567 2.48387 12.3873 3.35454 13.3161C5.08493 15.1618 7.83529 17 12 17C13.5911 17 14.9757 16.7317 16.1759 16.2972L16.9499 17.0712C15.5513 17.6394 13.9109 18 12 18C3 18 0 10 0 10C0 10 1.19528 6.81259 4.3403 4.46162L5.05519 5.17651Z" fill="#17181A"/>
</svg>
