<svg width="116" height="116" viewBox="0 0 116 116" fill="none" xmlns="http://www.w3.org/2000/svg">
<path d="M90.4687 60.5783V60.5647V60.5488C90.464 60.5382 90.4579 60.5283 90.4506 60.5194C90.4506 60.5012 90.4302 60.4854 90.4211 60.4695C89.6826 59.1215 87.1179 59.5451 85.0743 60.1523L84.7865 60.2384C85.9906 58.8533 87.0866 57.3778 88.0649 55.825C88.8174 54.641 89.5027 53.4156 90.1176 52.1547C91.1235 50.0091 91.2504 48.8242 90.5593 48.3212L90.5458 48.3099H90.5322L90.514 48.2963L90.4755 48.2759L90.4461 48.2601C89.4016 47.6687 87.8497 48.5387 85.2804 51.1578C84.4693 51.987 83.6537 52.8887 82.9332 53.7157V50.503C84.1885 47.6662 85.2542 44.7492 86.1233 41.7713C88.5044 33.4315 87.8066 32.4822 86.9683 32.233C86.2161 32.0065 85.0879 32.3304 82.9332 36.3587V24.3509C82.9339 24.3072 82.9278 24.2636 82.9151 24.2218C82.9116 24.2079 82.9071 24.1942 82.9015 24.181C82.9019 24.1727 82.9019 24.1644 82.9015 24.1561C82.8798 24.1029 82.8491 24.0539 82.8109 24.0111C82.8109 24.0111 82.8109 24.0111 82.8109 24.0111L61.6228 1.35482C61.5832 1.31381 61.5373 1.27939 61.4868 1.25287H61.471C61.4204 1.22861 61.366 1.21328 61.3101 1.20756V1.20756C61.2561 1.19856 61.201 1.19856 61.147 1.20756H61.1198H61.0994C61.053 1.22189 61.0088 1.24247 60.968 1.26873H60.9567L48.1151 9.91209C48.1066 9.91684 48.099 9.92296 48.0925 9.93021L48.0494 9.96646L48.0313 9.98006L38.7943 19.4844C38.7979 17.5755 38.5185 15.6766 37.9651 13.8497L37.9221 13.7093C37.693 12.9612 37.4199 12.2274 37.1042 11.5116C36.7032 10.6484 36.0711 9.5156 35.0515 9.57904C33.8009 9.65834 33.0125 10.9384 32.8086 13.204C32.7122 14.6353 32.7883 16.073 33.0351 17.4861C33.2114 18.4901 33.4506 19.4822 33.7511 20.4563C33.7311 20.4326 33.7099 20.4099 33.6876 20.3883C33.0401 19.7162 32.3342 19.1029 31.5783 18.5554C29.9403 17.4226 29.0861 17.6265 28.6466 18.0072C27.5138 19.0086 28.1391 20.8143 28.8188 22.2779C29.4459 23.5639 30.1668 24.802 30.9757 25.9822C31.883 27.2884 32.8594 28.5454 33.9006 29.7476V29.8654L33.7692 29.7861L33.6808 29.7363C33.0171 29.3441 32.3275 28.9975 31.6168 28.6986C31.1252 28.497 29.6276 27.8876 28.846 28.7326C28.01 29.6389 28.2615 31.0776 29.5529 32.8108C30.1805 33.6281 30.8878 34.3809 31.6644 35.0583C30.8239 35.0945 30.1215 35.3369 29.8179 35.9804C29.7032 36.2248 29.6407 36.4905 29.6345 36.7605C29.6282 37.0304 29.6784 37.2987 29.7817 37.5482C30.3775 39.1069 32.6908 40.455 33.9006 41.0712V87.5165C33.9005 87.5562 33.9051 87.5957 33.9142 87.6344C33.9142 87.6344 33.9142 87.657 33.9142 87.6661C33.9228 87.694 33.9334 87.7212 33.9459 87.7476C33.9462 87.7529 33.9462 87.7582 33.9459 87.7635L43.1398 105.352C43.1906 105.448 43.2696 105.527 43.3664 105.578L59.7514 114.371H59.774C59.79 114.38 59.8067 114.387 59.8239 114.394H59.842L59.8715 114.405C59.9136 114.416 59.957 114.421 60.0006 114.421V114.421C60.0506 114.421 60.1003 114.414 60.1479 114.398C60.1626 114.392 60.177 114.386 60.1909 114.378C60.2176 114.369 60.2433 114.357 60.2679 114.344H60.2793L75.459 103.951C75.5472 103.89 75.6151 103.804 75.6538 103.704L82.8494 85.0493C82.8707 84.9943 82.8822 84.936 82.8834 84.8771C82.8834 84.8771 82.8834 84.8771 82.8834 84.8635V67.0557C83.8236 66.5527 84.7254 66.0316 85.5704 65.4992L85.7811 65.3633C86.3906 64.9781 87.5211 64.2622 88.4999 63.51C89.678 62.6196 90.8176 61.5842 90.4302 60.6304L90.4687 60.5783ZM85.0312 64.5794C84.3515 65.003 83.6492 65.4199 82.9129 65.8277C82.5655 66.018 82.2128 66.2061 81.8548 66.3919C81.5965 66.5255 81.3383 66.6592 81.0732 66.7906C79.7568 67.4499 78.3408 68.1047 76.8614 68.7345C75.4658 69.3394 74.0384 69.9285 72.6133 70.4836L72.2599 70.624C74.6584 68.8932 77.1774 67.3358 79.7976 65.9636C80.466 65.6079 81.157 65.259 81.8548 64.9101C82.2022 64.7379 82.5549 64.5673 82.9129 64.3981C84.7593 63.5145 86.7418 62.6445 88.9508 61.7496C88.6208 62.0697 88.2696 62.3672 87.8995 62.64C86.9457 63.365 85.84 64.0673 85.2442 64.4525L85.0312 64.5794ZM59.876 112.676L44.5853 87.9651L68.4559 88.8125L59.876 112.676ZM30.765 36.4244C30.8012 36.3497 30.9915 36.1004 31.8615 36.1004C32.2908 36.107 32.7189 36.1479 33.1416 36.2228C33.3863 36.3972 33.6355 36.5649 33.8915 36.7303C34.2359 36.9523 34.5886 37.1653 34.9496 37.3692C36.4554 38.2287 38.0599 38.9028 39.7278 39.3765C40.3427 39.9022 40.9203 40.47 41.4565 41.0758C40.7213 40.6218 39.935 40.2568 39.1138 39.9883C38.0739 39.483 36.9932 38.9529 35.9057 38.4137C35.7801 38.3515 35.6349 38.3417 35.5022 38.3865C35.3694 38.4314 35.2599 38.5271 35.1977 38.6527C35.1355 38.7783 35.1257 38.9234 35.1705 39.0562C35.2154 39.189 35.3111 39.2985 35.4367 39.3607L35.6633 39.4672C35.4221 39.4945 35.1858 39.5547 34.9609 39.6462C34.7164 39.7411 34.5003 39.8971 34.3333 40.0993C34.1951 40.029 34.0501 39.952 33.9029 39.8727C32.6568 39.193 31.1411 38.1327 30.774 37.1653C30.7196 37.0496 30.6906 36.9237 30.689 36.7958C30.6874 36.668 30.7133 36.5414 30.765 36.4244V36.4244ZM29.6118 29.4531C29.6596 29.4152 29.7144 29.3871 29.7731 29.3703C29.8318 29.3536 29.8932 29.3486 29.9539 29.3557C30.3891 29.3871 30.8151 29.4969 31.2113 29.6797C31.8773 29.9632 32.5244 30.2894 33.1484 30.6562L33.2368 30.706C33.4633 30.8329 33.674 30.9688 33.8915 31.1093C34.245 31.3404 34.5977 31.5919 34.9496 31.8637C35.961 32.6647 36.8941 33.5599 37.7363 34.5372C38.4665 35.3795 39.1437 36.2663 39.764 37.1925C38.1101 36.0461 36.4993 34.8249 34.9496 33.5471C34.7661 33.3953 34.578 33.248 34.3968 33.094C34.2887 33.0055 34.1504 32.9627 34.0112 32.9745C33.872 32.9864 33.743 33.052 33.6514 33.1574C33.5612 33.2648 33.5173 33.4035 33.5292 33.5432C33.5411 33.6829 33.6078 33.8122 33.7148 33.9028C33.7737 33.9526 33.8326 33.9979 33.8915 34.0455C34.2404 34.3378 34.5939 34.6233 34.9496 34.9087C35.4344 35.3007 35.9261 35.6836 36.4245 36.0642C37.3579 36.7771 38.308 37.4674 39.2747 38.135C39.1025 38.0806 38.9325 38.0262 38.7581 37.9651C37.4308 37.4908 36.1548 36.8835 34.9496 36.1526C34.8929 36.1208 34.8386 36.0869 34.7842 36.0529C34.4806 35.8648 34.1815 35.67 33.8915 35.4661C33.7828 35.3913 33.6786 35.3097 33.5721 35.2395C33.4157 35.1262 33.2549 35.0129 33.1054 34.8997C32.0883 34.1114 31.1749 33.1979 30.3866 32.1809C29.469 30.9348 29.1768 29.9176 29.6118 29.4531ZM29.3354 18.8047C29.3828 18.7712 29.4407 18.756 29.4985 18.7616C29.75 18.7616 30.2439 18.9225 30.9643 19.4254C31.666 19.936 32.3217 20.5069 32.9241 21.1315C33.6454 21.8715 34.2857 22.6865 34.834 23.5625C34.9541 23.7528 35.0719 23.9499 35.1852 24.147L35.3687 24.5186L35.4661 24.7089C35.6066 24.9785 35.7471 25.2436 35.8943 25.5019C35.9532 25.6242 36.0099 25.7488 36.0665 25.8757C36.2206 26.2201 36.3701 26.5712 36.5083 26.9337C36.9508 28.1108 37.2919 29.3236 37.5279 30.5587C37.2107 30.0104 36.9025 29.4818 36.6035 28.9728C36.0235 27.9872 35.4707 27.0742 34.945 26.2087L34.3718 25.2821L33.9187 24.5594L33.5902 24.0383C33.5109 23.9289 33.3929 23.8539 33.2601 23.8286C33.1274 23.8033 32.9901 23.8297 32.8761 23.9023C32.7622 23.9749 32.6802 24.0882 32.647 24.2192C32.6138 24.3501 32.6319 24.4888 32.6975 24.6069C33.0895 25.2209 33.4837 25.853 33.887 26.5078C34.2314 27.0674 34.5803 27.6406 34.945 28.2478C35.4843 29.154 36.0507 30.1147 36.6556 31.1546C36.0847 30.5927 35.5115 29.9855 34.945 29.3421C34.5901 28.9388 34.2374 28.5242 33.887 28.0983C33.1756 27.2283 32.4846 26.3129 31.8321 25.3795C31.0564 24.2485 30.365 23.0618 29.7636 21.8293C29.0227 20.2207 28.8754 19.2011 29.3354 18.8047ZM33.8666 13.2992C33.9754 12.044 34.3628 10.6869 35.124 10.6394H35.1354C35.2418 10.6394 35.5885 10.7504 36.1481 11.9579C36.4454 12.6348 36.7026 13.3285 36.9184 14.0355L36.9637 14.176C37.5585 16.1775 37.8187 18.2635 37.734 20.3498C37.734 20.4314 37.734 20.5129 37.7227 20.5968C37.7023 21.1405 37.6638 21.6865 37.6072 22.2303C37.5505 22.774 37.4848 23.3042 37.3965 23.8344C37.3194 23.4447 37.2447 23.0572 37.1699 22.6766C37.0906 22.2439 37.0113 21.8179 36.9433 21.3988C36.6624 19.8129 36.4245 18.2994 36.2297 16.8449C36.2205 16.7762 36.1978 16.7099 36.163 16.6499C36.1282 16.59 36.0819 16.5374 36.0267 16.4953C35.9716 16.4533 35.9087 16.4225 35.8417 16.4047C35.7747 16.3869 35.7048 16.3825 35.6361 16.3918C35.5996 16.3963 35.5638 16.4054 35.5296 16.419C35.4154 16.4591 35.3186 16.5373 35.2555 16.6405C35.1923 16.7437 35.1667 16.8655 35.1829 16.9854C35.4095 18.6823 35.6904 20.4518 36.0348 22.3345C36.1118 22.7514 36.1911 23.1773 36.2727 23.6055C36.3022 23.7619 36.3339 23.9204 36.3656 24.0768C36.3656 24.0994 36.3656 24.1198 36.3656 24.1425C36.2954 24.0043 36.2251 23.8683 36.1572 23.7301C35.994 23.3926 35.8354 23.0504 35.6859 22.697C35.3119 21.8202 34.9874 20.9231 34.714 20.01C34.4433 19.1274 34.2262 18.2294 34.0637 17.3207C33.8361 15.9915 33.7684 14.6399 33.8621 13.2947L33.8666 13.2992ZM48.8696 10.6779L60.9068 2.52162L68.4854 27.414H46.459C46.4363 27.3393 46.4159 27.2645 46.3933 27.1875C46.1395 26.3673 45.7136 25.3206 44.9591 25.0147L48.8696 10.6779ZM82.9219 47.7684C82.5866 48.6022 82.2422 49.4427 81.8639 50.2833C80.5988 53.1503 79.183 55.9485 77.6226 58.6661C77.2533 59.3072 76.8795 59.9439 76.4898 60.5692L81.8548 46.844L82.9219 44.1412L84.56 39.9452L86.6375 34.6323C86.5197 35.7833 86.1368 37.8359 85.0969 41.4813C84.4789 43.6125 83.753 45.7109 82.9219 47.7684ZM89.1071 49.3249C87.068 52.0051 84.9995 54.6083 82.9219 57.0937C82.5685 57.5151 82.2173 57.932 81.8639 58.3466L81.5331 58.7386C79.9154 60.6304 78.3295 62.4112 76.7504 64.1172C76.3675 64.3687 75.9914 64.6292 75.6176 64.892C77.4301 62.316 79.4804 59.5746 81.6147 56.8989L81.8593 56.5998C82.1335 56.2645 82.4937 55.8272 82.9174 55.3288C83.7851 54.3047 84.9066 53.0269 86.0213 51.8873C87.5687 50.3127 88.5226 49.6172 89.1048 49.3249H89.1071ZM88.8329 60.653C86.6806 61.5208 84.7299 62.3636 82.9219 63.2154C82.564 63.3831 82.2128 63.553 81.8639 63.7229C81.515 63.8929 81.1547 64.0719 80.8058 64.2486C80.3006 64.5046 79.7999 64.7606 79.3105 65.0211C79.0726 65.1458 78.8438 65.2726 78.6104 65.3995C77.3372 66.0928 76.1288 66.7982 74.9854 67.5156C74.1426 68.0427 73.33 68.5797 72.5476 69.1265C72.3075 69.2941 72.065 69.4618 71.8294 69.6317C71.7456 69.6906 71.6663 69.754 71.5825 69.8152C71.7116 69.677 71.8407 69.5388 71.9744 69.4006C72.1081 69.2624 72.2916 69.0766 72.4547 68.9158C72.8263 68.551 73.2137 68.193 73.6125 67.8396L73.9115 67.5768C75.0301 66.6134 76.2116 65.7256 77.4482 64.9192C78.2593 64.389 79.0975 63.8861 79.9404 63.4262C80.0718 63.3537 80.2326 63.2676 80.4184 63.1724C80.8036 62.973 81.2997 62.7306 81.8661 62.4769L81.9817 62.4247C82.2808 62.2911 82.5957 62.1574 82.9242 62.0215L83.2572 61.8878C83.9369 61.6204 84.6506 61.3667 85.3643 61.156C86.3281 60.8419 87.3306 60.662 88.3436 60.6213C88.5067 60.6234 88.6695 60.637 88.8307 60.6621L88.8329 60.653ZM81.8616 34.0206C76.3947 38.4182 67.3072 42.0976 54.844 44.959C54.5178 44.4017 54.0692 43.9712 53.4416 43.9123C53.2469 43.8957 53.0508 43.9071 52.8593 43.9463C52.8593 43.8557 52.8593 43.7673 52.8707 43.6767C56.4957 42.8633 60.5897 41.8076 64.6768 40.4844L64.8354 40.4323C71.1271 38.3933 77.3825 35.6994 81.8616 32.2761V34.0206ZM77.0064 38.4816H77.0313L78.0961 38.4454C79.3218 38.4091 80.8308 38.3615 81.8661 38.2573V38.468C81.6645 38.8917 81.4674 39.3244 81.2703 39.7594C78.7586 40.0236 76.2321 40.1205 73.7076 40.0494C74.8419 39.5404 75.9151 39.0118 76.9271 38.4635C76.953 38.4717 76.9795 38.4777 77.0064 38.4816V38.4816ZM35.0515 41.0191C35.0636 40.9548 35.0818 40.8919 35.1059 40.8311C35.1396 40.7742 35.1845 40.7248 35.2378 40.6859C35.2912 40.6469 35.3519 40.6193 35.4163 40.6045C35.6641 40.5278 35.9228 40.4926 36.1821 40.5003C36.3067 40.5003 36.4404 40.5003 36.5786 40.5162C37.289 40.5911 37.9897 40.7391 38.6697 40.9579L38.7037 40.9693C39.5855 41.2494 40.4243 41.6505 41.1959 42.161L41.2888 42.2199C41.5516 42.3944 41.8099 42.5847 42.0636 42.784C42.3174 42.9834 42.5168 43.1556 42.7433 43.3572C42.8589 43.4592 42.9699 43.5679 43.0854 43.6767C43.4582 44.035 43.8114 44.4131 44.1435 44.8095C44.5608 45.3123 44.9446 45.8421 45.2922 46.3954C44.904 46.1296 44.5211 45.8706 44.1435 45.6183L43.0854 44.9183C42.1142 44.2809 41.1566 43.6767 40.2126 43.1058L40.088 43.0287C40.0183 42.9861 39.9395 42.9605 39.8581 42.9538C39.7767 42.9471 39.6948 42.9596 39.619 42.9902C39.5275 43.0261 39.4477 43.0869 39.3889 43.1657C39.33 43.2445 39.2943 43.3382 39.2858 43.4362C39.2773 43.5342 39.2964 43.6326 39.3409 43.7203C39.3853 43.808 39.4534 43.8816 39.5375 43.9327C40.6997 44.6419 41.8779 45.3963 43.0854 46.1983L43.7651 46.6515C43.5386 46.5676 43.312 46.4929 43.0854 46.4249C42.775 46.3365 42.4624 46.2572 42.152 46.1983C41.9549 46.1598 41.6513 46.1077 41.2979 46.0669C40.5389 45.7362 39.789 45.3737 39.0662 44.9772C38.1046 44.4414 37.1945 43.818 36.3475 43.1148C35.6202 42.4804 35.2736 42.0047 35.1286 41.6376C35.0394 41.4444 35.0125 41.2283 35.0515 41.0191V41.0191ZM52.8684 42.5937C52.8684 42.2562 52.8367 41.914 52.7982 41.5969C52.7188 40.8072 52.5825 40.0243 52.3904 39.2542C52.2781 38.7924 52.1036 38.348 51.8715 37.9333C51.7605 37.717 51.6019 37.5285 51.4077 37.3822C51.2135 37.2358 50.9886 37.1353 50.75 37.0883C50.3328 37.0233 49.9062 37.1118 49.5493 37.3375C49.5153 36.8844 49.4632 36.4176 49.3884 35.96C51.1896 36.8662 55.5645 38.8237 62.3229 40.1129C59.0468 41.1075 55.8092 41.9276 52.8684 42.5937ZM57.2728 68.1772C57.2139 68.1545 56.9805 68.0526 56.652 67.894C56.3235 67.7354 55.9225 67.5224 55.4965 67.2664C55.2224 67.0987 54.9437 66.9152 54.6786 66.7158C53.1425 65.5604 53.3804 64.8739 53.4575 64.6496C53.5549 64.3709 54.0533 64.1965 54.7919 64.1557H55.0185C55.586 64.1638 56.1517 64.2229 56.7086 64.3324C57.5172 64.4854 58.2989 64.7564 59.0286 65.1367C59.3979 65.3262 59.7557 65.5373 60.1003 65.7688C60.1841 65.8254 60.2725 65.8912 60.3586 65.9523C60.5851 66.1154 60.823 66.2876 61.0586 66.4734C61.3283 66.6819 61.5979 66.9061 61.872 67.1372L62.2186 67.4363L62.3931 67.5904C62.5562 67.7354 62.7216 67.8849 62.8847 68.0435L63.1566 68.2927C62.9618 68.2315 62.7669 68.1681 62.5743 68.1001C62.23 67.9823 61.8871 67.857 61.5457 67.724C61.4506 67.6878 61.3554 67.6538 61.2603 67.6153C61.0179 67.5179 60.7732 67.4136 60.533 67.3072C60.2317 67.1735 59.9326 67.033 59.6268 66.8903L58.9222 66.5504L58.0929 66.1472C58.0302 66.1173 57.9621 66.1 57.8927 66.0965C57.8233 66.093 57.7539 66.1032 57.6884 66.1265C57.6229 66.1499 57.5627 66.186 57.5112 66.2327C57.4597 66.2794 57.418 66.3358 57.3883 66.3987C57.378 66.4205 57.3697 66.4433 57.3634 66.4666C57.3241 66.5879 57.3302 66.7194 57.3807 66.8365C57.4311 66.9537 57.5224 67.0485 57.6375 67.1033L58.29 67.4182L58.4577 67.4997C58.7432 67.6402 59.0354 67.7807 59.3277 67.9189C59.6585 68.0775 59.9938 68.2315 60.3314 68.372C60.5058 68.4468 60.6825 68.5215 60.8593 68.5986C61.539 68.875 62.239 69.1197 62.9391 69.3372C62.316 69.3676 61.6913 69.3441 61.0722 69.2669C60.3853 69.1816 59.7069 69.0376 59.0445 68.8365C58.7001 68.73 58.4079 68.6326 58.1111 68.5238L58 68.4808C57.7735 68.3743 57.5107 68.2769 57.2728 68.1772ZM45.0384 38.3026C44.9002 35.969 45.1698 32.7745 46.1259 31.9453C46.2499 31.8289 46.4096 31.7579 46.579 31.7437C46.6008 31.7443 46.6223 31.7489 46.6425 31.7572C46.7399 31.7935 46.9393 31.9204 47.1907 32.3508C47.4853 32.8538 47.8546 33.7691 48.2239 35.4457C48.4325 36.4274 48.5388 37.4281 48.5411 38.4318C48.2497 38.9302 48.0214 39.463 47.8614 40.0177C47.5949 40.9237 47.4106 41.8518 47.3108 42.7908L47.227 38.0987C47.2274 38.029 47.2136 37.9598 47.1865 37.8955C47.1594 37.8312 47.1196 37.7731 47.0694 37.7246C47.0192 37.6761 46.9597 37.6383 46.8945 37.6134C46.8293 37.5885 46.7598 37.5771 46.69 37.5799C46.6526 37.5797 46.6153 37.5842 46.579 37.5935C46.461 37.6205 46.3559 37.6872 46.2812 37.7825C46.2066 37.8778 46.1669 37.9958 46.169 38.1169L46.1848 39.0004L46.2981 45.3442V45.4122C46.2845 45.3714 46.2732 45.3306 46.2596 45.2898C45.8655 43.9564 45.5627 42.5976 45.3533 41.223C45.299 40.8832 45.2514 40.5433 45.2106 40.2012C45.1608 39.7957 45.12 39.3924 45.086 38.9914C45.0679 38.7422 45.0475 38.5156 45.0339 38.3026H45.0384ZM64.1965 60.4129C64.3291 60.7903 64.4388 61.1754 64.525 61.5661C64.6856 62.3435 64.7871 63.1319 64.8286 63.9246C64.8808 64.7901 64.8875 65.7235 64.8604 66.7022C64.5031 65.8972 64.187 65.0744 63.9133 64.2372C63.7774 63.8249 63.6528 63.4035 63.535 62.9753C63.399 62.4935 63.2752 62.0018 63.1634 61.5004C63.1547 61.4645 63.1426 61.4296 63.1272 61.3961C63.0743 61.2752 62.978 61.1784 62.8573 61.1248C62.7366 61.0713 62.6002 61.065 62.4751 61.1071C62.35 61.1492 62.2451 61.2367 62.1813 61.3522C62.1175 61.4678 62.0993 61.6031 62.1303 61.7315C62.2662 62.3341 62.4226 62.9209 62.5834 63.5009C62.6129 63.6051 62.6423 63.7071 62.674 63.8113C62.7284 63.9903 62.776 64.1715 62.8326 64.3483C62.9572 64.7425 63.0932 65.1276 63.2314 65.5105C63.2903 65.6691 63.3492 65.8277 63.4104 65.984C63.4489 66.086 63.4919 66.1879 63.5327 66.2899C63.5735 66.3919 63.6256 66.5165 63.6732 66.6297L63.7343 66.7793C63.7978 66.9311 63.8658 67.0829 63.9337 67.2324C63.825 67.1214 63.7185 67.0058 63.6143 66.8903C63.4602 66.7158 63.3084 66.5346 63.1611 66.3443C63.075 66.231 62.9912 66.1177 62.9074 65.9976C62.8553 65.9274 62.8009 65.8594 62.7533 65.7869C62.7058 65.7144 62.674 65.6691 62.6355 65.6102C62.4588 65.3429 62.2866 65.0574 62.1257 64.7583C61.8555 64.2592 61.6179 63.743 61.4143 63.2132C61.2761 62.8575 61.1538 62.495 61.0496 62.1347C60.7851 61.1931 60.6188 60.2265 60.5534 59.2506C60.5146 58.776 60.5497 58.2983 60.6576 57.8346C60.6953 57.6593 60.7686 57.4935 60.8731 57.3478C60.9776 57.202 61.1109 57.0793 61.2648 56.9872C61.3169 56.959 61.3755 56.9449 61.4347 56.9465C61.7111 56.9465 62.1303 57.1934 62.5313 57.608C62.6129 57.6919 62.6899 57.7802 62.7579 57.8686C63.0549 58.2289 63.3195 58.6148 63.5486 59.0218C63.6029 59.1192 63.6483 59.203 63.68 59.2483C63.881 59.6224 64.0522 60.0118 64.192 60.4129H64.1965ZM50.1111 56.7992C49.8846 56.3166 49.837 55.9156 49.9525 55.5735C49.9813 55.4862 50.02 55.4026 50.0681 55.3243C50.0918 55.2888 50.1227 55.2587 50.1587 55.2359C50.2609 55.1788 50.3749 55.1462 50.4918 55.1408H50.6209C50.6821 55.1408 50.7546 55.1408 50.8225 55.1566C50.8905 55.1725 50.9086 55.1566 50.9562 55.1566L51.0423 55.1725C51.1873 55.1997 51.3391 55.2337 51.4954 55.2812L51.645 55.3288L51.7288 55.356C51.8579 55.399 51.9871 55.4444 52.1094 55.4942L52.3179 55.5803C52.4697 55.646 52.6101 55.7117 52.7415 55.7729L52.925 55.8658C53.0157 55.9111 53.0972 55.9519 53.1675 55.9904L53.2128 56.0153L53.3374 56.081C53.4507 56.1422 53.564 56.2101 53.6704 56.2781C54.0773 56.5221 54.4637 56.7987 54.8259 57.1051C55.2537 57.4705 55.6522 57.869 56.0176 58.2968C56.3763 58.7114 56.7078 59.1488 57.01 59.6063C57.2184 59.9235 57.4185 60.2543 57.6104 60.5987C57.8369 61.0223 58.0635 61.4619 58.2742 61.9218L58.3082 62.0056C58.3354 62.0622 58.358 62.1189 58.3829 62.1755L58.2697 62.0758C57.3634 61.2625 56.4708 60.4287 55.6008 59.6108C55.125 59.1577 54.6477 58.7106 54.1689 58.2696C54.118 58.2224 54.0583 58.1858 53.9933 58.1617C53.9282 58.1376 53.8591 58.1265 53.7897 58.1291C53.7204 58.1318 53.6523 58.148 53.5893 58.177C53.5262 58.2059 53.4695 58.247 53.4224 58.2979C53.3752 58.3488 53.3385 58.4084 53.3144 58.4735C53.2903 58.5386 53.2793 58.6077 53.2819 58.677C53.2845 58.7464 53.3008 58.8145 53.3297 58.8775C53.3587 58.9406 53.3998 58.9973 53.4507 59.0444C53.928 59.4885 54.403 59.9341 54.8758 60.3812C55.8137 61.2625 56.7766 62.1665 57.7644 63.0433C57.1811 62.8014 56.6109 62.5292 56.0561 62.2276C54.9493 61.6154 53.9011 60.9025 52.925 60.0979C52.8729 60.0549 52.8163 60.0141 52.7665 59.9711C52.1608 59.4514 51.5986 58.8831 51.0854 58.2719L50.9336 58.0883C50.8339 57.9637 50.7365 57.8369 50.6458 57.71C50.5982 57.6443 50.5597 57.5831 50.5167 57.5197C50.3911 57.3353 50.2762 57.1439 50.1723 56.9465C50.1542 56.8989 50.1338 56.8513 50.1111 56.7992ZM60.7347 56.0651C60.2531 56.3467 59.8913 56.7948 59.7174 57.3248C59.7355 56.994 59.7468 56.6633 59.7468 56.3393C59.7456 55.7334 59.7085 55.1282 59.6358 54.5268C59.7278 54.4195 59.8403 54.3317 59.9666 54.2685C60.0156 54.2433 60.0701 54.2308 60.1252 54.2322C60.2366 54.2364 60.3456 54.265 60.4447 54.3161C60.7388 54.4756 61.0008 54.6884 61.2172 54.9436C61.4862 55.2588 61.7258 55.5978 61.9332 55.9564C61.7371 55.8887 61.5288 55.8633 61.3222 55.8821C61.1156 55.9008 60.9154 55.9632 60.7347 56.0651V56.0651ZM58.6752 55.7706C58.6752 55.9587 58.6888 56.1467 58.6888 56.3393C58.6888 56.5658 58.6775 56.8083 58.6684 57.0439C58.6352 57.7501 58.5596 58.4537 58.4418 59.1509C58.3943 58.9901 58.3467 58.8269 58.3036 58.6706C57.8007 56.8989 57.4155 55.3152 57.1097 53.7904C57.0751 53.6599 56.992 53.5474 56.8774 53.476C56.7627 53.4046 56.6251 53.3796 56.4927 53.4062C56.3603 53.4328 56.243 53.509 56.1648 53.6191C56.0866 53.7293 56.0534 53.8651 56.072 53.9989C56.3122 55.1997 56.6044 56.4412 56.9601 57.7734C56.5766 57.3126 56.1593 56.8809 55.7118 56.482C55.4097 55.794 55.1642 55.0825 54.9777 54.3546C54.9392 54.2119 54.8984 54.0261 54.8576 53.8131C54.7965 53.4891 54.7375 53.0994 54.7013 52.6803C54.6529 52.1885 54.6476 51.6935 54.6854 51.2008C54.7149 50.8542 54.8304 49.9298 55.27 49.4269C55.4039 49.2639 55.5893 49.1513 55.7956 49.1074C55.8276 49.099 55.8601 49.0929 55.893 49.0893H55.9247C56.1286 49.0893 56.4685 49.2637 56.9624 50.0454C57.2598 50.5362 57.5224 51.0472 57.7486 51.5747L57.7984 51.6879C58.154 52.5153 58.3985 53.3861 58.5257 54.2776C58.6068 54.7717 58.6582 55.2703 58.6797 55.7706H58.6752ZM54.622 47.7299L54.6401 47.8409C54.6786 48.0539 54.7036 48.2691 54.7217 48.4844C54.1213 48.9873 53.7407 49.889 53.641 51.1125C53.5798 51.9763 53.6239 52.8444 53.7724 53.6976C53.6319 54.0419 53.4824 54.3772 53.3193 54.6831L53.2422 54.8462L53.1743 54.8145V54.5132C53.206 53.0156 53.2853 51.4115 53.419 49.6511C53.4242 49.582 53.4157 49.5125 53.394 49.4465C53.3724 49.3806 53.3379 49.3197 53.2927 49.2671C53.2475 49.2145 53.1923 49.1713 53.1304 49.14C53.0685 49.1087 53.001 49.0899 52.9318 49.0847C52.8627 49.0795 52.7931 49.088 52.7272 49.1097C52.6613 49.1313 52.6004 49.1658 52.5478 49.211C52.4952 49.2562 52.452 49.3114 52.4207 49.3733C52.3894 49.4352 52.3706 49.5027 52.3654 49.5719C52.2658 50.8723 52.1955 52.0935 52.1525 53.249C52.1389 53.6319 52.1275 54.0079 52.1208 54.3818L51.8534 54.2957C51.658 53.6435 51.5066 52.9789 51.4003 52.3065C51.3047 51.7163 51.2449 51.1208 51.2213 50.5234C51.2213 50.2176 51.2054 49.914 51.2213 49.6172C51.2213 49.4586 51.2372 49.2456 51.2575 49.0032C51.3197 48.2159 51.4718 47.4382 51.7107 46.6854C51.8097 46.3869 51.9371 46.0986 52.0913 45.8245C52.2433 45.5382 52.4645 45.2944 52.7347 45.1154C52.8869 45.0222 53.0615 44.9721 53.24 44.9704H53.3306C53.6387 44.993 54.1961 45.3895 54.622 47.7299V47.7299ZM50.7274 46.332C50.3928 47.3856 50.206 48.4805 50.1723 49.5854C50.1723 49.812 50.1723 50.0635 50.1723 50.3037C50.1361 50.3875 50.0975 50.4713 50.059 50.5551L50.0296 50.6231C50.0296 50.5891 50.0296 50.5551 50.0296 50.5212C50.1361 48.2147 50.3083 45.9695 50.4827 44.0075C50.4885 43.9383 50.4806 43.8687 50.4595 43.8025C50.4384 43.7364 50.4045 43.6751 50.3597 43.6221C50.3149 43.569 50.26 43.5254 50.1983 43.4935C50.1367 43.4617 50.0693 43.4423 50.0001 43.4365C49.931 43.4307 49.8613 43.4386 49.7952 43.4597C49.7291 43.4808 49.6677 43.5148 49.6147 43.5596C49.5617 43.6044 49.518 43.6592 49.4862 43.7209C49.4544 43.7826 49.435 43.8499 49.4292 43.9191C49.2933 45.5277 49.1528 47.3289 49.0463 49.2003C49.0267 49.5522 49.0085 49.9057 48.9919 50.2606L48.8243 50.0816C48.72 49.6081 48.6226 49.1187 48.5411 48.5999C48.5411 48.5636 48.5411 48.5274 48.5275 48.4889C48.397 47.6059 48.3154 46.7165 48.2828 45.8245C48.2601 45.2536 48.2556 44.6917 48.2828 44.1321C48.2828 44.0822 48.2828 44.0301 48.2828 43.9803C48.3388 42.7439 48.5388 41.5182 48.8786 40.3281C48.9217 40.1786 48.9738 40.029 49.0282 39.875C49.1712 39.4745 49.3645 39.0938 49.6036 38.7422C49.8665 38.3774 50.1655 38.135 50.4872 38.135C50.5212 38.1327 50.5552 38.1327 50.5892 38.135C50.6345 38.135 50.7704 38.1644 50.9675 38.4839C51.1458 38.814 51.2806 39.1658 51.3686 39.5306C51.5461 40.2504 51.6733 40.9817 51.7492 41.7192C51.8489 42.6636 51.8489 43.6159 51.7492 44.5603C51.2748 45.0629 50.9249 45.6697 50.7274 46.332V46.332ZM40.1424 47.0276C40.4377 47.0288 40.7327 47.047 41.026 47.0819H41.0804C41.4474 47.1227 41.76 47.1748 41.9572 47.2133C42.3404 47.2864 42.7188 47.3832 43.09 47.5033C43.4502 47.6214 43.8035 47.7598 44.148 47.9179C44.5371 48.094 44.9153 48.293 45.2808 48.5138C45.8178 48.8365 46.3291 49.2 46.8101 49.6013C47.1785 49.9101 47.5309 50.2375 47.8659 50.5823C48.1446 50.8723 48.4051 51.1714 48.6498 51.475C48.6838 51.518 48.7223 51.5588 48.7563 51.6019C48.8197 51.6834 48.8764 51.7627 48.9375 51.842L48.7268 51.7219L48.0653 51.3572C47.6915 51.1555 47.3199 50.9562 46.9574 50.7658C45.9741 50.2538 45.052 49.7916 44.1525 49.3611L43.5499 49.0757C43.4873 49.0459 43.4194 49.0288 43.3501 49.0253C43.2809 49.0218 43.2116 49.0319 43.1463 49.0552C43.081 49.0784 43.0209 49.1143 42.9694 49.1608C42.918 49.2072 42.8762 49.2634 42.8464 49.326C42.8167 49.3887 42.7995 49.4565 42.796 49.5258C42.7925 49.595 42.8026 49.6643 42.8259 49.7296C42.8491 49.7949 42.885 49.8551 42.9315 49.9065C42.978 49.958 43.0341 49.9998 43.0968 50.0295V50.0295C43.4411 50.1904 43.7923 50.3603 44.1458 50.5302C44.7076 50.8044 45.2786 51.0921 45.8767 51.3979C45.3124 51.2103 44.7334 51.0701 44.1458 50.9788C43.9668 50.9516 43.79 50.9244 43.6111 50.9086C43.5023 50.8972 43.3165 50.8814 43.0877 50.8655C42.8136 50.8497 42.4737 50.8361 42.109 50.8429C41.3462 50.4908 40.6121 50.0794 39.9136 49.6126C38.7808 48.8197 38.3276 48.1762 38.4794 47.5283C38.5361 47.2587 39.1047 47.0525 39.866 47.0253L40.1424 47.0276ZM41.8892 51.9168C42.0319 51.9168 42.1724 51.9168 42.3106 51.9168C42.6006 51.9168 42.8679 51.9168 43.0854 51.944L43.3981 51.9689H43.5091C43.7198 51.9893 43.9305 52.0187 44.1435 52.055C45.1649 52.2394 46.1531 52.5754 47.0752 53.0519C47.5609 53.2976 48.0301 53.5746 48.4799 53.8811L48.5705 53.94C48.8424 54.1303 49.1029 54.3319 49.359 54.5381C49.2878 54.6062 49.2247 54.6822 49.1709 54.7647C49.0959 54.8889 49.0315 55.0193 48.9783 55.1544L48.8175 55.0864C47.6847 54.6106 46.4771 54.1394 45.2582 53.6908C45.1279 53.6491 44.9866 53.6593 44.8637 53.7194C44.7408 53.7795 44.6459 53.8847 44.5988 54.0131C44.5517 54.1416 44.5561 54.2832 44.611 54.4085C44.6659 54.5337 44.7671 54.633 44.8934 54.6854C46.0987 55.1272 47.2814 55.5916 48.4097 56.0606L48.8492 56.2487C48.8732 56.4333 48.9142 56.6153 48.9715 56.7924C48.856 56.7743 48.745 56.7607 48.6204 56.7403C48.4187 56.7086 48.2171 56.6678 48.0154 56.6315C47.8138 56.5953 47.619 56.5273 47.4196 56.4888C47.3063 56.4662 47.0911 56.4276 46.826 56.3891C46.0625 56.2192 45.3216 56.0244 44.6306 55.8069C44.5785 55.791 44.404 55.7321 44.1435 55.6415C43.8829 55.5508 43.4933 55.4013 43.0854 55.2269C42.5984 55.0236 42.1241 54.7913 41.6649 54.5313C40.4369 53.8199 39.9385 53.2104 40.0518 52.5625C40.0903 52.3359 40.5253 52.0595 41.4111 51.9576C41.5675 51.9372 41.7283 51.9258 41.8892 51.9168V51.9168ZM44.284 57.8867C44.4425 57.4698 45.1902 57.3883 45.5142 57.3747C45.5935 57.3747 45.6728 57.3747 45.7543 57.3747C46.0514 57.3769 46.3481 57.3981 46.6425 57.4381C46.903 57.4744 47.1115 57.5129 47.2202 57.5355C47.4037 57.5695 47.585 57.6148 47.7662 57.6669C48.708 57.9523 49.5847 58.4196 50.3468 59.0422C50.8833 59.6692 51.4673 60.2539 52.0936 60.7912L52.1842 60.8637C52.3383 61.0472 52.4855 61.233 52.6373 61.4211C51.2938 60.8433 49.9865 60.1569 48.7132 59.4885L48.3077 59.2755C48.2463 59.2432 48.1791 59.2234 48.11 59.2171C48.0408 59.2108 47.9712 59.2181 47.9049 59.2387C47.8386 59.2594 47.7771 59.2928 47.7237 59.3372C47.6704 59.3816 47.6263 59.4361 47.594 59.4976C47.5618 59.559 47.5419 59.6262 47.5356 59.6953C47.5293 59.7644 47.5366 59.8341 47.5572 59.9004C47.5779 59.9666 47.6113 60.0282 47.6557 60.0815C47.7001 60.1349 47.7546 60.1789 47.8161 60.2112L48.2216 60.4242C49.5447 61.1197 50.9064 61.8334 52.3224 62.4361C51.7657 62.432 51.2102 62.382 50.6617 62.2865C49.5307 62.0892 48.4292 61.7497 47.3833 61.2761C46.5962 60.9129 45.8591 60.45 45.1902 59.8986C44.0687 58.9062 44.1367 58.2764 44.284 57.8867V57.8867ZM52.8593 63.7026C52.6776 63.866 52.5397 64.0724 52.4583 64.3029C52.1706 65.1367 52.4175 65.975 53.1879 66.7951C52.8195 66.689 52.4572 66.5626 52.1026 66.4168C51.3663 66.1109 50.1542 65.472 50.3173 64.6043C50.3694 64.3279 50.8429 64.0651 51.6155 63.8838C52.0261 63.7982 52.4414 63.7377 52.8593 63.7026V63.7026ZM64.525 39.4219C55.2972 37.9537 49.9095 35.056 49.1188 34.6074C48.9674 33.9612 48.7721 33.3261 48.5343 32.7065C54.6073 35.6167 61.1197 37.5029 67.8079 38.289C66.7227 38.6901 65.6239 39.0662 64.525 39.4219ZM65.8844 63.8566C65.8407 63.0098 65.7323 62.1676 65.5604 61.3372C65.3704 60.4331 65.0531 59.5604 64.6179 58.7454C64.3552 58.2565 64.0521 57.7904 63.7117 57.352C63.5889 56.96 63.4374 56.5776 63.2586 56.2079C62.9249 55.5003 62.5015 54.8385 61.9989 54.239C61.6871 53.8778 61.3087 53.5801 60.8842 53.3622C60.6703 53.2494 60.4332 53.1875 60.1915 53.1816C59.9498 53.1757 59.7099 53.2259 59.4908 53.3283L59.4387 53.36C59.2879 52.6375 59.064 51.9323 58.7704 51.2552L58.7205 51.1419C58.4753 50.5678 58.1891 50.012 57.8641 49.479C57.4472 48.8174 56.7789 47.9474 55.8092 48.0335H55.7344C55.7186 47.9021 55.7027 47.7707 55.68 47.6415L55.6597 47.5283C55.5693 46.9876 55.4413 46.4539 55.2768 45.931C59.8102 44.9137 64.2791 43.6276 68.6598 42.0794V51.475C68.3429 53.1689 68.1273 54.8802 68.0141 56.5998C67.6765 61.5026 67.919 66.8178 68.6598 70.8733V71.5529L68.5533 71.7093L67.2121 70.2661L65.7983 68.7458C65.9373 67.1206 65.9637 65.4877 65.8776 63.8589L65.8844 63.8566ZM71.408 41.0327H71.4896C72.815 41.0848 74.0611 41.112 75.2347 41.112C77.2964 41.112 79.1338 41.0282 80.7809 40.8651C80.0242 42.6096 79.3513 44.3111 78.9004 45.5322C76.6348 51.6268 74.7181 58.3058 73.6102 63.7909C72.8097 65.1594 71.9752 66.5187 71.1067 67.869C72.9532 62.9209 73.9433 57.4086 73.7529 52.8094C73.6193 49.6376 73.284 46.3796 71.8521 46.1326C71.8166 46.1218 71.7802 46.1143 71.7433 46.11H71.6346C70.8416 46.1281 70.2163 46.835 69.7247 47.884V41.6875C70.2911 41.4745 70.8529 41.257 71.4012 41.035L71.408 41.0327ZM72.0877 47.9995C72.3143 48.7449 72.5748 50.1654 72.6858 52.8729C72.8671 57.2093 71.9608 62.3885 70.2639 67.0897L72.0877 47.9995ZM69.7156 61.7065L69.2058 67.0466C68.8833 63.597 68.837 60.1271 69.0676 56.6701C69.1823 54.9895 69.3986 53.3174 69.7156 51.663C70.0826 49.7984 70.5561 48.2782 71.0636 47.5849L69.7156 61.7065ZM68.6666 37.3262C56.6588 36.0347 48.4618 31.5465 47.0933 30.7558C47.0616 30.4296 47.0208 30.1079 46.9687 29.7907C46.9234 29.5143 46.8396 29.0249 46.7195 28.4676H68.6666V37.3262ZM45.3533 27.414C45.3533 27.4435 45.3737 27.4729 45.3828 27.5024C45.4825 27.8219 45.5663 28.1526 45.6388 28.4721C45.7815 29.0974 45.879 29.6751 45.9311 29.9969C45.9741 30.2574 46.0104 30.5202 46.0398 30.7876C45.4009 31.0141 44.9523 31.5896 44.6397 32.3395C44.5476 32.2613 44.4318 32.2166 44.3111 32.2126C44.2544 32.2108 44.1977 32.2185 44.1435 32.2353C44.0366 32.2673 43.9428 32.3328 43.8759 32.4221C43.809 32.5114 43.7726 32.6199 43.7719 32.7315C43.7175 35.244 43.6541 37.8246 43.4887 40.3961C43.3347 39.6439 43.201 38.8758 43.0854 38.1055C43.0039 37.5618 42.9321 37.0195 42.8702 36.4788C42.9472 36.2228 43.0197 35.9645 43.0854 35.7017C43.3854 34.5043 43.5661 33.2802 43.6247 32.0472C43.6815 30.8438 43.6247 29.6377 43.4547 28.4449C43.4072 28.1186 43.3505 27.7969 43.2871 27.4797C43.3075 27.4163 43.3301 27.3529 43.3528 27.2917C43.67 26.4557 44.0733 25.9844 44.4992 25.9844C44.562 25.9951 44.6198 26.0252 44.6646 26.0705C44.8458 26.2178 45.086 26.6029 45.3533 27.414ZM42.195 27.414C42.2404 27.6225 42.2834 27.8332 42.3219 28.0461C42.3604 28.2591 42.3967 28.4789 42.4261 28.6986C42.5745 29.7893 42.6222 30.8912 42.5689 31.9906C42.5222 32.9591 42.3964 33.9222 42.1928 34.8702C42.1452 35.0968 42.0908 35.3233 42.0342 35.5499C41.9096 34.3197 41.751 33.0894 41.5811 31.8705C41.4451 30.9031 41.2979 29.9447 41.1529 28.9954L41.0645 28.4177C41.0372 28.2844 40.9597 28.1667 40.848 28.089C40.7364 28.0113 40.5991 27.9795 40.4646 28.0001C40.3301 28.0208 40.2087 28.0924 40.1256 28.2C40.0424 28.3077 40.0038 28.4432 40.0178 28.5786L40.1061 29.1563C40.4369 31.3154 40.7745 33.5335 40.9943 35.7447C40.7224 35.0666 40.4626 34.3688 40.2149 33.6513C39.6723 32.1065 39.2378 30.5258 38.9144 28.9207C38.7798 28.2081 38.683 27.4889 38.6244 26.7661C38.595 26.4036 38.5746 26.0184 38.57 25.6333C38.57 25.4067 38.57 25.1801 38.57 24.9536C38.6222 23.6984 38.9416 22.3209 39.687 22.2348H39.7029C39.8048 22.2348 40.1696 22.33 40.779 23.5036C41.1351 24.2178 41.4431 24.955 41.7011 25.7103C41.8325 26.0819 41.9458 26.467 42.05 26.859C42.1044 27.0266 42.152 27.2192 42.195 27.414ZM37.4372 47.3085C37.384 47.544 37.3718 47.787 37.401 48.0267C36.2433 48.1717 35.3959 48.2533 34.9428 48.3122V46.7579C35.4344 46.7036 36.599 46.5654 38.2483 46.332C38.0493 46.4242 37.8737 46.5601 37.7344 46.7295C37.5952 46.899 37.4959 47.0977 37.444 47.3108L37.4372 47.3085ZM34.945 49.377C35.3982 49.3294 36.3905 49.2229 37.7907 49.044C38.2012 49.6148 38.7144 50.1042 39.3041 50.4872C39.6304 50.7137 39.9838 50.9244 40.31 51.1147C39.5624 51.3685 39.1047 51.7944 39.005 52.379C38.7468 53.8697 40.0925 54.844 41.1325 55.4466C41.7603 55.7977 42.4113 56.1058 43.0809 56.3687V71.2607C38.1532 70.2638 35.4231 69.063 34.945 68.8433V49.377ZM44.139 60.3517C44.2477 60.4627 44.3655 60.5783 44.4879 60.6847C45.2348 61.3041 46.0588 61.8242 46.9393 62.2322C47.9891 62.7035 49.09 63.0517 50.2199 63.2698C49.9848 63.3768 49.7772 63.5361 49.6131 63.7356C49.4489 63.9351 49.3326 64.1694 49.2729 64.4208C49.0463 65.6034 49.9095 66.6615 51.6925 67.4001C52.8054 67.8358 53.9672 68.1348 55.1522 68.2905C55.7023 68.6128 56.2721 68.9003 56.8582 69.1514C57.1527 69.2737 57.4563 69.3915 57.7644 69.5026C58.0725 69.6136 58.3829 69.7291 58.7477 69.8311C59.4682 70.0515 60.2066 70.2084 60.9544 70.3001C61.4593 70.3649 61.9679 70.3974 62.4769 70.3975C63.4303 70.4026 64.3799 70.2783 65.2999 70.0282C65.3616 70.0098 65.4193 69.9798 65.4698 69.9398L66.4372 70.9797L67.57 72.2009C57.42 73.1593 49.5878 72.4683 44.139 71.4646V60.3517ZM82.6546 60.9997C82.3827 61.1084 82.1199 61.2262 81.8684 61.3282C81.0528 61.6816 80.3459 62.026 79.8407 62.2888C80.5113 61.5336 81.1872 60.761 81.8684 59.9711C82.0247 59.7876 82.1833 59.6086 82.3397 59.4228L82.9265 58.7431C85.217 56.0402 87.503 53.1901 89.746 50.2425C89.5806 50.7444 89.3823 51.2348 89.1524 51.7106C87.5404 55.0095 85.4399 58.0464 82.9219 60.7187C82.829 60.8139 82.7361 60.9068 82.6478 61.0019L82.6546 60.9997ZM82.9219 41.2344L81.8616 43.9531L75.4725 60.2951C76.6751 55.4266 78.1477 50.6289 79.8837 45.9242C80.5453 44.1344 81.2136 42.4895 81.8616 41.0123C82.2226 40.1907 82.5753 39.4241 82.9197 38.7127C84.0751 36.3247 85.106 34.6119 85.8333 33.7918L82.9219 41.2344ZM81.8639 37.1925C81.0777 37.2763 79.9472 37.3239 78.8868 37.3601C79.9137 36.7461 80.9074 36.0784 81.8639 35.3596V37.1925ZM81.8639 30.9167C78.7147 33.4904 74.5165 35.6564 70.0011 37.4553L69.7383 37.4304V28.3429L81.8729 25.0329L81.8639 30.9167ZM35.6451 43.8919C36.2763 44.4258 36.9456 44.9127 37.6479 45.3487C36.3633 45.5254 35.4254 45.6387 34.9428 45.6954V43.219C35.1659 43.4576 35.4027 43.6831 35.6519 43.8942L35.6451 43.8919ZM34.9428 72.7968C36.0325 73.2499 38.7581 74.2762 43.0786 75.1349V86.9705H34.9496L34.9428 72.7968ZM58.2493 85.6542C58.3449 85.7332 58.4651 85.7764 58.5891 85.7765C58.6665 85.7765 58.743 85.7594 58.8131 85.7265C58.8832 85.6937 58.9452 85.6457 58.9947 85.5862L60.3291 84.0003C62.6536 81.2158 64.6655 78.8075 66.6502 76.1544C67.3118 76.0985 67.9824 76.0351 68.6621 75.9641V87.7612L44.1367 86.9003V75.3456C48.7609 76.1549 53.4483 76.5492 58.1428 76.5237C60.3563 76.5237 62.7261 76.4444 65.241 76.2632C63.4534 78.6104 61.616 80.8148 59.5158 83.3229L58.1836 84.9088C58.1388 84.9625 58.1052 85.0245 58.0846 85.0913C58.064 85.158 58.0569 85.2282 58.0636 85.2978C58.0704 85.3673 58.0908 85.4348 58.1239 85.4964C58.1569 85.558 58.2018 85.6124 58.2561 85.6565L58.2493 85.6542ZM69.7201 75.8395C70.0826 75.7987 70.4474 75.7579 70.8144 75.7126C73.429 78.556 75.4929 80.8194 77.899 83.6582C77.9493 83.7165 78.0115 83.7633 78.0815 83.7954C78.1515 83.8274 78.2276 83.844 78.3046 83.844C78.4295 83.8446 78.5504 83.7994 78.6444 83.7171C78.6977 83.6724 78.7417 83.6176 78.7737 83.5558C78.8056 83.494 78.825 83.4265 78.8307 83.3572C78.8364 83.2878 78.8283 83.2181 78.8068 83.1519C78.7853 83.0857 78.7509 83.0245 78.7056 82.9717C76.44 80.3073 74.487 78.1459 72.099 75.5472C75.169 75.1372 78.4224 74.5798 81.8548 73.8458V84.4262L69.7201 87.614V75.8395ZM81.8548 72.7651C52.1004 79.1745 36.164 72.21 34.9428 71.6436V70.0078C36.9932 70.8687 44.8073 73.7234 58.1428 73.7234C64.7131 73.7234 72.6428 73.0279 81.8548 71.0568V72.7651ZM81.8548 54.9414C81.4017 55.4829 81.0279 55.936 80.7854 56.2351C80.0763 57.1232 79.3762 58.0204 78.6897 58.9176C79.8225 56.9329 80.8829 54.8847 81.8616 52.8276L81.8548 54.9414ZM81.4017 24.0586L69.5547 27.294L62.3727 3.71107L81.4017 24.0586ZM47.3516 12.1868L43.8444 25.051C43.4457 25.2321 43.1086 25.5258 42.8747 25.8961C42.8136 25.6967 42.7524 25.4973 42.6822 25.3025C42.4114 24.5115 42.0882 23.7395 41.7147 22.9915C41.2729 22.1419 40.5661 21.0272 39.542 21.1654C39.2506 21.205 38.9747 21.3207 38.7422 21.5008C38.7536 21.3444 38.7626 21.1904 38.7717 21.034L47.3516 12.1868ZM43.9985 104.701L35.2826 88.0308H43.3732L58.5075 112.5L43.9985 104.701ZM74.7657 103.147L61.0586 112.527L69.6068 88.7377L81.5286 85.6066L74.7657 103.147ZM81.8661 69.967C78.6308 70.6648 75.5609 71.2018 72.6541 71.6096L73.0166 71.4669C74.4462 70.9072 75.8849 70.3159 77.2918 69.7065C78.7872 69.0676 80.2213 68.4037 81.5558 67.7376L81.8661 67.579V69.967Z" fill="#C6C8CC"/>
</svg>
