<svg width="116" height="116" viewBox="0 0 116 116" fill="none" xmlns="http://www.w3.org/2000/svg">
<path d="M58.9539 8.60938C57.1414 8.60938 57.1414 11.412 58.9539 11.412C60.7663 11.412 60.7595 8.60938 58.9539 8.60938Z" fill="#C6C8CC"/>
<path d="M59.2279 22.944C60.6054 22.944 60.6077 20.803 59.2279 20.803C57.8482 20.803 57.8482 22.944 59.2279 22.944Z" fill="#C6C8CC"/>
<path d="M39.73 105.626C38.5269 105.626 38.5247 107.493 39.73 107.493C40.9353 107.493 40.933 105.626 39.73 105.626Z" fill="#C6C8CC"/>
<path d="M61.2693 38.2891C62.4701 38.2891 62.4724 36.4222 61.2693 36.4222C60.0663 36.4222 60.064 38.2891 61.2693 38.2891Z" fill="#C6C8CC"/>
<path d="M27.7244 78.0824C26.5214 78.0824 26.5191 79.9515 27.7244 79.9515C28.9297 79.9515 28.9275 78.0824 27.7244 78.0824Z" fill="#C6C8CC"/>
<path d="M61.2625 86.8052C61.2438 86.7483 61.2436 86.687 61.2619 86.63C61.2802 86.573 61.3161 86.5233 61.3644 86.488L62.6468 85.5409C62.6943 85.5053 62.7295 85.4555 62.7472 85.3988C62.7649 85.3421 62.7643 85.2812 62.7455 85.2248C62.7267 85.1684 62.6907 85.1194 62.6424 85.0846C62.5942 85.0499 62.5363 85.0312 62.4769 85.0312L60.8909 85.0425C60.8311 85.0429 60.7727 85.0245 60.724 84.99C60.6752 84.9554 60.6385 84.9064 60.619 84.8499L60.1161 83.3342C60.0977 83.2771 60.0617 83.2273 60.0133 83.192C59.9648 83.1567 59.9064 83.1377 59.8465 83.1377C59.7865 83.1377 59.7281 83.1567 59.6797 83.192C59.6312 83.2273 59.5952 83.2771 59.5769 83.3342L59.0965 84.8567C59.079 84.9139 59.0436 84.964 58.9954 84.9994C58.9473 85.0349 58.889 85.054 58.8292 85.0538L57.2319 85.0674C57.1719 85.0672 57.1135 85.0861 57.065 85.1215C57.0166 85.1569 56.9808 85.2069 56.9628 85.2641C56.9448 85.3214 56.9456 85.3829 56.9651 85.4396C56.9846 85.4963 57.0217 85.5453 57.0711 85.5794L58.3693 86.5083C58.4181 86.5427 58.4546 86.5919 58.4734 86.6486C58.4921 86.7053 58.4922 86.7665 58.4735 86.8233L57.9841 88.3594C57.9656 88.4163 57.9658 88.4776 57.9846 88.5344C58.0034 88.5913 58.0399 88.6406 58.0887 88.6752C58.1375 88.7099 58.1961 88.728 58.2559 88.727C58.3158 88.7261 58.3737 88.706 58.4214 88.6698L59.706 87.7227C59.7539 87.6874 59.8119 87.6683 59.8714 87.6683C59.9309 87.6683 59.9889 87.6874 60.0368 87.7227L61.335 88.6516C61.3836 88.6861 61.4419 88.7043 61.5014 88.7037C61.561 88.7031 61.6189 88.6837 61.6668 88.6484C61.7148 88.613 61.7503 88.5634 61.7684 88.5066C61.7866 88.4498 61.7863 88.3888 61.7677 88.3322L61.2625 86.8052Z" fill="#C6C8CC"/>
<path d="M56.1875 67.4657H55.3741C55.344 67.4661 55.3145 67.4569 55.2901 67.4394C55.2656 67.4219 55.2474 67.3969 55.2382 67.3683L54.9799 66.5979C54.9707 66.5691 54.9525 66.544 54.9281 66.5262C54.9037 66.5083 54.8742 66.4987 54.8439 66.4987C54.8137 66.4987 54.7842 66.5083 54.7598 66.5262C54.7354 66.544 54.7172 66.5691 54.708 66.5979L54.4633 67.3728C54.4539 67.4015 54.4357 67.4265 54.4113 67.4444C54.3869 67.4623 54.3576 67.4721 54.3274 67.4725H53.514C53.4834 67.4723 53.4536 67.4819 53.4289 67.4999C53.4042 67.5179 53.386 67.5434 53.3768 67.5726C53.3677 67.6017 53.3682 67.6331 53.3782 67.662C53.3882 67.6909 53.4072 67.7158 53.4325 67.733L54.0918 68.2043C54.1166 68.222 54.1352 68.247 54.145 68.2759C54.1547 68.3048 54.1551 68.336 54.1461 68.3651L53.9014 69.1377C53.8914 69.1673 53.8912 69.1993 53.9008 69.229C53.9104 69.2587 53.9294 69.2845 53.9548 69.3025C53.9803 69.3206 54.0109 69.33 54.0421 69.3293C54.0733 69.3285 54.1034 69.3178 54.128 69.2986L54.7805 68.816C54.8051 68.7978 54.8349 68.788 54.8655 68.788C54.8961 68.788 54.9258 68.7978 54.9504 68.816L55.6097 69.2872C55.6339 69.3085 55.6645 69.321 55.6966 69.3227C55.7287 69.3243 55.7605 69.3151 55.7867 69.2965C55.8129 69.2779 55.8321 69.251 55.8411 69.2201C55.8501 69.1892 55.8484 69.1562 55.8363 69.1264L55.5803 68.3561C55.5704 68.3274 55.57 68.2964 55.5789 68.2675C55.5879 68.2386 55.6058 68.2133 55.6301 68.1952L56.2849 67.7126C56.3058 67.6931 56.3203 67.6677 56.3266 67.6397C56.3329 67.6118 56.3306 67.5827 56.3201 67.556C56.3096 67.5294 56.2914 67.5065 56.2677 67.4904C56.244 67.4743 56.2161 67.4657 56.1875 67.4657Z" fill="#C6C8CC"/>
<path d="M70.103 55.322L71.0523 56.0017C71.0868 56.027 71.1128 56.0623 71.1265 56.1028C71.1403 56.1434 71.1413 56.1872 71.1293 56.2283L70.7781 57.343C70.7654 57.3844 70.766 57.4289 70.78 57.47C70.7939 57.511 70.8205 57.5467 70.8559 57.5718C70.8913 57.5969 70.9337 57.6102 70.9771 57.6098C71.0205 57.6094 71.0627 57.5953 71.0976 57.5695L72.0378 56.874C72.0732 56.8487 72.1156 56.8351 72.159 56.8351C72.2025 56.8351 72.2449 56.8487 72.2802 56.874L73.2318 57.5537C73.267 57.5771 73.3085 57.5893 73.3508 57.5886C73.3931 57.588 73.4342 57.5744 73.4686 57.5498C73.503 57.5253 73.5291 57.4908 73.5435 57.451C73.5579 57.4112 73.5598 57.368 73.549 57.3271L73.1797 56.2169C73.1662 56.1764 73.1659 56.1326 73.179 56.0918C73.192 56.0511 73.2177 56.0156 73.2522 55.9904L74.1924 55.2948C74.2283 55.2692 74.255 55.2327 74.2686 55.1908C74.2822 55.1489 74.2821 55.1037 74.2681 55.0619C74.2542 55.0201 74.2272 54.9839 74.1912 54.9585C74.1551 54.9331 74.1119 54.92 74.0678 54.921H72.8988C72.8551 54.9221 72.8123 54.909 72.7768 54.8836C72.7412 54.8583 72.7149 54.8221 72.7017 54.7805L72.3324 53.6704C72.3182 53.6293 72.2917 53.5937 72.2563 53.5685C72.221 53.5433 72.1787 53.5297 72.1352 53.5297C72.0918 53.5297 72.0495 53.5433 72.0142 53.5685C71.9788 53.5937 71.9522 53.6293 71.9381 53.6704L71.5938 54.7941C71.5799 54.8353 71.5539 54.8712 71.519 54.8971C71.4842 54.923 71.4423 54.9377 71.3989 54.9391H70.2298C70.1829 54.9339 70.1356 54.945 70.0958 54.9705C70.056 54.996 70.0262 55.0343 70.0113 55.0792C69.9965 55.124 69.9975 55.1726 70.0141 55.2168C70.0308 55.261 70.0622 55.2982 70.103 55.322Z" fill="#C6C8CC"/>
<path d="M32.7927 95.0973H31.6236C31.5801 95.098 31.5374 95.0848 31.502 95.0595C31.4665 95.0342 31.4401 94.9983 31.4265 94.9569L31.0572 93.8467C31.0431 93.8057 31.0165 93.77 30.9812 93.7448C30.9458 93.7196 30.9035 93.7061 30.8601 93.7061C30.8167 93.7061 30.7744 93.7196 30.739 93.7448C30.7037 93.77 30.6771 93.8057 30.663 93.8467L30.3096 94.9614C30.2969 95.0033 30.2712 95.04 30.2361 95.0661C30.201 95.0922 30.1584 95.1063 30.1147 95.1064H28.9456C28.9022 95.1069 28.8599 95.1211 28.825 95.1469C28.7901 95.1728 28.7642 95.2091 28.7512 95.2506C28.7381 95.2921 28.7385 95.3366 28.7522 95.3779C28.766 95.4191 28.7925 95.4549 28.8278 95.4802L29.7794 96.1599C29.8137 96.1854 29.8394 96.2207 29.8532 96.2612C29.867 96.3017 29.8681 96.3454 29.8564 96.3865L29.503 97.5012C29.4902 97.5426 29.4909 97.5871 29.5048 97.6282C29.5188 97.6693 29.5454 97.7049 29.5808 97.73C29.6162 97.7551 29.6586 97.7684 29.702 97.768C29.7454 97.7676 29.7875 97.7535 29.8224 97.7277L30.7627 97.0322C30.7984 97.0067 30.8412 96.993 30.885 96.993C30.9289 96.993 30.9717 97.0067 31.0074 97.0322L31.9567 97.7119C31.9919 97.7353 32.0334 97.7475 32.0756 97.7469C32.1179 97.7462 32.159 97.7327 32.1934 97.7081C32.2279 97.6835 32.254 97.649 32.2684 97.6092C32.2827 97.5694 32.2846 97.5262 32.2738 97.4853L31.9046 96.3752C31.8914 96.3346 31.8913 96.2908 31.9043 96.2502C31.9173 96.2096 31.9428 96.174 31.9771 96.1486L32.9173 95.453C32.9464 95.4257 32.9669 95.3905 32.9763 95.3518C32.9858 95.313 32.9838 95.2723 32.9706 95.2347C32.9574 95.197 32.9336 95.164 32.902 95.1396C32.8704 95.1152 32.8324 95.1006 32.7927 95.0973Z" fill="#C6C8CC"/>
<path d="M84.8273 100.569H83.6582C83.6145 100.569 83.5718 100.555 83.5364 100.53C83.5009 100.504 83.4746 100.468 83.4611 100.426L83.0918 99.3181C83.0777 99.2771 83.0511 99.2415 83.0158 99.2163C82.9804 99.191 82.9381 99.1775 82.8947 99.1775C82.8513 99.1775 82.809 99.191 82.7736 99.2163C82.7383 99.2415 82.7117 99.2771 82.6976 99.3181L82.3442 100.433C82.3315 100.475 82.3058 100.511 82.2707 100.538C82.2356 100.564 82.193 100.578 82.1493 100.578H80.9803C80.9368 100.578 80.8945 100.592 80.8596 100.618C80.8247 100.644 80.7988 100.681 80.7858 100.722C80.7727 100.764 80.7731 100.808 80.7869 100.849C80.8006 100.891 80.8271 100.926 80.8624 100.952L81.8117 101.631C81.8471 101.656 81.8736 101.691 81.8875 101.732C81.9014 101.773 81.9018 101.817 81.8888 101.858L81.5376 102.973C81.5248 103.014 81.5255 103.059 81.5394 103.1C81.5534 103.141 81.58 103.176 81.6154 103.201C81.6508 103.227 81.6932 103.24 81.7366 103.239C81.78 103.239 81.8221 103.225 81.857 103.199L82.7973 102.506C82.8324 102.48 82.8749 102.466 82.9185 102.466C82.9621 102.466 83.0046 102.48 83.0397 102.506L83.9913 103.186C84.0262 103.21 84.0681 103.224 84.111 103.224C84.1539 103.224 84.1957 103.21 84.2306 103.185C84.2655 103.16 84.2918 103.125 84.3057 103.085C84.3197 103.044 84.3206 103 84.3085 102.959L83.9392 101.849C83.926 101.808 83.9259 101.765 83.939 101.724C83.952 101.683 83.9774 101.648 84.0117 101.622L84.9519 100.929C84.9825 100.902 85.0043 100.866 85.0147 100.827C85.0251 100.787 85.0235 100.746 85.0101 100.707C84.9968 100.669 84.9723 100.635 84.9397 100.61C84.9072 100.586 84.868 100.571 84.8273 100.569Z" fill="#C6C8CC"/>
<path d="M49.9684 46.3003C50.1772 46.3003 50.3813 46.2384 50.5549 46.1223C50.7286 46.0063 50.8639 45.8414 50.9438 45.6485C51.0237 45.4556 51.0446 45.2433 51.0039 45.0385C50.9631 44.8337 50.8626 44.6456 50.7149 44.4979C50.5673 44.3503 50.3791 44.2497 50.1743 44.209C49.9695 44.1683 49.7573 44.1892 49.5643 44.2691C49.3714 44.349 49.2065 44.4843 49.0905 44.6579C48.9745 44.8316 48.9126 45.0357 48.9126 45.2445C48.9126 45.5245 49.0238 45.7931 49.2218 45.991C49.4198 46.189 49.6884 46.3003 49.9684 46.3003Z" fill="#C6C8CC"/>
<path d="M52.2226 8.29444C52.1073 8.29399 51.9944 8.32782 51.8983 8.39162C51.8022 8.45543 51.7272 8.54634 51.6829 8.65283C51.6385 8.75932 51.6268 8.87658 51.6492 8.98974C51.6716 9.1029 51.7271 9.20686 51.8087 9.28842C51.8902 9.36999 51.9942 9.42549 52.1073 9.44789C52.2205 9.47028 52.3378 9.45856 52.4443 9.41421C52.5507 9.36986 52.6417 9.29488 52.7055 9.19878C52.7693 9.10268 52.8031 8.98979 52.8026 8.87444C52.802 8.7208 52.7408 8.57362 52.6321 8.46498C52.5235 8.35633 52.3763 8.29503 52.2226 8.29444Z" fill="#C6C8CC"/>
<path d="M53.5005 20.8891C53.3858 20.8891 53.2736 20.9231 53.1782 20.9869C53.0829 21.0506 53.0085 21.1412 52.9646 21.2471C52.9207 21.3531 52.9092 21.4697 52.9316 21.5823C52.954 21.6948 53.0092 21.7981 53.0903 21.8792C53.1715 21.9603 53.2748 22.0156 53.3873 22.038C53.4998 22.0603 53.6164 22.0489 53.7224 22.005C53.8284 21.9611 53.919 21.8867 53.9827 21.7913C54.0465 21.696 54.0805 21.5838 54.0805 21.4691C54.0808 21.3929 54.066 21.3173 54.0369 21.2468C54.0079 21.1763 53.9652 21.1122 53.9113 21.0583C53.8573 21.0044 53.7933 20.9617 53.7228 20.9326C53.6523 20.9036 53.5767 20.8888 53.5005 20.8891Z" fill="#C6C8CC"/>
<path d="M66.7226 8.54587C66.8379 8.54632 66.9507 8.51255 67.0467 8.44885C67.1428 8.38514 67.2178 8.29436 67.2622 8.18801C67.3066 8.08165 67.3185 7.96451 67.2962 7.85141C67.274 7.73831 67.2188 7.63435 67.1374 7.55269C67.0561 7.47103 66.9523 7.41535 66.8393 7.3927C66.7263 7.37005 66.6091 7.38145 66.5026 7.42545C66.3961 7.46946 66.305 7.54408 66.2409 7.63988C66.1768 7.73569 66.1426 7.84835 66.1426 7.96361C66.1426 8.11764 66.2037 8.2654 66.3124 8.37453C66.4211 8.48366 66.5686 8.54527 66.7226 8.54587Z" fill="#C6C8CC"/>
<path d="M55.0298 12.8461C54.9151 12.8466 54.8032 12.881 54.7082 12.945C54.6131 13.009 54.5391 13.0997 54.4955 13.2057C54.452 13.3118 54.4408 13.4283 54.4634 13.5407C54.4861 13.653 54.5415 13.7562 54.6227 13.8371C54.7039 13.9179 54.8073 13.973 54.9197 13.9952C55.0322 14.0173 55.1487 14.0057 55.2545 13.9618C55.3604 13.9178 55.4508 13.8435 55.5144 13.7481C55.5781 13.6528 55.612 13.5408 55.612 13.4261C55.612 13.3498 55.597 13.2742 55.5677 13.2037C55.5384 13.1331 55.4954 13.0691 55.4414 13.0152C55.3873 12.9613 55.323 12.9186 55.2524 12.8896C55.1818 12.8606 55.1061 12.8458 55.0298 12.8461Z" fill="#C6C8CC"/>
<path d="M64.4163 22.1669C64.5309 22.1664 64.6428 22.132 64.7379 22.068C64.8329 22.004 64.9069 21.9133 64.9505 21.8073C64.994 21.7013 65.0052 21.5847 64.9826 21.4724C64.9599 21.36 64.9045 21.2569 64.8233 21.176C64.7421 21.0951 64.6387 21.0401 64.5263 21.0179C64.4139 20.9957 64.2974 21.0073 64.1915 21.0513C64.0857 21.0952 63.9952 21.1696 63.9316 21.2649C63.8679 21.3602 63.834 21.4723 63.834 21.5869C63.834 21.6632 63.8491 21.7389 63.8784 21.8094C63.9076 21.8799 63.9506 21.9439 64.0047 21.9978C64.0588 22.0517 64.123 22.0944 64.1936 22.1234C64.2642 22.1524 64.3399 22.1672 64.4163 22.1669Z" fill="#C6C8CC"/>
<path d="M64.7607 13.3536C64.9171 13.3536 65.0699 13.3073 65.2 13.2204C65.33 13.1335 65.4313 13.01 65.4912 12.8655C65.551 12.721 65.5667 12.562 65.5362 12.4087C65.5057 12.2553 65.4304 12.1144 65.3198 12.0038C65.2092 11.8932 65.0683 11.8179 64.9149 11.7874C64.7616 11.7569 64.6026 11.7726 64.4581 11.8324C64.3136 11.8923 64.1901 11.9936 64.1032 12.1236C64.0163 12.2537 63.97 12.4065 63.97 12.5629C63.97 12.6668 63.9904 12.7696 64.0302 12.8655C64.0699 12.9614 64.1281 13.0486 64.2016 13.122C64.275 13.1955 64.3622 13.2537 64.4581 13.2934C64.554 13.3332 64.6568 13.3536 64.7607 13.3536Z" fill="#C6C8CC"/>
<path d="M62.7986 95.0317C61.4732 95.0317 61.4709 97.0911 62.7986 97.0911C64.1263 97.0911 64.1172 95.0317 62.7986 95.0317Z" fill="#C6C8CC"/>
<path d="M53.147 98.6885C53.0317 98.688 52.9188 98.7219 52.8227 98.7857C52.7266 98.8495 52.6516 98.9404 52.6073 99.0469C52.5629 99.1534 52.5512 99.2706 52.5736 99.3838C52.596 99.4969 52.6515 99.6009 52.733 99.6825C52.8146 99.764 52.9186 99.8195 53.0317 99.8419C53.1449 99.8643 53.2621 99.8526 53.3686 99.8083C53.4751 99.7639 53.566 99.6889 53.6298 99.5928C53.6936 99.4967 53.7275 99.3838 53.727 99.2685C53.727 99.1147 53.6659 98.9671 53.5572 98.8584C53.4484 98.7496 53.3009 98.6885 53.147 98.6885Z" fill="#C6C8CC"/>
<path d="M68.0571 78.9841C68.2812 78.9841 68.5002 78.9177 68.6865 78.7932C68.8728 78.6687 69.018 78.4918 69.1037 78.2848C69.1895 78.0778 69.2119 77.8501 69.1682 77.6303C69.1245 77.4106 69.0166 77.2087 68.8581 77.0503C68.6997 76.8919 68.4979 76.784 68.2781 76.7403C68.0584 76.6966 67.8306 76.719 67.6236 76.8047C67.4166 76.8905 67.2397 77.0357 67.1152 77.222C66.9908 77.4083 66.9243 77.6273 66.9243 77.8513C66.9243 78.1518 67.0437 78.4399 67.2561 78.6523C67.4685 78.8648 67.7567 78.9841 68.0571 78.9841Z" fill="#C6C8CC"/>
<path d="M63.032 71.8361C62.9167 71.8357 62.8039 71.8694 62.7079 71.9332C62.6118 71.9969 62.5368 72.0876 62.4924 72.194C62.448 72.3003 62.4362 72.4175 62.4584 72.5306C62.4806 72.6437 62.5359 72.7476 62.6172 72.8293C62.6985 72.911 62.8023 72.9666 62.9153 72.9893C63.0283 73.0119 63.1455 73.0005 63.252 72.9565C63.3585 72.9125 63.4496 72.8379 63.5137 72.7421C63.5778 72.6463 63.612 72.5336 63.612 72.4184C63.612 72.2644 63.551 72.1166 63.4422 72.0075C63.3335 71.8983 63.186 71.8367 63.032 71.8361Z" fill="#C6C8CC"/>
<path d="M62.2027 59.0626C62.0874 59.0622 61.9745 59.096 61.8784 59.1598C61.7823 59.2236 61.7073 59.3145 61.663 59.421C61.6186 59.5275 61.6069 59.6448 61.6293 59.7579C61.6517 59.8711 61.7072 59.975 61.7888 60.0566C61.8703 60.1382 61.9743 60.1937 62.0874 60.2161C62.2006 60.2385 62.3179 60.2267 62.4244 60.1824C62.5308 60.138 62.6218 60.0631 62.6856 59.967C62.7494 59.8709 62.7832 59.758 62.7827 59.6426C62.7827 59.4888 62.7216 59.3413 62.6129 59.2325C62.5041 59.1237 62.3566 59.0626 62.2027 59.0626Z" fill="#C6C8CC"/>
<path d="M53.8539 32.9875C53.9686 32.9875 54.0808 32.9535 54.1761 32.8898C54.2715 32.826 54.3459 32.7355 54.3898 32.6295C54.4337 32.5235 54.4452 32.4069 54.4228 32.2944C54.4004 32.1819 54.3452 32.0785 54.264 31.9974C54.1829 31.9163 54.0796 31.861 53.9671 31.8387C53.8546 31.8163 53.7379 31.8278 53.632 31.8717C53.526 31.9156 53.4354 31.9899 53.3717 32.0853C53.3079 32.1807 53.2739 32.2928 53.2739 32.4075C53.2739 32.5613 53.335 32.7089 53.4438 32.8176C53.5526 32.9264 53.7001 32.9875 53.8539 32.9875Z" fill="#C6C8CC"/>
<path d="M63.5123 29.1993C63.6915 29.1993 63.8667 29.1462 64.0158 29.0466C64.1648 28.947 64.281 28.8055 64.3495 28.6399C64.4181 28.4743 64.4361 28.2921 64.4011 28.1163C64.3661 27.9405 64.2798 27.779 64.1531 27.6523C64.0263 27.5255 63.8649 27.4392 63.6891 27.4043C63.5133 27.3693 63.3311 27.3872 63.1655 27.4558C62.9999 27.5244 62.8583 27.6406 62.7588 27.7896C62.6592 27.9386 62.606 28.1139 62.606 28.2931C62.606 28.5334 62.7015 28.7639 62.8715 28.9339C63.0414 29.1039 63.2719 29.1993 63.5123 29.1993Z" fill="#C6C8CC"/>
<path d="M67.7422 43.7061C67.8568 43.7057 67.9687 43.6713 68.0638 43.6073C68.1589 43.5433 68.2329 43.4526 68.2764 43.3465C68.32 43.2405 68.3311 43.124 68.3085 43.0116C68.2859 42.8992 68.2304 42.7961 68.1492 42.7152C68.068 42.6343 67.9647 42.5793 67.8522 42.5571C67.7398 42.5349 67.6233 42.5465 67.5174 42.5905C67.4116 42.6345 67.3211 42.7088 67.2575 42.8041C67.1939 42.8995 67.1599 43.0115 67.1599 43.1261C67.1599 43.2025 67.175 43.2781 67.2043 43.3486C67.2336 43.4191 67.2765 43.4832 67.3306 43.5371C67.3847 43.591 67.4489 43.6336 67.5195 43.6626C67.5902 43.6917 67.6658 43.7064 67.7422 43.7061Z" fill="#C6C8CC"/>
<path d="M55.7344 109.171C55.6191 109.171 55.5063 109.205 55.4103 109.268C55.3142 109.332 55.2392 109.423 55.1948 109.529C55.1504 109.636 55.1385 109.753 55.1608 109.866C55.183 109.979 55.2382 110.083 55.3196 110.165C55.4009 110.246 55.5047 110.302 55.6177 110.325C55.7307 110.347 55.8479 110.336 55.9544 110.292C56.0609 110.248 56.152 110.173 56.2161 110.077C56.2802 109.982 56.3144 109.869 56.3144 109.754C56.3144 109.6 56.2533 109.452 56.1446 109.343C56.0359 109.234 55.8884 109.172 55.7344 109.171Z" fill="#C6C8CC"/>
<path d="M91.1574 93.6202C91.0427 93.6202 90.9305 93.6542 90.8352 93.7179C90.7398 93.7817 90.6654 93.8722 90.6215 93.9782C90.5776 94.0842 90.5662 94.2008 90.5885 94.3133C90.6109 94.4258 90.6662 94.5292 90.7473 94.6103C90.8284 94.6914 90.9317 94.7467 91.0442 94.769C91.1567 94.7914 91.2734 94.7799 91.3793 94.736C91.4853 94.6921 91.5759 94.6178 91.6396 94.5224C91.7034 94.427 91.7374 94.3149 91.7374 94.2002C91.7368 94.0465 91.6755 93.8994 91.5669 93.7907C91.4582 93.6821 91.311 93.6208 91.1574 93.6202Z" fill="#C6C8CC"/>
<path d="M83.5132 66.4236C83.6285 66.4241 83.7413 66.3903 83.8373 66.3266C83.9334 66.2629 84.0084 66.1721 84.0528 66.0657C84.0972 65.9594 84.1091 65.8423 84.0869 65.7292C84.0646 65.6161 84.0094 65.5121 83.928 65.4304C83.8467 65.3488 83.7429 65.2931 83.6299 65.2705C83.5169 65.2478 83.3997 65.2592 83.2932 65.3032C83.1867 65.3472 83.0956 65.4218 83.0315 65.5176C82.9674 65.6134 82.9332 65.7261 82.9332 65.8414C82.9332 65.9954 82.9943 66.1431 83.103 66.2523C83.2117 66.3614 83.3592 66.423 83.5132 66.4236Z" fill="#C6C8CC"/>
<path d="M41.6195 58.4192C41.7343 58.4192 41.8464 58.3851 41.9418 58.3214C42.0372 58.2577 42.1115 58.1671 42.1554 58.0611C42.1993 57.9551 42.2108 57.8385 42.1884 57.726C42.166 57.6135 42.1108 57.5102 42.0297 57.429C41.9486 57.3479 41.8452 57.2927 41.7327 57.2703C41.6202 57.2479 41.5036 57.2594 41.3976 57.3033C41.2916 57.3472 41.201 57.4215 41.1373 57.5169C41.0736 57.6123 41.0396 57.7244 41.0396 57.8392C41.0401 57.9928 41.1014 58.14 41.2101 58.2486C41.3187 58.3573 41.4659 58.4186 41.6195 58.4192Z" fill="#C6C8CC"/>
<path d="M90.804 81.1366C90.8044 81.0212 90.7706 80.9084 90.7068 80.8123C90.643 80.7162 90.5521 80.6412 90.4456 80.5968C90.3391 80.5525 90.2219 80.5407 90.1087 80.5631C89.9955 80.5855 89.8916 80.641 89.81 80.7226C89.7284 80.8042 89.6729 80.9081 89.6505 81.0213C89.6281 81.1344 89.6399 81.2517 89.6842 81.3582C89.7286 81.4647 89.8036 81.5556 89.8997 81.6194C89.9958 81.6832 90.1086 81.717 90.224 81.7166C90.3776 81.716 90.5248 81.6547 90.6335 81.546C90.7421 81.4374 90.8034 81.2902 90.804 81.1366Z" fill="#C6C8CC"/>
<path d="M74.6048 107.354C74.4345 107.354 74.268 107.405 74.1265 107.499C73.9849 107.594 73.8745 107.728 73.8094 107.886C73.7442 108.043 73.7272 108.216 73.7604 108.383C73.7936 108.55 73.8756 108.704 73.996 108.824C74.1164 108.944 74.2698 109.026 74.4368 109.06C74.6038 109.093 74.7769 109.076 74.9342 109.011C75.0915 108.945 75.226 108.835 75.3206 108.694C75.4152 108.552 75.4657 108.386 75.4657 108.215C75.4657 108.102 75.4434 107.99 75.4002 107.886C75.3569 107.781 75.2935 107.686 75.2135 107.606C75.1336 107.527 75.0387 107.463 74.9342 107.42C74.8298 107.377 74.7178 107.354 74.6048 107.354Z" fill="#C6C8CC"/>
<path d="M48.6747 82.4937C49.2903 82.4937 49.7894 81.9946 49.7894 81.379C49.7894 80.7633 49.2903 80.2643 48.6747 80.2643C48.0591 80.2643 47.56 80.7633 47.56 81.379C47.56 81.9946 48.0591 82.4937 48.6747 82.4937Z" fill="#C6C8CC"/>
<path d="M97.0028 82.0632C95.4327 71.0251 90.2217 64.448 81.7506 56.8173C70.5335 46.7104 70.8303 34.8612 71.2063 19.8605L71.2245 19.0788C71.229 19.0397 71.229 19.0002 71.2245 18.961C71.4646 18.9089 71.6889 18.8523 71.8815 18.7934C73.0007 18.4467 73.694 17.7308 73.694 16.922V14.0695C73.694 14.0333 73.694 13.997 73.6827 13.9585C73.6215 13.1973 72.9463 12.5266 71.8702 12.1981C71.2757 12.0279 70.67 11.8992 70.0577 11.813C69.9662 11.7994 69.8738 11.7926 69.7813 11.7926H69.0789L70.0599 4.63094V4.59469V4.5675C70.0599 4.54258 70.0599 4.51992 70.0599 4.495C70.0735 1.51117 60.9567 1.35938 59.1328 1.35938C57.309 1.35938 48.1876 1.51117 48.1876 4.495C48.1876 4.51992 48.1876 4.54258 48.1876 4.5675V4.58789L48.2012 4.67398L49.1641 11.7269L48.6453 11.745H48.5909C47.8431 11.838 47.1037 11.9895 46.3796 12.1981C45.3125 12.5266 44.6374 13.1973 44.5671 13.9585C44.5671 13.997 44.5558 14.0333 44.5558 14.0695V16.922C44.5558 17.7308 45.2513 18.4467 46.3683 18.7934C46.5609 18.8523 46.7852 18.9089 47.0253 18.9633C47.0207 19.0017 47.0207 19.0405 47.0253 19.0788L47.0435 19.8605C47.4195 34.8612 47.7231 46.7104 36.4992 56.8173C28.0281 64.448 22.8171 71.0273 21.247 82.0632C20.3408 88.3866 21.0024 95.3216 23.089 101.584C25.6627 109.316 32.5208 114.509 40.1537 114.509H78.0961C85.729 114.509 92.5961 109.316 95.1608 101.584C97.2452 95.3216 97.8999 88.3888 97.0028 82.0632ZM69.7813 12.8574C69.8197 12.854 69.8584 12.854 69.8968 12.8574C70.458 12.934 71.013 13.0506 71.5575 13.2063C72.1239 13.3808 72.4502 13.6436 72.568 13.8724C72.2712 13.9812 71.4578 14.1851 69.3259 14.3663C69.131 14.3845 68.9271 14.4003 68.7187 14.4139L68.9339 12.8484L69.7813 12.8574ZM50.6209 14.5L49.411 5.66406C50.2238 5.91197 51.0583 6.08191 51.9032 6.17156C54.3033 6.44179 56.7177 6.56587 59.1328 6.54312C63.9767 6.54312 67.2256 6.235 68.8524 5.63687L67.6357 14.5C64.9849 14.6586 61.5548 14.7379 58.0703 14.7266C55.3039 14.6971 52.7211 14.6223 50.6209 14.5ZM59.1328 2.42422C61.8221 2.42422 64.3234 2.65078 66.1767 3.06086C68.1342 3.49586 68.909 4.04641 69.0019 4.42023C68.4831 4.86203 65.1118 5.47828 59.1328 5.47828C53.1538 5.47828 49.7962 4.8643 49.2683 4.4225C49.445 3.56156 52.857 2.42422 59.1328 2.42422ZM46.6991 13.2154C47.3589 13.0274 48.0323 12.891 48.7132 12.8076L49.3136 12.7872L49.5402 14.4252L49.1414 14.3935C46.8554 14.2077 46.0013 13.9948 45.6909 13.8815C45.8064 13.6527 46.1327 13.3898 46.6991 13.2154ZM46.6991 17.7761C45.9673 17.5495 45.632 17.1757 45.632 16.922V14.9758C46.3117 15.1638 47.3742 15.3179 49.0508 15.4538C51.3776 15.6419 54.5789 15.7574 58.0635 15.7778H59.1577C63.1226 15.7778 66.8156 15.6555 69.4165 15.4334C70.973 15.302 71.9812 15.1525 72.6224 14.9803V16.9265C72.6224 17.1802 72.2893 17.5541 71.5575 17.7806C67.493 19.0312 50.7636 19.0312 46.6991 17.7761ZM67.1146 19.5048L66.8065 22.867C66.8077 22.8745 66.8077 22.8821 66.8065 22.8896C66.5256 23.3631 63.7275 24.0224 59.1306 24.0224C54.5336 24.0224 51.7356 23.3745 51.4546 22.8896C51.4534 22.8821 51.4534 22.8745 51.4546 22.867L51.1465 19.5048C53.4937 19.6905 56.3099 19.7857 59.1328 19.7857C61.9558 19.7857 64.7674 19.6905 67.1146 19.5048ZM94.1503 101.249C91.7216 108.544 85.2691 113.444 78.0961 113.444H40.1605C32.9875 113.444 26.535 108.544 24.1063 101.249C22.0672 95.1313 21.4328 88.3775 22.3074 82.2173C23.8321 71.5009 28.9275 65.0801 37.2174 57.6126C48.7993 47.1771 48.4821 34.5032 48.1151 19.8378L48.097 19.1581C48.6838 19.251 49.3408 19.3348 50.0658 19.4051L50.3875 22.9417C50.4102 23.7551 51.3663 24.3011 53.3917 24.6591C55.2907 24.9559 57.2109 25.0953 59.1328 25.0759C61.7474 25.0759 67.8124 24.8675 67.8736 22.944L68.1953 19.4073C68.9181 19.3371 69.5774 19.2533 70.1619 19.1604L70.146 19.8401C69.779 34.51 69.4663 47.1794 81.0437 57.6126C89.3336 65.0891 94.429 71.5009 95.9515 82.2173C96.8238 88.3775 96.1849 95.1381 94.1503 101.249Z" fill="#C6C8CC"/>
<path d="M84.0547 89.4922C84.2699 89.2568 84.4507 88.9921 84.5916 88.706C85.0153 87.7386 84.5395 87.1744 84.2201 86.9275C83.8616 86.6454 83.4072 86.5145 82.9536 86.5627C82.7626 86.5816 82.5737 86.618 82.3894 86.6715C82.2354 86.719 82.0768 86.7779 81.9137 86.8414L81.8593 86.864C81.4741 87.0294 81.0686 87.2379 80.7129 87.4214C80.4569 87.555 80.2144 87.6797 80.0037 87.7771C79.7001 87.9175 79.3965 88.058 79.0975 88.203C78.1505 88.6561 77.1717 89.1093 76.1522 89.5261C75.4861 89.8116 74.8155 90.0608 74.1131 90.3146L73.66 90.4981C73.66 90.4007 73.66 90.3055 73.66 90.2058V90.0835C74.2196 89.5375 74.8132 88.9915 75.4408 88.4386C75.9641 87.9855 76.5509 87.512 77.174 87.0136C79.3444 85.2804 81.9318 83.2028 82.8833 80.5044C82.949 80.4025 83.0125 80.2983 83.0601 80.2076L83.2481 79.8791C83.6535 79.2052 84.0152 78.5059 84.3311 77.7857C84.7424 76.8833 84.9445 75.8997 84.9224 74.9083C84.8997 74.3533 84.7593 73.5965 84.2201 73.1457C84.0539 73.0097 83.8606 72.9108 83.6531 72.8557C83.4456 72.8006 83.2287 72.7905 83.017 72.8262C82.2286 72.9236 81.6916 73.3881 81.4311 74.206C81.3028 74.6362 81.2216 75.0791 81.1887 75.5268C81.1773 75.6265 81.166 75.7217 81.1547 75.8169C81.0784 76.581 81.0414 77.3485 81.0437 78.1165C81.0437 78.3929 81.0437 78.6693 81.0278 78.9502C81.0288 79.9817 80.8885 81.0085 80.6109 82.002C80.6109 82.002 80.6109 82.002 80.6109 82.0179C80.3844 82.4279 80.1419 82.829 79.8859 83.2164L79.8655 83.2549C79.0389 84.0985 78.1579 84.8871 77.2283 85.6157C77.43 85.2781 77.618 84.936 77.72 84.7094L77.9783 84.1589C78.5628 82.9196 79.2244 81.5172 79.2651 80.219C79.2651 79.7658 79.3105 78.4201 77.8197 78.1142C77.0018 77.9511 76.3017 78.3068 75.8984 79.0839C75.6563 79.6036 75.5075 80.1619 75.4589 80.7333C75.3652 81.6537 75.3873 82.5823 75.5246 83.4973L75.5518 83.7239C75.6515 84.6505 75.7217 85.5568 75.4974 86.4268C75.4986 86.4343 75.4986 86.4419 75.4974 86.4494C75.3184 86.7915 75.1122 87.1291 74.8834 87.4893C74.873 87.5068 74.8639 87.5249 74.8562 87.5437L74.7543 87.6298C74.3805 87.9583 74.0225 88.2846 73.6713 88.6108C73.6713 86.9977 73.5807 85.1829 73.012 83.853C73.2679 82.4448 73.3546 81.0111 73.2703 79.5823L77.1219 75.8758C77.3844 75.6229 77.5662 75.298 77.6444 74.942C77.7227 74.586 77.6938 74.2148 77.5614 73.8752C77.29 73.1023 76.7251 72.4674 75.989 72.108C75.6813 71.9596 75.3386 71.8993 74.9987 71.9337C74.6588 71.9681 74.335 72.0958 74.0633 72.3029L71.6436 74.1584C71.0061 73.0841 70.1585 72.1494 69.1514 71.4102C69.4684 71.1609 69.8022 70.9338 70.1505 70.7305C72.6631 69.2918 74.8222 69.856 74.8472 69.8628C74.9284 69.882 75.0129 69.882 75.0941 69.8628H75.1598C76.347 69.8628 77.2759 68.3811 77.2759 66.4893C77.2759 64.6518 76.3991 63.2064 75.264 63.1225C73.7325 62.5879 71.9925 62.9209 70.3635 63.5915C70.2457 61.9852 69.3734 59.8465 68.5623 58.8473C67.7407 57.8697 66.6765 57.1251 65.4765 56.6882L66.5459 51.8579C66.5776 51.7061 66.6275 51.5384 66.6751 51.364C66.9016 50.5868 67.169 49.6217 66.6637 48.8582C65.9387 47.7639 64.2033 47.4988 63.0999 47.9406C62.8085 48.0591 62.5497 48.2458 62.3455 48.4852C62.1413 48.7245 61.9975 49.0094 61.9263 49.3158L60.3041 56.2033H60.2815C60.2656 56.2033 60.2543 56.1897 60.2407 56.1852C59.7241 55.0909 59.0059 49.2025 59.0444 46.8758C59.0512 46.6654 58.9993 46.4573 58.8944 46.2748C58.7896 46.0924 58.636 45.9427 58.4508 45.8426C57.4449 45.2649 55.2563 45.7928 54.7533 46.0986C53.9241 46.6016 53.9241 47.6076 53.9241 48.1377C53.9241 51.083 54.298 54.8304 55.3084 57.3067C54.8848 56.661 54.5834 56.2645 54.2504 55.825C53.9173 55.3854 53.548 54.8961 52.959 54.0397C52.1592 52.8729 51.0921 52.6168 49.7871 53.2829C49.0621 53.6522 47.9746 54.2118 48.0947 55.6596C48.141 56.1628 48.3604 56.6344 48.7155 56.994C48.7789 57.0665 48.8423 57.1458 48.9103 57.2206C49.5266 58.0226 51.5633 60.7482 52.2657 61.7949C52.0393 62.2602 51.844 62.7401 51.6812 63.2313C48.319 62.9209 43.7107 63.7207 40.9919 65.114C40.9647 65.1272 40.9389 65.1431 40.9149 65.1616C40.7356 65.2295 40.5727 65.3345 40.4369 65.4697C40.2582 65.6649 40.1313 65.9017 40.0676 66.1586C40.0039 66.4154 40.0054 66.6841 40.0721 66.9401C40.2012 67.4888 40.4851 67.9889 40.89 68.3811C41.3058 68.7994 41.798 69.134 42.34 69.3666C42.6005 69.4803 42.8805 69.5426 43.1647 69.5501C43.4232 69.5559 43.6764 69.4763 43.8851 69.3236C46.1216 68.6176 48.4572 68.2764 50.8021 68.3131C50.7545 69.2737 50.7591 70.2366 50.7908 71.1859C50.0408 70.6082 48.831 70.2457 47.4082 70.2457C45.018 70.2457 43.2145 71.2675 43.2145 72.6201V77.0425C42.7713 77.1787 42.3583 77.3987 41.9979 77.6905C41.7037 77.5283 41.3668 77.4603 41.0327 77.4957C40.1876 77.5636 39.6054 78.1618 39.4332 79.1337C39.3496 79.7895 39.3795 80.4547 39.5216 81.1003C39.1794 80.5928 38.8577 80.0762 38.5587 79.5438C38.5458 79.443 38.5032 79.3484 38.4363 79.2719C38.4001 79.2311 38.3706 79.1858 38.3366 79.1405C38.058 78.624 37.7997 78.0961 37.5663 77.5546C37.5663 77.5342 37.5482 77.5115 37.5414 77.4911C37.487 77.2804 37.4213 76.995 37.3601 76.6461C37.2763 76.1771 37.2129 75.6764 37.1653 75.3116L37.1291 75.0239C37.017 74.0698 36.9708 73.1092 36.9909 72.1488V72.0786C37.0146 71.103 36.9593 70.1271 36.8255 69.1604C36.719 68.5329 36.429 66.8586 34.8929 66.9854C34.0433 67.0602 33.4519 67.715 33.2707 68.7776C33.1677 69.5302 33.1791 70.294 33.3047 71.0432C33.5151 72.4507 33.982 73.8076 34.6822 75.0465C35.1353 75.8984 35.6496 76.6959 36.148 77.4685C36.3474 77.7789 36.5468 78.087 36.7394 78.3997L36.7688 78.4336L36.8187 78.5583C36.9726 78.9472 37.1662 79.3192 37.3964 79.6684C38.0712 80.9094 38.8487 82.0916 39.7209 83.2028C39.7028 83.3206 39.6869 83.4407 39.6688 83.563C39.2565 83.2798 38.826 82.9558 38.4069 82.6386C38.1939 82.4755 37.9787 82.3147 37.768 82.1583C37.105 81.6365 36.3994 81.1711 35.6587 80.7672C35.2972 80.5653 34.9017 80.4317 34.4919 80.373C34.2202 80.3413 33.945 80.3782 33.6913 80.4803C33.4376 80.5824 33.2135 80.7465 33.0396 80.9575C32.4483 81.6236 32.5004 82.5095 33.1778 83.3251C33.6555 83.858 34.2347 84.2901 34.8816 84.5961C36.0416 85.2079 37.2084 85.4276 38.4046 85.6179C38.7648 85.6746 39.1273 85.7222 39.4876 85.772H39.5034C39.4574 87.4187 39.6981 89.0608 40.2148 90.625C40.4568 91.3281 40.7344 92.0185 41.0463 92.6935C40.8736 92.7763 40.7199 92.8939 40.5947 93.039C40.4696 93.184 40.3757 93.3533 40.3191 93.5363C40.0268 94.3836 40.4799 95.231 41.5538 95.8586C42.154 96.1942 42.7985 96.4436 43.4683 96.5994C44.5579 97.9307 45.8329 99.0988 47.2541 100.068C49.9729 101.937 53.4076 103.312 58.077 104.398C58.6344 104.527 59.2098 104.674 59.8012 104.833C61.2112 105.243 62.6502 105.546 64.1058 105.739C64.7621 106.743 65.3047 107.816 65.7235 108.94C65.7447 109.01 65.7799 109.074 65.8268 109.129C65.8738 109.184 65.9315 109.229 65.9965 109.262C66.0615 109.294 66.1323 109.312 66.2047 109.316C66.2771 109.32 66.3496 109.309 66.4175 109.284C66.4855 109.258 66.5476 109.22 66.6001 109.17C66.6525 109.12 66.6942 109.059 66.7226 108.993C66.7509 108.926 66.7654 108.854 66.765 108.782C66.7646 108.709 66.7494 108.637 66.7204 108.571C66.3592 107.61 65.9118 106.685 65.3837 105.805C67.3797 105.78 69.2216 105.107 70.5765 103.032C72.4501 100.156 73.481 96.4612 73.6487 92.0002L73.9251 91.9821C74.2536 91.964 74.5889 91.9685 74.9491 91.9821C75.3751 91.9821 75.6515 91.9821 75.8554 91.9821L76.1997 91.9685C77.3267 91.9489 78.451 91.8505 79.5642 91.674C80.9229 91.4693 82.2148 90.9495 83.3365 90.156C83.5925 89.9535 83.8327 89.7315 84.0547 89.4922ZM82.0881 78.9797C82.0881 78.6942 82.0994 78.411 82.104 78.1323C82.104 77.3711 82.1266 76.6529 82.2082 75.946C82.2195 75.8531 82.2308 75.7489 82.2444 75.6401C82.2718 75.2683 82.3363 74.9002 82.437 74.5413C82.5775 74.1176 82.7859 73.9273 83.1597 73.8797H83.2708C83.37 73.8736 83.4679 73.9051 83.5449 73.9681C83.7262 74.1199 83.8462 74.4892 83.8666 74.965C83.8795 75.799 83.7045 76.6252 83.3546 77.3824C83.264 77.609 83.1643 77.8129 83.0601 78.0236C82.8335 78.4767 82.5798 78.9298 82.3305 79.3558L82.1357 79.6979C82.113 79.7409 82.0836 79.7908 82.0496 79.8451C82.0496 79.7409 82.0496 79.6458 82.0632 79.5438C82.0768 79.3422 82.0881 79.1496 82.0926 78.9729L82.0881 78.9797ZM77.4254 79.1383C77.4848 79.1385 77.544 79.1446 77.6022 79.1564C78.0734 79.2538 78.2116 79.4962 78.1935 80.1895C78.1595 81.2611 77.5478 82.5616 77.0086 83.7057C76.9202 83.8961 76.8319 84.0818 76.748 84.2654C76.7276 84.3061 76.705 84.356 76.6755 84.4126C76.6574 84.1475 76.6302 83.8825 76.603 83.6174L76.5758 83.3908C76.4479 82.5557 76.4251 81.7078 76.5079 80.8669C76.5461 80.4246 76.6563 79.9914 76.8341 79.5846C77.0312 79.2175 77.2329 79.1315 77.43 79.1315L77.4254 79.1383ZM35.3234 73.9613C34.8438 73.0032 34.521 71.9744 34.3673 70.914C34.258 70.2739 34.245 69.6209 34.3287 68.9769C34.4262 68.3992 34.6505 68.0911 34.9926 68.0707H35.0605C35.3234 68.0707 35.5907 68.2293 35.7855 69.3666C35.8286 69.6204 35.858 69.8832 35.8784 70.1483C35.9283 70.7736 35.9351 71.4261 35.9373 72.1103V72.1783C35.9152 73.1872 35.9644 74.1964 36.0846 75.1983L36.1118 75.4249C35.9464 75.1462 35.7833 74.863 35.6292 74.573C35.5205 74.3646 35.4185 74.1607 35.3234 73.9613ZM76.1522 90.8923L75.7987 90.9059H75.5518C75.8939 90.7722 76.2315 90.6363 76.5736 90.4913C77.5999 90.0608 78.59 89.5986 79.5461 89.15L80.4523 88.7264C80.6789 88.6244 80.9326 88.4998 81.2068 88.3526C81.5625 88.1668 81.9318 87.9765 82.2648 87.8337L82.3033 87.8179C82.4415 87.7635 82.5752 87.7114 82.7112 87.6706C82.8268 87.6386 82.9451 87.6174 83.0646 87.6072H83.1416C83.2972 87.6045 83.4488 87.6567 83.5698 87.7544C83.665 87.8292 83.776 87.9153 83.6265 88.2574C83.5297 88.4403 83.411 88.6107 83.273 88.7649C83.0905 88.9541 82.8943 89.1298 82.6862 89.2905C81.6078 90.1016 80.2915 90.4551 79.3716 90.6114C78.3065 90.7812 77.2306 90.8751 76.1522 90.8923ZM76.5781 74.2649C76.6169 74.3645 76.6347 74.4711 76.6304 74.5779C76.6261 74.6847 76.5998 74.7895 76.5532 74.8857C76.0253 74.7815 75.6696 74.573 75.4997 74.2626C75.2572 73.8231 75.3977 73.2567 75.4657 73.046C75.4861 73.046 75.511 73.046 75.5314 73.0664C75.7773 73.1858 75.9967 73.3534 76.1765 73.5593C76.3563 73.7652 76.4929 74.0052 76.5781 74.2649ZM74.3125 73.4697C74.2706 73.9168 74.3579 74.3666 74.564 74.7656C74.8215 75.2244 75.2357 75.5751 75.7308 75.7534L73.1276 78.2456C72.9548 77.159 72.6307 76.1021 72.1647 75.1054L74.3125 73.4697ZM71.0251 75.2029C71.6949 76.514 72.0947 77.9462 72.2009 79.4147C72.2874 80.515 72.2585 81.6213 72.1148 82.7157C70.5901 81.5829 67.7626 81.3042 66.2944 81.61C65.148 81.8502 64.6269 81.5919 63.689 81.0029C64.8082 77.0018 66.3647 74.0315 68.3335 72.1352C69.4685 72.9192 70.3904 73.9735 71.016 75.2029H71.0251ZM75.1734 68.8229C74.6886 68.8229 74.1222 67.8124 74.1222 66.5119C74.1222 65.2115 74.6886 64.2033 75.1734 64.2033C75.6583 64.2033 76.2247 65.2115 76.2247 66.5119C76.2247 67.8124 75.6515 68.8229 75.1644 68.8229H75.1734ZM73.7891 63.9427C73.286 64.7031 73.0304 65.6005 73.0573 66.5119C73.0441 67.2681 73.2127 68.0163 73.549 68.6937C72.1836 68.7343 70.8498 69.1143 69.668 69.7993C66.6003 71.5416 64.2735 75.1258 62.7397 80.4478C61.5774 79.8655 60.5035 79.7681 59.092 79.6911C58.2832 79.6503 57.2795 79.3104 56.4933 78.9865C57.6262 75.0533 59.2416 72.3074 61.7247 70.0984C61.7925 70.0379 61.8438 69.9611 61.8735 69.8752C61.9033 69.7893 61.9106 69.6973 61.8947 69.6078C61.8788 69.5183 61.8402 69.4344 61.7827 69.364C61.7252 69.2936 61.6506 69.2391 61.5661 69.2058C60.7946 68.9161 60.0089 68.6658 59.2121 68.4558C59.1781 67.1758 59.1872 65.941 59.3322 65.2047L60.2815 65.6011C60.8705 65.8413 61.4256 66.0701 61.9399 66.3126C62.8756 66.7719 63.9018 67.0173 64.9441 67.0308C65.9938 67.0381 67.022 66.7338 67.8985 66.1562C69.5751 65.0438 71.8203 63.8702 73.7801 63.9427H73.7891ZM62.3953 65.3519C61.8538 65.0959 61.2874 64.8626 60.687 64.6156C60.4083 64.5023 60.1251 64.389 59.8374 64.2622C60.4174 63.7139 61.3894 63.5168 62.2843 63.6346C63.0546 63.7365 64.1126 64.7198 64.201 65.9002C63.572 65.8094 62.9603 65.6246 62.3862 65.3519H62.3953ZM59.2778 70.3363C59.2778 70.0848 59.2574 69.8265 59.2483 69.5637C59.6879 69.6883 60.0685 69.8061 60.3676 69.9058C59.996 70.2729 59.6426 70.6603 59.3073 71.0636C59.2891 70.8347 59.2801 70.5923 59.2687 70.3431L59.2778 70.3363ZM67.7422 59.5406C68.5102 60.4854 69.3802 62.7601 69.3281 64.0968C68.636 64.4481 67.9657 64.8408 67.3208 65.2726C66.7116 65.6723 66.0089 65.9065 65.2817 65.9523C65.2137 64.2486 63.7683 62.7555 62.4361 62.5788C60.7754 62.3522 58.7816 62.9708 58.3398 64.824C58.0521 66.0226 58.145 68.3403 58.2288 70.3861C58.2583 71.1474 58.2877 71.8656 58.2877 72.3776C58.2865 72.3965 58.2865 72.4154 58.2877 72.4343C57.1057 74.2292 56.2014 76.1921 55.6052 78.2569C55.2948 77.7789 54.699 77.3937 53.8494 77.1241C53.3446 76.9684 52.8188 76.8919 52.2906 76.8976C52.294 76.8629 52.294 76.828 52.2906 76.7933C52.2589 76.4059 52.2249 76.0094 52.1887 75.6016C51.7016 70.0984 51.0944 63.2494 55.3469 59.5157C56.7222 58.3036 58.6933 57.4902 60.7142 57.2387L60.909 57.2183C61.5464 57.1482 62.189 57.1391 62.828 57.1911C64.2803 57.2908 66.3262 57.8029 67.7422 59.5406ZM63.5009 48.9375C64.1919 48.6611 65.3655 48.8287 65.7801 49.4586C65.8378 49.5501 65.872 49.6543 65.8798 49.7622C64.6564 50.2289 64.0537 50.1088 63.1384 49.2184C63.2324 49.0945 63.3575 48.9976 63.5009 48.9375ZM62.7873 50.3308C63.3077 50.8099 63.9854 51.0823 64.6926 51.0966C65.0327 51.09 65.3703 51.0375 65.6963 50.9403L65.6555 51.0853C65.6012 51.2801 65.549 51.4682 65.5105 51.6381L64.4615 56.3823C63.9493 56.2519 63.4272 56.164 62.9005 56.1195C62.4106 56.0817 61.9186 56.0756 61.4279 56.1014L62.7873 50.3308ZM55.3107 47.0208C55.6279 46.8327 57.3747 46.4611 57.9252 46.7806C57.9864 46.8146 57.9864 46.8259 57.9841 46.8712V47.0389C57.5783 47.3832 57.0972 47.6273 56.5797 47.7517C56.0623 47.876 55.5228 47.8771 55.0048 47.7548C55.0343 47.381 55.1136 47.125 55.3107 47.0094V47.0208ZM55.0003 48.8333C55.2622 48.879 55.5274 48.9025 55.7933 48.9035C56.5778 48.9058 57.3488 48.6993 58.0272 48.3054C58.0997 49.5197 58.2537 51.0853 58.4395 52.5443C58.7205 54.6854 58.9765 55.8114 59.1985 56.4231C58.2689 56.6461 57.3697 56.9808 56.5205 57.42C55.4806 55.322 55.0547 51.7763 55.0003 48.8287V48.8333ZM50.281 54.2458C50.8157 53.9717 51.2099 53.9286 51.5566 54.1258C51.3911 54.6903 51.0285 55.1767 50.5348 55.4965C50.1363 55.7508 49.6541 55.8395 49.1912 55.7434C49.1779 55.6906 49.1689 55.6368 49.1641 55.5826C49.1097 54.9504 49.3906 54.6944 50.281 54.2413V54.2458ZM49.9344 56.8241C50.3476 56.7674 50.7438 56.6229 51.0966 56.4004C51.6279 56.0619 52.0577 55.5859 52.3405 55.0229C52.7936 55.68 53.1198 56.1036 53.4076 56.482C53.908 57.1298 54.3739 57.8037 54.8032 58.5007C54.8032 58.5143 54.8213 58.5233 54.8281 58.5347C54.7624 58.589 54.6922 58.6434 54.6265 58.7C53.94 59.3087 53.3428 60.0112 52.8525 60.7867C52.0391 59.6244 50.5846 57.6715 49.9344 56.8196V56.8241ZM41.6512 67.6515C41.394 67.4044 41.2105 67.0906 41.1211 66.7453C41.0962 66.6613 41.0902 66.5729 41.1035 66.4863C41.1168 66.3997 41.1491 66.3172 41.1981 66.2446C41.2814 66.1745 41.3886 66.1396 41.4972 66.1472C41.5649 66.1475 41.6324 66.1544 41.6988 66.1675C42.045 66.255 42.3592 66.4388 42.6051 66.6977C42.9083 67.0168 43.1278 67.406 43.244 67.8305C43.355 68.2406 43.2961 68.4626 43.2621 68.4966C43.1284 68.5827 42.3423 68.3426 41.6512 67.6515ZM44.37 68.0933C44.3568 67.9101 44.3249 67.7286 44.2748 67.5518C44.1124 66.9488 43.8007 66.3964 43.3686 65.9455C43.2039 65.7816 43.0215 65.6365 42.8248 65.5128C45.5725 64.5445 48.4846 64.1294 51.3934 64.2916C51.1464 65.2702 50.9797 66.2674 50.895 67.2732C48.6909 67.2406 46.4931 67.5167 44.3655 68.0933H44.37ZM47.4218 71.3354C49.3612 71.3354 50.5529 72.099 50.5529 72.645C50.5529 73.191 49.3317 73.9568 47.4218 73.9568C45.5119 73.9568 44.2907 73.1797 44.2907 72.645C44.2907 72.1103 45.4779 71.3354 47.4173 71.3354H47.4218ZM44.2907 74.2558C45.0474 74.7316 46.1508 75.0216 47.4218 75.0216C48.9511 75.0216 50.238 74.6025 50.9675 73.9454C51.0151 74.5436 51.0672 75.1258 51.117 75.6854C51.1533 76.091 51.1873 76.4875 51.219 76.8726C51.219 76.8975 51.2348 76.9179 51.2394 76.9429C50.9063 76.9768 50.5755 77.0222 50.247 77.0675C49.2547 77.2034 48.3167 77.3303 47.4422 77.1558C46.41 76.9149 45.3495 76.8173 44.2907 76.8658V74.2558ZM44.8594 77.9103C45.6598 77.9284 46.4566 78.0247 47.2383 78.198C48.2895 78.411 49.3612 78.2637 50.4101 78.121C51.5294 77.9669 52.5874 77.8219 53.5276 78.121C54.2934 78.3702 54.7488 78.6919 54.8055 79.0272C54.8462 79.2719 54.7511 79.9856 52.9794 81.3246C52.0146 82.044 51.1058 82.8354 50.2606 83.6922C49.8773 84.0587 49.4643 84.3929 49.0258 84.6913C48.3892 85.1444 47.7299 85.6293 47.2133 86.3135C46.7814 86.9353 46.4553 87.6243 46.2482 88.3526C45.7558 87.9266 45.2732 87.4946 44.8005 87.0566C44.663 86.9161 44.5248 86.7689 44.3859 86.6148C44.259 86.4698 44.1321 86.3226 44.0188 86.1798C43.9424 86.0546 43.883 85.9197 43.8421 85.7788C43.7288 85.371 43.6337 84.9088 43.5657 84.5712L43.5068 84.288C43.363 83.4977 43.2872 82.6965 43.2802 81.8932V81.7437C43.273 80.9457 43.1919 80.1501 43.0378 79.3671C42.9751 79.0698 42.8777 78.7808 42.7478 78.5061C43.253 78.0983 43.9531 77.9103 44.8594 77.9103ZM56.772 95.6728C56.3325 95.1766 55.8658 94.5943 55.3515 93.9396C54.81 93.2463 54.409 92.698 54.0487 92.1679L53.8335 91.8552C53.4766 91.3639 53.1556 90.8475 52.8729 90.31C52.4198 89.363 52.6599 89.0934 52.7551 88.9892C52.7811 88.9535 52.8152 88.9244 52.8545 88.9043C52.8939 88.8842 52.9374 88.8737 52.9816 88.8736C53.2218 88.8736 53.6998 89.1365 54.3251 89.8547C55.0871 90.7679 55.6989 91.7965 56.1376 92.9019C56.2577 93.1874 56.3642 93.4751 56.4752 93.7606L56.7856 94.617C57.0122 95.2468 57.2138 95.7679 57.4313 96.2686C57.4608 96.3366 57.4948 96.4182 57.531 96.4952C57.2569 96.2301 57.0054 95.9515 56.7607 95.6728H56.772ZM42.1089 94.9523C41.8234 94.7847 41.1777 94.3497 41.3341 93.8943C41.3688 93.7951 41.4413 93.7137 41.5357 93.6677C41.6534 93.6164 41.7813 93.5932 41.9095 93.5997C42.2015 93.6107 42.4919 93.6478 42.7773 93.7108L43.0718 93.7719C43.3165 93.8263 43.5657 93.892 43.8172 93.9577C44.1412 94.0438 44.4697 94.1367 44.8095 94.2341H44.8344C45.2876 94.361 45.7407 94.4901 46.1938 94.6079C47.3272 94.8892 48.4775 95.0973 49.6376 95.231L49.8913 95.2672L49.2116 95.4122L48.8151 95.4961C48.0917 95.6628 47.3573 95.7779 46.6175 95.8404C45.9601 95.885 45.2997 95.8561 44.6487 95.7543C44.5354 95.7362 44.4221 95.7226 44.3133 95.7C43.6485 95.5826 43.0013 95.3809 42.3876 95.0996C42.2766 95.0543 42.1859 95.0044 42.0976 94.9523H42.1089ZM51.8352 94.574C51.1566 94.404 50.469 94.2716 49.7758 94.1775C48.6538 94.0461 47.5414 93.8433 46.4453 93.5703C46.0398 93.4661 45.641 93.3437 45.2468 93.2395C45.4076 92.9201 45.5889 92.5938 45.7769 92.2585C45.965 91.9232 46.1644 91.5629 46.3411 91.205C46.5017 90.8789 46.6395 90.542 46.7534 90.1968C48.0766 91.3001 49.4359 92.3763 50.7862 93.4434C51.3421 93.8799 51.9002 94.3225 52.4605 94.7711C52.268 94.7031 52.0527 94.6397 51.8239 94.574H51.8352ZM40.5071 79.3422C40.634 78.6217 40.9919 78.5922 41.1392 78.5809H41.2253C41.538 78.5809 41.7396 78.7554 41.9254 79.4373C41.9412 79.494 41.9571 79.5506 41.973 79.614C42.1132 80.3316 42.189 81.0602 42.1995 81.7913V81.9408C42.2109 82.8068 42.2966 83.6701 42.4555 84.5214L42.4941 84.7094C42.196 84.3392 41.9177 83.9535 41.6603 83.554C41.4006 83.15 41.1769 82.7239 40.9919 82.2807C40.8174 81.8671 40.686 81.4366 40.6 80.9961C40.5438 80.6963 40.5037 80.3938 40.4799 80.0898C40.4548 79.841 40.4586 79.5901 40.4912 79.3422H40.5071ZM38.5926 84.5893C37.4485 84.4081 36.4199 84.2132 35.3981 83.6831C34.8787 83.4382 34.4111 83.096 34.0206 82.6749C33.6898 82.2761 33.6377 81.9454 33.8643 81.6893C33.9175 81.6195 33.986 81.5628 34.0646 81.5235C34.1431 81.4842 34.2296 81.4635 34.3174 81.4628H34.4035C34.6809 81.5116 34.9476 81.6082 35.1919 81.7483C35.8791 82.1255 36.5338 82.559 37.1494 83.0442C37.3579 83.1983 37.5686 83.3568 37.7793 83.5177C38.2777 83.8961 38.7943 84.2858 39.2882 84.612L39.4513 84.723C39.1545 84.6732 38.8645 84.6347 38.5768 84.5893H38.5926ZM40.5887 85.9487C40.9806 86.0099 41.368 86.0779 41.7509 86.1617H41.7894C42.0862 86.2908 42.3808 86.4154 42.6753 86.5401C42.7954 86.6579 42.9177 86.7666 43.0423 86.8708C43.3958 87.2152 43.7537 87.5505 44.1162 87.8881C44.2544 88.0263 44.3926 88.1622 44.5309 88.2891C44.5561 88.3087 44.5835 88.3254 44.6124 88.339C45.0338 88.7196 45.462 89.0934 45.8948 89.4718C45.766 89.9076 45.6031 90.3325 45.4076 90.7428C45.24 91.0781 45.0497 91.4225 44.8639 91.7533C44.6373 92.1429 44.4244 92.5462 44.225 92.9631C43.9191 92.8793 43.6155 92.8022 43.3187 92.7365H43.2825C42.9177 92.6521 42.5475 92.5931 42.1746 92.5598C41.8202 91.8237 41.51 91.0672 41.2457 90.2942C40.7772 88.8934 40.5497 87.4233 40.5728 85.9465L40.5887 85.9487ZM60.0866 103.815C59.4794 103.655 58.9062 103.505 58.3353 103.362C53.4687 102.23 48.6611 100.591 45.1494 96.8826C45.428 96.9075 45.7067 96.9211 45.9899 96.9211C46.2165 96.9211 46.4566 96.9211 46.69 96.8962C47.4793 96.8315 48.2629 96.7103 49.0349 96.5337L49.4337 96.4476C50.0295 96.3208 50.5914 96.1984 51.185 96.1146C51.8723 96.02 52.5705 96.0399 53.2512 96.1735C53.2701 96.1756 53.2891 96.1756 53.3079 96.1735C53.863 96.3593 54.4067 96.57 54.9414 96.7784C55.2835 97.0661 55.6211 97.3539 55.9564 97.6416C56.5168 98.1295 57.0711 98.6045 57.6194 99.0667C59.7491 100.879 61.6975 102.531 63.263 104.54C62.2073 104.373 61.1334 104.092 60.0708 103.813L60.0866 103.815ZM69.6997 102.456C68.4581 104.359 66.6841 104.842 64.7153 104.722C63.7125 103.319 62.5626 102.028 61.2851 100.87C61.2626 100.807 61.2289 100.749 61.1855 100.698C60.6138 100.033 60.0899 99.3278 59.6176 98.5886C59.4976 98.3621 59.3435 98.0472 59.1645 97.6597C58.9719 97.2338 58.7884 96.7852 58.6366 96.4136C58.5437 96.1871 58.4644 95.9945 58.4101 95.8472C58.2016 95.3692 58.0113 94.8662 57.7893 94.2613L57.4766 93.4026C57.3633 93.099 57.2501 92.7977 57.1209 92.4964C56.6418 91.2868 55.9734 90.1611 55.1408 89.1614C54.3705 88.2755 53.6523 87.8247 53.0066 87.8179H52.993C52.802 87.8169 52.613 87.8569 52.4387 87.9351C52.2644 88.0132 52.1089 88.1278 51.9825 88.271C51.4319 88.8736 51.4138 89.7165 51.9304 90.7768C52.2354 91.363 52.5838 91.9257 52.9726 92.4601C53.0451 92.5689 53.1153 92.6686 53.181 92.7637C53.5548 93.3165 53.9694 93.8807 54.5245 94.5921C54.8848 95.0611 55.2337 95.4983 55.5667 95.888L55.5033 95.8631C54.1869 94.762 52.814 93.6768 51.475 92.6165C50.0159 91.4655 48.5478 90.3032 47.1273 89.107C47.3719 88.3072 47.6189 87.5573 48.0652 86.9592C48.5201 86.4163 49.0548 85.9457 49.6512 85.5636C50.1342 85.2301 50.5889 84.8573 51.0105 84.4489C51.8215 83.6282 52.6941 82.8708 53.6205 82.1833C54.7647 81.32 55.467 80.5384 55.7434 79.8179C56.6497 80.2235 57.9683 80.7015 59.0535 80.7559C60.5851 80.8329 61.6001 80.9349 62.7963 81.6916L62.8892 81.7505C64.0764 82.505 64.8603 83.0011 66.5142 82.6568C68.1681 82.3124 71.3876 82.872 71.9925 84.1498C72.6155 85.4684 72.6155 87.6162 72.6155 89.3426V89.644C70.963 91.2553 69.4997 93.0499 68.2542 94.9931C68.3879 94.4607 68.5215 93.9169 68.5646 93.5975L68.6462 93.1285C68.8 92.3261 68.9044 91.515 68.9588 90.6997C69.0478 89.6337 68.8928 88.5614 68.5057 87.5641C68.3199 87.111 67.894 86.2954 67.1463 86.0393C66.9446 85.9711 66.7304 85.9477 66.5187 85.9708C66.307 85.9939 66.1029 86.0629 65.9206 86.173C65.2273 86.5559 64.9056 87.2107 64.9623 88.1101C64.9977 88.5482 65.0735 88.982 65.1888 89.4061C65.2228 89.5465 65.2545 89.6802 65.2817 89.8116C65.4584 90.5819 65.685 91.3182 65.9251 92.0954C66.0203 92.408 66.1177 92.7252 66.2106 93.0447C66.5464 94.1189 66.7741 95.2239 66.8903 96.3434C66.8903 96.3434 66.8903 96.3593 66.8903 96.3706C66.8359 96.8962 66.7747 97.3992 66.7204 97.8568C66.215 99.0292 65.8302 100.25 65.5717 101.5C65.5429 101.638 65.5701 101.782 65.6475 101.9C65.7248 102.018 65.8459 102.101 65.984 102.13C66.0202 102.134 66.0567 102.134 66.0928 102.13C66.2151 102.13 66.3337 102.088 66.4286 102.011C66.5235 101.933 66.5889 101.826 66.6139 101.706C67.2301 98.7608 68.6054 95.9696 70.837 93.1806C70.8704 93.1656 70.9023 93.1474 70.9322 93.1262C71.4187 92.7248 71.9757 92.4175 72.5747 92.22C72.3844 96.3593 71.417 99.7962 69.6838 102.452L69.6997 102.456ZM67.9008 90.6454C67.8477 91.418 67.7478 92.1867 67.6017 92.9472L67.5179 93.4366C67.5179 93.4887 67.4997 93.5522 67.4862 93.6201C67.4069 93.3165 67.323 93.022 67.2415 92.7433C67.1463 92.4193 67.0466 92.0999 66.9492 91.785C66.7226 91.0237 66.4961 90.3055 66.333 89.5873C66.3058 89.4559 66.2695 89.3109 66.2333 89.1546C66.133 88.7937 66.0663 88.4244 66.0339 88.0512C65.9954 87.4395 66.2083 87.2356 66.4485 87.1019C66.5227 87.0551 66.6078 87.0285 66.6955 87.0249C66.7332 87.0254 66.7706 87.0315 66.8065 87.043C67.0489 87.1291 67.3208 87.4825 67.5224 87.9742C67.8416 88.8247 67.9654 89.736 67.8849 90.6408L67.9008 90.6454Z" fill="#C6C8CC"/>
</svg>
